<?xml version="1.0" encoding="UTF-8"?>
<!DOCTYPE svg PUBLIC "-//W3C//DTD SVG 1.1//EN" "http://www.w3.org/Graphics/SVG/1.1/DTD/svg11.dtd">
<!-- Creator: CorelDRAW 2018 (64-Bit) -->
<svg xmlns="http://www.w3.org/2000/svg" xml:space="preserve" width="35px" height="31px" version="1.1" style="shape-rendering:geometricPrecision; text-rendering:geometricPrecision; image-rendering:optimizeQuality; fill-rule:evenodd; clip-rule:evenodd"
viewBox="0 0 1.54 1.37"
 xmlns:xlink="http://www.w3.org/1999/xlink">
 <defs>
  <style type="text/css">
   <![CDATA[
    .fil0 {fill:#088378}
   ]]>
  </style>
 </defs>
 <g id="Layer_x0020_1">
  <metadata id="CorelCorpID_0Corel-Layer"/>
  <path class="fil0" d="M0.08 0l1.15 0c0.04,0 0.08,0.04 0.08,0.08l0 0.05 0 0.23 0 0.03c0,0.03 -0.03,0.05 -0.06,0.05l0 0c-0.03,0 -0.06,-0.02 -0.06,-0.05l0 -0.03 -1.07 0 0 0.71 0.19 0 0.17 0 0.08 0c0.04,0 0.06,0.03 0.06,0.06l0 0c0,0.03 -0.02,0.06 -0.06,0.06l-0.08 0 -0.17 0 -0.23 0c-0.04,0 -0.08,-0.04 -0.08,-0.08l0 -1.03c0,-0.04 0.04,-0.08 0.08,-0.08zm1.05 0.54c0.23,0 0.41,0.19 0.41,0.42 0,0.23 -0.18,0.41 -0.41,0.41 -0.23,0 -0.42,-0.18 -0.42,-0.41 0,-0.23 0.19,-0.42 0.42,-0.42zm-0.21 0.34c-0.01,-0.01 -0.01,-0.04 0,-0.05 0.02,-0.02 0.04,-0.02 0.06,-0.01l0.15 0.14 0.21 -0.16c0.02,-0.02 0.05,-0.01 0.06,0.01 0.01,0.01 0.01,0.04 -0.01,0.05l-0.23 0.18c-0.02,0.02 -0.04,0.02 -0.06,0l-0.18 -0.16zm-0.65 -0.1l0.18 0 0 0.18 -0.18 0 0 -0.18zm0.3 -0.3l0.18 0 0 0.18 -0.18 0 0 -0.18zm-0.3 0l0.18 0 0 0.18 -0.18 0 0 -0.18zm0.09 -0.38c0.04,0 0.07,0.04 0.07,0.08 0,0.04 -0.03,0.08 -0.07,0.08 -0.05,0 -0.08,-0.04 -0.08,-0.08 0,-0.04 0.03,-0.08 0.08,-0.08zm0.59 0c0.05,0 0.08,0.04 0.08,0.08 0,0.04 -0.03,0.08 -0.08,0.08 -0.04,0 -0.08,-0.04 -0.08,-0.08 0,-0.04 0.04,-0.08 0.08,-0.08z"/>
 </g>
</svg>
