<?xml version="1.0" encoding="UTF-8"?>
<!DOCTYPE svg PUBLIC "-//W3C//DTD SVG 1.1//EN" "http://www.w3.org/Graphics/SVG/1.1/DTD/svg11.dtd">
<!-- Creator: CorelDRAW 2018 (64-Bit) -->
<svg xmlns="http://www.w3.org/2000/svg" xml:space="preserve" width="35px" height="35px" version="1.1" style="shape-rendering:geometricPrecision; text-rendering:geometricPrecision; image-rendering:optimizeQuality; fill-rule:evenodd; clip-rule:evenodd"
viewBox="0 0 1.54 1.54"
 xmlns:xlink="http://www.w3.org/1999/xlink">
 <defs>
  <style type="text/css">
   <![CDATA[
    .fil0 {fill:#088378}
   ]]>
  </style>
 </defs>
 <g id="Layer_x0020_1">
  <metadata id="CorelCorpID_0Corel-Layer"/>
  <path class="fil0" d="M0.34 0l0.87 0c0.18,0 0.33,0.15 0.33,0.34l0 0.87c0,0.18 -0.15,0.33 -0.33,0.33l-0.87 0c-0.19,0 -0.34,-0.15 -0.34,-0.33l0 -0.87c0,-0.19 0.15,-0.34 0.34,-0.34zm0.73 0.49l0 -0.17 0.08 0c0.05,0 0.08,0.03 0.08,0.08 0,0.06 -0.03,0.09 -0.08,0.09l-0.08 0zm-0.86 0.25l0.1 0 0 -0.39 0.02 0 0.15 0.39 0.16 0 0 -0.52 -0.11 0 0 0.39 -0.01 0 -0.15 -0.39 -0.16 0 0 0.52zm0 0.06l0.11 0.52 0.15 0 0.06 -0.37 0.06 0.37 0.15 0 0.11 -0.52 0 -0.58 -0.11 0 0 0.58 -0.07 0.42 -0.01 0 -0.08 -0.42 -0.11 0 -0.07 0.42 -0.01 0 -0.08 -0.42 -0.1 0zm0.86 0.27l0 -0.17 0.08 0c0.05,0 0.08,0.03 0.08,0.08 0,0.06 -0.03,0.09 -0.08,0.09l-0.08 0zm0.08 0.1c0.12,0 0.19,-0.07 0.19,-0.19 0,-0.12 -0.07,-0.18 -0.19,-0.18l-0.19 0 0 0.52 0.11 0 0 -0.15 0.08 0zm0 -0.58c0.12,0 0.19,-0.07 0.19,-0.19 0,-0.12 -0.07,-0.18 -0.19,-0.18l-0.19 0 0 0.52 0.11 0 0 -0.15 0.08 0z"/>
 </g>
</svg>
