<?xml version="1.0" encoding="UTF-8"?>
<!DOCTYPE svg PUBLIC "-//W3C//DTD SVG 1.1//EN" "http://www.w3.org/Graphics/SVG/1.1/DTD/svg11.dtd">
<!-- Creator: CorelDRAW 2018 (64-Bit) -->
<svg xmlns="http://www.w3.org/2000/svg" xml:space="preserve" width="35px" height="25px" version="1.1" style="shape-rendering:geometricPrecision; text-rendering:geometricPrecision; image-rendering:optimizeQuality; fill-rule:evenodd; clip-rule:evenodd"
viewBox="0 0 1.77 1.25"
 xmlns:xlink="http://www.w3.org/1999/xlink">
 <defs>
  <style type="text/css">
   <![CDATA[
    .fil0 {fill:#088378}
   ]]>
  </style>
 </defs>
 <g id="Layer_x0020_1">
  <metadata id="CorelCorpID_0Corel-Layer"/>
  <path class="fil0" d="M0.11 0l1.55 0c0.03,0 0.05,0 0.06,0.01 0.02,0.01 0.03,0.02 0.04,0.04 0.01,0.01 0.01,0.03 0.01,0.06l0 0c0,0.03 0,0.05 -0.01,0.06 -0.01,0.02 -0.02,0.03 -0.04,0.04 -0.01,0.01 -0.03,0.01 -0.06,0.01l-1.55 0c-0.03,0 -0.05,0 -0.06,-0.01 -0.02,-0.01 -0.03,-0.02 -0.04,-0.04 -0.01,-0.01 -0.01,-0.03 -0.01,-0.06l0 0c0,-0.03 0,-0.05 0.01,-0.06 0.01,-0.02 0.02,-0.03 0.04,-0.04 0.01,-0.01 0.03,-0.01 0.06,-0.01zm0 1.03l1.55 0c0.03,0 0.05,0.01 0.06,0.02 0.02,0 0.03,0.02 0.04,0.03 0.01,0.02 0.01,0.04 0.01,0.06l0 0.01c0,0.02 0,0.04 -0.01,0.05 -0.01,0.02 -0.02,0.03 -0.04,0.04 -0.01,0.01 -0.03,0.01 -0.06,0.01l-1.55 0c-0.03,0 -0.05,0 -0.06,-0.01 -0.02,-0.01 -0.03,-0.02 -0.04,-0.04 -0.01,-0.01 -0.01,-0.03 -0.01,-0.05l0 -0.01c0,-0.02 0,-0.04 0.01,-0.06 0.01,-0.01 0.02,-0.03 0.04,-0.03 0.01,-0.01 0.03,-0.02 0.06,-0.02zm0 -0.51l1.55 0c0.03,0 0.05,0 0.06,0.01 0.02,0.01 0.03,0.02 0.04,0.04 0.01,0.01 0.01,0.03 0.01,0.05l0 0.01c0,0.02 0,0.04 -0.01,0.06 -0.01,0.01 -0.02,0.03 -0.04,0.03 -0.01,0.01 -0.03,0.02 -0.06,0.02l-1.55 0c-0.03,0 -0.05,-0.01 -0.06,-0.02 -0.02,0 -0.03,-0.02 -0.04,-0.03 -0.01,-0.02 -0.01,-0.04 -0.01,-0.06l0 -0.01c0,-0.02 0,-0.04 0.01,-0.05 0.01,-0.02 0.02,-0.03 0.04,-0.04 0.01,-0.01 0.03,-0.01 0.06,-0.01z"/>
 </g>
</svg>
