<?xml version="1.0" encoding="UTF-8"?>
<!DOCTYPE svg PUBLIC "-//W3C//DTD SVG 1.1//EN" "http://www.w3.org/Graphics/SVG/1.1/DTD/svg11.dtd">
<!-- Creator: CorelDRAW 2018 (64-Bit) -->
<svg xmlns="http://www.w3.org/2000/svg" xml:space="preserve" width="25px" height="35px" version="1.1" style="shape-rendering:geometricPrecision; text-rendering:geometricPrecision; image-rendering:optimizeQuality; fill-rule:evenodd; clip-rule:evenodd"
viewBox="0 0 0.77 1.1"
 xmlns:xlink="http://www.w3.org/1999/xlink">
 <defs>
  <style type="text/css">
   <![CDATA[
    .fil0 {fill:#088378}
   ]]>
  </style>
 </defs>
 <g id="Layer_x0020_1">
  <metadata id="CorelCorpID_0Corel-Layer"/>
  <path class="fil0" d="M0.34 0.38l0 -0.23 -0.12 0.09 0 0 -0.05 0.04c-0.02,0.01 -0.04,0.01 -0.05,-0.01l-0.02 -0.01c-0.01,-0.02 -0.01,-0.04 0.01,-0.05l0 -0.01 0 0 0.24 -0.19c0.02,-0.01 0.05,-0.01 0.06,0l0.24 0.19 0 0 0.01 0.01c0.01,0.01 0.02,0.03 0,0.05l-0.01 0.01c-0.01,0.02 -0.04,0.02 -0.05,0.01l-0.05 -0.04 -0.12 -0.09 0 0.23 0.14 0c0.07,0 0.09,0.01 0.12,0.02 0.02,0.02 0.04,0.04 0.06,0.06 0.01,0.03 0.02,0.05 0.02,0.12l0 0.33c0,0.06 -0.01,0.09 -0.02,0.11 -0.02,0.03 -0.04,0.05 -0.06,0.06 -0.03,0.01 -0.05,0.02 -0.12,0.02l-0.37 0c-0.07,0 -0.1,-0.01 -0.12,-0.02 -0.03,-0.01 -0.05,-0.03 -0.06,-0.06 -0.01,-0.02 -0.02,-0.05 -0.02,-0.11l0 -0.33c0,-0.07 0.01,-0.09 0.02,-0.12 0.01,-0.02 0.03,-0.04 0.06,-0.06 0.02,-0.01 0.05,-0.02 0.12,-0.02l0.14 0zm0 0l0 0.34c0,0.01 0,0.02 0,0.03 0,0 0.01,0.01 0.01,0.01 0.01,0 0.02,0.01 0.03,0.01l0.01 0c0.01,0 0.02,-0.01 0.02,-0.01 0.01,0 0.01,-0.01 0.02,-0.01 0,-0.01 0,-0.02 0,-0.03l0 -0.34 -0.09 0z"/>
 </g>
</svg>
