<?xml version="1.0" encoding="UTF-8"?>
<!DOCTYPE svg PUBLIC "-//W3C//DTD SVG 1.1//EN" "http://www.w3.org/Graphics/SVG/1.1/DTD/svg11.dtd">
<!-- Creator: CorelDRAW 2018 (64-Bit) -->
<svg xmlns="http://www.w3.org/2000/svg" xml:space="preserve" width="35px" height="29px" version="1.1" style="shape-rendering:geometricPrecision; text-rendering:geometricPrecision; image-rendering:optimizeQuality; fill-rule:evenodd; clip-rule:evenodd"
viewBox="0 0 1.54 1.29"
 xmlns:xlink="http://www.w3.org/1999/xlink">
 <defs>
  <style type="text/css">
   <![CDATA[
    .fil0 {fill:#088378}
   ]]>
  </style>
 </defs>
 <g id="Layer_x0020_1">
  <metadata id="CorelCorpID_0Corel-Layer"/>
  <path class="fil0" d="M0.75 0.01l-0.75 0.48 0.05 0.08 0.14 -0.09 0 0.71 -0.1 0 0 0.1 1.39 0 0 -0.1 -0.12 0 0 -0.71 0.14 0.09 0.04 -0.08 -0.74 -0.48c-0.02,-0.01 -0.04,-0.01 -0.05,0zm0.15 0.61c0,-0.07 -0.06,-0.12 -0.12,-0.12 -0.07,0 -0.13,0.05 -0.13,0.12 0,0.07 0.06,0.12 0.13,0.12 0.06,0 0.12,-0.05 0.12,-0.12zm0.17 0c0,0.17 -0.29,0.47 -0.29,0.47 0,0 -0.3,-0.3 -0.3,-0.47 0,-0.16 0.13,-0.29 0.3,-0.29 0.16,0 0.29,0.13 0.29,0.29z"/>
 </g>
</svg>
