<?xml version="1.0" encoding="UTF-8"?>
<!DOCTYPE svg PUBLIC "-//W3C//DTD SVG 1.1//EN" "http://www.w3.org/Graphics/SVG/1.1/DTD/svg11.dtd">
<!-- Creator: CorelDRAW 2018 (64-Bit) -->
<svg xmlns="http://www.w3.org/2000/svg" xml:space="preserve" width="542px" height="63px" version="1.1" style="shape-rendering:geometricPrecision; text-rendering:geometricPrecision; image-rendering:optimizeQuality; fill-rule:evenodd; clip-rule:evenodd"
viewBox="0 0 229.25 26.47"
 xmlns:xlink="http://www.w3.org/1999/xlink">
 <defs>
  <style type="text/css">
   <![CDATA[
    .str0 {stroke:#088378;stroke-miterlimit:22.9256}
    .fil0 {fill:none}
    .fil2 {fill:#088378}
    .fil1 {fill:#B6B6B7;fill-rule:nonzero}
   ]]>
  </style>
 </defs>
 <g id="Layer_x0020_1">
  <metadata id="CorelCorpID_0Corel-Layer"/>
  <g id="_2298700300832">
   <rect class="fil0 str0" x="0.5" y="0.5" width="228.25" height="25.47" rx="14.17" ry="5.34"/>
   <path class="fil1" d="M39.64 15.96l-4.11 -5.95c-0.05,-0.08 -0.1,-0.15 -0.16,-0.23 -0.05,-0.08 -0.09,-0.16 -0.12,-0.24l-0.02 0c0,0.07 0.01,0.15 0.02,0.26 0,0.11 0,0.25 0,0.42l0 5.74 -0.68 0 0 -7.41 0.76 0 4.04 5.87c0.06,0.1 0.12,0.18 0.17,0.26 0.05,0.08 0.1,0.16 0.14,0.23l0.02 0c-0.01,-0.12 -0.02,-0.24 -0.03,-0.39 0,-0.14 -0.01,-0.29 -0.01,-0.46l0 -5.51 0.69 0 0 7.41 -0.71 0z"/>
   <path id="1" class="fil1" d="M45.22 15.96l0 -0.94 -0.02 0c-0.18,0.33 -0.41,0.6 -0.71,0.78 -0.3,0.19 -0.63,0.28 -1.01,0.28 -0.25,0 -0.48,-0.03 -0.69,-0.11 -0.2,-0.07 -0.38,-0.17 -0.52,-0.31 -0.14,-0.13 -0.25,-0.29 -0.33,-0.47 -0.08,-0.19 -0.12,-0.39 -0.12,-0.62 0,-0.48 0.15,-0.86 0.45,-1.14 0.29,-0.29 0.74,-0.47 1.34,-0.56l1.61 -0.23c0,-1.02 -0.4,-1.52 -1.19,-1.52 -0.61,0 -1.19,0.22 -1.71,0.67l0 -0.72c0.11,-0.08 0.23,-0.15 0.37,-0.22 0.14,-0.06 0.29,-0.11 0.44,-0.16 0.16,-0.05 0.32,-0.08 0.48,-0.11 0.17,-0.03 0.32,-0.04 0.48,-0.04 0.59,0 1.04,0.17 1.34,0.5 0.3,0.33 0.45,0.82 0.45,1.48l0 3.44 -0.66 0zm-1.37 -2.57c-0.23,0.03 -0.44,0.08 -0.61,0.13 -0.17,0.05 -0.31,0.12 -0.42,0.21 -0.11,0.09 -0.19,0.19 -0.24,0.32 -0.05,0.13 -0.08,0.29 -0.08,0.48 0,0.14 0.03,0.27 0.08,0.39 0.05,0.12 0.12,0.23 0.22,0.32 0.09,0.08 0.21,0.15 0.34,0.2 0.14,0.05 0.29,0.07 0.46,0.07 0.24,0 0.45,-0.04 0.65,-0.13 0.2,-0.09 0.37,-0.21 0.51,-0.37 0.14,-0.16 0.25,-0.35 0.34,-0.57 0.08,-0.22 0.12,-0.46 0.12,-0.72l0 -0.52 -1.37 0.19z"/>
   <path id="2" class="fil1" d="M54.12 15.96l0 -3.11c0,-0.32 -0.02,-0.59 -0.07,-0.81 -0.05,-0.22 -0.12,-0.39 -0.23,-0.53 -0.1,-0.14 -0.23,-0.24 -0.38,-0.3 -0.16,-0.06 -0.35,-0.09 -0.56,-0.09 -0.2,0 -0.38,0.04 -0.55,0.13 -0.17,0.09 -0.33,0.22 -0.45,0.38 -0.13,0.16 -0.24,0.35 -0.31,0.56 -0.07,0.22 -0.11,0.46 -0.11,0.71l0 3.06 -0.66 0 0 -3.18c0,-1.11 -0.43,-1.66 -1.28,-1.66 -0.19,0 -0.38,0.04 -0.55,0.13 -0.16,0.08 -0.31,0.21 -0.44,0.37 -0.12,0.16 -0.22,0.35 -0.29,0.57 -0.07,0.22 -0.11,0.47 -0.11,0.73l0 3.04 -0.66 0 0 -5.29 0.66 0 0 0.85 0.02 0c0.37,-0.65 0.92,-0.98 1.63,-0.98 0.19,0 0.36,0.03 0.53,0.09 0.16,0.05 0.31,0.13 0.44,0.23 0.13,0.11 0.25,0.23 0.34,0.37 0.09,0.14 0.17,0.29 0.21,0.46 0.19,-0.37 0.43,-0.66 0.73,-0.85 0.3,-0.2 0.64,-0.3 1.01,-0.3 1.16,0 1.74,0.72 1.74,2.15l0 3.27 -0.66 0z"/>
   <path id="3" class="fil1" d="M59.42 15.96l0 -0.94 -0.02 0c-0.17,0.33 -0.4,0.6 -0.7,0.78 -0.3,0.19 -0.64,0.28 -1.01,0.28 -0.26,0 -0.49,-0.03 -0.69,-0.11 -0.21,-0.07 -0.38,-0.17 -0.52,-0.31 -0.15,-0.13 -0.26,-0.29 -0.34,-0.47 -0.07,-0.19 -0.11,-0.39 -0.11,-0.62 0,-0.48 0.15,-0.86 0.44,-1.14 0.3,-0.29 0.75,-0.47 1.35,-0.56l1.6 -0.23c0,-1.02 -0.39,-1.52 -1.18,-1.52 -0.62,0 -1.19,0.22 -1.72,0.67l0 -0.72c0.12,-0.08 0.24,-0.15 0.38,-0.22 0.14,-0.06 0.29,-0.11 0.44,-0.16 0.16,-0.05 0.31,-0.08 0.48,-0.11 0.16,-0.03 0.32,-0.04 0.48,-0.04 0.59,0 1.03,0.17 1.33,0.5 0.3,0.33 0.46,0.82 0.46,1.48l0 3.44 -0.67 0zm-1.36 -2.57c-0.24,0.03 -0.44,0.08 -0.61,0.13 -0.17,0.05 -0.31,0.12 -0.42,0.21 -0.11,0.09 -0.19,0.19 -0.24,0.32 -0.05,0.13 -0.08,0.29 -0.08,0.48 0,0.14 0.03,0.27 0.08,0.39 0.05,0.12 0.12,0.23 0.21,0.32 0.1,0.08 0.21,0.15 0.35,0.2 0.14,0.05 0.29,0.07 0.46,0.07 0.24,0 0.45,-0.04 0.65,-0.13 0.19,-0.09 0.36,-0.21 0.51,-0.37 0.14,-0.16 0.25,-0.35 0.33,-0.57 0.08,-0.22 0.12,-0.46 0.12,-0.72l0 -0.52 -1.36 0.19z"/>
   <path id="4" class="fil1" d="M65.37 13.07l0 2.89 -0.68 0 0 -7.41 1.91 0c0.39,0 0.73,0.04 1.03,0.14 0.3,0.1 0.55,0.24 0.76,0.42 0.21,0.18 0.37,0.41 0.47,0.67 0.11,0.27 0.16,0.57 0.16,0.91 0,0.35 -0.06,0.66 -0.18,0.95 -0.12,0.3 -0.29,0.55 -0.52,0.76 -0.22,0.21 -0.5,0.38 -0.82,0.5 -0.33,0.11 -0.69,0.17 -1.1,0.17l-1.03 0zm0 -3.89l0 3.26 0.98 0c0.64,0 1.13,-0.14 1.46,-0.44 0.33,-0.3 0.49,-0.72 0.49,-1.26 0,-1.04 -0.61,-1.56 -1.83,-1.56l-1.1 0z"/>
   <path id="5" class="fil1" d="M70.73 13.43c0.01,0.32 0.05,0.62 0.13,0.87 0.08,0.26 0.2,0.48 0.36,0.66 0.15,0.18 0.34,0.32 0.56,0.41 0.23,0.1 0.48,0.14 0.76,0.14 0.59,0 1.16,-0.21 1.69,-0.62l0 0.65c-0.51,0.36 -1.12,0.54 -1.84,0.54 -0.36,0 -0.68,-0.06 -0.97,-0.18 -0.29,-0.13 -0.54,-0.31 -0.74,-0.54 -0.2,-0.24 -0.36,-0.53 -0.47,-0.88 -0.11,-0.34 -0.16,-0.73 -0.16,-1.17 0,-0.4 0.06,-0.77 0.18,-1.1 0.12,-0.34 0.28,-0.63 0.5,-0.88 0.21,-0.25 0.47,-0.44 0.76,-0.58 0.29,-0.14 0.61,-0.21 0.96,-0.21 0.34,0 0.64,0.06 0.9,0.18 0.27,0.12 0.48,0.29 0.66,0.51 0.18,0.22 0.31,0.49 0.41,0.8 0.09,0.32 0.14,0.68 0.14,1.07l0 0.33 -3.83 0zm3.14 -0.58c0,-0.55 -0.14,-0.98 -0.39,-1.28 -0.25,-0.3 -0.6,-0.45 -1.05,-0.45 -0.22,0 -0.43,0.03 -0.62,0.11 -0.19,0.08 -0.36,0.2 -0.5,0.35 -0.15,0.15 -0.27,0.33 -0.36,0.55 -0.1,0.21 -0.16,0.45 -0.2,0.72l3.12 0z"/>
   <path id="6" class="fil1" d="M79.43 15.96l0 -3.05c0,-1.2 -0.44,-1.79 -1.31,-1.79 -0.23,0 -0.44,0.04 -0.64,0.13 -0.19,0.09 -0.36,0.22 -0.51,0.38 -0.14,0.16 -0.25,0.35 -0.33,0.58 -0.08,0.22 -0.12,0.46 -0.12,0.72l0 3.03 -0.67 0 0 -5.29 0.67 0 0 0.91 0.02 0c0.39,-0.69 0.98,-1.04 1.77,-1.04 0.58,0 1.02,0.19 1.32,0.56 0.31,0.38 0.46,0.92 0.46,1.63l0 3.23 -0.66 0z"/>
   <path id="7" class="fil1" d="M86.05 15.55c0,0.98 -0.22,1.71 -0.67,2.18 -0.44,0.48 -1.13,0.71 -2.06,0.71 -0.58,0 -1.13,-0.13 -1.65,-0.39l0 -0.67c0.58,0.32 1.13,0.48 1.65,0.48 1.38,0 2.07,-0.73 2.07,-2.19l0 -0.63 -0.02 0c-0.41,0.69 -1.03,1.04 -1.86,1.04 -0.33,0 -0.63,-0.06 -0.9,-0.18 -0.27,-0.12 -0.5,-0.29 -0.69,-0.52 -0.2,-0.23 -0.35,-0.51 -0.45,-0.83 -0.11,-0.33 -0.16,-0.69 -0.16,-1.1 0,-0.44 0.05,-0.83 0.17,-1.19 0.11,-0.36 0.27,-0.66 0.48,-0.92 0.21,-0.25 0.47,-0.45 0.77,-0.59 0.29,-0.14 0.63,-0.21 1,-0.21 0.75,0 1.29,0.31 1.64,0.91l0.02 0 0 -0.78 0.66 0 0 4.88zm-0.66 -2.81c0,-0.22 -0.04,-0.43 -0.12,-0.62 -0.08,-0.2 -0.19,-0.37 -0.33,-0.52 -0.14,-0.15 -0.31,-0.27 -0.5,-0.35 -0.2,-0.09 -0.41,-0.13 -0.65,-0.13 -0.27,0 -0.52,0.05 -0.74,0.16 -0.23,0.1 -0.42,0.25 -0.57,0.45 -0.16,0.2 -0.28,0.43 -0.36,0.72 -0.09,0.28 -0.13,0.59 -0.13,0.94 0,0.33 0.04,0.62 0.12,0.88 0.08,0.26 0.19,0.49 0.33,0.67 0.15,0.18 0.32,0.32 0.53,0.42 0.2,0.1 0.43,0.15 0.68,0.15 0.27,0 0.5,-0.04 0.72,-0.14 0.21,-0.09 0.39,-0.22 0.54,-0.39 0.16,-0.17 0.27,-0.37 0.36,-0.59 0.08,-0.23 0.12,-0.47 0.12,-0.73l0 -0.92z"/>
   <path id="8" class="fil1" d="M92.13 15.55c0,0.98 -0.23,1.71 -0.67,2.18 -0.45,0.48 -1.14,0.71 -2.07,0.71 -0.57,0 -1.12,-0.13 -1.64,-0.39l0 -0.67c0.58,0.32 1.12,0.48 1.64,0.48 1.39,0 2.08,-0.73 2.08,-2.19l0 -0.63 -0.02 0c-0.41,0.69 -1.03,1.04 -1.86,1.04 -0.33,0 -0.63,-0.06 -0.9,-0.18 -0.27,-0.12 -0.5,-0.29 -0.7,-0.52 -0.19,-0.23 -0.34,-0.51 -0.45,-0.83 -0.1,-0.33 -0.16,-0.69 -0.16,-1.1 0,-0.44 0.06,-0.83 0.17,-1.19 0.12,-0.36 0.28,-0.66 0.49,-0.92 0.21,-0.25 0.46,-0.45 0.76,-0.59 0.3,-0.14 0.64,-0.21 1.01,-0.21 0.74,0 1.29,0.31 1.64,0.91l0.02 0 0 -0.78 0.66 0 0 4.88zm-0.66 -2.81c0,-0.22 -0.04,-0.43 -0.12,-0.62 -0.08,-0.2 -0.19,-0.37 -0.33,-0.52 -0.14,-0.15 -0.31,-0.27 -0.51,-0.35 -0.19,-0.09 -0.41,-0.13 -0.64,-0.13 -0.28,0 -0.53,0.05 -0.75,0.16 -0.22,0.1 -0.41,0.25 -0.57,0.45 -0.15,0.2 -0.27,0.43 -0.36,0.72 -0.08,0.28 -0.12,0.59 -0.12,0.94 0,0.33 0.04,0.62 0.12,0.88 0.07,0.26 0.19,0.49 0.33,0.67 0.15,0.18 0.32,0.32 0.52,0.42 0.21,0.1 0.44,0.15 0.69,0.15 0.26,0 0.5,-0.04 0.71,-0.14 0.22,-0.09 0.4,-0.22 0.55,-0.39 0.15,-0.17 0.27,-0.37 0.35,-0.59 0.09,-0.23 0.13,-0.47 0.13,-0.73l0 -0.92z"/>
   <path id="9" class="fil1" d="M97.29 15.96l0 -0.9 -0.02 0c-0.35,0.68 -0.91,1.02 -1.67,1.02 -1.25,0 -1.88,-0.77 -1.88,-2.3l0 -3.11 0.66 0 0 2.98c0,0.64 0.11,1.1 0.34,1.41 0.22,0.3 0.57,0.45 1.03,0.45 0.23,0 0.44,-0.04 0.63,-0.13 0.19,-0.09 0.35,-0.21 0.48,-0.37 0.14,-0.16 0.25,-0.35 0.32,-0.58 0.08,-0.22 0.11,-0.47 0.11,-0.74l0 -3.02 0.67 0 0 5.29 -0.67 0z"/>
   <path id="10" class="fil1" d="M103.23 15.96l0 -3.05c0,-1.2 -0.43,-1.79 -1.3,-1.79 -0.23,0 -0.44,0.04 -0.64,0.13 -0.2,0.09 -0.37,0.22 -0.51,0.38 -0.14,0.16 -0.25,0.35 -0.34,0.58 -0.08,0.22 -0.12,0.46 -0.12,0.72l0 3.03 -0.66 0 0 -5.29 0.66 0 0 0.91 0.02 0c0.4,-0.69 0.99,-1.04 1.78,-1.04 0.58,0 1.02,0.19 1.32,0.56 0.3,0.38 0.45,0.92 0.45,1.63l0 3.23 -0.66 0z"/>
   <path id="11" class="fil1" d="M108.54 15.96l0 -0.94 -0.03 0c-0.17,0.33 -0.4,0.6 -0.7,0.78 -0.3,0.19 -0.64,0.28 -1.01,0.28 -0.26,0 -0.49,-0.03 -0.69,-0.11 -0.21,-0.07 -0.38,-0.17 -0.52,-0.31 -0.14,-0.13 -0.26,-0.29 -0.33,-0.47 -0.08,-0.19 -0.12,-0.39 -0.12,-0.62 0,-0.48 0.15,-0.86 0.44,-1.14 0.3,-0.29 0.75,-0.47 1.35,-0.56l1.61 -0.23c0,-1.02 -0.4,-1.52 -1.19,-1.52 -0.62,0 -1.19,0.22 -1.71,0.67l0 -0.72c0.11,-0.08 0.23,-0.15 0.37,-0.22 0.14,-0.06 0.29,-0.11 0.44,-0.16 0.16,-0.05 0.32,-0.08 0.48,-0.11 0.16,-0.03 0.32,-0.04 0.48,-0.04 0.59,0 1.03,0.17 1.34,0.5 0.3,0.33 0.45,0.82 0.45,1.48l0 3.44 -0.66 0zm-1.37 -2.57c-0.24,0.03 -0.44,0.08 -0.61,0.13 -0.17,0.05 -0.31,0.12 -0.42,0.21 -0.11,0.09 -0.19,0.19 -0.24,0.32 -0.05,0.13 -0.08,0.29 -0.08,0.48 0,0.14 0.03,0.27 0.08,0.39 0.05,0.12 0.12,0.23 0.21,0.32 0.1,0.08 0.22,0.15 0.35,0.2 0.14,0.05 0.29,0.07 0.46,0.07 0.24,0 0.45,-0.04 0.65,-0.13 0.19,-0.09 0.37,-0.21 0.51,-0.37 0.14,-0.16 0.25,-0.35 0.33,-0.57 0.08,-0.22 0.13,-0.46 0.13,-0.72l0 -0.52 -1.37 0.19z"/>
   <path class="fil2" d="M12.12 17.77c1.12,1.06 2.63,1.71 4.3,1.71 0.79,0 1.5,-0.15 2.11,-0.36 0.82,-0.3 1.57,-0.76 2.19,-1.35l-1.27 -0.16c-0.31,-0.03 -0.64,-0.2 -0.84,-0.44l-0.24 -0.23 -1.1 -0.44 0.67 -0.33c0.27,-0.14 0.5,-0.44 0.6,-0.7l0.27 -0.91c0.64,0 0.97,-0.37 0.97,-1.1 0,-0.67 -0.3,-1.04 -0.7,-1.04 0,-0.54 0.26,-1.24 0.26,-1.94 0,-1.58 -1.1,-2.25 -3.61,-2.25 -0.8,0 -1.17,0.41 -1.17,1.34 -0.67,0 -1.11,0.34 -1.11,0.91 0,0.7 0.27,1.4 0.27,1.94 -0.4,0 -0.7,0.37 -0.7,1.04 0,0.77 0.26,1.1 0.97,1.1l0.27 0.91c0.1,0.26 0.33,0.56 0.6,0.7l0.67 0.33 -1.11 0.44 -0.23 0.23c-0.2,0.24 -0.54,0.41 -0.84,0.44l-1.23 0.16zm4.3 2.96c-4.14,0 -7.5,-3.35 -7.5,-7.5 0,-4.14 3.36,-7.5 7.5,-7.5 4.14,0 7.5,3.36 7.5,7.5 0,4.15 -3.36,7.5 -7.5,7.5z"/>
  </g>
 </g>
</svg>
