<?xml version="1.0" encoding="UTF-8"?>
<!DOCTYPE svg PUBLIC "-//W3C//DTD SVG 1.1//EN" "http://www.w3.org/Graphics/SVG/1.1/DTD/svg11.dtd">
<!-- Creator: CorelDRAW 2018 (64-Bit) -->
<svg xmlns="http://www.w3.org/2000/svg" xml:space="preserve" width="542px" height="63px" version="1.1" style="shape-rendering:geometricPrecision; text-rendering:geometricPrecision; image-rendering:optimizeQuality; fill-rule:evenodd; clip-rule:evenodd"
viewBox="0 0 229.25 26.47"
 xmlns:xlink="http://www.w3.org/1999/xlink">
 <defs>
  <style type="text/css">
   <![CDATA[
    .str0 {stroke:#088378;stroke-miterlimit:22.9256}
    .fil0 {fill:none}
    .fil2 {fill:#088378}
    .fil1 {fill:#B6B6B7;fill-rule:nonzero}
   ]]>
  </style>
 </defs>
 <g id="Layer_x0020_1">
  <metadata id="CorelCorpID_0Corel-Layer"/>
  <g id="_2298707726160">
   <rect class="fil0 str0" x="0.5" y="0.5" width="228.25" height="25.47" rx="14.17" ry="5.34"/>
   <path class="fil1" d="M39.64 15.96l-4.11 -5.95c-0.05,-0.08 -0.1,-0.15 -0.16,-0.23 -0.05,-0.08 -0.09,-0.16 -0.12,-0.24l-0.02 0c0,0.07 0.01,0.15 0.02,0.26 0,0.11 0,0.25 0,0.42l0 5.74 -0.68 0 0 -7.41 0.76 0 4.04 5.87c0.06,0.1 0.12,0.18 0.17,0.26 0.05,0.08 0.1,0.16 0.14,0.23l0.02 0c-0.01,-0.12 -0.02,-0.24 -0.03,-0.39 0,-0.14 -0.01,-0.29 -0.01,-0.46l0 -5.51 0.69 0 0 7.41 -0.71 0z"/>
   <path id="1" class="fil1" d="M44.33 16.08c-0.39,0 -0.74,-0.06 -1.05,-0.2 -0.32,-0.13 -0.58,-0.31 -0.8,-0.55 -0.22,-0.24 -0.39,-0.53 -0.51,-0.86 -0.11,-0.33 -0.17,-0.71 -0.17,-1.11 0,-0.44 0.06,-0.84 0.18,-1.19 0.13,-0.34 0.3,-0.64 0.53,-0.88 0.23,-0.25 0.51,-0.43 0.83,-0.56 0.32,-0.12 0.69,-0.19 1.09,-0.19 0.38,0 0.72,0.06 1.03,0.19 0.31,0.13 0.57,0.31 0.78,0.55 0.21,0.23 0.38,0.52 0.49,0.86 0.12,0.34 0.17,0.73 0.17,1.17 0,0.41 -0.06,0.79 -0.18,1.12 -0.11,0.35 -0.29,0.64 -0.51,0.88 -0.22,0.25 -0.48,0.44 -0.8,0.57 -0.32,0.13 -0.68,0.2 -1.08,0.2zm0.05 -4.96c-0.28,0 -0.55,0.04 -0.78,0.15 -0.24,0.09 -0.44,0.24 -0.6,0.43 -0.17,0.19 -0.3,0.43 -0.39,0.7 -0.09,0.28 -0.13,0.6 -0.13,0.95 0,0.33 0.04,0.63 0.13,0.89 0.09,0.27 0.22,0.49 0.38,0.68 0.17,0.19 0.36,0.34 0.6,0.44 0.23,0.1 0.49,0.15 0.78,0.15 0.3,0 0.56,-0.05 0.79,-0.14 0.23,-0.1 0.42,-0.25 0.58,-0.43 0.16,-0.19 0.28,-0.42 0.36,-0.69 0.08,-0.28 0.12,-0.59 0.12,-0.93 0,-0.72 -0.16,-1.26 -0.48,-1.64 -0.31,-0.38 -0.77,-0.56 -1.36,-0.56z"/>
   <path id="2" class="fil1" d="M54.88 15.96l0 -3.11c0,-0.32 -0.02,-0.59 -0.07,-0.81 -0.04,-0.22 -0.12,-0.39 -0.22,-0.53 -0.1,-0.14 -0.23,-0.24 -0.39,-0.3 -0.16,-0.06 -0.34,-0.09 -0.56,-0.09 -0.19,0 -0.38,0.04 -0.55,0.13 -0.17,0.09 -0.32,0.22 -0.45,0.38 -0.13,0.16 -0.23,0.35 -0.31,0.56 -0.07,0.22 -0.11,0.46 -0.11,0.71l0 3.06 -0.66 0 0 -3.18c0,-1.11 -0.42,-1.66 -1.27,-1.66 -0.2,0 -0.38,0.04 -0.55,0.13 -0.17,0.08 -0.32,0.21 -0.44,0.37 -0.13,0.16 -0.23,0.35 -0.3,0.57 -0.07,0.22 -0.11,0.47 -0.11,0.73l0 3.04 -0.66 0 0 -5.29 0.66 0 0 0.85 0.03 0c0.37,-0.65 0.91,-0.98 1.62,-0.98 0.19,0 0.37,0.03 0.53,0.09 0.17,0.05 0.32,0.13 0.45,0.23 0.13,0.11 0.24,0.23 0.33,0.37 0.1,0.14 0.17,0.29 0.22,0.46 0.18,-0.37 0.43,-0.66 0.72,-0.85 0.3,-0.2 0.64,-0.3 1.02,-0.3 1.16,0 1.74,0.72 1.74,2.15l0 3.27 -0.67 0z"/>
   <path id="3" class="fil1" d="M59.3 16.08c-0.39,0 -0.74,-0.06 -1.05,-0.2 -0.31,-0.13 -0.58,-0.31 -0.8,-0.55 -0.22,-0.24 -0.39,-0.53 -0.51,-0.86 -0.11,-0.33 -0.17,-0.71 -0.17,-1.11 0,-0.44 0.06,-0.84 0.18,-1.19 0.13,-0.34 0.3,-0.64 0.53,-0.88 0.23,-0.25 0.51,-0.43 0.83,-0.56 0.33,-0.12 0.69,-0.19 1.09,-0.19 0.38,0 0.72,0.06 1.03,0.19 0.31,0.13 0.57,0.31 0.78,0.55 0.21,0.23 0.38,0.52 0.49,0.86 0.12,0.34 0.17,0.73 0.17,1.17 0,0.41 -0.06,0.79 -0.18,1.12 -0.11,0.35 -0.29,0.64 -0.51,0.88 -0.22,0.25 -0.48,0.44 -0.8,0.57 -0.32,0.13 -0.68,0.2 -1.08,0.2zm0.05 -4.96c-0.28,0 -0.55,0.04 -0.78,0.15 -0.23,0.09 -0.44,0.24 -0.6,0.43 -0.17,0.19 -0.3,0.43 -0.39,0.7 -0.09,0.28 -0.13,0.6 -0.13,0.95 0,0.33 0.04,0.63 0.13,0.89 0.09,0.27 0.22,0.49 0.38,0.68 0.17,0.19 0.36,0.34 0.6,0.44 0.23,0.1 0.5,0.15 0.78,0.15 0.3,0 0.56,-0.05 0.79,-0.14 0.23,-0.1 0.42,-0.25 0.58,-0.43 0.16,-0.19 0.28,-0.42 0.36,-0.69 0.08,-0.28 0.12,-0.59 0.12,-0.93 0,-0.72 -0.16,-1.26 -0.48,-1.64 -0.31,-0.38 -0.77,-0.56 -1.36,-0.56z"/>
   <path id="4" class="fil1" d="M65.83 11.34c-0.16,-0.11 -0.35,-0.17 -0.6,-0.17 -0.18,0 -0.33,0.04 -0.47,0.1 -0.13,0.07 -0.25,0.16 -0.35,0.27 -0.1,0.12 -0.19,0.25 -0.26,0.4 -0.07,0.15 -0.12,0.3 -0.17,0.47 -0.04,0.16 -0.07,0.32 -0.09,0.49 -0.02,0.16 -0.03,0.32 -0.03,0.47l0 2.59 -0.66 0 0 -5.29 0.66 0 0 1.13 0.02 0c0.06,-0.2 0.14,-0.37 0.24,-0.52 0.09,-0.16 0.2,-0.28 0.33,-0.39 0.12,-0.1 0.25,-0.19 0.4,-0.24 0.15,-0.06 0.3,-0.08 0.46,-0.08 0.11,0 0.2,0 0.29,0.02 0.08,0.01 0.16,0.03 0.23,0.06l0 0.69z"/>
   <polygon id="5" class="fil1" points="74.53,15.96 74.53,12.49 70.49,12.49 70.49,15.96 69.8,15.96 69.8,8.55 70.49,8.55 70.49,11.87 74.53,11.87 74.53,8.55 75.21,8.55 75.21,15.96 "/>
   <path id="6" class="fil1" d="M80.08 15.96l0 -0.94 -0.02 0c-0.17,0.33 -0.41,0.6 -0.71,0.78 -0.3,0.19 -0.63,0.28 -1.01,0.28 -0.25,0 -0.48,-0.03 -0.69,-0.11 -0.2,-0.07 -0.38,-0.17 -0.52,-0.31 -0.14,-0.13 -0.25,-0.29 -0.33,-0.47 -0.08,-0.19 -0.12,-0.39 -0.12,-0.62 0,-0.48 0.15,-0.86 0.45,-1.14 0.29,-0.29 0.74,-0.47 1.34,-0.56l1.61 -0.23c0,-1.02 -0.4,-1.52 -1.19,-1.52 -0.61,0 -1.18,0.22 -1.71,0.67l0 -0.72c0.11,-0.08 0.23,-0.15 0.37,-0.22 0.14,-0.06 0.29,-0.11 0.44,-0.16 0.16,-0.05 0.32,-0.08 0.48,-0.11 0.17,-0.03 0.33,-0.04 0.48,-0.04 0.59,0 1.04,0.17 1.34,0.5 0.3,0.33 0.45,0.82 0.45,1.48l0 3.44 -0.66 0zm-1.37 -2.57c-0.23,0.03 -0.44,0.08 -0.61,0.13 -0.17,0.05 -0.3,0.12 -0.42,0.21 -0.1,0.09 -0.19,0.19 -0.24,0.32 -0.05,0.13 -0.08,0.29 -0.08,0.48 0,0.14 0.03,0.27 0.08,0.39 0.05,0.12 0.12,0.23 0.22,0.32 0.09,0.08 0.21,0.15 0.34,0.2 0.14,0.05 0.29,0.07 0.47,0.07 0.23,0 0.45,-0.04 0.64,-0.13 0.2,-0.09 0.37,-0.21 0.51,-0.37 0.14,-0.16 0.26,-0.35 0.34,-0.57 0.08,-0.22 0.12,-0.46 0.12,-0.72l0 -0.52 -1.37 0.19z"/>
   <path id="7" class="fil1" d="M85.9 15.96l0 -3.05c0,-1.2 -0.43,-1.79 -1.3,-1.79 -0.23,0 -0.44,0.04 -0.64,0.13 -0.2,0.09 -0.37,0.22 -0.51,0.38 -0.14,0.16 -0.25,0.35 -0.34,0.58 -0.08,0.22 -0.12,0.46 -0.12,0.72l0 3.03 -0.66 0 0 -5.29 0.66 0 0 0.91 0.02 0c0.4,-0.69 0.99,-1.04 1.78,-1.04 0.57,0 1.02,0.19 1.32,0.56 0.3,0.38 0.45,0.92 0.45,1.63l0 3.23 -0.66 0z"/>
   <path id="8" class="fil1" d="M91.87 15.96l0 -0.93 -0.02 0c-0.18,0.33 -0.43,0.59 -0.76,0.78 -0.32,0.18 -0.69,0.27 -1.1,0.27 -0.34,0 -0.64,-0.06 -0.91,-0.18 -0.27,-0.12 -0.5,-0.3 -0.69,-0.53 -0.19,-0.23 -0.34,-0.51 -0.45,-0.84 -0.1,-0.33 -0.16,-0.7 -0.16,-1.11 0,-0.43 0.06,-0.82 0.18,-1.17 0.11,-0.35 0.28,-0.66 0.49,-0.91 0.21,-0.25 0.47,-0.45 0.76,-0.59 0.3,-0.14 0.63,-0.21 1,-0.21 0.76,0 1.31,0.31 1.64,0.92l0.02 0 0 -3.34 0.66 0 0 7.84 -0.66 0zm0 -3.2c0,-0.23 -0.04,-0.44 -0.12,-0.64 -0.08,-0.2 -0.19,-0.38 -0.33,-0.52 -0.14,-0.15 -0.31,-0.27 -0.51,-0.36 -0.2,-0.08 -0.42,-0.12 -0.66,-0.12 -0.26,0 -0.5,0.05 -0.72,0.15 -0.22,0.1 -0.41,0.25 -0.57,0.45 -0.15,0.19 -0.27,0.43 -0.36,0.71 -0.09,0.28 -0.13,0.59 -0.13,0.95 0,0.33 0.04,0.63 0.12,0.9 0.07,0.26 0.19,0.49 0.33,0.67 0.15,0.18 0.33,0.32 0.53,0.42 0.2,0.1 0.43,0.14 0.68,0.14 0.26,0 0.51,-0.04 0.72,-0.14 0.22,-0.1 0.4,-0.23 0.55,-0.4 0.15,-0.17 0.26,-0.37 0.34,-0.59 0.09,-0.23 0.13,-0.47 0.13,-0.73l0 -0.89z"/>
   <path id="9" class="fil1" d="M94.89 15.11l0 3.28 -0.66 0 0 -7.72 0.66 0 0 1.01 0.02 0c0.2,-0.37 0.46,-0.65 0.79,-0.85 0.33,-0.19 0.7,-0.29 1.12,-0.29 0.33,0 0.64,0.06 0.9,0.19 0.27,0.12 0.5,0.29 0.68,0.51 0.19,0.23 0.33,0.5 0.42,0.82 0.1,0.32 0.15,0.68 0.15,1.08 0,0.44 -0.05,0.84 -0.16,1.2 -0.11,0.36 -0.27,0.67 -0.48,0.92 -0.21,0.26 -0.46,0.46 -0.75,0.61 -0.3,0.14 -0.63,0.21 -1,0.21 -0.74,0 -1.3,-0.32 -1.67,-0.97l-0.02 0zm0 -1.35c0,0.24 0.04,0.46 0.12,0.67 0.09,0.22 0.2,0.4 0.34,0.56 0.15,0.16 0.32,0.29 0.53,0.38 0.2,0.1 0.43,0.14 0.68,0.14 0.26,0 0.5,-0.05 0.72,-0.16 0.21,-0.12 0.39,-0.28 0.54,-0.48 0.15,-0.21 0.27,-0.46 0.35,-0.75 0.08,-0.3 0.12,-0.62 0.12,-0.99 0,-0.3 -0.04,-0.58 -0.11,-0.83 -0.08,-0.25 -0.19,-0.47 -0.33,-0.64 -0.14,-0.18 -0.31,-0.31 -0.5,-0.41 -0.2,-0.09 -0.42,-0.13 -0.67,-0.13 -0.27,0 -0.52,0.05 -0.74,0.15 -0.22,0.1 -0.41,0.24 -0.57,0.41 -0.15,0.18 -0.27,0.38 -0.35,0.62 -0.08,0.24 -0.13,0.49 -0.13,0.75l0 0.71z"/>
   <path id="10" class="fil1" d="M103.88 15.96l0 -3.11c0,-0.6 -0.11,-1.03 -0.33,-1.31 -0.21,-0.29 -0.54,-0.42 -0.99,-0.42 -0.22,0 -0.42,0.04 -0.61,0.12 -0.2,0.09 -0.36,0.21 -0.51,0.38 -0.14,0.16 -0.26,0.36 -0.34,0.59 -0.09,0.23 -0.14,0.49 -0.14,0.79l0 2.96 -0.66 0 0 -7.84 0.66 0 0 3.46 0.03 0c0.41,-0.69 1,-1.04 1.77,-1.04 0.59,0 1.04,0.18 1.33,0.54 0.3,0.37 0.45,0.9 0.45,1.61l0 3.27 -0.66 0z"/>
   <path id="11" class="fil1" d="M108.29 16.08c-0.39,0 -0.74,-0.06 -1.05,-0.2 -0.31,-0.13 -0.58,-0.31 -0.8,-0.55 -0.22,-0.24 -0.39,-0.53 -0.51,-0.86 -0.11,-0.33 -0.17,-0.71 -0.17,-1.11 0,-0.44 0.06,-0.84 0.18,-1.19 0.13,-0.34 0.3,-0.64 0.53,-0.88 0.23,-0.25 0.51,-0.43 0.83,-0.56 0.33,-0.12 0.69,-0.19 1.09,-0.19 0.38,0 0.72,0.06 1.03,0.19 0.31,0.13 0.57,0.31 0.78,0.55 0.21,0.23 0.38,0.52 0.49,0.86 0.12,0.34 0.17,0.73 0.17,1.17 0,0.41 -0.06,0.79 -0.18,1.12 -0.11,0.35 -0.29,0.64 -0.51,0.88 -0.22,0.25 -0.48,0.44 -0.8,0.57 -0.32,0.13 -0.68,0.2 -1.08,0.2zm0.05 -4.96c-0.28,0 -0.55,0.04 -0.78,0.15 -0.23,0.09 -0.44,0.24 -0.6,0.43 -0.17,0.19 -0.3,0.43 -0.39,0.7 -0.09,0.28 -0.13,0.6 -0.13,0.95 0,0.33 0.04,0.63 0.13,0.89 0.09,0.27 0.22,0.49 0.38,0.68 0.17,0.19 0.36,0.34 0.6,0.44 0.23,0.1 0.5,0.15 0.78,0.15 0.3,0 0.56,-0.05 0.79,-0.14 0.23,-0.1 0.42,-0.25 0.58,-0.43 0.16,-0.19 0.28,-0.42 0.36,-0.69 0.08,-0.28 0.12,-0.59 0.12,-0.93 0,-0.72 -0.16,-1.26 -0.48,-1.64 -0.31,-0.38 -0.77,-0.56 -1.36,-0.56z"/>
   <path id="12" class="fil1" d="M115.77 15.96l0 -3.05c0,-1.2 -0.44,-1.79 -1.31,-1.79 -0.23,0 -0.44,0.04 -0.64,0.13 -0.19,0.09 -0.36,0.22 -0.51,0.38 -0.14,0.16 -0.25,0.35 -0.33,0.58 -0.08,0.22 -0.12,0.46 -0.12,0.72l0 3.03 -0.67 0 0 -5.29 0.67 0 0 0.91 0.02 0c0.39,-0.69 0.98,-1.04 1.77,-1.04 0.58,0 1.02,0.19 1.32,0.56 0.31,0.38 0.46,0.92 0.46,1.63l0 3.23 -0.66 0z"/>
   <path id="13" class="fil1" d="M118.33 13.43c0.01,0.32 0.05,0.62 0.13,0.87 0.09,0.26 0.21,0.48 0.36,0.66 0.15,0.18 0.34,0.32 0.57,0.41 0.22,0.1 0.47,0.14 0.75,0.14 0.59,0 1.16,-0.21 1.69,-0.62l0 0.65c-0.51,0.36 -1.12,0.54 -1.84,0.54 -0.36,0 -0.68,-0.06 -0.97,-0.18 -0.29,-0.13 -0.53,-0.31 -0.74,-0.54 -0.2,-0.24 -0.36,-0.53 -0.47,-0.88 -0.11,-0.34 -0.16,-0.73 -0.16,-1.17 0,-0.4 0.06,-0.77 0.18,-1.1 0.12,-0.34 0.29,-0.63 0.5,-0.88 0.21,-0.25 0.47,-0.44 0.76,-0.58 0.29,-0.14 0.61,-0.21 0.96,-0.21 0.34,0 0.64,0.06 0.9,0.18 0.27,0.12 0.49,0.29 0.66,0.51 0.18,0.22 0.32,0.49 0.41,0.8 0.09,0.32 0.14,0.68 0.14,1.07l0 0.33 -3.83 0zm3.15 -0.58c-0.01,-0.55 -0.15,-0.98 -0.4,-1.28 -0.25,-0.3 -0.6,-0.45 -1.05,-0.45 -0.22,0 -0.43,0.03 -0.62,0.11 -0.19,0.08 -0.36,0.2 -0.5,0.35 -0.15,0.15 -0.27,0.33 -0.36,0.55 -0.1,0.21 -0.16,0.45 -0.2,0.72l3.13 0z"/>
   <polygon id="14" class="fil1" points="123.08,17.19 122.45,17.19 126.03,8.55 126.68,8.55 "/>
   <path id="15" class="fil1" d="M127.28 14.87c0.12,0.09 0.26,0.18 0.41,0.25 0.15,0.08 0.3,0.14 0.46,0.19 0.15,0.05 0.31,0.09 0.47,0.11 0.16,0.03 0.31,0.04 0.45,0.04 0.57,0 0.99,-0.11 1.26,-0.32 0.28,-0.22 0.42,-0.53 0.42,-0.94 0,-0.2 -0.03,-0.37 -0.09,-0.51 -0.07,-0.15 -0.17,-0.29 -0.31,-0.42 -0.14,-0.12 -0.31,-0.25 -0.52,-0.37 -0.21,-0.13 -0.46,-0.27 -0.75,-0.43 -0.31,-0.17 -0.58,-0.34 -0.81,-0.49 -0.23,-0.15 -0.41,-0.31 -0.55,-0.47 -0.15,-0.16 -0.25,-0.33 -0.32,-0.52 -0.06,-0.19 -0.1,-0.4 -0.1,-0.63 0,-0.3 0.07,-0.57 0.19,-0.81 0.13,-0.24 0.3,-0.44 0.52,-0.61 0.22,-0.17 0.47,-0.29 0.76,-0.38 0.29,-0.09 0.6,-0.14 0.93,-0.14 0.59,0 1.07,0.08 1.47,0.25l0 0.76c-0.44,-0.26 -0.95,-0.38 -1.54,-0.38 -0.22,0 -0.43,0.02 -0.63,0.08 -0.19,0.05 -0.36,0.13 -0.51,0.23 -0.14,0.11 -0.26,0.23 -0.34,0.39 -0.09,0.15 -0.13,0.33 -0.13,0.53 0,0.2 0.03,0.36 0.08,0.5 0.06,0.14 0.15,0.27 0.28,0.4 0.13,0.12 0.29,0.24 0.5,0.37 0.2,0.12 0.45,0.26 0.75,0.42 0.31,0.16 0.58,0.32 0.81,0.48 0.23,0.16 0.42,0.32 0.58,0.49 0.15,0.17 0.26,0.35 0.34,0.54 0.07,0.2 0.11,0.41 0.11,0.64 0,0.33 -0.06,0.61 -0.18,0.86 -0.12,0.24 -0.29,0.45 -0.51,0.61 -0.21,0.16 -0.47,0.28 -0.77,0.37 -0.3,0.08 -0.63,0.12 -0.99,0.12 -0.11,0 -0.25,-0.01 -0.42,-0.03 -0.16,-0.02 -0.32,-0.04 -0.49,-0.08 -0.16,-0.04 -0.32,-0.08 -0.47,-0.13 -0.15,-0.05 -0.27,-0.1 -0.36,-0.16l0 -0.81z"/>
   <path id="16" class="fil1" d="M133.21 13.43c0.01,0.32 0.05,0.62 0.13,0.87 0.08,0.26 0.2,0.48 0.36,0.66 0.15,0.18 0.34,0.32 0.56,0.41 0.23,0.1 0.48,0.14 0.76,0.14 0.59,0 1.16,-0.21 1.69,-0.62l0 0.65c-0.51,0.36 -1.12,0.54 -1.84,0.54 -0.36,0 -0.68,-0.06 -0.97,-0.18 -0.29,-0.13 -0.54,-0.31 -0.74,-0.54 -0.2,-0.24 -0.36,-0.53 -0.47,-0.88 -0.11,-0.34 -0.16,-0.73 -0.16,-1.17 0,-0.4 0.06,-0.77 0.18,-1.1 0.12,-0.34 0.28,-0.63 0.5,-0.88 0.21,-0.25 0.47,-0.44 0.76,-0.58 0.29,-0.14 0.61,-0.21 0.96,-0.21 0.34,0 0.64,0.06 0.9,0.18 0.27,0.12 0.48,0.29 0.66,0.51 0.18,0.22 0.31,0.49 0.41,0.8 0.09,0.32 0.14,0.68 0.14,1.07l0 0.33 -3.83 0zm3.14 -0.58c0,-0.55 -0.14,-0.98 -0.39,-1.28 -0.25,-0.3 -0.6,-0.45 -1.05,-0.45 -0.22,0 -0.43,0.03 -0.62,0.11 -0.19,0.08 -0.36,0.2 -0.5,0.35 -0.15,0.15 -0.27,0.33 -0.36,0.55 -0.1,0.21 -0.16,0.45 -0.2,0.72l3.12 0z"/>
   <polygon id="17" class="fil1" points="138.33,15.96 138.33,8.12 139,8.12 139,15.96 "/>
   <path id="18" class="fil1" d="M144.16 15.96l0 -0.9 -0.02 0c-0.36,0.68 -0.91,1.02 -1.67,1.02 -1.25,0 -1.88,-0.77 -1.88,-2.3l0 -3.11 0.66 0 0 2.98c0,0.64 0.11,1.1 0.34,1.41 0.22,0.3 0.57,0.45 1.03,0.45 0.23,0 0.44,-0.04 0.63,-0.13 0.18,-0.09 0.35,-0.21 0.48,-0.37 0.14,-0.16 0.24,-0.35 0.32,-0.58 0.08,-0.22 0.11,-0.47 0.11,-0.74l0 -3.02 0.66 0 0 5.29 -0.66 0z"/>
   <polygon id="19" class="fil1" points="146.53,15.96 146.53,8.12 147.19,8.12 147.19,15.96 "/>
   <path id="20" class="fil1" d="M151.95 15.96l0 -0.94 -0.02 0c-0.18,0.33 -0.41,0.6 -0.71,0.78 -0.3,0.19 -0.63,0.28 -1.01,0.28 -0.25,0 -0.48,-0.03 -0.69,-0.11 -0.2,-0.07 -0.38,-0.17 -0.52,-0.31 -0.14,-0.13 -0.25,-0.29 -0.33,-0.47 -0.08,-0.19 -0.12,-0.39 -0.12,-0.62 0,-0.48 0.15,-0.86 0.45,-1.14 0.29,-0.29 0.74,-0.47 1.34,-0.56l1.61 -0.23c0,-1.02 -0.4,-1.52 -1.19,-1.52 -0.61,0 -1.19,0.22 -1.71,0.67l0 -0.72c0.11,-0.08 0.23,-0.15 0.37,-0.22 0.14,-0.06 0.29,-0.11 0.44,-0.16 0.16,-0.05 0.32,-0.08 0.48,-0.11 0.17,-0.03 0.32,-0.04 0.48,-0.04 0.59,0 1.04,0.17 1.34,0.5 0.3,0.33 0.45,0.82 0.45,1.48l0 3.44 -0.66 0zm-1.37 -2.57c-0.23,0.03 -0.44,0.08 -0.61,0.13 -0.17,0.05 -0.31,0.12 -0.42,0.21 -0.11,0.09 -0.19,0.19 -0.24,0.32 -0.05,0.13 -0.08,0.29 -0.08,0.48 0,0.14 0.03,0.27 0.08,0.39 0.05,0.12 0.12,0.23 0.22,0.32 0.09,0.08 0.21,0.15 0.34,0.2 0.14,0.05 0.29,0.07 0.46,0.07 0.24,0 0.45,-0.04 0.65,-0.13 0.2,-0.09 0.37,-0.21 0.51,-0.37 0.14,-0.16 0.25,-0.35 0.34,-0.57 0.08,-0.22 0.12,-0.46 0.12,-0.72l0 -0.52 -1.37 0.19z"/>
   <path id="21" class="fil1" d="M156.83 11.34c-0.16,-0.11 -0.36,-0.17 -0.6,-0.17 -0.18,0 -0.33,0.04 -0.47,0.1 -0.13,0.07 -0.25,0.16 -0.35,0.27 -0.1,0.12 -0.19,0.25 -0.26,0.4 -0.07,0.15 -0.13,0.3 -0.17,0.47 -0.04,0.16 -0.08,0.32 -0.09,0.49 -0.02,0.16 -0.03,0.32 -0.03,0.47l0 2.59 -0.66 0 0 -5.29 0.66 0 0 1.13 0.02 0c0.06,-0.2 0.14,-0.37 0.23,-0.52 0.1,-0.16 0.21,-0.28 0.33,-0.39 0.13,-0.1 0.26,-0.19 0.41,-0.24 0.14,-0.06 0.3,-0.08 0.46,-0.08 0.11,0 0.2,0 0.29,0.02 0.08,0.01 0.16,0.03 0.23,0.06l0 0.69z"/>
   <path class="fil2" d="M11 5.78c0,0 -2.08,0.68 -2.08,2.44 0,1.77 1.43,4.83 4.56,7.96 3.12,3.13 6.18,4.55 7.95,4.55 1.77,0 2.45,-2.21 2.45,-2.21 0.11,-0.28 -0.01,-0.64 -0.26,-0.79l-3.09 -1.94c-0.26,-0.16 -0.67,-0.16 -0.93,-0.01l-1.19 0.73c-0.32,0.19 -0.83,0.16 -1.12,-0.06 0,0 -0.93,-0.67 -2.18,-1.9 -1.25,-1.24 -1.9,-2.12 -1.9,-2.12 -0.23,-0.3 -0.26,-0.79 -0.06,-1.12l0.72 -1.19c0.16,-0.26 0.15,-0.67 -0.01,-0.92l-2.06 -3.17c-0.16,-0.25 -0.52,-0.37 -0.8,-0.25l0 0z"/>
  </g>
 </g>
</svg>
