<?xml version="1.0" encoding="UTF-8"?>
<!DOCTYPE svg PUBLIC "-//W3C//DTD SVG 1.1//EN" "http://www.w3.org/Graphics/SVG/1.1/DTD/svg11.dtd">
<!-- Creator: CorelDRAW 2018 (64-Bit) -->
<svg xmlns="http://www.w3.org/2000/svg" xml:space="preserve" width="542px" height="63px" version="1.1" style="shape-rendering:geometricPrecision; text-rendering:geometricPrecision; image-rendering:optimizeQuality; fill-rule:evenodd; clip-rule:evenodd"
viewBox="0 0 229.25 26.47"
 xmlns:xlink="http://www.w3.org/1999/xlink">
 <defs>
  <style type="text/css">
   <![CDATA[
    .fil2 {fill:#088378}
    .fil1 {fill:#B6B6B7;fill-rule:nonzero}
    .fil0 {fill:#088378;fill-rule:nonzero}
   ]]>
  </style>
 </defs>
 <g id="Layer_x0020_1">
  <metadata id="CorelCorpID_0Corel-Layer"/>
  <g id="_2299288995824">
   <path class="fil0" d="M5.84 0l217.58 0c1.6,0 3.06,0.66 4.12,1.71 1.05,1.06 1.71,2.52 1.71,4.13l0 14.79c0,1.6 -0.66,3.06 -1.71,4.12 -1.06,1.06 -2.52,1.72 -4.12,1.72l-217.58 0c-1.61,0 -3.07,-0.66 -4.12,-1.72 -1.06,-1.05 -1.72,-2.51 -1.72,-4.12l0 -14.79c0,-1.61 0.66,-3.07 1.71,-4.13 1.06,-1.05 2.52,-1.71 4.13,-1.71zm217.58 1l-217.58 0c-1.33,0 -2.54,0.54 -3.42,1.42 -0.88,0.88 -1.42,2.09 -1.42,3.42l0 14.79c0,1.33 0.54,2.54 1.42,3.42 0.88,0.87 2.09,1.42 3.42,1.42l217.58 0c1.32,0 2.53,-0.55 3.41,-1.42 0.88,-0.88 1.42,-2.09 1.42,-3.42l0 -14.79c0,-1.33 -0.54,-2.54 -1.42,-3.42 -0.88,-0.88 -2.09,-1.42 -3.41,-1.42z"/>
   <polygon class="fil1" points="36.68,9.68 36.68,16.46 36,16.46 36,9.68 33.86,9.68 33.86,9.05 38.82,9.05 38.82,9.68 "/>
   <path id="1" class="fil1" d="M42.98 16.46l0 -0.94 -0.02 0c-0.17,0.33 -0.4,0.6 -0.7,0.78 -0.3,0.19 -0.64,0.28 -1.01,0.28 -0.26,0 -0.49,-0.03 -0.69,-0.11 -0.21,-0.07 -0.38,-0.17 -0.52,-0.31 -0.15,-0.13 -0.26,-0.29 -0.34,-0.47 -0.07,-0.19 -0.11,-0.39 -0.11,-0.62 0,-0.48 0.15,-0.86 0.44,-1.14 0.3,-0.29 0.75,-0.47 1.35,-0.56l1.6 -0.23c0,-1.02 -0.39,-1.52 -1.18,-1.52 -0.62,0 -1.19,0.22 -1.72,0.67l0 -0.72c0.12,-0.08 0.24,-0.15 0.38,-0.22 0.14,-0.06 0.29,-0.11 0.44,-0.16 0.16,-0.05 0.31,-0.08 0.48,-0.11 0.16,-0.03 0.32,-0.04 0.48,-0.04 0.59,0 1.03,0.17 1.33,0.5 0.3,0.33 0.46,0.82 0.46,1.48l0 3.44 -0.67 0zm-1.36 -2.57c-0.24,0.03 -0.44,0.08 -0.61,0.13 -0.17,0.05 -0.31,0.12 -0.42,0.21 -0.11,0.09 -0.19,0.19 -0.24,0.32 -0.05,0.13 -0.08,0.29 -0.08,0.48 0,0.14 0.03,0.27 0.08,0.39 0.05,0.12 0.12,0.23 0.21,0.32 0.1,0.08 0.21,0.15 0.35,0.2 0.14,0.05 0.29,0.07 0.46,0.07 0.24,0 0.45,-0.04 0.65,-0.13 0.19,-0.09 0.36,-0.21 0.51,-0.37 0.14,-0.16 0.25,-0.35 0.33,-0.57 0.08,-0.22 0.12,-0.46 0.12,-0.72l0 -0.52 -1.36 0.19z"/>
   <path id="2" class="fil1" d="M48.81 16.46l0 -3.05c0,-1.2 -0.44,-1.79 -1.3,-1.79 -0.23,0 -0.45,0.04 -0.65,0.13 -0.19,0.09 -0.36,0.22 -0.5,0.38 -0.15,0.16 -0.26,0.35 -0.34,0.58 -0.08,0.22 -0.12,0.46 -0.12,0.72l0 3.03 -0.66 0 0 -5.29 0.66 0 0 0.91 0.02 0c0.39,-0.69 0.98,-1.04 1.77,-1.04 0.58,0 1.02,0.19 1.33,0.56 0.3,0.38 0.45,0.92 0.45,1.63l0 3.23 -0.66 0z"/>
   <path id="3" class="fil1" d="M55.43 16.05c0,0.98 -0.22,1.71 -0.66,2.18 -0.45,0.48 -1.14,0.71 -2.07,0.71 -0.58,0 -1.13,-0.13 -1.64,-0.39l0 -0.67c0.57,0.32 1.12,0.48 1.64,0.48 1.38,0 2.07,-0.73 2.07,-2.19l0 -0.63 -0.02 0c-0.4,0.69 -1.03,1.04 -1.86,1.04 -0.33,0 -0.62,-0.06 -0.9,-0.18 -0.27,-0.12 -0.5,-0.29 -0.69,-0.52 -0.19,-0.23 -0.34,-0.51 -0.45,-0.83 -0.11,-0.33 -0.16,-0.69 -0.16,-1.1 0,-0.44 0.06,-0.83 0.17,-1.19 0.11,-0.36 0.28,-0.66 0.49,-0.92 0.21,-0.25 0.46,-0.45 0.76,-0.59 0.3,-0.14 0.63,-0.21 1,-0.21 0.75,0 1.3,0.31 1.64,0.91l0.02 0 0 -0.78 0.66 0 0 4.88zm-0.66 -2.81c0,-0.22 -0.04,-0.43 -0.12,-0.62 -0.08,-0.2 -0.19,-0.37 -0.33,-0.52 -0.14,-0.15 -0.31,-0.27 -0.5,-0.35 -0.2,-0.09 -0.41,-0.13 -0.64,-0.13 -0.28,0 -0.53,0.05 -0.75,0.16 -0.22,0.1 -0.41,0.25 -0.57,0.45 -0.16,0.2 -0.28,0.43 -0.36,0.72 -0.09,0.28 -0.13,0.59 -0.13,0.94 0,0.33 0.04,0.62 0.12,0.88 0.08,0.26 0.19,0.49 0.34,0.67 0.14,0.18 0.32,0.32 0.52,0.42 0.21,0.1 0.43,0.15 0.69,0.15 0.26,0 0.5,-0.04 0.71,-0.14 0.21,-0.09 0.39,-0.22 0.55,-0.39 0.15,-0.17 0.27,-0.37 0.35,-0.59 0.08,-0.23 0.12,-0.47 0.12,-0.73l0 -0.92z"/>
   <path id="4" class="fil1" d="M61.51 16.05c0,0.98 -0.22,1.71 -0.67,2.18 -0.44,0.48 -1.13,0.71 -2.06,0.71 -0.58,0 -1.13,-0.13 -1.65,-0.39l0 -0.67c0.58,0.32 1.13,0.48 1.65,0.48 1.38,0 2.07,-0.73 2.07,-2.19l0 -0.63 -0.02 0c-0.41,0.69 -1.03,1.04 -1.86,1.04 -0.33,0 -0.63,-0.06 -0.9,-0.18 -0.27,-0.12 -0.5,-0.29 -0.69,-0.52 -0.2,-0.23 -0.35,-0.51 -0.45,-0.83 -0.11,-0.33 -0.16,-0.69 -0.16,-1.1 0,-0.44 0.05,-0.83 0.17,-1.19 0.11,-0.36 0.27,-0.66 0.48,-0.92 0.21,-0.25 0.47,-0.45 0.77,-0.59 0.29,-0.14 0.63,-0.21 1,-0.21 0.75,0 1.29,0.31 1.64,0.91l0.02 0 0 -0.78 0.66 0 0 4.88zm-0.66 -2.81c0,-0.22 -0.04,-0.43 -0.12,-0.62 -0.08,-0.2 -0.19,-0.37 -0.33,-0.52 -0.14,-0.15 -0.31,-0.27 -0.51,-0.35 -0.19,-0.09 -0.4,-0.13 -0.64,-0.13 -0.27,0 -0.52,0.05 -0.75,0.16 -0.22,0.1 -0.41,0.25 -0.56,0.45 -0.16,0.2 -0.28,0.43 -0.36,0.72 -0.09,0.28 -0.13,0.59 -0.13,0.94 0,0.33 0.04,0.62 0.12,0.88 0.08,0.26 0.19,0.49 0.33,0.67 0.15,0.18 0.32,0.32 0.53,0.42 0.2,0.1 0.43,0.15 0.68,0.15 0.26,0 0.5,-0.04 0.72,-0.14 0.21,-0.09 0.39,-0.22 0.54,-0.39 0.15,-0.17 0.27,-0.37 0.36,-0.59 0.08,-0.23 0.12,-0.47 0.12,-0.73l0 -0.92z"/>
   <path id="5" class="fil1" d="M66.26 16.46l0 -0.94 -0.02 0c-0.17,0.33 -0.4,0.6 -0.7,0.78 -0.3,0.19 -0.64,0.28 -1.01,0.28 -0.26,0 -0.49,-0.03 -0.69,-0.11 -0.21,-0.07 -0.38,-0.17 -0.52,-0.31 -0.15,-0.13 -0.26,-0.29 -0.34,-0.47 -0.07,-0.19 -0.11,-0.39 -0.11,-0.62 0,-0.48 0.15,-0.86 0.44,-1.14 0.3,-0.29 0.75,-0.47 1.35,-0.56l1.6 -0.23c0,-1.02 -0.39,-1.52 -1.18,-1.52 -0.62,0 -1.19,0.22 -1.72,0.67l0 -0.72c0.12,-0.08 0.24,-0.15 0.38,-0.22 0.14,-0.06 0.29,-0.11 0.44,-0.16 0.16,-0.05 0.31,-0.08 0.48,-0.11 0.16,-0.03 0.32,-0.04 0.48,-0.04 0.59,0 1.03,0.17 1.33,0.5 0.3,0.33 0.46,0.82 0.46,1.48l0 3.44 -0.67 0zm-1.36 -2.57c-0.24,0.03 -0.44,0.08 -0.61,0.13 -0.17,0.05 -0.31,0.12 -0.42,0.21 -0.11,0.09 -0.19,0.19 -0.24,0.32 -0.05,0.13 -0.08,0.29 -0.08,0.48 0,0.14 0.03,0.27 0.08,0.39 0.05,0.12 0.12,0.23 0.21,0.32 0.1,0.08 0.21,0.15 0.35,0.2 0.14,0.05 0.29,0.07 0.46,0.07 0.24,0 0.45,-0.04 0.65,-0.13 0.19,-0.09 0.36,-0.21 0.51,-0.37 0.14,-0.16 0.25,-0.35 0.33,-0.57 0.08,-0.22 0.12,-0.46 0.12,-0.72l0 -0.52 -1.36 0.19z"/>
   <polygon id="6" class="fil1" points="68.52,16.46 68.52,8.62 69.18,8.62 69.18,16.46 "/>
  </g>
  <path class="fil2" d="M9.79 6.69l10.99 0c0.43,0 0.78,0.34 0.78,0.77l0 0.46 0 2.23 0 0.24c0,0.3 -0.25,0.55 -0.54,0.55l0 0c-0.3,0 -0.55,-0.25 -0.55,-0.55l0 -0.24 -10.34 0 0 6.83 1.82 0 1.71 0 0.77 0c0.29,0 0.54,0.24 0.54,0.54l0 0c0,0.3 -0.25,0.54 -0.54,0.54l-0.77 0 -1.71 0 -2.16 0c-0.43,0 -0.78,-0.35 -0.78,-0.77l0 -9.83c0,-0.43 0.35,-0.77 0.78,-0.77zm10.06 5.21c2.2,0 3.98,1.78 3.98,3.98 0,2.2 -1.78,3.99 -3.98,3.99 -2.2,0 -3.99,-1.79 -3.99,-3.99 0,-2.2 1.79,-3.98 3.99,-3.98zm-1.98 3.26c-0.16,-0.15 -0.17,-0.39 -0.03,-0.55 0.15,-0.17 0.39,-0.18 0.55,-0.04l1.48 1.31 2.03 -1.54c0.17,-0.13 0.41,-0.09 0.54,0.08 0.13,0.17 0.1,0.41 -0.07,0.54l-2.26 1.72c-0.15,0.13 -0.37,0.13 -0.52,0l-1.72 -1.52zm-6.29 -1.01l1.72 0 0 1.73 -1.72 0 0 -1.73zm2.89 -2.87l1.72 0 0 1.72 -1.72 0 0 -1.72zm-2.89 0l1.72 0 0 1.72 -1.72 0 0 -1.72zm0.84 -3.61c0.42,0 0.76,0.34 0.76,0.75 0,0.42 -0.34,0.76 -0.76,0.76 -0.42,0 -0.76,-0.34 -0.76,-0.76 0,-0.41 0.34,-0.75 0.76,-0.75zm5.73 0c0.42,0 0.76,0.34 0.76,0.75 0,0.42 -0.34,0.76 -0.76,0.76 -0.42,0 -0.76,-0.34 -0.76,-0.76 0,-0.41 0.34,-0.75 0.76,-0.75z"/>
 </g>
</svg>
