<?xml version="1.0" encoding="UTF-8"?>
<!DOCTYPE svg PUBLIC "-//W3C//DTD SVG 1.1//EN" "http://www.w3.org/Graphics/SVG/1.1/DTD/svg11.dtd">
<!-- Creator: CorelDRAW 2018 (64-Bit) -->
<svg xmlns="http://www.w3.org/2000/svg" xml:space="preserve" width="542px" height="63px" version="1.1" style="shape-rendering:geometricPrecision; text-rendering:geometricPrecision; image-rendering:optimizeQuality; fill-rule:evenodd; clip-rule:evenodd"
viewBox="0 0 229.25 26.47"
 xmlns:xlink="http://www.w3.org/1999/xlink">
 <defs>
  <style type="text/css">
   <![CDATA[
    .fil2 {fill:#088378}
    .fil1 {fill:#B6B6B7;fill-rule:nonzero}
    .fil0 {fill:#088378;fill-rule:nonzero}
   ]]>
  </style>
 </defs>
 <g id="Layer_x0020_1">
  <metadata id="CorelCorpID_0Corel-Layer"/>
  <g id="_2298700314624">
   <path class="fil0" d="M5.84 0l217.58 0c1.6,0 3.06,0.66 4.12,1.71 1.05,1.06 1.71,2.52 1.71,4.13l0 14.79c0,1.6 -0.66,3.06 -1.71,4.12 -1.06,1.06 -2.52,1.72 -4.12,1.72l-217.58 0c-1.61,0 -3.07,-0.66 -4.12,-1.72 -1.06,-1.05 -1.72,-2.51 -1.72,-4.12l0 -14.79c0,-1.61 0.66,-3.07 1.71,-4.13 1.06,-1.05 2.52,-1.71 4.13,-1.71zm217.58 1l-217.58 0c-1.33,0 -2.54,0.54 -3.42,1.42 -0.88,0.88 -1.42,2.09 -1.42,3.42l0 14.79c0,1.33 0.54,2.54 1.42,3.42 0.88,0.87 2.09,1.42 3.42,1.42l217.58 0c1.32,0 2.53,-0.55 3.41,-1.42 0.88,-0.88 1.42,-2.09 1.42,-3.42l0 -14.79c0,-1.33 -0.54,-2.54 -1.42,-3.42 -0.88,-0.88 -2.09,-1.42 -3.41,-1.42z"/>
   <path class="fil1" d="M39.64 16.46l-4.11 -5.95c-0.05,-0.08 -0.1,-0.15 -0.16,-0.23 -0.05,-0.08 -0.09,-0.16 -0.12,-0.24l-0.02 0c0,0.07 0.01,0.15 0.02,0.26 0,0.11 0,0.25 0,0.42l0 5.74 -0.68 0 0 -7.41 0.76 0 4.04 5.87c0.06,0.1 0.12,0.18 0.17,0.26 0.05,0.08 0.1,0.16 0.14,0.23l0.02 0c-0.01,-0.12 -0.02,-0.24 -0.03,-0.39 0,-0.14 -0.01,-0.29 -0.01,-0.46l0 -5.51 0.69 0 0 7.41 -0.71 0z"/>
   <path id="1" class="fil1" d="M44.33 16.58c-0.39,0 -0.74,-0.06 -1.05,-0.2 -0.32,-0.13 -0.58,-0.31 -0.8,-0.55 -0.22,-0.24 -0.39,-0.53 -0.51,-0.86 -0.11,-0.33 -0.17,-0.71 -0.17,-1.11 0,-0.44 0.06,-0.84 0.18,-1.19 0.13,-0.34 0.3,-0.64 0.53,-0.88 0.23,-0.25 0.51,-0.43 0.83,-0.56 0.32,-0.12 0.69,-0.19 1.09,-0.19 0.38,0 0.72,0.06 1.03,0.19 0.31,0.13 0.57,0.31 0.78,0.55 0.21,0.23 0.38,0.52 0.49,0.86 0.12,0.34 0.17,0.73 0.17,1.17 0,0.41 -0.06,0.79 -0.18,1.12 -0.11,0.35 -0.29,0.64 -0.51,0.88 -0.22,0.25 -0.48,0.44 -0.8,0.57 -0.32,0.13 -0.68,0.2 -1.08,0.2zm0.05 -4.96c-0.28,0 -0.55,0.04 -0.78,0.15 -0.24,0.09 -0.44,0.24 -0.6,0.43 -0.17,0.19 -0.3,0.43 -0.39,0.7 -0.09,0.28 -0.13,0.6 -0.13,0.95 0,0.33 0.04,0.63 0.13,0.89 0.09,0.27 0.22,0.49 0.38,0.68 0.17,0.19 0.36,0.34 0.6,0.44 0.23,0.1 0.49,0.15 0.78,0.15 0.3,0 0.56,-0.05 0.79,-0.14 0.23,-0.1 0.42,-0.25 0.58,-0.43 0.16,-0.19 0.28,-0.42 0.36,-0.69 0.08,-0.28 0.12,-0.59 0.12,-0.93 0,-0.72 -0.16,-1.26 -0.48,-1.64 -0.31,-0.38 -0.77,-0.56 -1.36,-0.56z"/>
   <path id="2" class="fil1" d="M54.88 16.46l0 -3.11c0,-0.32 -0.02,-0.59 -0.07,-0.81 -0.04,-0.22 -0.12,-0.39 -0.22,-0.53 -0.1,-0.14 -0.23,-0.24 -0.39,-0.3 -0.16,-0.06 -0.34,-0.09 -0.56,-0.09 -0.19,0 -0.38,0.04 -0.55,0.13 -0.17,0.09 -0.32,0.22 -0.45,0.38 -0.13,0.16 -0.23,0.35 -0.31,0.56 -0.07,0.22 -0.11,0.46 -0.11,0.71l0 3.06 -0.66 0 0 -3.18c0,-1.11 -0.42,-1.66 -1.27,-1.66 -0.2,0 -0.38,0.04 -0.55,0.13 -0.17,0.08 -0.32,0.21 -0.44,0.37 -0.13,0.16 -0.23,0.35 -0.3,0.57 -0.07,0.22 -0.11,0.47 -0.11,0.73l0 3.04 -0.66 0 0 -5.29 0.66 0 0 0.85 0.03 0c0.37,-0.65 0.91,-0.98 1.62,-0.98 0.19,0 0.37,0.03 0.53,0.09 0.17,0.05 0.32,0.13 0.45,0.23 0.13,0.11 0.24,0.23 0.33,0.37 0.1,0.14 0.17,0.29 0.22,0.46 0.18,-0.37 0.43,-0.66 0.72,-0.85 0.3,-0.2 0.64,-0.3 1.02,-0.3 1.16,0 1.74,0.72 1.74,2.15l0 3.27 -0.67 0z"/>
   <path id="3" class="fil1" d="M59.3 16.58c-0.39,0 -0.74,-0.06 -1.05,-0.2 -0.31,-0.13 -0.58,-0.31 -0.8,-0.55 -0.22,-0.24 -0.39,-0.53 -0.51,-0.86 -0.11,-0.33 -0.17,-0.71 -0.17,-1.11 0,-0.44 0.06,-0.84 0.18,-1.19 0.13,-0.34 0.3,-0.64 0.53,-0.88 0.23,-0.25 0.51,-0.43 0.83,-0.56 0.33,-0.12 0.69,-0.19 1.09,-0.19 0.38,0 0.72,0.06 1.03,0.19 0.31,0.13 0.57,0.31 0.78,0.55 0.21,0.23 0.38,0.52 0.49,0.86 0.12,0.34 0.17,0.73 0.17,1.17 0,0.41 -0.06,0.79 -0.18,1.12 -0.11,0.35 -0.29,0.64 -0.51,0.88 -0.22,0.25 -0.48,0.44 -0.8,0.57 -0.32,0.13 -0.68,0.2 -1.08,0.2zm0.05 -4.96c-0.28,0 -0.55,0.04 -0.78,0.15 -0.23,0.09 -0.44,0.24 -0.6,0.43 -0.17,0.19 -0.3,0.43 -0.39,0.7 -0.09,0.28 -0.13,0.6 -0.13,0.95 0,0.33 0.04,0.63 0.13,0.89 0.09,0.27 0.22,0.49 0.38,0.68 0.17,0.19 0.36,0.34 0.6,0.44 0.23,0.1 0.5,0.15 0.78,0.15 0.3,0 0.56,-0.05 0.79,-0.14 0.23,-0.1 0.42,-0.25 0.58,-0.43 0.16,-0.19 0.28,-0.42 0.36,-0.69 0.08,-0.28 0.12,-0.59 0.12,-0.93 0,-0.72 -0.16,-1.26 -0.48,-1.64 -0.31,-0.38 -0.77,-0.56 -1.36,-0.56z"/>
   <path id="4" class="fil1" d="M65.83 11.84c-0.16,-0.11 -0.35,-0.17 -0.6,-0.17 -0.18,0 -0.33,0.04 -0.47,0.1 -0.13,0.07 -0.25,0.16 -0.35,0.27 -0.1,0.12 -0.19,0.25 -0.26,0.4 -0.07,0.15 -0.12,0.3 -0.17,0.47 -0.04,0.16 -0.07,0.32 -0.09,0.49 -0.02,0.16 -0.03,0.32 -0.03,0.47l0 2.59 -0.66 0 0 -5.29 0.66 0 0 1.13 0.02 0c0.06,-0.2 0.14,-0.37 0.24,-0.52 0.09,-0.16 0.2,-0.28 0.33,-0.39 0.12,-0.1 0.25,-0.19 0.4,-0.24 0.15,-0.06 0.3,-0.08 0.46,-0.08 0.11,0 0.2,0 0.29,0.02 0.08,0.01 0.16,0.03 0.23,0.06l0 0.69z"/>
   <path id="5" class="fil1" d="M74.87 16.46l-4.11 -5.95c-0.05,-0.08 -0.1,-0.15 -0.15,-0.23 -0.05,-0.08 -0.09,-0.16 -0.12,-0.24l-0.03 0c0.01,0.07 0.01,0.15 0.02,0.26 0,0.11 0.01,0.25 0.01,0.42l0 5.74 -0.69 0 0 -7.41 0.76 0 4.05 5.87c0.06,0.1 0.11,0.18 0.16,0.26 0.05,0.08 0.1,0.16 0.14,0.23l0.03 0c-0.02,-0.12 -0.03,-0.24 -0.04,-0.39 0,-0.14 0,-0.29 0,-0.46l0 -5.51 0.69 0 0 7.41 -0.72 0z"/>
   <path id="6" class="fil1" d="M78.2 13.57l0 2.89 -0.69 0 0 -7.41 1.91 0c0.39,0 0.74,0.04 1.04,0.14 0.3,0.1 0.55,0.24 0.76,0.42 0.2,0.18 0.36,0.41 0.46,0.67 0.11,0.27 0.17,0.57 0.17,0.91 0,0.35 -0.06,0.66 -0.19,0.95 -0.12,0.3 -0.29,0.55 -0.51,0.76 -0.23,0.21 -0.51,0.38 -0.83,0.5 -0.32,0.11 -0.69,0.17 -1.1,0.17l-1.02 0zm0 -3.89l0 3.26 0.98 0c0.64,0 1.12,-0.14 1.45,-0.44 0.33,-0.3 0.5,-0.72 0.5,-1.26 0,-1.04 -0.61,-1.56 -1.83,-1.56l-1.1 0z"/>
   <path id="7" class="fil1" d="M89.74 16.46l-0.72 0 -1.59 -5.5c-0.04,-0.13 -0.07,-0.25 -0.09,-0.37 -0.02,-0.12 -0.03,-0.24 -0.04,-0.35l-0.02 0c-0.01,0.2 -0.06,0.44 -0.15,0.71l-1.64 5.51 -0.72 0 -2.19 -7.41 0.77 0 1.63 5.81c0.04,0.13 0.07,0.25 0.09,0.36 0.03,0.12 0.04,0.23 0.06,0.34l0.02 0c0.02,-0.16 0.08,-0.39 0.17,-0.7l1.74 -5.81 0.54 0 1.63 5.83c0.03,0.12 0.05,0.23 0.08,0.34 0.02,0.12 0.04,0.23 0.06,0.33l0.02 0c0,-0.07 0.02,-0.14 0.04,-0.23 0.02,-0.09 0.04,-0.18 0.07,-0.29l1.62 -5.98 0.75 0 -2.13 7.41z"/>
   <path id="8" class="fil1" d="M93.72 13.57l0 2.89 -0.69 0 0 -7.41 1.91 0c0.39,0 0.73,0.04 1.03,0.14 0.3,0.1 0.56,0.24 0.76,0.42 0.21,0.18 0.37,0.41 0.47,0.67 0.11,0.27 0.16,0.57 0.16,0.91 0,0.35 -0.06,0.66 -0.18,0.95 -0.12,0.3 -0.29,0.55 -0.52,0.76 -0.22,0.21 -0.5,0.38 -0.82,0.5 -0.32,0.11 -0.69,0.17 -1.1,0.17l-1.02 0zm0 -3.89l0 3.26 0.98 0c0.64,0 1.12,-0.14 1.45,-0.44 0.33,-0.3 0.5,-0.72 0.5,-1.26 0,-1.04 -0.61,-1.56 -1.83,-1.56l-1.1 0z"/>
   <path id="9" class="fil1" d="M104.71 16.46l0 -0.94 -0.02 0c-0.17,0.33 -0.41,0.6 -0.71,0.78 -0.3,0.19 -0.63,0.28 -1.01,0.28 -0.25,0 -0.48,-0.03 -0.69,-0.11 -0.2,-0.07 -0.38,-0.17 -0.52,-0.31 -0.14,-0.13 -0.25,-0.29 -0.33,-0.47 -0.08,-0.19 -0.12,-0.39 -0.12,-0.62 0,-0.48 0.15,-0.86 0.45,-1.14 0.29,-0.29 0.74,-0.47 1.34,-0.56l1.61 -0.23c0,-1.02 -0.4,-1.52 -1.18,-1.52 -0.62,0 -1.19,0.22 -1.72,0.67l0 -0.72c0.11,-0.08 0.24,-0.15 0.38,-0.22 0.13,-0.06 0.28,-0.11 0.44,-0.16 0.15,-0.05 0.31,-0.08 0.47,-0.11 0.17,-0.03 0.33,-0.04 0.48,-0.04 0.59,0 1.04,0.17 1.34,0.5 0.3,0.33 0.45,0.82 0.45,1.48l0 3.44 -0.66 0zm-1.36 -2.57c-0.24,0.03 -0.44,0.08 -0.61,0.13 -0.17,0.05 -0.31,0.12 -0.42,0.21 -0.11,0.09 -0.19,0.19 -0.25,0.32 -0.05,0.13 -0.07,0.29 -0.07,0.48 0,0.14 0.02,0.27 0.07,0.39 0.05,0.12 0.12,0.23 0.22,0.32 0.09,0.08 0.21,0.15 0.35,0.2 0.13,0.05 0.28,0.07 0.46,0.07 0.23,0 0.45,-0.04 0.64,-0.13 0.2,-0.09 0.37,-0.21 0.51,-0.37 0.15,-0.16 0.26,-0.35 0.34,-0.57 0.08,-0.22 0.12,-0.46 0.12,-0.72l0 -0.52 -1.36 0.19z"/>
   <path id="10" class="fil1" d="M110.53 16.46l0 -3.05c0,-1.2 -0.43,-1.79 -1.3,-1.79 -0.23,0 -0.44,0.04 -0.64,0.13 -0.2,0.09 -0.36,0.22 -0.51,0.38 -0.14,0.16 -0.25,0.35 -0.33,0.58 -0.09,0.22 -0.13,0.46 -0.13,0.72l0 3.03 -0.66 0 0 -5.29 0.66 0 0 0.91 0.02 0c0.4,-0.69 0.99,-1.04 1.78,-1.04 0.58,0 1.02,0.19 1.32,0.56 0.3,0.38 0.46,0.92 0.46,1.63l0 3.23 -0.67 0z"/>
   <path id="11" class="fil1" d="M116.5 16.46l0 -0.93 -0.02 0c-0.18,0.33 -0.43,0.59 -0.75,0.78 -0.33,0.18 -0.7,0.27 -1.11,0.27 -0.33,0 -0.63,-0.06 -0.91,-0.18 -0.27,-0.12 -0.5,-0.3 -0.69,-0.53 -0.19,-0.23 -0.34,-0.51 -0.45,-0.84 -0.1,-0.33 -0.16,-0.7 -0.16,-1.11 0,-0.43 0.06,-0.82 0.18,-1.17 0.11,-0.35 0.28,-0.66 0.49,-0.91 0.21,-0.25 0.47,-0.45 0.77,-0.59 0.29,-0.14 0.62,-0.21 0.99,-0.21 0.76,0 1.31,0.31 1.64,0.92l0.02 0 0 -3.34 0.66 0 0 7.84 -0.66 0zm0 -3.2c0,-0.23 -0.04,-0.44 -0.12,-0.64 -0.08,-0.2 -0.19,-0.38 -0.33,-0.52 -0.14,-0.15 -0.31,-0.27 -0.51,-0.36 -0.2,-0.08 -0.42,-0.12 -0.65,-0.12 -0.27,0 -0.51,0.05 -0.73,0.15 -0.22,0.1 -0.41,0.25 -0.56,0.45 -0.16,0.19 -0.28,0.43 -0.37,0.71 -0.09,0.28 -0.13,0.59 -0.13,0.95 0,0.33 0.04,0.63 0.12,0.9 0.08,0.26 0.19,0.49 0.33,0.67 0.15,0.18 0.33,0.32 0.53,0.42 0.2,0.1 0.43,0.14 0.68,0.14 0.27,0 0.51,-0.04 0.72,-0.14 0.22,-0.1 0.4,-0.23 0.55,-0.4 0.15,-0.17 0.27,-0.37 0.35,-0.59 0.08,-0.23 0.12,-0.47 0.12,-0.73l0 -0.89z"/>
   <path id="12" class="fil1" d="M121.91 16.46l0 -0.94 -0.02 0c-0.17,0.33 -0.41,0.6 -0.7,0.78 -0.3,0.19 -0.64,0.28 -1.01,0.28 -0.26,0 -0.49,-0.03 -0.69,-0.11 -0.21,-0.07 -0.38,-0.17 -0.52,-0.31 -0.15,-0.13 -0.26,-0.29 -0.34,-0.47 -0.07,-0.19 -0.11,-0.39 -0.11,-0.62 0,-0.48 0.15,-0.86 0.44,-1.14 0.3,-0.29 0.75,-0.47 1.35,-0.56l1.6 -0.23c0,-1.02 -0.39,-1.52 -1.18,-1.52 -0.62,0 -1.19,0.22 -1.72,0.67l0 -0.72c0.11,-0.08 0.24,-0.15 0.38,-0.22 0.14,-0.06 0.29,-0.11 0.44,-0.16 0.16,-0.05 0.31,-0.08 0.48,-0.11 0.16,-0.03 0.32,-0.04 0.48,-0.04 0.59,0 1.03,0.17 1.33,0.5 0.3,0.33 0.46,0.82 0.46,1.48l0 3.44 -0.67 0zm-1.36 -2.57c-0.24,0.03 -0.44,0.08 -0.61,0.13 -0.17,0.05 -0.31,0.12 -0.42,0.21 -0.11,0.09 -0.19,0.19 -0.24,0.32 -0.05,0.13 -0.08,0.29 -0.08,0.48 0,0.14 0.03,0.27 0.07,0.39 0.06,0.12 0.13,0.23 0.22,0.32 0.1,0.08 0.21,0.15 0.35,0.2 0.13,0.05 0.29,0.07 0.46,0.07 0.24,0 0.45,-0.04 0.65,-0.13 0.19,-0.09 0.36,-0.21 0.51,-0.37 0.14,-0.16 0.25,-0.35 0.33,-0.57 0.08,-0.22 0.12,-0.46 0.12,-0.72l0 -0.52 -1.36 0.19z"/>
  </g>
  <path class="fil2" d="M12.23 5.87l8.38 0c1.77,0 3.22,1.45 3.22,3.22l0 8.38c0,1.77 -1.45,3.22 -3.22,3.22l-8.38 0c-1.77,0 -3.22,-1.45 -3.22,-3.22l0 -8.38c0,-1.77 1.45,-3.22 3.22,-3.22zm7.01 4.73l0 -1.65 0.81 0c0.5,0 0.75,0.25 0.75,0.79 0,0.54 -0.25,0.86 -0.75,0.86l-0.81 0zm-8.22 2.41l1.01 0 0 -3.76 0.11 0 1.44 3.76 1.54 0 0 -5.03 -1.01 0 0 3.76 -0.11 0 -1.39 -3.76 -1.59 0 0 5.03zm0 0.53l1.05 5.04 1.41 0 0.59 -3.56 0.6 3.56 1.4 0 1.06 -5.04 0 -5.56 -0.99 0 0 5.56 -0.72 4 -0.1 0 -0.71 -4 -1.07 0 -0.71 4 -0.11 0 -0.71 -4 -0.99 0zm8.22 2.63l0 -1.66 0.81 0c0.5,0 0.75,0.25 0.75,0.79 0,0.55 -0.25,0.87 -0.75,0.87l-0.81 0zm0.81 0.97c1.17,0 1.77,-0.67 1.77,-1.84 0,-1.17 -0.6,-1.76 -1.77,-1.76l-1.82 0 0 5.04 1.01 0 0 -1.44 0.81 0zm0 -5.56c1.17,0 1.77,-0.68 1.77,-1.84 0,-1.17 -0.6,-1.76 -1.77,-1.76l-1.82 0 0 5.03 1.01 0 0 -1.43 0.81 0z"/>
 </g>
</svg>
