<?xml version="1.0" encoding="UTF-8"?>
<!DOCTYPE svg PUBLIC "-//W3C//DTD SVG 1.1//EN" "http://www.w3.org/Graphics/SVG/1.1/DTD/svg11.dtd">
<!-- Creator: CorelDRAW 2018 (64-Bit) -->
<svg xmlns="http://www.w3.org/2000/svg" xml:space="preserve" width="542px" height="63px" version="1.1" style="shape-rendering:geometricPrecision; text-rendering:geometricPrecision; image-rendering:optimizeQuality; fill-rule:evenodd; clip-rule:evenodd"
viewBox="0 0 229.25 26.47"
 xmlns:xlink="http://www.w3.org/1999/xlink">
 <defs>
  <style type="text/css">
   <![CDATA[
    .fil2 {fill:#088378}
    .fil1 {fill:#B6B6B7;fill-rule:nonzero}
    .fil0 {fill:#088378;fill-rule:nonzero}
   ]]>
  </style>
 </defs>
 <g id="Layer_x0020_1">
  <metadata id="CorelCorpID_0Corel-Layer"/>
  <g id="_2298833643376">
   <path class="fil0" d="M5.84 0l217.58 0c1.6,0 3.06,0.66 4.12,1.71 1.05,1.06 1.71,2.52 1.71,4.13l0 14.79c0,1.6 -0.66,3.06 -1.71,4.12 -1.06,1.06 -2.52,1.72 -4.12,1.72l-217.58 0c-1.61,0 -3.07,-0.66 -4.12,-1.72 -1.06,-1.05 -1.72,-2.51 -1.72,-4.12l0 -14.79c0,-1.61 0.66,-3.07 1.71,-4.13 1.06,-1.05 2.52,-1.71 4.13,-1.71zm217.58 1l-217.58 0c-1.33,0 -2.54,0.54 -3.42,1.42 -0.88,0.88 -1.42,2.09 -1.42,3.42l0 14.79c0,1.33 0.54,2.54 1.42,3.42 0.88,0.87 2.09,1.42 3.42,1.42l217.58 0c1.32,0 2.53,-0.55 3.41,-1.42 0.88,-0.88 1.42,-2.09 1.42,-3.42l0 -14.79c0,-1.33 -0.54,-2.54 -1.42,-3.42 -0.88,-0.88 -2.09,-1.42 -3.41,-1.42z"/>
   <path class="fil1" d="M39.8 13.48c0,2.07 -0.91,3.11 -2.73,3.11 -1.73,0 -2.6,-1 -2.6,-3l0 -4.54 0.69 0 0 4.48c0,0.82 0.16,1.42 0.49,1.83 0.33,0.4 0.84,0.6 1.52,0.6 1.3,0 1.94,-0.79 1.94,-2.36l0 -4.55 0.69 0 0 4.43z"/>
   <path id="1" class="fil1" d="M41.22 15.51c0.1,0.08 0.21,0.15 0.33,0.21 0.11,0.06 0.24,0.11 0.36,0.16 0.12,0.04 0.25,0.08 0.38,0.1 0.12,0.02 0.24,0.03 0.35,0.03 0.79,0 1.18,-0.29 1.18,-0.88 0,-0.14 -0.02,-0.25 -0.08,-0.35 -0.06,-0.1 -0.14,-0.19 -0.24,-0.27 -0.1,-0.08 -0.22,-0.15 -0.37,-0.22 -0.14,-0.07 -0.31,-0.15 -0.49,-0.22 -0.25,-0.1 -0.46,-0.2 -0.63,-0.3 -0.18,-0.11 -0.32,-0.22 -0.44,-0.34 -0.11,-0.13 -0.19,-0.26 -0.25,-0.41 -0.05,-0.14 -0.08,-0.31 -0.08,-0.49 0,-0.24 0.05,-0.45 0.15,-0.63 0.1,-0.18 0.24,-0.34 0.41,-0.47 0.17,-0.12 0.37,-0.22 0.6,-0.29 0.22,-0.06 0.46,-0.1 0.71,-0.1 0.46,0 0.86,0.09 1.2,0.26l0 0.7c-0.4,-0.26 -0.83,-0.38 -1.28,-0.38 -0.17,0 -0.32,0.02 -0.46,0.06 -0.13,0.04 -0.25,0.1 -0.34,0.17 -0.1,0.08 -0.18,0.17 -0.23,0.27 -0.05,0.11 -0.08,0.23 -0.08,0.35 0,0.13 0.02,0.25 0.06,0.35 0.04,0.1 0.11,0.18 0.2,0.26 0.08,0.08 0.2,0.16 0.34,0.23 0.14,0.07 0.31,0.15 0.51,0.23 0.25,0.11 0.47,0.21 0.66,0.31 0.18,0.1 0.34,0.21 0.46,0.33 0.12,0.12 0.21,0.25 0.27,0.4 0.05,0.15 0.08,0.31 0.08,0.51 0,0.23 -0.04,0.45 -0.14,0.63 -0.1,0.19 -0.24,0.35 -0.41,0.47 -0.18,0.13 -0.38,0.23 -0.61,0.29 -0.24,0.07 -0.49,0.1 -0.77,0.1 -0.53,0 -0.98,-0.11 -1.35,-0.33l0 -0.74z"/>
   <path id="2" class="fil1" d="M46.14 13.93c0,0.32 0.05,0.62 0.13,0.87 0.08,0.26 0.2,0.48 0.35,0.66 0.16,0.18 0.35,0.32 0.57,0.41 0.22,0.1 0.47,0.14 0.75,0.14 0.6,0 1.16,-0.21 1.69,-0.62l0 0.65c-0.5,0.36 -1.12,0.54 -1.84,0.54 -0.35,0 -0.67,-0.06 -0.96,-0.18 -0.29,-0.13 -0.54,-0.31 -0.74,-0.54 -0.21,-0.24 -0.36,-0.53 -0.47,-0.88 -0.11,-0.34 -0.17,-0.73 -0.17,-1.17 0,-0.4 0.06,-0.77 0.18,-1.1 0.12,-0.34 0.29,-0.63 0.5,-0.88 0.22,-0.25 0.47,-0.44 0.76,-0.58 0.3,-0.14 0.62,-0.21 0.96,-0.21 0.34,0 0.65,0.06 0.91,0.18 0.26,0.12 0.48,0.29 0.66,0.51 0.18,0.22 0.31,0.49 0.4,0.8 0.1,0.32 0.14,0.68 0.14,1.07l0 0.33 -3.82 0zm3.14 -0.58c-0.01,-0.55 -0.14,-0.98 -0.39,-1.28 -0.25,-0.3 -0.6,-0.45 -1.05,-0.45 -0.23,0 -0.43,0.03 -0.62,0.11 -0.19,0.08 -0.36,0.2 -0.51,0.35 -0.14,0.15 -0.26,0.33 -0.36,0.55 -0.09,0.21 -0.16,0.45 -0.2,0.72l3.13 0z"/>
   <path id="3" class="fil1" d="M53.89 11.84c-0.16,-0.11 -0.36,-0.17 -0.6,-0.17 -0.18,0 -0.34,0.04 -0.47,0.1 -0.13,0.07 -0.25,0.16 -0.35,0.27 -0.11,0.12 -0.19,0.25 -0.26,0.4 -0.07,0.15 -0.13,0.3 -0.17,0.47 -0.05,0.16 -0.08,0.32 -0.1,0.49 -0.01,0.16 -0.03,0.32 -0.03,0.47l0 2.59 -0.65 0 0 -5.29 0.65 0 0 1.13 0.03 0c0.06,-0.2 0.14,-0.37 0.23,-0.52 0.1,-0.16 0.21,-0.28 0.33,-0.39 0.12,-0.1 0.26,-0.19 0.41,-0.24 0.14,-0.06 0.3,-0.08 0.46,-0.08 0.1,0 0.2,0 0.28,0.02 0.09,0.01 0.17,0.03 0.24,0.06l0 0.69z"/>
   <polygon id="4" class="fil1" points="57.74,16.46 57.74,8.62 58.41,8.62 58.41,16.46 "/>
   <path id="5" class="fil1" d="M62.28 16.58c-0.4,0 -0.75,-0.06 -1.06,-0.2 -0.31,-0.13 -0.58,-0.31 -0.8,-0.55 -0.22,-0.24 -0.39,-0.53 -0.5,-0.86 -0.12,-0.33 -0.18,-0.71 -0.18,-1.11 0,-0.44 0.06,-0.84 0.19,-1.19 0.12,-0.34 0.3,-0.64 0.53,-0.88 0.22,-0.25 0.5,-0.43 0.82,-0.56 0.33,-0.12 0.69,-0.19 1.09,-0.19 0.38,0 0.73,0.06 1.03,0.19 0.31,0.13 0.57,0.31 0.78,0.55 0.22,0.23 0.38,0.52 0.49,0.86 0.12,0.34 0.18,0.73 0.18,1.17 0,0.41 -0.06,0.79 -0.18,1.12 -0.12,0.35 -0.29,0.64 -0.51,0.88 -0.22,0.25 -0.49,0.44 -0.81,0.57 -0.31,0.13 -0.67,0.2 -1.07,0.2zm0.05 -4.96c-0.29,0 -0.55,0.04 -0.79,0.15 -0.23,0.09 -0.43,0.24 -0.6,0.43 -0.17,0.19 -0.29,0.43 -0.38,0.7 -0.09,0.28 -0.14,0.6 -0.14,0.95 0,0.33 0.05,0.63 0.14,0.89 0.09,0.27 0.21,0.49 0.38,0.68 0.16,0.19 0.36,0.34 0.59,0.44 0.24,0.1 0.5,0.15 0.79,0.15 0.29,0 0.56,-0.05 0.79,-0.14 0.22,-0.1 0.41,-0.25 0.57,-0.43 0.16,-0.19 0.28,-0.42 0.36,-0.69 0.08,-0.28 0.12,-0.59 0.12,-0.93 0,-0.72 -0.16,-1.26 -0.47,-1.64 -0.32,-0.38 -0.77,-0.56 -1.36,-0.56z"/>
   <path id="6" class="fil1" d="M70.55 16.05c0,0.98 -0.22,1.71 -0.67,2.18 -0.44,0.48 -1.13,0.71 -2.06,0.71 -0.58,0 -1.13,-0.13 -1.65,-0.39l0 -0.67c0.58,0.32 1.13,0.48 1.65,0.48 1.38,0 2.07,-0.73 2.07,-2.19l0 -0.63 -0.02 0c-0.41,0.69 -1.03,1.04 -1.86,1.04 -0.33,0 -0.63,-0.06 -0.9,-0.18 -0.27,-0.12 -0.5,-0.29 -0.69,-0.52 -0.2,-0.23 -0.35,-0.51 -0.45,-0.83 -0.11,-0.33 -0.16,-0.69 -0.16,-1.1 0,-0.44 0.05,-0.83 0.17,-1.19 0.11,-0.36 0.27,-0.66 0.48,-0.92 0.21,-0.25 0.47,-0.45 0.77,-0.59 0.29,-0.14 0.63,-0.21 1,-0.21 0.75,0 1.29,0.31 1.64,0.91l0.02 0 0 -0.78 0.66 0 0 4.88zm-0.66 -2.81c0,-0.22 -0.04,-0.43 -0.12,-0.62 -0.08,-0.2 -0.19,-0.37 -0.33,-0.52 -0.14,-0.15 -0.31,-0.27 -0.51,-0.35 -0.19,-0.09 -0.4,-0.13 -0.64,-0.13 -0.27,0 -0.52,0.05 -0.75,0.16 -0.22,0.1 -0.41,0.25 -0.56,0.45 -0.16,0.2 -0.28,0.43 -0.36,0.72 -0.09,0.28 -0.13,0.59 -0.13,0.94 0,0.33 0.04,0.62 0.12,0.88 0.08,0.26 0.19,0.49 0.33,0.67 0.15,0.18 0.32,0.32 0.53,0.42 0.2,0.1 0.43,0.15 0.68,0.15 0.26,0 0.5,-0.04 0.72,-0.14 0.21,-0.09 0.39,-0.22 0.54,-0.39 0.15,-0.17 0.27,-0.37 0.36,-0.59 0.08,-0.23 0.12,-0.47 0.12,-0.73l0 -0.92z"/>
   <path id="7" class="fil1" d="M72.58 9.83c-0.13,0 -0.24,-0.05 -0.33,-0.14 -0.09,-0.09 -0.14,-0.2 -0.14,-0.34 0,-0.13 0.05,-0.24 0.14,-0.33 0.09,-0.09 0.2,-0.13 0.33,-0.13 0.07,0 0.13,0.01 0.19,0.03 0.06,0.02 0.11,0.05 0.15,0.1 0.04,0.04 0.08,0.09 0.1,0.14 0.03,0.06 0.04,0.12 0.04,0.19 0,0.07 -0.01,0.13 -0.03,0.19 -0.03,0.06 -0.06,0.11 -0.11,0.15 -0.04,0.04 -0.09,0.08 -0.15,0.1 -0.06,0.02 -0.12,0.04 -0.19,0.04zm-0.33 6.63l0 -5.29 0.67 0 0 5.29 -0.67 0z"/>
   <path id="8" class="fil1" d="M78.19 16.46l0 -3.05c0,-1.2 -0.43,-1.79 -1.3,-1.79 -0.23,0 -0.44,0.04 -0.64,0.13 -0.2,0.09 -0.37,0.22 -0.51,0.38 -0.14,0.16 -0.25,0.35 -0.34,0.58 -0.08,0.22 -0.12,0.46 -0.12,0.72l0 3.03 -0.66 0 0 -5.29 0.66 0 0 0.91 0.02 0c0.4,-0.69 0.99,-1.04 1.78,-1.04 0.58,0 1.02,0.19 1.32,0.56 0.3,0.38 0.46,0.92 0.46,1.63l0 3.23 -0.67 0z"/>
   <path id="9" class="fil1" d="M84.82 18.14c-1.05,-1.22 -1.58,-2.72 -1.58,-4.51 0,-1.82 0.53,-3.35 1.59,-4.58l0.64 0c-1.08,1.27 -1.62,2.8 -1.62,4.58 0,1.72 0.54,3.22 1.61,4.51l-0.64 0z"/>
   <path id="10" class="fil1" d="M87.23 13.57l0 2.89 -0.68 0 0 -7.41 1.91 0c0.39,0 0.73,0.04 1.03,0.14 0.3,0.1 0.55,0.24 0.76,0.42 0.21,0.18 0.37,0.41 0.47,0.67 0.11,0.27 0.16,0.57 0.16,0.91 0,0.35 -0.06,0.66 -0.18,0.95 -0.12,0.3 -0.29,0.55 -0.52,0.76 -0.22,0.21 -0.5,0.38 -0.82,0.5 -0.33,0.11 -0.69,0.17 -1.1,0.17l-1.03 0zm0 -3.89l0 3.26 0.98 0c0.64,0 1.13,-0.14 1.46,-0.44 0.33,-0.3 0.49,-0.72 0.49,-1.26 0,-1.04 -0.61,-1.56 -1.83,-1.56l-1.1 0z"/>
   <path id="11" class="fil1" d="M92.59 13.93c0.01,0.32 0.05,0.62 0.13,0.87 0.08,0.26 0.2,0.48 0.36,0.66 0.15,0.18 0.34,0.32 0.56,0.41 0.23,0.1 0.48,0.14 0.76,0.14 0.59,0 1.16,-0.21 1.69,-0.62l0 0.65c-0.51,0.36 -1.12,0.54 -1.84,0.54 -0.36,0 -0.68,-0.06 -0.97,-0.18 -0.29,-0.13 -0.54,-0.31 -0.74,-0.54 -0.2,-0.24 -0.36,-0.53 -0.47,-0.88 -0.11,-0.34 -0.16,-0.73 -0.16,-1.17 0,-0.4 0.06,-0.77 0.18,-1.1 0.12,-0.34 0.28,-0.63 0.5,-0.88 0.21,-0.25 0.47,-0.44 0.76,-0.58 0.29,-0.14 0.61,-0.21 0.96,-0.21 0.34,0 0.64,0.06 0.9,0.18 0.27,0.12 0.48,0.29 0.66,0.51 0.18,0.22 0.31,0.49 0.41,0.8 0.09,0.32 0.14,0.68 0.14,1.07l0 0.33 -3.83 0zm3.14 -0.58c0,-0.55 -0.14,-0.98 -0.39,-1.28 -0.25,-0.3 -0.6,-0.45 -1.05,-0.45 -0.22,0 -0.43,0.03 -0.62,0.11 -0.19,0.08 -0.36,0.2 -0.5,0.35 -0.15,0.15 -0.27,0.33 -0.36,0.55 -0.1,0.21 -0.16,0.45 -0.2,0.72l3.12 0z"/>
   <path id="12" class="fil1" d="M99.99 16.4c-0.23,0.11 -0.48,0.16 -0.75,0.17 -0.85,-0.01 -1.28,-0.5 -1.28,-1.48l0 -3.35 -0.93 0 0 -0.57 0.93 0 0 -1.34 0.66 -0.21 0 1.55 1.37 0 0 0.57 -1.37 0 0 3.24c0,0.36 0.06,0.62 0.18,0.78 0.12,0.16 0.31,0.24 0.59,0.24 0.21,0 0.41,-0.06 0.6,-0.19l0 0.59z"/>
   <path id="13" class="fil1" d="M104.13 16.46l0 -0.94 -0.02 0c-0.17,0.33 -0.41,0.6 -0.71,0.78 -0.3,0.19 -0.63,0.28 -1.01,0.28 -0.25,0 -0.48,-0.03 -0.69,-0.11 -0.2,-0.07 -0.38,-0.17 -0.52,-0.31 -0.14,-0.13 -0.25,-0.29 -0.33,-0.47 -0.08,-0.19 -0.12,-0.39 -0.12,-0.62 0,-0.48 0.15,-0.86 0.45,-1.14 0.29,-0.29 0.74,-0.47 1.34,-0.56l1.61 -0.23c0,-1.02 -0.4,-1.52 -1.19,-1.52 -0.61,0 -1.18,0.22 -1.71,0.67l0 -0.72c0.11,-0.08 0.23,-0.15 0.37,-0.22 0.14,-0.06 0.29,-0.11 0.44,-0.16 0.16,-0.05 0.32,-0.08 0.48,-0.11 0.17,-0.03 0.33,-0.04 0.48,-0.04 0.59,0 1.04,0.17 1.34,0.5 0.3,0.33 0.45,0.82 0.45,1.48l0 3.44 -0.66 0zm-1.37 -2.57c-0.23,0.03 -0.44,0.08 -0.61,0.13 -0.17,0.05 -0.3,0.12 -0.42,0.21 -0.11,0.09 -0.19,0.19 -0.24,0.32 -0.05,0.13 -0.08,0.29 -0.08,0.48 0,0.14 0.03,0.27 0.08,0.39 0.05,0.12 0.12,0.23 0.22,0.32 0.09,0.08 0.21,0.15 0.34,0.2 0.14,0.05 0.29,0.07 0.47,0.07 0.23,0 0.45,-0.04 0.64,-0.13 0.2,-0.09 0.37,-0.21 0.51,-0.37 0.14,-0.16 0.25,-0.35 0.34,-0.57 0.08,-0.22 0.12,-0.46 0.12,-0.72l0 -0.52 -1.37 0.19z"/>
   <path id="14" class="fil1" d="M109.95 16.46l0 -3.05c0,-1.2 -0.43,-1.79 -1.3,-1.79 -0.23,0 -0.44,0.04 -0.64,0.13 -0.2,0.09 -0.37,0.22 -0.51,0.38 -0.14,0.16 -0.26,0.35 -0.34,0.58 -0.08,0.22 -0.12,0.46 -0.12,0.72l0 3.03 -0.66 0 0 -5.29 0.66 0 0 0.91 0.02 0c0.4,-0.69 0.99,-1.04 1.78,-1.04 0.57,0 1.02,0.19 1.32,0.56 0.3,0.38 0.45,0.92 0.45,1.63l0 3.23 -0.66 0z"/>
   <path id="15" class="fil1" d="M112.53 9.83c-0.13,0 -0.24,-0.05 -0.33,-0.14 -0.09,-0.09 -0.14,-0.2 -0.14,-0.34 0,-0.13 0.05,-0.24 0.14,-0.33 0.09,-0.09 0.2,-0.13 0.33,-0.13 0.07,0 0.13,0.01 0.19,0.03 0.06,0.02 0.11,0.05 0.15,0.1 0.04,0.04 0.08,0.09 0.1,0.14 0.03,0.06 0.04,0.12 0.04,0.19 0,0.07 -0.01,0.13 -0.03,0.19 -0.03,0.06 -0.06,0.11 -0.11,0.15 -0.04,0.04 -0.09,0.08 -0.15,0.1 -0.06,0.02 -0.12,0.04 -0.19,0.04zm-0.33 6.63l0 -5.29 0.67 0 0 5.29 -0.67 0z"/>
   <polygon id="16" class="fil1" points="114.2,17.69 113.57,17.69 117.15,9.05 117.8,9.05 "/>
   <path id="17" class="fil1" d="M119.37 13.57l0 2.89 -0.69 0 0 -7.41 1.91 0c0.39,0 0.74,0.04 1.04,0.14 0.3,0.1 0.55,0.24 0.76,0.42 0.2,0.18 0.36,0.41 0.47,0.67 0.1,0.27 0.16,0.57 0.16,0.91 0,0.35 -0.06,0.66 -0.18,0.95 -0.12,0.3 -0.3,0.55 -0.52,0.76 -0.23,0.21 -0.5,0.38 -0.83,0.5 -0.32,0.11 -0.69,0.17 -1.1,0.17l-1.02 0zm0 -3.89l0 3.26 0.98 0c0.64,0 1.12,-0.14 1.45,-0.44 0.33,-0.3 0.5,-0.72 0.5,-1.26 0,-1.04 -0.61,-1.56 -1.83,-1.56l-1.1 0z"/>
   <path id="18" class="fil1" d="M124.73 13.93c0,0.32 0.05,0.62 0.13,0.87 0.08,0.26 0.2,0.48 0.36,0.66 0.15,0.18 0.34,0.32 0.56,0.41 0.22,0.1 0.47,0.14 0.75,0.14 0.6,0 1.16,-0.21 1.69,-0.62l0 0.65c-0.5,0.36 -1.12,0.54 -1.84,0.54 -0.35,0 -0.67,-0.06 -0.96,-0.18 -0.29,-0.13 -0.54,-0.31 -0.74,-0.54 -0.21,-0.24 -0.36,-0.53 -0.47,-0.88 -0.11,-0.34 -0.17,-0.73 -0.17,-1.17 0,-0.4 0.06,-0.77 0.18,-1.1 0.12,-0.34 0.29,-0.63 0.5,-0.88 0.22,-0.25 0.47,-0.44 0.76,-0.58 0.3,-0.14 0.62,-0.21 0.97,-0.21 0.34,0 0.64,0.06 0.9,0.18 0.26,0.12 0.48,0.29 0.66,0.51 0.18,0.22 0.31,0.49 0.4,0.8 0.1,0.32 0.14,0.68 0.14,1.07l0 0.33 -3.82 0zm3.14 -0.58c-0.01,-0.55 -0.14,-0.98 -0.39,-1.28 -0.25,-0.3 -0.6,-0.45 -1.05,-0.45 -0.22,0 -0.43,0.03 -0.62,0.11 -0.19,0.08 -0.36,0.2 -0.51,0.35 -0.14,0.15 -0.26,0.33 -0.36,0.55 -0.09,0.21 -0.16,0.45 -0.2,0.72l3.13 0z"/>
   <path id="19" class="fil1" d="M133.42 16.46l0 -3.05c0,-1.2 -0.43,-1.79 -1.3,-1.79 -0.23,0 -0.44,0.04 -0.64,0.13 -0.2,0.09 -0.37,0.22 -0.51,0.38 -0.14,0.16 -0.26,0.35 -0.34,0.58 -0.08,0.22 -0.12,0.46 -0.12,0.72l0 3.03 -0.66 0 0 -5.29 0.66 0 0 0.91 0.02 0c0.4,-0.69 0.99,-1.04 1.78,-1.04 0.57,0 1.01,0.19 1.32,0.56 0.3,0.38 0.45,0.92 0.45,1.63l0 3.23 -0.66 0z"/>
   <path id="20" class="fil1" d="M137.21 17.42c-0.21,0.52 -0.44,0.9 -0.71,1.15 -0.27,0.25 -0.6,0.37 -0.98,0.37 -0.19,0 -0.35,-0.02 -0.48,-0.06l0 -0.62c0.08,0.02 0.15,0.04 0.23,0.06 0.08,0.01 0.16,0.02 0.23,0.02 0.22,0 0.41,-0.07 0.57,-0.21 0.16,-0.13 0.3,-0.34 0.42,-0.61l0.46 -1.09 -2.04 -5.26 0.73 0 1.52 4.19c0.02,0.05 0.04,0.11 0.06,0.19 0.02,0.07 0.03,0.13 0.05,0.21l0.03 0c0.01,-0.06 0.03,-0.12 0.05,-0.18 0.01,-0.06 0.03,-0.13 0.06,-0.2l1.61 -4.21 0.7 0 -2.51 6.25z"/>
   <path id="21" class="fil1" d="M140.95 13.93c0,0.32 0.04,0.62 0.13,0.87 0.08,0.26 0.2,0.48 0.35,0.66 0.16,0.18 0.35,0.32 0.57,0.41 0.22,0.1 0.47,0.14 0.75,0.14 0.6,0 1.16,-0.21 1.69,-0.62l0 0.65c-0.51,0.36 -1.12,0.54 -1.84,0.54 -0.36,0 -0.68,-0.06 -0.97,-0.18 -0.28,-0.13 -0.53,-0.31 -0.73,-0.54 -0.21,-0.24 -0.36,-0.53 -0.48,-0.88 -0.11,-0.34 -0.16,-0.73 -0.16,-1.17 0,-0.4 0.06,-0.77 0.18,-1.1 0.12,-0.34 0.29,-0.63 0.5,-0.88 0.21,-0.25 0.47,-0.44 0.76,-0.58 0.29,-0.14 0.62,-0.21 0.96,-0.21 0.34,0 0.64,0.06 0.91,0.18 0.26,0.12 0.48,0.29 0.66,0.51 0.17,0.22 0.31,0.49 0.4,0.8 0.09,0.32 0.14,0.68 0.14,1.07l0 0.33 -3.82 0zm3.14 -0.58c-0.01,-0.55 -0.14,-0.98 -0.39,-1.28 -0.26,-0.3 -0.61,-0.45 -1.05,-0.45 -0.23,0 -0.44,0.03 -0.63,0.11 -0.19,0.08 -0.36,0.2 -0.5,0.35 -0.14,0.15 -0.26,0.33 -0.36,0.55 -0.09,0.21 -0.16,0.45 -0.2,0.72l3.13 0z"/>
   <path id="22" class="fil1" d="M149.78 16.46l0 -0.93 -0.02 0c-0.18,0.33 -0.43,0.59 -0.75,0.78 -0.33,0.18 -0.7,0.27 -1.11,0.27 -0.33,0 -0.63,-0.06 -0.9,-0.18 -0.27,-0.12 -0.51,-0.3 -0.7,-0.53 -0.19,-0.23 -0.34,-0.51 -0.45,-0.84 -0.1,-0.33 -0.15,-0.7 -0.15,-1.11 0,-0.43 0.05,-0.82 0.17,-1.17 0.11,-0.35 0.28,-0.66 0.49,-0.91 0.21,-0.25 0.47,-0.45 0.77,-0.59 0.29,-0.14 0.62,-0.21 0.99,-0.21 0.76,0 1.31,0.31 1.64,0.92l0.02 0 0 -3.34 0.66 0 0 7.84 -0.66 0zm0 -3.2c0,-0.23 -0.04,-0.44 -0.12,-0.64 -0.08,-0.2 -0.19,-0.38 -0.33,-0.52 -0.14,-0.15 -0.31,-0.27 -0.51,-0.36 -0.2,-0.08 -0.42,-0.12 -0.65,-0.12 -0.27,0 -0.51,0.05 -0.73,0.15 -0.22,0.1 -0.41,0.25 -0.56,0.45 -0.16,0.19 -0.28,0.43 -0.37,0.71 -0.09,0.28 -0.13,0.59 -0.13,0.95 0,0.33 0.04,0.63 0.12,0.9 0.08,0.26 0.19,0.49 0.33,0.67 0.15,0.18 0.33,0.32 0.53,0.42 0.2,0.1 0.43,0.14 0.68,0.14 0.27,0 0.51,-0.04 0.72,-0.14 0.22,-0.1 0.4,-0.23 0.55,-0.4 0.15,-0.17 0.27,-0.37 0.35,-0.59 0.08,-0.23 0.12,-0.47 0.12,-0.73l0 -0.89z"/>
   <path id="23" class="fil1" d="M152.47 9.83c-0.13,0 -0.24,-0.05 -0.33,-0.14 -0.09,-0.09 -0.14,-0.2 -0.14,-0.34 0,-0.13 0.05,-0.24 0.14,-0.33 0.09,-0.09 0.2,-0.13 0.33,-0.13 0.07,0 0.13,0.01 0.19,0.03 0.06,0.02 0.1,0.05 0.15,0.1 0.04,0.04 0.08,0.09 0.1,0.14 0.03,0.06 0.04,0.12 0.04,0.19 0,0.07 -0.01,0.13 -0.04,0.19 -0.02,0.06 -0.05,0.11 -0.1,0.15 -0.04,0.04 -0.09,0.08 -0.15,0.1 -0.06,0.02 -0.12,0.04 -0.19,0.04zm-0.33 6.63l0 -5.29 0.67 0 0 5.29 -0.67 0z"/>
   <path id="24" class="fil1" d="M157.56 16.46l0 -0.94 -0.02 0c-0.17,0.33 -0.41,0.6 -0.71,0.78 -0.29,0.19 -0.63,0.28 -1,0.28 -0.26,0 -0.49,-0.03 -0.7,-0.11 -0.2,-0.07 -0.37,-0.17 -0.52,-0.31 -0.14,-0.13 -0.25,-0.29 -0.33,-0.47 -0.08,-0.19 -0.12,-0.39 -0.12,-0.62 0,-0.48 0.15,-0.86 0.45,-1.14 0.3,-0.29 0.74,-0.47 1.34,-0.56l1.61 -0.23c0,-1.02 -0.39,-1.52 -1.18,-1.52 -0.62,0 -1.19,0.22 -1.72,0.67l0 -0.72c0.11,-0.08 0.24,-0.15 0.38,-0.22 0.14,-0.06 0.28,-0.11 0.44,-0.16 0.15,-0.05 0.31,-0.08 0.48,-0.11 0.16,-0.03 0.32,-0.04 0.47,-0.04 0.59,0 1.04,0.17 1.34,0.5 0.3,0.33 0.45,0.82 0.45,1.48l0 3.44 -0.66 0zm-1.36 -2.57c-0.24,0.03 -0.44,0.08 -0.61,0.13 -0.17,0.05 -0.31,0.12 -0.42,0.21 -0.11,0.09 -0.19,0.19 -0.24,0.32 -0.06,0.13 -0.08,0.29 -0.08,0.48 0,0.14 0.02,0.27 0.07,0.39 0.05,0.12 0.13,0.23 0.22,0.32 0.09,0.08 0.21,0.15 0.35,0.2 0.13,0.05 0.29,0.07 0.46,0.07 0.23,0 0.45,-0.04 0.64,-0.13 0.2,-0.09 0.37,-0.21 0.51,-0.37 0.15,-0.16 0.26,-0.35 0.34,-0.57 0.08,-0.22 0.12,-0.46 0.12,-0.72l0 -0.52 -1.36 0.19z"/>
   <path id="25" class="fil1" d="M159.09 18.14c1.07,-1.29 1.6,-2.79 1.6,-4.51 0,-1.78 -0.54,-3.31 -1.61,-4.58l0.63 0c1.06,1.23 1.59,2.76 1.59,4.58 0,1.79 -0.52,3.29 -1.58,4.51l-0.63 0z"/>
  </g>
  <path class="fil2" d="M16.42 5.79c4.14,0 7.5,3.35 7.5,7.5 0,4.14 -3.36,7.5 -7.5,7.5 -4.14,0 -7.5,-3.36 -7.5,-7.5 0,-4.15 3.36,-7.5 7.5,-7.5zm-2.61 10.93l-1.12 0 0 -6.87 1.12 0 0 6.87zm3.77 -6.87c0.33,0 0.66,0.04 0.96,0.12 0.31,0.09 0.59,0.22 0.82,0.4 0.24,0.17 0.44,0.4 0.58,0.67 0.14,0.27 0.21,0.6 0.21,0.97l0 2.59c0,0.37 -0.07,0.69 -0.21,0.96 -0.14,0.27 -0.34,0.49 -0.58,0.66 -0.23,0.18 -0.51,0.3 -0.82,0.38 -0.3,0.08 -0.63,0.12 -0.96,0.12l-2.47 0 0 -6.87 2.47 0zm0 5.75c0.19,0 0.38,-0.02 0.55,-0.06 0.18,-0.03 0.33,-0.09 0.46,-0.17 0.14,-0.08 0.24,-0.19 0.32,-0.31 0.08,-0.13 0.11,-0.28 0.11,-0.46l0 -2.59c0,-0.18 -0.03,-0.34 -0.11,-0.47 -0.08,-0.13 -0.18,-0.24 -0.32,-0.32 -0.13,-0.09 -0.28,-0.15 -0.46,-0.19 -0.17,-0.04 -0.36,-0.06 -0.55,-0.06l-1.35 0 0 4.63 1.35 0z"/>
 </g>
</svg>
