<?xml version="1.0" encoding="UTF-8"?>
<!DOCTYPE svg PUBLIC "-//W3C//DTD SVG 1.1//EN" "http://www.w3.org/Graphics/SVG/1.1/DTD/svg11.dtd">
<!-- Creator: CorelDRAW 2018 (64-Bit) -->
<svg xmlns="http://www.w3.org/2000/svg" xml:space="preserve" width="542px" height="63px" version="1.1" style="shape-rendering:geometricPrecision; text-rendering:geometricPrecision; image-rendering:optimizeQuality; fill-rule:evenodd; clip-rule:evenodd"
viewBox="0 0 229.25 26.47"
 xmlns:xlink="http://www.w3.org/1999/xlink">
 <defs>
  <style type="text/css">
   <![CDATA[
    .fil2 {fill:#088378}
    .fil1 {fill:#B6B6B7;fill-rule:nonzero}
    .fil0 {fill:#088378;fill-rule:nonzero}
   ]]>
  </style>
 </defs>
 <g id="Layer_x0020_1">
  <metadata id="CorelCorpID_0Corel-Layer"/>
  <g id="_2298839321840">
   <path class="fil0" d="M5.84 0l217.58 0c1.6,0 3.06,0.66 4.12,1.71 1.05,1.06 1.71,2.52 1.71,4.13l0 14.79c0,1.6 -0.66,3.06 -1.71,4.12 -1.06,1.06 -2.52,1.72 -4.12,1.72l-217.58 0c-1.61,0 -3.07,-0.66 -4.12,-1.72 -1.06,-1.05 -1.72,-2.51 -1.72,-4.12l0 -14.79c0,-1.61 0.66,-3.07 1.71,-4.13 1.06,-1.05 2.52,-1.71 4.13,-1.71zm217.58 1l-217.58 0c-1.33,0 -2.54,0.54 -3.42,1.42 -0.88,0.88 -1.42,2.09 -1.42,3.42l0 14.79c0,1.33 0.54,2.54 1.42,3.42 0.88,0.87 2.09,1.42 3.42,1.42l217.58 0c1.32,0 2.53,-0.55 3.41,-1.42 0.88,-0.88 1.42,-2.09 1.42,-3.42l0 -14.79c0,-1.33 -0.54,-2.54 -1.42,-3.42 -0.88,-0.88 -2.09,-1.42 -3.41,-1.42z"/>
   <polygon class="fil1" points="35.25,9.68 35.25,12.47 37.96,12.47 37.96,13.09 35.25,13.09 35.25,16.46 34.57,16.46 34.57,9.05 38.18,9.05 38.18,9.68 "/>
   <path id="1" class="fil1" d="M41.67 16.58c-0.4,0 -0.75,-0.06 -1.06,-0.2 -0.31,-0.13 -0.58,-0.31 -0.8,-0.55 -0.22,-0.24 -0.39,-0.53 -0.51,-0.86 -0.11,-0.33 -0.17,-0.71 -0.17,-1.11 0,-0.44 0.06,-0.84 0.19,-1.19 0.12,-0.34 0.29,-0.64 0.52,-0.88 0.23,-0.25 0.51,-0.43 0.83,-0.56 0.33,-0.12 0.69,-0.19 1.09,-0.19 0.38,0 0.73,0.06 1.03,0.19 0.31,0.13 0.57,0.31 0.78,0.55 0.22,0.23 0.38,0.52 0.49,0.86 0.12,0.34 0.17,0.73 0.17,1.17 0,0.41 -0.06,0.79 -0.17,1.12 -0.12,0.35 -0.29,0.64 -0.51,0.88 -0.22,0.25 -0.49,0.44 -0.81,0.57 -0.32,0.13 -0.67,0.2 -1.07,0.2zm0.05 -4.96c-0.29,0 -0.55,0.04 -0.79,0.15 -0.23,0.09 -0.43,0.24 -0.6,0.43 -0.17,0.19 -0.3,0.43 -0.39,0.7 -0.08,0.28 -0.13,0.6 -0.13,0.95 0,0.33 0.05,0.63 0.13,0.89 0.09,0.27 0.22,0.49 0.39,0.68 0.16,0.19 0.36,0.34 0.59,0.44 0.24,0.1 0.5,0.15 0.79,0.15 0.29,0 0.56,-0.05 0.78,-0.14 0.23,-0.1 0.42,-0.25 0.58,-0.43 0.16,-0.19 0.28,-0.42 0.36,-0.69 0.08,-0.28 0.12,-0.59 0.12,-0.93 0,-0.72 -0.16,-1.26 -0.47,-1.64 -0.32,-0.38 -0.77,-0.56 -1.36,-0.56z"/>
   <path id="2" class="fil1" d="M47.84 16.4c-0.23,0.11 -0.47,0.16 -0.74,0.17 -0.86,-0.01 -1.29,-0.5 -1.29,-1.48l0 -3.35 -0.92 0 0 -0.57 0.92 0 0 -1.34 0.67 -0.21 0 1.55 1.36 0 0 0.57 -1.36 0 0 3.24c0,0.36 0.05,0.62 0.17,0.78 0.12,0.16 0.32,0.24 0.6,0.24 0.2,0 0.4,-0.06 0.59,-0.19l0 0.59z"/>
   <path id="3" class="fil1" d="M51.1 16.58c-0.4,0 -0.75,-0.06 -1.06,-0.2 -0.31,-0.13 -0.58,-0.31 -0.8,-0.55 -0.22,-0.24 -0.39,-0.53 -0.51,-0.86 -0.11,-0.33 -0.17,-0.71 -0.17,-1.11 0,-0.44 0.06,-0.84 0.19,-1.19 0.12,-0.34 0.29,-0.64 0.52,-0.88 0.23,-0.25 0.51,-0.43 0.83,-0.56 0.33,-0.12 0.69,-0.19 1.09,-0.19 0.38,0 0.73,0.06 1.03,0.19 0.31,0.13 0.57,0.31 0.78,0.55 0.22,0.23 0.38,0.52 0.49,0.86 0.12,0.34 0.17,0.73 0.17,1.17 0,0.41 -0.06,0.79 -0.17,1.12 -0.12,0.35 -0.29,0.64 -0.51,0.88 -0.22,0.25 -0.49,0.44 -0.81,0.57 -0.32,0.13 -0.67,0.2 -1.07,0.2zm0.05 -4.96c-0.29,0 -0.55,0.04 -0.79,0.15 -0.23,0.09 -0.43,0.24 -0.6,0.43 -0.17,0.19 -0.3,0.43 -0.39,0.7 -0.08,0.28 -0.13,0.6 -0.13,0.95 0,0.33 0.05,0.63 0.13,0.89 0.09,0.27 0.22,0.49 0.39,0.68 0.16,0.19 0.36,0.34 0.59,0.44 0.24,0.1 0.5,0.15 0.79,0.15 0.29,0 0.56,-0.05 0.78,-0.14 0.23,-0.1 0.42,-0.25 0.58,-0.43 0.16,-0.19 0.28,-0.42 0.36,-0.69 0.08,-0.28 0.12,-0.59 0.12,-0.93 0,-0.72 -0.16,-1.26 -0.47,-1.64 -0.32,-0.38 -0.77,-0.56 -1.36,-0.56z"/>
   <path id="4" class="fil1" d="M58.56 15.61l0 0.85 -0.66 0 0 -7.84 0.66 0 0 3.56 0.02 0c0.19,-0.37 0.46,-0.65 0.79,-0.85 0.33,-0.19 0.7,-0.29 1.11,-0.29 0.34,0 0.64,0.06 0.91,0.19 0.27,0.12 0.49,0.29 0.67,0.52 0.19,0.23 0.33,0.5 0.43,0.82 0.1,0.32 0.15,0.68 0.15,1.07 0,0.44 -0.06,0.84 -0.17,1.2 -0.11,0.36 -0.27,0.67 -0.48,0.92 -0.21,0.26 -0.46,0.46 -0.75,0.61 -0.3,0.14 -0.63,0.21 -0.99,0.21 -0.75,0 -1.31,-0.32 -1.67,-0.97l-0.02 0zm0 -1.35c0,0.24 0.04,0.46 0.12,0.67 0.08,0.22 0.19,0.4 0.34,0.56 0.14,0.16 0.32,0.29 0.52,0.38 0.21,0.1 0.43,0.14 0.68,0.14 0.27,0 0.51,-0.05 0.72,-0.16 0.21,-0.12 0.4,-0.28 0.55,-0.48 0.15,-0.21 0.26,-0.46 0.34,-0.75 0.08,-0.3 0.12,-0.62 0.12,-0.99 0,-0.3 -0.03,-0.58 -0.11,-0.83 -0.08,-0.25 -0.18,-0.47 -0.32,-0.64 -0.14,-0.18 -0.31,-0.31 -0.51,-0.41 -0.2,-0.09 -0.42,-0.13 -0.66,-0.13 -0.28,0 -0.53,0.05 -0.75,0.15 -0.22,0.1 -0.41,0.24 -0.56,0.41 -0.16,0.18 -0.27,0.38 -0.36,0.62 -0.08,0.24 -0.12,0.49 -0.12,0.75l0 0.71z"/>
   <path id="5" class="fil1" d="M64.28 13.93c0.01,0.32 0.05,0.62 0.13,0.87 0.09,0.26 0.21,0.48 0.36,0.66 0.15,0.18 0.34,0.32 0.56,0.41 0.23,0.1 0.48,0.14 0.76,0.14 0.59,0 1.16,-0.21 1.69,-0.62l0 0.65c-0.51,0.36 -1.12,0.54 -1.84,0.54 -0.36,0 -0.68,-0.06 -0.97,-0.18 -0.29,-0.13 -0.53,-0.31 -0.74,-0.54 -0.2,-0.24 -0.36,-0.53 -0.47,-0.88 -0.11,-0.34 -0.16,-0.73 -0.16,-1.17 0,-0.4 0.06,-0.77 0.18,-1.1 0.12,-0.34 0.28,-0.63 0.5,-0.88 0.21,-0.25 0.47,-0.44 0.76,-0.58 0.29,-0.14 0.61,-0.21 0.96,-0.21 0.34,0 0.64,0.06 0.9,0.18 0.27,0.12 0.48,0.29 0.66,0.51 0.18,0.22 0.31,0.49 0.41,0.8 0.09,0.32 0.14,0.68 0.14,1.07l0 0.33 -3.83 0zm3.14 -0.58c0,-0.55 -0.14,-0.98 -0.39,-1.28 -0.25,-0.3 -0.6,-0.45 -1.05,-0.45 -0.22,0 -0.43,0.03 -0.62,0.11 -0.19,0.08 -0.36,0.2 -0.5,0.35 -0.15,0.15 -0.27,0.33 -0.36,0.55 -0.1,0.21 -0.16,0.45 -0.2,0.72l3.12 0z"/>
   <path id="6" class="fil1" d="M72.03 11.84c-0.15,-0.11 -0.35,-0.17 -0.6,-0.17 -0.18,0 -0.33,0.04 -0.46,0.1 -0.14,0.07 -0.26,0.16 -0.36,0.27 -0.1,0.12 -0.19,0.25 -0.26,0.4 -0.07,0.15 -0.12,0.3 -0.17,0.47 -0.04,0.16 -0.07,0.32 -0.09,0.49 -0.02,0.16 -0.03,0.32 -0.03,0.47l0 2.59 -0.66 0 0 -5.29 0.66 0 0 1.13 0.02 0c0.06,-0.2 0.14,-0.37 0.24,-0.52 0.09,-0.16 0.2,-0.28 0.33,-0.39 0.12,-0.1 0.25,-0.19 0.4,-0.24 0.15,-0.06 0.3,-0.08 0.46,-0.08 0.11,0 0.2,0 0.29,0.02 0.08,0.01 0.16,0.03 0.23,0.06l0 0.69z"/>
   <path id="7" class="fil1" d="M72.69 15.51c0.1,0.08 0.21,0.15 0.33,0.21 0.11,0.06 0.23,0.11 0.36,0.16 0.12,0.04 0.25,0.08 0.37,0.1 0.13,0.02 0.25,0.03 0.36,0.03 0.79,0 1.18,-0.29 1.18,-0.88 0,-0.14 -0.03,-0.25 -0.08,-0.35 -0.06,-0.1 -0.14,-0.19 -0.24,-0.27 -0.1,-0.08 -0.23,-0.15 -0.37,-0.22 -0.15,-0.07 -0.31,-0.15 -0.49,-0.22 -0.25,-0.1 -0.46,-0.2 -0.63,-0.3 -0.18,-0.11 -0.32,-0.22 -0.44,-0.34 -0.11,-0.13 -0.2,-0.26 -0.25,-0.41 -0.06,-0.14 -0.08,-0.31 -0.08,-0.49 0,-0.24 0.05,-0.45 0.15,-0.63 0.1,-0.18 0.24,-0.34 0.41,-0.47 0.17,-0.12 0.37,-0.22 0.6,-0.29 0.22,-0.06 0.46,-0.1 0.71,-0.1 0.46,0 0.86,0.09 1.2,0.26l0 0.7c-0.4,-0.26 -0.83,-0.38 -1.29,-0.38 -0.16,0 -0.31,0.02 -0.45,0.06 -0.13,0.04 -0.25,0.1 -0.35,0.17 -0.09,0.08 -0.17,0.17 -0.22,0.27 -0.05,0.11 -0.08,0.23 -0.08,0.35 0,0.13 0.02,0.25 0.06,0.35 0.04,0.1 0.11,0.18 0.19,0.26 0.09,0.08 0.21,0.16 0.35,0.23 0.14,0.07 0.31,0.15 0.5,0.23 0.26,0.11 0.48,0.21 0.67,0.31 0.18,0.1 0.33,0.21 0.46,0.33 0.12,0.12 0.21,0.25 0.26,0.4 0.06,0.15 0.09,0.31 0.09,0.51 0,0.23 -0.05,0.45 -0.15,0.63 -0.09,0.19 -0.23,0.35 -0.4,0.47 -0.18,0.13 -0.38,0.23 -0.61,0.29 -0.24,0.07 -0.5,0.1 -0.77,0.1 -0.53,0 -0.98,-0.11 -1.35,-0.33l0 -0.74z"/>
   <path id="8" class="fil1" d="M80.34 16.46l0 -0.94 -0.02 0c-0.17,0.33 -0.41,0.6 -0.71,0.78 -0.29,0.19 -0.63,0.28 -1,0.28 -0.26,0 -0.49,-0.03 -0.7,-0.11 -0.2,-0.07 -0.37,-0.17 -0.52,-0.31 -0.14,-0.13 -0.25,-0.29 -0.33,-0.47 -0.08,-0.19 -0.12,-0.39 -0.12,-0.62 0,-0.48 0.15,-0.86 0.45,-1.14 0.3,-0.29 0.74,-0.47 1.34,-0.56l1.61 -0.23c0,-1.02 -0.39,-1.52 -1.18,-1.52 -0.62,0 -1.19,0.22 -1.72,0.67l0 -0.72c0.11,-0.08 0.24,-0.15 0.38,-0.22 0.14,-0.06 0.28,-0.11 0.44,-0.16 0.15,-0.05 0.31,-0.08 0.48,-0.11 0.16,-0.03 0.32,-0.04 0.47,-0.04 0.59,0 1.04,0.17 1.34,0.5 0.3,0.33 0.45,0.82 0.45,1.48l0 3.44 -0.66 0zm-1.36 -2.57c-0.24,0.03 -0.44,0.08 -0.61,0.13 -0.17,0.05 -0.31,0.12 -0.42,0.21 -0.11,0.09 -0.19,0.19 -0.24,0.32 -0.06,0.13 -0.08,0.29 -0.08,0.48 0,0.14 0.02,0.27 0.07,0.39 0.05,0.12 0.13,0.23 0.22,0.32 0.09,0.08 0.21,0.15 0.35,0.2 0.13,0.05 0.29,0.07 0.46,0.07 0.23,0 0.45,-0.04 0.64,-0.13 0.2,-0.09 0.37,-0.21 0.51,-0.37 0.15,-0.16 0.26,-0.35 0.34,-0.57 0.08,-0.22 0.12,-0.46 0.12,-0.72l0 -0.52 -1.36 0.19z"/>
   <path id="9" class="fil1" d="M89.25 16.46l0 -3.11c0,-0.32 -0.03,-0.59 -0.08,-0.81 -0.04,-0.22 -0.12,-0.39 -0.22,-0.53 -0.1,-0.14 -0.23,-0.24 -0.39,-0.3 -0.16,-0.06 -0.34,-0.09 -0.56,-0.09 -0.19,0 -0.38,0.04 -0.55,0.13 -0.17,0.09 -0.32,0.22 -0.45,0.38 -0.13,0.16 -0.23,0.35 -0.31,0.56 -0.07,0.22 -0.11,0.46 -0.11,0.71l0 3.06 -0.66 0 0 -3.18c0,-1.11 -0.42,-1.66 -1.27,-1.66 -0.2,0 -0.38,0.04 -0.55,0.13 -0.17,0.08 -0.32,0.21 -0.44,0.37 -0.13,0.16 -0.23,0.35 -0.3,0.57 -0.07,0.22 -0.1,0.47 -0.1,0.73l0 3.04 -0.67 0 0 -5.29 0.67 0 0 0.85 0.02 0c0.37,-0.65 0.91,-0.98 1.62,-0.98 0.19,0 0.37,0.03 0.53,0.09 0.17,0.05 0.32,0.13 0.45,0.23 0.13,0.11 0.24,0.23 0.34,0.37 0.09,0.14 0.16,0.29 0.21,0.46 0.19,-0.37 0.43,-0.66 0.73,-0.85 0.29,-0.2 0.63,-0.3 1.01,-0.3 1.16,0 1.74,0.72 1.74,2.15l0 3.27 -0.66 0z"/>
   <path id="10" class="fil1" d="M94.55 16.46l0 -0.94 -0.02 0c-0.17,0.33 -0.41,0.6 -0.71,0.78 -0.3,0.19 -0.63,0.28 -1.01,0.28 -0.25,0 -0.48,-0.03 -0.69,-0.11 -0.2,-0.07 -0.38,-0.17 -0.52,-0.31 -0.14,-0.13 -0.25,-0.29 -0.33,-0.47 -0.08,-0.19 -0.12,-0.39 -0.12,-0.62 0,-0.48 0.15,-0.86 0.45,-1.14 0.29,-0.29 0.74,-0.47 1.34,-0.56l1.61 -0.23c0,-1.02 -0.4,-1.52 -1.19,-1.52 -0.61,0 -1.18,0.22 -1.71,0.67l0 -0.72c0.11,-0.08 0.23,-0.15 0.37,-0.22 0.14,-0.06 0.29,-0.11 0.44,-0.16 0.16,-0.05 0.32,-0.08 0.48,-0.11 0.17,-0.03 0.33,-0.04 0.48,-0.04 0.59,0 1.04,0.17 1.34,0.5 0.3,0.33 0.45,0.82 0.45,1.48l0 3.44 -0.66 0zm-1.37 -2.57c-0.23,0.03 -0.44,0.08 -0.61,0.13 -0.17,0.05 -0.3,0.12 -0.42,0.21 -0.1,0.09 -0.19,0.19 -0.24,0.32 -0.05,0.13 -0.07,0.29 -0.07,0.48 0,0.14 0.02,0.27 0.07,0.39 0.05,0.12 0.12,0.23 0.22,0.32 0.09,0.08 0.21,0.15 0.34,0.2 0.14,0.05 0.29,0.07 0.47,0.07 0.23,0 0.45,-0.04 0.64,-0.13 0.2,-0.09 0.37,-0.21 0.51,-0.37 0.14,-0.16 0.26,-0.35 0.34,-0.57 0.08,-0.22 0.12,-0.46 0.12,-0.72l0 -0.52 -1.37 0.19z"/>
   <path id="11" class="fil1" d="M103.69 16.46l-3.01 -3.47c-0.08,-0.1 -0.14,-0.17 -0.16,-0.21l-0.02 0 0 3.68 -0.69 0 0 -7.41 0.69 0 0 3.48 0.02 0c0.02,-0.03 0.05,-0.07 0.08,-0.1 0.02,-0.04 0.05,-0.07 0.08,-0.11l2.89 -3.27 0.87 0 -3.21 3.57 3.42 3.84 -0.96 0z"/>
   <polygon id="12" class="fil1" points="107.78,9.68 107.78,16.46 107.1,16.46 107.1,9.68 104.96,9.68 104.96,9.05 109.92,9.05 109.92,9.68 "/>
   <path id="13" class="fil1" d="M111.83 13.57l0 2.89 -0.69 0 0 -7.41 1.91 0c0.39,0 0.74,0.04 1.04,0.14 0.3,0.1 0.55,0.24 0.76,0.42 0.2,0.18 0.36,0.41 0.47,0.67 0.1,0.27 0.16,0.57 0.16,0.91 0,0.35 -0.06,0.66 -0.18,0.95 -0.12,0.3 -0.3,0.55 -0.52,0.76 -0.23,0.21 -0.5,0.38 -0.83,0.5 -0.32,0.11 -0.69,0.17 -1.1,0.17l-1.02 0zm0 -3.89l0 3.26 0.98 0c0.64,0 1.12,-0.14 1.45,-0.44 0.33,-0.3 0.5,-0.72 0.5,-1.26 0,-1.04 -0.61,-1.56 -1.83,-1.56l-1.1 0z"/>
   <polygon id="14" class="fil1" points="119.4,17.69 118.77,17.69 122.35,9.05 123,9.05 "/>
   <polygon id="15" class="fil1" points="129.79,16.46 127.36,13.88 127.34,13.88 127.34,16.46 126.67,16.46 126.67,8.62 127.34,8.62 127.34,13.63 127.36,13.63 129.67,11.17 130.53,11.17 128.05,13.72 130.73,16.46 "/>
   <path id="16" class="fil1" d="M134.7 16.46l0 -0.94 -0.02 0c-0.17,0.33 -0.41,0.6 -0.71,0.78 -0.3,0.19 -0.63,0.28 -1.01,0.28 -0.25,0 -0.48,-0.03 -0.69,-0.11 -0.2,-0.07 -0.38,-0.17 -0.52,-0.31 -0.14,-0.13 -0.25,-0.29 -0.33,-0.47 -0.08,-0.19 -0.12,-0.39 -0.12,-0.62 0,-0.48 0.15,-0.86 0.45,-1.14 0.29,-0.29 0.74,-0.47 1.34,-0.56l1.61 -0.23c0,-1.02 -0.4,-1.52 -1.18,-1.52 -0.62,0 -1.19,0.22 -1.72,0.67l0 -0.72c0.11,-0.08 0.24,-0.15 0.38,-0.22 0.13,-0.06 0.28,-0.11 0.44,-0.16 0.15,-0.05 0.31,-0.08 0.47,-0.11 0.17,-0.03 0.33,-0.04 0.48,-0.04 0.59,0 1.04,0.17 1.34,0.5 0.3,0.33 0.45,0.82 0.45,1.48l0 3.44 -0.66 0zm-1.36 -2.57c-0.24,0.03 -0.44,0.08 -0.61,0.13 -0.17,0.05 -0.31,0.12 -0.42,0.21 -0.11,0.09 -0.19,0.19 -0.25,0.32 -0.05,0.13 -0.07,0.29 -0.07,0.48 0,0.14 0.02,0.27 0.07,0.39 0.05,0.12 0.12,0.23 0.22,0.32 0.09,0.08 0.21,0.15 0.35,0.2 0.13,0.05 0.28,0.07 0.46,0.07 0.23,0 0.45,-0.04 0.64,-0.13 0.2,-0.09 0.37,-0.21 0.51,-0.37 0.15,-0.16 0.26,-0.35 0.34,-0.57 0.08,-0.22 0.12,-0.46 0.12,-0.72l0 -0.52 -1.36 0.19z"/>
   <path id="17" class="fil1" d="M139.58 11.84c-0.16,-0.11 -0.36,-0.17 -0.6,-0.17 -0.18,0 -0.33,0.04 -0.47,0.1 -0.13,0.07 -0.25,0.16 -0.35,0.27 -0.1,0.12 -0.19,0.25 -0.26,0.4 -0.07,0.15 -0.13,0.3 -0.17,0.47 -0.04,0.16 -0.07,0.32 -0.09,0.49 -0.02,0.16 -0.03,0.32 -0.03,0.47l0 2.59 -0.66 0 0 -5.29 0.66 0 0 1.13 0.02 0c0.06,-0.2 0.14,-0.37 0.24,-0.52 0.09,-0.16 0.2,-0.28 0.32,-0.39 0.13,-0.1 0.26,-0.19 0.41,-0.24 0.15,-0.06 0.3,-0.08 0.46,-0.08 0.11,0 0.2,0 0.29,0.02 0.08,0.01 0.16,0.03 0.23,0.06l0 0.69z"/>
   <path id="18" class="fil1" d="M142.81 16.4c-0.22,0.11 -0.47,0.16 -0.74,0.17 -0.86,-0.01 -1.28,-0.5 -1.28,-1.48l0 -3.35 -0.93 0 0 -0.57 0.93 0 0 -1.34 0.66 -0.21 0 1.55 1.36 0 0 0.57 -1.36 0 0 3.24c0,0.36 0.06,0.62 0.17,0.78 0.12,0.16 0.32,0.24 0.6,0.24 0.21,0 0.4,-0.06 0.59,-0.19l0 0.59z"/>
   <path id="19" class="fil1" d="M147.36 16.46l0 -0.9 -0.01 0c-0.36,0.68 -0.92,1.02 -1.68,1.02 -1.25,0 -1.88,-0.77 -1.88,-2.3l0 -3.11 0.66 0 0 2.98c0,0.64 0.11,1.1 0.34,1.41 0.23,0.3 0.57,0.45 1.03,0.45 0.23,0 0.44,-0.04 0.63,-0.13 0.19,-0.09 0.35,-0.21 0.48,-0.37 0.14,-0.16 0.25,-0.35 0.32,-0.58 0.08,-0.22 0.11,-0.47 0.11,-0.74l0 -3.02 0.67 0 0 5.29 -0.67 0z"/>
   <polygon id="20" class="fil1" points="153.43,9.05 153.43,16.46 152.74,16.46 152.74,9.05 "/>
   <path id="21" class="fil1" d="M155.35 16.46l0 -7.41 1.95 0c1.27,0 2.22,0.3 2.87,0.91 0.65,0.61 0.97,1.51 0.97,2.69 0,0.58 -0.09,1.1 -0.27,1.56 -0.18,0.47 -0.44,0.87 -0.78,1.21 -0.34,0.33 -0.75,0.59 -1.24,0.77 -0.49,0.18 -1.04,0.27 -1.64,0.27l-1.86 0zm0.69 -6.78l0 6.15 1.13 0c0.51,0 0.97,-0.07 1.37,-0.21 0.4,-0.13 0.74,-0.34 1.02,-0.6 0.28,-0.27 0.49,-0.6 0.64,-0.99 0.15,-0.4 0.22,-0.84 0.22,-1.36 0,-1.99 -1.06,-2.99 -3.17,-2.99l-1.21 0z"/>
   <path id="22" class="fil1" d="M166.9 18.14c-1.06,-1.22 -1.59,-2.72 -1.59,-4.51 0,-1.82 0.54,-3.35 1.6,-4.58l0.63 0c-1.08,1.27 -1.61,2.8 -1.61,4.58 0,1.72 0.53,3.22 1.6,4.51l-0.63 0z"/>
   <path id="23" class="fil1" d="M168.21 15.51c0.1,0.08 0.21,0.15 0.32,0.21 0.12,0.06 0.24,0.11 0.37,0.16 0.12,0.04 0.24,0.08 0.37,0.1 0.13,0.02 0.25,0.03 0.36,0.03 0.79,0 1.18,-0.29 1.18,-0.88 0,-0.14 -0.03,-0.25 -0.09,-0.35 -0.05,-0.1 -0.13,-0.19 -0.23,-0.27 -0.11,-0.08 -0.23,-0.15 -0.37,-0.22 -0.15,-0.07 -0.31,-0.15 -0.5,-0.22 -0.24,-0.1 -0.45,-0.2 -0.63,-0.3 -0.17,-0.11 -0.32,-0.22 -0.43,-0.34 -0.11,-0.13 -0.2,-0.26 -0.25,-0.41 -0.06,-0.14 -0.09,-0.31 -0.09,-0.49 0,-0.24 0.05,-0.45 0.16,-0.63 0.1,-0.18 0.24,-0.34 0.41,-0.47 0.17,-0.12 0.37,-0.22 0.59,-0.29 0.23,-0.06 0.47,-0.1 0.72,-0.1 0.45,0 0.85,0.09 1.19,0.26l0 0.7c-0.39,-0.26 -0.82,-0.38 -1.28,-0.38 -0.16,0 -0.31,0.02 -0.45,0.06 -0.14,0.04 -0.25,0.1 -0.35,0.17 -0.1,0.08 -0.17,0.17 -0.22,0.27 -0.06,0.11 -0.08,0.23 -0.08,0.35 0,0.13 0.02,0.25 0.06,0.35 0.04,0.1 0.1,0.18 0.19,0.26 0.09,0.08 0.2,0.16 0.34,0.23 0.14,0.07 0.31,0.15 0.51,0.23 0.26,0.11 0.48,0.21 0.66,0.31 0.19,0.1 0.34,0.21 0.46,0.33 0.12,0.12 0.21,0.25 0.27,0.4 0.06,0.15 0.09,0.31 0.09,0.51 0,0.23 -0.05,0.45 -0.15,0.63 -0.09,0.19 -0.23,0.35 -0.41,0.47 -0.17,0.13 -0.37,0.23 -0.61,0.29 -0.23,0.07 -0.49,0.1 -0.76,0.1 -0.54,0 -0.99,-0.11 -1.35,-0.33l0 -0.74z"/>
   <path id="24" class="fil1" d="M173.12 13.93c0.01,0.32 0.05,0.62 0.13,0.87 0.09,0.26 0.21,0.48 0.36,0.66 0.15,0.18 0.34,0.32 0.57,0.41 0.22,0.1 0.47,0.14 0.75,0.14 0.59,0 1.16,-0.21 1.69,-0.62l0 0.65c-0.51,0.36 -1.12,0.54 -1.84,0.54 -0.36,0 -0.68,-0.06 -0.97,-0.18 -0.29,-0.13 -0.53,-0.31 -0.74,-0.54 -0.2,-0.24 -0.36,-0.53 -0.47,-0.88 -0.11,-0.34 -0.16,-0.73 -0.16,-1.17 0,-0.4 0.06,-0.77 0.18,-1.1 0.12,-0.34 0.29,-0.63 0.5,-0.88 0.21,-0.25 0.47,-0.44 0.76,-0.58 0.29,-0.14 0.61,-0.21 0.96,-0.21 0.34,0 0.64,0.06 0.9,0.18 0.27,0.12 0.48,0.29 0.66,0.51 0.18,0.22 0.32,0.49 0.41,0.8 0.09,0.32 0.14,0.68 0.14,1.07l0 0.33 -3.83 0zm3.15 -0.58c-0.01,-0.55 -0.15,-0.98 -0.4,-1.28 -0.25,-0.3 -0.6,-0.45 -1.05,-0.45 -0.22,0 -0.43,0.03 -0.62,0.11 -0.19,0.08 -0.36,0.2 -0.5,0.35 -0.15,0.15 -0.27,0.33 -0.36,0.55 -0.1,0.21 -0.16,0.45 -0.2,0.72l3.13 0z"/>
   <polygon id="25" class="fil1" points="178.24,16.46 178.24,8.62 178.91,8.62 178.91,16.46 "/>
   <path id="26" class="fil1" d="M183.08 9.25c-0.15,-0.1 -0.34,-0.15 -0.58,-0.15 -0.62,0 -0.93,0.41 -0.93,1.22l0 0.85 1.32 0 0 0.57 -1.32 0 0 4.72 -0.66 0 0 -4.72 -0.92 0 0 -0.57 0.92 0 0 -0.89c0,-0.27 0.04,-0.51 0.1,-0.72 0.07,-0.22 0.17,-0.4 0.3,-0.56 0.13,-0.15 0.29,-0.27 0.49,-0.35 0.2,-0.08 0.43,-0.13 0.69,-0.13 0.25,0 0.44,0.04 0.59,0.1l0 0.63z"/>
   <path id="27" class="fil1" d="M184.06 9.83c-0.13,0 -0.24,-0.05 -0.34,-0.14 -0.09,-0.09 -0.14,-0.2 -0.14,-0.34 0,-0.13 0.05,-0.24 0.14,-0.33 0.1,-0.09 0.21,-0.13 0.34,-0.13 0.06,0 0.12,0.01 0.18,0.03 0.06,0.02 0.11,0.05 0.15,0.1 0.05,0.04 0.08,0.09 0.11,0.14 0.02,0.06 0.03,0.12 0.03,0.19 0,0.07 -0.01,0.13 -0.03,0.19 -0.03,0.06 -0.06,0.11 -0.1,0.15 -0.05,0.04 -0.1,0.08 -0.16,0.1 -0.05,0.02 -0.12,0.04 -0.18,0.04zm-0.33 6.63l0 -5.29 0.66 0 0 5.29 -0.66 0z"/>
   <path id="28" class="fil1" d="M186.41 13.93c0,0.32 0.05,0.62 0.13,0.87 0.08,0.26 0.2,0.48 0.36,0.66 0.15,0.18 0.34,0.32 0.56,0.41 0.23,0.1 0.48,0.14 0.76,0.14 0.59,0 1.15,-0.21 1.69,-0.62l0 0.65c-0.51,0.36 -1.12,0.54 -1.84,0.54 -0.36,0 -0.68,-0.06 -0.97,-0.18 -0.29,-0.13 -0.54,-0.31 -0.74,-0.54 -0.2,-0.24 -0.36,-0.53 -0.47,-0.88 -0.11,-0.34 -0.17,-0.73 -0.17,-1.17 0,-0.4 0.07,-0.77 0.19,-1.1 0.12,-0.34 0.28,-0.63 0.5,-0.88 0.21,-0.25 0.46,-0.44 0.76,-0.58 0.29,-0.14 0.61,-0.21 0.96,-0.21 0.34,0 0.64,0.06 0.9,0.18 0.26,0.12 0.48,0.29 0.66,0.51 0.18,0.22 0.31,0.49 0.41,0.8 0.09,0.32 0.14,0.68 0.14,1.07l0 0.33 -3.83 0zm3.14 -0.58c-0.01,-0.55 -0.14,-0.98 -0.39,-1.28 -0.25,-0.3 -0.6,-0.45 -1.05,-0.45 -0.22,0 -0.43,0.03 -0.62,0.11 -0.19,0.08 -0.36,0.2 -0.51,0.35 -0.14,0.15 -0.26,0.33 -0.35,0.55 -0.1,0.21 -0.17,0.45 -0.2,0.72l3.12 0z"/>
   <path id="29" class="fil1" d="M190.81 18.14c1.07,-1.29 1.6,-2.79 1.6,-4.51 0,-1.78 -0.54,-3.31 -1.62,-4.58l0.64 0c1.06,1.23 1.59,2.76 1.59,4.58 0,1.79 -0.53,3.29 -1.58,4.51l-0.63 0z"/>
  </g>
  <path class="fil2" d="M23.92 17.81c0,0.69 -0.56,1.25 -1.25,1.25l-12.5 0c-0.69,0 -1.25,-0.56 -1.25,-1.25l0 -7.18c0,-0.7 0.56,-1.25 1.25,-1.25l1.17 0 1.6 -1.6c0.19,-0.19 0.43,-0.28 0.67,-0.28l2.18 0c0.24,0 0.49,0.09 0.67,0.28l1.59 1.6 1.18 0 0 -0.71c0,-0.3 0.25,-0.54 0.55,-0.54l2.03 0c0.3,0 0.55,0.24 0.55,0.54l0 0.71 0.31 0c0.69,0 1.25,0.55 1.25,1.25l0 7.18 0 0zm-4.63 -6.68l2.58 0c0.31,0 0.56,0.25 0.56,0.56l0 0c0,0.31 -0.25,0.57 -0.56,0.57l-2.58 0c-0.31,0 -0.56,-0.26 -0.56,-0.57l0 0c0,-0.31 0.25,-0.56 0.56,-0.56zm-3.16 2.99c2.04,0.42 2.39,1.74 2.39,2.43 0,0.82 -1.71,1.58 -3.82,1.58 -2.11,0 -3.82,-0.76 -3.82,-1.58 0,-0.69 0.35,-2.01 2.39,-2.43 0.41,0.3 0.9,0.47 1.43,0.47 0.53,0 1.02,-0.17 1.43,-0.47zm-1.43 -4.48c1.1,0 1.99,0.97 1.99,2.16 0,1.2 -0.89,2.17 -1.99,2.17 -1.1,0 -1.99,-0.97 -1.99,-2.17 0,-1.19 0.89,-2.16 1.99,-2.16z"/>
 </g>
</svg>
