<?xml version="1.0" encoding="UTF-8"?>
<!DOCTYPE svg PUBLIC "-//W3C//DTD SVG 1.1//EN" "http://www.w3.org/Graphics/SVG/1.1/DTD/svg11.dtd">
<!-- Creator: CorelDRAW 2018 (64-Bit) -->
<svg xmlns="http://www.w3.org/2000/svg" xml:space="preserve" width="542px" height="63px" version="1.1" style="shape-rendering:geometricPrecision; text-rendering:geometricPrecision; image-rendering:optimizeQuality; fill-rule:evenodd; clip-rule:evenodd"
viewBox="0 0 229.25 26.47"
 xmlns:xlink="http://www.w3.org/1999/xlink">
 <defs>
  <style type="text/css">
   <![CDATA[
    .fil2 {fill:#088378}
    .fil1 {fill:#B6B6B7;fill-rule:nonzero}
    .fil0 {fill:#088378;fill-rule:nonzero}
   ]]>
  </style>
 </defs>
 <g id="Layer_x0020_1">
  <metadata id="CorelCorpID_0Corel-Layer"/>
  <g id="_2298839345584">
   <path class="fil0" d="M5.84 0l217.58 0c1.6,0 3.06,0.66 4.12,1.71 1.05,1.06 1.71,2.52 1.71,4.13l0 14.79c0,1.6 -0.66,3.06 -1.71,4.12 -1.06,1.06 -2.52,1.72 -4.12,1.72l-217.58 0c-1.61,0 -3.07,-0.66 -4.12,-1.72 -1.06,-1.05 -1.72,-2.51 -1.72,-4.12l0 -14.79c0,-1.61 0.66,-3.07 1.71,-4.13 1.06,-1.05 2.52,-1.71 4.13,-1.71zm217.58 1l-217.58 0c-1.33,0 -2.54,0.54 -3.42,1.42 -0.88,0.88 -1.42,2.09 -1.42,3.42l0 14.79c0,1.33 0.54,2.54 1.42,3.42 0.88,0.87 2.09,1.42 3.42,1.42l217.58 0c1.32,0 2.53,-0.55 3.41,-1.42 0.88,-0.88 1.42,-2.09 1.42,-3.42l0 -14.79c0,-1.33 -0.54,-2.54 -1.42,-3.42 -0.88,-0.88 -2.09,-1.42 -3.41,-1.42z"/>
   <path class="fil1" d="M39.37 16.46l-0.82 -2.19 -3.18 0 -0.79 2.19 -0.77 0 2.82 -7.41 0.69 0 2.81 7.41 -0.76 0zm-2.26 -6.12c-0.03,-0.06 -0.05,-0.14 -0.08,-0.22 -0.02,-0.09 -0.04,-0.19 -0.06,-0.3l-0.02 0c-0.02,0.11 -0.04,0.21 -0.07,0.3 -0.03,0.08 -0.05,0.16 -0.08,0.22l-1.19 3.3 2.71 0 -1.21 -3.3z"/>
   <polygon id="1" class="fil1" points="41.19,16.46 41.19,8.62 41.85,8.62 41.85,16.46 "/>
   <path id="2" class="fil1" d="M46.61 16.46l0 -0.94 -0.02 0c-0.18,0.33 -0.41,0.6 -0.71,0.78 -0.3,0.19 -0.63,0.28 -1.01,0.28 -0.25,0 -0.48,-0.03 -0.69,-0.11 -0.2,-0.07 -0.38,-0.17 -0.52,-0.31 -0.14,-0.13 -0.25,-0.29 -0.33,-0.47 -0.08,-0.19 -0.12,-0.39 -0.12,-0.62 0,-0.48 0.15,-0.86 0.45,-1.14 0.29,-0.29 0.74,-0.47 1.34,-0.56l1.61 -0.23c0,-1.02 -0.4,-1.52 -1.19,-1.52 -0.61,0 -1.19,0.22 -1.71,0.67l0 -0.72c0.11,-0.08 0.23,-0.15 0.37,-0.22 0.14,-0.06 0.29,-0.11 0.44,-0.16 0.16,-0.05 0.32,-0.08 0.48,-0.11 0.17,-0.03 0.32,-0.04 0.48,-0.04 0.59,0 1.04,0.17 1.34,0.5 0.3,0.33 0.45,0.82 0.45,1.48l0 3.44 -0.66 0zm-1.37 -2.57c-0.23,0.03 -0.44,0.08 -0.61,0.13 -0.17,0.05 -0.31,0.12 -0.42,0.21 -0.11,0.09 -0.19,0.19 -0.24,0.32 -0.05,0.13 -0.08,0.29 -0.08,0.48 0,0.14 0.03,0.27 0.08,0.39 0.05,0.12 0.12,0.23 0.22,0.32 0.09,0.08 0.21,0.15 0.34,0.2 0.14,0.05 0.29,0.07 0.46,0.07 0.24,0 0.45,-0.04 0.65,-0.13 0.2,-0.09 0.37,-0.21 0.51,-0.37 0.14,-0.16 0.25,-0.35 0.34,-0.57 0.08,-0.22 0.12,-0.46 0.12,-0.72l0 -0.52 -1.37 0.19z"/>
   <path id="3" class="fil1" d="M55.51 16.46l0 -3.11c0,-0.32 -0.02,-0.59 -0.07,-0.81 -0.05,-0.22 -0.12,-0.39 -0.23,-0.53 -0.1,-0.14 -0.23,-0.24 -0.38,-0.3 -0.16,-0.06 -0.35,-0.09 -0.56,-0.09 -0.2,0 -0.38,0.04 -0.55,0.13 -0.17,0.09 -0.33,0.22 -0.45,0.38 -0.13,0.16 -0.24,0.35 -0.31,0.56 -0.07,0.22 -0.11,0.46 -0.11,0.71l0 3.06 -0.66 0 0 -3.18c0,-1.11 -0.43,-1.66 -1.28,-1.66 -0.19,0 -0.38,0.04 -0.55,0.13 -0.16,0.08 -0.31,0.21 -0.44,0.37 -0.12,0.16 -0.22,0.35 -0.29,0.57 -0.07,0.22 -0.11,0.47 -0.11,0.73l0 3.04 -0.66 0 0 -5.29 0.66 0 0 0.85 0.02 0c0.37,-0.65 0.92,-0.98 1.63,-0.98 0.19,0 0.36,0.03 0.53,0.09 0.16,0.05 0.31,0.13 0.44,0.23 0.13,0.11 0.25,0.23 0.34,0.37 0.09,0.14 0.17,0.29 0.21,0.46 0.19,-0.37 0.43,-0.66 0.73,-0.85 0.3,-0.2 0.64,-0.3 1.01,-0.3 1.16,0 1.74,0.72 1.74,2.15l0 3.27 -0.66 0z"/>
   <path id="4" class="fil1" d="M60.81 16.46l0 -0.94 -0.02 0c-0.17,0.33 -0.4,0.6 -0.7,0.78 -0.3,0.19 -0.64,0.28 -1.01,0.28 -0.26,0 -0.49,-0.03 -0.69,-0.11 -0.21,-0.07 -0.38,-0.17 -0.52,-0.31 -0.15,-0.13 -0.26,-0.29 -0.34,-0.47 -0.07,-0.19 -0.11,-0.39 -0.11,-0.62 0,-0.48 0.15,-0.86 0.44,-1.14 0.3,-0.29 0.75,-0.47 1.35,-0.56l1.6 -0.23c0,-1.02 -0.39,-1.52 -1.18,-1.52 -0.62,0 -1.19,0.22 -1.72,0.67l0 -0.72c0.12,-0.08 0.24,-0.15 0.38,-0.22 0.14,-0.06 0.29,-0.11 0.44,-0.16 0.16,-0.05 0.31,-0.08 0.48,-0.11 0.16,-0.03 0.32,-0.04 0.48,-0.04 0.59,0 1.03,0.17 1.33,0.5 0.3,0.33 0.46,0.82 0.46,1.48l0 3.44 -0.67 0zm-1.36 -2.57c-0.24,0.03 -0.44,0.08 -0.61,0.13 -0.17,0.05 -0.31,0.12 -0.42,0.21 -0.11,0.09 -0.19,0.19 -0.24,0.32 -0.05,0.13 -0.08,0.29 -0.08,0.48 0,0.14 0.03,0.27 0.08,0.39 0.05,0.12 0.12,0.23 0.21,0.32 0.1,0.08 0.21,0.15 0.35,0.2 0.14,0.05 0.29,0.07 0.46,0.07 0.24,0 0.45,-0.04 0.65,-0.13 0.19,-0.09 0.36,-0.21 0.51,-0.37 0.14,-0.16 0.25,-0.35 0.33,-0.57 0.08,-0.22 0.12,-0.46 0.12,-0.72l0 -0.52 -1.36 0.19z"/>
   <path id="5" class="fil1" d="M65.34 16.4c-0.23,0.11 -0.47,0.16 -0.74,0.17 -0.86,-0.01 -1.28,-0.5 -1.28,-1.48l0 -3.35 -0.93 0 0 -0.57 0.93 0 0 -1.34 0.66 -0.21 0 1.55 1.36 0 0 0.57 -1.36 0 0 3.24c0,0.36 0.06,0.62 0.17,0.78 0.12,0.16 0.32,0.24 0.6,0.24 0.2,0 0.4,-0.06 0.59,-0.19l0 0.59z"/>
   <polygon id="6" class="fil1" points="69.33,16.46 69.33,8.62 69.99,8.62 69.99,16.46 "/>
   <path id="7" class="fil1" d="M72.01 13.93c0.01,0.32 0.05,0.62 0.13,0.87 0.09,0.26 0.21,0.48 0.36,0.66 0.15,0.18 0.34,0.32 0.56,0.41 0.23,0.1 0.48,0.14 0.76,0.14 0.59,0 1.16,-0.21 1.69,-0.62l0 0.65c-0.51,0.36 -1.12,0.54 -1.84,0.54 -0.36,0 -0.68,-0.06 -0.97,-0.18 -0.29,-0.13 -0.53,-0.31 -0.74,-0.54 -0.2,-0.24 -0.36,-0.53 -0.47,-0.88 -0.11,-0.34 -0.16,-0.73 -0.16,-1.17 0,-0.4 0.06,-0.77 0.18,-1.1 0.12,-0.34 0.28,-0.63 0.5,-0.88 0.21,-0.25 0.47,-0.44 0.76,-0.58 0.29,-0.14 0.61,-0.21 0.96,-0.21 0.34,0 0.64,0.06 0.9,0.18 0.27,0.12 0.48,0.29 0.66,0.51 0.18,0.22 0.31,0.49 0.41,0.8 0.09,0.32 0.14,0.68 0.14,1.07l0 0.33 -3.83 0zm3.14 -0.58c0,-0.55 -0.14,-0.98 -0.39,-1.28 -0.25,-0.3 -0.6,-0.45 -1.05,-0.45 -0.22,0 -0.43,0.03 -0.62,0.11 -0.19,0.08 -0.36,0.2 -0.5,0.35 -0.15,0.15 -0.27,0.33 -0.36,0.55 -0.1,0.21 -0.16,0.45 -0.2,0.72l3.12 0z"/>
   <path id="8" class="fil1" d="M80.71 16.46l0 -3.05c0,-1.2 -0.44,-1.79 -1.31,-1.79 -0.23,0 -0.44,0.04 -0.64,0.13 -0.19,0.09 -0.36,0.22 -0.51,0.38 -0.14,0.16 -0.25,0.35 -0.33,0.58 -0.08,0.22 -0.12,0.46 -0.12,0.72l0 3.03 -0.67 0 0 -5.29 0.67 0 0 0.91 0.02 0c0.39,-0.69 0.98,-1.04 1.77,-1.04 0.58,0 1.02,0.19 1.32,0.56 0.31,0.38 0.46,0.92 0.46,1.63l0 3.23 -0.66 0z"/>
   <path id="9" class="fil1" d="M87.33 16.05c0,0.98 -0.22,1.71 -0.67,2.18 -0.44,0.48 -1.13,0.71 -2.06,0.71 -0.58,0 -1.13,-0.13 -1.65,-0.39l0 -0.67c0.58,0.32 1.13,0.48 1.65,0.48 1.38,0 2.07,-0.73 2.07,-2.19l0 -0.63 -0.02 0c-0.41,0.69 -1.03,1.04 -1.86,1.04 -0.33,0 -0.63,-0.06 -0.9,-0.18 -0.27,-0.12 -0.5,-0.29 -0.69,-0.52 -0.19,-0.23 -0.34,-0.51 -0.45,-0.83 -0.11,-0.33 -0.16,-0.69 -0.16,-1.1 0,-0.44 0.06,-0.83 0.17,-1.19 0.11,-0.36 0.27,-0.66 0.48,-0.92 0.21,-0.25 0.47,-0.45 0.77,-0.59 0.3,-0.14 0.63,-0.21 1,-0.21 0.75,0 1.3,0.31 1.64,0.91l0.02 0 0 -0.78 0.66 0 0 4.88zm-0.66 -2.81c0,-0.22 -0.04,-0.43 -0.12,-0.62 -0.08,-0.2 -0.19,-0.37 -0.33,-0.52 -0.14,-0.15 -0.31,-0.27 -0.5,-0.35 -0.2,-0.09 -0.41,-0.13 -0.65,-0.13 -0.27,0 -0.52,0.05 -0.74,0.16 -0.23,0.1 -0.41,0.25 -0.57,0.45 -0.16,0.2 -0.28,0.43 -0.36,0.72 -0.09,0.28 -0.13,0.59 -0.13,0.94 0,0.33 0.04,0.62 0.12,0.88 0.08,0.26 0.19,0.49 0.33,0.67 0.15,0.18 0.32,0.32 0.53,0.42 0.21,0.1 0.43,0.15 0.68,0.15 0.27,0 0.5,-0.04 0.72,-0.14 0.21,-0.09 0.39,-0.22 0.54,-0.39 0.16,-0.17 0.27,-0.37 0.36,-0.59 0.08,-0.23 0.12,-0.47 0.12,-0.73l0 -0.92z"/>
   <polygon id="10" class="fil1" points="92.15,16.46 89.72,13.88 89.7,13.88 89.7,16.46 89.04,16.46 89.04,8.62 89.7,8.62 89.7,13.63 89.72,13.63 92.03,11.17 92.89,11.17 90.41,13.72 93.09,16.46 "/>
   <path id="11" class="fil1" d="M97.06 16.46l0 -0.94 -0.02 0c-0.17,0.33 -0.41,0.6 -0.71,0.78 -0.29,0.19 -0.63,0.28 -1,0.28 -0.26,0 -0.49,-0.03 -0.7,-0.11 -0.2,-0.07 -0.37,-0.17 -0.52,-0.31 -0.14,-0.13 -0.25,-0.29 -0.33,-0.47 -0.08,-0.19 -0.11,-0.39 -0.11,-0.62 0,-0.48 0.14,-0.86 0.44,-1.14 0.3,-0.29 0.74,-0.47 1.34,-0.56l1.61 -0.23c0,-1.02 -0.39,-1.52 -1.18,-1.52 -0.62,0 -1.19,0.22 -1.72,0.67l0 -0.72c0.11,-0.08 0.24,-0.15 0.38,-0.22 0.14,-0.06 0.28,-0.11 0.44,-0.16 0.15,-0.05 0.31,-0.08 0.48,-0.11 0.16,-0.03 0.32,-0.04 0.47,-0.04 0.59,0 1.04,0.17 1.34,0.5 0.3,0.33 0.45,0.82 0.45,1.48l0 3.44 -0.66 0zm-1.36 -2.57c-0.24,0.03 -0.44,0.08 -0.61,0.13 -0.17,0.05 -0.31,0.12 -0.42,0.21 -0.11,0.09 -0.19,0.19 -0.24,0.32 -0.05,0.13 -0.08,0.29 -0.08,0.48 0,0.14 0.02,0.27 0.07,0.39 0.05,0.12 0.13,0.23 0.22,0.32 0.09,0.08 0.21,0.15 0.35,0.2 0.13,0.05 0.29,0.07 0.46,0.07 0.23,0 0.45,-0.04 0.64,-0.13 0.2,-0.09 0.37,-0.21 0.51,-0.37 0.15,-0.16 0.26,-0.35 0.34,-0.57 0.08,-0.22 0.12,-0.46 0.12,-0.72l0 -0.52 -1.36 0.19z"/>
   <path id="12" class="fil1" d="M99.98 15.61l0 3.28 -0.67 0 0 -7.72 0.67 0 0 1.01 0.02 0c0.19,-0.37 0.46,-0.65 0.79,-0.85 0.32,-0.19 0.7,-0.29 1.11,-0.29 0.34,0 0.64,0.06 0.91,0.19 0.26,0.12 0.49,0.29 0.67,0.51 0.19,0.23 0.33,0.5 0.43,0.82 0.09,0.32 0.14,0.68 0.14,1.08 0,0.44 -0.05,0.84 -0.16,1.2 -0.11,0.36 -0.27,0.67 -0.48,0.92 -0.2,0.26 -0.46,0.46 -0.75,0.61 -0.29,0.14 -0.63,0.21 -0.99,0.21 -0.75,0 -1.3,-0.32 -1.67,-0.97l-0.02 0zm0 -1.35c0,0.24 0.04,0.46 0.12,0.67 0.08,0.22 0.19,0.4 0.34,0.56 0.14,0.16 0.32,0.29 0.52,0.38 0.21,0.1 0.43,0.14 0.68,0.14 0.27,0 0.51,-0.05 0.72,-0.16 0.21,-0.12 0.39,-0.28 0.54,-0.48 0.15,-0.21 0.27,-0.46 0.35,-0.75 0.08,-0.3 0.12,-0.62 0.12,-0.99 0,-0.3 -0.04,-0.58 -0.11,-0.83 -0.08,-0.25 -0.19,-0.47 -0.32,-0.64 -0.14,-0.18 -0.31,-0.31 -0.51,-0.41 -0.2,-0.09 -0.42,-0.13 -0.67,-0.13 -0.27,0 -0.52,0.05 -0.74,0.15 -0.22,0.1 -0.41,0.24 -0.56,0.41 -0.16,0.18 -0.28,0.38 -0.36,0.62 -0.08,0.24 -0.12,0.49 -0.12,0.75l0 0.71z"/>
  </g>
  <path class="fil2" d="M16.39 5.85c1.6,0 2.9,1.29 3.06,2.98 0.06,0.68 -0.11,1.3 -0.4,1.88 -0.34,0.68 -0.82,1.26 -1.27,1.85 -0.41,0.54 -0.83,1.07 -1.24,1.6 -0.09,0.11 -0.14,0.12 -0.23,0 -0.69,-0.82 -1.39,-1.63 -2.02,-2.5 -0.43,-0.58 -0.74,-1.22 -0.86,-1.97 -0.27,-1.77 0.83,-3.48 2.44,-3.79 0.19,-0.04 0.39,-0.05 0.52,-0.05zm-4.22 5.87c0.12,0.16 0.22,0.3 0.32,0.44 0.98,1.34 1.96,2.68 2.94,4.02 0.26,0.36 0.52,0.7 0.78,1.06 0.08,0.11 0.14,0.12 0.26,0.07 1.04,-0.46 2.1,-0.92 3.14,-1.37 0.16,-0.06 0.16,-0.08 0.03,-0.19 -0.69,-0.67 -1.39,-1.35 -2.08,-2 -0.03,-0.04 -0.1,-0.06 -0.06,-0.14 0.04,-0.08 0.09,-0.15 0.15,-0.18 0.04,-0.03 0.08,0.03 0.11,0.06 0.39,0.38 0.78,0.74 1.15,1.12 0.36,0.33 0.7,0.68 1.04,1.02 0.06,0.06 0.12,0.05 0.18,0 0.78,-0.66 1.55,-1.31 2.34,-1.98 0.1,-0.09 0.08,-0.13 -0.02,-0.17 -0.81,-0.44 -1.62,-0.89 -2.43,-1.35 -0.3,-0.16 -0.59,-0.33 -0.89,-0.5 -0.1,-0.05 -0.11,-0.11 -0.04,-0.2 0.04,-0.04 0.05,-0.09 0.09,-0.13 0.14,-0.25 0.08,-0.26 0.36,-0.11 1.21,0.68 2.42,1.35 3.62,2.01 0.27,0.14 0.28,0.38 0.04,0.58 -0.95,0.81 -1.9,1.62 -2.85,2.42 -0.08,0.08 -0.18,0.13 -0.28,0.17 -1.12,0.48 -2.22,0.98 -3.34,1.45 -0.11,0.05 -0.2,0.12 -0.28,0.23 -0.6,0.81 -1.22,1.63 -1.81,2.43 -0.18,0.25 -0.37,0.25 -0.54,-0.02 -0.71,-1.13 -1.42,-2.28 -2.12,-3.41 -0.82,-1.3 -1.61,-2.59 -2.42,-3.89 -0.14,-0.24 -0.13,-0.39 0.09,-0.55 0.62,-0.46 1.23,-0.92 1.85,-1.38 0.11,-0.09 0.22,-0.12 0.36,-0.13 0.47,-0.01 0.95,-0.02 1.43,-0.02 0.11,0 0.18,0.03 0.24,0.14 0.04,0.1 0.11,0.19 0.15,0.29 0.02,0.04 0.08,0.09 0.04,0.14 -0.02,0.04 -0.08,0.02 -0.12,0.02 -0.43,0.01 -0.87,0.02 -1.31,0.03 -0.03,0 -0.06,0 -0.12,0.02zm-0.39 0.03c-0.04,0.02 -0.08,0.04 -0.1,0.08 -0.46,0.34 -0.93,0.7 -1.39,1.04 -0.16,0.11 -0.16,0.11 -0.05,0.28 0.75,1.2 1.5,2.4 2.25,3.61 0.6,0.99 1.23,1.97 1.83,2.96 0.05,0.09 0.1,0.15 0.18,0.02 0.51,-0.69 1.01,-1.37 1.53,-2.05 0.06,-0.1 0.05,-0.15 -0.01,-0.23 -0.19,-0.26 -0.38,-0.52 -0.57,-0.79 -0.9,-1.23 -1.81,-2.46 -2.71,-3.68 -0.28,-0.39 -0.55,-0.76 -0.83,-1.14 -0.05,-0.03 -0.07,-0.08 -0.13,-0.1zm6.11 -2.51c0.01,-0.9 -0.62,-1.6 -1.44,-1.6 -0.83,-0.01 -1.48,0.69 -1.49,1.58 0,0.9 0.64,1.61 1.45,1.61 0.83,0 1.47,-0.69 1.48,-1.59z"/>
 </g>
</svg>
