<?xml version="1.0" encoding="UTF-8"?>
<!DOCTYPE svg PUBLIC "-//W3C//DTD SVG 1.1//EN" "http://www.w3.org/Graphics/SVG/1.1/DTD/svg11.dtd">
<!-- Creator: CorelDRAW 2018 (64-Bit) -->
<svg xmlns="http://www.w3.org/2000/svg" xml:space="preserve" width="542px" height="63px" version="1.1" style="shape-rendering:geometricPrecision; text-rendering:geometricPrecision; image-rendering:optimizeQuality; fill-rule:evenodd; clip-rule:evenodd"
viewBox="0 0 229.25 26.47"
 xmlns:xlink="http://www.w3.org/1999/xlink">
 <defs>
  <style type="text/css">
   <![CDATA[
    .fil1 {fill:#B6B6B7;fill-rule:nonzero}
    .fil0 {fill:#088378;fill-rule:nonzero}
   ]]>
  </style>
 </defs>
 <g id="Layer_x0020_1">
  <metadata id="CorelCorpID_0Corel-Layer"/>
  <g id="_2298839326832">
   <path class="fil0" d="M5.84 0l217.58 0c1.6,0 3.06,0.66 4.12,1.71 1.05,1.06 1.71,2.52 1.71,4.13l0 14.79c0,1.6 -0.66,3.06 -1.71,4.12 -1.06,1.06 -2.52,1.72 -4.12,1.72l-217.58 0c-1.61,0 -3.07,-0.66 -4.12,-1.72 -1.06,-1.05 -1.72,-2.51 -1.72,-4.12l0 -14.79c0,-1.61 0.66,-3.07 1.71,-4.13 1.06,-1.05 2.52,-1.71 4.13,-1.71zm217.58 1l-217.58 0c-1.33,0 -2.54,0.54 -3.42,1.42 -0.88,0.88 -1.42,2.09 -1.42,3.42l0 14.79c0,1.33 0.54,2.54 1.42,3.42 0.88,0.87 2.09,1.42 3.42,1.42l217.58 0c1.32,0 2.53,-0.55 3.41,-1.42 0.88,-0.88 1.42,-2.09 1.42,-3.42l0 -14.79c0,-1.33 -0.54,-2.54 -1.42,-3.42 -0.88,-0.88 -2.09,-1.42 -3.41,-1.42z"/>
   <polygon class="fil1" points="35.25,9.68 35.25,12.47 37.96,12.47 37.96,13.09 35.25,13.09 35.25,16.46 34.57,16.46 34.57,9.05 38.18,9.05 38.18,9.68 "/>
   <path id="1" class="fil1" d="M41.67 16.58c-0.4,0 -0.75,-0.06 -1.06,-0.2 -0.31,-0.13 -0.58,-0.31 -0.8,-0.55 -0.22,-0.24 -0.39,-0.53 -0.51,-0.86 -0.11,-0.33 -0.17,-0.71 -0.17,-1.11 0,-0.44 0.06,-0.84 0.19,-1.19 0.12,-0.34 0.29,-0.64 0.52,-0.88 0.23,-0.25 0.51,-0.43 0.83,-0.56 0.33,-0.12 0.69,-0.19 1.09,-0.19 0.38,0 0.73,0.06 1.03,0.19 0.31,0.13 0.57,0.31 0.78,0.55 0.22,0.23 0.38,0.52 0.49,0.86 0.12,0.34 0.17,0.73 0.17,1.17 0,0.41 -0.06,0.79 -0.17,1.12 -0.12,0.35 -0.29,0.64 -0.51,0.88 -0.22,0.25 -0.49,0.44 -0.81,0.57 -0.32,0.13 -0.67,0.2 -1.07,0.2zm0.05 -4.96c-0.29,0 -0.55,0.04 -0.79,0.15 -0.23,0.09 -0.43,0.24 -0.6,0.43 -0.17,0.19 -0.3,0.43 -0.39,0.7 -0.08,0.28 -0.13,0.6 -0.13,0.95 0,0.33 0.05,0.63 0.13,0.89 0.09,0.27 0.22,0.49 0.39,0.68 0.16,0.19 0.36,0.34 0.59,0.44 0.24,0.1 0.5,0.15 0.79,0.15 0.29,0 0.56,-0.05 0.78,-0.14 0.23,-0.1 0.42,-0.25 0.58,-0.43 0.16,-0.19 0.28,-0.42 0.36,-0.69 0.08,-0.28 0.12,-0.59 0.12,-0.93 0,-0.72 -0.16,-1.26 -0.47,-1.64 -0.32,-0.38 -0.77,-0.56 -1.36,-0.56z"/>
   <path id="2" class="fil1" d="M47.84 16.4c-0.23,0.11 -0.47,0.16 -0.74,0.17 -0.86,-0.01 -1.29,-0.5 -1.29,-1.48l0 -3.35 -0.92 0 0 -0.57 0.92 0 0 -1.34 0.67 -0.21 0 1.55 1.36 0 0 0.57 -1.36 0 0 3.24c0,0.36 0.05,0.62 0.17,0.78 0.12,0.16 0.32,0.24 0.6,0.24 0.2,0 0.4,-0.06 0.59,-0.19l0 0.59z"/>
   <path id="3" class="fil1" d="M51.1 16.58c-0.4,0 -0.75,-0.06 -1.06,-0.2 -0.31,-0.13 -0.58,-0.31 -0.8,-0.55 -0.22,-0.24 -0.39,-0.53 -0.51,-0.86 -0.11,-0.33 -0.17,-0.71 -0.17,-1.11 0,-0.44 0.06,-0.84 0.19,-1.19 0.12,-0.34 0.29,-0.64 0.52,-0.88 0.23,-0.25 0.51,-0.43 0.83,-0.56 0.33,-0.12 0.69,-0.19 1.09,-0.19 0.38,0 0.73,0.06 1.03,0.19 0.31,0.13 0.57,0.31 0.78,0.55 0.22,0.23 0.38,0.52 0.49,0.86 0.12,0.34 0.17,0.73 0.17,1.17 0,0.41 -0.06,0.79 -0.17,1.12 -0.12,0.35 -0.29,0.64 -0.51,0.88 -0.22,0.25 -0.49,0.44 -0.81,0.57 -0.32,0.13 -0.67,0.2 -1.07,0.2zm0.05 -4.96c-0.29,0 -0.55,0.04 -0.79,0.15 -0.23,0.09 -0.43,0.24 -0.6,0.43 -0.17,0.19 -0.3,0.43 -0.39,0.7 -0.08,0.28 -0.13,0.6 -0.13,0.95 0,0.33 0.05,0.63 0.13,0.89 0.09,0.27 0.22,0.49 0.39,0.68 0.16,0.19 0.36,0.34 0.59,0.44 0.24,0.1 0.5,0.15 0.79,0.15 0.29,0 0.56,-0.05 0.78,-0.14 0.23,-0.1 0.42,-0.25 0.58,-0.43 0.16,-0.19 0.28,-0.42 0.36,-0.69 0.08,-0.28 0.12,-0.59 0.12,-0.93 0,-0.72 -0.16,-1.26 -0.47,-1.64 -0.32,-0.38 -0.77,-0.56 -1.36,-0.56z"/>
   <path id="4" class="fil1" d="M61.89 16.46l-3.02 -3.47c-0.08,-0.1 -0.13,-0.17 -0.16,-0.21l-0.02 0 0 3.68 -0.68 0 0 -7.41 0.68 0 0 3.48 0.02 0c0.03,-0.03 0.05,-0.07 0.08,-0.1 0.03,-0.04 0.06,-0.07 0.09,-0.11l2.88 -3.27 0.88 0 -3.22 3.57 3.43 3.84 -0.96 0z"/>
   <polygon id="5" class="fil1" points="65.98,9.68 65.98,16.46 65.29,16.46 65.29,9.68 63.16,9.68 63.16,9.05 68.12,9.05 68.12,9.68 "/>
   <path id="6" class="fil1" d="M70.03 13.57l0 2.89 -0.69 0 0 -7.41 1.91 0c0.39,0 0.73,0.04 1.03,0.14 0.3,0.1 0.55,0.24 0.76,0.42 0.21,0.18 0.37,0.41 0.47,0.67 0.11,0.27 0.16,0.57 0.16,0.91 0,0.35 -0.06,0.66 -0.18,0.95 -0.12,0.3 -0.29,0.55 -0.52,0.76 -0.22,0.21 -0.5,0.38 -0.82,0.5 -0.33,0.11 -0.69,0.17 -1.1,0.17l-1.02 0zm0 -3.89l0 3.26 0.98 0c0.63,0 1.12,-0.14 1.45,-0.44 0.33,-0.3 0.49,-0.72 0.49,-1.26 0,-1.04 -0.61,-1.56 -1.82,-1.56l-1.1 0z"/>
   <polygon id="7" class="fil1" points="77.6,17.69 76.97,17.69 80.55,9.05 81.19,9.05 "/>
   <polygon id="8" class="fil1" points="87.99,16.46 85.55,13.88 85.53,13.88 85.53,16.46 84.87,16.46 84.87,8.62 85.53,8.62 85.53,13.63 85.55,13.63 87.86,11.17 88.73,11.17 86.25,13.72 88.92,16.46 "/>
   <path id="9" class="fil1" d="M92.9 16.46l0 -0.94 -0.03 0c-0.17,0.33 -0.4,0.6 -0.7,0.78 -0.3,0.19 -0.64,0.28 -1.01,0.28 -0.26,0 -0.49,-0.03 -0.69,-0.11 -0.21,-0.07 -0.38,-0.17 -0.52,-0.31 -0.15,-0.13 -0.26,-0.29 -0.33,-0.47 -0.08,-0.19 -0.12,-0.39 -0.12,-0.62 0,-0.48 0.15,-0.86 0.44,-1.14 0.3,-0.29 0.75,-0.47 1.35,-0.56l1.61 -0.23c0,-1.02 -0.4,-1.52 -1.19,-1.52 -0.62,0 -1.19,0.22 -1.71,0.67l0 -0.72c0.11,-0.08 0.23,-0.15 0.37,-0.22 0.14,-0.06 0.29,-0.11 0.44,-0.16 0.16,-0.05 0.32,-0.08 0.48,-0.11 0.16,-0.03 0.32,-0.04 0.48,-0.04 0.59,0 1.03,0.17 1.33,0.5 0.3,0.33 0.46,0.82 0.46,1.48l0 3.44 -0.66 0zm-1.37 -2.57c-0.24,0.03 -0.44,0.08 -0.61,0.13 -0.17,0.05 -0.31,0.12 -0.42,0.21 -0.11,0.09 -0.19,0.19 -0.24,0.32 -0.05,0.13 -0.08,0.29 -0.08,0.48 0,0.14 0.03,0.27 0.08,0.39 0.05,0.12 0.12,0.23 0.21,0.32 0.1,0.08 0.21,0.15 0.35,0.2 0.14,0.05 0.29,0.07 0.46,0.07 0.24,0 0.45,-0.04 0.65,-0.13 0.19,-0.09 0.37,-0.21 0.51,-0.37 0.14,-0.16 0.25,-0.35 0.33,-0.57 0.08,-0.22 0.13,-0.46 0.13,-0.72l0 -0.52 -1.37 0.19z"/>
   <path id="10" class="fil1" d="M97.77 11.84c-0.15,-0.11 -0.35,-0.17 -0.6,-0.17 -0.17,0 -0.33,0.04 -0.46,0.1 -0.14,0.07 -0.25,0.16 -0.36,0.27 -0.1,0.12 -0.18,0.25 -0.25,0.4 -0.07,0.15 -0.13,0.3 -0.17,0.47 -0.05,0.16 -0.08,0.32 -0.1,0.49 -0.02,0.16 -0.03,0.32 -0.03,0.47l0 2.59 -0.65 0 0 -5.29 0.65 0 0 1.13 0.03 0c0.06,-0.2 0.14,-0.37 0.23,-0.52 0.09,-0.16 0.2,-0.28 0.33,-0.39 0.12,-0.1 0.26,-0.19 0.41,-0.24 0.14,-0.06 0.3,-0.08 0.46,-0.08 0.1,0 0.2,0 0.28,0.02 0.09,0.01 0.17,0.03 0.23,0.06l0 0.69z"/>
   <path id="11" class="fil1" d="M101.01 16.4c-0.23,0.11 -0.48,0.16 -0.75,0.17 -0.85,-0.01 -1.28,-0.5 -1.28,-1.48l0 -3.35 -0.93 0 0 -0.57 0.93 0 0 -1.34 0.66 -0.21 0 1.55 1.37 0 0 0.57 -1.37 0 0 3.24c0,0.36 0.06,0.62 0.18,0.78 0.12,0.16 0.31,0.24 0.59,0.24 0.21,0 0.41,-0.06 0.6,-0.19l0 0.59z"/>
   <path id="12" class="fil1" d="M105.56 16.46l0 -0.9 -0.02 0c-0.36,0.68 -0.91,1.02 -1.67,1.02 -1.26,0 -1.89,-0.77 -1.89,-2.3l0 -3.11 0.67 0 0 2.98c0,0.64 0.11,1.1 0.33,1.41 0.23,0.3 0.58,0.45 1.04,0.45 0.23,0 0.44,-0.04 0.62,-0.13 0.19,-0.09 0.35,-0.21 0.49,-0.37 0.14,-0.16 0.24,-0.35 0.32,-0.58 0.07,-0.22 0.11,-0.47 0.11,-0.74l0 -3.02 0.66 0 0 5.29 -0.66 0z"/>
   <polygon id="13" class="fil1" points="111.62,9.05 111.62,16.46 110.94,16.46 110.94,9.05 "/>
   <path id="14" class="fil1" d="M113.55 16.46l0 -7.41 1.94 0c1.27,0 2.23,0.3 2.88,0.91 0.65,0.61 0.97,1.51 0.97,2.69 0,0.58 -0.09,1.1 -0.27,1.56 -0.18,0.47 -0.44,0.87 -0.79,1.21 -0.34,0.33 -0.75,0.59 -1.24,0.77 -0.48,0.18 -1.03,0.27 -1.64,0.27l-1.85 0zm0.68 -6.78l0 6.15 1.14 0c0.51,0 0.96,-0.07 1.37,-0.21 0.4,-0.13 0.74,-0.34 1.02,-0.6 0.28,-0.27 0.49,-0.6 0.64,-0.99 0.14,-0.4 0.22,-0.84 0.22,-1.36 0,-1.99 -1.06,-2.99 -3.17,-2.99l-1.22 0z"/>
  </g>
  <path class="fil0" d="M9.83 9.91c0.05,-0.11 0.18,-0.15 0.28,-0.09 0.11,0.05 0.15,0.18 0.1,0.28 -0.36,0.69 -0.6,1.44 -0.7,2.23 -0.11,0.74 -0.09,1.51 0.06,2.29 0.01,0.01 0.01,0.02 0.01,0.04 0.01,0.05 0.02,0.1 0.04,0.15 0,0.04 0.02,0.09 0.03,0.15 0.03,0.11 -0.04,0.23 -0.16,0.26 -0.11,0.02 -0.23,-0.05 -0.26,-0.16 -0.01,-0.04 -0.02,-0.1 -0.03,-0.16 -0.01,-0.04 -0.02,-0.08 -0.03,-0.12 0,-0.01 -0.01,-0.02 -0.01,-0.04 -0.17,-0.84 -0.19,-1.67 -0.08,-2.47 0.12,-0.83 0.37,-1.63 0.75,-2.36zm8.22 3.63c2.32,0.48 2.72,1.99 2.72,2.76 0,0.94 -1.95,1.8 -4.35,1.8 -2.4,0 -4.35,-0.86 -4.35,-1.8 0,-0.77 0.4,-2.28 2.72,-2.76 0.47,0.34 1.03,0.54 1.63,0.54 0.61,0 1.17,-0.2 1.63,-0.54zm-1.63 -5.09c1.25,0 2.26,1.1 2.26,2.46 0,1.36 -1.01,2.46 -2.26,2.46 -1.25,0 -2.26,-1.1 -2.26,-2.46 0,-1.36 1.01,-2.46 2.26,-2.46zm6.56 8.24c-0.02,0.11 -0.12,0.2 -0.24,0.18 -0.12,-0.01 -0.2,-0.12 -0.19,-0.24 0.1,-0.75 0.13,-1.51 0.1,-2.28 -0.03,-0.69 -0.1,-1.39 -0.23,-2.09l-0.01 0 -0.03 -0.18c-0.22,-1.1 -0.73,-2.07 -1.43,-2.85 -0.72,-0.81 -1.65,-1.41 -2.68,-1.74 -0.11,-0.04 -0.18,-0.16 -0.14,-0.27 0.04,-0.11 0.16,-0.18 0.27,-0.14 1.11,0.35 2.1,1 2.87,1.86 0.71,0.79 1.23,1.77 1.49,2.87l0 0 0.04 0.18c0.16,0.79 0.25,1.57 0.28,2.35 0.03,0.79 -0.01,1.58 -0.1,2.35zm-5.69 -9.86c0.12,0.02 0.2,0.12 0.18,0.24 -0.01,0.12 -0.12,0.2 -0.24,0.18 -0.33,-0.04 -0.66,-0.06 -1.01,-0.05 -0.33,0.01 -0.67,0.05 -1,0.12l0 0c-1.65,0.33 -3,1.3 -3.86,2.6 -0.84,1.25 -1.21,2.81 -0.93,4.4l0.03 0.16c0.07,0.33 0.05,0.65 -0.03,0.94 -0.09,0.31 -0.25,0.6 -0.47,0.83 -0.08,0.09 -0.21,0.09 -0.3,0.01 -0.09,-0.08 -0.09,-0.21 -0.01,-0.3 0.17,-0.18 0.3,-0.41 0.36,-0.65 0.06,-0.2 0.08,-0.41 0.05,-0.63l-0.02 -0.12c-0.35,-1.76 0.04,-3.5 0.96,-4.88 0.92,-1.39 2.37,-2.42 4.13,-2.78l0.01 0c0.36,-0.07 0.72,-0.11 1.07,-0.13 0.37,-0.01 0.73,0.01 1.08,0.06zm4.44 11.57c-0.03,0.11 -0.15,0.18 -0.26,0.15 -0.12,-0.03 -0.18,-0.15 -0.15,-0.26 0.18,-0.68 0.31,-1.39 0.38,-2.1 0.07,-0.7 0.08,-1.41 0.04,-2.13 -0.01,-0.12 0.08,-0.22 0.2,-0.23 0.11,-0.01 0.22,0.08 0.22,0.2 0.05,0.74 0.04,1.48 -0.04,2.2 -0.07,0.74 -0.2,1.46 -0.39,2.17zm0.31 -5.52c0.02,0.12 -0.06,0.23 -0.18,0.24 -0.12,0.02 -0.23,-0.06 -0.24,-0.18 -0.02,-0.11 -0.04,-0.22 -0.06,-0.34 -0.01,-0.08 -0.02,-0.14 -0.04,-0.21l-0.02 -0.13c-0.29,-1.41 -1.11,-2.56 -2.21,-3.29 -0.51,-0.34 -1.08,-0.59 -1.69,-0.73 -0.35,-0.19 -0.76,-0.29 -1.18,-0.29 -0.42,0 -0.82,0.1 -1.18,0.29 -1,0.23 -1.86,0.74 -2.53,1.42 -0.72,0.74 -1.22,1.7 -1.4,2.73 -0.02,0.12 -0.13,0.2 -0.24,0.18 -0.12,-0.02 -0.2,-0.13 -0.18,-0.25 0.2,-1.12 0.73,-2.15 1.51,-2.96 0.76,-0.78 1.76,-1.35 2.91,-1.58 1.52,-0.3 3.02,0.03 4.21,0.83 1.15,0.76 2.03,1.95 2.36,3.4l0 0 0.04 0.16c0.03,0.14 0.05,0.26 0.07,0.36 0.02,0.11 0.03,0.23 0.05,0.35zm-11.23 0.62c0,-0.12 0.09,-0.22 0.21,-0.22 0.12,-0.01 0.22,0.09 0.22,0.2 0.01,0.14 0.02,0.27 0.04,0.42 0.01,0.08 0.02,0.16 0.03,0.24l0.03 0.16c0.11,0.53 0.07,1.06 -0.1,1.54 -0.17,0.49 -0.47,0.93 -0.87,1.27 -0.09,0.07 -0.23,0.06 -0.3,-0.03 -0.08,-0.09 -0.07,-0.22 0.02,-0.3 0.34,-0.29 0.6,-0.67 0.75,-1.09 0.13,-0.37 0.17,-0.77 0.1,-1.19l-0.02 -0.11c-0.03,-0.16 -0.05,-0.3 -0.07,-0.44 -0.02,-0.15 -0.03,-0.3 -0.04,-0.45zm0.06 4.36c-0.09,0.07 -0.23,0.06 -0.3,-0.04 -0.07,-0.09 -0.06,-0.22 0.03,-0.3 0.42,-0.33 0.75,-0.76 0.97,-1.25l0 0.03c0,0.21 0.05,0.4 0.16,0.59 -0.23,0.37 -0.52,0.69 -0.86,0.97zm1 -2.86c0.01,-0.21 0,-0.43 -0.04,-0.64l-0.03 -0.15c-0.17,-0.87 -0.1,-1.74 0.18,-2.52 0.29,-0.81 0.8,-1.53 1.47,-2.07 0.09,-0.07 0.23,-0.06 0.3,0.03 0.08,0.09 0.06,0.23 -0.03,0.3 -0.61,0.5 -1.07,1.15 -1.33,1.88 -0.24,0.66 -0.32,1.39 -0.2,2.13l0.03 0.17c0.02,0.08 0.04,0.16 0.05,0.25 -0.17,0.2 -0.3,0.41 -0.4,0.62zm6.74 -5.89c0.28,0.15 0.55,0.32 0.8,0.53 0.09,0.07 0.1,0.21 0.03,0.3 -0.08,0.09 -0.21,0.1 -0.31,0.03l-0.13 -0.11c-0.1,-0.27 -0.23,-0.52 -0.39,-0.75zm1.27 1.65c-0.07,-0.1 -0.05,-0.23 0.05,-0.3 0.09,-0.07 0.23,-0.05 0.3,0.05 0.2,0.27 0.36,0.56 0.5,0.87 0.12,0.28 0.22,0.58 0.29,0.89l0 0 0.02 0.08c0.24,1.21 0.31,2.42 0.21,3.59l0 0.01c-0.04,-0.35 -0.15,-0.76 -0.39,-1.16 0,-0.76 -0.08,-1.52 -0.23,-2.29l-0.01 -0.07c-0.07,-0.3 -0.16,-0.6 -0.28,-0.88 -0.13,-0.28 -0.28,-0.55 -0.46,-0.79zm1.26 6.08c-0.14,0.9 -0.37,1.77 -0.69,2.6 -0.04,0.11 -0.17,0.17 -0.28,0.13 -0.11,-0.04 -0.16,-0.17 -0.12,-0.28 0.22,-0.58 0.4,-1.18 0.53,-1.79 0.26,-0.2 0.45,-0.42 0.56,-0.66zm-1.95 3.25c-0.05,0.1 -0.18,0.15 -0.29,0.1 -0.1,-0.06 -0.15,-0.19 -0.09,-0.29 0.16,-0.34 0.3,-0.67 0.43,-1.01 0.1,-0.26 0.19,-0.53 0.27,-0.8l0.14 -0.06c0.12,-0.05 0.24,-0.1 0.35,-0.16 0,0.03 0,0.05 -0.01,0.08 -0.1,0.37 -0.21,0.73 -0.35,1.09 -0.13,0.36 -0.28,0.71 -0.45,1.05zm0.72 -6.33c-0.04,-0.38 -0.1,-0.76 -0.17,-1.15l-0.02 -0.06c-0.1,-0.47 -0.3,-0.89 -0.56,-1.26 0.01,-0.13 0.02,-0.25 0.02,-0.38 0,-0.09 -0.01,-0.18 -0.01,-0.27 0.48,0.5 0.84,1.15 0.99,1.89l0.02 0.13 0 0.01c0.1,0.49 0.16,0.99 0.19,1.48 -0.13,-0.14 -0.29,-0.26 -0.46,-0.39zm-6.23 -2.47l-0.08 0.12c-0.43,0.65 -0.64,1.45 -0.54,2.27 -0.14,0.09 -0.27,0.19 -0.39,0.29 -0.19,-1.01 0.05,-2.01 0.57,-2.8 0.13,-0.19 0.27,-0.37 0.43,-0.54 0,0.09 -0.01,0.19 -0.01,0.28 0,0.13 0.01,0.25 0.02,0.38zm-1.33 6.28l-0.05 0.08c-0.24,0.32 -0.52,0.62 -0.83,0.88 -0.09,0.07 -0.23,0.06 -0.3,-0.03 -0.08,-0.09 -0.06,-0.23 0.03,-0.3 0.28,-0.24 0.54,-0.51 0.75,-0.81l0.08 -0.1c0.09,0.1 0.2,0.19 0.32,0.28zm5.63 2.88c-0.06,0.1 -0.19,0.13 -0.29,0.07 -0.11,-0.06 -0.14,-0.19 -0.08,-0.29 0.34,-0.58 0.63,-1.2 0.85,-1.84 0.17,-0.03 0.34,-0.08 0.5,-0.12 -0.25,0.76 -0.58,1.49 -0.98,2.18zm0.96 -7.18c-0.03,-0.16 -0.05,-0.32 -0.09,-0.48l-0.01 -0.08c-0.02,-0.09 -0.05,-0.17 -0.07,-0.25 0.09,-0.16 0.17,-0.34 0.24,-0.52 0.12,0.23 0.21,0.49 0.27,0.76l0.03 0.18 0 0c0.03,0.19 0.07,0.39 0.09,0.59 -0.14,-0.07 -0.3,-0.14 -0.46,-0.2zm-4.87 -0.81c-0.09,0.25 -0.13,0.52 -0.14,0.8 -0.15,0.05 -0.29,0.11 -0.42,0.17 -0.03,-0.53 0.09,-1.04 0.32,-1.49 0.07,0.18 0.15,0.36 0.24,0.52zm-0.93 5.55c-0.27,0.41 -0.61,0.79 -0.98,1.12 -0.09,0.07 -0.23,0.06 -0.31,-0.03 -0.07,-0.08 -0.06,-0.22 0.03,-0.3 0.33,-0.29 0.62,-0.62 0.87,-0.98 0.13,0.07 0.26,0.13 0.39,0.19zm3.69 2.58c-0.07,0.1 -0.2,0.12 -0.3,0.05 -0.1,-0.06 -0.13,-0.2 -0.06,-0.29 0.39,-0.57 0.71,-1.17 0.97,-1.8 0.17,-0.01 0.33,-0.03 0.49,-0.06 -0.29,0.74 -0.66,1.45 -1.1,2.1zm-2.81 -2.28c-0.3,0.49 -0.67,0.93 -1.09,1.33 -0.09,0.08 -0.22,0.08 -0.3,-0.01 -0.08,-0.09 -0.08,-0.22 0.01,-0.3 0.36,-0.35 0.68,-0.73 0.95,-1.15 0.14,0.05 0.28,0.09 0.43,0.13zm1.72 2.24c-0.07,0.1 -0.21,0.11 -0.3,0.04 -0.1,-0.07 -0.11,-0.21 -0.04,-0.3 0.41,-0.52 0.75,-1.09 1.04,-1.69 0.16,0 0.32,0 0.47,-0.01 -0.31,0.7 -0.7,1.36 -1.17,1.96zm-0.79 -2.05c-0.07,0.13 -0.15,0.26 -0.24,0.39 -0.26,0.42 -0.58,0.81 -0.92,1.17 -0.09,0.08 -0.22,0.09 -0.31,0 -0.08,-0.08 -0.08,-0.22 0,-0.3 0.33,-0.34 0.62,-0.7 0.87,-1.1 0.06,-0.08 0.1,-0.16 0.15,-0.24 0.15,0.03 0.3,0.06 0.45,0.08zm-0.23 1.87c-0.07,0.09 -0.21,0.1 -0.3,0.02 -0.09,-0.08 -0.1,-0.21 -0.02,-0.3 0.41,-0.47 0.76,-0.98 1.05,-1.53 0.16,0.01 0.31,0.03 0.47,0.03 -0.32,0.64 -0.72,1.24 -1.2,1.78zm4.96 -13.74c0.1,0.05 0.15,0.18 0.1,0.29 -0.06,0.1 -0.18,0.15 -0.29,0.09 -0.68,-0.33 -1.41,-0.55 -2.18,-0.65 -0.74,-0.1 -1.5,-0.07 -2.27,0.08 -0.87,0.18 -1.67,0.51 -2.38,0.96 -0.74,0.47 -1.37,1.07 -1.88,1.76 -0.06,0.1 -0.2,0.12 -0.29,0.05 -0.1,-0.07 -0.12,-0.2 -0.05,-0.3 0.54,-0.73 1.21,-1.37 1.99,-1.87 0.75,-0.48 1.6,-0.83 2.53,-1.02 0.81,-0.16 1.62,-0.19 2.41,-0.09 0.81,0.11 1.59,0.35 2.31,0.7zm3.59 5.31c-0.01,-0.01 -0.01,-0.03 -0.01,-0.04 -0.18,-0.89 -0.53,-1.71 -1,-2.44 -0.49,-0.74 -1.11,-1.39 -1.83,-1.89 -0.1,-0.07 -0.12,-0.2 -0.06,-0.3 0.07,-0.1 0.21,-0.12 0.3,-0.05 0.77,0.53 1.43,1.21 1.95,2.01 0.49,0.75 0.86,1.61 1.05,2.54 0,0.02 0.01,0.03 0.01,0.05 0.06,0.26 0.09,0.53 0.12,0.8 0.02,0.27 0.03,0.54 0.03,0.81 0,0.12 -0.1,0.21 -0.22,0.21 -0.12,0 -0.21,-0.1 -0.21,-0.22 0,-0.25 0,-0.51 -0.03,-0.76 -0.02,-0.24 -0.05,-0.48 -0.1,-0.72z"/>
 </g>
</svg>
