<?xml version="1.0" encoding="UTF-8"?>
<!DOCTYPE svg PUBLIC "-//W3C//DTD SVG 1.1//EN" "http://www.w3.org/Graphics/SVG/1.1/DTD/svg11.dtd">
<!-- Creator: CorelDRAW 2018 (64-Bit) -->
<svg xmlns="http://www.w3.org/2000/svg" xml:space="preserve" width="90px" height="90px" version="1.1" style="shape-rendering:geometricPrecision; text-rendering:geometricPrecision; image-rendering:optimizeQuality; fill-rule:evenodd; clip-rule:evenodd"
viewBox="0 0 4 4"
 xmlns:xlink="http://www.w3.org/1999/xlink">
 <defs>
  <style type="text/css">
   <![CDATA[
    .fil0 {fill:#757475}
   ]]>
  </style>
 </defs>
 <g id="Layer_x0020_1">
  <metadata id="CorelCorpID_0Corel-Layer"/>
  <path class="fil0" d="M2.65 1.82c0.01,0.02 0.02,0.04 0.03,0.07 0.07,0.21 0.16,0.47 0.16,0.69 0,0.3 -0.15,0.53 -0.68,0.53l-0.29 0c-0.52,0 -0.67,-0.23 -0.67,-0.53 0,-0.22 0.09,-0.48 0.16,-0.69 0.01,-0.03 0.02,-0.05 0.03,-0.07 -0.03,-0.01 -0.05,-0.02 -0.06,-0.03l0 0c-0.02,-0.02 -0.04,-0.05 -0.04,-0.08 0,-0.03 0.02,-0.06 0.04,-0.08l0 0c0.01,-0.02 0.04,-0.03 0.07,-0.03l-0.09 -0.36 0.04 -0.01 0.04 -0.02c0.01,0.01 0.02,0.03 0.04,0.04l0 0c0.02,0.01 0.03,0.01 0.05,0.01 0.02,0 0.04,0 0.06,-0.01 0.02,-0.01 0.03,-0.03 0.04,-0.04l0 0c0.02,-0.03 0.04,-0.06 0.07,-0.07l0 0c0.03,-0.02 0.07,-0.03 0.1,-0.03 0.04,0 0.07,0.01 0.1,0.03 0.03,0.01 0.06,0.04 0.07,0.07l-0.03 0.02 0.03 -0.02c0.01,0.01 0.03,0.03 0.04,0.04l0 0c0.02,0.01 0.04,0.01 0.06,0.01 0.02,0 0.04,0 0.05,-0.01 0.02,-0.01 0.04,-0.03 0.05,-0.04l0 0c0.01,-0.03 0.04,-0.06 0.07,-0.07l0 0c0.03,-0.02 0.06,-0.03 0.1,-0.03 0.03,0 0.07,0.01 0.09,0.03 0.03,0.01 0.06,0.04 0.08,0.07l-0.04 0.02 0.04 -0.02c0.01,0.01 0.02,0.03 0.04,0.04l0 0c0.01,0.01 0.03,0.01 0.05,0.01 0.02,0 0.04,0 0.06,-0.01 0.02,-0.01 0.03,-0.03 0.04,-0.04l0.04 0.02 0.04 0.01 -0.09 0.36c0.03,0 0.05,0.01 0.07,0.03l0 0c0.02,0.02 0.03,0.05 0.03,0.08 0,0.03 -0.01,0.06 -0.03,0.08l0 0c-0.01,0.01 -0.03,0.02 -0.06,0.03l0 0zm-0.65 -1.82c0.55,0 1.05,0.22 1.41,0.59 0.36,0.36 0.59,0.86 0.59,1.41 0,0.55 -0.23,1.05 -0.59,1.41 -0.36,0.36 -0.86,0.59 -1.41,0.59 -0.55,0 -1.05,-0.23 -1.41,-0.59 -0.37,-0.36 -0.59,-0.86 -0.59,-1.41 0,-0.55 0.22,-1.05 0.59,-1.41 0.36,-0.37 0.86,-0.59 1.41,-0.59zm1.33 0.67c-0.34,-0.34 -0.81,-0.55 -1.33,-0.55 -0.52,0 -0.99,0.21 -1.33,0.55 -0.34,0.34 -0.55,0.81 -0.55,1.33 0,0.52 0.21,0.99 0.55,1.33 0.34,0.34 0.81,0.55 1.33,0.55 0.52,0 0.99,-0.21 1.33,-0.55 0.34,-0.34 0.55,-0.81 0.55,-1.33 0,-0.52 -0.21,-0.99 -0.55,-1.33zm-1.27 0.08l0 0.19 -0.09 0 0.01 -0.19 0.08 0 0 0zm0.25 0.11l-0.1 0.16 -0.07 -0.04 0.1 -0.17 0.07 0.05 0 0zm-0.51 -0.06l0.09 0.17 -0.07 0.04 -0.1 -0.17 0.08 -0.04 0 0zm-0.64 1.25l0.08 0.03c0.01,-0.04 0.02,-0.07 0.04,-0.1 0.01,-0.04 0.02,-0.08 0.04,-0.12l-0.09 -0.03c-0.01,0.04 -0.02,0.08 -0.04,0.12 -0.01,0.03 -0.02,0.07 -0.03,0.1l0 0zm0.05 1l0.05 -0.07c-0.11,-0.08 -0.15,-0.2 -0.15,-0.34 0,-0.15 0.05,-0.32 0.1,-0.48l-0.08 -0.02c-0.06,0.16 -0.1,0.34 -0.1,0.5 0,0.16 0.05,0.31 0.18,0.41l0 0zm0.28 -1.45l1.06 0 0.07 -0.26c-0.02,0.01 -0.05,0.01 -0.07,0.01 -0.03,0 -0.07,-0.01 -0.1,-0.03l0 0c-0.02,-0.01 -0.05,-0.04 -0.07,-0.07l0 0c-0.01,-0.02 -0.02,-0.03 -0.04,-0.04 -0.01,-0.01 -0.03,-0.01 -0.05,-0.01 -0.02,0 -0.04,0 -0.06,0.01l0 0c-0.02,0.01 -0.03,0.02 -0.04,0.04l-0.04 -0.02 0.04 0.02c-0.02,0.03 -0.04,0.06 -0.07,0.07 -0.03,0.02 -0.07,0.03 -0.1,0.03 -0.04,0 -0.07,-0.01 -0.1,-0.03l0 0c-0.03,-0.01 -0.05,-0.04 -0.07,-0.07l0 0c-0.01,-0.02 -0.03,-0.03 -0.04,-0.04 -0.02,-0.01 -0.04,-0.01 -0.06,-0.01 -0.02,0 -0.04,0 -0.05,0.01l0 0c-0.02,0.01 -0.03,0.02 -0.04,0.04l-0.04 -0.02 0.04 0.02c-0.02,0.03 -0.05,0.06 -0.08,0.07 -0.03,0.02 -0.06,0.03 -0.1,0.03 -0.02,0 -0.04,0 -0.06,-0.01l0.07 0.26 0 0zm-0.01 0.22c-0.01,0.03 -0.02,0.06 -0.04,0.1 -0.07,0.21 -0.16,0.45 -0.16,0.66 0,0.25 0.14,0.44 0.59,0.44l0.29 0c0.46,0 0.6,-0.19 0.6,-0.44 0,-0.21 -0.09,-0.45 -0.17,-0.66 -0.01,-0.04 -0.02,-0.07 -0.03,-0.1l-1.08 0 0 0zm0.76 0.73c0,0.05 0.01,0.09 0.02,0.11 0.02,0.03 0.05,0.04 0.07,0.04 0.03,0 0.05,-0.01 0.07,-0.03 0.02,-0.03 0.03,-0.06 0.03,-0.11 0,-0.04 -0.01,-0.08 -0.03,-0.1 -0.02,-0.02 -0.04,-0.03 -0.07,-0.03 -0.03,0 -0.05,0.01 -0.07,0.03 -0.02,0.02 -0.02,0.05 -0.02,0.09zm-0.59 -0.12l0.09 0c0.05,0 0.09,0 0.1,0 0.02,-0.01 0.03,-0.02 0.04,-0.03 0.01,-0.01 0.01,-0.03 0.01,-0.04 0,-0.02 0,-0.04 -0.02,-0.05 -0.01,-0.01 -0.02,-0.02 -0.04,-0.03 -0.01,0 -0.04,0 -0.09,0l-0.09 0 0 0.15zm-0.12 0.35l0 -0.6 0.25 0c0.06,0 0.11,0.01 0.14,0.02 0.03,0.01 0.05,0.03 0.07,0.06 0.02,0.02 0.02,0.05 0.02,0.09 0,0.04 -0.01,0.08 -0.03,0.11 -0.03,0.03 -0.07,0.05 -0.12,0.05 0.02,0.02 0.05,0.04 0.06,0.05 0.02,0.02 0.04,0.05 0.07,0.1l0.07 0.12 -0.14 0 -0.09 -0.13c-0.03,-0.05 -0.05,-0.08 -0.06,-0.09 -0.01,-0.01 -0.02,-0.02 -0.04,-0.02 -0.01,-0.01 -0.03,-0.01 -0.06,-0.01l-0.02 0 0 0.25 -0.12 0zm0.59 -0.43l0.11 0 0 0.06c0.01,-0.02 0.03,-0.04 0.06,-0.05 0.02,-0.02 0.05,-0.02 0.07,-0.02 0.05,0 0.1,0.02 0.13,0.06 0.04,0.04 0.05,0.09 0.05,0.16 0,0.07 -0.01,0.13 -0.05,0.17 -0.03,0.04 -0.08,0.06 -0.13,0.06 -0.02,0 -0.04,-0.01 -0.06,-0.02 -0.02,-0.01 -0.04,-0.02 -0.06,-0.04l0 0.21 -0.12 0 0 -0.59zm-0.72 -0.62l1.24 0c0,0 0.01,0 0.01,0l0 0c0.01,-0.01 0.01,-0.01 0.01,-0.02 0,-0.01 0,-0.01 -0.01,-0.02l0 0c0,0 -0.01,0 -0.01,0l-1.24 0c0,0 -0.01,0 -0.01,0l0 0c-0.01,0.01 -0.01,0.01 -0.01,0.02 0,0.01 0,0.01 0.01,0.02l0 0c0,0 0.01,0 0.01,0l0 0z"/>
 </g>
</svg>
