<?xml version="1.0" encoding="UTF-8"?>
<!DOCTYPE svg PUBLIC "-//W3C//DTD SVG 1.1//EN" "http://www.w3.org/Graphics/SVG/1.1/DTD/svg11.dtd">
<!-- Creator: CorelDRAW 2018 (64-Bit) -->
<svg xmlns="http://www.w3.org/2000/svg" xml:space="preserve" width="90px" height="90px" version="1.1" style="shape-rendering:geometricPrecision; text-rendering:geometricPrecision; image-rendering:optimizeQuality; fill-rule:evenodd; clip-rule:evenodd"
viewBox="0 0 4.59 4.59"
 xmlns:xlink="http://www.w3.org/1999/xlink">
 <defs>
  <style type="text/css">
   <![CDATA[
    .fil0 {fill:#EEEEEF}
   ]]>
  </style>
 </defs>
 <g id="Layer_x0020_1">
  <metadata id="CorelCorpID_0Corel-Layer"/>
  <path class="fil0" d="M3.05 2.09c0,0.02 0.01,0.05 0.02,0.08 0.09,0.25 0.19,0.54 0.19,0.79 0,0.34 -0.17,0.61 -0.78,0.61l-0.33 0c-0.6,0 -0.78,-0.27 -0.78,-0.61 0,-0.25 0.11,-0.54 0.19,-0.79 0.01,-0.03 0.02,-0.06 0.03,-0.08 -0.03,-0.01 -0.05,-0.02 -0.07,-0.04l0 0c-0.02,-0.02 -0.04,-0.05 -0.04,-0.09 0,-0.03 0.02,-0.06 0.04,-0.09l0 0c0.02,-0.02 0.05,-0.03 0.08,-0.03l-0.1 -0.42 0.05 -0.01 0.04 -0.02c0.02,0.02 0.03,0.03 0.05,0.04l0 0c0.02,0.01 0.04,0.02 0.06,0.02 0.03,0 0.05,-0.01 0.07,-0.02 0.02,-0.01 0.03,-0.02 0.05,-0.04l0 0c0.02,-0.04 0.04,-0.07 0.08,-0.09l0 0c0.03,-0.02 0.07,-0.03 0.11,-0.03 0.04,0 0.08,0.01 0.12,0.03 0.03,0.02 0.06,0.05 0.08,0.09l-0.04 0.02 0.04 -0.02c0.01,0.02 0.03,0.03 0.04,0.04l0 0c0.02,0.01 0.05,0.02 0.07,0.02 0.02,0 0.04,-0.01 0.06,-0.02 0.02,-0.01 0.04,-0.02 0.05,-0.04l0 0c0.02,-0.04 0.05,-0.07 0.08,-0.09l0 0c0.04,-0.02 0.08,-0.03 0.12,-0.03 0.04,0 0.07,0.01 0.11,0.03 0.03,0.02 0.06,0.05 0.08,0.09l-0.04 0.02 0.04 -0.02c0.01,0.02 0.03,0.03 0.05,0.04l0 0c0.02,0.01 0.04,0.02 0.06,0.02 0.03,0 0.05,-0.01 0.07,-0.02 0.01,-0.01 0.03,-0.02 0.04,-0.04l0.05 0.02 0.04 0.01 -0.1 0.42c0.04,0 0.06,0.01 0.09,0.03l0 0c0.02,0.03 0.03,0.06 0.03,0.09 0,0.04 -0.01,0.07 -0.03,0.09l0 0c-0.02,0.02 -0.05,0.03 -0.07,0.04l0 0zm-0.76 -2.09c0.64,0 1.21,0.26 1.63,0.67 0.41,0.42 0.67,0.99 0.67,1.62 0,0.64 -0.26,1.21 -0.67,1.63 -0.42,0.41 -0.99,0.67 -1.63,0.67 -0.63,0 -1.2,-0.26 -1.62,-0.67 -0.41,-0.42 -0.67,-0.99 -0.67,-1.63 0,-0.63 0.26,-1.2 0.67,-1.62 0.42,-0.41 0.99,-0.67 1.62,-0.67zm1.53 0.77c-0.39,-0.4 -0.93,-0.64 -1.53,-0.64 -0.59,0 -1.13,0.24 -1.52,0.64 -0.4,0.39 -0.64,0.93 -0.64,1.52 0,0.6 0.24,1.14 0.64,1.53 0.39,0.39 0.93,0.64 1.52,0.64 0.6,0 1.14,-0.25 1.53,-0.64 0.39,-0.39 0.64,-0.93 0.64,-1.53 0,-0.59 -0.25,-1.13 -0.64,-1.52zm-1.45 0.09l-0.01 0.22 -0.09 0 0 -0.22 0.1 0 0 0zm0.28 0.12l-0.11 0.19 -0.09 -0.05 0.12 -0.19 0.08 0.05 0 0zm-0.58 -0.06l0.11 0.19 -0.09 0.05 -0.11 -0.19 0.09 -0.05 0 0zm-0.74 1.44l0.09 0.03c0.02,-0.05 0.03,-0.09 0.04,-0.12 0.02,-0.05 0.04,-0.09 0.05,-0.13l-0.09 -0.04c-0.02,0.05 -0.03,0.09 -0.05,0.14 -0.01,0.04 -0.03,0.08 -0.04,0.12l0 0zm0.06 1.14l0.06 -0.08c-0.13,-0.09 -0.17,-0.23 -0.17,-0.39 0,-0.17 0.05,-0.36 0.11,-0.55l-0.09 -0.03c-0.07,0.19 -0.12,0.4 -0.12,0.58 0,0.19 0.06,0.36 0.21,0.47l0 0zm0.32 -1.66l1.22 0 0.07 -0.3c-0.02,0.01 -0.04,0.01 -0.07,0.01 -0.04,0 -0.08,-0.01 -0.11,-0.03l0 0c-0.03,-0.02 -0.06,-0.05 -0.08,-0.08l0 0c-0.02,-0.02 -0.03,-0.04 -0.05,-0.05 -0.02,-0.01 -0.04,-0.02 -0.06,-0.02 -0.03,0 -0.05,0.01 -0.07,0.02l0 0c-0.02,0.01 -0.03,0.03 -0.04,0.05l-0.05 -0.03 0.05 0.03c-0.03,0.03 -0.05,0.06 -0.09,0.08 -0.03,0.02 -0.07,0.03 -0.11,0.03 -0.04,0 -0.08,-0.01 -0.11,-0.03l-0.01 0c-0.03,-0.02 -0.06,-0.05 -0.08,-0.08l0 0c-0.01,-0.02 -0.03,-0.04 -0.04,-0.05 -0.02,-0.01 -0.05,-0.02 -0.07,-0.02 -0.02,0 -0.04,0.01 -0.06,0.02l0 0c-0.02,0.01 -0.04,0.03 -0.05,0.05l-0.04 -0.03 0.04 0.03c-0.02,0.03 -0.05,0.06 -0.08,0.08 -0.04,0.02 -0.07,0.03 -0.12,0.03 -0.02,0 -0.04,0 -0.07,-0.01l0.08 0.3 0 0zm-0.01 0.25c-0.02,0.03 -0.03,0.07 -0.04,0.11 -0.09,0.24 -0.19,0.53 -0.19,0.76 0,0.29 0.16,0.51 0.68,0.51l0.33 0c0.53,0 0.68,-0.22 0.68,-0.51 0,-0.23 -0.1,-0.52 -0.18,-0.76 -0.01,-0.04 -0.03,-0.07 -0.04,-0.11l-1.24 0 0 0zm0.87 0.84c0,0.06 0.01,0.1 0.03,0.13 0.02,0.02 0.05,0.04 0.08,0.04 0.03,0 0.06,-0.01 0.08,-0.04 0.02,-0.02 0.03,-0.06 0.03,-0.12 0,-0.05 -0.01,-0.09 -0.03,-0.12 -0.03,-0.02 -0.05,-0.03 -0.08,-0.03 -0.03,0 -0.06,0.01 -0.08,0.03 -0.02,0.03 -0.03,0.07 -0.03,0.11zm-0.68 -0.13l0.1 0c0.07,0 0.11,-0.01 0.13,-0.01 0.01,-0.01 0.03,-0.02 0.04,-0.03 0.01,-0.02 0.01,-0.03 0.01,-0.05 0,-0.03 -0.01,-0.05 -0.02,-0.06 -0.01,-0.01 -0.03,-0.02 -0.05,-0.03 -0.01,0 -0.04,0 -0.1,0l-0.11 0 0 0.18zm-0.14 0.39l0 -0.68 0.29 0c0.08,0 0.13,0 0.16,0.01 0.04,0.02 0.06,0.04 0.08,0.07 0.02,0.03 0.03,0.07 0.03,0.11 0,0.05 -0.01,0.09 -0.04,0.12 -0.03,0.04 -0.08,0.06 -0.14,0.07 0.03,0.01 0.06,0.03 0.08,0.05 0.02,0.03 0.04,0.06 0.08,0.12l0.08 0.13 -0.17 0 -0.1 -0.15c-0.03,-0.05 -0.06,-0.09 -0.07,-0.1 -0.01,-0.01 -0.03,-0.02 -0.04,-0.03 -0.01,0 -0.04,-0.01 -0.07,-0.01l-0.03 0 0 0.29 -0.14 0zm0.69 -0.5l0.12 0 0 0.08c0.02,-0.03 0.04,-0.05 0.06,-0.06 0.03,-0.02 0.06,-0.03 0.09,-0.03 0.06,0 0.11,0.03 0.15,0.07 0.04,0.05 0.06,0.11 0.06,0.19 0,0.08 -0.02,0.15 -0.06,0.19 -0.04,0.05 -0.09,0.07 -0.15,0.07 -0.02,0 -0.05,0 -0.07,-0.01 -0.02,-0.02 -0.05,-0.03 -0.07,-0.06l0 0.25 -0.13 0 0 -0.69zm-0.83 -0.7l1.42 0c0,0 0.01,0 0.01,-0.01l0 0c0.01,0 0.01,-0.01 0.01,-0.02 0,0 0,-0.01 -0.01,-0.02l0 0c0,0 -0.01,0 -0.01,0l-1.42 0c-0.01,0 -0.01,0 -0.02,0l0 0c0,0.01 -0.01,0.02 -0.01,0.02 0,0.01 0.01,0.02 0.01,0.02l0 0c0.01,0.01 0.01,0.01 0.02,0.01l0 0z"/>
 </g>
</svg>
