<?xml version="1.0" encoding="UTF-8"?>
<!DOCTYPE svg PUBLIC "-//W3C//DTD SVG 1.1//EN" "http://www.w3.org/Graphics/SVG/1.1/DTD/svg11.dtd">
<!-- Creator: CorelDRAW 2018 (64-Bit) -->
<svg xmlns="http://www.w3.org/2000/svg" xml:space="preserve" width="90px" height="90px" version="1.1" style="shape-rendering:geometricPrecision; text-rendering:geometricPrecision; image-rendering:optimizeQuality; fill-rule:evenodd; clip-rule:evenodd"
viewBox="0 0 3.95 3.95"
 xmlns:xlink="http://www.w3.org/1999/xlink">
 <defs>
  <style type="text/css">
   <![CDATA[
    .fil0 {fill:#EEEEEF;fill-rule:nonzero}
   ]]>
  </style>
 </defs>
 <g id="Layer_x0020_1">
  <metadata id="CorelCorpID_0Corel-Layer"/>
  <path class="fil0" d="M1.97 0c0.55,0 1.04,0.22 1.4,0.58 0.36,0.36 0.58,0.85 0.58,1.39 0,0.55 -0.22,1.04 -0.58,1.4 -0.36,0.36 -0.85,0.58 -1.4,0.58 -0.54,0 -1.03,-0.22 -1.39,-0.58 -0.36,-0.36 -0.58,-0.85 -0.58,-1.4 0,-0.54 0.22,-1.03 0.58,-1.39 0.36,-0.36 0.85,-0.58 1.39,-0.58zm1.32 0.66c-0.34,-0.34 -0.8,-0.55 -1.32,-0.55 -0.51,0 -0.97,0.21 -1.31,0.55 -0.34,0.34 -0.55,0.8 -0.55,1.31 0,0.52 0.21,0.98 0.55,1.32 0.34,0.34 0.8,0.54 1.31,0.54 0.52,0 0.98,-0.2 1.32,-0.54 0.34,-0.34 0.54,-0.8 0.54,-1.32 0,-0.51 -0.2,-0.97 -0.54,-1.31z"/>
 </g>
</svg>
