<?xml version="1.0" encoding="UTF-8"?>
<!DOCTYPE svg PUBLIC "-//W3C//DTD SVG 1.1//EN" "http://www.w3.org/Graphics/SVG/1.1/DTD/svg11.dtd">
<!-- Creator: CorelDRAW 2018 (64-Bit) -->
<svg xmlns="http://www.w3.org/2000/svg" xml:space="preserve" width="35px" height="35px" version="1.1" style="shape-rendering:geometricPrecision; text-rendering:geometricPrecision; image-rendering:optimizeQuality; fill-rule:evenodd; clip-rule:evenodd"
viewBox="0 0 1.75 1.75"
 xmlns:xlink="http://www.w3.org/1999/xlink">
 <defs>
  <style type="text/css">
   <![CDATA[
    .fil0 {fill:#98AAB4}
   ]]>
  </style>
 </defs>
 <g id="Layer_x0020_1">
  <metadata id="CorelCorpID_0Corel-Layer"/>
  <path class="fil0" d="M0.82 1.06l-0.44 0c0,0 -0.06,-0.01 -0.06,-0.07 0,-0.06 0.04,-0.07 0.1,-0.07 0.06,0 0.38,0 0.38,0 0,0 0.09,-0.01 0.15,-0.04 0.07,-0.04 0.23,-0.13 0.33,-0.11 0.1,0.01 0.34,0.06 0.34,0.06l-0.11 0.35c0,0 -0.08,-0.07 -0.17,-0.04 -0.1,0.03 -0.28,0.09 -0.3,0.1 -0.03,0.01 -0.1,0.02 -0.17,-0.01 -0.06,-0.02 -0.33,-0.14 -0.33,-0.14l0.26 0c0,0 0.04,-0.01 0.02,-0.03zm0.06 -1.06c0.46,0 0.84,0.36 0.87,0.82l-0.04 -0.01c-0.03,-0.01 -0.03,0.01 -0.05,0.04l-0.11 0.34c0,0 -0.02,0.04 0.03,0.06 0.03,0 0.06,0.01 0.08,0.02 -0.14,0.29 -0.44,0.48 -0.78,0.48 -0.49,0 -0.88,-0.39 -0.88,-0.87 0,-0.49 0.39,-0.88 0.88,-0.88zm-0.42 0.73l0.25 0.15 0.06 0 -0.26 -0.15c0,0 -0.06,-0.02 -0.05,0zm-0.19 -0.02l0.28 0.17 0.09 0 -0.28 -0.16c0,0 -0.07,-0.04 -0.09,-0.01zm0.2 0.17c0,0 -0.07,0 -0.1,0 -0.03,0 -0.06,0.05 -0.06,0.05l-0.2 -0.12c0,0 -0.04,-0.03 -0.02,-0.08 0.03,-0.05 0.11,-0.02 0.11,-0.02l0.27 0.17z"/>
 </g>
</svg>
