<?xml version="1.0" encoding="UTF-8"?>
<!DOCTYPE svg PUBLIC "-//W3C//DTD SVG 1.1//EN" "http://www.w3.org/Graphics/SVG/1.1/DTD/svg11.dtd">
<!-- Creator: CorelDRAW 2018 (64-Bit) -->
<svg xmlns="http://www.w3.org/2000/svg" xml:space="preserve" width="35px" height="35px" version="1.1" style="shape-rendering:geometricPrecision; text-rendering:geometricPrecision; image-rendering:optimizeQuality; fill-rule:evenodd; clip-rule:evenodd"
viewBox="0 0 1.3 1.3"
 xmlns:xlink="http://www.w3.org/1999/xlink">
 <defs>
  <style type="text/css">
   <![CDATA[
    .fil0 {fill:#EEEEEF}
   ]]>
  </style>
 </defs>
 <g id="Layer_x0020_1">
  <metadata id="CorelCorpID_0Corel-Layer"/>
  <path class="fil0" d="M0.65 0c0.36,0 0.65,0.29 0.65,0.65 0,0.36 -0.29,0.65 -0.65,0.65 -0.36,0 -0.65,-0.29 -0.65,-0.65 0,-0.36 0.29,-0.65 0.65,-0.65zm-0.23 0.61c0,0.09 0.02,0.14 0.08,0.19 0.01,0.02 0.02,0.04 0.03,0.05 0.05,0.11 -0.03,0.26 0.07,0.26 0.16,0 0.15,0.02 0.15,-0.11 0,-0.03 -0.06,-0.04 -0.09,-0.07 0.18,0 0.04,0.01 0.14,-0.12 0.01,-0.01 0.02,-0.02 0.03,-0.03 0.05,-0.07 0.07,-0.17 0.03,-0.25 -0.03,-0.07 -0.11,-0.13 -0.19,-0.13 -0.08,0 -0.12,0 -0.18,0.07 -0.03,0.03 -0.07,0.08 -0.07,0.14zm-0.12 0.04c0.03,0 0.07,0.01 0.07,-0.02 0,-0.04 -0.03,-0.03 -0.08,-0.03 -0.03,0 -0.04,0.05 0.01,0.05zm0.63 -0.03c0,0.04 0.04,0.03 0.07,0.03 0.05,0 0.04,-0.05 0.02,-0.05 -0.04,0 -0.09,-0.01 -0.09,0.02zm-0.55 -0.29c-0.01,0 -0.02,0.01 -0.03,0.02 0,0.02 0.07,0.09 0.08,0.09 0.01,0 0.05,-0.02 0.01,-0.06 -0.01,-0.01 -0.04,-0.05 -0.06,-0.05zm0.54 0c-0.02,0 -0.08,0.06 -0.08,0.08 0,0.01 0.01,0.03 0.03,0.03 0.01,0 0.08,-0.07 0.08,-0.08 0,-0.02 -0.01,-0.03 -0.03,-0.03zm-0.29 -0.11c0,0.05 -0.02,0.13 0.02,0.13 0.04,0 0.03,-0.08 0.03,-0.13 0,-0.04 -0.05,-0.04 -0.05,0z"/>
 </g>
</svg>
