<?xml version="1.0" encoding="UTF-8"?>
<!DOCTYPE svg PUBLIC "-//W3C//DTD SVG 1.1//EN" "http://www.w3.org/Graphics/SVG/1.1/DTD/svg11.dtd">
<!-- Creator: CorelDRAW 2018 (64-Bit) -->
<svg xmlns="http://www.w3.org/2000/svg" xml:space="preserve" width="35px" height="35px" version="1.1" style="shape-rendering:geometricPrecision; text-rendering:geometricPrecision; image-rendering:optimizeQuality; fill-rule:evenodd; clip-rule:evenodd"
viewBox="0 0 1.56 1.56"
 xmlns:xlink="http://www.w3.org/1999/xlink">
 <defs>
  <style type="text/css">
   <![CDATA[
    .fil0 {fill:#088378}
   ]]>
  </style>
 </defs>
 <g id="Layer_x0020_1">
  <metadata id="CorelCorpID_0Corel-Layer"/>
  <path class="fil0" d="M0.78 0c0.43,0 0.78,0.35 0.78,0.78 0,0.43 -0.35,0.78 -0.78,0.78 -0.43,0 -0.78,-0.35 -0.78,-0.78 0,-0.43 0.35,-0.78 0.78,-0.78zm-0.27 1.14l-0.12 0 0 -0.72 0.12 0 0 0.72zm0.39 -0.72c0.04,0 0.07,0.01 0.1,0.02 0.04,0.01 0.06,0.02 0.09,0.04 0.02,0.02 0.04,0.04 0.06,0.07 0.01,0.03 0.02,0.06 0.02,0.1l0 0.27c0,0.04 -0.01,0.07 -0.02,0.1 -0.02,0.03 -0.04,0.05 -0.06,0.07 -0.03,0.02 -0.05,0.03 -0.09,0.04 -0.03,0.01 -0.06,0.01 -0.1,0.01l-0.25 0 0 -0.72 0.25 0zm0 0.6c0.02,0 0.04,0 0.06,0 0.02,-0.01 0.03,-0.01 0.05,-0.02 0.01,-0.01 0.02,-0.02 0.03,-0.03 0.01,-0.02 0.01,-0.03 0.01,-0.05l0 -0.27c0,-0.02 0,-0.04 -0.01,-0.05 -0.01,-0.01 -0.02,-0.02 -0.03,-0.03 -0.02,-0.01 -0.03,-0.02 -0.05,-0.02 -0.02,-0.01 -0.04,-0.01 -0.06,-0.01l-0.14 0 0 0.48 0.14 0z"/>
 </g>
</svg>
