<?xml version="1.0" encoding="UTF-8"?>
<!DOCTYPE svg PUBLIC "-//W3C//DTD SVG 1.1//EN" "http://www.w3.org/Graphics/SVG/1.1/DTD/svg11.dtd">
<!-- Creator: CorelDRAW 2018 (64-Bit) -->
<svg xmlns="http://www.w3.org/2000/svg" xml:space="preserve" width="35px" height="34px" version="1.1" style="shape-rendering:geometricPrecision; text-rendering:geometricPrecision; image-rendering:optimizeQuality; fill-rule:evenodd; clip-rule:evenodd"
viewBox="0 0 1.75 1.69"
 xmlns:xlink="http://www.w3.org/1999/xlink">
 <defs>
  <style type="text/css">
   <![CDATA[
    .fil0 {fill:#008FD7}
   ]]>
  </style>
 </defs>
 <g id="Layer_x0020_1">
  <metadata id="CorelCorpID_0Corel-Layer"/>
  <path class="fil0" d="M0.29 1.63l0 0c-0.04,0 -0.06,-0.02 -0.06,-0.05 0,-0.04 0.02,-0.06 0.06,-0.06 0.03,0 0.06,0.02 0.06,0.06 0,0.03 -0.03,0.05 -0.06,0.05zm0.69 -0.9l0 0c0,-0.03 0.02,-0.05 0.05,-0.05 0.02,0 0.05,0.02 0.05,0.05 0,0.02 -0.03,0.04 -0.05,0.04 -0.03,0 -0.05,-0.02 -0.05,-0.04zm0.14 -0.02c0,-0.01 -0.01,-0.03 -0.02,-0.04l0.07 -0.44c0.01,-0.01 0,-0.03 -0.02,-0.03l0 0c-0.02,-0.01 -0.03,0 -0.04,0.02l-0.13 0.42c-0.03,0.02 -0.05,0.05 -0.05,0.09 0,0.05 0.04,0.09 0.1,0.09 0.01,0 0.02,0 0.03,0l0.26 0.14c0.02,0 0.04,0 0.05,-0.01l0 0c0,-0.02 0,-0.04 -0.01,-0.05l-0.24 -0.19zm0.63 0.02l0 0c0,0.32 -0.21,0.59 -0.5,0.69l0 -0.11c0.24,-0.09 0.41,-0.32 0.41,-0.58 0,-0.35 -0.29,-0.63 -0.63,-0.63 -0.35,0 -0.63,0.28 -0.63,0.63 0,0.03 0,0.06 0.01,0.1l-0.1 0c-0.01,-0.04 -0.01,-0.07 -0.01,-0.1 0,-0.4 0.33,-0.73 0.73,-0.73 0.4,0 0.72,0.33 0.72,0.73zm-0.69 0.52l0 0 -0.22 0c0,0 -0.01,0 -0.01,-0.01l0 -0.17c0,0 0.01,0 0.01,0l0.04 0c0,0 0.01,0 0.01,0l0.17 0.17c0.01,0 0.01,0.01 0,0.01zm0.09 -0.01l0 0 -0.22 -0.22c-0.01,-0.01 -0.03,-0.02 -0.05,-0.02l-0.12 0 0 -0.04c0,-0.03 -0.02,-0.06 -0.05,-0.06l-0.65 0c-0.03,0 -0.06,0.03 -0.06,0.06l0 0.38 1.18 0 0 -0.04c0,-0.02 -0.01,-0.04 -0.03,-0.06zm0.03 0.13l0 0 0 0.13c0,0.03 -0.03,0.05 -0.06,0.05l-0.06 0c-0.01,-0.07 -0.08,-0.13 -0.16,-0.13 -0.07,0 -0.14,0.06 -0.15,0.13l-0.31 0c-0.01,-0.07 -0.07,-0.13 -0.15,-0.13 -0.08,0 -0.15,0.06 -0.16,0.13l-0.07 0c-0.03,0 -0.06,-0.02 -0.06,-0.05l0 -0.13 1.18 0zm-0.28 0.26l0 0c-0.03,0 -0.05,-0.02 -0.05,-0.05 0,-0.04 0.02,-0.06 0.05,-0.06 0.04,0 0.06,0.02 0.06,0.06 0,0.03 -0.02,0.05 -0.06,0.05zm0 -0.17l0 0c-0.06,0 -0.11,0.05 -0.11,0.12 0,0.06 0.05,0.11 0.11,0.11 0.07,0 0.12,-0.05 0.12,-0.11 0,-0.07 -0.05,-0.12 -0.12,-0.12zm-0.61 0l0 0c-0.07,0 -0.12,0.05 -0.12,0.12 0,0.06 0.05,0.11 0.12,0.11 0.06,0 0.12,-0.05 0.12,-0.11 0,-0.07 -0.06,-0.12 -0.12,-0.12z"/>
 </g>
</svg>
