<?xml version="1.0" encoding="UTF-8"?>
<!DOCTYPE svg PUBLIC "-//W3C//DTD SVG 1.1//EN" "http://www.w3.org/Graphics/SVG/1.1/DTD/svg11.dtd">
<!-- Creator: CorelDRAW 2018 (64-Bit) -->
<svg xmlns="http://www.w3.org/2000/svg" xml:space="preserve" width="35px" height="35px" version="1.1" style="shape-rendering:geometricPrecision; text-rendering:geometricPrecision; image-rendering:optimizeQuality; fill-rule:evenodd; clip-rule:evenodd"
viewBox="0 0 1.3 1.3"
 xmlns:xlink="http://www.w3.org/1999/xlink">
 <defs>
  <style type="text/css">
   <![CDATA[
    .fil0 {fill:#EEEEEF}
   ]]>
  </style>
 </defs>
 <g id="Layer_x0020_1">
  <metadata id="CorelCorpID_0Corel-Layer"/>
  <path class="fil0" d="M0.65 0c0.36,0 0.65,0.29 0.65,0.65 0,0.36 -0.29,0.65 -0.65,0.65 -0.36,0 -0.65,-0.29 -0.65,-0.65 0,-0.36 0.29,-0.65 0.65,-0.65zm-0.29 0.41c0.03,0 0.06,0 0.09,0.02 0.03,0.01 0.06,0.03 0.08,0.05 0.02,0.02 0.03,0.04 0.04,0.06 0.02,0.03 0.02,0.05 0.03,0.08l0 0 0.1 0 0 0c0.01,-0.03 0.02,-0.05 0.03,-0.08 0.01,-0.02 0.03,-0.04 0.04,-0.06 0.05,-0.05 0.11,-0.07 0.18,-0.07 0.03,0 0.06,0 0.09,0.02 0.03,0.01 0.06,0.03 0.08,0.05 0.04,0.04 0.07,0.1 0.07,0.17 0,0.03 -0.01,0.07 -0.02,0.09 -0.01,0.03 -0.03,0.06 -0.05,0.08 -0.02,0.03 -0.05,0.04 -0.08,0.06 -0.03,0.01 -0.06,0.02 -0.09,0.02 -0.04,0 -0.07,-0.01 -0.1,-0.02 -0.03,-0.02 -0.05,-0.03 -0.08,-0.06 -0.01,-0.01 -0.03,-0.04 -0.04,-0.06 -0.01,-0.02 -0.02,-0.05 -0.03,-0.07l0 -0.01 -0.1 0 0 0.01c-0.01,0.02 -0.01,0.05 -0.03,0.07 -0.01,0.02 -0.02,0.05 -0.04,0.06 -0.02,0.03 -0.05,0.04 -0.08,0.06 -0.03,0.01 -0.06,0.02 -0.09,0.02 -0.04,0 -0.07,-0.01 -0.1,-0.02 -0.03,-0.02 -0.05,-0.03 -0.08,-0.06 -0.02,-0.02 -0.04,-0.05 -0.05,-0.08 -0.01,-0.02 -0.02,-0.06 -0.02,-0.09 0,-0.03 0.01,-0.06 0.02,-0.09 0.01,-0.03 0.03,-0.06 0.05,-0.08 0.03,-0.02 0.05,-0.04 0.08,-0.05 0.03,-0.02 0.06,-0.02 0.1,-0.02zm0.16 0.21l0 0c0,-0.01 -0.01,-0.03 -0.02,-0.04 0,-0.02 -0.02,-0.03 -0.03,-0.05 -0.01,-0.01 -0.03,-0.02 -0.05,-0.03 -0.02,-0.01 -0.04,-0.01 -0.06,-0.01 -0.03,0 -0.05,0 -0.07,0.01 -0.02,0.01 -0.03,0.02 -0.05,0.03 -0.02,0.02 -0.03,0.04 -0.04,0.06 0,0.02 -0.01,0.04 -0.01,0.06 0,0.02 0.01,0.05 0.01,0.06 0.01,0.02 0.02,0.04 0.04,0.06 0.02,0.01 0.03,0.03 0.05,0.03 0.02,0.01 0.04,0.02 0.07,0.02 0.02,0 0.04,-0.01 0.06,-0.02 0.02,0 0.04,-0.02 0.05,-0.03 0.01,-0.01 0.03,-0.03 0.03,-0.04 0.01,-0.02 0.02,-0.03 0.02,-0.05l0 0 -0.09 0c-0.01,0.01 -0.01,0.02 -0.02,0.03 -0.02,0.01 -0.03,0.02 -0.05,0.02 -0.02,0 -0.04,-0.01 -0.06,-0.02 -0.01,-0.02 -0.02,-0.04 -0.02,-0.06 0,-0.02 0.01,-0.04 0.02,-0.05 0.02,-0.02 0.04,-0.03 0.06,-0.03 0.02,0 0.03,0.01 0.05,0.02 0.01,0.01 0.01,0.02 0.02,0.03l0.09 0zm0.43 -0.05c0.02,0 0.04,0.01 0.05,0.03 0.02,0.01 0.02,0.03 0.02,0.05 0,0.02 0,0.04 -0.02,0.06 -0.01,0.01 -0.03,0.02 -0.05,0.02 -0.02,0 -0.04,-0.01 -0.05,-0.02 -0.01,-0.01 -0.02,-0.02 -0.03,-0.03l-0.09 0 0 0c0.01,0.02 0.01,0.03 0.02,0.05 0.01,0.01 0.02,0.03 0.03,0.04 0.02,0.01 0.03,0.03 0.05,0.03 0.02,0.01 0.04,0.02 0.07,0.02 0.02,0 0.04,-0.01 0.06,-0.02 0.02,0 0.04,-0.02 0.05,-0.03 0.02,-0.02 0.03,-0.04 0.04,-0.06 0.01,-0.01 0.01,-0.04 0.01,-0.06 0,-0.02 0,-0.04 -0.01,-0.06 -0.01,-0.02 -0.02,-0.04 -0.04,-0.06 -0.01,-0.01 -0.03,-0.02 -0.05,-0.03 -0.02,-0.01 -0.04,-0.01 -0.06,-0.01 -0.03,0 -0.05,0 -0.07,0.01 -0.02,0.01 -0.03,0.02 -0.05,0.03 -0.01,0.02 -0.02,0.03 -0.03,0.05 -0.01,0.01 -0.01,0.03 -0.02,0.04l0 0 0.09 0c0.01,-0.01 0.02,-0.02 0.03,-0.03 0.01,-0.01 0.03,-0.02 0.05,-0.02z"/>
 </g>
</svg>
