<?xml version="1.0" encoding="UTF-8"?>
<!DOCTYPE svg PUBLIC "-//W3C//DTD SVG 1.1//EN" "http://www.w3.org/Graphics/SVG/1.1/DTD/svg11.dtd">
<!-- Creator: CorelDRAW 2018 (64-Bit) -->
<svg xmlns="http://www.w3.org/2000/svg" xml:space="preserve" width="35px" height="35px" version="1.1" style="shape-rendering:geometricPrecision; text-rendering:geometricPrecision; image-rendering:optimizeQuality; fill-rule:evenodd; clip-rule:evenodd"
viewBox="0 0 1.2 1.2"
 xmlns:xlink="http://www.w3.org/1999/xlink">
 <defs>
  <style type="text/css">
   <![CDATA[
    .fil0 {fill:#FEFEFE}
   ]]>
  </style>
 </defs>
 <g id="Layer_x0020_1">
  <metadata id="CorelCorpID_0Corel-Layer"/>
  <path class="fil0" d="M0.6 0c0.33,0 0.6,0.27 0.6,0.6 0,0.33 -0.27,0.6 -0.6,0.6 -0.33,0 -0.6,-0.27 -0.6,-0.6 0,-0.33 0.27,-0.6 0.6,-0.6zm-0.21 0.87l-0.09 0 0 -0.55 0.09 0 0 0.55zm0.3 -0.55c0.03,0 0.05,0.01 0.08,0.01 0.02,0.01 0.05,0.02 0.06,0.04 0.02,0.01 0.04,0.03 0.05,0.05 0.01,0.02 0.02,0.05 0.02,0.08l0 0.2c0,0.03 -0.01,0.06 -0.02,0.08 -0.01,0.02 -0.03,0.04 -0.05,0.05 -0.01,0.02 -0.04,0.03 -0.06,0.03 -0.03,0.01 -0.05,0.01 -0.08,0.01l-0.2 0 0 -0.55 0.2 0zm0 0.46c0.02,0 0.03,0 0.05,0 0.01,0 0.02,-0.01 0.03,-0.01 0.01,-0.01 0.02,-0.02 0.03,-0.03 0,-0.01 0.01,-0.02 0.01,-0.04l0 -0.2c0,-0.02 -0.01,-0.03 -0.01,-0.04 -0.01,-0.01 -0.02,-0.02 -0.03,-0.03 -0.01,0 -0.02,-0.01 -0.03,-0.01 -0.02,0 -0.03,-0.01 -0.05,-0.01l-0.11 0 0 0.37 0.11 0z"/>
 </g>
</svg>
