<?xml version="1.0" encoding="UTF-8"?>
<!DOCTYPE svg PUBLIC "-//W3C//DTD SVG 1.1//EN" "http://www.w3.org/Graphics/SVG/1.1/DTD/svg11.dtd">
<!-- Creator: CorelDRAW 2018 (64-Bit) -->
<svg xmlns="http://www.w3.org/2000/svg" xml:space="preserve" width="30px" height="35px" version="1.1" style="shape-rendering:geometricPrecision; text-rendering:geometricPrecision; image-rendering:optimizeQuality; fill-rule:evenodd; clip-rule:evenodd"
viewBox="0 0 0.87 1.01"
 xmlns:xlink="http://www.w3.org/1999/xlink">
 <defs>
  <style type="text/css">
   <![CDATA[
    .fil0 {fill:#FEFEFE}
   ]]>
  </style>
 </defs>
 <g id="Layer_x0020_1">
  <metadata id="CorelCorpID_0Corel-Layer"/>
  <path class="fil0" d="M0.54 0.24c0,-0.06 -0.04,-0.11 -0.1,-0.11 -0.06,0 -0.11,0.05 -0.11,0.11 0,0.07 0.05,0.12 0.1,0.12 0.06,0 0.11,-0.05 0.11,-0.12zm-0.44 0.17l0.13 0c0,0.01 0.01,0.02 0.02,0.03 0.05,0.08 0.11,0.15 0.17,0.22 0.01,0.01 0.02,0.01 0.03,0 0.03,-0.04 0.07,-0.09 0.1,-0.14 0.03,-0.03 0.06,-0.07 0.09,-0.11l0.13 0c0.06,0 0.1,0.04 0.1,0.1l0 0.4c0,0.06 -0.04,0.1 -0.1,0.1l-0.67 0c-0.06,0 -0.1,-0.04 -0.1,-0.1l0 -0.4c0,-0.06 0.04,-0.1 0.1,-0.1zm-0.06 0.1l0.4 0.2 0.39 -0.2 -0.25 0.19 0.21 0.22 -0.26 -0.18 -0.09 0.07 -0.1 -0.07 -0.26 0.18 0.21 -0.22 -0.25 -0.19zm0.39 -0.51c0.12,0 0.21,0.09 0.22,0.21 0.01,0.05 -0.01,0.1 -0.03,0.14 -0.02,0.05 -0.06,0.09 -0.09,0.13 -0.03,0.04 -0.06,0.08 -0.09,0.11 0,0.01 -0.01,0.01 -0.01,0.01 -0.05,-0.06 -0.1,-0.12 -0.15,-0.18 -0.03,-0.05 -0.05,-0.09 -0.06,-0.14 -0.02,-0.13 0.06,-0.25 0.18,-0.28 0.01,0 0.02,0 0.03,0z"/>
 </g>
</svg>
