<?xml version="1.0" encoding="UTF-8"?>
<!DOCTYPE svg PUBLIC "-//W3C//DTD SVG 1.1//EN" "http://www.w3.org/Graphics/SVG/1.1/DTD/svg11.dtd">
<!-- Creator: CorelDRAW 2018 (64-Bit) -->
<svg xmlns="http://www.w3.org/2000/svg" xml:space="preserve" width="34px" height="35px" version="1.1" style="shape-rendering:geometricPrecision; text-rendering:geometricPrecision; image-rendering:optimizeQuality; fill-rule:evenodd; clip-rule:evenodd"
viewBox="0 0 0.99 1.01"
 xmlns:xlink="http://www.w3.org/1999/xlink">
 <defs>
  <style type="text/css">
   <![CDATA[
    .fil0 {fill:#757475}
   ]]>
  </style>
 </defs>
 <g id="Layer_x0020_1">
  <metadata id="CorelCorpID_0Corel-Layer"/>
  <path class="fil0" d="M0.8 0c0.02,0 0.03,0.01 0.04,0.02 0.01,0.01 0.01,0.02 0.01,0.04l0 0.26c0.01,0.01 0.02,0.02 0.02,0.04 0.01,0.01 0.01,0.02 0.02,0.04l0.05 0c0.02,0 0.03,0 0.04,0.01 0,0.01 0.01,0.02 0.01,0.03l0 0.37c0,0.01 -0.01,0.02 -0.02,0.03 0,0.01 -0.01,0.01 -0.03,0.01l-0.05 0 0 0.16 -0.12 -0.14c-0.04,0.04 -0.08,0.06 -0.13,0.08 -0.05,0.03 -0.11,0.04 -0.17,0.04 -0.05,0 -0.1,-0.01 -0.15,-0.03 -0.04,-0.02 -0.08,-0.04 -0.12,-0.07l-0.05 0.05 0 -0.09c-0.01,-0.02 -0.03,-0.04 -0.05,-0.06 -0.01,-0.03 -0.02,-0.05 -0.03,-0.07l-0.02 0c-0.01,0 -0.03,-0.01 -0.03,-0.02 -0.01,-0.01 -0.02,-0.02 -0.02,-0.04l0 -0.6c0,-0.02 0.01,-0.03 0.01,-0.04 0.01,-0.01 0.03,-0.02 0.04,-0.02l0.75 0zm-0.58 0.43l0.41 0c0.01,0 0.02,0 0.02,0 0.01,0.01 0.01,0.02 0.01,0.03 0,0 0,0.01 -0.01,0.02 0,0 -0.01,0 -0.02,0l-0.41 0c-0.01,0 -0.02,0 -0.02,0 0,-0.01 -0.01,-0.02 -0.01,-0.02 0,-0.01 0.01,-0.02 0.01,-0.03 0.01,0 0.01,0 0.02,0zm0 -0.1l0.41 0c0.01,0 0.02,0 0.02,0.01 0.01,0 0.01,0.01 0.01,0.02 0,0 0,0.01 -0.01,0.02 0,0 -0.01,0.01 -0.02,0.01l-0.41 0c-0.01,0 -0.01,-0.01 -0.02,-0.01 0,-0.01 -0.01,-0.02 -0.01,-0.02 0,-0.01 0.01,-0.02 0.01,-0.02 0.01,-0.01 0.01,-0.01 0.02,-0.01zm-0.02 -0.05c0,-0.01 -0.01,-0.01 -0.01,-0.02 0,-0.01 0.01,-0.02 0.01,-0.02 0,-0.01 0.01,-0.01 0.02,-0.01l0.41 0c0.01,0 0.02,0 0.02,0.01 0.01,0 0.01,0.01 0.01,0.02 0,0.01 0,0.01 -0.01,0.02 0,0.01 -0.01,0.01 -0.02,0.01l-0.41 0c-0.01,0 -0.02,0 -0.02,-0.01zm-0.15 -0.22l0 0.6 0.16 0 0 0.14 0.12 -0.13c0,-0.01 0.01,-0.01 0.01,-0.01l0.46 0 0 -0.6 -0.75 0z"/>
 </g>
</svg>
