<?xml version="1.0" encoding="UTF-8"?>
<!DOCTYPE svg PUBLIC "-//W3C//DTD SVG 1.1//EN" "http://www.w3.org/Graphics/SVG/1.1/DTD/svg11.dtd">
<!-- Creator: CorelDRAW 2018 (64-Bit) -->
<svg xmlns="http://www.w3.org/2000/svg" xml:space="preserve" width="35px" height="35px" version="1.1" style="shape-rendering:geometricPrecision; text-rendering:geometricPrecision; image-rendering:optimizeQuality; fill-rule:evenodd; clip-rule:evenodd"
viewBox="0 0 1.04 1.04"
 xmlns:xlink="http://www.w3.org/1999/xlink">
 <defs>
  <style type="text/css">
   <![CDATA[
    .fil0 {fill:#757475}
   ]]>
  </style>
 </defs>
 <g id="Layer_x0020_1">
  <metadata id="CorelCorpID_0Corel-Layer"/>
  <path class="fil0" d="M0.52 0c0.28,0 0.52,0.23 0.52,0.52 0,0.28 -0.24,0.52 -0.52,0.52 -0.29,0 -0.52,-0.24 -0.52,-0.52 0,-0.29 0.23,-0.52 0.52,-0.52zm0.04 0.72c0,0 0.02,0.04 0.03,0.04 0.02,0.01 0.04,-0.01 0.03,-0.03 0,-0.01 -0.02,-0.03 -0.03,-0.04 -0.02,-0.01 -0.04,0.01 -0.03,0.03zm-0.04 -0.02c0,0 0,0.01 -0.01,0.01 -0.02,0.02 -0.01,0.05 0.01,0.05 0.02,0.01 0.03,0 0.04,-0.01 -0.01,-0.01 -0.03,-0.03 -0.01,-0.05 0,-0.02 0.02,-0.03 0.04,-0.02 0,-0.01 0,-0.02 0.01,-0.03 0.02,-0.03 0.04,-0.02 0.06,-0.01 0.01,-0.04 0.04,-0.04 0.07,-0.03 0,-0.03 0.01,-0.05 0.03,-0.05 0.03,-0.01 0.04,0.01 0.06,0.02 0.01,-0.01 0.02,-0.01 0.02,-0.02l-0.06 -0.09c-0.01,-0.02 -0.04,-0.08 -0.04,-0.1 -0.03,0.01 -0.04,0.02 -0.08,0.02 0.01,0.01 0.03,0.03 0.02,0.05 -0.01,0.03 -0.05,0.03 -0.08,0.02 -0.02,-0.01 -0.04,-0.05 -0.05,-0.07 -0.01,0 -0.03,0 -0.05,0.01l-0.06 0.03c-0.01,0.01 -0.01,0.01 -0.01,0.02 -0.01,0 -0.01,0 -0.02,0.01l-0.02 0.03c-0.01,0 -0.01,0.01 -0.01,0.01l-0.08 0.09c-0.04,0.04 -0.01,0.06 0.01,0.06 0.02,0.01 0.03,0 0.03,-0.01l0.07 -0.08c0.01,-0.01 0.02,-0.03 0.03,-0.02 0,0 0.01,0 -0.01,0.02l-0.04 0.05c-0.01,0.01 -0.02,0.02 -0.03,0.03 0,0 -0.01,0.01 -0.01,0.02 0,0.02 0.02,0.04 0.05,0.03 0.01,0 0.01,0 0.01,-0.01l0.04 -0.05c0.01,0 0.01,0 0.02,-0.01 0,-0.01 0,-0.01 0.01,-0.01 0,0.02 0,0.02 -0.02,0.04 0,0 0,0 -0.01,0.01 -0.02,0.03 -0.05,0.05 -0.02,0.07 0.03,0.03 0.05,-0.01 0.06,-0.02 0.01,-0.01 0,0 0.01,-0.01l0.03 -0.03c0.01,-0.01 0.03,-0.01 -0.01,0.03zm-0.2 -0.15c0,-0.01 0,-0.01 0.01,-0.01l0.01 -0.02c0,0 0.01,0 0.01,-0.01l0.06 -0.06c0.01,-0.02 0.03,-0.03 0.05,-0.04 0.01,-0.01 0.03,-0.02 0.04,-0.03 0.01,0 0.05,0 0.06,0 0.01,0.02 0.03,0.06 0.04,0.06 0.01,0.02 0.05,0.02 0.06,0 0.01,-0.02 -0.02,-0.05 -0.02,-0.07 -0.01,-0.01 -0.03,-0.05 -0.04,-0.06 -0.01,0 -0.07,0 -0.08,0 -0.04,0 -0.05,0 -0.07,0.02 -0.04,0.03 -0.08,0.06 -0.13,0.05 -0.01,0.02 -0.02,0.04 -0.03,0.05 -0.01,0.03 -0.03,0.06 -0.04,0.09 -0.01,0.02 -0.02,0.03 -0.03,0.04 0,0.01 0.05,0.03 0.06,0.04l0.04 -0.05zm-0.15 0.04c0.06,-0.04 0.12,-0.17 0.14,-0.23 -0.02,-0.01 -0.11,-0.07 -0.13,-0.08 -0.01,0.01 -0.02,0.05 -0.03,0.07 -0.01,0.02 -0.02,0.04 -0.03,0.06 -0.02,0.04 -0.04,0.09 -0.07,0.13l0.12 0.05zm0.57 -0.24c0.02,0.05 0.04,0.1 0.08,0.14l0.05 0.08c0.01,0 0.11,-0.04 0.11,-0.05 0,-0.02 -0.02,-0.04 -0.03,-0.06l-0.06 -0.13c-0.01,-0.01 -0.02,-0.05 -0.03,-0.06 -0.01,0.01 -0.12,0.07 -0.12,0.08zm-0.14 0.33c0.01,0 0.02,0.02 0.02,0.02 0.01,0.01 0.02,0.02 0.02,0.03 0.02,0.02 0.06,0 0.06,-0.03 -0.01,-0.01 -0.02,-0.02 -0.02,-0.03 -0.01,-0.01 -0.02,-0.01 -0.03,-0.02 -0.01,-0.01 -0.02,-0.01 -0.03,-0.01 -0.01,0.01 -0.02,0.02 -0.02,0.04zm0.08 -0.03c0,0.01 0.01,0.02 0.01,0.02 0.01,0.01 0.02,0.02 0.02,0.02 0.02,0.02 0.05,-0.01 0.05,-0.03 0,-0.01 -0.02,-0.03 -0.04,-0.04 -0.02,-0.01 -0.05,0 -0.04,0.03zm0.06 -0.05c0,0.02 0.02,0.04 0.03,0.04 0.03,0 0.06,-0.03 0.03,-0.06 -0.04,-0.03 -0.06,0 -0.06,0.02z"/>
 </g>
</svg>
