<?xml version="1.0" encoding="UTF-8"?>
<!DOCTYPE svg PUBLIC "-//W3C//DTD SVG 1.1//EN" "http://www.w3.org/Graphics/SVG/1.1/DTD/svg11.dtd">
<!-- Creator: CorelDRAW 2018 (64-Bit) -->
<svg xmlns="http://www.w3.org/2000/svg" xml:space="preserve" width="35px" height="35px" version="1.1" style="shape-rendering:geometricPrecision; text-rendering:geometricPrecision; image-rendering:optimizeQuality; fill-rule:evenodd; clip-rule:evenodd"
viewBox="0 0 1.54 1.54"
 xmlns:xlink="http://www.w3.org/1999/xlink">
 <defs>
  <style type="text/css">
   <![CDATA[
    .fil0 {fill:#088378;fill-rule:nonzero}
   ]]>
  </style>
 </defs>
 <g id="Layer_x0020_1">
  <metadata id="CorelCorpID_0Corel-Layer"/>
  <path class="fil0" d="M0.08 0.42c0.01,-0.01 0.02,-0.01 0.03,-0.01 0.02,0.01 0.02,0.02 0.01,0.03 -0.03,0.07 -0.06,0.15 -0.07,0.23 -0.01,0.08 -0.01,0.16 0.01,0.24 0,0 0,0 0,0.01 0,0 0,0.01 0,0.01 0,0.01 0.01,0.01 0.01,0.02 0,0.01 -0.01,0.02 -0.02,0.02 -0.01,0.01 -0.02,0 -0.03,-0.01 0,-0.01 0,-0.01 0,-0.02 0,0 0,-0.01 0,-0.01 0,0 0,0 0,-0.01 -0.02,-0.08 -0.02,-0.17 -0.01,-0.25 0.01,-0.09 0.04,-0.17 0.07,-0.25zm0.86 0.38c0.24,0.05 0.29,0.21 0.29,0.29 0,0.09 -0.21,0.19 -0.46,0.19 -0.25,0 -0.45,-0.1 -0.45,-0.19 0,-0.08 0.04,-0.24 0.28,-0.29 0.05,0.03 0.11,0.06 0.17,0.06 0.07,0 0.12,-0.03 0.17,-0.06zm-0.17 -0.53c0.13,0 0.24,0.11 0.24,0.25 0,0.15 -0.11,0.26 -0.24,0.26 -0.13,0 -0.23,-0.11 -0.23,-0.26 0,-0.14 0.1,-0.25 0.23,-0.25zm0.69 0.86c-0.01,0.01 -0.02,0.02 -0.03,0.02 -0.01,0 -0.02,-0.02 -0.02,-0.03 0.01,-0.08 0.01,-0.16 0.01,-0.24 0,-0.07 -0.01,-0.14 -0.02,-0.21l0 0 -0.01 -0.02c-0.02,-0.12 -0.07,-0.22 -0.15,-0.3 -0.07,-0.08 -0.17,-0.15 -0.27,-0.18 -0.02,-0.01 -0.02,-0.02 -0.02,-0.03 0,-0.01 0.02,-0.02 0.03,-0.01 0.11,0.03 0.22,0.1 0.3,0.19 0.07,0.08 0.13,0.18 0.15,0.3l0 0 0.01 0.02c0.01,0.08 0.02,0.16 0.03,0.24 0,0.09 0,0.17 -0.01,0.25zm-0.6 -1.03c0.02,0 0.02,0.01 0.02,0.02 0,0.02 -0.01,0.03 -0.02,0.02 -0.04,0 -0.07,0 -0.11,0 -0.03,0 -0.07,0 -0.1,0.01l0 0c-0.17,0.04 -0.32,0.14 -0.41,0.27 -0.08,0.13 -0.12,0.29 -0.09,0.46l0 0.02c0.01,0.03 0.01,0.06 0,0.1 -0.01,0.03 -0.03,0.06 -0.05,0.08 -0.01,0.01 -0.02,0.01 -0.03,0 -0.01,-0.01 -0.01,-0.02 0,-0.03 0.01,-0.02 0.03,-0.04 0.03,-0.07 0.01,-0.02 0.01,-0.04 0.01,-0.06l0 -0.01c-0.04,-0.19 0,-0.37 0.1,-0.51 0.09,-0.15 0.24,-0.26 0.43,-0.29l0 0c0.04,-0.01 0.07,-0.01 0.11,-0.02 0.04,0 0.08,0 0.11,0.01zm0.47 1.21c-0.01,0.01 -0.02,0.01 -0.03,0.01 -0.01,0 -0.02,-0.01 -0.02,-0.03 0.02,-0.07 0.04,-0.14 0.04,-0.21 0.01,-0.08 0.01,-0.15 0.01,-0.23 0,-0.01 0,-0.02 0.02,-0.02 0.01,0 0.02,0.01 0.02,0.02 0.01,0.08 0,0.15 0,0.23 -0.01,0.08 -0.02,0.15 -0.04,0.23zm0.03 -0.58c0,0.01 -0.01,0.02 -0.02,0.03 -0.01,0 -0.02,-0.01 -0.03,-0.02 0,-0.01 0,-0.03 0,-0.04 0,-0.01 0,-0.01 -0.01,-0.02l0 -0.01c-0.03,-0.15 -0.11,-0.27 -0.23,-0.35 -0.05,-0.03 -0.11,-0.06 -0.17,-0.07 -0.04,-0.02 -0.08,-0.03 -0.13,-0.03 -0.04,0 -0.08,0.01 -0.12,0.03 -0.1,0.02 -0.19,0.07 -0.26,0.14 -0.08,0.08 -0.13,0.18 -0.15,0.29 0,0.01 -0.01,0.02 -0.03,0.02 -0.01,0 -0.02,-0.02 -0.01,-0.03 0.02,-0.11 0.07,-0.22 0.15,-0.31 0.08,-0.08 0.19,-0.14 0.31,-0.16 0.15,-0.03 0.31,0 0.44,0.09 0.12,0.07 0.21,0.2 0.24,0.35l0 0 0.01 0.02c0,0.01 0,0.02 0,0.03 0,0.02 0.01,0.03 0.01,0.04zm-1.17 0.07c0,-0.02 0.01,-0.03 0.02,-0.03 0.01,0 0.02,0.01 0.02,0.02 0,0.02 0,0.03 0.01,0.05 0,0.01 0,0.01 0,0.02l0 0.02c0.01,0.05 0.01,0.11 -0.01,0.16 -0.02,0.05 -0.05,0.1 -0.09,0.13 -0.01,0.01 -0.02,0.01 -0.03,0 -0.01,-0.01 -0.01,-0.03 0,-0.03 0.04,-0.03 0.06,-0.07 0.08,-0.12 0.01,-0.03 0.02,-0.08 0.01,-0.12l0 -0.01c0,-0.02 -0.01,-0.03 -0.01,-0.05 0,-0.01 0,-0.03 0,-0.04zm0 0.45c-0.01,0.01 -0.02,0.01 -0.03,0 -0.01,-0.01 0,-0.03 0.01,-0.04 0.04,-0.03 0.07,-0.08 0.1,-0.13l0 0.01c0,0.02 0,0.04 0.01,0.06 -0.02,0.04 -0.05,0.07 -0.09,0.1zm0.11 -0.3c0,-0.02 0,-0.04 -0.01,-0.07l0 -0.01c-0.02,-0.09 -0.01,-0.18 0.02,-0.26 0.03,-0.09 0.08,-0.16 0.15,-0.22 0.01,-0.01 0.03,-0.01 0.03,0 0.01,0.01 0.01,0.03 0,0.04 -0.06,0.05 -0.11,0.11 -0.14,0.19 -0.02,0.07 -0.03,0.15 -0.02,0.22l0 0.02c0.01,0.01 0.01,0.02 0.01,0.03 -0.02,0.02 -0.03,0.04 -0.04,0.06zm0.7 -0.61c0.03,0.01 0.06,0.03 0.08,0.05 0.01,0.01 0.01,0.02 0.01,0.03 -0.01,0.01 -0.03,0.01 -0.03,0.01l-0.02 -0.01c-0.01,-0.03 -0.02,-0.06 -0.04,-0.08zm0.13 0.17c0,-0.01 0,-0.02 0.01,-0.03 0.01,-0.01 0.02,-0.01 0.03,0 0.02,0.03 0.04,0.06 0.05,0.09 0.01,0.03 0.02,0.06 0.03,0.1l0 0 0 0.01c0.03,0.12 0.04,0.25 0.03,0.37l0 0c-0.01,-0.04 -0.02,-0.08 -0.04,-0.12 -0.01,-0.08 -0.01,-0.16 -0.03,-0.24l0 -0.01c-0.01,-0.03 -0.02,-0.06 -0.03,-0.09 -0.01,-0.03 -0.03,-0.06 -0.05,-0.08zm0.13 0.63c-0.01,0.1 -0.03,0.19 -0.07,0.27 0,0.02 -0.01,0.02 -0.03,0.02 -0.01,-0.01 -0.01,-0.02 -0.01,-0.03 0.02,-0.06 0.04,-0.12 0.06,-0.19 0.02,-0.02 0.04,-0.04 0.05,-0.07zm-0.2 0.34c0,0.01 -0.02,0.02 -0.03,0.01 -0.01,0 -0.01,-0.02 -0.01,-0.03 0.02,-0.03 0.03,-0.07 0.05,-0.1 0.01,-0.03 0.02,-0.06 0.02,-0.09l0.02 0c0.01,-0.01 0.02,-0.01 0.04,-0.02 0,0 0,0.01 -0.01,0.01 -0.01,0.04 -0.02,0.07 -0.03,0.11 -0.02,0.04 -0.03,0.08 -0.05,0.11zm0.08 -0.66c-0.01,-0.04 -0.01,-0.08 -0.02,-0.12l0 0c-0.01,-0.05 -0.03,-0.1 -0.06,-0.14 0,-0.01 0,-0.02 0,-0.04 0,0 0,-0.01 0,-0.02 0.05,0.05 0.09,0.12 0.1,0.19l0 0.02 0 0c0.01,0.05 0.02,0.1 0.02,0.15 -0.01,-0.01 -0.03,-0.02 -0.04,-0.04zm-0.65 -0.26l-0.01 0.02c-0.05,0.06 -0.07,0.15 -0.06,0.23 -0.01,0.01 -0.03,0.02 -0.04,0.03 -0.02,-0.1 0.01,-0.2 0.06,-0.29 0.01,-0.02 0.03,-0.04 0.05,-0.05 0,0.01 -0.01,0.02 -0.01,0.02 0,0.02 0.01,0.03 0.01,0.04zm-0.14 0.66l-0.01 0.01c-0.02,0.03 -0.05,0.06 -0.08,0.09 -0.01,0.01 -0.03,0.01 -0.04,0 0,-0.01 0,-0.03 0.01,-0.04 0.03,-0.02 0.05,-0.05 0.08,-0.08l0 -0.01c0.01,0.01 0.03,0.02 0.04,0.03zm0.58 0.3c0,0.01 -0.02,0.01 -0.03,0.01 -0.01,-0.01 -0.01,-0.02 0,-0.03 0.03,-0.06 0.06,-0.13 0.09,-0.19 0.01,-0.01 0.03,-0.01 0.05,-0.02 -0.03,0.08 -0.06,0.16 -0.11,0.23zm0.1 -0.75c0,-0.02 0,-0.03 0,-0.05l-0.01 -0.01c0,-0.01 0,-0.01 0,-0.02 0.01,-0.02 0.02,-0.04 0.02,-0.06 0.01,0.03 0.02,0.05 0.03,0.08l0 0.02 0 0c0.01,0.02 0.01,0.04 0.01,0.06 -0.01,-0.01 -0.03,-0.01 -0.05,-0.02zm-0.5 -0.08c-0.01,0.02 -0.02,0.05 -0.02,0.08 -0.01,0.01 -0.03,0.01 -0.04,0.02 0,-0.06 0.01,-0.11 0.03,-0.16 0.01,0.02 0.02,0.04 0.03,0.06zm-0.1 0.58c-0.03,0.04 -0.06,0.08 -0.1,0.11 -0.01,0.01 -0.03,0.01 -0.03,0 -0.01,-0.01 -0.01,-0.02 0,-0.03 0.03,-0.03 0.06,-0.07 0.09,-0.1 0.01,0 0.03,0.01 0.04,0.02zm0.38 0.26c0,0.01 -0.02,0.02 -0.03,0.01 -0.01,-0.01 -0.01,-0.02 0,-0.03 0.04,-0.06 0.07,-0.12 0.1,-0.19 0.02,0 0.03,0 0.05,0 -0.03,0.07 -0.07,0.15 -0.12,0.21zm-0.29 -0.23c-0.03,0.05 -0.07,0.09 -0.11,0.14 -0.01,0 -0.02,0 -0.03,-0.01 -0.01,0 -0.01,-0.02 0,-0.03 0.04,-0.03 0.07,-0.07 0.1,-0.12 0.01,0.01 0.03,0.01 0.04,0.02zm0.18 0.23c-0.01,0.01 -0.02,0.01 -0.03,0 -0.01,0 -0.01,-0.02 0,-0.03 0.04,-0.05 0.07,-0.11 0.1,-0.17 0.02,0 0.04,0 0.05,0 -0.03,0.07 -0.07,0.14 -0.12,0.2zm-0.08 -0.21c-0.01,0.01 -0.02,0.02 -0.03,0.04 -0.02,0.04 -0.06,0.08 -0.09,0.12 -0.01,0.01 -0.03,0.01 -0.03,0 -0.01,-0.01 -0.01,-0.02 0,-0.03 0.03,-0.04 0.06,-0.08 0.09,-0.12 0,-0.01 0.01,-0.01 0.01,-0.02 0.02,0 0.03,0 0.05,0.01zm-0.02 0.19c-0.01,0.01 -0.03,0.01 -0.04,0 -0.01,0 -0.01,-0.02 0,-0.03 0.04,-0.05 0.08,-0.1 0.11,-0.16 0.02,0 0.03,0.01 0.05,0.01 -0.03,0.06 -0.08,0.13 -0.12,0.18zm0.51 -1.43c0.01,0 0.02,0.02 0.01,0.03 0,0.01 -0.02,0.01 -0.03,0.01 -0.07,-0.04 -0.15,-0.06 -0.22,-0.07 -0.08,-0.01 -0.16,-0.01 -0.24,0.01 -0.09,0.02 -0.18,0.05 -0.25,0.1 -0.08,0.05 -0.14,0.11 -0.2,0.18 0,0.01 -0.02,0.02 -0.03,0.01 -0.01,-0.01 -0.01,-0.02 0,-0.03 0.05,-0.08 0.12,-0.15 0.21,-0.2 0.07,-0.05 0.16,-0.09 0.26,-0.1 0.08,-0.02 0.17,-0.02 0.25,-0.01 0.09,0.01 0.17,0.03 0.24,0.07zm0.38 0.55c0,0 0,0 0,0 -0.02,-0.09 -0.06,-0.18 -0.11,-0.26 -0.05,-0.07 -0.12,-0.14 -0.19,-0.19 -0.01,-0.01 -0.01,-0.02 -0.01,-0.03 0.01,-0.01 0.03,-0.02 0.04,-0.01 0.08,0.06 0.14,0.13 0.2,0.21 0.05,0.08 0.09,0.17 0.11,0.27 0,0 0,0 0,0 0,0.03 0.01,0.06 0.01,0.08 0,0.03 0.01,0.06 0,0.09 0,0.01 -0.01,0.02 -0.02,0.02 -0.01,0 -0.02,-0.01 -0.02,-0.02 0,-0.03 0,-0.06 0,-0.08 -0.01,-0.03 -0.01,-0.05 -0.01,-0.08z"/>
 </g>
</svg>
