<?xml version="1.0" encoding="UTF-8"?>
<!DOCTYPE svg PUBLIC "-//W3C//DTD SVG 1.1//EN" "http://www.w3.org/Graphics/SVG/1.1/DTD/svg11.dtd">
<!-- Creator: CorelDRAW 2018 (64-Bit) -->
<svg xmlns="http://www.w3.org/2000/svg" xml:space="preserve" width="35px" height="35px" version="1.1" style="shape-rendering:geometricPrecision; text-rendering:geometricPrecision; image-rendering:optimizeQuality; fill-rule:evenodd; clip-rule:evenodd"
viewBox="0 0 1.75 1.75"
 xmlns:xlink="http://www.w3.org/1999/xlink">
 <defs>
  <style type="text/css">
   <![CDATA[
    .fil0 {fill:#F08519}
   ]]>
  </style>
 </defs>
 <g id="Layer_x0020_1">
  <metadata id="CorelCorpID_0Corel-Layer"/>
  <path class="fil0" d="M0.88 0c0.48,0 0.87,0.39 0.87,0.88 0,0.48 -0.39,0.87 -0.87,0.87 -0.49,0 -0.88,-0.39 -0.88,-0.87 0,-0.49 0.39,-0.88 0.88,-0.88zm0.46 1.14l-0.66 0 0 0.08 -0.27 -0.16 0.27 -0.15 0 0.07 0.66 0 0 0.16zm-0.93 -0.37l0.67 0 0 0.08 0.26 -0.16 -0.26 -0.15 0 0.07 -0.67 0 0 0.16z"/>
 </g>
</svg>
