<?xml version="1.0" encoding="UTF-8"?>
<!DOCTYPE svg PUBLIC "-//W3C//DTD SVG 1.1//EN" "http://www.w3.org/Graphics/SVG/1.1/DTD/svg11.dtd">
<!-- Creator: CorelDRAW 2018 (64-Bit) -->
<svg xmlns="http://www.w3.org/2000/svg" xml:space="preserve" width="35px" height="35px" version="1.1" style="shape-rendering:geometricPrecision; text-rendering:geometricPrecision; image-rendering:optimizeQuality; fill-rule:evenodd; clip-rule:evenodd"
viewBox="0 0 1.04 1.04"
 xmlns:xlink="http://www.w3.org/1999/xlink">
 <defs>
  <style type="text/css">
   <![CDATA[
    .fil0 {fill:#757475}
   ]]>
  </style>
 </defs>
 <g id="Layer_x0020_1">
  <metadata id="CorelCorpID_0Corel-Layer"/>
  <path class="fil0" d="M0.52 0c0.28,0 0.52,0.23 0.52,0.52 0,0.28 -0.24,0.52 -0.52,0.52 -0.29,0 -0.52,-0.24 -0.52,-0.52 0,-0.29 0.23,-0.52 0.52,-0.52zm0.3 0.51l0 0.23c0,0.02 -0.01,0.04 -0.03,0.05 -0.01,0.02 -0.03,0.03 -0.05,0.03l-0.44 0c-0.02,0 -0.04,-0.01 -0.06,-0.03 -0.01,-0.01 -0.02,-0.03 -0.02,-0.05l0 -0.44c0,-0.02 0.01,-0.04 0.02,-0.06 0.02,-0.01 0.04,-0.02 0.06,-0.02l0.44 0c0.02,0 0.04,0.01 0.05,0.02 0.02,0.02 0.03,0.04 0.03,0.06l0 0.04 -0.07 0 0 -0.04c0,0 0,0 -0.01,-0.01 0,0 0,0 0,0l-0.44 0c0,0 0,0 -0.01,0 0,0.01 0,0.01 0,0.01l0 0.44c0,0 0,0 0,0 0.01,0 0.01,0.01 0.01,0.01l0.44 0c0,0 0,0 0,-0.01 0.01,0 0.01,0 0.01,0l0 -0.18 -0.2 0.14c-0.01,0.02 -0.04,0.01 -0.05,0l-0.11 -0.11c-0.01,-0.01 -0.01,-0.04 0,-0.06 0.02,-0.01 0.05,-0.01 0.07,0l0.07 0.08 0.31 -0.22c0.02,-0.02 0.04,-0.01 0.06,0.01 0.01,0.02 0.01,0.04 -0.01,0.06l-0.07 0.05z"/>
 </g>
</svg>
