<?xml version="1.0" encoding="UTF-8"?>
<!DOCTYPE svg PUBLIC "-//W3C//DTD SVG 1.1//EN" "http://www.w3.org/Graphics/SVG/1.1/DTD/svg11.dtd">
<!-- Creator: CorelDRAW 2018 (64-Bit) -->
<svg xmlns="http://www.w3.org/2000/svg" xml:space="preserve" width="35px" height="35px" version="1.1" style="shape-rendering:geometricPrecision; text-rendering:geometricPrecision; image-rendering:optimizeQuality; fill-rule:evenodd; clip-rule:evenodd"
viewBox="0 0 1.18 1.18"
 xmlns:xlink="http://www.w3.org/1999/xlink">
 <defs>
  <style type="text/css">
   <![CDATA[
    .fil0 {fill:#FEFEFE}
   ]]>
  </style>
 </defs>
 <g id="Layer_x0020_1">
  <metadata id="CorelCorpID_0Corel-Layer"/>
  <path class="fil0" d="M0.33 0.19c0.05,0 0.1,0.05 0.1,0.11 0,0.05 -0.05,0.1 -0.1,0.1 -0.05,0 -0.1,-0.05 -0.1,-0.1 0,-0.06 0.05,-0.11 0.1,-0.11zm0.65 0.85l0.12 0 0 0.04 -0.12 0 0 0.06 0.13 0 0 0.04 -0.17 0 0 -0.25 0.17 0 0 0.04 -0.13 0 0 0.07zm-0.36 -0.11l0.05 0 0.07 0.17 0.07 -0.17 0.04 0 0 0.25 -0.04 0 0 -0.11 0.01 -0.07 -0.01 0 -0.02 0.06 -0.04 0.09 -0.03 0 -0.04 -0.09 -0.02 -0.06 0 0 0 0.07 0 0.11 -0.04 0 0 -0.25zm-0.06 0.25l-0.05 0 -0.02 -0.06 -0.09 0 -0.02 0.06 -0.05 0 0.09 -0.25 0.05 0 0.09 0.25zm-0.12 -0.2l-0.01 0.04 -0.02 0.06 0.07 0 -0.03 -0.07 0 -0.03 -0.01 0zm-0.36 0.2l0 -0.25 0.04 0 0.09 0.15 0.02 0.05 0 0 0 -0.05 0 -0.15 0.04 0 0 0.25 -0.05 0 -0.08 -0.14 -0.03 -0.05 0 0 0.01 0.05 0 0.14 -0.04 0zm0.04 -1.18l0.94 0c0.03,0 0.06,0.01 0.09,0.04l0 0c0.02,0.02 0.03,0.05 0.03,0.08l0 0.53c0,0.03 -0.01,0.06 -0.03,0.09l0 0c-0.03,0.02 -0.06,0.03 -0.09,0.03l-0.94 0c-0.03,0 -0.06,-0.01 -0.08,-0.03l0 0c-0.03,-0.03 -0.04,-0.06 -0.04,-0.09l0 -0.53c0,-0.03 0.01,-0.06 0.04,-0.08l0 0c0.02,-0.03 0.05,-0.04 0.08,-0.04zm0.94 0.06l-0.94 0c-0.01,0 -0.03,0.01 -0.04,0.02l0 0c-0.01,0.01 -0.02,0.03 -0.02,0.04l0 0.53c0,0.02 0.01,0.03 0.02,0.04l0 0c0.01,0.01 0.03,0.02 0.04,0.02l0.94 0c0.01,0 0.03,-0.01 0.04,-0.02l0 0c0.01,-0.01 0.02,-0.02 0.02,-0.04l0 -0.53c0,-0.01 -0.01,-0.03 -0.02,-0.04l0 0c-0.01,-0.01 -0.03,-0.02 -0.04,-0.02zm-0.45 0.17l0.4 0c0.01,0 0.03,0.01 0.03,0.03l0 0c0,0.02 -0.02,0.03 -0.03,0.03l-0.4 0c-0.02,0 -0.03,-0.01 -0.03,-0.03l0 0c0,-0.02 0.01,-0.03 0.03,-0.03zm0 0.26l0.21 0c0.02,0 0.03,0.02 0.03,0.04l0 0c0,0.01 -0.01,0.03 -0.03,0.03l-0.21 0c-0.02,0 -0.03,-0.02 -0.03,-0.03l0 0c0,-0.02 0.01,-0.04 0.03,-0.04zm0 -0.13l0.4 0c0.01,0 0.03,0.02 0.03,0.03l0 0c0,0.02 -0.02,0.03 -0.03,0.03l-0.4 0c-0.02,0 -0.03,-0.01 -0.03,-0.03l0 0c0,-0.01 0.01,-0.03 0.03,-0.03zm-0.21 0.05c0.1,0.02 0.12,0.08 0.12,0.12 0,0.04 -0.09,0.08 -0.19,0.08 -0.1,0 -0.19,-0.04 -0.19,-0.08 0,-0.04 0.02,-0.1 0.12,-0.12 0.02,0.01 0.04,0.02 0.07,0.02 0.03,0 0.05,-0.01 0.07,-0.02z"/>
 </g>
</svg>
