<?xml version="1.0" encoding="UTF-8"?>
<!DOCTYPE svg PUBLIC "-//W3C//DTD SVG 1.1//EN" "http://www.w3.org/Graphics/SVG/1.1/DTD/svg11.dtd">
<!-- Creator: CorelDRAW 2018 (64-Bit) -->
<svg xmlns="http://www.w3.org/2000/svg" xml:space="preserve" width="30px" height="35px" version="1.1" style="shape-rendering:geometricPrecision; text-rendering:geometricPrecision; image-rendering:optimizeQuality; fill-rule:evenodd; clip-rule:evenodd"
viewBox="0 0 1.13 1.32"
 xmlns:xlink="http://www.w3.org/1999/xlink">
 <defs>
  <style type="text/css">
   <![CDATA[
    .fil0 {fill:#088378}
   ]]>
  </style>
 </defs>
 <g id="Layer_x0020_1">
  <metadata id="CorelCorpID_0Corel-Layer"/>
  <path class="fil0" d="M0.7 0.32c0,-0.09 -0.05,-0.15 -0.13,-0.15 -0.08,0 -0.14,0.06 -0.14,0.15 0,0.08 0.06,0.14 0.14,0.14 0.07,0 0.13,-0.06 0.13,-0.14zm-0.58 0.22l0.17 0c0.01,0.01 0.02,0.02 0.03,0.04 0.07,0.1 0.15,0.19 0.23,0.28 0.01,0.02 0.02,0.02 0.03,0 0.05,-0.06 0.09,-0.12 0.14,-0.18 0.04,-0.05 0.08,-0.09 0.11,-0.14l0.18 0c0.07,0 0.12,0.05 0.12,0.12l0 0.53c0,0.07 -0.05,0.13 -0.12,0.13l-0.89 0c-0.06,0 -0.12,-0.06 -0.12,-0.13l0 -0.53c0,-0.07 0.06,-0.12 0.12,-0.12zm-0.07 0.13l0.52 0.25 0.52 -0.25 -0.34 0.24 0.28 0.29 -0.34 -0.24 -0.12 0.09 -0.13 -0.09 -0.34 0.24 0.28 -0.29 -0.33 -0.24zm0.51 -0.67c0.15,0 0.27,0.12 0.29,0.28 0,0.06 -0.01,0.12 -0.04,0.17 -0.03,0.07 -0.07,0.12 -0.12,0.18 -0.04,0.05 -0.07,0.1 -0.11,0.15 -0.01,0.01 -0.02,0.01 -0.02,0 -0.07,-0.08 -0.13,-0.16 -0.19,-0.24 -0.04,-0.05 -0.07,-0.11 -0.08,-0.18 -0.03,-0.17 0.08,-0.33 0.23,-0.36 0.01,0 0.03,0 0.04,0z"/>
 </g>
</svg>
