<?xml version="1.0" encoding="UTF-8"?>
<!DOCTYPE svg PUBLIC "-//W3C//DTD SVG 1.1//EN" "http://www.w3.org/Graphics/SVG/1.1/DTD/svg11.dtd">
<!-- Creator: CorelDRAW 2018 (64-Bit) -->
<svg xmlns="http://www.w3.org/2000/svg" xml:space="preserve" width="35px" height="35px" version="1.1" style="shape-rendering:geometricPrecision; text-rendering:geometricPrecision; image-rendering:optimizeQuality; fill-rule:evenodd; clip-rule:evenodd"
viewBox="0 0 1.75 1.75"
 xmlns:xlink="http://www.w3.org/1999/xlink">
 <defs>
  <style type="text/css">
   <![CDATA[
    .fil0 {fill:#009B4C}
   ]]>
  </style>
 </defs>
 <g id="Layer_x0020_1">
  <metadata id="CorelCorpID_0Corel-Layer"/>
  <path class="fil0" d="M0.88 0c0.48,0 0.87,0.39 0.87,0.88 0,0.48 -0.39,0.87 -0.87,0.87 -0.49,0 -0.88,-0.39 -0.88,-0.87 0,-0.49 0.39,-0.88 0.88,-0.88zm-0.45 1.42c-0.15,-0.17 -0.09,-0.47 -0.09,-0.47 0,0 0,0 0,-0.01 0.01,0 0.02,0 0.03,0.01 0.03,0.06 0.09,0.08 0.15,0.11 0.07,0.03 0.13,0.06 0.19,0.13 0.11,0.14 0.11,0.36 0.11,0.36 0,0.01 -0.01,0.02 -0.02,0.02 0,0 -0.22,0.01 -0.37,-0.15zm0.64 -1.09c0.05,0 0.1,0.04 0.1,0.09 0,0.06 -0.05,0.1 -0.1,0.1 -0.05,0 -0.1,-0.04 -0.1,-0.1 0,-0.05 0.05,-0.09 0.1,-0.09zm-0.2 1.23c0,0 -0.04,-0.32 0.01,-0.49 0.05,-0.16 0.19,-0.27 0.27,-0.33l0.02 -0.02c0.08,-0.06 0.19,-0.21 0.19,-0.21 0.01,-0.01 0.02,-0.01 0.02,-0.01 0.01,0 0.01,0.01 0.01,0.01 0.01,0.02 0.1,0.26 0.1,0.48 -0.01,0.11 -0.02,0.24 -0.1,0.36 -0.09,0.11 -0.24,0.2 -0.51,0.23 -0.01,0 -0.01,-0.01 -0.01,-0.02zm0.02 -0.86c-0.02,0.12 -0.17,0.33 -0.18,0.34 -0.01,0.01 -0.02,0.01 -0.02,0.01 -0.08,-0.05 -0.13,-0.11 -0.16,-0.18 -0.03,-0.08 -0.03,-0.17 -0.01,-0.26 0.03,-0.16 0.21,-0.29 0.21,-0.29 0.01,0 0.02,0 0.02,0.01 0,0 0.04,0.04 0.07,0.1l0 0.01c0.04,0.06 0.09,0.15 0.07,0.26z"/>
 </g>
</svg>
