<?xml version="1.0" encoding="UTF-8"?>
<!DOCTYPE svg PUBLIC "-//W3C//DTD SVG 1.1//EN" "http://www.w3.org/Graphics/SVG/1.1/DTD/svg11.dtd">
<!-- Creator: CorelDRAW 2018 (64-Bit) -->
<svg xmlns="http://www.w3.org/2000/svg" xml:space="preserve" width="133px" height="198px" version="1.1" style="shape-rendering:geometricPrecision; text-rendering:geometricPrecision; image-rendering:optimizeQuality; fill-rule:evenodd; clip-rule:evenodd"
viewBox="0 0 8.89 13.21"
 xmlns:xlink="http://www.w3.org/1999/xlink">
 <defs>
  <style type="text/css">
   <![CDATA[
    .fil0 {fill:#FEFEFE}
   ]]>
  </style>
 </defs>
 <g id="Layer_x0020_1">
  <metadata id="CorelCorpID_0Corel-Layer"/>
  <path class="fil0" d="M4.45 3.38c0.29,0 0.56,0.12 0.75,0.31l-0.01 0c0.26,-0.75 0.3,-1.54 -0.74,-1.54 -0.51,0 -0.76,0.19 -0.86,0.46 -0.01,0 -0.02,-0.01 -0.03,-0.02 0.3,0.18 0.59,0.45 0.8,0.79 0.03,0 0.06,0 0.09,0zm-4.1 9.66l-0.1 0 0 -0.61 0.1 0 0 0.26 0.27 0 0 -0.26 0.1 0 0 0.61 -0.1 0 0 -0.25 -0.27 0 0 0.25zm0.77 -0.3c0,-0.02 0,-0.03 -0.01,-0.03 0,-0.01 -0.01,-0.02 -0.02,-0.02 -0.01,-0.01 -0.02,-0.01 -0.03,-0.02 -0.01,0 -0.02,0 -0.03,0 -0.02,0 -0.04,0 -0.05,0.01 -0.02,0 -0.03,0.01 -0.05,0.03l-0.05 -0.06c0.02,-0.03 0.05,-0.04 0.08,-0.05 0.02,-0.01 0.05,-0.01 0.08,-0.01 0.02,0 0.04,0 0.06,0 0.03,0.01 0.04,0.02 0.06,0.03 0.02,0.01 0.03,0.03 0.04,0.05 0.01,0.02 0.02,0.04 0.02,0.06l0 0.29c-0.02,0.01 -0.05,0.02 -0.08,0.02 -0.03,0.01 -0.06,0.01 -0.09,0.01 -0.03,0 -0.05,0 -0.07,-0.01 -0.02,0 -0.04,-0.01 -0.06,-0.02 -0.02,-0.01 -0.03,-0.02 -0.04,-0.04 -0.01,-0.02 -0.02,-0.04 -0.02,-0.07 0,-0.02 0.01,-0.04 0.02,-0.06 0.01,-0.02 0.02,-0.03 0.04,-0.04 0.01,-0.02 0.03,-0.03 0.05,-0.03 0.02,-0.01 0.04,-0.01 0.06,-0.01 0.02,0 0.03,0 0.05,0 0.01,0.01 0.03,0.01 0.04,0.02l0 -0.05zm-0.08 0.11c-0.02,0 -0.04,0 -0.06,0.01 -0.01,0.02 -0.02,0.03 -0.02,0.05 0,0.01 0,0.02 0,0.03 0.01,0.01 0.02,0.01 0.02,0.02 0.01,0 0.02,0.01 0.03,0.01 0.01,0 0.02,0 0.03,0 0.02,0 0.03,0 0.04,0 0.02,0 0.03,-0.01 0.04,-0.01l0 -0.1c-0.01,0 -0.02,-0.01 -0.03,-0.01 -0.02,0 -0.03,0 -0.05,0zm0.5 -0.26c0.01,0 0.02,0 0.02,0 0.01,0 0.02,0 0.03,0l0 0.08c-0.01,0 -0.02,0 -0.03,0 0,0 -0.01,0 -0.01,0 -0.01,0 -0.03,0 -0.04,0.01 -0.01,0 -0.02,0.01 -0.03,0.02 -0.01,0.01 -0.02,0.03 -0.02,0.04l0 0.3 -0.09 0 0 -0.3c0,-0.03 0.01,-0.06 0.02,-0.08 0.02,-0.03 0.04,-0.04 0.06,-0.06 0.01,0 0.02,0 0.03,0 0,-0.01 0.01,-0.01 0.02,-0.01 0.01,0 0.02,0 0.03,0 0,0 0.01,0 0.01,0zm0.44 0l0.1 0 -0.16 0.45 -0.09 0 -0.16 -0.45 0.1 0 0.09 0.26 0.01 0.09 0.01 0 0.01 -0.09 0.09 -0.26zm0.37 0.46c-0.02,0 -0.04,0 -0.06,-0.01 -0.02,-0.01 -0.04,-0.02 -0.06,-0.03 -0.02,-0.01 -0.03,-0.03 -0.04,-0.05 -0.01,-0.02 -0.01,-0.04 -0.01,-0.06l0 -0.16c0,-0.03 0,-0.05 0.01,-0.07 0.01,-0.02 0.02,-0.03 0.04,-0.05 0.02,-0.01 0.04,-0.02 0.06,-0.03 0.02,0 0.04,0 0.06,0 0.02,0 0.05,0 0.07,0 0.02,0.01 0.04,0.02 0.05,0.03 0.02,0.02 0.03,0.03 0.04,0.05 0.01,0.02 0.02,0.04 0.02,0.07l0 0.12 -0.26 0 0 0.03c0,0.01 0,0.02 0.01,0.03 0,0.01 0.01,0.01 0.02,0.02 0,0.01 0.01,0.01 0.02,0.01 0.01,0.01 0.02,0.01 0.03,0.01 0.02,0 0.03,-0.01 0.05,-0.01 0.01,-0.01 0.03,-0.02 0.03,-0.04l0.08 0.05c0,0.01 -0.02,0.03 -0.03,0.04 -0.01,0.01 -0.02,0.02 -0.04,0.03 -0.01,0.01 -0.03,0.01 -0.04,0.01 -0.02,0.01 -0.03,0.01 -0.05,0.01zm0.09 -0.31c0,-0.01 -0.01,-0.02 -0.01,-0.03 -0.01,0 -0.01,-0.01 -0.02,-0.02 -0.01,0 -0.02,-0.01 -0.03,-0.01 -0.01,0 -0.02,0 -0.03,0 -0.01,0 -0.02,0 -0.03,0 -0.01,0 -0.02,0.01 -0.02,0.01 -0.01,0.01 -0.02,0.02 -0.02,0.02 -0.01,0.01 -0.01,0.02 -0.01,0.03l0 0.04 0.17 0 0 -0.04zm0.38 0.22c0,0 0,0 0,0 0.02,0 0.03,0 0.04,-0.01 0.02,-0.01 0.02,-0.02 0.02,-0.04 0,-0.01 0,-0.01 0,-0.02 -0.01,0 -0.01,-0.01 -0.02,-0.01 -0.01,-0.01 -0.01,-0.01 -0.02,-0.01 -0.01,0 -0.02,-0.01 -0.03,-0.01 -0.01,0 -0.03,0 -0.05,-0.01 -0.02,-0.01 -0.03,-0.01 -0.05,-0.02 -0.02,-0.01 -0.03,-0.03 -0.04,-0.05 -0.01,-0.01 -0.02,-0.03 -0.02,-0.06 0,-0.02 0.01,-0.04 0.02,-0.06 0.01,-0.02 0.02,-0.03 0.04,-0.04 0.02,-0.01 0.03,-0.02 0.05,-0.03 0.02,0 0.04,0 0.06,0 0.03,0 0.05,0 0.08,0.01 0.02,0.01 0.05,0.03 0.07,0.05l-0.06 0.06c-0.01,-0.01 -0.03,-0.02 -0.05,-0.03 -0.01,0 -0.03,-0.01 -0.05,-0.01 -0.02,0 -0.03,0.01 -0.04,0.01 -0.01,0.01 -0.02,0.02 -0.02,0.03 0,0.01 0,0.02 0,0.03 0.01,0.01 0.02,0.01 0.02,0.02 0.01,0 0.02,0.01 0.03,0.01 0.01,0 0.02,0 0.03,0.01 0.02,0 0.04,0 0.05,0.01 0.02,0 0.04,0.01 0.05,0.02 0.01,0.01 0.03,0.03 0.03,0.04 0.01,0.02 0.02,0.04 0.02,0.06 0,0.02 -0.01,0.04 -0.02,0.06 0,0.02 -0.02,0.03 -0.03,0.05 -0.01,0.01 -0.03,0.02 -0.05,0.02 -0.02,0.01 -0.04,0.01 -0.06,0.01 -0.02,0 -0.03,0 -0.05,-0.01 -0.02,0 -0.04,-0.01 -0.05,-0.02 -0.02,0 -0.03,-0.02 -0.05,-0.03 -0.01,-0.01 -0.02,-0.03 -0.03,-0.05l0.07 -0.04c0.02,0.02 0.03,0.04 0.05,0.05 0.02,0.01 0.04,0.01 0.06,0.01zm0.45 0.09c-0.02,0 -0.04,0 -0.06,-0.01 -0.02,0 -0.04,-0.01 -0.05,-0.03 -0.02,-0.01 -0.03,-0.03 -0.04,-0.05 0,-0.02 -0.01,-0.04 -0.01,-0.07l0 -0.4 0.09 0 0.01 0.1 0.08 0 0 0.09 -0.08 0 0 0.21c0,0.02 0,0.03 0,0.04 0.01,0.01 0.02,0.02 0.03,0.02 0.01,0.01 0.02,0.01 0.03,0.01 0.01,0 0.02,0 0.04,0l0 0.09c-0.02,0 -0.03,0 -0.04,0zm0.15 -0.57c0,-0.02 0.01,-0.03 0.02,-0.04 0.01,-0.02 0.02,-0.02 0.04,-0.02 0.02,0 0.04,0 0.05,0.02 0.01,0.01 0.02,0.02 0.02,0.04 0,0.02 -0.01,0.03 -0.02,0.05 -0.01,0.01 -0.03,0.01 -0.05,0.01 -0.02,0 -0.03,0 -0.04,-0.01 -0.01,-0.02 -0.02,-0.03 -0.02,-0.05zm0.11 0.56l-0.1 0 0 -0.45 0.1 0 0 0.45zm0.51 -0.3l0 0.3 -0.1 0 0 -0.29c0,-0.02 0,-0.03 0,-0.04 -0.01,-0.01 -0.02,-0.01 -0.03,-0.02 -0.01,-0.01 -0.02,-0.01 -0.03,-0.01 -0.01,0 -0.02,-0.01 -0.03,-0.01 -0.01,0 -0.03,0.01 -0.04,0.01 -0.01,0 -0.02,0 -0.03,0.01l0 0.35 -0.09 0 0 -0.42c0.02,-0.01 0.05,-0.02 0.07,-0.02 0.03,-0.01 0.06,-0.01 0.08,-0.01 0.03,0 0.05,0 0.08,0 0.02,0.01 0.04,0.02 0.06,0.03 0.02,0.01 0.03,0.03 0.04,0.05 0.01,0.02 0.02,0.05 0.02,0.07zm0.32 0.39c0.01,0 0.02,0 0.03,0 0.01,-0.01 0.02,-0.01 0.03,-0.02 0.01,-0.01 0.01,-0.02 0.02,-0.03 0,-0.01 0,-0.03 0,-0.05 -0.01,0.01 -0.02,0.01 -0.04,0.02 -0.01,0 -0.02,0 -0.04,0 -0.02,0 -0.04,0 -0.06,-0.01 -0.03,-0.01 -0.04,-0.02 -0.06,-0.03 -0.02,-0.01 -0.03,-0.03 -0.04,-0.05 -0.01,-0.02 -0.02,-0.04 -0.02,-0.07l0 -0.15c0,-0.02 0.01,-0.05 0.02,-0.07 0.01,-0.02 0.03,-0.03 0.04,-0.05 0.02,-0.01 0.04,-0.02 0.06,-0.03 0.03,0 0.05,0 0.07,0 0.03,0 0.06,0 0.09,0.01 0.03,0.01 0.05,0.02 0.07,0.03l0 0.42c0,0.03 0,0.05 -0.01,0.07 -0.01,0.02 -0.02,0.04 -0.04,0.05 -0.02,0.02 -0.03,0.03 -0.06,0.03 -0.02,0.01 -0.04,0.01 -0.06,0.01 -0.02,0 -0.03,0 -0.05,0 -0.02,0 -0.03,-0.01 -0.05,-0.02 -0.01,0 -0.03,-0.01 -0.04,-0.02 -0.01,-0.01 -0.02,-0.02 -0.03,-0.04l0.06 -0.05c0.01,0.02 0.03,0.03 0.05,0.04 0.02,0.01 0.04,0.01 0.06,0.01zm0.01 -0.46c-0.01,0 -0.02,0 -0.03,0.01 -0.01,0 -0.02,0 -0.03,0.01 -0.01,0 -0.02,0.01 -0.02,0.02 -0.01,0.01 -0.01,0.02 -0.01,0.03l0 0.16c0,0.01 0,0.02 0.01,0.03 0,0 0.01,0.01 0.02,0.02 0.01,0 0.02,0.01 0.03,0.01 0.01,0 0.02,0.01 0.03,0.01 0.01,0 0.02,-0.01 0.04,-0.01 0.01,0 0.02,-0.01 0.03,-0.01l0 -0.26c-0.01,-0.01 -0.02,-0.01 -0.03,-0.01 -0.01,-0.01 -0.03,-0.01 -0.04,-0.01zm0.65 0.38c-0.02,0 -0.04,0 -0.06,-0.01 -0.02,0 -0.04,-0.01 -0.05,-0.03 -0.01,-0.01 -0.03,-0.03 -0.03,-0.05 -0.01,-0.02 -0.02,-0.04 -0.02,-0.07l0 -0.4 0.09 0 0.01 0.1 0.08 0 0 0.09 -0.08 0 0 0.21c0,0.02 0,0.03 0.01,0.04 0,0.01 0.01,0.02 0.02,0.02 0.01,0.01 0.02,0.01 0.03,0.01 0.01,0 0.02,0 0.04,0l0 0.09c-0.01,0 -0.03,0 -0.04,0zm0.34 -0.46c0,0 0.01,0 0.01,0 0.02,0 0.04,0 0.06,0 0.02,0.01 0.04,0.02 0.05,0.03 0.02,0.02 0.03,0.03 0.04,0.05 0.01,0.02 0.02,0.05 0.02,0.07l0 0.3 -0.1 0 0 -0.3c0,-0.02 0,-0.03 -0.02,-0.04 -0.01,-0.02 -0.02,-0.02 -0.04,-0.02 -0.01,-0.01 -0.02,-0.01 -0.03,-0.01 0,0 -0.01,0 -0.02,0.01 -0.02,0 -0.04,0 -0.05,0.01l0 0.35 -0.09 0 0 -0.61 0.09 0 0 0.17c0.03,-0.01 0.05,-0.01 0.08,-0.01zm0.5 0.46c-0.02,0 -0.04,0 -0.07,-0.01 -0.02,-0.01 -0.04,-0.02 -0.05,-0.03 -0.02,-0.01 -0.03,-0.03 -0.04,-0.05 -0.01,-0.02 -0.02,-0.04 -0.02,-0.06l0 -0.16c0,-0.03 0.01,-0.05 0.02,-0.07 0.01,-0.02 0.02,-0.03 0.04,-0.05 0.01,-0.01 0.03,-0.02 0.05,-0.03 0.03,0 0.05,0 0.07,0 0.02,0 0.04,0 0.06,0 0.02,0.01 0.04,0.02 0.06,0.03 0.02,0.02 0.03,0.03 0.04,0.05 0.01,0.02 0.01,0.04 0.01,0.07l0 0.12 -0.25 0 0 0.03c0,0.01 0,0.02 0.01,0.03 0,0.01 0.01,0.01 0.01,0.02 0.01,0.01 0.02,0.01 0.03,0.01 0.01,0.01 0.02,0.01 0.03,0.01 0.01,0 0.03,-0.01 0.05,-0.01 0.01,-0.01 0.02,-0.02 0.03,-0.04l0.08 0.05c-0.01,0.01 -0.02,0.03 -0.03,0.04 -0.01,0.01 -0.03,0.02 -0.04,0.03 -0.02,0.01 -0.03,0.01 -0.05,0.01 -0.01,0.01 -0.03,0.01 -0.04,0.01zm0.08 -0.31c0,-0.01 0,-0.02 0,-0.03 -0.01,0 -0.02,-0.01 -0.02,-0.02 -0.01,0 -0.02,-0.01 -0.03,-0.01 -0.01,0 -0.02,0 -0.03,0 -0.01,0 -0.02,0 -0.03,0 -0.01,0 -0.02,0.01 -0.03,0.01 0,0.01 -0.01,0.02 -0.02,0.02 0,0.01 0,0.02 0,0.03l0 0.04 0.16 0 0 -0.04zm0.52 -0.04l0.26 0 0 0.1 -0.26 0 0 0.24 -0.1 0 0 -0.61 0.4 0 0 0.1 -0.3 0 0 0.17zm0.6 0.35c-0.03,0 -0.05,0 -0.07,-0.01 -0.02,0 -0.04,-0.01 -0.06,-0.03 -0.01,-0.01 -0.03,-0.03 -0.04,-0.04 -0.01,-0.02 -0.01,-0.05 -0.01,-0.08l0 -0.3 0.1 0 0 0.31c0,0.01 0,0.02 0,0.03 0.01,0.01 0.02,0.02 0.03,0.02 0.01,0.01 0.02,0.01 0.03,0.01 0.01,0.01 0.02,0.01 0.03,0.01 0.01,0 0.02,0 0.04,-0.01 0.01,0 0.02,0 0.03,-0.01l0 -0.36 0.09 0 0 0.42c-0.03,0.01 -0.06,0.02 -0.08,0.03 -0.03,0.01 -0.06,0.01 -0.09,0.01zm0.49 0c-0.03,0 -0.05,0 -0.07,-0.01 -0.02,0 -0.03,-0.01 -0.05,-0.03 -0.01,-0.01 -0.02,-0.03 -0.03,-0.05 -0.01,-0.02 -0.01,-0.04 -0.01,-0.07l0 -0.4 0.08 0 0.01 0.1 0.09 0 0 0.09 -0.09 0 0 0.21c0,0.02 0,0.03 0.01,0.04 0.01,0.01 0.01,0.02 0.02,0.02 0.01,0.01 0.02,0.01 0.03,0.01 0.02,0 0.03,0 0.04,0l0 0.09c-0.01,0 -0.02,0 -0.03,0zm0.34 0c-0.03,0 -0.05,0 -0.07,-0.01 -0.03,0 -0.04,-0.01 -0.06,-0.03 -0.02,-0.01 -0.03,-0.03 -0.04,-0.04 -0.01,-0.02 -0.01,-0.05 -0.01,-0.08l0 -0.3 0.09 0 0 0.31c0,0.01 0.01,0.02 0.01,0.03 0.01,0.01 0.01,0.02 0.02,0.02 0.01,0.01 0.02,0.01 0.03,0.01 0.01,0.01 0.03,0.01 0.04,0.01 0.01,0 0.02,0 0.03,-0.01 0.01,0 0.02,0 0.03,-0.01l0 -0.36 0.1 0 0 0.42c-0.03,0.01 -0.06,0.02 -0.09,0.03 -0.03,0.01 -0.06,0.01 -0.08,0.01zm0.5 -0.46c0,0 0.01,0 0.02,0 0.01,0 0.02,0 0.03,0l0 0.08c-0.01,0 -0.02,0 -0.04,0 0,0 0,0 0,0 -0.02,0 -0.03,0 -0.05,0.01 -0.01,0 -0.02,0.01 -0.03,0.02 -0.01,0.01 -0.01,0.03 -0.01,0.04l0 0.3 -0.1 0 0 -0.3c0,-0.03 0.01,-0.06 0.03,-0.08 0.01,-0.03 0.03,-0.04 0.06,-0.06 0,0 0.01,0 0.02,0 0.01,-0.01 0.02,-0.01 0.03,-0.01 0.01,0 0.01,0 0.02,0 0.01,0 0.01,0 0.02,0zm0.33 0.46c-0.02,0 -0.05,0 -0.07,-0.01 -0.02,-0.01 -0.04,-0.02 -0.05,-0.03 -0.02,-0.01 -0.03,-0.03 -0.04,-0.05 -0.01,-0.02 -0.02,-0.04 -0.02,-0.06l0 -0.16c0,-0.03 0.01,-0.05 0.02,-0.07 0.01,-0.02 0.02,-0.03 0.04,-0.05 0.01,-0.01 0.03,-0.02 0.05,-0.03 0.02,0 0.05,0 0.07,0 0.02,0 0.04,0 0.06,0 0.02,0.01 0.04,0.02 0.06,0.03 0.01,0.02 0.03,0.03 0.04,0.05 0.01,0.02 0.01,0.04 0.01,0.07l0 0.12 -0.25 0 0 0.03c0,0.01 0,0.02 0,0.03 0.01,0.01 0.01,0.01 0.02,0.02 0.01,0.01 0.02,0.01 0.03,0.01 0.01,0.01 0.02,0.01 0.03,0.01 0.01,0 0.03,-0.01 0.04,-0.01 0.02,-0.01 0.03,-0.02 0.04,-0.04l0.08 0.05c-0.01,0.01 -0.02,0.03 -0.03,0.04 -0.01,0.01 -0.03,0.02 -0.04,0.03 -0.02,0.01 -0.03,0.01 -0.05,0.01 -0.01,0.01 -0.03,0.01 -0.04,0.01zm0.08 -0.31c0,-0.01 0,-0.02 -0.01,-0.03 0,0 -0.01,-0.01 -0.01,-0.02 -0.01,0 -0.02,-0.01 -0.03,-0.01 -0.01,0 -0.02,0 -0.03,0 -0.01,0 -0.02,0 -0.03,0 -0.01,0 -0.02,0.01 -0.03,0.01 -0.01,0.01 -0.01,0.02 -0.02,0.02 0,0.01 0,0.02 0,0.03l0 0.04 0.16 0 0 -0.04zm-8.55 -1.52l0 -0.32 -0.01 0 0 -1.72c0,-0.23 -0.03,-0.51 -0.24,-0.53l0 -0.08c0.58,0 0.91,0.13 0.91,0.69l0 0.35 0.43 0 0 0.61 -0.43 0 0 0.68 0 0.31c0,0.35 0.24,0.35 0.51,0.3l0 0.54c-0.72,0.24 -1.17,-0.12 -1.17,-0.83zm1.4 0.03l0 -0.81c0,-1.13 1.96,-1.2 1.96,-0.03l0 0.72 -1.3 0 0 0.11c0,0.36 0.6,0.39 0.76,0.11l0.44 0.31c-0.42,0.78 -1.86,0.57 -1.86,-0.41zm1.33 -0.83c0,-0.35 -0.67,-0.34 -0.67,0l0 0.22 0.67 0 0 -0.22zm2.28 -0.81l0 0.54c-0.23,-0.06 -0.65,-0.01 -0.65,0.3l0 1.63 -0.66 0 0 -1.64c0,-0.72 0.7,-0.97 1.31,-0.83zm1.55 0l0 0.54c-0.24,-0.06 -0.65,-0.01 -0.65,0.3l0 1.63 -0.66 0 0 -1.64c0,-0.72 0.7,-0.97 1.31,-0.83zm0.13 1.74c0,-0.73 0.72,-0.94 1.31,-0.73l0 -0.18c0,-0.49 -0.65,-0.37 -0.9,-0.11l-0.32 -0.35c0.59,-0.68 1.86,-0.51 1.86,0.46l0 1.51c-0.63,0.23 -1.95,0.4 -1.95,-0.6zm0.72 -0.24c-0.12,0.11 -0.13,0.33 0,0.43 0.13,0.11 0.42,0.09 0.57,0.05l0 -0.5c-0.15,-0.07 -0.45,-0.1 -0.57,0.02zm-3.85 -11.11l1.27 0c1.4,0.04 2.32,0.34 2.9,0.93 0.59,0.59 0.83,1.47 0.89,2.67 0.03,0.34 0.03,1.3 0,1.65 -0.06,1.2 -0.3,2.08 -0.89,2.67 -0.58,0.59 -1.5,0.89 -2.9,0.93 -0.1,0.01 -1.17,0.01 -1.27,0 -1.4,-0.04 -2.31,-0.34 -2.9,-0.93 -0.58,-0.59 -0.83,-1.47 -0.89,-2.67 -0.03,-0.35 -0.03,-1.31 0,-1.65 0.06,-1.2 0.31,-2.08 0.89,-2.67 0.59,-0.59 1.5,-0.89 2.9,-0.93l0 0zm1.27 0.22l-1.27 0c-1.33,0.04 -2.2,0.32 -2.74,0.87 -0.54,0.54 -0.77,1.37 -0.82,2.51l0 1.65c0.05,1.14 0.28,1.96 0.82,2.51 0.54,0.55 1.41,0.83 2.74,0.87l1.27 0c1.34,-0.04 2.2,-0.32 2.74,-0.87 0.54,-0.55 0.77,-1.37 0.83,-2.51l0 -1.65c-0.06,-1.14 -0.29,-1.97 -0.83,-2.51 -0.54,-0.55 -1.4,-0.83 -2.74,-0.87zm0.23 3.6c0.11,0.17 0.18,0.38 0.18,0.6 0,0.1 -0.01,0.19 -0.03,0.28 0.77,-0.15 1.48,-0.51 0.96,-1.41 -0.26,-0.44 -0.54,-0.56 -0.83,-0.51 0,-0.01 0,-0.02 0,-0.04 0,0.35 -0.1,0.73 -0.28,1.08zm0.09 1.05c-0.13,0.28 -0.38,0.49 -0.68,0.57 0.51,0.59 1.18,1.03 1.7,0.12 0.25,-0.44 0.21,-0.75 0.02,-0.97 0.01,0 0.02,-0.01 0.03,-0.01 -0.3,0.17 -0.68,0.27 -1.07,0.29zm-0.86 0.6c-0.03,0 -0.06,0 -0.09,0 -0.29,0 -0.56,-0.12 -0.75,-0.31 -0.26,0.75 -0.3,1.54 0.75,1.54 0.5,0 0.75,-0.19 0.85,-0.46 -0.29,-0.18 -0.56,-0.45 -0.76,-0.77zm-0.95 -0.44c-0.12,-0.17 -0.19,-0.38 -0.19,-0.61 0,-0.09 0.01,-0.18 0.03,-0.27 -0.77,0.15 -1.48,0.51 -0.95,1.41 0.25,0.44 0.54,0.56 0.82,0.51 0.01,-0.34 0.11,-0.71 0.29,-1.04zm-0.09 -1.05c0.13,-0.28 0.38,-0.49 0.68,-0.57 -0.51,-0.6 -1.18,-1.03 -1.7,-0.12 -0.26,0.43 -0.22,0.75 -0.03,0.97 -0.01,0 -0.02,0.01 -0.03,0.01 0.3,-0.17 0.68,-0.27 1.08,-0.29zm2.09 -1.28c0,-0.01 0,-0.01 0,-0.02 0,0.01 0,0.01 0,0.02zm-0.02 -0.22c-0.06,-0.33 -0.23,-0.61 -0.53,-0.76 -0.12,0.2 -0.34,0.33 -0.59,0.33 -0.25,0 -0.47,-0.13 -0.59,-0.33 -0.31,0.15 -0.48,0.43 -0.53,0.76 -0.32,-0.11 -0.65,-0.11 -0.93,0.08 0.11,0.2 0.11,0.46 -0.01,0.68 -0.13,0.21 -0.35,0.34 -0.58,0.34 -0.02,0.34 0.13,0.63 0.39,0.84 -0.26,0.22 -0.41,0.51 -0.39,0.85 0.23,0 0.45,0.13 0.58,0.34 0.12,0.22 0.12,0.48 0.01,0.68 0.28,0.18 0.61,0.19 0.93,0.08 0.05,0.33 0.22,0.61 0.53,0.76 0.12,-0.2 0.34,-0.33 0.59,-0.33 0.25,0 0.47,0.13 0.59,0.33 0.3,-0.15 0.47,-0.43 0.53,-0.76 0.32,0.11 0.64,0.1 0.93,-0.08 -0.12,-0.2 -0.12,-0.46 0,-0.68 0.13,-0.21 0.35,-0.34 0.59,-0.34 0.01,-0.34 -0.14,-0.63 -0.4,-0.85 0.26,-0.21 0.41,-0.5 0.4,-0.84 -0.24,0 -0.46,-0.13 -0.59,-0.34 -0.12,-0.22 -0.12,-0.48 0,-0.68 -0.29,-0.19 -0.61,-0.19 -0.93,-0.08zm0.93 2.08c-0.01,0 -0.02,0.01 -0.02,0.01l0.02 -0.01zm-0.91 -1.85c0,0.01 0,0.02 0,0.03l0 -0.03zm2 -0.1c0.16,0.27 0.07,0.62 -0.2,0.77 -0.27,0.16 -0.62,0.07 -0.78,-0.21 -0.16,-0.27 -0.06,-0.61 0.21,-0.77 0.27,-0.16 0.62,-0.06 0.77,0.21zm-2.2 3.68c-0.01,-0.01 -0.02,-0.01 -0.02,-0.01l0.02 0.01zm-0.06 -0.04c-0.01,0 -0.02,-0.01 -0.03,-0.01 0.01,0 0.02,0.01 0.03,0.01zm2.26 -0.01c-0.15,0.27 -0.5,0.37 -0.77,0.21 -0.27,-0.16 -0.37,-0.5 -0.21,-0.78 0.16,-0.27 0.51,-0.36 0.78,-0.2 0.27,0.15 0.36,0.5 0.2,0.77zm-4.29 -0.14c0,-0.01 0,-0.02 0,-0.03l0 0.03zm1.15 1.96c-0.32,0 -0.57,-0.25 -0.57,-0.57 0,-0.31 0.25,-0.57 0.57,-0.57 0.31,0 0.56,0.26 0.56,0.57 0,0.32 -0.25,0.57 -0.56,0.57zm-2.09 -3.75c0.01,0 0.02,-0.01 0.03,-0.02 -0.01,0.01 -0.02,0.02 -0.03,0.02zm0.03 -0.02c0.01,0 0.02,-0.01 0.03,-0.01 -0.01,0 -0.02,0.01 -0.03,0.01zm-1.09 1.95c-0.16,-0.27 -0.07,-0.62 0.21,-0.77 0.27,-0.16 0.61,-0.07 0.77,0.2 0.16,0.28 0.07,0.62 -0.21,0.78 -0.27,0.16 -0.62,0.06 -0.77,-0.21zm2.2 -3.68c0.02,0.01 0.04,0.02 0.06,0.03 -0.02,-0.01 -0.04,-0.02 -0.06,-0.03zm-2.2 0.05c0.15,-0.27 0.5,-0.37 0.77,-0.21 0.28,0.16 0.37,0.5 0.21,0.77 -0.16,0.28 -0.5,0.37 -0.77,0.21 -0.28,-0.15 -0.37,-0.5 -0.21,-0.77zm3.15 -1.82c0.31,0 0.56,0.25 0.56,0.57 0,0.31 -0.25,0.56 -0.56,0.56 -0.32,0 -0.57,-0.25 -0.57,-0.56 0,-0.32 0.25,-0.57 0.57,-0.57zm0.12 4.37c0,0 -0.04,-0.11 0.22,-0.23 0.27,-0.12 0.31,-0.17 0.39,-0.38 0.08,-0.22 0.09,-0.26 0.09,-0.26 0,0 -0.31,-0.09 -0.51,0.01 -0.2,0.1 -0.25,0.28 -0.27,0.37 -0.02,0.09 -0.01,0.27 -0.01,0.27 0,0 0.09,-0.28 0.22,-0.39 0.13,-0.1 0.3,-0.12 0.3,-0.12 0,0 -0.52,0.37 -0.43,0.73zm-0.17 -0.75c0,0 -0.23,-0.12 -0.19,-0.44 0.04,-0.31 0.22,-0.43 0.22,-0.43 0,0 0.24,0.16 0.25,0.44 0,0.27 -0.17,0.44 -0.17,0.44l-0.07 -0.62c0,0 -0.04,0.27 -0.04,0.61zm-0.08 0.75c0,0 0.05,-0.11 -0.22,-0.23 -0.27,-0.12 -0.3,-0.17 -0.38,-0.38 -0.08,-0.22 -0.1,-0.26 -0.1,-0.26 0,0 0.31,-0.09 0.51,0.01 0.2,0.1 0.25,0.28 0.27,0.37 0.02,0.09 0.02,0.27 0.02,0.27 0,0 -0.1,-0.28 -0.23,-0.39 -0.13,-0.1 -0.3,-0.12 -0.3,-0.12 0,0 0.52,0.37 0.43,0.73z"/>
 </g>
</svg>
