<?xml version="1.0" encoding="UTF-8"?>
<!DOCTYPE svg PUBLIC "-//W3C//DTD SVG 1.1//EN" "http://www.w3.org/Graphics/SVG/1.1/DTD/svg11.dtd">
<!-- Creator: CorelDRAW 2018 (64-Bit) -->
<svg xmlns="http://www.w3.org/2000/svg" xml:space="preserve" width="35px" height="35px" version="1.1" style="shape-rendering:geometricPrecision; text-rendering:geometricPrecision; image-rendering:optimizeQuality; fill-rule:evenodd; clip-rule:evenodd"
viewBox="0 0 35.23 35.23"
 xmlns:xlink="http://www.w3.org/1999/xlink">
 <defs>
  <style type="text/css">
   <![CDATA[
    .str0 {stroke:#B92E31;stroke-width:0.59;stroke-miterlimit:22.9256}
    .fil0 {fill:none}
    .fil92 {fill:#FEFEFE}
    .fil2 {fill:#E62129}
    .fil1 {fill:#E62129}
    .fil3 {fill:#E62129}
    .fil4 {fill:#E52229}
    .fil5 {fill:#E52229}
    .fil6 {fill:#E42229}
    .fil7 {fill:#E42229}
    .fil8 {fill:#E32229}
    .fil9 {fill:#E32229}
    .fil10 {fill:#E2232A}
    .fil11 {fill:#E2232A}
    .fil12 {fill:#E1232A}
    .fil13 {fill:#E1232A}
    .fil14 {fill:#E0232A}
    .fil15 {fill:#E0242A}
    .fil16 {fill:#DF242A}
    .fil17 {fill:#DE242A}
    .fil18 {fill:#DE242B}
    .fil19 {fill:#DD242B}
    .fil20 {fill:#DD252B}
    .fil21 {fill:#DC252B}
    .fil22 {fill:#DC252B}
    .fil23 {fill:#DB252B}
    .fil24 {fill:#DB252B}
    .fil25 {fill:#DA252B}
    .fil26 {fill:#DA262B}
    .fil27 {fill:#D9262C}
    .fil28 {fill:#D9262C}
    .fil29 {fill:#D8262C}
    .fil30 {fill:#D7262C}
    .fil31 {fill:#D7272C}
    .fil32 {fill:#D6272C}
    .fil33 {fill:#D6272C}
    .fil34 {fill:#D5272C}
    .fil35 {fill:#D4272D}
    .fil36 {fill:#D4272D}
    .fil37 {fill:#D3282D}
    .fil38 {fill:#D2282D}
    .fil39 {fill:#D2282D}
    .fil40 {fill:#D1282D}
    .fil41 {fill:#D1282D}
    .fil42 {fill:#D0292D}
    .fil43 {fill:#D0292E}
    .fil44 {fill:#CF292E}
    .fil45 {fill:#CE292E}
    .fil46 {fill:#CE292E}
    .fil47 {fill:#CD292E}
    .fil48 {fill:#CC292E}
    .fil49 {fill:#CC2A2E}
    .fil50 {fill:#CB2A2E}
    .fil51 {fill:#CA2A2E}
    .fil52 {fill:#CA2A2E}
    .fil53 {fill:#C92A2F}
    .fil54 {fill:#C92A2F}
    .fil55 {fill:#C82A2F}
    .fil56 {fill:#C72B2F}
    .fil57 {fill:#C72B2F}
    .fil58 {fill:#C62B2F}
    .fil59 {fill:#C52B2F}
    .fil60 {fill:#C52B2F}
    .fil61 {fill:#C42B2F}
    .fil62 {fill:#C32B30}
    .fil63 {fill:#C32C30}
    .fil64 {fill:#C22C30}
    .fil65 {fill:#C22C30}
    .fil66 {fill:#C12C30}
    .fil67 {fill:#C02C30}
    .fil68 {fill:#C02C30}
    .fil69 {fill:#BF2C30}
    .fil70 {fill:#BE2D31}
    .fil71 {fill:#BE2D31}
    .fil72 {fill:#BD2D31}
    .fil73 {fill:#BD2D31}
    .fil74 {fill:#BC2D31}
    .fil75 {fill:#BC2D31}
    .fil76 {fill:#BB2D31}
    .fil77 {fill:#BA2D31}
    .fil78 {fill:#BA2D31}
    .fil79 {fill:#B92E31}
    .fil80 {fill:#B92E31}
    .fil81 {fill:#B82E31}
    .fil82 {fill:#B72E32}
    .fil83 {fill:#B72E32}
    .fil84 {fill:#B62E32}
    .fil85 {fill:#B62E32}
    .fil86 {fill:#B52E32}
    .fil87 {fill:#B42E32}
    .fil88 {fill:#B42E32}
    .fil89 {fill:#B32F32}
    .fil90 {fill:#B32F32}
    .fil91 {fill:#B22F32}
   ]]>
  </style>
     <clipPath id="id0">
      <path d="M34.55 4.69c0,2.2 -1.79,3.99 -4,3.99 -2.21,0 -4,-1.79 -4,-3.99 0,-2.21 1.79,-4 4,-4 2.21,0 4,1.79 4,4z"/>
     </clipPath>
    <mask id="id1">
  <linearGradient id="id2" gradientUnits="userSpaceOnUse" x1="42.59" y1="2.05" x2="30.92" y2="6.03">
   <stop offset="0" style="stop-opacity:1; stop-color:white"/>
   <stop offset="1" style="stop-opacity:0; stop-color:white"/>
  </linearGradient>
     <rect style="fill:url(#id2)" x="29.63" y="-0.34" width="6" height="10.05"/>
    </mask>
 </defs>
 <g id="Layer_x0020_1">
  <metadata id="CorelCorpID_0Corel-Layer"/>
  <rect class="fil0" y="0.23" width="35" height="35"/>
  <g id="_2270021590256">
   <path class="fil1" d="M35.23 4.69c0,2.58 -2.09,4.68 -4.68,4.68 -2.59,0 -4.69,-2.1 -4.69,-4.68 0,-2.59 2.1,-4.69 4.69,-4.69 2.59,0 4.68,2.1 4.68,4.69z"/>
   <g>
    <path class="fil0 str0" d="M34.55 4.69c0,2.2 -1.79,3.99 -4,3.99 -2.21,0 -4,-1.79 -4,-3.99 0,-2.21 1.79,-4 4,-4 2.21,0 4,1.79 4,4z"/>
    <g style="clip-path:url(#id0)">
     <polygon id="1" class="fil2" points="30.55,4.69 36.2,4.72 36.2,4.93 "/>
     <polygon id="2" class="fil3" points="30.55,4.69 36.2,4.89 36.19,5.07 "/>
     <polygon id="3" class="fil3" points="30.55,4.69 36.19,5.03 36.18,5.21 "/>
     <polygon id="4" class="fil3" points="30.55,4.69 36.18,5.17 36.17,5.34 "/>
     <polygon id="5" class="fil4" points="30.55,4.69 36.17,5.31 36.15,5.48 "/>
     <polygon id="6" class="fil4" points="30.55,4.69 36.15,5.45 36.13,5.62 "/>
     <polygon id="7" class="fil4" points="30.55,4.69 36.13,5.58 36.1,5.76 "/>
     <polygon id="8" class="fil5" points="30.55,4.69 36.11,5.72 36.07,5.89 "/>
     <polygon id="9" class="fil5" points="30.55,4.69 36.08,5.86 36.04,6.03 "/>
     <polygon id="10" class="fil5" points="30.55,4.69 36.05,5.99 36.01,6.16 "/>
     <polygon id="11" class="fil6" points="30.55,4.69 36.02,6.13 35.97,6.29 "/>
     <polygon id="12" class="fil6" points="30.55,4.69 35.98,6.26 35.93,6.43 "/>
     <polygon id="13" class="fil6" points="30.55,4.69 35.94,6.39 35.88,6.56 "/>
     <polygon id="14" class="fil7" points="30.55,4.69 35.9,6.53 35.84,6.69 "/>
     <polygon id="15" class="fil7" points="30.55,4.69 35.85,6.66 35.79,6.82 "/>
     <polygon id="16" class="fil7" points="30.55,4.69 35.8,6.79 35.73,6.95 "/>
     <polygon id="17" class="fil8" points="30.55,4.69 35.75,6.91 35.68,7.07 "/>
     <polygon id="18" class="fil8" points="30.55,4.69 35.69,7.04 35.62,7.2 "/>
     <polygon id="19" class="fil9" points="30.55,4.69 35.63,7.17 35.55,7.32 "/>
     <polygon id="20" class="fil10" points="30.55,4.69 35.57,7.29 35.49,7.44 "/>
     <polygon id="21" class="fil10" points="30.55,4.69 35.5,7.41 35.42,7.56 "/>
     <polygon id="22" class="fil10" points="30.55,4.69 35.43,7.53 35.34,7.68 "/>
     <polygon id="23" class="fil11" points="30.55,4.69 35.36,7.65 35.27,7.8 "/>
     <polygon id="24" class="fil11" points="30.55,4.69 35.29,7.77 35.19,7.91 "/>
     <polygon id="25" class="fil11" points="30.55,4.69 35.21,7.88 35.11,8.03 "/>
     <polygon id="26" class="fil12" points="30.55,4.69 35.13,8 35.03,8.14 "/>
     <polygon id="27" class="fil12" points="30.55,4.69 35.05,8.11 34.94,8.25 "/>
     <polygon id="28" class="fil12" points="30.55,4.69 34.96,8.22 34.85,8.35 "/>
     <polygon id="29" class="fil13" points="30.55,4.69 34.87,8.33 34.76,8.46 "/>
     <polygon id="30" class="fil13" points="30.55,4.69 34.79,8.43 34.67,8.56 "/>
     <polygon id="31" class="fil13" points="30.55,4.69 34.69,8.53 34.57,8.66 "/>
     <polygon id="32" class="fil14" points="30.55,4.69 34.6,8.63 34.47,8.76 "/>
     <polygon id="33" class="fil14" points="30.55,4.69 34.5,8.73 34.37,8.85 "/>
     <polygon id="34" class="fil14" points="30.55,4.69 34.4,8.83 34.27,8.95 "/>
     <polygon id="35" class="fil15" points="30.55,4.69 34.29,8.92 34.16,9.04 "/>
     <polygon id="36" class="fil15" points="30.55,4.69 34.19,9.01 34.06,9.12 "/>
     <polygon id="37" class="fil15" points="30.55,4.69 34.08,9.1 33.95,9.21 "/>
     <polygon id="38" class="fil16" points="30.55,4.69 33.97,9.19 33.83,9.29 "/>
     <polygon id="39" class="fil16" points="30.55,4.69 33.86,9.27 33.72,9.37 "/>
     <polygon id="40" class="fil16" points="30.55,4.69 33.75,9.35 33.6,9.45 "/>
     <polygon id="41" class="fil17" points="30.55,4.69 33.63,9.43 33.48,9.52 "/>
     <polygon id="42" class="fil17" points="30.55,4.69 33.51,9.5 33.37,9.59 "/>
     <polygon id="43" class="fil17" points="30.55,4.69 33.39,9.57 33.24,9.66 "/>
     <polygon id="44" class="fil18" points="30.55,4.69 33.27,9.64 33.12,9.72 "/>
     <polygon id="45" class="fil18" points="30.55,4.69 33.15,9.71 33,9.78 "/>
     <polygon id="46" class="fil18" points="30.55,4.69 33.03,9.77 32.87,9.84 "/>
     <polygon id="47" class="fil19" points="30.55,4.69 32.9,9.83 32.74,9.9 "/>
     <polygon id="48" class="fil19" points="30.55,4.69 32.78,9.88 32.62,9.95 "/>
     <polygon id="49" class="fil19" points="30.55,4.69 32.65,9.94 32.49,10 "/>
     <polygon id="50" class="fil20" points="30.55,4.69 32.52,9.99 32.35,10.05 "/>
     <polygon id="51" class="fil20" points="30.55,4.69 32.39,10.03 32.22,10.09 "/>
     <polygon id="52" class="fil20" points="30.55,4.69 32.26,10.08 32.09,10.13 "/>
     <polygon id="53" class="fil21" points="30.55,4.69 32.12,10.12 31.96,10.16 "/>
     <polygon id="54" class="fil21" points="30.55,4.69 31.99,10.15 31.82,10.2 "/>
     <polygon id="55" class="fil22" points="30.55,4.69 31.85,10.19 31.68,10.23 "/>
     <polygon id="56" class="fil23" points="30.55,4.69 31.72,10.22 31.55,10.25 "/>
     <polygon id="57" class="fil23" points="30.55,4.69 31.58,10.25 31.41,10.28 "/>
     <polygon id="58" class="fil23" points="30.55,4.69 31.45,10.27 31.27,10.3 "/>
     <polygon id="59" class="fil24" points="30.55,4.69 31.31,10.29 31.14,10.31 "/>
     <polygon id="60" class="fil24" points="30.55,4.69 31.17,10.31 31,10.32 "/>
     <polygon id="61" class="fil24" points="30.55,4.69 31.03,10.32 30.86,10.33 "/>
     <polygon id="62" class="fil25" points="30.55,4.69 30.89,10.33 30.72,10.34 "/>
     <polygon id="63" class="fil25" points="30.55,4.69 30.76,10.34 30.58,10.34 "/>
     <polygon id="64" class="fil25" points="30.55,4.69 30.62,10.34 30.44,10.34 "/>
     <polygon id="65" class="fil26" points="30.55,4.69 30.48,10.34 30.3,10.34 "/>
     <polygon id="66" class="fil26" points="30.55,4.69 30.34,10.34 30.17,10.33 "/>
     <polygon id="67" class="fil26" points="30.55,4.69 30.2,10.33 30.03,10.32 "/>
     <polygon id="68" class="fil27" points="30.55,4.69 30.06,10.32 29.89,10.3 "/>
     <polygon id="69" class="fil27" points="30.55,4.69 29.92,10.31 29.75,10.29 "/>
     <polygon id="70" class="fil27" points="30.55,4.69 29.79,10.29 29.61,10.26 "/>
     <polygon id="71" class="fil28" points="30.55,4.69 29.65,10.27 29.48,10.24 "/>
     <polygon id="72" class="fil28" points="30.55,4.69 29.51,10.25 29.34,10.21 "/>
     <polygon id="73" class="fil28" points="30.55,4.69 29.38,10.22 29.21,10.18 "/>
     <polygon id="74" class="fil29" points="30.55,4.69 29.24,10.19 29.07,10.15 "/>
     <polygon id="75" class="fil29" points="30.55,4.69 29.11,10.15 28.94,10.11 "/>
     <polygon id="76" class="fil29" points="30.55,4.69 28.97,10.12 28.81,10.07 "/>
     <polygon id="77" class="fil30" points="30.55,4.69 28.84,10.08 28.67,10.02 "/>
     <polygon id="78" class="fil30" points="30.55,4.69 28.71,10.03 28.54,9.98 "/>
     <polygon id="79" class="fil30" points="30.55,4.69 28.58,9.99 28.41,9.92 "/>
     <polygon id="80" class="fil31" points="30.55,4.69 28.45,9.94 28.29,9.87 "/>
     <polygon id="81" class="fil31" points="30.55,4.69 28.32,9.88 28.16,9.81 "/>
     <polygon id="82" class="fil31" points="30.55,4.69 28.19,9.83 28.04,9.75 "/>
     <polygon id="83" class="fil32" points="30.55,4.69 28.07,9.77 27.91,9.69 "/>
     <polygon id="84" class="fil32" points="30.55,4.69 27.94,9.71 27.79,9.62 "/>
     <polygon id="85" class="fil32" points="30.55,4.69 27.82,9.64 27.67,9.55 "/>
     <polygon id="86" class="fil33" points="30.55,4.69 27.7,9.57 27.55,9.48 "/>
     <polygon id="87" class="fil33" points="30.55,4.69 27.58,9.5 27.43,9.41 "/>
     <polygon id="88" class="fil33" points="30.55,4.69 27.46,9.43 27.32,9.33 "/>
     <polygon id="89" class="fil34" points="30.55,4.69 27.35,9.35 27.21,9.25 "/>
     <polygon id="90" class="fil34" points="30.55,4.69 27.23,9.27 27.1,9.17 "/>
     <polygon id="91" class="fil34" points="30.55,4.69 27.12,9.19 26.99,9.08 "/>
     <polygon id="92" class="fil35" points="30.55,4.69 27.01,9.1 26.88,8.99 "/>
     <polygon id="93" class="fil35" points="30.55,4.69 26.91,9.01 26.77,8.9 "/>
     <polygon id="94" class="fil35" points="30.55,4.69 26.8,8.92 26.67,8.81 "/>
     <polygon id="95" class="fil36" points="30.55,4.69 26.7,8.83 26.57,8.71 "/>
     <polygon id="96" class="fil36" points="30.55,4.69 26.6,8.73 26.47,8.61 "/>
     <polygon id="97" class="fil36" points="30.55,4.69 26.5,8.63 26.38,8.51 "/>
     <polygon id="98" class="fil37" points="30.55,4.69 26.4,8.53 26.29,8.41 "/>
     <polygon id="99" class="fil37" points="30.55,4.69 26.31,8.43 26.2,8.3 "/>
     <polygon id="100" class="fil37" points="30.55,4.69 26.22,8.33 26.11,8.19 "/>
     <polygon id="101" class="fil38" points="30.55,4.69 26.13,8.22 26.03,8.08 "/>
     <polygon id="102" class="fil38" points="30.55,4.69 26.05,8.11 25.94,7.97 "/>
     <polygon id="103" class="fil38" points="30.55,4.69 25.96,8 25.86,7.86 "/>
     <polygon id="104" class="fil39" points="30.55,4.69 25.88,7.88 25.79,7.74 "/>
     <polygon id="105" class="fil39" points="30.55,4.69 25.81,7.77 25.71,7.62 "/>
     <polygon id="106" class="fil39" points="30.55,4.69 25.73,7.65 25.64,7.5 "/>
     <polygon id="107" class="fil40" points="30.55,4.69 25.66,7.53 25.58,7.38 "/>
     <polygon id="108" class="fil40" points="30.55,4.69 25.59,7.41 25.51,7.26 "/>
     <polygon id="109" class="fil40" points="30.55,4.69 25.53,7.29 25.45,7.13 "/>
     <polygon id="110" class="fil41" points="30.55,4.69 25.46,7.17 25.39,7.01 "/>
     <polygon id="111" class="fil41" points="30.55,4.69 25.4,7.04 25.34,6.88 "/>
     <polygon id="112" class="fil41" points="30.55,4.69 25.35,6.91 25.28,6.75 "/>
     <polygon id="113" class="fil42" points="30.55,4.69 25.3,6.79 25.23,6.62 "/>
     <polygon id="114" class="fil42" points="30.55,4.69 25.25,6.66 25.19,6.49 "/>
     <polygon id="115" class="fil42" points="30.55,4.69 25.2,6.53 25.15,6.36 "/>
     <polygon id="116" class="fil43" points="30.55,4.69 25.16,6.39 25.1,6.23 "/>
     <polygon id="117" class="fil43" points="30.55,4.69 25.12,6.26 25.07,6.09 "/>
     <polygon id="118" class="fil43" points="30.55,4.69 25.08,6.13 25.04,5.96 "/>
     <polygon id="119" class="fil44" points="30.55,4.69 25.04,5.99 25.01,5.82 "/>
     <polygon id="120" class="fil44" points="30.55,4.69 25.01,5.86 24.98,5.69 "/>
     <polygon id="121" class="fil44" points="30.55,4.69 24.99,5.72 24.96,5.55 "/>
     <polygon id="122" class="fil45" points="30.55,4.69 24.96,5.58 24.94,5.41 "/>
     <polygon id="123" class="fil45" points="30.55,4.69 24.94,5.45 24.92,5.27 "/>
     <polygon id="124" class="fil45" points="30.55,4.69 24.93,5.31 24.91,5.14 "/>
     <polygon id="125" class="fil46" points="30.55,4.69 24.91,5.17 24.9,5 "/>
     <polygon id="126" class="fil46" points="30.55,4.69 24.9,5.03 24.89,4.86 "/>
     <polygon id="127" class="fil46" points="30.55,4.69 24.89,4.89 24.89,4.72 "/>
     <polygon id="128" class="fil47" points="30.55,4.69 24.89,4.76 24.89,4.58 "/>
     <polygon id="129" class="fil47" points="30.55,4.69 24.89,4.62 24.9,4.44 "/>
     <polygon id="130" class="fil47" points="30.55,4.69 24.89,4.48 24.9,4.3 "/>
     <polygon id="131" class="fil48" points="30.55,4.69 24.9,4.34 24.91,4.17 "/>
     <polygon id="132" class="fil48" points="30.55,4.69 24.91,4.2 24.93,4.03 "/>
     <polygon id="133" class="fil48" points="30.55,4.69 24.93,4.06 24.95,3.89 "/>
     <polygon id="134" class="fil49" points="30.55,4.69 24.94,3.92 24.97,3.75 "/>
     <polygon id="135" class="fil49" points="30.55,4.69 24.96,3.79 24.99,3.62 "/>
     <polygon id="136" class="fil49" points="30.55,4.69 24.99,3.65 25.02,3.48 "/>
     <polygon id="137" class="fil50" points="30.55,4.69 25.01,3.51 25.05,3.34 "/>
     <polygon id="138" class="fil50" points="30.55,4.69 25.04,3.38 25.09,3.21 "/>
     <polygon id="139" class="fil50" points="30.55,4.69 25.08,3.24 25.12,3.08 "/>
     <polygon id="140" class="fil51" points="30.55,4.69 25.12,3.11 25.17,2.94 "/>
     <polygon id="141" class="fil51" points="30.55,4.69 25.16,2.98 25.21,2.81 "/>
     <polygon id="142" class="fil51" points="30.55,4.69 25.2,2.85 25.26,2.68 "/>
     <polygon id="143" class="fil52" points="30.55,4.69 25.25,2.71 25.31,2.55 "/>
     <polygon id="144" class="fil52" points="30.55,4.69 25.3,2.59 25.36,2.42 "/>
     <polygon id="145" class="fil52" points="30.55,4.69 25.35,2.46 25.42,2.3 "/>
     <polygon id="146" class="fil53" points="30.55,4.69 25.4,2.33 25.48,2.17 "/>
     <polygon id="147" class="fil53" points="30.55,4.69 25.46,2.21 25.54,2.05 "/>
     <polygon id="148" class="fil53" points="30.55,4.69 25.53,2.08 25.61,1.93 "/>
     <polygon id="149" class="fil54" points="30.55,4.69 25.59,1.96 25.68,1.81 "/>
     <polygon id="150" class="fil54" points="30.55,4.69 25.66,1.84 25.75,1.69 "/>
     <polygon id="151" class="fil54" points="30.55,4.69 25.73,1.72 25.83,1.57 "/>
     <polygon id="152" class="fil55" points="30.55,4.69 25.81,1.6 25.9,1.46 "/>
     <polygon id="153" class="fil55" points="30.55,4.69 25.88,1.49 25.98,1.34 "/>
     <polygon id="154" class="fil55" points="30.55,4.69 25.96,1.37 26.07,1.23 "/>
     <polygon id="155" class="fil56" points="30.55,4.69 26.05,1.26 26.15,1.12 "/>
     <polygon id="156" class="fil56" points="30.55,4.69 26.13,1.15 26.24,1.02 "/>
     <polygon id="157" class="fil56" points="30.55,4.69 26.22,1.04 26.33,0.91 "/>
     <polygon id="158" class="fil57" points="30.55,4.69 26.31,0.94 26.43,0.81 "/>
     <polygon id="159" class="fil57" points="30.55,4.69 26.4,0.84 26.52,0.71 "/>
     <polygon id="160" class="fil57" points="30.55,4.69 26.5,0.74 26.62,0.61 "/>
     <polygon id="161" class="fil58" points="30.55,4.69 26.6,0.64 26.72,0.52 "/>
     <polygon id="162" class="fil58" points="30.55,4.69 26.7,0.54 26.83,0.43 "/>
     <polygon id="163" class="fil58" points="30.55,4.69 26.8,0.45 26.93,0.34 "/>
     <polygon id="164" class="fil59" points="30.55,4.69 26.91,0.36 27.04,0.25 "/>
     <polygon id="165" class="fil59" points="30.55,4.69 27.01,0.27 27.15,0.16 "/>
     <polygon id="166" class="fil59" points="30.55,4.69 27.12,0.18 27.26,0.08 "/>
     <polygon id="167" class="fil60" points="30.55,4.69 27.23,0.1 27.38,0 "/>
     <polygon id="168" class="fil60" points="30.55,4.69 27.35,0.02 27.49,-0.07 "/>
     <polygon id="169" class="fil60" points="30.55,4.69 27.46,-0.06 27.61,-0.15 "/>
     <polygon id="170" class="fil61" points="30.55,4.69 27.58,-0.13 27.73,-0.22 "/>
     <polygon id="171" class="fil61" points="30.55,4.69 27.7,-0.2 27.85,-0.29 "/>
     <polygon id="172" class="fil61" points="30.55,4.69 27.82,-0.27 27.97,-0.35 "/>
     <polygon id="173" class="fil62" points="30.55,4.69 27.94,-0.34 28.1,-0.41 "/>
     <polygon id="174" class="fil62" points="30.55,4.69 28.07,-0.4 28.22,-0.47 "/>
     <polygon id="175" class="fil62" points="30.55,4.69 28.19,-0.46 28.35,-0.53 "/>
     <polygon id="176" class="fil63" points="30.55,4.69 28.32,-0.51 28.48,-0.58 "/>
     <polygon id="177" class="fil63" points="30.55,4.69 28.45,-0.57 28.61,-0.63 "/>
     <polygon id="178" class="fil63" points="30.55,4.69 28.58,-0.62 28.74,-0.67 "/>
     <polygon id="179" class="fil64" points="30.55,4.69 28.71,-0.66 28.87,-0.72 "/>
     <polygon id="180" class="fil64" points="30.55,4.69 28.84,-0.71 29,-0.76 "/>
     <polygon id="181" class="fil64" points="30.55,4.69 28.97,-0.75 29.14,-0.79 "/>
     <polygon id="182" class="fil65" points="30.55,4.69 29.11,-0.78 29.27,-0.83 "/>
     <polygon id="183" class="fil65" points="30.55,4.69 29.24,-0.82 29.41,-0.86 "/>
     <polygon id="184" class="fil65" points="30.55,4.69 29.38,-0.85 29.55,-0.88 "/>
     <polygon id="185" class="fil66" points="30.55,4.69 29.51,-0.88 29.68,-0.9 "/>
     <polygon id="186" class="fil66" points="30.55,4.69 29.65,-0.9 29.82,-0.92 "/>
     <polygon id="187" class="fil66" points="30.55,4.69 29.79,-0.92 29.96,-0.94 "/>
     <polygon id="188" class="fil67" points="30.55,4.69 29.92,-0.94 30.1,-0.95 "/>
     <polygon id="189" class="fil67" points="30.55,4.69 30.06,-0.95 30.24,-0.96 "/>
     <polygon id="190" class="fil67" points="30.55,4.69 30.2,-0.96 30.37,-0.97 "/>
     <polygon id="191" class="fil68" points="30.55,4.69 30.34,-0.97 30.51,-0.97 "/>
     <polygon id="192" class="fil68" points="30.55,4.69 30.48,-0.97 30.65,-0.97 "/>
     <polygon id="193" class="fil68" points="30.55,4.69 30.62,-0.97 30.79,-0.97 "/>
     <polygon id="194" class="fil69" points="30.55,4.69 30.76,-0.97 30.93,-0.96 "/>
     <polygon id="195" class="fil69" points="30.55,4.69 30.89,-0.96 31.07,-0.95 "/>
     <polygon id="196" class="fil69" points="30.55,4.69 31.03,-0.95 31.21,-0.93 "/>
     <polygon id="197" class="fil70" points="30.55,4.69 31.17,-0.94 31.34,-0.92 "/>
     <polygon id="198" class="fil70" points="30.55,4.69 31.31,-0.92 31.48,-0.89 "/>
     <polygon id="199" class="fil70" points="30.55,4.69 31.45,-0.9 31.62,-0.87 "/>
     <polygon id="200" class="fil71" points="30.55,4.69 31.58,-0.88 31.75,-0.84 "/>
     <polygon id="201" class="fil72" points="30.55,4.69 31.72,-0.85 31.89,-0.81 "/>
     <polygon id="202" class="fil72" points="30.55,4.69 31.85,-0.82 32.02,-0.78 "/>
     <polygon id="203" class="fil73" points="30.55,4.69 31.99,-0.78 32.16,-0.74 "/>
     <polygon id="204" class="fil73" points="30.55,4.69 32.12,-0.75 32.29,-0.7 "/>
     <polygon id="205" class="fil73" points="30.55,4.69 32.26,-0.71 32.42,-0.65 "/>
     <polygon id="206" class="fil74" points="30.55,4.69 32.39,-0.66 32.55,-0.6 "/>
     <polygon id="207" class="fil74" points="30.55,4.69 32.52,-0.62 32.68,-0.55 "/>
     <polygon id="208" class="fil74" points="30.55,4.69 32.65,-0.57 32.81,-0.5 "/>
     <polygon id="209" class="fil75" points="30.55,4.69 32.78,-0.51 32.93,-0.44 "/>
     <polygon id="210" class="fil75" points="30.55,4.69 32.9,-0.46 33.06,-0.38 "/>
     <polygon id="211" class="fil75" points="30.55,4.69 33.03,-0.4 33.18,-0.32 "/>
     <polygon id="212" class="fil76" points="30.55,4.69 33.15,-0.34 33.31,-0.25 "/>
     <polygon id="213" class="fil76" points="30.55,4.69 33.27,-0.27 33.43,-0.18 "/>
     <polygon id="214" class="fil76" points="30.55,4.69 33.39,-0.2 33.54,-0.11 "/>
     <polygon id="215" class="fil77" points="30.55,4.69 33.51,-0.13 33.66,-0.04 "/>
     <polygon id="216" class="fil77" points="30.55,4.69 33.63,-0.06 33.78,0.04 "/>
     <polygon id="217" class="fil77" points="30.55,4.69 33.75,0.02 33.89,0.12 "/>
     <polygon id="218" class="fil78" points="30.55,4.69 33.86,0.1 34,0.2 "/>
     <polygon id="219" class="fil78" points="30.55,4.69 33.97,0.18 34.11,0.29 "/>
     <polygon id="220" class="fil78" points="30.55,4.69 34.08,0.27 34.22,0.38 "/>
     <polygon id="221" class="fil79" points="30.55,4.69 34.19,0.36 34.32,0.47 "/>
     <polygon id="222" class="fil79" points="30.55,4.69 34.29,0.45 34.42,0.56 "/>
     <polygon id="223" class="fil79" points="30.55,4.69 34.4,0.54 34.52,0.66 "/>
     <polygon id="224" class="fil80" points="30.55,4.69 34.5,0.64 34.62,0.76 "/>
     <polygon id="225" class="fil80" points="30.55,4.69 34.6,0.74 34.72,0.86 "/>
     <polygon id="226" class="fil80" points="30.55,4.69 34.69,0.84 34.81,0.96 "/>
     <polygon id="227" class="fil81" points="30.55,4.69 34.79,0.94 34.9,1.07 "/>
     <polygon id="228" class="fil81" points="30.55,4.69 34.87,1.04 34.99,1.18 "/>
     <polygon id="229" class="fil81" points="30.55,4.69 34.96,1.15 35.07,1.29 "/>
     <polygon id="230" class="fil82" points="30.55,4.69 35.05,1.26 35.15,1.4 "/>
     <polygon id="231" class="fil82" points="30.55,4.69 35.13,1.37 35.23,1.51 "/>
     <polygon id="232" class="fil82" points="30.55,4.69 35.21,1.49 35.31,1.63 "/>
     <polygon id="233" class="fil83" points="30.55,4.69 35.29,1.6 35.38,1.75 "/>
     <polygon id="234" class="fil83" points="30.55,4.69 35.36,1.72 35.45,1.87 "/>
     <polygon id="235" class="fil83" points="30.55,4.69 35.43,1.84 35.52,1.99 "/>
     <polygon id="236" class="fil84" points="30.55,4.69 35.5,1.96 35.58,2.11 "/>
     <polygon id="237" class="fil85" points="30.55,4.69 35.57,2.08 35.65,2.24 "/>
     <polygon id="238" class="fil85" points="30.55,4.69 35.63,2.21 35.7,2.36 "/>
     <polygon id="239" class="fil86" points="30.55,4.69 35.69,2.33 35.76,2.49 "/>
     <polygon id="240" class="fil86" points="30.55,4.69 35.75,2.46 35.81,2.62 "/>
     <polygon id="241" class="fil86" points="30.55,4.69 35.8,2.59 35.86,2.75 "/>
     <polygon id="242" class="fil87" points="30.55,4.69 35.85,2.71 35.91,2.88 "/>
     <polygon id="243" class="fil87" points="30.55,4.69 35.9,2.85 35.95,3.01 "/>
     <polygon id="244" class="fil87" points="30.55,4.69 35.94,2.98 35.99,3.14 "/>
     <polygon id="245" class="fil88" points="30.55,4.69 35.98,3.11 36.03,3.28 "/>
     <polygon id="246" class="fil88" points="30.55,4.69 36.02,3.24 36.06,3.41 "/>
     <polygon id="247" class="fil88" points="30.55,4.69 36.05,3.38 36.09,3.55 "/>
     <polygon id="248" class="fil89" points="30.55,4.69 36.08,3.51 36.11,3.68 "/>
     <polygon id="249" class="fil89" points="30.55,4.69 36.11,3.65 36.14,3.82 "/>
     <polygon id="250" class="fil89" points="30.55,4.69 36.13,3.79 36.16,3.96 "/>
     <polygon id="251" class="fil90" points="30.55,4.69 36.15,3.92 36.17,4.1 "/>
     <polygon id="252" class="fil90" points="30.55,4.69 36.17,4.06 36.19,4.23 "/>
     <polygon id="253" class="fil90" points="30.55,4.69 36.18,4.2 36.2,4.37 "/>
     <polygon id="254" class="fil91" points="30.55,4.69 36.19,4.34 36.2,4.51 "/>
     <polygon id="255" class="fil91" points="30.55,4.69 36.2,4.48 36.2,4.65 "/>
     <polygon id="256" class="fil1" points="30.55,4.69 36.2,4.62 36.2,4.76 "/>
    </g>
   </g>
   <path class="fil92" style="mask:url(#id1)" d="M34.45 4.69c0,2.12 -2.09,3.84 -3.26,3.84 -1.16,0 0.73,-0.51 0.73,-3.84 0,-3.34 -1.89,-3.85 -0.73,-3.85 1.17,0 3.26,1.72 3.26,3.85z"/>
  </g>
 </g>
</svg>
