<?xml version="1.0" encoding="UTF-8"?>
<!DOCTYPE svg PUBLIC "-//W3C//DTD SVG 1.1//EN" "http://www.w3.org/Graphics/SVG/1.1/DTD/svg11.dtd">
<!-- Creator: CorelDRAW 2018 (64-Bit) -->
<svg xmlns="http://www.w3.org/2000/svg" xml:space="preserve" width="90px" height="90px" version="1.1" style="shape-rendering:geometricPrecision; text-rendering:geometricPrecision; image-rendering:optimizeQuality; fill-rule:evenodd; clip-rule:evenodd"
viewBox="0 0 5.39 5.39"
 xmlns:xlink="http://www.w3.org/1999/xlink">
 <defs>
  <style type="text/css">
   <![CDATA[
    .fil0 {fill:#088378}
   ]]>
  </style>
 </defs>
 <g id="Layer_x0020_1">
  <metadata id="CorelCorpID_0Corel-Layer"/>
  <path class="fil0" d="M2.69 0c0.75,0 1.42,0.3 1.91,0.79 0.49,0.49 0.79,1.16 0.79,1.9 0,0.75 -0.3,1.42 -0.79,1.91 -0.49,0.49 -1.16,0.79 -1.91,0.79 -0.74,0 -1.41,-0.3 -1.9,-0.79 -0.49,-0.49 -0.79,-1.16 -0.79,-1.91 0,-0.74 0.3,-1.41 0.79,-1.9 0.49,-0.49 1.16,-0.79 1.9,-0.79zm1.75 2.48c-0.17,-0.17 -0.38,-0.29 -0.62,-0.34 0.03,-0.02 0.06,-0.05 0.09,-0.07 0.24,-0.24 0.37,-0.56 0.37,-0.9 0,-0.07 -0.06,-0.13 -0.13,-0.13 -0.39,0 -0.74,0.17 -0.98,0.45 -0.05,-0.23 -0.17,-0.44 -0.34,-0.62 -0.02,-0.02 -0.06,-0.03 -0.09,-0.03 -0.04,0 -0.07,0.01 -0.1,0.03 -0.18,0.19 -0.3,0.42 -0.35,0.67 -0.02,-0.02 -0.04,-0.04 -0.06,-0.06 -0.02,-0.03 -0.06,-0.04 -0.09,-0.04 -0.04,0 -0.07,0.01 -0.1,0.04 -0.19,0.18 -0.3,0.42 -0.35,0.66 -0.02,-0.02 -0.04,-0.04 -0.06,-0.06 -0.05,-0.06 -0.14,-0.06 -0.19,0 -0.46,0.46 -0.49,1.2 -0.09,1.69l-0.58 0.58c-0.38,-0.44 -0.61,-1.02 -0.61,-1.66 0,-0.7 0.28,-1.33 0.74,-1.79 0.46,-0.46 1.09,-0.74 1.79,-0.74 0.71,0 1.34,0.28 1.8,0.74 0.46,0.46 0.74,1.09 0.74,1.79 0,0.71 -0.28,1.34 -0.74,1.8 -0.46,0.46 -1.09,0.74 -1.8,0.74 -0.67,0 -1.28,-0.26 -1.73,-0.69l0 0 0.58 -0.58c0.23,0.18 0.51,0.28 0.8,0.28l0 0c0.34,0 0.66,-0.13 0.9,-0.37 0.02,-0.02 0.04,-0.06 0.04,-0.09 0,-0.04 -0.02,-0.07 -0.04,-0.09 -0.02,-0.03 -0.05,-0.05 -0.07,-0.07 0.25,-0.04 0.49,-0.16 0.67,-0.35 0.02,-0.02 0.04,-0.06 0.04,-0.09 0,-0.04 -0.02,-0.07 -0.04,-0.1 -0.02,-0.02 -0.04,-0.04 -0.07,-0.06 0.25,-0.04 0.48,-0.16 0.67,-0.35 0.01,-0.01 0.02,-0.03 0.03,-0.04 0.02,-0.05 0.01,-0.11 -0.03,-0.15l0 0zm-0.44 -1.17c-0.03,0.22 -0.12,0.41 -0.28,0.57 -0.14,0.14 -0.3,0.23 -0.49,0.27 0,0 0,0 0,0 -0.02,0.01 -0.05,0.01 -0.08,0.01 0.06,-0.44 0.41,-0.79 0.85,-0.85l0 0zm-1.26 -0.14c0.13,0.17 0.2,0.38 0.2,0.6 0,0.22 -0.07,0.43 -0.2,0.61 -0.13,-0.18 -0.2,-0.39 -0.2,-0.61 0,-0.22 0.07,-0.43 0.2,-0.6zm-0.6 0.6c0.26,0.36 0.26,0.85 0,1.21 -0.27,-0.36 -0.27,-0.85 0,-1.21zm-0.6 0.6c0.13,0.17 0.2,0.38 0.2,0.6 0,0.22 -0.07,0.43 -0.2,0.61 -0.13,-0.18 -0.2,-0.39 -0.2,-0.61 0,-0.22 0.07,-0.43 0.2,-0.6zm0.8 1.61c0,0 0,0 0,0 -0.22,0 -0.43,-0.07 -0.6,-0.2 0.17,-0.13 0.38,-0.2 0.6,-0.2 0.22,0 0.43,0.07 0.6,0.2 -0.17,0.13 -0.38,0.2 -0.6,0.2l0 0zm0.6 -0.6c-0.22,0 -0.43,-0.07 -0.6,-0.2 0.17,-0.13 0.38,-0.2 0.6,-0.2 0.22,0 0.43,0.07 0.61,0.2 -0.18,0.13 -0.39,0.2 -0.61,0.2zm0.6 -0.6c-0.22,0 -0.43,-0.07 -0.6,-0.2 0.11,-0.08 0.23,-0.14 0.36,-0.17 0,0 0,-0.01 0,-0.01 0.08,-0.01 0.16,-0.02 0.24,-0.02 0.22,0 0.43,0.07 0.61,0.2 -0.18,0.13 -0.39,0.2 -0.61,0.2l0 0z"/>
 </g>
</svg>
