<?xml version="1.0" encoding="UTF-8"?>
<!DOCTYPE svg PUBLIC "-//W3C//DTD SVG 1.1//EN" "http://www.w3.org/Graphics/SVG/1.1/DTD/svg11.dtd">
<!-- Creator: CorelDRAW 2018 (64-Bit) -->
<svg xmlns="http://www.w3.org/2000/svg" xml:space="preserve" width="90px" height="90px" version="1.1" style="shape-rendering:geometricPrecision; text-rendering:geometricPrecision; image-rendering:optimizeQuality; fill-rule:evenodd; clip-rule:evenodd"
viewBox="0 0 4.3 4.3"
 xmlns:xlink="http://www.w3.org/1999/xlink">
 <defs>
  <style type="text/css">
   <![CDATA[
    .fil0 {fill:#088378;fill-rule:nonzero}
   ]]>
  </style>
 </defs>
 <g id="Layer_x0020_1">
  <metadata id="CorelCorpID_0Corel-Layer"/>
  <path class="fil0" d="M2.15 0c0.6,0 1.13,0.24 1.52,0.63 0.39,0.39 0.63,0.93 0.63,1.52 0,0.6 -0.24,1.13 -0.63,1.52 -0.39,0.39 -0.92,0.63 -1.52,0.63 -0.59,0 -1.13,-0.24 -1.52,-0.63 -0.39,-0.39 -0.63,-0.92 -0.63,-1.52 0,-0.59 0.24,-1.13 0.63,-1.52 0.39,-0.39 0.93,-0.63 1.52,-0.63zm-0.71 1.68l1.43 0c0.1,0 0.14,0.01 0.18,0.04 0.04,0.02 0.07,0.05 0.09,0.09 0.02,0.03 0.03,0.07 0.03,0.18l0 0.62c0,0.12 -0.01,0.17 -0.03,0.21 -0.03,0.04 -0.06,0.08 -0.11,0.1 -0.04,0.03 -0.09,0.04 -0.21,0.04l-1.34 0c-0.12,0 -0.17,-0.01 -0.21,-0.04 -0.04,-0.02 -0.08,-0.06 -0.1,-0.1 -0.03,-0.04 -0.04,-0.09 -0.04,-0.21l0 -0.62c0,-0.11 0.01,-0.15 0.03,-0.18 0.02,-0.04 0.05,-0.07 0.09,-0.09 0.04,-0.03 0.08,-0.04 0.19,-0.04l0 0zm0.88 1.11c0.28,0 0.51,-0.23 0.51,-0.51 0,-0.28 -0.23,-0.51 -0.51,-0.51 -0.28,0 -0.51,0.23 -0.51,0.51 0,0.28 0.23,0.51 0.51,0.51zm0 -0.13c-0.21,0 -0.38,-0.17 -0.38,-0.38 0,-0.21 0.17,-0.38 0.38,-0.38 0.21,0 0.38,0.17 0.38,0.38 0,0.21 -0.17,0.38 -0.38,0.38zm-0.93 -0.59c0.07,0 0.12,-0.06 0.12,-0.13 0,-0.07 -0.05,-0.13 -0.12,-0.13 -0.07,0 -0.13,0.06 -0.13,0.13 0,0.07 0.06,0.13 0.13,0.13zm0.02 -0.64l0.34 0c0.02,0 0.03,0 0.04,0.01 0,0 0.01,0.01 0.01,0.01 0.01,0.01 0.01,0.02 0.01,0.04l0 0.01c0,0.01 0,0.02 -0.01,0.03 0,0.01 -0.01,0.01 -0.01,0.02 -0.01,0 -0.02,0.01 -0.04,0.01l-0.41 0 0 -0.07c0,-0.02 0.01,-0.03 0.01,-0.04 0,0 0.01,-0.01 0.02,-0.01 0.01,-0.01 0.02,-0.01 0.04,-0.01zm0.27 0.25l0.08 0c0.06,0 0.11,-0.03 0.14,-0.08l0.12 -0.18c0.03,-0.05 0.08,-0.08 0.14,-0.08l0.32 0c0.06,0 0.12,0.03 0.15,0.08l0.11 0.18c0.03,0.05 0.09,0.08 0.14,0.08l0.04 0 -1.24 0zm1.9 -0.96c-0.36,-0.37 -0.87,-0.6 -1.43,-0.6 -0.56,0 -1.06,0.23 -1.43,0.6 -0.37,0.37 -0.6,0.87 -0.6,1.43 0,0.56 0.23,1.07 0.6,1.43 0.37,0.37 0.87,0.6 1.43,0.6 0.56,0 1.07,-0.23 1.43,-0.6 0.37,-0.36 0.6,-0.87 0.6,-1.43 0,-0.56 -0.23,-1.06 -0.6,-1.43z"/>
 </g>
</svg>
