<?xml version="1.0" encoding="UTF-8"?>
<!DOCTYPE svg PUBLIC "-//W3C//DTD SVG 1.1//EN" "http://www.w3.org/Graphics/SVG/1.1/DTD/svg11.dtd">
<!-- Creator: CorelDRAW 2018 (64-Bit) -->
<svg xmlns="http://www.w3.org/2000/svg" xml:space="preserve" width="35px" height="35px" version="1.1" style="shape-rendering:geometricPrecision; text-rendering:geometricPrecision; image-rendering:optimizeQuality; fill-rule:evenodd; clip-rule:evenodd"
viewBox="0 0 1.56 1.56"
 xmlns:xlink="http://www.w3.org/1999/xlink">
 <defs>
  <style type="text/css">
   <![CDATA[
    .fil0 {fill:#088378}
   ]]>
  </style>
 </defs>
 <g id="Layer_x0020_1">
  <metadata id="CorelCorpID_0Corel-Layer"/>
  <path class="fil0" d="M0.22 0.01c0,0 -0.22,0.07 -0.22,0.25 0,0.18 0.15,0.5 0.47,0.83 0.33,0.32 0.65,0.47 0.83,0.47 0.19,0 0.26,-0.23 0.26,-0.23 0.01,-0.03 0,-0.06 -0.03,-0.08l-0.32 -0.2c-0.03,-0.02 -0.07,-0.02 -0.1,0l-0.12 0.07c-0.03,0.02 -0.09,0.02 -0.12,0 0,0 -0.1,-0.07 -0.23,-0.2 -0.13,-0.13 -0.19,-0.22 -0.19,-0.22 -0.03,-0.03 -0.03,-0.08 -0.01,-0.12l0.08 -0.12c0.01,-0.03 0.01,-0.07 -0.01,-0.1l-0.21 -0.33c-0.02,-0.03 -0.05,-0.04 -0.08,-0.02l0 0z"/>
 </g>
</svg>
