<?xml version="1.0" encoding="UTF-8"?>
<!DOCTYPE svg PUBLIC "-//W3C//DTD SVG 1.1//EN" "http://www.w3.org/Graphics/SVG/1.1/DTD/svg11.dtd">
<!-- Creator: CorelDRAW 2018 (64-Bit) -->
<svg xmlns="http://www.w3.org/2000/svg" xml:space="preserve" width="35px" height="34px" version="1.1" style="shape-rendering:geometricPrecision; text-rendering:geometricPrecision; image-rendering:optimizeQuality; fill-rule:evenodd; clip-rule:evenodd"
viewBox="0 0 1.54 1.49"
 xmlns:xlink="http://www.w3.org/1999/xlink">
 <defs>
  <style type="text/css">
   <![CDATA[
    .fil0 {fill:#088378}
   ]]>
  </style>
 </defs>
 <g id="Layer_x0020_1">
  <metadata id="CorelCorpID_0Corel-Layer"/>
  <path class="fil0" d="M0.67 0c0.19,0 0.35,0.17 0.35,0.38 0,0.21 -0.16,0.38 -0.35,0.38 -0.19,0 -0.35,-0.17 -0.35,-0.38 0,-0.21 0.16,-0.38 0.35,-0.38zm0.47 1.04l-0.08 0.08 0.06 0.07c0.03,0.03 0.03,0.07 0,0.1 -0.02,0.03 -0.07,0.03 -0.1,0l-0.06 -0.07 -0.07 0.07 0.07 0.06c0.03,0.03 0.03,0.08 0,0.1 -0.03,0.03 -0.07,0.03 -0.1,0l-0.12 -0.11 0 0c-0.03,-0.03 -0.03,-0.07 0,-0.1l0.16 -0.16c0,-0.01 0.01,-0.01 0.01,-0.01 0,0 0,0 0,0l0.13 -0.13c-0.02,-0.04 -0.04,-0.09 -0.04,-0.13 0,-0.08 0.03,-0.15 0.08,-0.2 0.05,-0.05 0.12,-0.08 0.19,-0.08 0.08,0 0.15,0.03 0.2,0.08 0.04,0.05 0.07,0.12 0.07,0.2 0,0.07 -0.03,0.14 -0.07,0.19 -0.05,0.05 -0.12,0.08 -0.2,0.08 -0.05,0 -0.09,-0.02 -0.13,-0.04zm0.22 -0.33c-0.02,-0.02 -0.05,-0.03 -0.09,-0.03 -0.03,0 -0.06,0.01 -0.09,0.03 -0.02,0.03 -0.03,0.06 -0.03,0.1 0,0.03 0.01,0.06 0.03,0.09 0.03,0.02 0.06,0.03 0.09,0.03 0.04,0 0.07,-0.01 0.09,-0.03 0.03,-0.03 0.04,-0.06 0.04,-0.09 0,-0.04 -0.01,-0.07 -0.04,-0.1zm-0.59 0.78c-0.03,0 -0.07,0 -0.1,0 -0.37,0 -0.67,-0.13 -0.67,-0.28 0,-0.12 0.06,-0.35 0.42,-0.42 0.07,0.05 0.16,0.08 0.25,0.08 0.09,0 0.18,-0.03 0.25,-0.08l0 0.02c0,0.03 0,0.06 0.01,0.09l0 0.02 -0.25 0.26c-0.03,0.03 -0.05,0.07 -0.05,0.11 0,0.03 0.02,0.07 0.04,0.1l0.1 0.1z"/>
 </g>
</svg>
