<?xml version="1.0" encoding="UTF-8"?>
<!DOCTYPE svg PUBLIC "-//W3C//DTD SVG 1.1//EN" "http://www.w3.org/Graphics/SVG/1.1/DTD/svg11.dtd">
<!-- Creator: CorelDRAW 2018 (64-Bit) -->
<svg xmlns="http://www.w3.org/2000/svg" xml:space="preserve" width="35px" height="35px" version="1.1" style="shape-rendering:geometricPrecision; text-rendering:geometricPrecision; image-rendering:optimizeQuality; fill-rule:evenodd; clip-rule:evenodd"
viewBox="0 0 1.77 1.77"
 xmlns:xlink="http://www.w3.org/1999/xlink">
 <defs>
  <style type="text/css">
   <![CDATA[
    .fil0 {fill:#5F5D5D}
   ]]>
  </style>
 </defs>
 <g id="Layer_x0020_1">
  <metadata id="CorelCorpID_0Corel-Layer"/>
  <path class="fil0" d="M1.43 0.96l-0.42 0c-0.05,0 -0.1,0.03 -0.12,0.07l-0.22 0.37c0.07,0.02 0.14,0.04 0.22,0.04 0.28,0 0.51,-0.21 0.54,-0.48zm0 -0.15c-0.03,-0.27 -0.26,-0.48 -0.54,-0.48 -0.08,0 -0.15,0.02 -0.22,0.04l0.22 0.37c0.02,0.04 0.07,0.07 0.12,0.07l0.42 0zm-0.88 -0.36c-0.13,0.1 -0.22,0.26 -0.22,0.44 0,0.17 0.09,0.33 0.22,0.43l0.21 -0.36c0.02,-0.05 0.02,-0.1 0,-0.15l-0.21 -0.36zm0.2 -0.25c0.02,-0.01 0.04,-0.03 0.05,-0.05l0.01 -0.1c0.01,-0.03 0.03,-0.05 0.06,-0.05l0.03 0c0.03,0 0.05,0.02 0.06,0.05l0.01 0.1c0.01,0.02 0.03,0.04 0.05,0.05 0.03,0 0.05,-0.01 0.07,-0.03l0.05 -0.08c0.01,-0.03 0.04,-0.04 0.07,-0.03l0.03 0.01c0.02,0.01 0.04,0.04 0.03,0.07l-0.02 0.1c-0.01,0.02 0,0.05 0.02,0.06 0.02,0.02 0.05,0.02 0.07,0l0.08 -0.06c0.03,-0.01 0.06,-0.01 0.08,0.01l0.02 0.02c0.02,0.02 0.02,0.05 0.01,0.08l-0.06 0.08c-0.02,0.02 -0.02,0.05 0,0.07 0.01,0.02 0.04,0.03 0.06,0.02l0.1 -0.02c0.03,-0.01 0.05,0 0.07,0.03l0.01 0.03c0.01,0.03 0,0.06 -0.03,0.07l-0.08 0.06c-0.02,0.01 -0.03,0.03 -0.03,0.06 0.01,0.02 0.03,0.04 0.05,0.05l0.1 0.01c0.03,0.01 0.05,0.03 0.05,0.06l0 0.03c0,0.03 -0.02,0.05 -0.05,0.06l-0.1 0.01c-0.02,0.01 -0.04,0.03 -0.05,0.05 0,0.03 0.01,0.05 0.03,0.06l0.08 0.06c0.03,0.01 0.04,0.04 0.03,0.07l-0.01 0.03c-0.02,0.03 -0.04,0.04 -0.07,0.03l-0.1 -0.02c-0.02,-0.01 -0.05,0 -0.06,0.02 -0.02,0.02 -0.02,0.05 0,0.07l0.06 0.08c0.01,0.03 0.01,0.06 -0.01,0.08l-0.02 0.02c-0.02,0.02 -0.05,0.02 -0.08,0.01l-0.08 -0.06c-0.02,-0.02 -0.05,-0.02 -0.07,0 -0.02,0.01 -0.03,0.04 -0.02,0.06l0.02 0.1c0.01,0.03 0,0.05 -0.03,0.07l-0.03 0.01c-0.03,0.01 -0.06,0 -0.07,-0.03l-0.06 -0.08c-0.01,-0.02 -0.03,-0.03 -0.06,-0.03 -0.02,0.01 -0.04,0.03 -0.05,0.05l-0.01 0.1c-0.01,0.03 -0.03,0.05 -0.06,0.05l-0.03 0c-0.03,0 -0.05,-0.02 -0.06,-0.05l-0.01 -0.1c-0.01,-0.02 -0.03,-0.04 -0.05,-0.05 -0.03,0 -0.05,0.01 -0.07,0.03l-0.05 0.08c-0.01,0.03 -0.04,0.04 -0.07,0.03l-0.03 -0.01c-0.02,-0.01 -0.04,-0.04 -0.03,-0.07l0.02 -0.1c0.01,-0.02 0,-0.05 -0.02,-0.06 -0.02,-0.02 -0.05,-0.02 -0.07,0l-0.08 0.06c-0.03,0.01 -0.06,0.01 -0.08,-0.01l-0.02 -0.02c-0.02,-0.02 -0.02,-0.05 -0.01,-0.08l0.06 -0.08c0.02,-0.02 0.02,-0.05 0,-0.07 -0.01,-0.02 -0.04,-0.03 -0.06,-0.02l-0.1 0.02c-0.03,0.01 -0.05,0 -0.07,-0.03l-0.01 -0.03c-0.01,-0.03 0,-0.06 0.03,-0.07l0.08 -0.06c0.02,-0.01 0.03,-0.03 0.03,-0.06 -0.01,-0.02 -0.03,-0.04 -0.05,-0.05l-0.1 -0.01c-0.03,-0.01 -0.05,-0.03 -0.05,-0.06l0 -0.03c0,-0.03 0.02,-0.05 0.05,-0.06l0.1 -0.01c0.02,-0.01 0.04,-0.03 0.05,-0.05 0,-0.03 -0.01,-0.05 -0.03,-0.07l-0.08 -0.05c-0.03,-0.01 -0.04,-0.04 -0.03,-0.07l0.01 -0.03c0.01,-0.02 0.04,-0.04 0.07,-0.03l0.1 0.02c0.02,0.01 0.05,0 0.06,-0.02 0.02,-0.02 0.02,-0.05 0,-0.07l-0.06 -0.08c-0.01,-0.03 -0.01,-0.06 0.01,-0.08l0.02 -0.02c0.02,-0.02 0.05,-0.02 0.08,-0.01l0.08 0.06c0.02,0.02 0.05,0.02 0.07,0 0.02,-0.01 0.03,-0.04 0.02,-0.06l-0.02 -0.1c-0.01,-0.03 0,-0.05 0.03,-0.07l0.03 -0.01c0.03,-0.01 0.06,0 0.07,0.03l0.06 0.08c0.01,0.02 0.03,0.03 0.06,0.03z"/>
 </g>
</svg>
