<?xml version="1.0" encoding="UTF-8"?>
<!DOCTYPE svg PUBLIC "-//W3C//DTD SVG 1.1//EN" "http://www.w3.org/Graphics/SVG/1.1/DTD/svg11.dtd">
<!-- Creator: CorelDRAW 2018 (64-Bit) -->
<svg xmlns="http://www.w3.org/2000/svg" xml:space="preserve" width="33px" height="35px" version="1.1" style="shape-rendering:geometricPrecision; text-rendering:geometricPrecision; image-rendering:optimizeQuality; fill-rule:evenodd; clip-rule:evenodd"
viewBox="0 0 1.36 1.46"
 xmlns:xlink="http://www.w3.org/1999/xlink">
 <defs>
  <style type="text/css">
   <![CDATA[
    .fil0 {fill:#088378}
   ]]>
  </style>
 </defs>
 <g id="Layer_x0020_1">
  <metadata id="CorelCorpID_0Corel-Layer"/>
  <path class="fil0" d="M0.68 0c0.16,0 0.28,0.13 0.3,0.29 0,0.07 -0.01,0.13 -0.04,0.19 -0.03,0.06 -0.08,0.12 -0.13,0.18 -0.04,0.05 -0.08,0.1 -0.12,0.15 0,0.02 -0.01,0.02 -0.02,0.01 -0.07,-0.09 -0.14,-0.17 -0.2,-0.25 -0.04,-0.06 -0.07,-0.12 -0.08,-0.19 -0.03,-0.18 0.08,-0.34 0.24,-0.38 0.02,0 0.04,0 0.05,0zm0.29 1.16c0,-0.02 0.01,-0.04 0.02,-0.05 0.01,-0.02 0.02,-0.03 0.03,-0.05 0.02,-0.01 0.04,-0.02 0.06,-0.02 0.02,-0.01 0.04,-0.01 0.06,-0.01 0.01,0 0.03,0 0.04,0.01 0.02,0 0.03,0.01 0.04,0.01 0.02,0.01 0.03,0.02 0.04,0.03 0.01,0.02 0.02,0.03 0.03,0.05l-0.06 0.03c-0.01,-0.02 -0.03,-0.04 -0.04,-0.05 -0.02,-0.01 -0.04,-0.01 -0.06,-0.01 -0.01,0 -0.02,0 -0.03,0 -0.01,0.01 -0.02,0.01 -0.03,0.02 -0.01,0 -0.01,0.01 -0.02,0.02 -0.01,0 -0.01,0.01 -0.01,0.02l0 0.16c0,0.02 0,0.02 0.01,0.03 0.01,0.01 0.01,0.02 0.02,0.02 0.01,0.01 0.02,0.01 0.03,0.02 0.01,0 0.02,0 0.03,0 0.02,0 0.04,0 0.06,-0.01 0.02,-0.01 0.03,-0.03 0.04,-0.05l0.06 0.03c-0.01,0.02 -0.02,0.03 -0.03,0.04 -0.01,0.02 -0.02,0.03 -0.04,0.03 -0.01,0.01 -0.02,0.02 -0.04,0.02 -0.02,0.01 -0.03,0.01 -0.05,0.01 -0.02,0 -0.04,0 -0.05,-0.01 -0.02,-0.01 -0.04,-0.01 -0.06,-0.02 -0.01,-0.02 -0.02,-0.03 -0.03,-0.05 -0.01,-0.01 -0.02,-0.03 -0.02,-0.06l0 -0.16zm-0.35 0.05l0.18 0 0 0.07 -0.18 0 0 0.1 0.2 0 0 0.07 -0.27 0 0 -0.41 0.27 0 0 0.06 -0.2 0 0 0.11zm-0.48 0.24l-0.07 0 0 -0.41 0.07 0 0 0.18 0.18 -0.18 0.08 0 -0.18 0.2 0.19 0.21 -0.09 0 -0.15 -0.16 -0.03 0.02 0 0.14zm0.13 -0.87c0.01,0.01 0.02,0.03 0.03,0.04l0.26 0.35 -0.04 0 -0.2 -0.27c-0.03,-0.04 -0.05,-0.07 -0.08,-0.11 0,0 -0.01,-0.01 -0.01,-0.01 -0.01,0 -0.01,0 -0.01,0.01 -0.05,0.03 -0.09,0.06 -0.14,0.1 -0.01,0.01 -0.01,0.01 0,0.03 0.05,0.08 0.1,0.17 0.16,0.25l-0.07 0 -0.16 -0.25c-0.01,-0.03 -0.01,-0.04 0.01,-0.06 0.06,-0.04 0.12,-0.09 0.18,-0.13 0.01,-0.01 0.02,-0.01 0.03,-0.01 0.05,-0.01 0.1,-0.01 0.14,-0.01 0.02,0 0.02,0.01 0.03,0.02 0,0.01 0.01,0.02 0.01,0.03 0,0 0.01,0 0.01,0.01 -0.01,0 -0.01,0 -0.01,0 -0.05,0 -0.09,0 -0.13,0 -0.01,0 -0.01,0 -0.01,0.01zm0.73 0.39l0 0c-0.07,-0.07 -0.14,-0.13 -0.21,-0.2 0,0 -0.01,0 0,-0.01 0,-0.01 0.01,-0.01 0.01,-0.02 0.01,0 0.01,0.01 0.01,0.01 0.04,0.04 0.08,0.07 0.12,0.11 0.03,0.03 0.06,0.07 0.1,0.1 0,0.01 0.01,0 0.02,0 0.07,-0.07 0.15,-0.13 0.22,-0.19 0.01,-0.01 0.01,-0.02 0,-0.02 -0.08,-0.04 -0.16,-0.09 -0.24,-0.13 -0.02,-0.02 -0.05,-0.04 -0.08,-0.05 -0.01,-0.01 -0.01,-0.01 -0.01,-0.02 0.01,-0.01 0.01,-0.01 0.01,-0.02 0.02,-0.02 0.01,-0.02 0.04,-0.01 0.12,0.07 0.23,0.14 0.35,0.2 0.03,0.02 0.03,0.04 0.01,0.06 -0.08,0.06 -0.16,0.13 -0.23,0.19l-0.12 0zm-0.17 -0.64c0,-0.08 -0.07,-0.15 -0.14,-0.15 -0.09,-0.01 -0.15,0.06 -0.15,0.15 0,0.09 0.06,0.16 0.14,0.16 0.08,0 0.14,-0.07 0.15,-0.16z"/>
 </g>
</svg>
