<?xml version="1.0" encoding="UTF-8"?>
<!DOCTYPE svg PUBLIC "-//W3C//DTD SVG 1.1//EN" "http://www.w3.org/Graphics/SVG/1.1/DTD/svg11.dtd">
<!-- Creator: CorelDRAW 2018 (64-Bit) -->
<svg xmlns="http://www.w3.org/2000/svg" xml:space="preserve" width="35px" height="35px" version="1.1" style="shape-rendering:geometricPrecision; text-rendering:geometricPrecision; image-rendering:optimizeQuality; fill-rule:evenodd; clip-rule:evenodd"
viewBox="0 0 1.56 1.56"
 xmlns:xlink="http://www.w3.org/1999/xlink">
 <defs>
  <style type="text/css">
   <![CDATA[
    .fil0 {fill:#088378}
   ]]>
  </style>
 </defs>
 <g id="Layer_x0020_1">
  <metadata id="CorelCorpID_0Corel-Layer"/>
  <path class="fil0" d="M0.78 0c0.42,0 0.76,0.33 0.78,0.74l-1.56 0c0.02,-0.41 0.36,-0.74 0.78,-0.74zm-0.37 0.53l0 0.16 -0.09 0 0 -0.45 0.17 0c0.02,0 0.04,0.01 0.06,0.01 0.02,0.01 0.04,0.01 0.05,0.03 0.02,0.01 0.03,0.02 0.04,0.04 0.01,0.02 0.01,0.04 0.01,0.07 0,0.04 -0.01,0.07 -0.02,0.09 -0.02,0.02 -0.05,0.03 -0.08,0.04l0.13 0.17 -0.11 0 -0.13 -0.16 -0.03 0zm0.08 -0.09c0.02,0 0.04,0 0.05,-0.01 0.01,-0.01 0.02,-0.02 0.02,-0.04 0,-0.02 -0.01,-0.04 -0.02,-0.04 -0.01,-0.01 -0.03,-0.01 -0.04,-0.01 0,0 -0.01,0 -0.01,0l-0.08 0 0 0.1 0.08 0zm0.62 -0.1l0 0.35 -0.09 0 0 -0.35 -0.13 0 0 -0.1 0.35 0 0 0.1 -0.13 0zm-0.7 0.82l0 0.16 -0.09 0 0 -0.45 0.17 0c0.02,0 0.04,0.01 0.06,0.01 0.02,0.01 0.04,0.02 0.05,0.03 0.02,0.01 0.03,0.02 0.04,0.04 0.01,0.02 0.01,0.04 0.01,0.07 0,0.04 -0.01,0.07 -0.02,0.09 -0.02,0.02 -0.05,0.04 -0.08,0.04l0.13 0.17 -0.11 0 -0.13 -0.16 -0.03 0zm0.08 -0.09c0.02,0 0.04,0 0.05,-0.01 0.01,-0.01 0.02,-0.02 0.02,-0.04 0,-0.02 -0.01,-0.03 -0.02,-0.04 -0.01,-0.01 -0.03,-0.01 -0.04,-0.01 0,0 -0.01,0 -0.01,0l-0.08 0 0 0.1 0.08 0zm0.18 -0.2l0.1 0 0.06 0.24 0.01 0.1 0.01 0 0.01 -0.1c0.01,-0.02 0.02,-0.04 0.02,-0.05 0,-0.01 0.01,-0.03 0.01,-0.04 0.01,-0.01 0.01,-0.02 0.02,-0.03 0,-0.02 0.01,-0.03 0.01,-0.05l0.08 0 0.05 0.17 0.02 0.11 0.01 0 0.01 -0.11 0.06 -0.24 0.1 0 -0.13 0.45 -0.09 0 -0.06 -0.17 -0.01 -0.05 0 0c-0.01,0.01 -0.01,0.02 -0.01,0.02 0,0.01 0,0.02 0,0.02l-0.01 0.01 -0.05 0.17 -0.09 0 -0.13 -0.45zm0.89 -0.06c-0.01,0.42 -0.36,0.75 -0.78,0.75 -0.42,0 -0.77,-0.33 -0.78,-0.75l1.56 0z"/>
 </g>
</svg>
