<?xml version="1.0" encoding="UTF-8"?>
<!DOCTYPE svg PUBLIC "-//W3C//DTD SVG 1.1//EN" "http://www.w3.org/Graphics/SVG/1.1/DTD/svg11.dtd">
<!-- Creator: CorelDRAW 2018 (64-Bit) -->
<svg xmlns="http://www.w3.org/2000/svg" xml:space="preserve" width="542px" height="63px" version="1.1" style="shape-rendering:geometricPrecision; text-rendering:geometricPrecision; image-rendering:optimizeQuality; fill-rule:evenodd; clip-rule:evenodd"
viewBox="0 0 229.25 26.47"
 xmlns:xlink="http://www.w3.org/1999/xlink">
 <defs>
  <style type="text/css">
   <![CDATA[
    .fil0 {fill:#088378;fill-rule:nonzero}
   ]]>
  </style>
 </defs>
 <g id="Layer_x0020_1">
  <metadata id="CorelCorpID_0Corel-Layer"/>
  <path class="fil0" d="M5.84 0l217.58 0c1.6,0 3.06,0.66 4.12,1.71 1.05,1.06 1.71,2.52 1.71,4.13l0 14.79c0,1.6 -0.66,3.06 -1.71,4.12 -1.06,1.06 -2.52,1.72 -4.12,1.72l-217.58 0c-1.61,0 -3.07,-0.66 -4.12,-1.72 -1.06,-1.05 -1.72,-2.51 -1.72,-4.12l0 -14.79c0,-1.61 0.66,-3.07 1.71,-4.13 1.06,-1.05 2.52,-1.71 4.13,-1.71zm217.58 1l-217.58 0c-1.33,0 -2.54,0.54 -3.42,1.42 -0.88,0.88 -1.42,2.09 -1.42,3.42l0 14.79c0,1.33 0.54,2.54 1.42,3.42 0.88,0.87 2.09,1.42 3.42,1.42l217.58 0c1.32,0 2.53,-0.55 3.41,-1.42 0.88,-0.88 1.42,-2.09 1.42,-3.42l0 -14.79c0,-1.33 -0.54,-2.54 -1.42,-3.42 -0.88,-0.88 -2.09,-1.42 -3.41,-1.42z"/>
 </g>
</svg>
