<?xml version="1.0" encoding="UTF-8"?>
<!DOCTYPE svg PUBLIC "-//W3C//DTD SVG 1.1//EN" "http://www.w3.org/Graphics/SVG/1.1/DTD/svg11.dtd">
<!-- Creator: CorelDRAW 2018 (64-Bit) -->
<svg xmlns="http://www.w3.org/2000/svg" xml:space="preserve" width="34px" height="34px" version="1.1" style="shape-rendering:geometricPrecision; text-rendering:geometricPrecision; image-rendering:optimizeQuality; fill-rule:evenodd; clip-rule:evenodd"
viewBox="0 0 1.91 1.91"
 xmlns:xlink="http://www.w3.org/1999/xlink">
 <defs>
  <style type="text/css">
   <![CDATA[
    .fil0 {fill:#3767B0;fill-rule:nonzero}
   ]]>
  </style>
 </defs>
 <g id="Layer_x0020_1">
  <metadata id="CorelCorpID_0Corel-Layer"/>
  <path class="fil0" d="M0.95 0c0.27,0 0.51,0.11 0.68,0.28 0.17,0.17 0.28,0.41 0.28,0.67 0,0.27 -0.11,0.51 -0.28,0.68 -0.17,0.17 -0.41,0.28 -0.68,0.28 -0.26,0 -0.5,-0.11 -0.67,-0.28 -0.17,-0.17 -0.28,-0.41 -0.28,-0.68 0,-0.26 0.11,-0.5 0.28,-0.67 0.17,-0.17 0.41,-0.28 0.67,-0.28zm0.59 0.37c-0.15,-0.15 -0.36,-0.25 -0.59,-0.25 -0.23,0 -0.43,0.1 -0.58,0.25 -0.15,0.15 -0.25,0.35 -0.25,0.58 0,0.23 0.1,0.44 0.25,0.59 0.15,0.15 0.35,0.25 0.58,0.25 0.23,0 0.44,-0.1 0.59,-0.25 0.15,-0.15 0.25,-0.36 0.25,-0.59 0,-0.23 -0.1,-0.43 -0.25,-0.58zm-0.5 0.35l0 -0.09c0,-0.05 0.03,-0.06 0.05,-0.06 0.03,0 0.14,0 0.14,0l0 -0.2 -0.19 -0.01c-0.2,0 -0.24,0.16 -0.24,0.25l0 0.11 -0.12 0 0 0.24 0.12 0c0,0.27 0,0.59 0,0.59l0.23 0c0,0 0,-0.33 0,-0.59l0.18 0 0.01 -0.1 0.01 -0.14 -0.19 0z"/>
 </g>
</svg>
