<?xml version="1.0" encoding="UTF-8"?>
<!DOCTYPE svg PUBLIC "-//W3C//DTD SVG 1.1//EN" "http://www.w3.org/Graphics/SVG/1.1/DTD/svg11.dtd">
<!-- Creator: CorelDRAW 2018 (64-Bit) -->
<svg xmlns="http://www.w3.org/2000/svg" xml:space="preserve" width="35px" height="30px" version="1.1" style="shape-rendering:geometricPrecision; text-rendering:geometricPrecision; image-rendering:optimizeQuality; fill-rule:evenodd; clip-rule:evenodd"
viewBox="0 0 1.2 1"
 xmlns:xlink="http://www.w3.org/1999/xlink">
 <defs>
  <style type="text/css">
   <![CDATA[
    .fil0 {fill:#FEFEFE}
   ]]>
  </style>
 </defs>
 <g id="Layer_x0020_1">
  <metadata id="CorelCorpID_0Corel-Layer"/>
  <path class="fil0" d="M0.2 0l0.19 0c0.03,0 0.04,0 0.06,0 0.01,0.01 0.03,0.01 0.04,0.02 0.01,0.01 0.02,0.02 0.05,0.04l0.02 0.03c0.03,0.02 0.04,0.03 0.05,0.04 0.01,0.01 0.03,0.01 0.04,0.02 0.01,0 0.03,0 0.06,0l0.3 0c0.06,0 0.09,0.01 0.11,0.02 0.03,0.01 0.05,0.03 0.06,0.06 0.01,0.02 0.02,0.05 0.02,0.11l0 0.45c0,0.08 -0.01,0.1 -0.02,0.13 -0.02,0.02 -0.04,0.04 -0.06,0.06 -0.03,0.01 -0.06,0.02 -0.13,0.02l-0.79 0c-0.07,0 -0.09,-0.01 -0.12,-0.02 -0.02,-0.02 -0.04,-0.04 -0.06,-0.06 -0.01,-0.03 -0.02,-0.05 -0.02,-0.13l0 -0.59c0,-0.07 0.01,-0.09 0.02,-0.12 0.02,-0.02 0.04,-0.04 0.06,-0.06 0.03,-0.01 0.05,-0.02 0.12,-0.02l0 0zm-0.04 0.27c-0.01,0 -0.01,0.01 -0.02,0.01 0,0 -0.01,0.01 -0.01,0.01 0,0 -0.01,0.01 -0.01,0.02l0 0c0,0.01 0.01,0.02 0.01,0.02 0,0.01 0.01,0.01 0.01,0.02 0.01,0 0.01,0 0.02,0l0.88 0c0.01,0 0.01,0 0.02,0 0,-0.01 0.01,-0.01 0.01,-0.02 0,0 0,-0.01 0,-0.02l0 0c0,-0.01 0,-0.02 0,-0.02 0,0 -0.01,-0.01 -0.01,-0.01 -0.01,0 -0.01,-0.01 -0.02,-0.01l-0.88 0z"/>
 </g>
</svg>
