<?xml version="1.0" encoding="UTF-8"?>
<!DOCTYPE svg PUBLIC "-//W3C//DTD SVG 1.1//EN" "http://www.w3.org/Graphics/SVG/1.1/DTD/svg11.dtd">
<!-- Creator: CorelDRAW 2018 (64-Bit) -->
<svg xmlns="http://www.w3.org/2000/svg" xml:space="preserve" width="90px" height="90px" version="1.1" style="shape-rendering:geometricPrecision; text-rendering:geometricPrecision; image-rendering:optimizeQuality; fill-rule:evenodd; clip-rule:evenodd"
viewBox="0 0 3.87 3.85"
 xmlns:xlink="http://www.w3.org/1999/xlink">
 <defs>
  <style type="text/css">
   <![CDATA[
    .fil0 {fill:#FEFEFE}
   ]]>
  </style>
 </defs>
 <g id="Layer_x0020_1">
  <metadata id="CorelCorpID_0Corel-Layer"/>
  <path class="fil0" d="M1.93 1.47c0.13,0 0.25,0.05 0.33,0.14l0 -0.01c0.11,-0.32 0.13,-0.67 -0.33,-0.67 -0.22,0 -0.33,0.08 -0.37,0.2 0,0 -0.01,0 -0.01,0 0.13,0.07 0.25,0.19 0.34,0.34 0.02,0 0.03,0 0.04,0zm-0.27 -1.47l0.55 0c0.61,0.02 1.01,0.15 1.26,0.4 0.25,0.26 0.36,0.64 0.39,1.16 0.01,0.15 0.01,0.57 0,0.72 -0.03,0.52 -0.14,0.9 -0.39,1.16 -0.25,0.26 -0.65,0.39 -1.26,0.41 -0.05,0 -0.51,0 -0.55,0 -0.61,-0.02 -1.01,-0.15 -1.26,-0.41 -0.26,-0.26 -0.36,-0.64 -0.39,-1.16 -0.01,-0.15 -0.01,-0.57 0,-0.72 0.03,-0.52 0.13,-0.9 0.39,-1.16 0.25,-0.25 0.65,-0.38 1.26,-0.4l0 0zm0.55 0.09l-0.55 0c-0.59,0.02 -0.96,0.14 -1.2,0.38 -0.23,0.24 -0.33,0.6 -0.36,1.1l0 0.71c0.03,0.5 0.13,0.86 0.36,1.1 0.24,0.24 0.61,0.36 1.2,0.37l0.55 0c0.58,-0.01 0.96,-0.13 1.19,-0.37 0.24,-0.24 0.34,-0.6 0.36,-1.1l0 -0.71c-0.02,-0.5 -0.12,-0.86 -0.36,-1.1 -0.23,-0.24 -0.61,-0.36 -1.19,-0.38zm0.1 1.57c0.05,0.08 0.08,0.17 0.08,0.26 0,0.04 -0.01,0.08 -0.02,0.12 0.34,-0.06 0.65,-0.22 0.42,-0.61 -0.11,-0.19 -0.23,-0.25 -0.36,-0.22 0,-0.01 0,-0.01 0,-0.02 0,0.15 -0.04,0.32 -0.12,0.47zm0.04 0.46c-0.06,0.12 -0.17,0.21 -0.3,0.24 0.22,0.26 0.51,0.45 0.74,0.06 0.11,-0.19 0.09,-0.33 0.01,-0.42 0.01,-0.01 0.01,-0.01 0.01,-0.01 -0.13,0.07 -0.29,0.12 -0.46,0.13zm-0.38 0.26c-0.01,0 -0.02,0 -0.04,0 -0.12,0 -0.24,-0.05 -0.32,-0.14 -0.11,0.33 -0.13,0.67 0.32,0.67 0.22,0 0.33,-0.08 0.37,-0.2 -0.12,-0.07 -0.24,-0.19 -0.33,-0.33zm-0.41 -0.2c-0.05,-0.07 -0.08,-0.16 -0.08,-0.26 0,-0.04 0,-0.08 0.01,-0.12 -0.33,0.07 -0.64,0.22 -0.41,0.62 0.11,0.19 0.23,0.24 0.35,0.22 0.01,-0.15 0.05,-0.31 0.13,-0.46zm-0.04 -0.45c0.06,-0.12 0.16,-0.21 0.3,-0.25 -0.23,-0.26 -0.52,-0.45 -0.74,-0.05 -0.11,0.19 -0.1,0.32 -0.02,0.42 0,0 -0.01,0 -0.01,0.01 0.13,-0.08 0.3,-0.12 0.47,-0.13zm0.91 -0.56c0,0 0,0 0,-0.01 0,0.01 0,0.01 0,0.01zm-0.01 -0.09c-0.02,-0.15 -0.1,-0.27 -0.23,-0.33 -0.05,0.08 -0.15,0.14 -0.26,0.14 -0.11,0 -0.2,-0.06 -0.25,-0.14 -0.14,0.06 -0.21,0.18 -0.24,0.33 -0.13,-0.05 -0.28,-0.05 -0.4,0.03 0.05,0.09 0.05,0.2 0,0.3 -0.06,0.09 -0.15,0.14 -0.26,0.15 0,0.14 0.06,0.27 0.18,0.36 -0.12,0.1 -0.18,0.22 -0.18,0.37 0.11,0 0.2,0.06 0.26,0.15 0.05,0.09 0.05,0.21 0,0.29 0.12,0.09 0.27,0.09 0.4,0.04 0.03,0.14 0.1,0.26 0.24,0.33 0.05,-0.09 0.14,-0.14 0.25,-0.14 0.11,0 0.21,0.05 0.26,0.14 0.13,-0.07 0.21,-0.19 0.23,-0.33 0.14,0.05 0.28,0.05 0.4,-0.04 -0.04,-0.08 -0.05,-0.2 0.01,-0.29 0.05,-0.09 0.15,-0.15 0.25,-0.15 0.01,-0.15 -0.06,-0.27 -0.17,-0.37 0.11,-0.09 0.18,-0.22 0.17,-0.36 -0.1,-0.01 -0.2,-0.06 -0.25,-0.15 -0.06,-0.1 -0.05,-0.21 -0.01,-0.3 -0.12,-0.08 -0.26,-0.08 -0.4,-0.03zm0.41 0.9c-0.01,0 -0.01,0.01 -0.01,0.01l0.01 -0.01zm-0.4 -0.8c0,0 0,0.01 0,0.01l0 -0.01zm0.87 -0.05c0.07,0.12 0.03,0.27 -0.09,0.34 -0.12,0.07 -0.27,0.03 -0.34,-0.09 -0.06,-0.12 -0.02,-0.27 0.09,-0.34 0.12,-0.07 0.27,-0.03 0.34,0.09zm-0.96 1.6c0,0 0,0 -0.01,0l0.01 0zm-0.02 -0.01c-0.01,0 -0.01,-0.01 -0.02,-0.01 0.01,0 0.01,0.01 0.02,0.01zm0.98 -0.01c-0.07,0.12 -0.22,0.16 -0.34,0.09 -0.11,-0.06 -0.15,-0.21 -0.09,-0.33 0.07,-0.12 0.22,-0.16 0.34,-0.09 0.12,0.06 0.16,0.22 0.09,0.33zm-1.87 -0.06c0,0 0,-0.01 0,-0.01l0 0.01zm0.5 0.85c-0.13,0 -0.24,-0.11 -0.24,-0.24 0,-0.14 0.11,-0.25 0.24,-0.25 0.14,0 0.25,0.11 0.25,0.25 0,0.13 -0.11,0.24 -0.25,0.24zm-0.91 -1.63c0.01,0 0.01,0 0.02,0 -0.01,0 -0.01,0 -0.02,0zm0.02 0c0,-0.01 0.01,-0.01 0.01,-0.01 0,0 -0.01,0 -0.01,0.01zm-0.48 0.84c-0.07,-0.11 -0.03,-0.27 0.09,-0.33 0.12,-0.07 0.27,-0.03 0.34,0.09 0.07,0.12 0.03,0.27 -0.09,0.33 -0.12,0.07 -0.27,0.03 -0.34,-0.09zm0.96 -1.6c0.01,0.01 0.02,0.01 0.03,0.02 -0.01,-0.01 -0.02,-0.01 -0.03,-0.02zm-0.96 0.02c0.07,-0.12 0.22,-0.16 0.34,-0.09 0.12,0.07 0.16,0.22 0.09,0.34 -0.07,0.12 -0.22,0.16 -0.34,0.09 -0.12,-0.07 -0.16,-0.22 -0.09,-0.34zm1.37 -0.79c0.14,0 0.25,0.11 0.25,0.25 0,0.13 -0.11,0.25 -0.25,0.25 -0.13,0 -0.24,-0.12 -0.24,-0.25 0,-0.14 0.11,-0.25 0.24,-0.25zm0.06 1.9c0,0 -0.02,-0.04 0.09,-0.1 0.12,-0.05 0.13,-0.07 0.17,-0.16 0.04,-0.1 0.04,-0.12 0.04,-0.12 0,0 -0.13,-0.04 -0.22,0.01 -0.09,0.04 -0.11,0.12 -0.12,0.16 -0.01,0.04 0,0.12 0,0.12 0,0 0.04,-0.13 0.09,-0.17 0.06,-0.04 0.13,-0.06 0.13,-0.06 0,0 -0.22,0.17 -0.18,0.32zm-0.08 -0.32c0,0 -0.1,-0.06 -0.08,-0.19 0.02,-0.14 0.1,-0.19 0.1,-0.19 0,0 0.1,0.07 0.1,0.19 0.01,0.12 -0.07,0.19 -0.07,0.19l-0.03 -0.27c0,0 -0.02,0.12 -0.02,0.27zm-0.03 0.32c0,0 0.02,-0.04 -0.1,-0.1 -0.11,-0.05 -0.13,-0.07 -0.16,-0.16 -0.04,-0.1 -0.05,-0.12 -0.05,-0.12 0,0 0.14,-0.04 0.22,0.01 0.09,0.04 0.11,0.12 0.12,0.16 0.01,0.04 0.01,0.12 0.01,0.12 0,0 -0.04,-0.13 -0.1,-0.17 -0.06,-0.04 -0.13,-0.06 -0.13,-0.06 0,0 0.23,0.17 0.19,0.32z"/>
 </g>
</svg>
