<?xml version="1.0" encoding="UTF-8"?>
<!DOCTYPE svg PUBLIC "-//W3C//DTD SVG 1.1//EN" "http://www.w3.org/Graphics/SVG/1.1/DTD/svg11.dtd">
<!-- Creator: CorelDRAW 2018 (64-Bit) -->
<svg xmlns="http://www.w3.org/2000/svg" xml:space="preserve" width="97px" height="50px" version="1.1" style="shape-rendering:geometricPrecision; text-rendering:geometricPrecision; image-rendering:optimizeQuality; fill-rule:evenodd; clip-rule:evenodd"
viewBox="0 0 6.19 3.19"
 xmlns:xlink="http://www.w3.org/1999/xlink">
 <defs>
  <style type="text/css">
   <![CDATA[
    .fil0 {fill:#088378}
   ]]>
  </style>
 </defs>
 <g id="Layer_x0020_1">
  <metadata id="CorelCorpID_0Corel-Layer"/>
  <path class="fil0" d="M0.54 1.52c-0.09,-0.1 -0.1,-0.23 0.01,-0.42 0.23,-0.4 0.52,-0.21 0.75,0.05 -0.14,0.04 -0.25,0.13 -0.3,0.25l0 0c-0.17,0.01 -0.33,0.05 -0.46,0.12zm2.68 0.23l0 -0.11 0 0 0 -0.59c0,-0.08 -0.01,-0.18 -0.09,-0.18l0 -0.03c0.2,0 0.31,0.04 0.31,0.24l0 0.12 0.16 0 0 0.21 -0.16 0 0 0.23 0 0.11c0,0.12 0.09,0.12 0.18,0.1l0 0.18c-0.25,0.09 -0.4,-0.04 -0.4,-0.28zm0.48 0.01l0 -0.28c0,-0.39 0.67,-0.41 0.67,-0.01l0 0.25 -0.44 0 0 0.04c0,0.12 0.2,0.13 0.26,0.03l0.15 0.11c-0.14,0.27 -0.64,0.19 -0.64,-0.14zm0.46 -0.29c0,-0.12 -0.23,-0.11 -0.23,0.01l0 0.07 0.23 0 0 -0.08zm0.78 -0.27l0 0.18c-0.08,-0.02 -0.22,0 -0.22,0.11l0 0.56 -0.23 0 0 -0.57c0,-0.25 0.24,-0.33 0.45,-0.28zm0.53 0l0 0.18c-0.08,-0.02 -0.22,0 -0.22,0.11l0 0.56 -0.23 0 0 -0.57c0,-0.25 0.24,-0.33 0.45,-0.28zm0.05 0.59c0,-0.25 0.24,-0.32 0.45,-0.25l0 -0.06c0,-0.17 -0.22,-0.13 -0.31,-0.04l-0.11 -0.12c0.2,-0.23 0.64,-0.17 0.64,0.16l0 0.52c-0.22,0.08 -0.67,0.14 -0.67,-0.21zm0.24 -0.08c-0.04,0.04 -0.04,0.11 0.01,0.15 0.04,0.04 0.14,0.03 0.19,0.02l0 -0.18c-0.05,-0.02 -0.15,-0.03 -0.2,0.01zm-4.39 -0.57c-0.08,-0.15 -0.2,-0.26 -0.33,-0.34 0.04,-0.12 0.15,-0.2 0.37,-0.2 0.46,0 0.44,0.35 0.33,0.67 -0.08,-0.08 -0.2,-0.14 -0.33,-0.14 -0.01,0 -0.02,0.01 -0.04,0.01zm0.42 0.19c0.08,-0.15 0.12,-0.31 0.13,-0.46 0.12,-0.02 0.25,0.03 0.36,0.23 0.23,0.39 -0.08,0.55 -0.42,0.61 0.01,-0.03 0.01,-0.07 0.01,-0.12 0,-0.09 -0.03,-0.18 -0.08,-0.26zm0.04 0.46c0.17,-0.01 0.33,-0.05 0.46,-0.12 0.08,0.1 0.1,0.23 -0.01,0.42 -0.23,0.4 -0.52,0.21 -0.75,-0.05 0.13,-0.04 0.24,-0.13 0.3,-0.25zm-0.38 0.26c0.09,0.15 0.21,0.26 0.34,0.34l0 0c-0.04,0.12 -0.15,0.2 -0.38,0.2 -0.45,0 -0.44,-0.35 -0.32,-0.67 0.08,0.08 0.2,0.13 0.32,0.13 0.02,0 0.03,0 0.04,0zm-0.41 -0.19l0 0c-0.08,0.15 -0.13,0.31 -0.13,0.46 -0.12,0.02 -0.25,-0.03 -0.36,-0.23 -0.23,-0.39 0.08,-0.55 0.42,-0.62 -0.01,0.04 -0.02,0.08 -0.02,0.12 0,0.1 0.04,0.19 0.09,0.27zm0.43 0.06c0,0 -0.02,-0.05 0.1,-0.1 0.11,-0.06 0.13,-0.08 0.16,-0.17 0.04,-0.1 0.05,-0.12 0.05,-0.12 0,0 -0.14,-0.03 -0.23,0.01 -0.08,0.04 -0.11,0.12 -0.12,0.16 0,0.04 0,0.12 0,0.12 0,0 0.04,-0.12 0.1,-0.17 0.05,-0.04 0.13,-0.05 0.13,-0.05 0,0 -0.23,0.16 -0.19,0.32zm-0.07 -0.33c0,0 -0.11,-0.06 -0.09,-0.19 0.02,-0.14 0.1,-0.19 0.1,-0.19 0,0 0.1,0.07 0.11,0.19 0,0.12 -0.08,0.19 -0.08,0.19l-0.03 -0.27c0,0 -0.02,0.12 -0.01,0.27zm-0.04 0.33c0,0 0.02,-0.05 -0.1,-0.1 -0.11,-0.06 -0.13,-0.08 -0.17,-0.17 -0.03,-0.1 -0.04,-0.12 -0.04,-0.12 0,0 0.14,-0.03 0.22,0.01 0.09,0.04 0.11,0.12 0.12,0.16 0.01,0.04 0.01,0.12 0.01,0.12 0,0 -0.04,-0.12 -0.1,-0.17 -0.06,-0.04 -0.13,-0.05 -0.13,-0.05 0,0 0.23,0.16 0.19,0.32zm-0.44 0.53c0.03,0.14 0.1,0.26 0.24,0.33 0.05,-0.09 0.14,-0.14 0.25,-0.14 0.11,0 0.21,0.05 0.26,0.14 0.14,-0.07 0.21,-0.19 0.24,-0.33 0.14,0.05 0.28,0.04 0.4,-0.04 -0.05,-0.09 -0.05,-0.2 0.01,-0.29 0.05,-0.1 0.15,-0.15 0.25,-0.16 0.01,-0.14 -0.06,-0.27 -0.17,-0.37 0.11,-0.09 0.18,-0.22 0.17,-0.36 -0.1,-0.01 -0.2,-0.06 -0.25,-0.16 -0.06,-0.09 -0.06,-0.2 -0.01,-0.29 -0.12,-0.08 -0.26,-0.09 -0.4,-0.04 -0.03,-0.14 -0.1,-0.27 -0.24,-0.33 -0.05,0.08 -0.15,0.14 -0.26,0.14 -0.11,0 -0.2,-0.06 -0.25,-0.14 -0.14,0.06 -0.21,0.19 -0.24,0.33 -0.14,-0.05 -0.28,-0.04 -0.4,0.04 0.04,0.09 0.05,0.2 -0.01,0.29 -0.05,0.1 -0.15,0.15 -0.25,0.16 -0.01,0.14 0.06,0.27 0.17,0.36 -0.11,0.1 -0.18,0.23 -0.17,0.37 0.1,0.01 0.2,0.06 0.25,0.16 0.06,0.09 0.05,0.2 0.01,0.29 0.12,0.08 0.26,0.09 0.4,0.04zm-0.89 -0.06c-0.07,-0.12 -0.02,-0.27 0.09,-0.34 0.12,-0.07 0.28,-0.03 0.34,0.09 0.07,0.12 0.03,0.27 -0.09,0.34 -0.12,0.07 -0.27,0.03 -0.34,-0.09zm1.38 0.8c-0.13,0 -0.24,-0.11 -0.24,-0.25 0,-0.14 0.11,-0.25 0.24,-0.25 0.14,0 0.25,0.11 0.25,0.25 0,0.14 -0.11,0.25 -0.25,0.25zm1.39 -0.8c-0.07,0.12 -0.23,0.16 -0.35,0.09 -0.11,-0.07 -0.15,-0.22 -0.09,-0.34 0.07,-0.12 0.22,-0.16 0.34,-0.09 0.12,0.07 0.16,0.22 0.1,0.34zm0 -1.59c0.06,0.12 0.02,0.27 -0.1,0.34 -0.12,0.07 -0.27,0.03 -0.34,-0.09 -0.06,-0.12 -0.02,-0.28 0.09,-0.34 0.12,-0.07 0.28,-0.03 0.35,0.09zm-1.39 -0.8c0.14,0 0.25,0.11 0.25,0.25 0,0.14 -0.11,0.25 -0.25,0.25 -0.13,0 -0.24,-0.11 -0.24,-0.25 0,-0.14 0.11,-0.25 0.24,-0.25zm-1.38 0.8c0.07,-0.12 0.22,-0.16 0.34,-0.09 0.12,0.06 0.16,0.22 0.09,0.34 -0.06,0.12 -0.22,0.16 -0.34,0.09 -0.11,-0.07 -0.16,-0.22 -0.09,-0.34z"/>
 </g>
</svg>
