<?xml version="1.0" encoding="UTF-8"?>
<!DOCTYPE svg PUBLIC "-//W3C//DTD SVG 1.1//EN" "http://www.w3.org/Graphics/SVG/1.1/DTD/svg11.dtd">
<!-- Creator: CorelDRAW 2018 (64-Bit) -->
<svg xmlns="http://www.w3.org/2000/svg" xml:space="preserve" width="133px" height="71px" version="1.1" style="shape-rendering:geometricPrecision; text-rendering:geometricPrecision; image-rendering:optimizeQuality; fill-rule:evenodd; clip-rule:evenodd"
viewBox="0 0 9.75 5.21"
 xmlns:xlink="http://www.w3.org/1999/xlink">
 <defs>
  <style type="text/css">
   <![CDATA[
    .fil0 {fill:#B6B6B7;fill-rule:nonzero}
   ]]>
  </style>
 </defs>
 <g id="Layer_x0020_1">
  <metadata id="CorelCorpID_0Corel-Layer"/>
  <path class="fil0" d="M0.27 2.9l0 -0.35 0 0 0 -1.89c0,-0.24 -0.04,-0.55 -0.27,-0.57l0 -0.09c0.64,0 0.99,0.14 0.99,0.75l0 0.39 0.48 0 0 0.66 -0.48 0 0 0.75 0 0.34c0,0.38 0.27,0.38 0.56,0.33l0 0.59c-0.78,0.26 -1.28,-0.13 -1.28,-0.91zm9.26 2.1c-0.03,0 -0.06,0 -0.09,-0.01 -0.02,-0.01 -0.05,-0.02 -0.07,-0.04 -0.02,-0.01 -0.04,-0.03 -0.05,-0.06 -0.01,-0.02 -0.02,-0.05 -0.02,-0.08l0 -0.2c0,-0.03 0.01,-0.06 0.02,-0.09 0.01,-0.02 0.03,-0.04 0.05,-0.06 0.02,-0.01 0.05,-0.02 0.07,-0.03 0.03,-0.01 0.06,-0.01 0.09,-0.01 0.02,0 0.05,0 0.08,0.01 0.02,0.01 0.05,0.02 0.07,0.03 0.02,0.02 0.03,0.04 0.05,0.06 0.01,0.03 0.02,0.06 0.02,0.09l0 0.15 -0.33 0 0 0.04c0,0.02 0.01,0.03 0.01,0.04 0.01,0.01 0.02,0.02 0.02,0.02 0.01,0.01 0.02,0.02 0.04,0.02 0.01,0 0.02,0.01 0.03,0.01 0.02,0 0.04,-0.01 0.06,-0.02 0.02,-0.01 0.04,-0.02 0.05,-0.04l0.1 0.06c-0.01,0.02 -0.03,0.03 -0.04,0.05 -0.02,0.01 -0.03,0.02 -0.05,0.03 -0.02,0.01 -0.04,0.02 -0.06,0.02 -0.02,0.01 -0.04,0.01 -0.05,0.01zm0.1 -0.39c0,-0.01 0,-0.02 -0.01,-0.03 0,-0.01 -0.01,-0.02 -0.02,-0.03 -0.01,0 -0.02,-0.01 -0.03,-0.01 -0.02,-0.01 -0.03,-0.01 -0.04,-0.01 -0.02,0 -0.03,0 -0.04,0.01 -0.01,0 -0.03,0.01 -0.04,0.01 -0.01,0.01 -0.01,0.02 -0.02,0.03 0,0.01 -0.01,0.02 -0.01,0.03l0 0.06 0.21 0 0 -0.06zm-0.52 -0.19c0.01,0 0.02,0 0.03,0 0.01,0 0.02,0 0.03,0l0 0.11c-0.01,-0.01 -0.03,-0.01 -0.04,-0.01 0,0 -0.01,0 -0.01,0 -0.02,0 -0.04,0.01 -0.05,0.01 -0.02,0.01 -0.03,0.02 -0.04,0.03 -0.01,0.02 -0.02,0.03 -0.02,0.05l0 0.38 -0.12 0 0 -0.38c0,-0.04 0.01,-0.08 0.03,-0.1 0.02,-0.03 0.05,-0.05 0.08,-0.07 0,0 0.01,-0.01 0.03,-0.01 0.01,0 0.02,-0.01 0.03,-0.01 0.01,0 0.02,0 0.03,0 0.01,0 0.01,0 0.02,0zm-0.63 0.58c-0.03,0 -0.06,0 -0.09,-0.01 -0.03,-0.01 -0.05,-0.02 -0.07,-0.03 -0.02,-0.02 -0.04,-0.04 -0.05,-0.07 -0.01,-0.02 -0.02,-0.05 -0.02,-0.08l0 -0.38 0.12 0 0 0.38c0,0.01 0.01,0.03 0.01,0.04 0.01,0.01 0.02,0.02 0.03,0.03 0.01,0 0.03,0.01 0.04,0.01 0.01,0.01 0.03,0.01 0.04,0.01 0.02,0 0.03,0 0.05,-0.01 0.01,0 0.02,-0.01 0.04,-0.01l0 -0.45 0.11 0 0 0.52c-0.03,0.02 -0.07,0.03 -0.1,0.04 -0.04,0.01 -0.08,0.01 -0.11,0.01zm-0.43 0c-0.03,0 -0.05,0 -0.08,-0.01 -0.02,-0.01 -0.04,-0.02 -0.06,-0.04 -0.02,-0.01 -0.03,-0.03 -0.04,-0.06 -0.01,-0.02 -0.02,-0.05 -0.02,-0.09l0 -0.51 0.11 0 0.01 0.14 0.11 0 0 0.11 -0.11 0 0 0.26c0,0.02 0,0.04 0.01,0.05 0.01,0.01 0.02,0.02 0.03,0.03 0.01,0.01 0.02,0.01 0.04,0.01 0.01,0 0.03,0 0.05,0l0 0.11c-0.02,0 -0.03,0 -0.05,0zm-0.61 0c-0.03,0 -0.06,0 -0.09,-0.01 -0.03,-0.01 -0.05,-0.02 -0.07,-0.03 -0.02,-0.02 -0.04,-0.04 -0.05,-0.07 -0.01,-0.02 -0.02,-0.05 -0.02,-0.08l0 -0.38 0.12 0 0 0.38c0,0.01 0.01,0.03 0.01,0.04 0.01,0.01 0.02,0.02 0.03,0.03 0.01,0 0.03,0.01 0.04,0.01 0.01,0.01 0.03,0.01 0.04,0.01 0.02,0 0.03,0 0.05,-0.01 0.01,0 0.02,-0.01 0.04,-0.01l0 -0.45 0.11 0 0 0.52c-0.03,0.02 -0.07,0.03 -0.1,0.04 -0.04,0.01 -0.08,0.01 -0.11,0.01zm-0.76 -0.44l0.33 0 0 0.13 -0.33 0 0 0.3 -0.13 0 0 -0.77 0.51 0 0 0.13 -0.38 0 0 0.21zm-0.75 0.44c-0.03,0 -0.06,0 -0.08,-0.01 -0.03,-0.01 -0.05,-0.02 -0.08,-0.04 -0.02,-0.01 -0.03,-0.03 -0.05,-0.06 -0.01,-0.02 -0.01,-0.05 -0.01,-0.08l0 -0.2c0,-0.03 0,-0.06 0.01,-0.09 0.02,-0.02 0.03,-0.04 0.05,-0.06 0.03,-0.01 0.05,-0.02 0.08,-0.03 0.02,-0.01 0.05,-0.01 0.08,-0.01 0.02,0 0.05,0 0.08,0.01 0.02,0.01 0.05,0.02 0.07,0.03 0.02,0.02 0.04,0.04 0.05,0.06 0.01,0.03 0.02,0.06 0.02,0.09l0 0.15 -0.32 0 0 0.04c0,0.02 0,0.03 0,0.04 0.01,0.01 0.02,0.02 0.03,0.02 0.01,0.01 0.02,0.02 0.03,0.02 0.01,0 0.02,0.01 0.04,0.01 0.02,0 0.04,-0.01 0.06,-0.02 0.02,-0.01 0.03,-0.02 0.04,-0.04l0.1 0.06c-0.01,0.02 -0.02,0.03 -0.04,0.05 -0.01,0.01 -0.03,0.02 -0.05,0.03 -0.02,0.01 -0.04,0.02 -0.06,0.02 -0.01,0.01 -0.03,0.01 -0.05,0.01zm0.1 -0.39c0,-0.01 0,-0.02 -0.01,-0.03 0,-0.01 -0.01,-0.02 -0.02,-0.03 -0.01,0 -0.02,-0.01 -0.03,-0.01 -0.02,-0.01 -0.03,-0.01 -0.04,-0.01 -0.01,0 -0.03,0 -0.04,0.01 -0.01,0 -0.02,0.01 -0.03,0.01 -0.01,0.01 -0.02,0.02 -0.03,0.03 0,0.01 0,0.02 0,0.03l0 0.06 0.2 0 0 -0.06zm-0.73 -0.19c0.01,0 0.01,0 0.01,0 0.03,0 0.05,0 0.08,0.01 0.02,0.01 0.05,0.02 0.07,0.03 0.02,0.02 0.03,0.04 0.04,0.07 0.02,0.02 0.02,0.05 0.02,0.08l0 0.38 -0.12 0 0 -0.38c0,-0.02 0,-0.04 -0.02,-0.06 -0.01,-0.01 -0.03,-0.02 -0.05,-0.02 -0.01,0 -0.03,0 -0.04,0 -0.01,0 -0.02,0 -0.03,0 -0.02,0 -0.04,0.01 -0.06,0.02l0 0.44 -0.12 0 0 -0.77 0.12 0 0 0.22c0.03,-0.02 0.07,-0.02 0.1,-0.02zm-0.43 0.58c-0.02,0 -0.05,0 -0.07,-0.01 -0.03,-0.01 -0.05,-0.02 -0.07,-0.04 -0.02,-0.01 -0.03,-0.03 -0.04,-0.06 -0.01,-0.02 -0.01,-0.05 -0.01,-0.09l0 -0.51 0.1 0 0.01 0.14 0.11 0 0 0.11 -0.11 0 0 0.26c0,0.02 0.01,0.04 0.01,0.05 0.01,0.01 0.02,0.02 0.03,0.03 0.01,0.01 0.03,0.01 0.04,0.01 0.02,0 0.03,0 0.05,0l0 0.11c-0.02,0 -0.03,0 -0.05,0zm-0.83 0.11c0.01,0 0.03,-0.01 0.04,-0.01 0.01,-0.01 0.02,-0.01 0.03,-0.02 0.01,-0.01 0.02,-0.02 0.03,-0.04 0,-0.02 0.01,-0.04 0.01,-0.06 -0.02,0.01 -0.04,0.01 -0.06,0.02 -0.01,0 -0.03,0 -0.05,0 -0.03,0 -0.05,0 -0.08,-0.01 -0.03,-0.01 -0.05,-0.02 -0.07,-0.04 -0.02,-0.02 -0.04,-0.04 -0.05,-0.06 -0.01,-0.02 -0.02,-0.05 -0.02,-0.08l0 -0.2c0,-0.03 0.01,-0.06 0.02,-0.08 0.01,-0.03 0.03,-0.05 0.05,-0.07 0.03,-0.01 0.05,-0.02 0.08,-0.03 0.03,-0.01 0.06,-0.01 0.09,-0.01 0.03,0 0.07,0 0.11,0.01 0.03,0.01 0.06,0.03 0.09,0.05l0 0.52c0,0.04 -0.01,0.07 -0.02,0.09 -0.01,0.03 -0.03,0.05 -0.05,0.07 -0.02,0.01 -0.04,0.03 -0.07,0.04 -0.02,0 -0.05,0.01 -0.08,0.01 -0.02,0 -0.04,0 -0.06,-0.01 -0.02,0 -0.04,-0.01 -0.06,-0.02 -0.02,0 -0.04,-0.02 -0.05,-0.03 -0.02,-0.01 -0.03,-0.03 -0.04,-0.04l0.07 -0.07c0.01,0.02 0.03,0.04 0.06,0.05 0.03,0.01 0.05,0.02 0.08,0.02zm0.01 -0.58c-0.01,0 -0.03,0 -0.04,0 -0.01,0.01 -0.02,0.01 -0.03,0.02 -0.01,0 -0.02,0.01 -0.03,0.02 -0.01,0.02 -0.01,0.03 -0.01,0.04l0 0.2c0,0.01 0,0.02 0.01,0.03 0.01,0.02 0.02,0.02 0.03,0.03 0.01,0.01 0.02,0.02 0.03,0.02 0.01,0 0.03,0 0.04,0 0.02,0 0.03,0 0.05,0 0.02,-0.01 0.03,-0.01 0.04,-0.02l0 -0.32c-0.01,-0.01 -0.02,-0.01 -0.04,-0.02 -0.01,0 -0.03,0 -0.05,0zm-0.41 0.09l0 0.37 -0.12 0 0 -0.37c0,-0.02 -0.01,-0.03 -0.01,-0.04 -0.01,-0.01 -0.02,-0.02 -0.03,-0.03 -0.01,-0.01 -0.03,-0.01 -0.04,-0.02 -0.01,0 -0.03,0 -0.04,0 -0.02,0 -0.03,0 -0.05,0 -0.01,0.01 -0.02,0.01 -0.03,0.02l0 0.44 -0.12 0 0 -0.53c0.02,-0.01 0.05,-0.02 0.09,-0.03 0.03,-0.01 0.07,-0.01 0.1,-0.01 0.03,0 0.06,0 0.09,0.01 0.03,0 0.06,0.02 0.08,0.03 0.02,0.02 0.04,0.04 0.06,0.06 0.01,0.03 0.02,0.06 0.02,0.1zm-0.78 -0.33c0,-0.03 0.01,-0.05 0.02,-0.06 0.02,-0.02 0.03,-0.02 0.06,-0.02 0.02,0 0.04,0 0.05,0.02 0.02,0.01 0.03,0.03 0.03,0.06 0,0.02 -0.01,0.04 -0.03,0.05 -0.01,0.02 -0.03,0.03 -0.05,0.03 -0.03,0 -0.04,-0.01 -0.06,-0.03 -0.01,-0.01 -0.02,-0.03 -0.02,-0.05zm0.14 0.7l-0.13 0 0 -0.56 0.13 0 0 0.56zm-0.32 -0.39l0 0.39 -0.12 0 0 -0.38c0,-0.03 -0.01,-0.05 -0.03,-0.06 -0.02,-0.01 -0.04,-0.02 -0.06,-0.02 -0.01,0 -0.03,0 -0.04,0.01 -0.01,0 -0.02,0.01 -0.03,0.01 -0.01,0.01 -0.01,0.01 -0.02,0.02 0,0.01 -0.01,0.02 -0.01,0.03l0 0.39 -0.11 0 0 -0.39c0,-0.01 -0.01,-0.02 -0.01,-0.03 -0.01,-0.01 -0.02,-0.02 -0.03,-0.02 0,-0.01 -0.02,-0.01 -0.03,-0.01 -0.01,-0.01 -0.02,-0.01 -0.03,-0.01 -0.02,0 -0.03,0 -0.05,0.01 -0.01,0 -0.02,0.01 -0.04,0.02l0 0.43 -0.11 0 0 -0.51c0.02,-0.02 0.05,-0.04 0.09,-0.05 0.03,-0.01 0.06,-0.01 0.1,-0.01 0.03,0 0.06,0 0.09,0.01 0.03,0.01 0.06,0.03 0.07,0.06 0.02,-0.02 0.04,-0.04 0.07,-0.05 0.03,-0.02 0.06,-0.02 0.09,-0.02 0.02,0 0.05,0 0.07,0.01 0.03,0.01 0.05,0.02 0.07,0.03 0.02,0.02 0.04,0.04 0.05,0.06 0.01,0.02 0.02,0.05 0.02,0.08zm-0.94 -0.18c0.01,0 0.02,0 0.03,0 0.01,0 0.02,0 0.03,0l0 0.11c-0.01,-0.01 -0.02,-0.01 -0.04,-0.01 0,0 0,0 -0.01,0 -0.02,0 -0.03,0.01 -0.05,0.01 -0.02,0.01 -0.03,0.02 -0.04,0.03 -0.01,0.02 -0.02,0.03 -0.02,0.05l0 0.38 -0.12 0 0 -0.38c0,-0.04 0.01,-0.08 0.03,-0.1 0.02,-0.03 0.05,-0.05 0.08,-0.07 0.01,0 0.02,-0.01 0.03,-0.01 0.01,0 0.02,-0.01 0.03,-0.01 0.01,0 0.02,0 0.03,0 0.01,0 0.02,0 0.02,0zm-0.53 0.19c0,-0.02 0,-0.03 -0.01,-0.04 0,-0.01 -0.01,-0.02 -0.02,-0.03 -0.01,0 -0.03,-0.01 -0.04,-0.01 -0.02,-0.01 -0.03,-0.01 -0.05,-0.01 -0.02,0 -0.04,0.01 -0.06,0.01 -0.02,0.01 -0.04,0.02 -0.05,0.04l-0.07 -0.07c0.03,-0.03 0.06,-0.06 0.09,-0.07 0.04,-0.01 0.07,-0.01 0.11,-0.01 0.03,0 0.05,0 0.08,0.01 0.03,0.01 0.05,0.02 0.07,0.03 0.02,0.02 0.04,0.04 0.05,0.06 0.02,0.02 0.02,0.05 0.02,0.08l0 0.36c-0.02,0.01 -0.06,0.02 -0.09,0.03 -0.04,0.01 -0.08,0.01 -0.12,0.01 -0.03,0 -0.06,0 -0.09,-0.01 -0.02,0 -0.05,-0.01 -0.07,-0.02 -0.02,-0.02 -0.04,-0.04 -0.05,-0.06 -0.01,-0.02 -0.02,-0.05 -0.02,-0.08 0,-0.03 0,-0.06 0.02,-0.08 0.01,-0.02 0.02,-0.04 0.04,-0.06 0.02,-0.01 0.05,-0.02 0.07,-0.03 0.03,-0.01 0.05,-0.01 0.08,-0.01 0.02,0 0.04,0 0.06,0 0.02,0.01 0.04,0.01 0.05,0.02l0 -0.06zm-0.09 0.13c-0.04,0 -0.07,0.01 -0.09,0.03 -0.01,0.01 -0.02,0.03 -0.02,0.06 0,0.01 0,0.02 0.01,0.03 0,0.01 0.01,0.02 0.02,0.03 0.01,0 0.02,0 0.03,0.01 0.01,0 0.03,0 0.04,0 0.02,0 0.04,0 0.06,0 0.01,0 0.03,-0.01 0.04,-0.01l0 -0.13c-0.01,0 -0.02,-0.01 -0.04,-0.01 -0.02,0 -0.04,-0.01 -0.05,-0.01zm-0.72 -0.18l0.33 0 0 0.13 -0.33 0 0 0.3 -0.13 0 0 -0.77 0.51 0 0 0.13 -0.38 0 0 0.21zm1.41 -1.62l0 -0.9c0,-1.24 2.14,-1.31 2.14,-0.03l0 0.8 -1.41 0 0 0.12c0,0.38 0.65,0.41 0.83,0.11l0.47 0.35c-0.45,0.84 -2.03,0.61 -2.03,-0.45zm1.46 -0.92c0,-0.38 -0.73,-0.37 -0.73,0.01l0 0.24 0.73 0 0 -0.25zm2.5 -0.88l0 0.59c-0.26,-0.07 -0.72,-0.01 -0.72,0.33l0 1.79 -0.72 0 0 -1.8c0,-0.79 0.77,-1.06 1.44,-0.91zm1.7 0l0 0.59c-0.26,-0.07 -0.72,-0.01 -0.72,0.33l0 1.79 -0.73 0 0 -1.8c0,-0.79 0.77,-1.06 1.45,-0.91zm0.13 1.9c0,-0.8 0.79,-1.02 1.45,-0.8l0 -0.19c0,-0.55 -0.72,-0.41 -0.99,-0.13l-0.36 -0.38c0.65,-0.74 2.05,-0.56 2.05,0.51l0 1.65c-0.7,0.26 -2.15,0.44 -2.15,-0.66zm0.79 -0.26c-0.13,0.13 -0.13,0.36 0.01,0.47 0.14,0.12 0.45,0.1 0.63,0.05l0 -0.54c-0.18,-0.08 -0.5,-0.11 -0.64,0.02z"/>
 </g>
</svg>
