<?xml version="1.0" encoding="UTF-8"?>
<!DOCTYPE svg PUBLIC "-//W3C//DTD SVG 1.1//EN" "http://www.w3.org/Graphics/SVG/1.1/DTD/svg11.dtd">
<!-- Creator: CorelDRAW 2018 (64-Bit) -->
<svg xmlns="http://www.w3.org/2000/svg" xml:space="preserve" width="90px" height="90px" version="1.1" style="shape-rendering:geometricPrecision; text-rendering:geometricPrecision; image-rendering:optimizeQuality; fill-rule:evenodd; clip-rule:evenodd"
viewBox="0 0 4.92 4.9"
 xmlns:xlink="http://www.w3.org/1999/xlink">
 <defs>
  <style type="text/css">
   <![CDATA[
    .fil0 {fill:#B6B6B7}
   ]]>
  </style>
 </defs>
 <g id="Layer_x0020_1">
  <metadata id="CorelCorpID_0Corel-Layer"/>
  <path class="fil0" d="M2.46 1.87c0.16,0 0.31,0.06 0.41,0.17l0 0c0.15,-0.41 0.17,-0.85 -0.41,-0.85 -0.28,0 -0.42,0.1 -0.47,0.25 -0.01,0 -0.01,0 -0.02,-0.01 0.17,0.1 0.32,0.25 0.44,0.44 0.02,0 0.03,0 0.05,0zm-0.35 -1.87l0.7 0c0.78,0.02 1.28,0.19 1.6,0.51 0.33,0.33 0.46,0.82 0.5,1.48 0.01,0.19 0.01,0.72 0,0.91 -0.04,0.67 -0.17,1.15 -0.5,1.48 -0.32,0.33 -0.82,0.49 -1.6,0.51 -0.06,0.01 -0.65,0.01 -0.7,0 -0.78,-0.02 -1.28,-0.18 -1.61,-0.51 -0.32,-0.33 -0.45,-0.81 -0.49,-1.48 -0.01,-0.19 -0.01,-0.72 0,-0.91 0.04,-0.66 0.17,-1.15 0.49,-1.48 0.33,-0.32 0.83,-0.49 1.61,-0.51l0 0zm0.7 0.12l-0.7 0c-0.74,0.02 -1.22,0.17 -1.52,0.48 -0.3,0.3 -0.43,0.76 -0.46,1.39l0 0.91c0.03,0.63 0.16,1.09 0.46,1.4 0.3,0.3 0.78,0.45 1.52,0.48l0.7 0c0.74,-0.03 1.22,-0.18 1.52,-0.48 0.3,-0.31 0.43,-0.77 0.46,-1.4l0 -0.91c-0.03,-0.63 -0.16,-1.09 -0.46,-1.39 -0.3,-0.31 -0.78,-0.46 -1.52,-0.48zm0.12 1.99c0.07,0.1 0.11,0.21 0.11,0.34 0,0.05 -0.01,0.1 -0.02,0.15 0.43,-0.08 0.82,-0.28 0.53,-0.78 -0.14,-0.25 -0.3,-0.31 -0.46,-0.28 0,-0.01 0,-0.02 0,-0.02 0,0.19 -0.05,0.4 -0.16,0.59zm0.06 0.58c-0.08,0.16 -0.21,0.27 -0.38,0.32 0.28,0.33 0.65,0.57 0.94,0.07 0.14,-0.25 0.12,-0.42 0.01,-0.54 0.01,0 0.02,-0.01 0.02,-0.01 -0.16,0.1 -0.37,0.16 -0.59,0.16zm-0.48 0.34c-0.02,0 -0.03,0 -0.05,0 -0.16,0 -0.31,-0.07 -0.41,-0.17 -0.15,0.41 -0.17,0.85 0.41,0.85 0.28,0 0.42,-0.11 0.47,-0.26 -0.16,-0.09 -0.31,-0.24 -0.42,-0.42zm-0.53 -0.25c-0.06,-0.09 -0.1,-0.21 -0.1,-0.33 0,-0.06 0.01,-0.11 0.02,-0.15 -0.43,0.08 -0.82,0.28 -0.53,0.78 0.14,0.24 0.3,0.31 0.46,0.28 0,-0.19 0.05,-0.39 0.15,-0.58zm-0.05 -0.58c0.08,-0.15 0.21,-0.27 0.38,-0.31 -0.28,-0.33 -0.65,-0.57 -0.94,-0.07 -0.14,0.24 -0.12,0.41 -0.02,0.53 0,0.01 -0.01,0.01 -0.01,0.01 0.16,-0.09 0.37,-0.15 0.59,-0.16zm1.16 -0.71c0,0 0,-0.01 0,-0.01 0,0 0,0.01 0,0.01zm-0.01 -0.12c-0.03,-0.18 -0.13,-0.34 -0.29,-0.42 -0.07,0.11 -0.19,0.18 -0.33,0.18 -0.14,0 -0.26,-0.07 -0.33,-0.18 -0.17,0.08 -0.26,0.24 -0.29,0.42 -0.18,-0.06 -0.36,-0.06 -0.52,0.04 0.07,0.12 0.07,0.26 0,0.38 -0.07,0.12 -0.19,0.19 -0.32,0.19 -0.01,0.19 0.07,0.35 0.22,0.47 -0.15,0.12 -0.23,0.28 -0.22,0.46 0.13,0.01 0.25,0.07 0.32,0.19 0.07,0.12 0.07,0.27 0,0.38 0.16,0.1 0.34,0.11 0.52,0.04 0.03,0.19 0.12,0.34 0.29,0.43 0.07,-0.11 0.19,-0.19 0.33,-0.19 0.14,0 0.26,0.08 0.33,0.19 0.16,-0.09 0.26,-0.24 0.29,-0.43 0.18,0.07 0.36,0.06 0.51,-0.04 -0.06,-0.11 -0.06,-0.26 0.01,-0.38 0.07,-0.12 0.19,-0.18 0.32,-0.19 0.01,-0.18 -0.08,-0.34 -0.22,-0.46 0.14,-0.12 0.23,-0.28 0.22,-0.47 -0.13,0 -0.25,-0.07 -0.32,-0.19 -0.07,-0.12 -0.07,-0.26 -0.01,-0.38 -0.15,-0.1 -0.33,-0.1 -0.51,-0.04zm0.52 1.15c-0.01,0 -0.01,0.01 -0.02,0.01l0.02 -0.01zm-0.51 -1.02c0,0 0,0.01 0,0.02l0 -0.02zm1.11 -0.06c0.09,0.15 0.04,0.34 -0.11,0.43 -0.15,0.09 -0.35,0.04 -0.43,-0.11 -0.09,-0.16 -0.04,-0.35 0.11,-0.43 0.15,-0.09 0.35,-0.04 0.43,0.11zm-1.22 2.04c0,0 -0.01,-0.01 -0.01,-0.01l0.01 0.01zm-0.03 -0.02c-0.01,0 -0.01,-0.01 -0.02,-0.01 0.01,0 0.01,0.01 0.02,0.01zm1.25 -0.01c-0.08,0.15 -0.28,0.21 -0.43,0.12 -0.15,-0.09 -0.2,-0.28 -0.11,-0.43 0.08,-0.15 0.28,-0.2 0.43,-0.12 0.15,0.09 0.2,0.28 0.11,0.43zm-2.37 -0.07c0,-0.01 0,-0.02 0,-0.02l0 0.02zm0.63 1.08c-0.17,0 -0.32,-0.14 -0.32,-0.31 0,-0.18 0.15,-0.32 0.32,-0.32 0.17,0 0.31,0.14 0.31,0.32 0,0.17 -0.14,0.31 -0.31,0.31zm-1.16 -2.08c0.01,0 0.01,0 0.02,0 -0.01,0 -0.01,0 -0.02,0zm0.02 -0.01c0.01,0 0.01,0 0.02,-0.01 -0.01,0.01 -0.01,0.01 -0.02,0.01zm-0.6 1.08c-0.09,-0.15 -0.04,-0.34 0.11,-0.43 0.15,-0.08 0.34,-0.03 0.43,0.12 0.09,0.15 0.04,0.34 -0.11,0.43 -0.16,0.09 -0.35,0.03 -0.43,-0.12zm1.21 -2.04c0.02,0.01 0.03,0.02 0.04,0.02 -0.01,0 -0.02,-0.01 -0.04,-0.02zm-1.21 0.03c0.08,-0.15 0.28,-0.2 0.43,-0.11 0.15,0.08 0.2,0.27 0.11,0.43 -0.09,0.15 -0.28,0.2 -0.43,0.11 -0.15,-0.09 -0.2,-0.28 -0.11,-0.43zm1.74 -1.01c0.17,0 0.31,0.14 0.31,0.32 0,0.17 -0.14,0.31 -0.31,0.31 -0.17,0 -0.32,-0.14 -0.32,-0.31 0,-0.18 0.15,-0.32 0.32,-0.32zm0.07 2.43c0,0 -0.03,-0.07 0.12,-0.13 0.15,-0.07 0.17,-0.1 0.21,-0.22 0.05,-0.11 0.06,-0.14 0.06,-0.14 0,0 -0.17,-0.05 -0.28,0.01 -0.12,0.06 -0.14,0.15 -0.15,0.2 -0.02,0.05 -0.01,0.15 -0.01,0.15 0,0 0.05,-0.15 0.12,-0.21 0.07,-0.06 0.17,-0.07 0.17,-0.07 0,0 -0.29,0.21 -0.24,0.41zm-0.09 -0.42c0,0 -0.13,-0.07 -0.11,-0.24 0.02,-0.18 0.12,-0.24 0.12,-0.24 0,0 0.13,0.09 0.14,0.24 0,0.15 -0.1,0.24 -0.1,0.24l-0.04 -0.34c0,0 -0.02,0.15 -0.01,0.34zm-0.05 0.42c0,0 0.03,-0.07 -0.12,-0.13 -0.15,-0.07 -0.17,-0.1 -0.21,-0.22 -0.05,-0.11 -0.06,-0.14 -0.06,-0.14 0,0 0.17,-0.05 0.28,0.01 0.11,0.06 0.14,0.15 0.15,0.2 0.01,0.05 0.01,0.15 0.01,0.15 0,0 -0.05,-0.15 -0.12,-0.21 -0.08,-0.06 -0.17,-0.07 -0.17,-0.07 0,0 0.29,0.21 0.24,0.41z"/>
 </g>
</svg>
