<?xml version="1.0" encoding="UTF-8"?>
<!DOCTYPE svg PUBLIC "-//W3C//DTD SVG 1.1//EN" "http://www.w3.org/Graphics/SVG/1.1/DTD/svg11.dtd">
<!-- Creator: CorelDRAW 2018 (64-Bit) -->
<svg xmlns="http://www.w3.org/2000/svg" xml:space="preserve" width="133px" height="133px" version="1.1" style="shape-rendering:geometricPrecision; text-rendering:geometricPrecision; image-rendering:optimizeQuality; fill-rule:evenodd; clip-rule:evenodd"
viewBox="0 0 16 15.94"
 xmlns:xlink="http://www.w3.org/1999/xlink">
 <defs>
  <style type="text/css">
   <![CDATA[
    .fil0 {fill:#FEFEFE}
   ]]>
  </style>
 </defs>
 <g id="Layer_x0020_1">
  <metadata id="CorelCorpID_0Corel-Layer"/>
  <path class="fil0" d="M8 6.08c0.53,0 1.01,0.21 1.35,0.57l-0.01 -0.02c0.47,-1.33 0.54,-2.76 -1.34,-2.76 -0.91,0 -1.36,0.33 -1.53,0.83 -0.02,-0.01 -0.04,-0.02 -0.06,-0.03 0.54,0.31 1.05,0.81 1.43,1.41 0.05,0 0.11,0 0.16,0zm-1.14 -6.08l2.29 0c2.52,0.07 4.16,0.61 5.21,1.68 1.05,1.06 1.49,2.64 1.6,4.8 0.06,0.62 0.06,2.35 0,2.97 -0.11,2.16 -0.55,3.73 -1.6,4.8 -1.05,1.06 -2.69,1.6 -5.21,1.67 -0.18,0.03 -2.11,0.03 -2.29,0 -2.52,-0.07 -4.17,-0.61 -5.22,-1.67 -1.05,-1.07 -1.49,-2.64 -1.6,-4.8 -0.05,-0.62 -0.05,-2.35 0,-2.97 0.11,-2.16 0.55,-3.74 1.6,-4.8 1.05,-1.07 2.7,-1.61 5.22,-1.68l0 0zm2.28 0.4l-2.28 0c-2.4,0.07 -3.96,0.57 -4.93,1.56 -0.97,0.98 -1.38,2.47 -1.49,4.53l0 2.95c0.11,2.05 0.52,3.54 1.49,4.53 0.97,0.98 2.53,1.48 4.93,1.55l2.28 0c2.41,-0.07 3.96,-0.57 4.94,-1.55 0.97,-0.99 1.38,-2.48 1.48,-4.53l0 -2.95c-0.1,-2.06 -0.51,-3.55 -1.48,-4.53 -0.98,-0.99 -2.53,-1.49 -4.94,-1.56zm0.41 6.48c0.21,0.31 0.34,0.68 0.34,1.08 0,0.17 -0.03,0.34 -0.07,0.5 1.39,-0.27 2.67,-0.92 1.73,-2.54 -0.46,-0.79 -0.97,-1.02 -1.49,-0.92 0,-0.02 0,-0.04 0,-0.06 0,0.62 -0.18,1.31 -0.51,1.94zm0.16 1.88c-0.23,0.5 -0.68,0.88 -1.23,1.03 0.93,1.07 2.13,1.85 3.07,0.22 0.45,-0.79 0.39,-1.35 0.04,-1.74 0.02,-0.01 0.04,-0.03 0.06,-0.04 -0.54,0.32 -1.22,0.51 -1.94,0.53zm-1.55 1.08c-0.05,0.01 -0.1,0.01 -0.16,0.01 -0.52,0 -0.99,-0.21 -1.34,-0.56 -0.47,1.34 -0.54,2.77 1.34,2.77 0.91,0 1.36,-0.34 1.53,-0.84 -0.52,-0.31 -1,-0.79 -1.37,-1.38zm-1.7 -0.8c-0.22,-0.3 -0.34,-0.68 -0.34,-1.08 0,-0.17 0.02,-0.33 0.06,-0.49 -1.39,0.26 -2.66,0.91 -1.72,2.54 0.45,0.79 0.97,1.01 1.48,0.91 0.01,-0.61 0.19,-1.27 0.52,-1.88zm-0.17 -1.88c0.24,-0.5 0.68,-0.88 1.23,-1.02 -0.92,-1.07 -2.13,-1.85 -3.06,-0.22 -0.46,0.78 -0.39,1.34 -0.05,1.74 -0.02,0.01 -0.04,0.02 -0.06,0.03 0.54,-0.31 1.23,-0.5 1.94,-0.53zm3.77 -2.29c0,-0.02 0,-0.04 0,-0.05 0,0.01 0,0.03 0,0.05zm-0.04 -0.4c-0.11,-0.6 -0.41,-1.1 -0.95,-1.38 -0.22,0.36 -0.62,0.6 -1.07,0.6 -0.45,0 -0.84,-0.24 -1.06,-0.6 -0.54,0.28 -0.85,0.78 -0.96,1.38 -0.57,-0.21 -1.16,-0.2 -1.67,0.14 0.21,0.36 0.21,0.83 -0.01,1.22 -0.23,0.39 -0.63,0.61 -1.05,0.62 -0.03,0.6 0.25,1.12 0.72,1.51 -0.47,0.39 -0.75,0.91 -0.72,1.52 0.42,0.01 0.82,0.23 1.05,0.62 0.22,0.39 0.22,0.85 0.01,1.22 0.51,0.33 1.1,0.35 1.67,0.14 0.11,0.6 0.42,1.1 0.96,1.37 0.22,-0.35 0.61,-0.59 1.06,-0.59 0.45,0 0.85,0.24 1.07,0.59 0.54,-0.27 0.84,-0.77 0.95,-1.37 0.57,0.21 1.16,0.19 1.67,-0.14 -0.2,-0.37 -0.21,-0.83 0.01,-1.22 0.23,-0.39 0.63,-0.61 1.05,-0.62 0.03,-0.61 -0.25,-1.13 -0.71,-1.52 0.46,-0.39 0.74,-0.91 0.71,-1.51 -0.42,-0.01 -0.82,-0.23 -1.05,-0.62 -0.22,-0.39 -0.21,-0.86 -0.01,-1.22 -0.51,-0.34 -1.1,-0.35 -1.67,-0.14zm1.68 3.73c-0.01,0.01 -0.03,0.02 -0.05,0.03l0.05 -0.03zm-1.64 -3.33c0,0.02 0,0.04 0,0.07l0 -0.07zm3.61 -0.18c0.28,0.49 0.11,1.12 -0.38,1.4 -0.49,0.28 -1.11,0.11 -1.39,-0.38 -0.29,-0.49 -0.12,-1.11 0.37,-1.39 0.49,-0.28 1.11,-0.12 1.4,0.37zm-3.97 6.63c-0.01,-0.01 -0.03,-0.02 -0.04,-0.03l0.04 0.03zm-0.11 -0.07c-0.02,-0.01 -0.04,-0.01 -0.05,-0.02 0.01,0.01 0.03,0.01 0.05,0.02zm4.08 -0.02c-0.29,0.49 -0.91,0.66 -1.4,0.38 -0.49,-0.28 -0.66,-0.91 -0.37,-1.4 0.28,-0.49 0.9,-0.65 1.39,-0.37 0.49,0.28 0.66,0.9 0.38,1.39zm-7.73 -0.25c0,-0.02 0,-0.04 0,-0.06l0 0.06zm2.06 3.52c-0.56,0 -1.02,-0.45 -1.02,-1.02 0,-0.56 0.46,-1.02 1.02,-1.02 0.57,0 1.02,0.46 1.02,1.02 0,0.57 -0.45,1.02 -1.02,1.02zm-3.76 -6.74c0.02,-0.01 0.04,-0.02 0.05,-0.03 -0.01,0.01 -0.03,0.02 -0.05,0.03zm0.06 -0.04c0.02,-0.01 0.03,-0.02 0.05,-0.03 -0.02,0.01 -0.03,0.02 -0.05,0.03zm-1.96 3.51c-0.29,-0.49 -0.12,-1.11 0.37,-1.39 0.49,-0.28 1.11,-0.12 1.4,0.37 0.28,0.49 0.11,1.12 -0.38,1.4 -0.49,0.28 -1.11,0.11 -1.39,-0.38zm3.96 -6.62c0.03,0.01 0.07,0.03 0.11,0.06 -0.04,-0.03 -0.08,-0.05 -0.11,-0.06zm-3.96 0.08c0.28,-0.49 0.9,-0.65 1.39,-0.37 0.49,0.28 0.66,0.9 0.38,1.39 -0.29,0.49 -0.91,0.66 -1.4,0.38 -0.49,-0.28 -0.66,-0.91 -0.37,-1.4zm5.66 -3.27c0.57,0 1.02,0.46 1.02,1.02 0,0.57 -0.45,1.02 -1.02,1.02 -0.56,0 -1.02,-0.45 -1.02,-1.02 0,-0.56 0.46,-1.02 1.02,-1.02zm0.23 7.87c0,0 -0.09,-0.2 0.39,-0.41 0.49,-0.22 0.55,-0.31 0.69,-0.7 0.15,-0.38 0.18,-0.46 0.18,-0.46 0,0 -0.56,-0.17 -0.92,0.02 -0.36,0.18 -0.45,0.5 -0.48,0.66 -0.04,0.17 -0.04,0.49 -0.04,0.49 0,0 0.18,-0.51 0.42,-0.69 0.23,-0.19 0.53,-0.23 0.53,-0.23 0,0 -0.94,0.68 -0.77,1.32zm-0.31 -1.35c0,0 -0.41,-0.22 -0.35,-0.79 0.07,-0.57 0.41,-0.78 0.41,-0.78 0,0 0.42,0.29 0.44,0.79 0.01,0.49 -0.31,0.79 -0.31,0.79l-0.12 -1.1c0,0 -0.07,0.48 -0.07,1.09zm-0.14 1.35c0,0 0.08,-0.2 -0.4,-0.41 -0.48,-0.22 -0.55,-0.31 -0.69,-0.7 -0.15,-0.38 -0.17,-0.46 -0.17,-0.46 0,0 0.55,-0.17 0.91,0.02 0.36,0.18 0.45,0.5 0.49,0.66 0.03,0.17 0.03,0.49 0.03,0.49 0,0 -0.18,-0.51 -0.41,-0.69 -0.24,-0.19 -0.54,-0.23 -0.54,-0.23 0,0 0.94,0.68 0.78,1.32z"/>
 </g>
</svg>
