<?xml version="1.0" encoding="UTF-8"?>
<!DOCTYPE svg PUBLIC "-//W3C//DTD SVG 1.1//EN" "http://www.w3.org/Graphics/SVG/1.1/DTD/svg11.dtd">
<!-- Creator: CorelDRAW 2018 (64-Bit) -->
<svg xmlns="http://www.w3.org/2000/svg" xml:space="preserve" width="542px" height="63px" version="1.1" style="shape-rendering:geometricPrecision; text-rendering:geometricPrecision; image-rendering:optimizeQuality; fill-rule:evenodd; clip-rule:evenodd"
viewBox="0 0 229.25 26.47"
 xmlns:xlink="http://www.w3.org/1999/xlink">
 <defs>
  <style type="text/css">
   <![CDATA[
    .str0 {stroke:#088378;stroke-miterlimit:22.9256}
    .fil0 {fill:none}
    .fil2 {fill:#088378}
    .fil1 {fill:#B6B6B7;fill-rule:nonzero}
   ]]>
  </style>
 </defs>
 <g id="Layer_x0020_1">
  <metadata id="CorelCorpID_0Corel-Layer"/>
  <g id="_1691390207584">
   <rect class="fil0 str0" x="0.5" y="0.5" width="228.25" height="25.47" rx="14.17" ry="5.34"/>
   <path class="fil1" d="M40.12 15.96l-0.81 -2.19 -3.18 0 -0.8 2.19 -0.76 0 2.82 -7.41 0.69 0 2.81 7.41 -0.77 0zm-2.26 -6.12c-0.02,-0.06 -0.04,-0.14 -0.07,-0.22 -0.03,-0.09 -0.05,-0.19 -0.07,-0.3l-0.02 0c-0.02,0.11 -0.04,0.21 -0.07,0.3 -0.02,0.08 -0.05,0.16 -0.07,0.22l-1.2 3.3 2.71 0 -1.21 -3.3z"/>
   <polygon id="1" class="fil1" points="41.95,15.96 41.95,8.12 42.61,8.12 42.61,15.96 "/>
   <path id="2" class="fil1" d="M47.36 15.96l0 -0.94 -0.02 0c-0.17,0.33 -0.41,0.6 -0.7,0.78 -0.3,0.19 -0.64,0.28 -1.01,0.28 -0.26,0 -0.49,-0.03 -0.7,-0.11 -0.2,-0.07 -0.37,-0.17 -0.52,-0.31 -0.14,-0.13 -0.25,-0.29 -0.33,-0.47 -0.07,-0.19 -0.11,-0.39 -0.11,-0.62 0,-0.48 0.14,-0.86 0.44,-1.14 0.3,-0.29 0.75,-0.47 1.35,-0.56l1.6 -0.23c0,-1.02 -0.39,-1.52 -1.18,-1.52 -0.62,0 -1.19,0.22 -1.72,0.67l0 -0.72c0.11,-0.08 0.24,-0.15 0.38,-0.22 0.14,-0.06 0.28,-0.11 0.44,-0.16 0.15,-0.05 0.31,-0.08 0.48,-0.11 0.16,-0.03 0.32,-0.04 0.47,-0.04 0.59,0 1.04,0.17 1.34,0.5 0.3,0.33 0.45,0.82 0.45,1.48l0 3.44 -0.66 0zm-1.36 -2.57c-0.24,0.03 -0.44,0.08 -0.61,0.13 -0.17,0.05 -0.31,0.12 -0.42,0.21 -0.11,0.09 -0.19,0.19 -0.24,0.32 -0.05,0.13 -0.08,0.29 -0.08,0.48 0,0.14 0.02,0.27 0.07,0.39 0.05,0.12 0.13,0.23 0.22,0.32 0.1,0.08 0.21,0.15 0.35,0.2 0.13,0.05 0.29,0.07 0.46,0.07 0.23,0 0.45,-0.04 0.65,-0.13 0.19,-0.09 0.36,-0.21 0.51,-0.37 0.14,-0.16 0.25,-0.35 0.33,-0.57 0.08,-0.22 0.12,-0.46 0.12,-0.72l0 -0.52 -1.36 0.19z"/>
   <path id="3" class="fil1" d="M56.27 15.96l0 -3.11c0,-0.32 -0.03,-0.59 -0.08,-0.81 -0.04,-0.22 -0.12,-0.39 -0.22,-0.53 -0.1,-0.14 -0.23,-0.24 -0.39,-0.3 -0.15,-0.06 -0.34,-0.09 -0.56,-0.09 -0.19,0 -0.37,0.04 -0.55,0.13 -0.17,0.09 -0.32,0.22 -0.45,0.38 -0.13,0.16 -0.23,0.35 -0.3,0.56 -0.08,0.22 -0.12,0.46 -0.12,0.71l0 3.06 -0.66 0 0 -3.18c0,-1.11 -0.42,-1.66 -1.27,-1.66 -0.2,0 -0.38,0.04 -0.55,0.13 -0.17,0.08 -0.32,0.21 -0.44,0.37 -0.13,0.16 -0.23,0.35 -0.3,0.57 -0.07,0.22 -0.1,0.47 -0.1,0.73l0 3.04 -0.67 0 0 -5.29 0.67 0 0 0.85 0.02 0c0.37,-0.65 0.91,-0.98 1.63,-0.98 0.18,0 0.36,0.03 0.52,0.09 0.17,0.05 0.32,0.13 0.45,0.23 0.13,0.11 0.24,0.23 0.34,0.37 0.09,0.14 0.16,0.29 0.21,0.46 0.19,-0.37 0.43,-0.66 0.73,-0.85 0.29,-0.2 0.63,-0.3 1.01,-0.3 1.16,0 1.74,0.72 1.74,2.15l0 3.27 -0.66 0z"/>
   <path id="4" class="fil1" d="M61.57 15.96l0 -0.94 -0.02 0c-0.17,0.33 -0.41,0.6 -0.71,0.78 -0.3,0.19 -0.63,0.28 -1.01,0.28 -0.25,0 -0.48,-0.03 -0.69,-0.11 -0.2,-0.07 -0.38,-0.17 -0.52,-0.31 -0.14,-0.13 -0.25,-0.29 -0.33,-0.47 -0.08,-0.19 -0.12,-0.39 -0.12,-0.62 0,-0.48 0.15,-0.86 0.45,-1.14 0.29,-0.29 0.74,-0.47 1.34,-0.56l1.61 -0.23c0,-1.02 -0.4,-1.52 -1.18,-1.52 -0.62,0 -1.19,0.22 -1.72,0.67l0 -0.72c0.11,-0.08 0.24,-0.15 0.37,-0.22 0.14,-0.06 0.29,-0.11 0.45,-0.16 0.15,-0.05 0.31,-0.08 0.47,-0.11 0.17,-0.03 0.33,-0.04 0.48,-0.04 0.59,0 1.04,0.17 1.34,0.5 0.3,0.33 0.45,0.82 0.45,1.48l0 3.44 -0.66 0zm-1.36 -2.57c-0.24,0.03 -0.45,0.08 -0.61,0.13 -0.17,0.05 -0.31,0.12 -0.42,0.21 -0.11,0.09 -0.2,0.19 -0.25,0.32 -0.05,0.13 -0.07,0.29 -0.07,0.48 0,0.14 0.02,0.27 0.07,0.39 0.05,0.12 0.12,0.23 0.22,0.32 0.09,0.08 0.21,0.15 0.34,0.2 0.14,0.05 0.29,0.07 0.47,0.07 0.23,0 0.45,-0.04 0.64,-0.13 0.2,-0.09 0.37,-0.21 0.51,-0.37 0.15,-0.16 0.26,-0.35 0.34,-0.57 0.08,-0.22 0.12,-0.46 0.12,-0.72l0 -0.52 -1.36 0.19z"/>
   <path id="5" class="fil1" d="M66.1 15.9c-0.23,0.11 -0.48,0.16 -0.75,0.17 -0.85,-0.01 -1.28,-0.5 -1.28,-1.48l0 -3.35 -0.93 0 0 -0.57 0.93 0 0 -1.34 0.66 -0.21 0 1.55 1.37 0 0 0.57 -1.37 0 0 3.24c0,0.36 0.06,0.62 0.18,0.78 0.11,0.16 0.31,0.24 0.59,0.24 0.21,0 0.41,-0.06 0.6,-0.19l0 0.59z"/>
   <polygon id="6" class="fil1" points="70.2,15.96 70.2,8.55 73.81,8.55 73.81,9.18 70.88,9.18 70.88,11.89 73.59,11.89 73.59,12.52 70.88,12.52 70.88,15.33 73.97,15.33 73.97,15.96 "/>
   <path id="7" class="fil1" d="M82.06 15.96l0 -3.11c0,-0.32 -0.02,-0.59 -0.07,-0.81 -0.05,-0.22 -0.12,-0.39 -0.23,-0.53 -0.1,-0.14 -0.23,-0.24 -0.38,-0.3 -0.16,-0.06 -0.35,-0.09 -0.56,-0.09 -0.2,0 -0.38,0.04 -0.55,0.13 -0.17,0.09 -0.33,0.22 -0.45,0.38 -0.13,0.16 -0.24,0.35 -0.31,0.56 -0.07,0.22 -0.11,0.46 -0.11,0.71l0 3.06 -0.66 0 0 -3.18c0,-1.11 -0.43,-1.66 -1.28,-1.66 -0.2,0 -0.38,0.04 -0.55,0.13 -0.17,0.08 -0.31,0.21 -0.44,0.37 -0.12,0.16 -0.22,0.35 -0.29,0.57 -0.07,0.22 -0.11,0.47 -0.11,0.73l0 3.04 -0.66 0 0 -5.29 0.66 0 0 0.85 0.02 0c0.37,-0.65 0.92,-0.98 1.63,-0.98 0.19,0 0.36,0.03 0.53,0.09 0.16,0.05 0.31,0.13 0.44,0.23 0.13,0.11 0.25,0.23 0.34,0.37 0.09,0.14 0.17,0.29 0.21,0.46 0.19,-0.37 0.43,-0.66 0.73,-0.85 0.3,-0.2 0.64,-0.3 1.01,-0.3 1.16,0 1.74,0.72 1.74,2.15l0 3.27 -0.66 0z"/>
   <path id="8" class="fil1" d="M87.36 15.96l0 -0.94 -0.02 0c-0.17,0.33 -0.4,0.6 -0.7,0.78 -0.3,0.19 -0.64,0.28 -1.01,0.28 -0.26,0 -0.49,-0.03 -0.69,-0.11 -0.21,-0.07 -0.38,-0.17 -0.52,-0.31 -0.15,-0.13 -0.26,-0.29 -0.34,-0.47 -0.07,-0.19 -0.11,-0.39 -0.11,-0.62 0,-0.48 0.15,-0.86 0.44,-1.14 0.3,-0.29 0.75,-0.47 1.35,-0.56l1.6 -0.23c0,-1.02 -0.39,-1.52 -1.18,-1.52 -0.62,0 -1.19,0.22 -1.72,0.67l0 -0.72c0.12,-0.08 0.24,-0.15 0.38,-0.22 0.14,-0.06 0.29,-0.11 0.44,-0.16 0.16,-0.05 0.31,-0.08 0.48,-0.11 0.16,-0.03 0.32,-0.04 0.48,-0.04 0.59,0 1.03,0.17 1.33,0.5 0.3,0.33 0.46,0.82 0.46,1.48l0 3.44 -0.67 0zm-1.36 -2.57c-0.24,0.03 -0.44,0.08 -0.61,0.13 -0.17,0.05 -0.31,0.12 -0.42,0.21 -0.11,0.09 -0.19,0.19 -0.24,0.32 -0.05,0.13 -0.08,0.29 -0.08,0.48 0,0.14 0.03,0.27 0.08,0.39 0.05,0.12 0.12,0.23 0.21,0.32 0.1,0.08 0.21,0.15 0.35,0.2 0.14,0.05 0.29,0.07 0.46,0.07 0.24,0 0.45,-0.04 0.65,-0.13 0.19,-0.09 0.36,-0.21 0.51,-0.37 0.14,-0.16 0.25,-0.35 0.33,-0.57 0.08,-0.22 0.12,-0.46 0.12,-0.72l0 -0.52 -1.36 0.19z"/>
   <path id="9" class="fil1" d="M89.94 9.33c-0.12,0 -0.24,-0.05 -0.33,-0.14 -0.09,-0.09 -0.14,-0.2 -0.14,-0.34 0,-0.13 0.05,-0.24 0.14,-0.33 0.09,-0.09 0.21,-0.13 0.33,-0.13 0.07,0 0.13,0.01 0.19,0.03 0.06,0.02 0.11,0.05 0.15,0.1 0.04,0.04 0.08,0.09 0.1,0.14 0.03,0.06 0.04,0.12 0.04,0.19 0,0.07 -0.01,0.13 -0.03,0.19 -0.03,0.06 -0.06,0.11 -0.11,0.15 -0.04,0.04 -0.09,0.08 -0.15,0.1 -0.05,0.02 -0.12,0.04 -0.19,0.04zm-0.32 6.63l0 -5.29 0.66 0 0 5.29 -0.66 0z"/>
   <polygon id="10" class="fil1" points="91.98,15.96 91.98,8.12 92.65,8.12 92.65,15.96 "/>
   <path class="fil2" d="M15.77 10.95l0 -3.21 -1.63 1.31 0 0 -0.6 0.48c-0.23,0.18 -0.57,0.15 -0.75,-0.08l-0.17 -0.21c-0.17,-0.22 -0.14,-0.54 0.08,-0.71l0.05 -0.04 0 0 3.26 -2.61c0.24,-0.19 0.58,-0.19 0.82,0l3.26 2.61 0 0 0.05 0.04c0.22,0.17 0.26,0.49 0.08,0.71l-0.17 0.21c-0.18,0.23 -0.52,0.26 -0.75,0.08l-0.6 -0.48 -1.63 -1.31 0 3.21 1.89 0c0.93,0 1.27,0.1 1.61,0.28 0.34,0.18 0.61,0.45 0.79,0.79 0.18,0.34 0.28,0.68 0.28,1.61l0 4.43c0,0.93 -0.1,1.27 -0.28,1.61 -0.18,0.34 -0.45,0.6 -0.79,0.78 -0.34,0.19 -0.68,0.28 -1.61,0.28l-5.08 0c-0.93,0 -1.27,-0.09 -1.61,-0.28 -0.34,-0.18 -0.61,-0.44 -0.79,-0.78 -0.18,-0.34 -0.28,-0.68 -0.28,-1.61l0 -4.43c0,-0.93 0.1,-1.27 0.28,-1.61 0.18,-0.34 0.45,-0.61 0.79,-0.79 0.34,-0.18 0.68,-0.28 1.61,-0.28l1.89 0zm0 0l0 4.61c0,0.16 0.02,0.26 0.07,0.34 0.04,0.09 0.11,0.15 0.2,0.2 0.08,0.04 0.18,0.07 0.33,0.07l0.1 0c0.15,0 0.25,-0.03 0.34,-0.07 0.08,-0.05 0.15,-0.11 0.19,-0.2 0.05,-0.08 0.07,-0.18 0.07,-0.34l0 -4.61 -1.3 0z"/>
  </g>
 </g>
</svg>
