<?xml version="1.0" encoding="UTF-8"?>
<!DOCTYPE svg PUBLIC "-//W3C//DTD SVG 1.1//EN" "http://www.w3.org/Graphics/SVG/1.1/DTD/svg11.dtd">
<!-- Creator: CorelDRAW 2018 (64-Bit) -->
<svg xmlns="http://www.w3.org/2000/svg" xml:space="preserve" width="35px" height="35px" version="1.1" style="shape-rendering:geometricPrecision; text-rendering:geometricPrecision; image-rendering:optimizeQuality; fill-rule:evenodd; clip-rule:evenodd"
viewBox="0 0 1.56 1.56"
 xmlns:xlink="http://www.w3.org/1999/xlink">
 <defs>
  <style type="text/css">
   <![CDATA[
    .fil0 {fill:#088378}
   ]]>
  </style>
 </defs>
 <g id="Layer_x0020_1">
  <metadata id="CorelCorpID_0Corel-Layer"/>
  <path class="fil0" d="M0.33 1.25c0.12,0.12 0.28,0.18 0.45,0.18 0.08,0 0.16,-0.01 0.22,-0.03 0.09,-0.04 0.16,-0.08 0.23,-0.15l-0.13 -0.01c-0.03,-0.01 -0.07,-0.02 -0.09,-0.05l-0.02 -0.02 -0.12 -0.05 0.07 -0.03c0.03,-0.02 0.05,-0.05 0.06,-0.08l0.03 -0.09c0.07,0 0.1,-0.04 0.1,-0.11 0,-0.07 -0.03,-0.11 -0.07,-0.11 0,-0.06 0.03,-0.13 0.03,-0.21 0,-0.16 -0.12,-0.23 -0.38,-0.23 -0.08,0 -0.12,0.04 -0.12,0.14 -0.07,0 -0.12,0.04 -0.12,0.09 0,0.08 0.03,0.15 0.03,0.21 -0.04,0 -0.07,0.04 -0.07,0.11 0,0.08 0.02,0.11 0.1,0.11l0.03 0.09c0.01,0.03 0.03,0.06 0.06,0.08l0.07 0.03 -0.12 0.05 -0.02 0.02c-0.02,0.03 -0.06,0.04 -0.09,0.05l-0.13 0.01zm0.45 0.31c-0.43,0 -0.78,-0.35 -0.78,-0.78 0,-0.43 0.35,-0.78 0.78,-0.78 0.43,0 0.78,0.35 0.78,0.78 0,0.43 -0.35,0.78 -0.78,0.78z"/>
 </g>
</svg>
