<?xml version="1.0" encoding="UTF-8"?>
<!DOCTYPE svg PUBLIC "-//W3C//DTD SVG 1.1//EN" "http://www.w3.org/Graphics/SVG/1.1/DTD/svg11.dtd">
<!-- Creator: CorelDRAW 2018 (64-Bit) -->
<svg xmlns="http://www.w3.org/2000/svg" xml:space="preserve" width="133px" height="200px" version="1.1" style="shape-rendering:geometricPrecision; text-rendering:geometricPrecision; image-rendering:optimizeQuality; fill-rule:evenodd; clip-rule:evenodd"
viewBox="0 0 13.82 20.71"
 xmlns:xlink="http://www.w3.org/1999/xlink">
 <defs>
  <style type="text/css">
   <![CDATA[
    .fil1 {fill:#B6B6B7}
    .fil0 {fill:#B6B6B7;fill-rule:nonzero}
   ]]>
  </style>
 </defs>
 <g id="Layer_x0020_1">
  <metadata id="CorelCorpID_0Corel-Layer"/>
  <g id="_1691390198176">
   <g>
    <path class="fil0" d="M5.93 0l1.97 0c2.18,0.06 3.6,0.53 4.51,1.45 0.9,0.92 1.28,2.28 1.38,4.14 0.04,0.54 0.04,2.03 0,2.57 -0.1,1.87 -0.48,3.23 -1.38,4.15 -0.91,0.92 -2.33,1.38 -4.51,1.45 -0.15,0.02 -1.82,0.02 -1.98,0 -2.17,-0.07 -3.59,-0.53 -4.5,-1.45 -0.91,-0.92 -1.29,-2.28 -1.39,-4.15 -0.04,-0.54 -0.04,-2.03 0,-2.57 0.1,-1.86 0.48,-3.22 1.39,-4.14 0.91,-0.92 2.33,-1.39 4.5,-1.45l0.01 0zm1.97 0.35l-1.97 0c-2.08,0.06 -3.42,0.49 -4.27,1.34 -0.83,0.85 -1.19,2.14 -1.28,3.91l0 2.55c0.09,1.78 0.45,3.06 1.28,3.92 0.85,0.85 2.19,1.28 4.27,1.34l1.97 0c2.07,-0.06 3.42,-0.49 4.26,-1.34 0.84,-0.86 1.19,-2.14 1.28,-3.92l0 -2.55c-0.09,-1.77 -0.44,-3.06 -1.28,-3.91 -0.84,-0.85 -2.19,-1.28 -4.26,-1.34z"/>
    <path class="fil1" d="M6.91 5.25c0.46,0 0.87,0.19 1.17,0.49l-0.01 -0.01c0.4,-1.15 0.46,-2.39 -1.16,-2.39 -0.78,0 -1.17,0.29 -1.32,0.72 -0.02,-0.01 -0.04,-0.02 -0.05,-0.03 0.47,0.27 0.9,0.7 1.23,1.22 0.05,0 0.09,0 0.14,0zm1.34 0.69c0.18,0.27 0.29,0.59 0.29,0.94 0,0.15 -0.02,0.29 -0.06,0.42 1.21,-0.22 2.31,-0.79 1.49,-2.19 -0.39,-0.68 -0.83,-0.87 -1.28,-0.79 0,-0.02 0,-0.04 0,-0.05 0,0.54 -0.15,1.13 -0.44,1.67zm0.14 1.63c-0.2,0.43 -0.59,0.76 -1.06,0.88 0.79,0.93 1.83,1.6 2.64,0.2 0.4,-0.68 0.34,-1.17 0.04,-1.51 0.02,-0.01 0.04,-0.02 0.05,-0.03 -0.46,0.27 -1.05,0.44 -1.67,0.46zm-1.34 0.93c-0.04,0 -0.09,0.01 -0.14,0.01 -0.45,0 -0.86,-0.19 -1.15,-0.48 -0.41,1.15 -0.47,2.38 1.15,2.38 0.79,0 1.18,-0.29 1.33,-0.71 -0.45,-0.27 -0.87,-0.69 -1.19,-1.2zm-1.47 -0.69c-0.19,-0.26 -0.3,-0.58 -0.3,-0.93 0,-0.15 0.02,-0.29 0.06,-0.43 -1.2,0.23 -2.3,0.79 -1.49,2.2 0.39,0.68 0.84,0.87 1.28,0.78 0.01,-0.52 0.17,-1.09 0.45,-1.62zm-0.14 -1.62c0.2,-0.43 0.58,-0.76 1.05,-0.89 -0.79,-0.92 -1.83,-1.59 -2.64,-0.19 -0.39,0.68 -0.34,1.16 -0.04,1.51 -0.02,0 -0.03,0.01 -0.05,0.02 0.47,-0.27 1.06,-0.43 1.68,-0.45zm3.25 -1.99c0,-0.01 0,-0.03 0,-0.04 0,0.01 0,0.03 0,0.04zm-0.04 -0.34c-0.09,-0.52 -0.35,-0.95 -0.82,-1.19 -0.19,0.31 -0.53,0.52 -0.92,0.52 -0.39,0 -0.73,-0.21 -0.92,-0.52 -0.47,0.24 -0.73,0.67 -0.82,1.19 -0.5,-0.18 -1,-0.17 -1.44,0.12 0.17,0.32 0.18,0.71 -0.02,1.05 -0.19,0.34 -0.54,0.53 -0.9,0.54 -0.03,0.52 0.21,0.97 0.62,1.31 -0.41,0.34 -0.65,0.78 -0.62,1.31 0.36,0.01 0.71,0.2 0.9,0.53 0.2,0.34 0.19,0.74 0.02,1.06 0.44,0.28 0.94,0.3 1.44,0.12 0.09,0.51 0.35,0.95 0.82,1.19 0.19,-0.31 0.53,-0.52 0.92,-0.52 0.39,0 0.73,0.21 0.92,0.52 0.47,-0.24 0.73,-0.68 0.82,-1.19 0.5,0.18 1.01,0.16 1.45,-0.12 -0.18,-0.32 -0.19,-0.72 0.01,-1.06 0.19,-0.33 0.54,-0.52 0.91,-0.53 0.02,-0.53 -0.22,-0.97 -0.62,-1.31 0.4,-0.34 0.64,-0.79 0.62,-1.31 -0.37,-0.01 -0.72,-0.2 -0.91,-0.54 -0.2,-0.34 -0.19,-0.73 -0.01,-1.05 -0.44,-0.29 -0.95,-0.3 -1.45,-0.12zm1.46 3.22c-0.01,0.01 -0.03,0.02 -0.04,0.03l0.04 -0.03zm-1.42 -2.87c0,0.02 0,0.03 0,0.05l0 -0.05zm3.12 -0.16c0.24,0.42 0.09,0.96 -0.33,1.21 -0.42,0.24 -0.96,0.1 -1.2,-0.32 -0.25,-0.43 -0.1,-0.97 0.32,-1.21 0.42,-0.24 0.96,-0.1 1.21,0.32zm-3.43 5.73c-0.01,-0.01 -0.03,-0.02 -0.04,-0.03l0.04 0.03zm-0.1 -0.06c-0.01,-0.01 -0.03,-0.01 -0.04,-0.02 0.01,0.01 0.03,0.01 0.04,0.02zm3.53 -0.02c-0.25,0.43 -0.79,0.57 -1.21,0.33 -0.42,-0.25 -0.57,-0.79 -0.32,-1.21 0.24,-0.42 0.78,-0.57 1.2,-0.32 0.42,0.24 0.57,0.78 0.33,1.2zm-6.68 -0.21c0,-0.02 0,-0.04 0,-0.06l0 0.06zm1.78 3.04c-0.49,0 -0.88,-0.4 -0.88,-0.88 0,-0.49 0.39,-0.89 0.88,-0.89 0.49,0 0.88,0.4 0.88,0.89 0,0.48 -0.39,0.88 -0.88,0.88zm-3.24 -5.83c0.01,-0.01 0.02,-0.02 0.04,-0.02 -0.02,0 -0.03,0.01 -0.04,0.02zm0.04 -0.03c0.02,-0.01 0.03,-0.02 0.05,-0.02 -0.02,0 -0.03,0.01 -0.05,0.02zm-1.69 3.03c-0.25,-0.42 -0.1,-0.96 0.32,-1.2 0.42,-0.25 0.96,-0.1 1.21,0.32 0.24,0.42 0.1,0.96 -0.33,1.21 -0.42,0.24 -0.96,0.1 -1.2,-0.33zm3.42 -5.72c0.03,0.01 0.06,0.03 0.1,0.05 -0.04,-0.02 -0.07,-0.04 -0.1,-0.05zm-3.42 0.07c0.24,-0.42 0.78,-0.56 1.2,-0.32 0.43,0.24 0.57,0.78 0.33,1.21 -0.25,0.42 -0.79,0.56 -1.21,0.32 -0.42,-0.25 -0.57,-0.79 -0.32,-1.21zm4.89 -2.82c0.49,0 0.88,0.39 0.88,0.88 0,0.49 -0.39,0.88 -0.88,0.88 -0.49,0 -0.88,-0.39 -0.88,-0.88 0,-0.49 0.39,-0.88 0.88,-0.88zm0.2 6.79c0,0 -0.08,-0.17 0.34,-0.35 0.42,-0.19 0.47,-0.27 0.6,-0.6 0.12,-0.33 0.14,-0.4 0.14,-0.4 0,0 -0.47,-0.14 -0.78,0.01 -0.32,0.16 -0.39,0.44 -0.43,0.58 -0.03,0.14 -0.02,0.42 -0.02,0.42 0,0 0.15,-0.44 0.35,-0.6 0.21,-0.16 0.47,-0.2 0.47,-0.2 0,0 -0.82,0.59 -0.67,1.14zm-0.27 -1.16c0,0 -0.36,-0.19 -0.3,-0.69 0.06,-0.49 0.35,-0.67 0.35,-0.67 0,0 0.37,0.25 0.38,0.68 0.01,0.43 -0.26,0.68 -0.26,0.68l-0.11 -0.95c0,0 -0.06,0.42 -0.06,0.95zm-0.12 1.16c0,0 0.07,-0.17 -0.35,-0.35 -0.41,-0.19 -0.47,-0.27 -0.59,-0.6 -0.13,-0.33 -0.15,-0.4 -0.15,-0.4 0,0 0.48,-0.14 0.79,0.01 0.31,0.16 0.39,0.44 0.42,0.58 0.03,0.14 0.03,0.42 0.03,0.42 0,0 -0.16,-0.44 -0.36,-0.6 -0.2,-0.16 -0.46,-0.2 -0.46,-0.2 0,0 0.81,0.59 0.67,1.14z"/>
   </g>
   <g>
    <path class="fil0" d="M0.38 17.43l0 -0.49 0 0 0 -2.67c0,-0.36 -0.05,-0.79 -0.38,-0.82l0 -0.12c0.9,0 1.41,0.19 1.41,1.06l0 0.55 0.68 0 0 0.95 -0.68 0 0 1.05 0 0.49c0,0.54 0.38,0.54 0.79,0.46l0 0.84c-1.11,0.37 -1.82,-0.19 -1.82,-1.3zm2.18 0.06l0 -1.26c0,-1.76 3.05,-1.87 3.05,-0.05l0 1.13 -2.01 0 0 0.17c0,0.55 0.92,0.59 1.18,0.16l0.67 0.49c-0.64,1.2 -2.89,0.87 -2.89,-0.64zm2.08 -1.29c0,-0.55 -1.04,-0.53 -1.04,0l0 0.34 1.04 0 0 -0.34zm3.54 -1.26l0 0.83c-0.37,-0.09 -1.01,0 -1.01,0.48l0 2.53 -1.03 0 0 -2.55c0,-1.12 1.09,-1.5 2.04,-1.29zm2.41 0l0 0.83c-0.37,-0.09 -1.02,0 -1.02,0.48l0 2.53 -1.03 0 0 -2.55c0,-1.12 1.09,-1.5 2.05,-1.29zm0.19 2.7c0,-1.14 1.12,-1.45 2.05,-1.13l0 -0.28c0,-0.77 -1.01,-0.58 -1.4,-0.17l-0.5 -0.55c0.91,-1.05 2.89,-0.8 2.89,0.72l0 2.35c-0.98,0.36 -3.04,0.61 -3.04,-0.94zm1.12 -0.37c-0.18,0.18 -0.19,0.51 0.01,0.67 0.2,0.17 0.65,0.14 0.89,0.07l0 -0.78c-0.24,-0.1 -0.7,-0.15 -0.9,0.04z"/>
    <polygon class="fil0" points="0.56,19.8 1.04,19.8 1.04,19.98 0.56,19.98 0.56,20.4 0.38,20.4 0.38,19.31 1.1,19.31 1.1,19.49 0.56,19.49 "/>
    <path id="1" class="fil0" d="M1.72 19.86c0,-0.02 -0.01,-0.04 -0.02,-0.05 0,-0.02 -0.02,-0.03 -0.03,-0.04 -0.02,-0.01 -0.04,-0.02 -0.06,-0.02 -0.02,-0.01 -0.04,-0.01 -0.06,-0.01 -0.03,0 -0.06,0.01 -0.09,0.02 -0.03,0.01 -0.06,0.02 -0.08,0.05l-0.09 -0.1c0.04,-0.05 0.09,-0.08 0.14,-0.1 0.04,-0.01 0.09,-0.02 0.14,-0.02 0.04,0 0.08,0 0.12,0.02 0.04,0.01 0.07,0.02 0.1,0.04 0.03,0.03 0.05,0.05 0.07,0.09 0.02,0.03 0.03,0.07 0.03,0.11l0 0.52c-0.04,0.01 -0.08,0.02 -0.14,0.03 -0.05,0.01 -0.11,0.02 -0.16,0.02 -0.05,0 -0.09,0 -0.13,-0.01 -0.03,-0.01 -0.07,-0.02 -0.1,-0.04 -0.03,-0.02 -0.05,-0.04 -0.07,-0.08 -0.02,-0.03 -0.03,-0.07 -0.03,-0.11 0,-0.05 0.01,-0.09 0.03,-0.12 0.01,-0.03 0.04,-0.06 0.06,-0.08 0.03,-0.02 0.06,-0.03 0.1,-0.04 0.03,-0.02 0.07,-0.02 0.11,-0.02 0.03,0 0.05,0 0.08,0.01 0.03,0 0.06,0.01 0.08,0.02l0 -0.09zm-0.14 0.2c-0.05,0 -0.09,0.01 -0.11,0.03 -0.03,0.02 -0.04,0.05 -0.04,0.08 0,0.02 0,0.04 0.01,0.05 0.01,0.02 0.02,0.03 0.03,0.03 0.02,0.01 0.03,0.02 0.05,0.02 0.02,0.01 0.04,0.01 0.06,0.01 0.02,0 0.05,0 0.07,-0.01 0.03,0 0.05,0 0.07,-0.01l0 -0.18c-0.02,-0.01 -0.04,-0.01 -0.06,-0.02 -0.03,0 -0.05,0 -0.08,0z"/>
    <path id="2" class="fil0" d="M2.47 19.59c0.01,0 0.03,0 0.04,0 0.02,0 0.03,0 0.05,0.01l0 0.15c-0.02,-0.01 -0.04,-0.01 -0.06,-0.01 -0.01,0 -0.01,0 -0.01,0 -0.03,0 -0.06,0.01 -0.08,0.02 -0.02,0.01 -0.04,0.02 -0.06,0.04 -0.01,0.02 -0.02,0.04 -0.02,0.07l0 0.53 -0.17 0 0 -0.54c0,-0.05 0.01,-0.1 0.04,-0.14 0.03,-0.04 0.07,-0.07 0.11,-0.1 0.01,0 0.03,-0.01 0.04,-0.01 0.02,-0.01 0.03,-0.01 0.05,-0.01 0.01,-0.01 0.03,-0.01 0.04,-0.01 0.01,0 0.02,0 0.03,0z"/>
    <path id="3" class="fil0" d="M3.8 19.85l0 0.55 -0.17 0 0 -0.54c0,-0.04 -0.02,-0.06 -0.04,-0.08 -0.03,-0.02 -0.06,-0.03 -0.09,-0.03 -0.02,0 -0.03,0.01 -0.05,0.01 -0.02,0.01 -0.03,0.01 -0.04,0.02 -0.02,0.01 -0.03,0.02 -0.03,0.03 -0.01,0.01 -0.02,0.03 -0.02,0.04l0 0.55 -0.16 0 0 -0.54c0,-0.02 -0.01,-0.04 -0.01,-0.05 -0.01,-0.01 -0.02,-0.02 -0.03,-0.03 -0.02,-0.01 -0.03,-0.02 -0.05,-0.02 -0.02,0 -0.03,-0.01 -0.05,-0.01 -0.02,0 -0.04,0.01 -0.06,0.01 -0.02,0.01 -0.04,0.02 -0.06,0.03l0 0.61 -0.16 0 0 -0.73c0.03,-0.02 0.07,-0.04 0.12,-0.06 0.05,-0.01 0.1,-0.02 0.15,-0.02 0.05,0 0.09,0.01 0.13,0.02 0.04,0.02 0.08,0.05 0.1,0.09 0.02,-0.04 0.05,-0.07 0.09,-0.08 0.04,-0.02 0.08,-0.03 0.13,-0.03 0.04,0 0.07,0 0.11,0.02 0.03,0.01 0.06,0.02 0.09,0.04 0.03,0.03 0.05,0.05 0.07,0.09 0.02,0.03 0.03,0.07 0.03,0.11z"/>
    <path id="4" class="fil0" d="M4.05 19.4c0,-0.03 0.01,-0.05 0.04,-0.08 0.02,-0.02 0.04,-0.03 0.07,-0.03 0.04,0 0.06,0.01 0.08,0.03 0.03,0.03 0.04,0.05 0.04,0.08 0,0.04 -0.01,0.06 -0.04,0.08 -0.02,0.03 -0.04,0.04 -0.08,0.04 -0.03,0 -0.05,-0.01 -0.07,-0.04 -0.03,-0.02 -0.04,-0.04 -0.04,-0.08zm0.2 1l-0.18 0 0 -0.79 0.18 0 0 0.79z"/>
    <path id="5" class="fil0" d="M5.16 19.87l0 0.53 -0.17 0 0 -0.53c0,-0.02 -0.01,-0.04 -0.02,-0.05 -0.01,-0.02 -0.02,-0.03 -0.04,-0.04 -0.01,-0.01 -0.03,-0.02 -0.05,-0.02 -0.02,-0.01 -0.04,-0.01 -0.06,-0.01 -0.02,0 -0.04,0 -0.06,0.01 -0.02,0 -0.04,0.01 -0.06,0.02l0 0.62 -0.17 0 0 -0.75c0.04,-0.02 0.09,-0.03 0.13,-0.04 0.05,-0.01 0.1,-0.02 0.15,-0.02 0.04,0 0.09,0 0.13,0.02 0.04,0.01 0.08,0.02 0.11,0.04 0.03,0.03 0.06,0.06 0.08,0.09 0.02,0.04 0.03,0.08 0.03,0.13z"/>
    <path id="6" class="fil0" d="M5.73 20.57c0.02,0 0.04,-0.01 0.06,-0.01 0.01,-0.01 0.03,-0.02 0.04,-0.03 0.02,-0.02 0.03,-0.03 0.04,-0.06 0.01,-0.02 0.01,-0.05 0.01,-0.08 -0.02,0.01 -0.05,0.02 -0.07,0.02 -0.03,0.01 -0.05,0.01 -0.08,0.01 -0.04,0 -0.08,-0.01 -0.11,-0.02 -0.04,-0.01 -0.08,-0.03 -0.1,-0.05 -0.03,-0.03 -0.06,-0.05 -0.08,-0.09 -0.01,-0.03 -0.02,-0.07 -0.02,-0.12l0 -0.27c0,-0.05 0.01,-0.09 0.03,-0.13 0.02,-0.03 0.04,-0.06 0.07,-0.08 0.03,-0.03 0.07,-0.04 0.11,-0.05 0.04,-0.01 0.08,-0.02 0.12,-0.02 0.06,0 0.11,0.01 0.16,0.02 0.05,0.02 0.1,0.04 0.13,0.07l0 0.74c0,0.05 -0.01,0.09 -0.02,0.13 -0.02,0.04 -0.05,0.07 -0.07,0.09 -0.03,0.03 -0.07,0.04 -0.1,0.05 -0.04,0.02 -0.08,0.02 -0.12,0.02 -0.03,0 -0.06,0 -0.09,-0.01 -0.03,0 -0.06,-0.01 -0.08,-0.02 -0.03,-0.01 -0.05,-0.03 -0.08,-0.05 -0.02,-0.01 -0.04,-0.04 -0.05,-0.06l0.1 -0.1c0.02,0.03 0.05,0.06 0.09,0.07 0.03,0.02 0.07,0.03 0.11,0.03zm0.02 -0.82c-0.02,0 -0.04,0 -0.06,0 -0.02,0.01 -0.04,0.02 -0.05,0.03 -0.02,0.01 -0.03,0.02 -0.04,0.03 -0.01,0.02 -0.01,0.04 -0.01,0.06l0 0.27c0,0.02 0,0.04 0.01,0.06 0.01,0.01 0.02,0.03 0.04,0.04 0.01,0.01 0.03,0.02 0.05,0.02 0.02,0.01 0.04,0.01 0.06,0.01 0.02,0 0.04,0 0.07,-0.01 0.02,-0.01 0.04,-0.02 0.05,-0.03l0 -0.45c-0.01,-0.01 -0.03,-0.02 -0.05,-0.03 -0.03,0 -0.05,0 -0.07,0z"/>
    <path id="7" class="fil0" d="M6.91 20.42c-0.04,0 -0.07,-0.01 -0.11,-0.02 -0.03,-0.01 -0.06,-0.02 -0.09,-0.05 -0.02,-0.02 -0.04,-0.05 -0.06,-0.09 -0.01,-0.03 -0.02,-0.08 -0.02,-0.13l0 -0.71 0.15 0 0.02 0.19 0.15 0 0 0.15 -0.15 0 0 0.37c0,0.03 0,0.06 0.01,0.08 0.01,0.02 0.03,0.03 0.04,0.04 0.02,0.01 0.04,0.01 0.06,0.01 0.02,0.01 0.04,0.01 0.07,0.01l0 0.14c-0.03,0.01 -0.05,0.01 -0.07,0.01z"/>
    <path id="8" class="fil0" d="M7.52 19.59c0,0 0.01,0 0.01,0 0.04,0 0.08,0.01 0.11,0.02 0.04,0.01 0.07,0.02 0.1,0.05 0.03,0.02 0.05,0.05 0.07,0.09 0.01,0.03 0.02,0.07 0.02,0.12l0 0.53 -0.17 0 0 -0.53c0,-0.04 -0.01,-0.06 -0.03,-0.08 -0.02,-0.02 -0.05,-0.03 -0.08,-0.04 -0.01,0 -0.03,0 -0.04,0 -0.02,0 -0.04,0 -0.05,0 -0.03,0.01 -0.06,0.01 -0.09,0.03l0 0.62 -0.17 0 0 -1.09 0.17 0 0 0.31c0.05,-0.02 0.1,-0.03 0.15,-0.03z"/>
    <path id="9" class="fil0" d="M8.41 20.42c-0.04,0 -0.08,-0.01 -0.12,-0.02 -0.04,-0.01 -0.07,-0.03 -0.1,-0.05 -0.03,-0.02 -0.05,-0.05 -0.07,-0.08 -0.02,-0.04 -0.03,-0.08 -0.03,-0.13l0 -0.28c0,-0.04 0.01,-0.08 0.03,-0.12 0.02,-0.03 0.04,-0.06 0.07,-0.08 0.03,-0.03 0.06,-0.04 0.1,-0.05 0.04,-0.01 0.08,-0.02 0.12,-0.02 0.04,0 0.07,0.01 0.11,0.02 0.04,0.01 0.07,0.02 0.1,0.05 0.03,0.02 0.05,0.05 0.07,0.08 0.02,0.04 0.03,0.08 0.03,0.12l0 0.22 -0.46 0 0 0.06c0,0.02 0.01,0.03 0.01,0.05 0.01,0.01 0.02,0.02 0.04,0.03 0.01,0.01 0.02,0.02 0.04,0.03 0.02,0 0.04,0 0.05,0 0.03,0 0.06,0 0.09,-0.01 0.03,-0.02 0.05,-0.04 0.06,-0.07l0.14 0.09c-0.01,0.02 -0.03,0.05 -0.05,0.07 -0.02,0.02 -0.05,0.03 -0.07,0.05 -0.03,0.01 -0.05,0.02 -0.08,0.03 -0.03,0.01 -0.06,0.01 -0.08,0.01zm0.15 -0.55c0,-0.02 -0.01,-0.04 -0.02,-0.05 -0.01,-0.02 -0.02,-0.03 -0.03,-0.04 -0.01,-0.01 -0.03,-0.01 -0.05,-0.02 -0.01,0 -0.03,-0.01 -0.05,-0.01 -0.02,0 -0.04,0.01 -0.06,0.01 -0.01,0.01 -0.03,0.01 -0.04,0.02 -0.02,0.01 -0.03,0.02 -0.04,0.04 -0.01,0.01 -0.01,0.03 -0.01,0.05l0 0.07 0.3 0 0 -0.07z"/>
    <polygon id="10" class="fil0" points="9.47,19.8 9.95,19.8 9.95,19.98 9.47,19.98 9.47,20.4 9.3,20.4 9.3,19.31 10.01,19.31 10.01,19.49 9.47,19.49 "/>
    <path id="11" class="fil0" d="M10.55 20.42c-0.04,0 -0.09,-0.01 -0.12,-0.02 -0.04,-0.01 -0.08,-0.02 -0.11,-0.05 -0.03,-0.02 -0.05,-0.05 -0.07,-0.08 -0.01,-0.04 -0.02,-0.08 -0.02,-0.13l0 -0.53 0.17 0 0 0.53c0,0.03 0.01,0.05 0.02,0.06 0.01,0.02 0.02,0.03 0.04,0.04 0.01,0.01 0.03,0.02 0.05,0.03 0.02,0 0.04,0 0.06,0 0.02,0 0.04,0 0.06,0 0.02,-0.01 0.04,-0.02 0.06,-0.02l0 -0.64 0.17 0 0 0.74c-0.05,0.02 -0.1,0.04 -0.16,0.05 -0.05,0.01 -0.1,0.02 -0.15,0.02z"/>
    <path id="12" class="fil0" d="M11.42 20.42c-0.04,0 -0.08,-0.01 -0.11,-0.02 -0.04,-0.01 -0.07,-0.02 -0.09,-0.05 -0.03,-0.02 -0.05,-0.05 -0.06,-0.09 -0.02,-0.03 -0.02,-0.08 -0.02,-0.13l0 -0.71 0.15 0 0.01 0.19 0.16 0 0 0.15 -0.16 0 0 0.37c0,0.03 0.01,0.06 0.02,0.08 0.01,0.02 0.02,0.03 0.04,0.04 0.01,0.01 0.03,0.01 0.05,0.01 0.02,0.01 0.05,0.01 0.07,0.01l0 0.14c-0.02,0.01 -0.04,0.01 -0.06,0.01z"/>
    <path id="13" class="fil0" d="M12.02 20.42c-0.04,0 -0.08,-0.01 -0.12,-0.02 -0.04,-0.01 -0.07,-0.02 -0.1,-0.05 -0.03,-0.02 -0.05,-0.05 -0.07,-0.08 -0.02,-0.04 -0.03,-0.08 -0.03,-0.13l0 -0.53 0.17 0 0 0.53c0,0.03 0.01,0.05 0.02,0.06 0.01,0.02 0.02,0.03 0.04,0.04 0.02,0.01 0.03,0.02 0.05,0.03 0.02,0 0.04,0 0.07,0 0.02,0 0.04,0 0.06,0 0.02,-0.01 0.04,-0.02 0.05,-0.02l0 -0.64 0.17 0 0 0.74c-0.05,0.02 -0.1,0.04 -0.15,0.05 -0.06,0.01 -0.11,0.02 -0.16,0.02z"/>
    <path id="14" class="fil0" d="M12.92 19.59c0.01,0 0.02,0 0.04,0 0.01,0 0.03,0 0.05,0.01l0 0.15c-0.02,-0.01 -0.04,-0.01 -0.06,-0.01 -0.01,0 -0.01,0 -0.01,0 -0.03,0 -0.06,0.01 -0.08,0.02 -0.02,0.01 -0.04,0.02 -0.06,0.04 -0.01,0.02 -0.02,0.04 -0.02,0.07l0 0.53 -0.17 0 0 -0.54c0,-0.05 0.01,-0.1 0.04,-0.14 0.03,-0.04 0.06,-0.07 0.11,-0.1 0.01,0 0.02,-0.01 0.04,-0.01 0.02,-0.01 0.03,-0.01 0.05,-0.01 0.01,-0.01 0.03,-0.01 0.04,-0.01 0.01,0 0.02,0 0.03,0z"/>
    <path id="15" class="fil0" d="M13.51 20.42c-0.04,0 -0.08,-0.01 -0.12,-0.02 -0.03,-0.01 -0.07,-0.03 -0.1,-0.05 -0.03,-0.02 -0.05,-0.05 -0.07,-0.08 -0.02,-0.04 -0.03,-0.08 -0.03,-0.13l0 -0.28c0,-0.04 0.01,-0.08 0.03,-0.12 0.02,-0.03 0.04,-0.06 0.07,-0.08 0.03,-0.03 0.07,-0.04 0.1,-0.05 0.04,-0.01 0.08,-0.02 0.12,-0.02 0.04,0 0.08,0.01 0.11,0.02 0.04,0.01 0.07,0.02 0.1,0.05 0.03,0.02 0.06,0.05 0.07,0.08 0.02,0.04 0.03,0.08 0.03,0.12l0 0.22 -0.45 0 0 0.06c0,0.02 0,0.03 0.01,0.05 0.01,0.01 0.02,0.02 0.03,0.03 0.01,0.01 0.03,0.02 0.04,0.03 0.02,0 0.04,0 0.06,0 0.03,0 0.06,0 0.08,-0.01 0.03,-0.02 0.05,-0.04 0.07,-0.07l0.14 0.09c-0.02,0.02 -0.04,0.05 -0.06,0.07 -0.02,0.02 -0.05,0.03 -0.07,0.05 -0.03,0.01 -0.05,0.02 -0.08,0.03 -0.03,0.01 -0.05,0.01 -0.08,0.01zm0.15 -0.55c0,-0.02 -0.01,-0.04 -0.01,-0.05 -0.01,-0.02 -0.02,-0.03 -0.04,-0.04 -0.01,-0.01 -0.03,-0.01 -0.04,-0.02 -0.02,0 -0.04,-0.01 -0.06,-0.01 -0.02,0 -0.04,0.01 -0.05,0.01 -0.02,0.01 -0.04,0.01 -0.05,0.02 -0.01,0.01 -0.03,0.02 -0.03,0.04 -0.01,0.01 -0.02,0.03 -0.01,0.05l0 0.07 0.29 0 0 -0.07z"/>
   </g>
  </g>
 </g>
</svg>
