<?xml version="1.0" encoding="UTF-8"?>
<!DOCTYPE svg PUBLIC "-//W3C//DTD SVG 1.1//EN" "http://www.w3.org/Graphics/SVG/1.1/DTD/svg11.dtd">
<!-- Creator: CorelDRAW 2018 (64-Bit) -->
<svg xmlns="http://www.w3.org/2000/svg" xml:space="preserve" width="97px" height="50px" version="1.1" style="shape-rendering:geometricPrecision; text-rendering:geometricPrecision; image-rendering:optimizeQuality; fill-rule:evenodd; clip-rule:evenodd"
viewBox="0 0 7.83 4.03"
 xmlns:xlink="http://www.w3.org/1999/xlink">
 <defs>
  <style type="text/css">
   <![CDATA[
    .fil0 {fill:#5F5D5D}
   ]]>
  </style>
 </defs>
 <g id="Layer_x0020_1">
  <metadata id="CorelCorpID_0Corel-Layer"/>
  <path class="fil0" d="M0.68 1.92c-0.1,-0.12 -0.12,-0.29 0.02,-0.53 0.29,-0.51 0.66,-0.27 0.94,0.06 -0.17,0.05 -0.31,0.17 -0.38,0.33l0 -0.01c-0.21,0.01 -0.42,0.06 -0.58,0.15zm3.39 0.29l0 -0.14 0 0 0 -0.74c0,-0.1 -0.02,-0.23 -0.11,-0.23l0 -0.04c0.25,0 0.4,0.06 0.4,0.3l0 0.15 0.19 0 0 0.27 -0.19 0 0 0.29 0 0.14c0,0.15 0.1,0.15 0.22,0.13l0 0.23c-0.31,0.11 -0.51,-0.05 -0.51,-0.36zm0.61 0.02l0 -0.36c0,-0.49 0.85,-0.52 0.85,-0.01l0 0.31 -0.56 0 0 0.05c0,0.16 0.26,0.17 0.33,0.05l0.19 0.13c-0.18,0.34 -0.81,0.25 -0.81,-0.17zm0.58 -0.37c0,-0.15 -0.29,-0.14 -0.29,0.01l0 0.09 0.29 0 0 -0.1zm0.99 -0.35l0 0.24c-0.1,-0.03 -0.28,-0.01 -0.28,0.13l0 0.71 -0.29 0 0 -0.72c0,-0.31 0.3,-0.42 0.57,-0.36zm0.67 0l0 0.24c-0.1,-0.03 -0.28,-0.01 -0.28,0.13l0 0.71 -0.29 0 0 -0.72c0,-0.31 0.31,-0.42 0.57,-0.36zm0.06 0.76c0,-0.32 0.31,-0.41 0.57,-0.32l0 -0.08c0,-0.21 -0.28,-0.16 -0.39,-0.05l-0.14 -0.15c0.25,-0.29 0.81,-0.22 0.81,0.2l0 0.66c-0.28,0.1 -0.85,0.17 -0.85,-0.26zm0.31 -0.1c-0.05,0.04 -0.05,0.14 0,0.18 0.06,0.05 0.18,0.04 0.25,0.02l0 -0.22c-0.07,-0.02 -0.19,-0.04 -0.25,0.02zm-5.55 -0.73c-0.11,-0.18 -0.26,-0.33 -0.42,-0.43 0.05,-0.15 0.19,-0.26 0.47,-0.26 0.58,0 0.56,0.45 0.41,0.86 -0.1,-0.11 -0.25,-0.17 -0.41,-0.17 -0.02,0 -0.04,0 -0.05,0zm0.52 0.24c0.1,-0.19 0.16,-0.39 0.16,-0.58 0.16,-0.03 0.32,0.04 0.46,0.29 0.29,0.5 -0.1,0.7 -0.53,0.78 0.01,-0.05 0.02,-0.1 0.02,-0.15 0,-0.13 -0.04,-0.24 -0.11,-0.34zm0.06 0.58c0.21,-0.01 0.41,-0.06 0.58,-0.15 0.1,0.12 0.12,0.29 -0.02,0.54 -0.29,0.5 -0.66,0.26 -0.94,-0.07 0.16,-0.05 0.3,-0.16 0.38,-0.32zm-0.48 0.34c0.11,0.18 0.26,0.33 0.42,0.42l0 0c-0.05,0.15 -0.19,0.26 -0.47,0.26 -0.58,0 -0.56,-0.44 -0.41,-0.85 0.1,0.1 0.25,0.17 0.41,0.17 0.02,0 0.03,0 0.05,0zm-0.53 -0.25l0 0c-0.1,0.19 -0.15,0.39 -0.16,0.58 -0.16,0.03 -0.31,-0.04 -0.45,-0.28 -0.29,-0.5 0.1,-0.71 0.53,-0.79 -0.02,0.05 -0.02,0.1 -0.02,0.16 0,0.12 0.04,0.24 0.1,0.33zm0.55 0.08c0,0 -0.03,-0.07 0.12,-0.13 0.15,-0.07 0.17,-0.1 0.21,-0.22 0.05,-0.11 0.06,-0.14 0.06,-0.14 0,0 -0.17,-0.05 -0.29,0.01 -0.11,0.05 -0.13,0.15 -0.15,0.2 -0.01,0.05 -0.01,0.15 -0.01,0.15 0,0 0.06,-0.15 0.13,-0.21 0.07,-0.06 0.17,-0.07 0.17,-0.07 0,0 -0.29,0.21 -0.24,0.41zm-0.1 -0.42c0,0 -0.12,-0.07 -0.1,-0.24 0.02,-0.18 0.12,-0.25 0.12,-0.25 0,0 0.13,0.1 0.14,0.25 0,0.15 -0.1,0.24 -0.1,0.24l-0.04 -0.34c0,0 -0.02,0.15 -0.02,0.34zm-0.04 0.42c0,0 0.02,-0.07 -0.12,-0.13 -0.15,-0.07 -0.17,-0.1 -0.22,-0.22 -0.04,-0.11 -0.05,-0.14 -0.05,-0.14 0,0 0.17,-0.05 0.28,0.01 0.11,0.05 0.14,0.15 0.15,0.2 0.01,0.05 0.01,0.15 0.01,0.15 0,0 -0.05,-0.15 -0.12,-0.21 -0.08,-0.06 -0.17,-0.07 -0.17,-0.07 0,0 0.29,0.21 0.24,0.41zm-0.55 0.66c0.03,0.19 0.12,0.34 0.29,0.43 0.07,-0.11 0.19,-0.19 0.33,-0.19 0.14,0 0.26,0.08 0.33,0.19 0.16,-0.09 0.26,-0.24 0.29,-0.43 0.18,0.07 0.36,0.06 0.52,-0.04 -0.07,-0.11 -0.07,-0.25 0,-0.37 0.07,-0.13 0.19,-0.19 0.32,-0.2 0.01,-0.18 -0.07,-0.34 -0.22,-0.46 0.15,-0.12 0.23,-0.28 0.22,-0.47 -0.13,0 -0.25,-0.07 -0.32,-0.19 -0.07,-0.12 -0.07,-0.26 0,-0.38 -0.16,-0.1 -0.34,-0.11 -0.52,-0.04 -0.03,-0.19 -0.13,-0.34 -0.29,-0.43 -0.07,0.12 -0.19,0.19 -0.33,0.19 -0.14,0 -0.26,-0.07 -0.33,-0.19 -0.17,0.09 -0.26,0.24 -0.29,0.43 -0.18,-0.07 -0.36,-0.06 -0.52,0.04 0.06,0.12 0.07,0.26 0,0.38 -0.07,0.12 -0.2,0.19 -0.33,0.19 -0.01,0.19 0.08,0.35 0.22,0.47 -0.14,0.12 -0.23,0.28 -0.22,0.46 0.13,0.01 0.26,0.07 0.33,0.2 0.07,0.12 0.06,0.26 0,0.37 0.16,0.1 0.34,0.11 0.52,0.04zm-1.13 -0.07c-0.08,-0.15 -0.03,-0.34 0.12,-0.43 0.15,-0.08 0.34,-0.03 0.43,0.12 0.08,0.15 0.03,0.34 -0.12,0.43 -0.15,0.09 -0.34,0.04 -0.43,-0.12zm1.75 1.01c-0.18,0 -0.32,-0.14 -0.32,-0.31 0,-0.18 0.14,-0.32 0.32,-0.32 0.17,0 0.31,0.14 0.31,0.32 0,0.17 -0.14,0.31 -0.31,0.31zm1.74 -1.01c-0.08,0.16 -0.27,0.21 -0.43,0.12 -0.15,-0.09 -0.2,-0.28 -0.11,-0.43 0.09,-0.15 0.28,-0.2 0.43,-0.12 0.15,0.09 0.2,0.28 0.11,0.43zm0 -2.01c0.09,0.15 0.04,0.34 -0.11,0.43 -0.15,0.09 -0.34,0.03 -0.43,-0.12 -0.09,-0.15 -0.04,-0.34 0.11,-0.43 0.16,-0.08 0.35,-0.03 0.43,0.12zm-1.74 -1.01c0.17,0 0.31,0.14 0.31,0.31 0,0.18 -0.14,0.32 -0.31,0.32 -0.18,0 -0.32,-0.14 -0.32,-0.32 0,-0.17 0.14,-0.31 0.32,-0.31zm-1.75 1.01c0.09,-0.15 0.28,-0.2 0.43,-0.12 0.15,0.09 0.2,0.28 0.12,0.43 -0.09,0.15 -0.28,0.21 -0.43,0.12 -0.15,-0.09 -0.2,-0.28 -0.12,-0.43z"/>
 </g>
</svg>
