<?xml version="1.0" encoding="UTF-8"?>
<!DOCTYPE svg PUBLIC "-//W3C//DTD SVG 1.1//EN" "http://www.w3.org/Graphics/SVG/1.1/DTD/svg11.dtd">
<!-- Creator: CorelDRAW 2018 (64-Bit) -->
<svg xmlns="http://www.w3.org/2000/svg" xml:space="preserve" width="175px" height="90px" version="1.1" style="shape-rendering:geometricPrecision; text-rendering:geometricPrecision; image-rendering:optimizeQuality; fill-rule:evenodd; clip-rule:evenodd"
viewBox="0 0 980.35 505.15"
 xmlns:xlink="http://www.w3.org/1999/xlink">
 <defs>
  <style type="text/css">
   <![CDATA[
    .fil1 {fill:#FEFEFE}
    .fil0 {fill:#FEFEFE;fill-rule:nonzero}
   ]]>
  </style>
 </defs>
 <g id="Layer_x0020_1">
  <metadata id="CorelCorpID_0Corel-Layer"/>
  <g id="_1691390209152">
   <g>
    <path class="fil0" d="M509.83 276.86l0 -17.21 -0.26 0 0 -93.66c0,-12.34 -1.74,-27.61 -13.18,-28.7l0 -4.25c31.55,0 49.25,6.78 49.25,37.35l0 19.28 23.88 0 0 32.95 -23.88 0 0 37.03 0 16.95c0,18.86 13.35,18.97 27.77,16.09l0 29.58c-38.88,12.96 -63.58,-6.54 -63.58,-45.41zm76.21 2.07l0 -44.37c0,-61.59 106.65,-65.19 106.65,-1.55l0 39.44 -70.32 0 0 5.97c0,19.15 32.26,20.71 41.26,5.7l23.62 17.13c-22.53,42.05 -101.21,30.52 -101.21,-22.32zm72.66 -45.41c0,-19.12 -36.33,-18.58 -36.33,0.26l0 11.94 36.33 0 0 -12.2zm124.18 -43.85l0 29.06c-12.89,-3.39 -35.55,-0.25 -35.55,16.61l0 88.75 -36.07 0 0 -89.27c0,-39.24 38.25,-52.73 71.62,-45.15zm84.19 0l0 29.06c-12.89,-3.39 -35.54,-0.24 -35.54,16.61l0 88.75 -36.07 0 0 -89.27c0,-39.24 38.24,-52.73 71.61,-45.15zm6.89 94.45c0,-39.9 39.18,-50.98 71.62,-39.7l0 -9.6c0,-27.06 -35.44,-20.55 -49.04,-6.23l-17.65 -18.94c32.19,-37.02 101.46,-28.02 101.46,25.17l0 82c-34.48,12.74 -106.39,21.65 -106.39,-32.7zm39.05 -12.84c-6.39,6.06 -6.58,17.56 0.26,23.35 7.05,5.98 22.74,4.68 31.27,2.47l0 -27.25c-8.56,-3.56 -24.48,-5.24 -31.53,1.43z"/>
    <polygon class="fil0" points="516.1,359.61 532.68,359.61 532.68,365.88 516.1,365.88 516.1,380.83 509.83,380.83 509.83,342.6 535,342.6 535,348.87 516.1,348.87 "/>
    <path id="1" class="fil0" d="M556.57 361.71c0,-0.68 -0.17,-1.28 -0.49,-1.81 -0.32,-0.51 -0.76,-0.94 -1.29,-1.29 -0.55,-0.34 -1.16,-0.6 -1.87,-0.75 -0.7,-0.17 -1.43,-0.25 -2.19,-0.25 -1.11,0 -2.19,0.19 -3.24,0.57 -1.04,0.38 -1.92,0.96 -2.64,1.75l-3.35 -3.45c1.51,-1.69 3.1,-2.81 4.78,-3.35 1.67,-0.54 3.41,-0.81 5.21,-0.81 1.37,0 2.71,0.19 4.02,0.56 1.32,0.38 2.5,0.95 3.54,1.71 1.05,0.75 1.88,1.71 2.51,2.86 0.63,1.15 0.95,2.52 0.95,4.1l0 17.93c-1.3,0.5 -2.87,0.95 -4.73,1.33 -1.85,0.37 -3.8,0.56 -5.86,0.56 -1.47,0 -2.9,-0.13 -4.26,-0.4 -1.37,-0.27 -2.58,-0.73 -3.62,-1.38 -1.05,-0.65 -1.89,-1.52 -2.54,-2.62 -0.65,-1.1 -0.97,-2.47 -0.97,-4.13 0,-1.55 0.29,-2.88 0.89,-3.99 0.59,-1.12 1.38,-2.05 2.35,-2.79 0.97,-0.73 2.08,-1.28 3.32,-1.64 1.24,-0.37 2.51,-0.54 3.8,-0.54 1.01,0 2.01,0.09 2.97,0.27 0.98,0.18 1.88,0.45 2.71,0.81l0 -3.25zm-4.81 6.92c-1.73,0 -3.06,0.38 -4,1.16 -0.93,0.77 -1.4,1.78 -1.4,2.99 0,0.65 0.15,1.21 0.43,1.68 0.29,0.47 0.68,0.84 1.16,1.14 0.49,0.28 1.04,0.49 1.65,0.62 0.61,0.12 1.26,0.18 1.94,0.18 0.98,0 1.89,-0.05 2.76,-0.15 0.86,-0.12 1.62,-0.26 2.27,-0.44l0 -6.21c-0.62,-0.29 -1.35,-0.52 -2.19,-0.7 -0.85,-0.18 -1.72,-0.27 -2.62,-0.27z"/>
    <path id="2" class="fil0" d="M582.78 352.32c0.47,0 0.96,0.02 1.49,0.05 0.52,0.04 1.08,0.13 1.7,0.28l0 5.23c-0.65,-0.18 -1.37,-0.27 -2.16,-0.27 -0.11,0 -0.24,0 -0.38,0 -0.94,0.04 -1.81,0.23 -2.62,0.57 -0.81,0.34 -1.48,0.84 -2.03,1.49 -0.53,0.65 -0.81,1.43 -0.81,2.37l0 18.79 -5.94 0 0 -18.9c0,-2.01 0.49,-3.72 1.46,-5.13 0.97,-1.4 2.22,-2.5 3.73,-3.29 0.43,-0.22 0.93,-0.41 1.48,-0.57 0.56,-0.16 1.11,-0.29 1.65,-0.37 0.54,-0.1 1.03,-0.16 1.46,-0.2 0.43,-0.03 0.75,-0.05 0.97,-0.05z"/>
    <path id="3" class="fil0" d="M629.25 361.55l0 19.28 -5.89 0 0 -19.06c0,-1.26 -0.46,-2.18 -1.38,-2.78 -0.91,-0.6 -1.95,-0.89 -3.1,-0.89 -0.58,0 -1.15,0.08 -1.71,0.24 -0.55,0.17 -1.06,0.39 -1.51,0.68 -0.45,0.28 -0.81,0.65 -1.08,1.08 -0.27,0.43 -0.4,0.91 -0.4,1.45l0 19.28 -5.84 0 0 -19.17c0,-0.65 -0.13,-1.19 -0.4,-1.64 -0.27,-0.45 -0.64,-0.83 -1.11,-1.11 -0.46,-0.29 -0.99,-0.5 -1.56,-0.62 -0.58,-0.13 -1.19,-0.19 -1.84,-0.19 -0.72,0 -1.42,0.09 -2.11,0.27 -0.68,0.18 -1.33,0.47 -1.94,0.86l0 21.6 -5.83 0 0 -25.54c1.22,-0.86 2.68,-1.56 4.37,-2.11 1.69,-0.53 3.4,-0.83 5.13,-0.86 1.69,0 3.27,0.27 4.73,0.81 1.46,0.54 2.6,1.51 3.43,2.92 0.83,-1.23 1.93,-2.15 3.29,-2.76 1.37,-0.61 2.83,-0.94 4.38,-0.97 1.26,0 2.51,0.19 3.75,0.56 1.24,0.38 2.35,0.95 3.32,1.71 0.98,0.75 1.76,1.71 2.37,2.89 0.62,1.16 0.93,2.52 0.93,4.07z"/>
    <path id="4" class="fil0" d="M638.29 345.84c0,-1.12 0.37,-2.05 1.11,-2.81 0.73,-0.75 1.66,-1.13 2.78,-1.13 1.11,0 2.05,0.38 2.8,1.13 0.76,0.76 1.14,1.69 1.14,2.81 0,1.12 -0.38,2.05 -1.14,2.81 -0.75,0.75 -1.69,1.13 -2.8,1.13 -1.12,0 -2.05,-0.38 -2.78,-1.13 -0.74,-0.76 -1.11,-1.69 -1.11,-2.81zm6.81 34.99l-6.11 0 0 -27.91 6.11 0 0 27.91z"/>
    <path id="5" class="fil0" d="M676.98 362.26l0 18.57 -5.88 0 0 -18.52c-0.04,-0.79 -0.25,-1.46 -0.63,-2.03 -0.37,-0.55 -0.85,-1.01 -1.4,-1.37 -0.56,-0.36 -1.19,-0.62 -1.89,-0.78 -0.7,-0.17 -1.41,-0.25 -2.14,-0.25 -0.75,0 -1.48,0.08 -2.18,0.25 -0.71,0.16 -1.31,0.4 -1.81,0.73l0 21.97 -5.94 0 0 -26.24c1.37,-0.73 2.88,-1.27 4.54,-1.65 1.65,-0.37 3.33,-0.59 5.02,-0.62 1.58,0 3.12,0.18 4.62,0.54 1.49,0.36 2.8,0.94 3.93,1.73 1.14,0.79 2.05,1.81 2.74,3.07 0.68,1.26 1.02,2.79 1.02,4.6z"/>
    <path id="6" class="fil0" d="M696.93 386.55c0.72,0 1.39,-0.1 2.02,-0.31 0.63,-0.22 1.19,-0.57 1.68,-1.06 0.48,-0.49 0.87,-1.13 1.16,-1.91 0.28,-0.8 0.43,-1.77 0.43,-2.92 -0.83,0.36 -1.68,0.62 -2.54,0.78 -0.86,0.16 -1.73,0.24 -2.59,0.24 -1.41,0 -2.77,-0.21 -4.1,-0.64 -1.34,-0.43 -2.52,-1.06 -3.54,-1.87 -1.02,-0.81 -1.85,-1.82 -2.46,-3.03 -0.61,-1.2 -0.92,-2.59 -0.92,-4.18l0 -9.51c0,-1.69 0.34,-3.15 1,-4.39 0.67,-1.25 1.54,-2.26 2.62,-3.06 1.08,-0.79 2.33,-1.38 3.75,-1.77 1.43,-0.4 2.89,-0.6 4.41,-0.6 1.83,0 3.65,0.28 5.45,0.84 1.8,0.55 3.33,1.3 4.59,2.24l0 25.97c0,1.77 -0.31,3.29 -0.92,4.59 -0.61,1.3 -1.43,2.36 -2.46,3.19 -1.02,0.82 -2.18,1.45 -3.48,1.87 -1.3,0.41 -2.64,0.61 -4.05,0.61 -1.04,0 -2.08,-0.1 -3.11,-0.3 -1.02,-0.19 -2,-0.5 -2.94,-0.91 -0.93,-0.42 -1.8,-0.94 -2.59,-1.57 -0.79,-0.63 -1.46,-1.35 -2,-2.18l3.57 -3.4c0.79,1.04 1.82,1.85 3.1,2.42 1.28,0.58 2.59,0.86 3.92,0.86zm0.64 -28.77c-0.71,0 -1.41,0.08 -2.07,0.26 -0.67,0.19 -1.25,0.45 -1.76,0.79 -0.5,0.34 -0.91,0.79 -1.24,1.35 -0.32,0.55 -0.49,1.21 -0.49,1.96l0 9.56c0.04,0.73 0.22,1.36 0.55,1.89 0.32,0.55 0.73,1 1.23,1.38 0.51,0.38 1.09,0.66 1.74,0.84 0.64,0.18 1.31,0.27 1.99,0.27 0.83,0 1.64,-0.11 2.43,-0.33 0.79,-0.21 1.48,-0.51 2.05,-0.91l0 -15.93c-0.53,-0.4 -1.2,-0.68 -1.99,-0.87 -0.8,-0.18 -1.61,-0.26 -2.44,-0.26z"/>
    <path id="7" class="fil0" d="M738.38 381.37c-1.38,0 -2.66,-0.19 -3.87,-0.56 -1.2,-0.38 -2.26,-0.98 -3.15,-1.79 -0.91,-0.81 -1.61,-1.84 -2.11,-3.1 -0.51,-1.26 -0.76,-2.77 -0.76,-4.54l0 -25.11 5.35 0 0.54 6.59 5.34 0 0 5.4 -5.34 0 0 13.07c0,1.12 0.17,1.99 0.51,2.61 0.34,0.63 0.8,1.11 1.38,1.41 0.58,0.31 1.23,0.5 1.97,0.57 0.74,0.07 1.52,0.11 2.35,0.11l0 5.18c-0.75,0.11 -1.5,0.16 -2.21,0.16z"/>
    <path id="8" class="fil0" d="M759.62 352.32c0.15,0 0.31,0 0.49,0 1.34,0 2.62,0.2 3.86,0.6 1.24,0.39 2.35,0.99 3.32,1.8 0.98,0.82 1.76,1.83 2.35,3.06 0.6,1.22 0.9,2.66 0.9,4.31l0 18.74 -5.89 0 0 -18.79c0,-1.22 -0.38,-2.17 -1.13,-2.83 -0.76,-0.67 -1.66,-1.1 -2.71,-1.27 -0.54,-0.11 -1.09,-0.16 -1.64,-0.16 -0.56,0 -1.13,0.05 -1.71,0.16 -1.14,0.17 -2.12,0.52 -2.91,1.02l0 21.87 -5.94 0 0 -38.23 5.94 0 0 10.8c1.62,-0.72 3.31,-1.08 5.07,-1.08z"/>
    <path id="9" class="fil0" d="M790.7 381.37c-1.36,0 -2.72,-0.19 -4.05,-0.59 -1.33,-0.4 -2.52,-1 -3.56,-1.81 -1.05,-0.81 -1.88,-1.81 -2.51,-3 -0.63,-1.18 -0.95,-2.59 -0.95,-4.21l0 -9.83c0,-1.61 0.32,-3.03 0.95,-4.24 0.63,-1.2 1.46,-2.2 2.51,-3 1.04,-0.79 2.23,-1.38 3.56,-1.77 1.33,-0.4 2.69,-0.6 4.05,-0.6 1.33,0 2.66,0.2 3.97,0.6 1.32,0.39 2.49,0.98 3.51,1.77 1.03,0.8 1.86,1.8 2.49,3 0.63,1.21 0.94,2.63 0.94,4.24l0 7.67 -15.99 0 0 1.95c0,0.64 0.15,1.21 0.44,1.69 0.29,0.49 0.66,0.92 1.11,1.28 0.45,0.35 0.97,0.62 1.56,0.8 0.59,0.18 1.22,0.28 1.87,0.28 1.04,0 2.04,-0.21 2.99,-0.63 0.96,-0.41 1.69,-1.14 2.19,-2.19l4.97 2.87c-0.54,0.97 -1.2,1.81 -1.97,2.51 -0.78,0.7 -1.61,1.29 -2.49,1.78 -0.88,0.49 -1.81,0.85 -2.78,1.09 -0.97,0.23 -1.91,0.34 -2.81,0.34zm5.19 -19.33c0,-0.65 -0.14,-1.21 -0.43,-1.7 -0.29,-0.49 -0.68,-0.9 -1.16,-1.24 -0.49,-0.34 -1.04,-0.59 -1.66,-0.76 -0.61,-0.16 -1.24,-0.24 -1.89,-0.24 -0.64,0 -1.28,0.08 -1.91,0.24 -0.63,0.17 -1.19,0.42 -1.67,0.76 -0.49,0.34 -0.88,0.76 -1.16,1.27 -0.29,0.5 -0.42,1.09 -0.39,1.77l0 2.54 10.27 0 0 -2.64z"/>
    <polygon id="10" class="fil0" points="828.04,359.61 844.62,359.61 844.62,365.88 828.04,365.88 828.04,380.83 821.78,380.83 821.78,342.6 846.94,342.6 846.94,348.87 828.04,348.87 "/>
    <path id="11" class="fil0" d="M865.65 381.37c-1.51,0 -2.95,-0.18 -4.32,-0.54 -1.37,-0.36 -2.55,-0.93 -3.56,-1.73 -1.01,-0.79 -1.81,-1.79 -2.41,-3.02 -0.59,-1.22 -0.88,-2.7 -0.88,-4.43l0 -18.79 5.94 0 0 18.9c0.03,0.79 0.23,1.47 0.59,2.03 0.36,0.55 0.82,1.01 1.37,1.37 0.56,0.36 1.19,0.63 1.89,0.81 0.71,0.18 1.44,0.28 2.19,0.28 0.72,0 1.43,-0.1 2.14,-0.28 0.7,-0.18 1.34,-0.41 1.91,-0.7l0 -22.41 5.89 0 0 26.19c-1.73,0.72 -3.51,1.29 -5.34,1.7 -1.84,0.41 -3.64,0.62 -5.41,0.62z"/>
    <path id="12" class="fil0" d="M896.08 381.37c-1.37,0 -2.66,-0.19 -3.86,-0.56 -1.21,-0.38 -2.26,-0.98 -3.16,-1.79 -0.9,-0.81 -1.6,-1.84 -2.11,-3.1 -0.5,-1.26 -0.75,-2.77 -0.75,-4.54l0 -25.11 5.34 0 0.54 6.59 5.35 0 0 5.4 -5.35 0 0 13.07c0,1.12 0.18,1.99 0.51,2.61 0.35,0.63 0.81,1.11 1.38,1.41 0.58,0.31 1.24,0.5 1.97,0.57 0.74,0.07 1.53,0.11 2.36,0.11l0 5.18c-0.76,0.11 -1.5,0.16 -2.22,0.16z"/>
    <path id="13" class="fil0" d="M917.27 381.37c-1.51,0 -2.95,-0.18 -4.32,-0.54 -1.36,-0.36 -2.55,-0.93 -3.56,-1.73 -1,-0.79 -1.81,-1.79 -2.4,-3.02 -0.59,-1.22 -0.89,-2.7 -0.89,-4.43l0 -18.79 5.94 0 0 18.9c0.03,0.79 0.23,1.47 0.59,2.03 0.36,0.55 0.82,1.01 1.38,1.37 0.55,0.36 1.18,0.63 1.89,0.81 0.7,0.18 1.43,0.28 2.18,0.28 0.73,0 1.44,-0.1 2.14,-0.28 0.7,-0.18 1.34,-0.41 1.91,-0.7l0 -22.41 5.89 0 0 26.19c-1.73,0.72 -3.51,1.29 -5.34,1.7 -1.84,0.41 -3.64,0.62 -5.41,0.62z"/>
    <path id="14" class="fil0" d="M948.57 352.32c0.47,0 0.96,0.02 1.48,0.05 0.52,0.04 1.09,0.13 1.7,0.28l0 5.23c-0.65,-0.18 -1.37,-0.27 -2.16,-0.27 -0.11,0 -0.24,0 -0.38,0 -0.94,0.04 -1.8,0.23 -2.61,0.57 -0.82,0.34 -1.49,0.84 -2.03,1.49 -0.54,0.65 -0.81,1.43 -0.81,2.37l0 18.79 -5.94 0 0 -18.9c0,-2.01 0.48,-3.72 1.46,-5.13 0.97,-1.4 2.21,-2.5 3.72,-3.29 0.43,-0.22 0.93,-0.41 1.49,-0.57 0.56,-0.16 1.11,-0.29 1.64,-0.37 0.55,-0.1 1.03,-0.16 1.46,-0.2 0.43,-0.03 0.76,-0.05 0.98,-0.05z"/>
    <path id="15" class="fil0" d="M969.33 381.37c-1.37,0 -2.72,-0.19 -4.05,-0.59 -1.33,-0.4 -2.52,-1 -3.56,-1.81 -1.05,-0.81 -1.88,-1.81 -2.51,-3 -0.63,-1.18 -0.95,-2.59 -0.95,-4.21l0 -9.83c0,-1.61 0.32,-3.03 0.95,-4.24 0.63,-1.2 1.46,-2.2 2.51,-3 1.04,-0.79 2.23,-1.38 3.56,-1.77 1.33,-0.4 2.68,-0.6 4.05,-0.6 1.33,0 2.66,0.2 3.97,0.6 1.31,0.39 2.49,0.98 3.51,1.77 1.02,0.8 1.85,1.8 2.48,3 0.63,1.21 0.95,2.63 0.95,4.24l0 7.67 -15.99 0 0 1.95c0,0.64 0.15,1.21 0.44,1.69 0.28,0.49 0.65,0.92 1.1,1.28 0.46,0.35 0.97,0.62 1.57,0.8 0.59,0.18 1.21,0.28 1.86,0.28 1.04,0 2.04,-0.21 3,-0.63 0.95,-0.41 1.68,-1.14 2.19,-2.19l4.96 2.87c-0.54,0.97 -1.19,1.81 -1.97,2.51 -0.77,0.7 -1.6,1.29 -2.48,1.78 -0.89,0.49 -1.81,0.85 -2.78,1.09 -0.98,0.23 -1.91,0.34 -2.81,0.34zm5.18 -19.33c0,-0.65 -0.14,-1.21 -0.43,-1.7 -0.28,-0.49 -0.67,-0.9 -1.16,-1.24 -0.48,-0.34 -1.03,-0.59 -1.65,-0.76 -0.61,-0.16 -1.24,-0.24 -1.89,-0.24 -0.64,0 -1.28,0.08 -1.91,0.24 -0.63,0.17 -1.19,0.42 -1.68,0.76 -0.49,0.34 -0.87,0.76 -1.16,1.27 -0.29,0.5 -0.41,1.09 -0.38,1.77l0 2.54 10.26 0 0 -2.64z"/>
   </g>
   <path class="fil1" d="M85.39 240.86c-13.32,-15.33 -15.8,-36.92 1.75,-67.32 36.25,-62.78 82.68,-32.81 118.24,8.64 3.99,-1.06 8.12,-1.78 12.35,-2.15 -33.44,-53.57 -92.25,-85.6 -136.06,-57.07 7.75,14.23 8.13,32.04 -0.56,47.09 -8.7,15.07 -24.31,23.64 -40.51,24.04 -1.26,23.45 9.59,43.41 27.64,58.49 5.17,-4.32 10.91,-8.24 17.15,-11.72zm-80.09 -114.57c10.89,-18.88 35.02,-25.34 53.89,-14.44 18.86,10.89 25.33,35.02 14.43,53.89 -10.89,18.87 -35.02,25.33 -53.88,14.44 -18.87,-10.89 -25.34,-35.03 -14.44,-53.89z"/>
   <path class="fil1" d="M164.86 126.65c6.62,-19.2 24.07,-32.14 59.18,-32.14 72.49,0 69.75,55.2 51.63,106.72 2.94,2.97 5.63,6.18 8.03,9.61 29.68,-55.74 28.01,-122.68 -18.6,-146.36 -8.45,13.83 -23.68,23.06 -41.06,23.06 -17.4,0 -32.63,-9.23 -41.07,-23.06 -20.94,10.64 -32.8,30.01 -36.83,53.17 6.32,2.31 12.59,5.34 18.72,9zm59.17 -126.65c21.79,0 39.45,17.66 39.45,39.45 0,21.78 -17.66,39.45 -39.44,39.45 -21.79,0 -39.45,-17.67 -39.45,-39.45 0,-21.79 17.66,-39.45 39.44,-39.45z"/>
   <path class="fil1" d="M303.51 138.37c19.93,-3.87 39.87,4.78 57.42,35.17 36.24,62.78 -12.93,88.01 -66.6,98.08 -1.1,4.07 -2.55,8 -4.31,11.76 63.11,-2.17 120.24,-37.09 117.44,-89.29 -16.19,-0.4 -31.8,-8.97 -40.5,-24.04 -8.69,-15.05 -8.32,-32.86 -0.57,-47.09 -19.67,-12.81 -42.38,-13.4 -64.46,-5.31 1.15,6.64 1.68,13.58 1.58,20.72zm139.26 -12.08c10.9,18.86 4.43,43 -14.44,53.89 -18.87,10.89 -43,4.43 -53.89,-14.44 -10.89,-18.87 -4.43,-43 14.44,-53.89 18.87,-10.9 43,-4.44 53.89,14.44z"/>
   <path class="fil1" d="M362.68 264.3c13.31,15.32 15.8,36.92 -1.75,67.31 -36.25,62.79 -82.69,32.82 -118.24,-8.64 -3.99,1.06 -8.12,1.78 -12.35,2.15 33.43,53.57 92.25,85.6 136.05,57.07 -7.75,-14.23 -8.12,-32.04 0.57,-47.09 8.7,-15.06 24.31,-23.64 40.5,-24.04 1.26,-23.45 -9.58,-43.41 -27.63,-58.48 -5.17,4.31 -10.92,8.24 -17.15,11.72zm80.09 114.56c-10.89,18.88 -35.02,25.34 -53.89,14.44 -18.87,-10.89 -25.34,-35.01 -14.44,-53.89 10.89,-18.86 35.02,-25.33 53.89,-14.44 18.87,10.9 25.34,35.03 14.44,53.89z"/>
   <path class="fil1" d="M283.21 378.51c-6.62,19.19 -24.08,32.13 -59.17,32.13 -72.51,0 -69.76,-55.2 -51.64,-106.72 -2.94,-2.96 -5.63,-6.18 -8.03,-9.61 -29.68,55.74 -28.01,122.69 18.6,146.37 8.44,-13.83 23.68,-23.07 41.07,-23.07 17.39,0 32.61,9.24 41.06,23.07 20.93,-10.64 32.8,-30.02 36.83,-53.18 -6.32,-2.31 -12.59,-5.33 -18.72,-8.99zm-59.17 126.64c-21.79,0 -39.45,-17.66 -39.45,-39.45 0,-21.78 17.66,-39.45 39.45,-39.45 21.78,0 39.44,17.67 39.44,39.45 0,21.79 -17.66,39.45 -39.44,39.45z"/>
   <path class="fil1" d="M144.56 366.79c-19.93,3.87 -39.87,-4.78 -57.42,-35.18 -36.25,-62.78 12.92,-88.01 66.6,-98.07 1.1,-4.08 2.55,-8.01 4.3,-11.77 -63.1,2.17 -120.23,37.09 -117.44,89.29 16.2,0.4 31.81,8.98 40.51,24.04 8.69,15.05 8.31,32.86 0.56,47.09 19.68,12.82 42.39,13.4 64.47,5.31 -1.16,-6.63 -1.68,-13.57 -1.58,-20.71zm-139.26 12.07c-10.9,-18.86 -4.43,-42.99 14.44,-53.89 18.86,-10.89 42.99,-4.42 53.88,14.44 10.9,18.88 4.43,43 -14.43,53.89 -18.88,10.9 -43,4.44 -53.89,-14.44z"/>
   <path class="fil1" d="M224.04 179.76c40.21,0 72.81,32.6 72.81,72.82 0,40.21 -32.6,72.81 -72.81,72.81 -40.22,0 -72.83,-32.6 -72.83,-72.81 0,-40.22 32.61,-72.82 72.83,-72.82zm8.64 124.05c0,0 -3.18,-7.69 15.4,-15.96 18.58,-8.27 21.02,-11.97 26.64,-26.8 5.63,-14.82 6.61,-17.95 6.61,-17.95 0,0 -21.28,-6.28 -35.21,0.85 -13.93,7.13 -17.36,19.39 -18.82,25.66 -1.47,6.27 -1.22,18.81 -1.22,18.81 0,0 6.84,-19.67 15.89,-26.8 9.04,-7.12 20.78,-8.83 20.78,-8.83 0,0 -36.52,26.18 -30.07,51.02zm-11.67 -52.16c0,0 -16.13,-8.55 -13.45,-30.51 2.69,-21.95 15.65,-30.22 15.65,-30.22 0,0 16.38,11.41 16.87,30.51 0.49,19.1 -11.73,30.5 -11.73,30.5l-4.9 -42.48c0,0 -2.68,18.82 -2.44,42.2zm-5.62 52.16c0,0 3.18,-7.69 -15.4,-15.96 -18.58,-8.27 -21.03,-11.97 -26.65,-26.8 -5.62,-14.82 -6.6,-17.95 -6.6,-17.95 0,0 21.27,-6.28 35.2,0.85 13.94,7.13 17.36,19.39 18.83,25.66 1.46,6.27 1.22,18.81 1.22,18.81 0,0 -6.84,-19.67 -15.89,-26.8 -9.04,-7.12 -20.78,-8.83 -20.78,-8.83 0,0 36.51,26.18 30.07,51.02z"/>
  </g>
 </g>
</svg>
