<?xml version="1.0" encoding="UTF-8"?>
<!DOCTYPE svg PUBLIC "-//W3C//DTD SVG 1.1//EN" "http://www.w3.org/Graphics/SVG/1.1/DTD/svg11.dtd">
<!-- Creator: CorelDRAW 2018 (64-Bit) -->
<svg xmlns="http://www.w3.org/2000/svg" xml:space="preserve" width="33px" height="35px" version="1.1" style="shape-rendering:geometricPrecision; text-rendering:geometricPrecision; image-rendering:optimizeQuality; fill-rule:evenodd; clip-rule:evenodd"
viewBox="0 0 1.05 1.11"
 xmlns:xlink="http://www.w3.org/1999/xlink">
 <defs>
  <style type="text/css">
   <![CDATA[
    .fil0 {fill:#FEFEFE}
   ]]>
  </style>
 </defs>
 <g id="Layer_x0020_1">
  <metadata id="CorelCorpID_0Corel-Layer"/>
  <path class="fil0" d="M0.52 0c0.12,0 0.22,0.1 0.23,0.22 0,0.06 -0.01,0.1 -0.03,0.15 -0.03,0.05 -0.06,0.09 -0.1,0.13 -0.03,0.04 -0.06,0.08 -0.09,0.12 0,0.01 -0.01,0.01 -0.02,0.01 -0.05,-0.07 -0.1,-0.13 -0.15,-0.19 -0.03,-0.05 -0.05,-0.1 -0.06,-0.15 -0.02,-0.13 0.06,-0.26 0.18,-0.29 0.02,0 0.03,0 0.04,0zm0.26 0.79l0.05 0 0 0.27 0.14 0 0 0.05 -0.19 0 0 -0.32zm-0.29 0.14l0.14 0 0 0.05 -0.14 0 0 0.08 0.16 0 0 0.05 -0.21 0 0 -0.32 0.21 0 0 0.06 -0.16 0 0 0.08zm-0.37 0.18l-0.05 0 0 -0.32 0.05 0 0 0.15 0.14 -0.15 0.07 0 -0.15 0.16 0.15 0.16 -0.07 0 -0.11 -0.12 -0.03 0.02 0 0.1zm0.08 -0.67c0.01,0.01 0.02,0.02 0.03,0.03l0.2 0.28 -0.03 0 -0.15 -0.21c-0.02,-0.03 -0.05,-0.06 -0.07,-0.09 0,0 0,-0.01 -0.01,-0.01 0,0 0,0.01 0,0.01 -0.04,0.03 -0.07,0.05 -0.11,0.08 -0.01,0.01 -0.01,0.01 0,0.02 0.04,0.06 0.08,0.13 0.12,0.2l-0.05 0 -0.12 -0.2c-0.01,-0.02 -0.01,-0.03 0,-0.04 0.05,-0.04 0.1,-0.07 0.14,-0.11 0.01,0 0.02,0 0.03,-0.01 0.04,0 0.07,0 0.11,0 0.01,0 0.01,0.01 0.02,0.01 0,0.01 0,0.02 0.01,0.03 0,0 0,0 0,0.01 0,0 -0.01,0 -0.01,0 -0.03,0 -0.07,0 -0.1,0 0,0 0,0 -0.01,0zm0.57 0.31l-0.01 -0.01c-0.05,-0.05 -0.1,-0.1 -0.15,-0.15 0,0 -0.01,0 -0.01,-0.01 0.01,0 0.01,-0.01 0.01,-0.01 0.01,0 0.01,0 0.01,0 0.03,0.03 0.06,0.06 0.09,0.09 0.03,0.02 0.05,0.05 0.08,0.08 0,0 0.01,0 0.01,0 0.06,-0.05 0.12,-0.1 0.18,-0.15 0,-0.01 0,-0.01 0,-0.02 -0.07,-0.03 -0.13,-0.06 -0.19,-0.1 -0.02,-0.01 -0.04,-0.02 -0.06,-0.04 -0.01,0 -0.01,0 -0.01,-0.01 0.01,0 0.01,-0.01 0.01,-0.01 0.01,-0.02 0.01,-0.02 0.03,-0.01 0.09,0.05 0.18,0.1 0.27,0.15 0.02,0.01 0.02,0.03 0,0.05 -0.06,0.05 -0.12,0.1 -0.17,0.15l-0.09 0zm-0.14 -0.49c0,-0.07 -0.04,-0.13 -0.1,-0.13 -0.07,0 -0.12,0.06 -0.12,0.12 0,0.07 0.05,0.12 0.11,0.12 0.06,0 0.11,-0.05 0.11,-0.11z"/>
 </g>
</svg>
