<?xml version="1.0" encoding="UTF-8"?>
<!DOCTYPE svg PUBLIC "-//W3C//DTD SVG 1.1//EN" "http://www.w3.org/Graphics/SVG/1.1/DTD/svg11.dtd">
<!-- Creator: CorelDRAW 2018 (64-Bit) -->
<svg xmlns="http://www.w3.org/2000/svg" xml:space="preserve" width="542px" height="63px" version="1.1" style="shape-rendering:geometricPrecision; text-rendering:geometricPrecision; image-rendering:optimizeQuality; fill-rule:evenodd; clip-rule:evenodd"
viewBox="0 0 229.25 26.47"
 xmlns:xlink="http://www.w3.org/1999/xlink">
 <defs>
  <style type="text/css">
   <![CDATA[
    .fil2 {fill:#088378}
    .fil1 {fill:#B6B6B7;fill-rule:nonzero}
    .fil0 {fill:#088378;fill-rule:nonzero}
   ]]>
  </style>
 </defs>
 <g id="Layer_x0020_1">
  <metadata id="CorelCorpID_0Corel-Layer"/>
  <g id="_2298701539488">
   <path class="fil0" d="M5.84 0l217.58 0c1.6,0 3.06,0.66 4.12,1.71 1.05,1.06 1.71,2.52 1.71,4.13l0 14.79c0,1.6 -0.66,3.06 -1.71,4.12 -1.06,1.06 -2.52,1.72 -4.12,1.72l-217.58 0c-1.61,0 -3.07,-0.66 -4.12,-1.72 -1.06,-1.05 -1.72,-2.51 -1.72,-4.12l0 -14.79c0,-1.61 0.66,-3.07 1.71,-4.13 1.06,-1.05 2.52,-1.71 4.13,-1.71zm217.58 1l-217.58 0c-1.33,0 -2.54,0.54 -3.42,1.42 -0.88,0.88 -1.42,2.09 -1.42,3.42l0 14.79c0,1.33 0.54,2.54 1.42,3.42 0.88,0.87 2.09,1.42 3.42,1.42l217.58 0c1.32,0 2.53,-0.55 3.41,-1.42 0.88,-0.88 1.42,-2.09 1.42,-3.42l0 -14.79c0,-1.33 -0.54,-2.54 -1.42,-3.42 -0.88,-0.88 -2.09,-1.42 -3.41,-1.42z"/>
   <polygon class="fil1" points="36.68,9.68 36.68,16.46 36,16.46 36,9.68 33.86,9.68 33.86,9.05 38.82,9.05 38.82,9.68 "/>
   <path id="1" class="fil1" d="M40.25 13.93c0,0.32 0.05,0.62 0.13,0.87 0.08,0.26 0.2,0.48 0.36,0.66 0.15,0.18 0.34,0.32 0.56,0.41 0.22,0.1 0.47,0.14 0.75,0.14 0.6,0 1.16,-0.21 1.69,-0.62l0 0.65c-0.5,0.36 -1.12,0.54 -1.84,0.54 -0.35,0 -0.67,-0.06 -0.96,-0.18 -0.29,-0.13 -0.54,-0.31 -0.74,-0.54 -0.2,-0.24 -0.36,-0.53 -0.47,-0.88 -0.11,-0.34 -0.17,-0.73 -0.17,-1.17 0,-0.4 0.06,-0.77 0.18,-1.1 0.12,-0.34 0.29,-0.63 0.5,-0.88 0.22,-0.25 0.47,-0.44 0.76,-0.58 0.3,-0.14 0.62,-0.21 0.97,-0.21 0.34,0 0.64,0.06 0.9,0.18 0.26,0.12 0.48,0.29 0.66,0.51 0.18,0.22 0.31,0.49 0.4,0.8 0.1,0.32 0.14,0.68 0.14,1.07l0 0.33 -3.82 0zm3.14 -0.58c-0.01,-0.55 -0.14,-0.98 -0.39,-1.28 -0.25,-0.3 -0.6,-0.45 -1.05,-0.45 -0.22,0 -0.43,0.03 -0.62,0.11 -0.19,0.08 -0.36,0.2 -0.51,0.35 -0.14,0.15 -0.26,0.33 -0.35,0.55 -0.1,0.21 -0.17,0.45 -0.2,0.72l3.12 0z"/>
   <path id="2" class="fil1" d="M52.02 16.46l0 -3.11c0,-0.32 -0.02,-0.59 -0.07,-0.81 -0.05,-0.22 -0.12,-0.39 -0.23,-0.53 -0.1,-0.14 -0.22,-0.24 -0.38,-0.3 -0.16,-0.06 -0.35,-0.09 -0.56,-0.09 -0.2,0 -0.38,0.04 -0.55,0.13 -0.17,0.09 -0.32,0.22 -0.45,0.38 -0.13,0.16 -0.23,0.35 -0.31,0.56 -0.07,0.22 -0.11,0.46 -0.11,0.71l0 3.06 -0.66 0 0 -3.18c0,-1.11 -0.43,-1.66 -1.28,-1.66 -0.19,0 -0.38,0.04 -0.54,0.13 -0.17,0.08 -0.32,0.21 -0.45,0.37 -0.12,0.16 -0.22,0.35 -0.29,0.57 -0.07,0.22 -0.11,0.47 -0.11,0.73l0 3.04 -0.66 0 0 -5.29 0.66 0 0 0.85 0.02 0c0.38,-0.65 0.92,-0.98 1.63,-0.98 0.19,0 0.36,0.03 0.53,0.09 0.16,0.05 0.31,0.13 0.44,0.23 0.13,0.11 0.25,0.23 0.34,0.37 0.1,0.14 0.17,0.29 0.22,0.46 0.18,-0.37 0.42,-0.66 0.72,-0.85 0.3,-0.2 0.64,-0.3 1.01,-0.3 1.16,0 1.74,0.72 1.74,2.15l0 3.27 -0.66 0z"/>
   <path id="3" class="fil1" d="M54.94 15.61l0 3.28 -0.66 0 0 -7.72 0.66 0 0 1.01 0.02 0c0.19,-0.37 0.46,-0.65 0.79,-0.85 0.32,-0.19 0.7,-0.29 1.11,-0.29 0.34,0 0.64,0.06 0.91,0.19 0.26,0.12 0.49,0.29 0.67,0.51 0.19,0.23 0.33,0.5 0.43,0.82 0.1,0.32 0.14,0.68 0.14,1.08 0,0.44 -0.05,0.84 -0.16,1.2 -0.11,0.36 -0.27,0.67 -0.48,0.92 -0.2,0.26 -0.45,0.46 -0.75,0.61 -0.29,0.14 -0.62,0.21 -0.99,0.21 -0.75,0 -1.3,-0.32 -1.67,-0.97l-0.02 0zm0 -1.35c0,0.24 0.04,0.46 0.12,0.67 0.08,0.22 0.19,0.4 0.34,0.56 0.14,0.16 0.32,0.29 0.52,0.38 0.21,0.1 0.43,0.14 0.68,0.14 0.27,0 0.51,-0.05 0.72,-0.16 0.21,-0.12 0.39,-0.28 0.54,-0.48 0.15,-0.21 0.27,-0.46 0.35,-0.75 0.08,-0.3 0.12,-0.62 0.12,-0.99 0,-0.3 -0.03,-0.58 -0.11,-0.83 -0.08,-0.25 -0.18,-0.47 -0.32,-0.64 -0.14,-0.18 -0.31,-0.31 -0.51,-0.41 -0.2,-0.09 -0.42,-0.13 -0.66,-0.13 -0.28,0 -0.53,0.05 -0.75,0.15 -0.22,0.1 -0.41,0.24 -0.56,0.41 -0.16,0.18 -0.28,0.38 -0.36,0.62 -0.08,0.24 -0.12,0.49 -0.12,0.75l0 0.71z"/>
   <path id="4" class="fil1" d="M63.4 16.46l0 -0.94 -0.02 0c-0.18,0.33 -0.41,0.6 -0.71,0.78 -0.3,0.19 -0.64,0.28 -1.01,0.28 -0.25,0 -0.48,-0.03 -0.69,-0.11 -0.21,-0.07 -0.38,-0.17 -0.52,-0.31 -0.14,-0.13 -0.25,-0.29 -0.33,-0.47 -0.08,-0.19 -0.12,-0.39 -0.12,-0.62 0,-0.48 0.15,-0.86 0.45,-1.14 0.29,-0.29 0.74,-0.47 1.34,-0.56l1.61 -0.23c0,-1.02 -0.4,-1.52 -1.19,-1.52 -0.61,0 -1.19,0.22 -1.71,0.67l0 -0.72c0.11,-0.08 0.23,-0.15 0.37,-0.22 0.14,-0.06 0.29,-0.11 0.44,-0.16 0.16,-0.05 0.32,-0.08 0.48,-0.11 0.17,-0.03 0.32,-0.04 0.48,-0.04 0.59,0 1.03,0.17 1.34,0.5 0.3,0.33 0.45,0.82 0.45,1.48l0 3.44 -0.66 0zm-1.37 -2.57c-0.24,0.03 -0.44,0.08 -0.61,0.13 -0.17,0.05 -0.31,0.12 -0.42,0.21 -0.11,0.09 -0.19,0.19 -0.24,0.32 -0.05,0.13 -0.08,0.29 -0.08,0.48 0,0.14 0.03,0.27 0.08,0.39 0.05,0.12 0.12,0.23 0.21,0.32 0.1,0.08 0.22,0.15 0.35,0.2 0.14,0.05 0.29,0.07 0.46,0.07 0.24,0 0.45,-0.04 0.65,-0.13 0.2,-0.09 0.37,-0.21 0.51,-0.37 0.14,-0.16 0.25,-0.35 0.33,-0.57 0.09,-0.22 0.13,-0.46 0.13,-0.72l0 -0.52 -1.37 0.19z"/>
   <path id="5" class="fil1" d="M67.92 16.4c-0.22,0.11 -0.47,0.16 -0.74,0.17 -0.86,-0.01 -1.28,-0.5 -1.28,-1.48l0 -3.35 -0.93 0 0 -0.57 0.93 0 0 -1.34 0.66 -0.21 0 1.55 1.36 0 0 0.57 -1.36 0 0 3.24c0,0.36 0.06,0.62 0.18,0.78 0.11,0.16 0.31,0.24 0.59,0.24 0.21,0 0.4,-0.06 0.59,-0.19l0 0.59z"/>
   <polygon id="6" class="fil1" points="71.91,16.46 71.91,8.62 72.57,8.62 72.57,16.46 "/>
   <path id="7" class="fil1" d="M77.33 16.46l0 -0.94 -0.02 0c-0.17,0.33 -0.41,0.6 -0.71,0.78 -0.29,0.19 -0.63,0.28 -1.01,0.28 -0.25,0 -0.48,-0.03 -0.69,-0.11 -0.2,-0.07 -0.37,-0.17 -0.52,-0.31 -0.14,-0.13 -0.25,-0.29 -0.33,-0.47 -0.08,-0.19 -0.12,-0.39 -0.12,-0.62 0,-0.48 0.15,-0.86 0.45,-1.14 0.3,-0.29 0.74,-0.47 1.34,-0.56l1.61 -0.23c0,-1.02 -0.4,-1.52 -1.18,-1.52 -0.62,0 -1.19,0.22 -1.72,0.67l0 -0.72c0.11,-0.08 0.24,-0.15 0.38,-0.22 0.14,-0.06 0.28,-0.11 0.44,-0.16 0.15,-0.05 0.31,-0.08 0.47,-0.11 0.17,-0.03 0.33,-0.04 0.48,-0.04 0.59,0 1.04,0.17 1.34,0.5 0.3,0.33 0.45,0.82 0.45,1.48l0 3.44 -0.66 0zm-1.36 -2.57c-0.24,0.03 -0.44,0.08 -0.61,0.13 -0.17,0.05 -0.31,0.12 -0.42,0.21 -0.11,0.09 -0.19,0.19 -0.25,0.32 -0.05,0.13 -0.07,0.29 -0.07,0.48 0,0.14 0.02,0.27 0.07,0.39 0.05,0.12 0.12,0.23 0.22,0.32 0.09,0.08 0.21,0.15 0.35,0.2 0.13,0.05 0.28,0.07 0.46,0.07 0.23,0 0.45,-0.04 0.64,-0.13 0.2,-0.09 0.37,-0.21 0.51,-0.37 0.15,-0.16 0.26,-0.35 0.34,-0.57 0.08,-0.22 0.12,-0.46 0.12,-0.72l0 -0.52 -1.36 0.19z"/>
   <path id="8" class="fil1" d="M83.16 16.46l0 -3.11c0,-0.6 -0.11,-1.03 -0.33,-1.31 -0.21,-0.29 -0.54,-0.42 -0.99,-0.42 -0.22,0 -0.42,0.04 -0.61,0.12 -0.2,0.09 -0.36,0.21 -0.51,0.38 -0.14,0.16 -0.26,0.36 -0.34,0.59 -0.09,0.23 -0.14,0.49 -0.14,0.79l0 2.96 -0.66 0 0 -7.84 0.66 0 0 3.46 0.03 0c0.41,-0.69 1,-1.04 1.77,-1.04 0.59,0 1.04,0.18 1.33,0.54 0.3,0.37 0.45,0.9 0.45,1.61l0 3.27 -0.66 0z"/>
   <path id="9" class="fil1" d="M85.73 9.83c-0.12,0 -0.23,-0.05 -0.33,-0.14 -0.09,-0.09 -0.14,-0.2 -0.14,-0.34 0,-0.13 0.05,-0.24 0.14,-0.33 0.1,-0.09 0.21,-0.13 0.33,-0.13 0.07,0 0.13,0.01 0.19,0.03 0.06,0.02 0.11,0.05 0.15,0.1 0.05,0.04 0.08,0.09 0.11,0.14 0.02,0.06 0.03,0.12 0.03,0.19 0,0.07 -0.01,0.13 -0.03,0.19 -0.03,0.06 -0.06,0.11 -0.11,0.15 -0.04,0.04 -0.09,0.08 -0.15,0.1 -0.05,0.02 -0.12,0.04 -0.19,0.04zm-0.32 6.63l0 -5.29 0.66 0 0 5.29 -0.66 0z"/>
   <path id="10" class="fil1" d="M90.4 11.84c-0.15,-0.11 -0.35,-0.17 -0.6,-0.17 -0.17,0 -0.33,0.04 -0.46,0.1 -0.14,0.07 -0.26,0.16 -0.36,0.27 -0.1,0.12 -0.19,0.25 -0.26,0.4 -0.07,0.15 -0.12,0.3 -0.17,0.47 -0.04,0.16 -0.07,0.32 -0.09,0.49 -0.02,0.16 -0.03,0.32 -0.03,0.47l0 2.59 -0.66 0 0 -5.29 0.66 0 0 1.13 0.02 0c0.06,-0.2 0.14,-0.37 0.24,-0.52 0.09,-0.16 0.2,-0.28 0.33,-0.39 0.12,-0.1 0.25,-0.19 0.4,-0.24 0.15,-0.06 0.3,-0.08 0.46,-0.08 0.11,0 0.21,0 0.29,0.02 0.08,0.01 0.16,0.03 0.23,0.06l0 0.69z"/>
  </g>
  <path class="fil2" d="M16.18 7.61l-7.17 4.64 0.48 0.74 1.31 -0.87 0 6.86 -0.97 0 0 0.89 13.37 0 0 -0.89 -1.16 0 0 -6.86 1.31 0.87 0.48 -0.74 -7.15 -4.64c-0.15,-0.1 -0.34,-0.1 -0.5,0zm1.43 5.86c0,-0.64 -0.52,-1.16 -1.16,-1.16 -0.64,0 -1.16,0.52 -1.16,1.16 0,0.64 0.52,1.16 1.16,1.16 0.64,0 1.16,-0.52 1.16,-1.16zm1.66 0.05c0,1.55 -2.82,4.48 -2.82,4.48 0,0 -2.82,-2.93 -2.82,-4.48 0,-1.56 1.26,-2.82 2.82,-2.82 1.55,0 2.82,1.26 2.82,2.82z"/>
 </g>
</svg>
