<?xml version="1.0" encoding="UTF-8"?>
<!DOCTYPE svg PUBLIC "-//W3C//DTD SVG 1.1//EN" "http://www.w3.org/Graphics/SVG/1.1/DTD/svg11.dtd">
<!-- Creator: CorelDRAW 2018 (64-Bit) -->
<svg xmlns="http://www.w3.org/2000/svg" xml:space="preserve" width="542px" height="63px" version="1.1" style="shape-rendering:geometricPrecision; text-rendering:geometricPrecision; image-rendering:optimizeQuality; fill-rule:evenodd; clip-rule:evenodd"
viewBox="0 0 229.25 26.47"
 xmlns:xlink="http://www.w3.org/1999/xlink">
 <defs>
  <style type="text/css">
   <![CDATA[
    .str0 {stroke:#088378;stroke-miterlimit:22.9256}
    .fil0 {fill:none}
    .fil2 {fill:#088378}
    .fil1 {fill:#B6B6B7;fill-rule:nonzero}
   ]]>
  </style>
 </defs>
 <g id="Layer_x0020_1">
  <metadata id="CorelCorpID_0Corel-Layer"/>
  <g id="_2298708759168">
   <rect class="fil0 str0" x="0.5" y="0.5" width="228.25" height="25.47" rx="14.17" ry="5.34"/>
   <path class="fil1" d="M37.88 15.96l-0.67 0 -2.7 -7.41 0.77 0 2.1 5.92c0.03,0.11 0.07,0.22 0.1,0.33 0.03,0.11 0.05,0.23 0.07,0.35l0.02 0c0.02,-0.1 0.04,-0.2 0.07,-0.32 0.03,-0.11 0.07,-0.24 0.12,-0.37l2.19 -5.91 0.74 0 -2.81 7.41z"/>
   <path id="1" class="fil1" d="M42.01 13.43c0,0.32 0.05,0.62 0.13,0.87 0.08,0.26 0.2,0.48 0.36,0.66 0.15,0.18 0.34,0.32 0.56,0.41 0.22,0.1 0.47,0.14 0.75,0.14 0.6,0 1.16,-0.21 1.69,-0.62l0 0.65c-0.5,0.36 -1.12,0.54 -1.84,0.54 -0.35,0 -0.67,-0.06 -0.96,-0.18 -0.29,-0.13 -0.54,-0.31 -0.74,-0.54 -0.21,-0.24 -0.36,-0.53 -0.47,-0.88 -0.11,-0.34 -0.17,-0.73 -0.17,-1.17 0,-0.4 0.06,-0.77 0.18,-1.1 0.12,-0.34 0.29,-0.63 0.5,-0.88 0.22,-0.25 0.47,-0.44 0.76,-0.58 0.3,-0.14 0.62,-0.21 0.96,-0.21 0.35,0 0.65,0.06 0.91,0.18 0.26,0.12 0.48,0.29 0.66,0.51 0.18,0.22 0.31,0.49 0.4,0.8 0.1,0.32 0.14,0.68 0.14,1.07l0 0.33 -3.82 0zm3.14 -0.58c-0.01,-0.55 -0.14,-0.98 -0.39,-1.28 -0.25,-0.3 -0.6,-0.45 -1.05,-0.45 -0.23,0 -0.43,0.03 -0.62,0.11 -0.19,0.08 -0.36,0.2 -0.51,0.35 -0.14,0.15 -0.26,0.33 -0.36,0.55 -0.09,0.21 -0.16,0.45 -0.2,0.72l3.13 0z"/>
   <path id="2" class="fil1" d="M49.76 11.34c-0.16,-0.11 -0.36,-0.17 -0.6,-0.17 -0.18,0 -0.34,0.04 -0.47,0.1 -0.13,0.07 -0.25,0.16 -0.35,0.27 -0.1,0.12 -0.19,0.25 -0.26,0.4 -0.07,0.15 -0.13,0.3 -0.17,0.47 -0.05,0.16 -0.08,0.32 -0.09,0.49 -0.02,0.16 -0.03,0.32 -0.03,0.47l0 2.59 -0.66 0 0 -5.29 0.66 0 0 1.13 0.02 0c0.06,-0.2 0.14,-0.37 0.23,-0.52 0.1,-0.16 0.21,-0.28 0.33,-0.39 0.12,-0.1 0.26,-0.19 0.41,-0.24 0.14,-0.06 0.3,-0.08 0.46,-0.08 0.1,0 0.2,0 0.28,0.02 0.09,0.01 0.17,0.03 0.24,0.06l0 0.69z"/>
   <path id="3" class="fil1" d="M51.04 9.33c-0.13,0 -0.24,-0.05 -0.33,-0.14 -0.09,-0.09 -0.14,-0.2 -0.14,-0.34 0,-0.13 0.05,-0.24 0.14,-0.33 0.09,-0.09 0.2,-0.13 0.33,-0.13 0.07,0 0.13,0.01 0.19,0.03 0.06,0.02 0.11,0.05 0.15,0.1 0.04,0.04 0.08,0.09 0.1,0.14 0.03,0.06 0.04,0.12 0.04,0.19 0,0.07 -0.01,0.13 -0.03,0.19 -0.03,0.06 -0.06,0.11 -0.11,0.15 -0.04,0.04 -0.09,0.08 -0.15,0.1 -0.06,0.02 -0.12,0.04 -0.19,0.04zm-0.32 6.63l0 -5.29 0.66 0 0 5.29 -0.66 0z"/>
   <path id="4" class="fil1" d="M55.55 8.75c-0.15,-0.1 -0.34,-0.15 -0.58,-0.15 -0.62,0 -0.93,0.41 -0.93,1.22l0 0.85 1.32 0 0 0.57 -1.32 0 0 4.72 -0.66 0 0 -4.72 -0.92 0 0 -0.57 0.92 0 0 -0.89c0,-0.27 0.04,-0.51 0.1,-0.72 0.07,-0.22 0.17,-0.4 0.3,-0.56 0.13,-0.15 0.3,-0.27 0.49,-0.35 0.2,-0.08 0.43,-0.13 0.69,-0.13 0.25,0 0.44,0.04 0.59,0.1l0 0.63z"/>
   <path id="5" class="fil1" d="M56.53 9.33c-0.13,0 -0.24,-0.05 -0.34,-0.14 -0.09,-0.09 -0.14,-0.2 -0.14,-0.34 0,-0.13 0.05,-0.24 0.14,-0.33 0.1,-0.09 0.21,-0.13 0.34,-0.13 0.06,0 0.12,0.01 0.18,0.03 0.06,0.02 0.11,0.05 0.15,0.1 0.05,0.04 0.08,0.09 0.11,0.14 0.02,0.06 0.04,0.12 0.04,0.19 0,0.07 -0.02,0.13 -0.04,0.19 -0.02,0.06 -0.06,0.11 -0.1,0.15 -0.05,0.04 -0.1,0.08 -0.16,0.1 -0.05,0.02 -0.12,0.04 -0.18,0.04zm-0.33 6.63l0 -5.29 0.66 0 0 5.29 -0.66 0z"/>
   <polygon id="6" class="fil1" points="61.68,15.96 59.25,13.38 59.23,13.38 59.23,15.96 58.57,15.96 58.57,8.12 59.23,8.12 59.23,13.13 59.25,13.13 61.56,10.67 62.42,10.67 59.94,13.22 62.62,15.96 "/>
   <path id="7" class="fil1" d="M66.59 15.96l0 -0.94 -0.02 0c-0.17,0.33 -0.41,0.6 -0.7,0.78 -0.3,0.19 -0.64,0.28 -1.01,0.28 -0.26,0 -0.49,-0.03 -0.7,-0.11 -0.2,-0.07 -0.37,-0.17 -0.52,-0.31 -0.14,-0.13 -0.25,-0.29 -0.33,-0.47 -0.07,-0.19 -0.11,-0.39 -0.11,-0.62 0,-0.48 0.14,-0.86 0.44,-1.14 0.3,-0.29 0.75,-0.47 1.35,-0.56l1.6 -0.23c0,-1.02 -0.39,-1.52 -1.18,-1.52 -0.62,0 -1.19,0.22 -1.72,0.67l0 -0.72c0.11,-0.08 0.24,-0.15 0.38,-0.22 0.14,-0.06 0.28,-0.11 0.44,-0.16 0.15,-0.05 0.31,-0.08 0.48,-0.11 0.16,-0.03 0.32,-0.04 0.47,-0.04 0.59,0 1.04,0.17 1.34,0.5 0.3,0.33 0.45,0.82 0.45,1.48l0 3.44 -0.66 0zm-1.36 -2.57c-0.24,0.03 -0.44,0.08 -0.61,0.13 -0.17,0.05 -0.31,0.12 -0.42,0.21 -0.11,0.09 -0.19,0.19 -0.24,0.32 -0.05,0.13 -0.08,0.29 -0.08,0.48 0,0.14 0.02,0.27 0.07,0.39 0.05,0.12 0.13,0.23 0.22,0.32 0.1,0.08 0.21,0.15 0.35,0.2 0.13,0.05 0.29,0.07 0.46,0.07 0.23,0 0.45,-0.04 0.65,-0.13 0.19,-0.09 0.36,-0.21 0.51,-0.37 0.14,-0.16 0.25,-0.35 0.33,-0.57 0.08,-0.22 0.12,-0.46 0.12,-0.72l0 -0.52 -1.36 0.19z"/>
   <path id="8" class="fil1" d="M68.55 15.01c0.1,0.08 0.2,0.15 0.32,0.21 0.12,0.06 0.24,0.11 0.36,0.16 0.13,0.04 0.25,0.08 0.38,0.1 0.12,0.02 0.24,0.03 0.36,0.03 0.78,0 1.17,-0.29 1.17,-0.88 0,-0.14 -0.02,-0.25 -0.08,-0.35 -0.05,-0.1 -0.13,-0.19 -0.23,-0.27 -0.11,-0.08 -0.23,-0.15 -0.38,-0.22 -0.14,-0.07 -0.31,-0.15 -0.49,-0.22 -0.24,-0.1 -0.45,-0.2 -0.63,-0.3 -0.17,-0.11 -0.32,-0.22 -0.43,-0.34 -0.12,-0.13 -0.2,-0.26 -0.26,-0.41 -0.05,-0.14 -0.08,-0.31 -0.08,-0.49 0,-0.24 0.05,-0.45 0.15,-0.63 0.1,-0.18 0.24,-0.34 0.42,-0.47 0.17,-0.12 0.37,-0.22 0.59,-0.29 0.23,-0.06 0.46,-0.1 0.71,-0.1 0.46,0 0.86,0.09 1.2,0.26l0 0.7c-0.4,-0.26 -0.82,-0.38 -1.28,-0.38 -0.17,0 -0.32,0.02 -0.45,0.06 -0.14,0.04 -0.25,0.1 -0.35,0.17 -0.1,0.08 -0.17,0.17 -0.23,0.27 -0.05,0.11 -0.08,0.23 -0.08,0.35 0,0.13 0.02,0.25 0.07,0.35 0.04,0.1 0.1,0.18 0.19,0.26 0.09,0.08 0.2,0.16 0.34,0.23 0.14,0.07 0.31,0.15 0.51,0.23 0.26,0.11 0.48,0.21 0.66,0.31 0.19,0.1 0.34,0.21 0.46,0.33 0.12,0.12 0.21,0.25 0.27,0.4 0.06,0.15 0.09,0.31 0.09,0.51 0,0.23 -0.05,0.45 -0.15,0.63 -0.1,0.19 -0.23,0.35 -0.41,0.47 -0.17,0.13 -0.38,0.23 -0.61,0.29 -0.23,0.07 -0.49,0.1 -0.77,0.1 -0.53,0 -0.98,-0.11 -1.34,-0.33l0 -0.74z"/>
   <path id="9" class="fil1" d="M73.47 9.33c-0.13,0 -0.24,-0.05 -0.33,-0.14 -0.09,-0.09 -0.14,-0.2 -0.14,-0.34 0,-0.13 0.05,-0.24 0.14,-0.33 0.09,-0.09 0.2,-0.13 0.33,-0.13 0.07,0 0.13,0.01 0.19,0.03 0.06,0.02 0.11,0.05 0.15,0.1 0.04,0.04 0.08,0.09 0.1,0.14 0.03,0.06 0.04,0.12 0.04,0.19 0,0.07 -0.01,0.13 -0.03,0.19 -0.03,0.06 -0.06,0.11 -0.11,0.15 -0.04,0.04 -0.09,0.08 -0.15,0.1 -0.06,0.02 -0.12,0.04 -0.19,0.04zm-0.32 6.63l0 -5.29 0.66 0 0 5.29 -0.66 0z"/>
   <path id="10" class="fil1" d="M79.07 15.11l0 3.28 -0.66 0 0 -7.72 0.66 0 0 1.01 0.03 0c0.19,-0.37 0.45,-0.65 0.78,-0.85 0.33,-0.19 0.7,-0.29 1.12,-0.29 0.34,0 0.64,0.06 0.9,0.19 0.27,0.12 0.5,0.29 0.68,0.51 0.19,0.23 0.33,0.5 0.42,0.82 0.1,0.32 0.15,0.68 0.15,1.08 0,0.44 -0.05,0.84 -0.16,1.2 -0.11,0.36 -0.27,0.67 -0.48,0.92 -0.2,0.26 -0.46,0.46 -0.75,0.61 -0.3,0.14 -0.63,0.21 -1,0.21 -0.74,0 -1.3,-0.32 -1.66,-0.97l-0.03 0zm0 -1.35c0,0.24 0.04,0.46 0.13,0.67 0.08,0.22 0.19,0.4 0.33,0.56 0.15,0.16 0.32,0.29 0.53,0.38 0.2,0.1 0.43,0.14 0.68,0.14 0.26,0 0.5,-0.05 0.72,-0.16 0.21,-0.12 0.39,-0.28 0.54,-0.48 0.15,-0.21 0.27,-0.46 0.35,-0.75 0.08,-0.3 0.12,-0.62 0.12,-0.99 0,-0.3 -0.04,-0.58 -0.11,-0.83 -0.08,-0.25 -0.19,-0.47 -0.33,-0.64 -0.14,-0.18 -0.3,-0.31 -0.5,-0.41 -0.2,-0.09 -0.42,-0.13 -0.67,-0.13 -0.27,0 -0.52,0.05 -0.74,0.15 -0.22,0.1 -0.41,0.24 -0.56,0.41 -0.16,0.18 -0.28,0.38 -0.36,0.62 -0.08,0.24 -0.13,0.49 -0.13,0.75l0 0.71z"/>
   <path id="11" class="fil1" d="M87.53 15.96l0 -0.94 -0.02 0c-0.17,0.33 -0.4,0.6 -0.7,0.78 -0.3,0.19 -0.64,0.28 -1.01,0.28 -0.26,0 -0.49,-0.03 -0.69,-0.11 -0.21,-0.07 -0.38,-0.17 -0.52,-0.31 -0.15,-0.13 -0.26,-0.29 -0.34,-0.47 -0.07,-0.19 -0.11,-0.39 -0.11,-0.62 0,-0.48 0.15,-0.86 0.44,-1.14 0.3,-0.29 0.75,-0.47 1.35,-0.56l1.6 -0.23c0,-1.02 -0.39,-1.52 -1.18,-1.52 -0.62,0 -1.19,0.22 -1.72,0.67l0 -0.72c0.12,-0.08 0.24,-0.15 0.38,-0.22 0.14,-0.06 0.29,-0.11 0.44,-0.16 0.16,-0.05 0.31,-0.08 0.48,-0.11 0.16,-0.03 0.32,-0.04 0.48,-0.04 0.59,0 1.03,0.17 1.33,0.5 0.3,0.33 0.46,0.82 0.46,1.48l0 3.44 -0.67 0zm-1.36 -2.57c-0.24,0.03 -0.44,0.08 -0.61,0.13 -0.17,0.05 -0.31,0.12 -0.42,0.21 -0.11,0.09 -0.19,0.19 -0.24,0.32 -0.05,0.13 -0.08,0.29 -0.08,0.48 0,0.14 0.03,0.27 0.08,0.39 0.05,0.12 0.12,0.23 0.21,0.32 0.1,0.08 0.21,0.15 0.35,0.2 0.14,0.05 0.29,0.07 0.46,0.07 0.24,0 0.45,-0.04 0.65,-0.13 0.19,-0.09 0.36,-0.21 0.51,-0.37 0.14,-0.16 0.25,-0.35 0.33,-0.57 0.08,-0.22 0.12,-0.46 0.12,-0.72l0 -0.52 -1.36 0.19z"/>
   <path id="12" class="fil1" d="M89.49 15.01c0.1,0.08 0.21,0.15 0.32,0.21 0.12,0.06 0.24,0.11 0.36,0.16 0.13,0.04 0.25,0.08 0.38,0.1 0.13,0.02 0.25,0.03 0.36,0.03 0.79,0 1.18,-0.29 1.18,-0.88 0,-0.14 -0.03,-0.25 -0.09,-0.35 -0.05,-0.1 -0.13,-0.19 -0.23,-0.27 -0.11,-0.08 -0.23,-0.15 -0.37,-0.22 -0.15,-0.07 -0.31,-0.15 -0.5,-0.22 -0.24,-0.1 -0.45,-0.2 -0.63,-0.3 -0.17,-0.11 -0.32,-0.22 -0.43,-0.34 -0.12,-0.13 -0.2,-0.26 -0.25,-0.41 -0.06,-0.14 -0.09,-0.31 -0.09,-0.49 0,-0.24 0.05,-0.45 0.16,-0.63 0.1,-0.18 0.23,-0.34 0.41,-0.47 0.17,-0.12 0.37,-0.22 0.59,-0.29 0.23,-0.06 0.47,-0.1 0.71,-0.1 0.46,0 0.86,0.09 1.2,0.26l0 0.7c-0.39,-0.26 -0.82,-0.38 -1.28,-0.38 -0.16,0 -0.31,0.02 -0.45,0.06 -0.14,0.04 -0.25,0.1 -0.35,0.17 -0.1,0.08 -0.17,0.17 -0.23,0.27 -0.05,0.11 -0.07,0.23 -0.07,0.35 0,0.13 0.02,0.25 0.06,0.35 0.04,0.1 0.1,0.18 0.19,0.26 0.09,0.08 0.2,0.16 0.34,0.23 0.14,0.07 0.31,0.15 0.51,0.23 0.26,0.11 0.48,0.21 0.66,0.31 0.19,0.1 0.34,0.21 0.46,0.33 0.12,0.12 0.21,0.25 0.27,0.4 0.06,0.15 0.09,0.31 0.09,0.51 0,0.23 -0.05,0.45 -0.15,0.63 -0.1,0.19 -0.23,0.35 -0.41,0.47 -0.17,0.13 -0.37,0.23 -0.61,0.29 -0.23,0.07 -0.49,0.1 -0.76,0.1 -0.54,0 -0.99,-0.11 -1.35,-0.33l0 -0.74z"/>
   <path id="13" class="fil1" d="M93.79 15.01c0.1,0.08 0.21,0.15 0.32,0.21 0.12,0.06 0.24,0.11 0.37,0.16 0.12,0.04 0.24,0.08 0.37,0.1 0.13,0.02 0.25,0.03 0.36,0.03 0.79,0 1.18,-0.29 1.18,-0.88 0,-0.14 -0.03,-0.25 -0.09,-0.35 -0.05,-0.1 -0.13,-0.19 -0.23,-0.27 -0.11,-0.08 -0.23,-0.15 -0.37,-0.22 -0.15,-0.07 -0.31,-0.15 -0.5,-0.22 -0.24,-0.1 -0.45,-0.2 -0.63,-0.3 -0.17,-0.11 -0.32,-0.22 -0.43,-0.34 -0.11,-0.13 -0.2,-0.26 -0.25,-0.41 -0.06,-0.14 -0.09,-0.31 -0.09,-0.49 0,-0.24 0.05,-0.45 0.16,-0.63 0.1,-0.18 0.23,-0.34 0.41,-0.47 0.17,-0.12 0.37,-0.22 0.59,-0.29 0.23,-0.06 0.47,-0.1 0.71,-0.1 0.46,0 0.86,0.09 1.2,0.26l0 0.7c-0.39,-0.26 -0.82,-0.38 -1.28,-0.38 -0.16,0 -0.31,0.02 -0.45,0.06 -0.14,0.04 -0.25,0.1 -0.35,0.17 -0.1,0.08 -0.17,0.17 -0.22,0.27 -0.06,0.11 -0.08,0.23 -0.08,0.35 0,0.13 0.02,0.25 0.06,0.35 0.04,0.1 0.1,0.18 0.19,0.26 0.09,0.08 0.2,0.16 0.34,0.23 0.14,0.07 0.31,0.15 0.51,0.23 0.26,0.11 0.48,0.21 0.66,0.31 0.19,0.1 0.34,0.21 0.46,0.33 0.12,0.12 0.21,0.25 0.27,0.4 0.06,0.15 0.09,0.31 0.09,0.51 0,0.23 -0.05,0.45 -0.15,0.63 -0.1,0.19 -0.23,0.35 -0.41,0.47 -0.17,0.13 -0.37,0.23 -0.61,0.29 -0.23,0.07 -0.49,0.1 -0.76,0.1 -0.54,0 -0.99,-0.11 -1.35,-0.33l0 -0.74z"/>
   <path id="14" class="fil1" d="M103.17 15.96l-0.66 0 -1.12 -3.89c-0.04,-0.12 -0.07,-0.28 -0.09,-0.47l-0.02 0c0,0.05 -0.02,0.12 -0.03,0.19 -0.02,0.08 -0.04,0.17 -0.08,0.27l-1.23 3.9 -0.65 0 -1.6 -5.29 0.71 0 1.16 4.1c0.04,0.12 0.06,0.27 0.07,0.46l0.05 0c0,-0.06 0.01,-0.13 0.03,-0.21 0.01,-0.08 0.04,-0.17 0.06,-0.26l1.28 -4.09 0.55 0 1.15 4.1c0.03,0.12 0.06,0.27 0.08,0.46l0.04 0c0,-0.05 0,-0.12 0.02,-0.2 0.02,-0.08 0.04,-0.16 0.07,-0.26l1.16 -4.1 0.67 0 -1.62 5.29z"/>
   <path id="15" class="fil1" d="M107.96 16.08c-0.39,0 -0.75,-0.06 -1.06,-0.2 -0.31,-0.13 -0.58,-0.31 -0.8,-0.55 -0.22,-0.24 -0.39,-0.53 -0.5,-0.86 -0.12,-0.33 -0.18,-0.71 -0.18,-1.11 0,-0.44 0.06,-0.84 0.19,-1.19 0.12,-0.34 0.3,-0.64 0.53,-0.88 0.23,-0.25 0.5,-0.43 0.83,-0.56 0.32,-0.12 0.68,-0.19 1.08,-0.19 0.38,0 0.73,0.06 1.04,0.19 0.3,0.13 0.56,0.31 0.78,0.55 0.21,0.23 0.37,0.52 0.49,0.86 0.11,0.34 0.17,0.73 0.17,1.17 0,0.41 -0.06,0.79 -0.18,1.12 -0.12,0.35 -0.29,0.64 -0.51,0.88 -0.22,0.25 -0.49,0.44 -0.81,0.57 -0.31,0.13 -0.67,0.2 -1.07,0.2zm0.05 -4.96c-0.29,0 -0.55,0.04 -0.78,0.15 -0.24,0.09 -0.44,0.24 -0.61,0.43 -0.16,0.19 -0.29,0.43 -0.38,0.7 -0.09,0.28 -0.14,0.6 -0.14,0.95 0,0.33 0.05,0.63 0.14,0.89 0.09,0.27 0.21,0.49 0.38,0.68 0.16,0.19 0.36,0.34 0.59,0.44 0.24,0.1 0.5,0.15 0.79,0.15 0.3,0 0.56,-0.05 0.79,-0.14 0.22,-0.1 0.42,-0.25 0.57,-0.43 0.16,-0.19 0.28,-0.42 0.36,-0.69 0.08,-0.28 0.12,-0.59 0.12,-0.93 0,-0.72 -0.15,-1.26 -0.47,-1.64 -0.32,-0.38 -0.77,-0.56 -1.36,-0.56z"/>
   <path id="16" class="fil1" d="M114.49 11.34c-0.16,-0.11 -0.36,-0.17 -0.6,-0.17 -0.18,0 -0.34,0.04 -0.47,0.1 -0.13,0.07 -0.25,0.16 -0.35,0.27 -0.11,0.12 -0.19,0.25 -0.26,0.4 -0.07,0.15 -0.13,0.3 -0.17,0.47 -0.05,0.16 -0.08,0.32 -0.1,0.49 -0.01,0.16 -0.03,0.32 -0.03,0.47l0 2.59 -0.65 0 0 -5.29 0.65 0 0 1.13 0.03 0c0.06,-0.2 0.14,-0.37 0.23,-0.52 0.1,-0.16 0.21,-0.28 0.33,-0.39 0.12,-0.1 0.26,-0.19 0.41,-0.24 0.14,-0.06 0.3,-0.08 0.46,-0.08 0.1,0 0.2,0 0.28,0.02 0.09,0.01 0.17,0.03 0.24,0.06l0 0.69z"/>
   <path id="17" class="fil1" d="M119.16 15.96l0 -0.93 -0.02 0c-0.18,0.33 -0.43,0.59 -0.76,0.78 -0.32,0.18 -0.69,0.27 -1.1,0.27 -0.34,0 -0.64,-0.06 -0.91,-0.18 -0.27,-0.12 -0.5,-0.3 -0.69,-0.53 -0.19,-0.23 -0.34,-0.51 -0.45,-0.84 -0.1,-0.33 -0.16,-0.7 -0.16,-1.11 0,-0.43 0.06,-0.82 0.18,-1.17 0.11,-0.35 0.28,-0.66 0.49,-0.91 0.21,-0.25 0.47,-0.45 0.76,-0.59 0.3,-0.14 0.63,-0.21 1,-0.21 0.76,0 1.31,0.31 1.64,0.92l0.02 0 0 -3.34 0.66 0 0 7.84 -0.66 0zm0 -3.2c0,-0.23 -0.04,-0.44 -0.12,-0.64 -0.08,-0.2 -0.19,-0.38 -0.33,-0.52 -0.14,-0.15 -0.31,-0.27 -0.51,-0.36 -0.2,-0.08 -0.42,-0.12 -0.66,-0.12 -0.26,0 -0.5,0.05 -0.72,0.15 -0.22,0.1 -0.41,0.25 -0.57,0.45 -0.15,0.19 -0.27,0.43 -0.36,0.71 -0.09,0.28 -0.13,0.59 -0.13,0.95 0,0.33 0.04,0.63 0.12,0.9 0.07,0.26 0.19,0.49 0.33,0.67 0.15,0.18 0.33,0.32 0.53,0.42 0.2,0.1 0.43,0.14 0.68,0.14 0.26,0 0.51,-0.04 0.72,-0.14 0.22,-0.1 0.4,-0.23 0.55,-0.4 0.15,-0.17 0.26,-0.37 0.34,-0.59 0.09,-0.23 0.13,-0.47 0.13,-0.73l0 -0.89z"/>
   <path class="fil2" d="M16.42 5.73c4.14,0 7.5,3.36 7.5,7.5 0,4.15 -3.36,7.5 -7.5,7.5 -4.14,0 -7.5,-3.35 -7.5,-7.5 0,-4.14 3.36,-7.5 7.5,-7.5zm4.06 6.25c-0.69,0 -1.25,0.56 -1.25,1.25 0,0.69 0.56,1.25 1.25,1.25 0.69,0 1.25,-0.56 1.25,-1.25 0,-0.69 -0.56,-1.25 -1.25,-1.25zm-8.12 0c-0.69,0 -1.25,0.56 -1.25,1.25 0,0.69 0.56,1.25 1.25,1.25 0.69,0 1.25,-0.56 1.25,-1.25 0,-0.69 -0.56,-1.25 -1.25,-1.25zm4.06 0c-0.69,0 -1.25,0.56 -1.25,1.25 0,0.69 0.56,1.25 1.25,1.25 0.69,0 1.25,-0.56 1.25,-1.25 0,-0.69 -0.56,-1.25 -1.25,-1.25z"/>
  </g>
 </g>
</svg>
