<?xml version="1.0" encoding="UTF-8"?>
<!DOCTYPE svg PUBLIC "-//W3C//DTD SVG 1.1//EN" "http://www.w3.org/Graphics/SVG/1.1/DTD/svg11.dtd">
<!-- Creator: CorelDRAW 2018 (64-Bit) -->
<svg xmlns="http://www.w3.org/2000/svg" xml:space="preserve" width="90px" height="90px" version="1.1" style="shape-rendering:geometricPrecision; text-rendering:geometricPrecision; image-rendering:optimizeQuality; fill-rule:evenodd; clip-rule:evenodd"
viewBox="0 0 5.39 5.39"
 xmlns:xlink="http://www.w3.org/1999/xlink">
 <defs>
  <style type="text/css">
   <![CDATA[
    .fil0 {fill:#088378}
   ]]>
  </style>
 </defs>
 <g id="Layer_x0020_1">
  <metadata id="CorelCorpID_0Corel-Layer"/>
  <path class="fil0" d="M3.58 2.45c0.01,0.03 0.02,0.06 0.03,0.09 0.1,0.3 0.22,0.64 0.22,0.94 0,0.4 -0.2,0.71 -0.91,0.71l-0.39 0c-0.71,0 -0.92,-0.31 -0.92,-0.71 0,-0.3 0.12,-0.64 0.23,-0.94 0.01,-0.03 0.02,-0.06 0.03,-0.09 -0.03,0 -0.06,-0.02 -0.08,-0.04l0 0c-0.03,-0.03 -0.05,-0.06 -0.05,-0.11 0,-0.04 0.02,-0.07 0.05,-0.1l0 0c0.02,-0.02 0.06,-0.04 0.09,-0.04l-0.12 -0.49 0.06 -0.01 0.05 -0.03c0.02,0.02 0.03,0.04 0.06,0.05l0 0c0.02,0.02 0.04,0.02 0.07,0.02 0.03,0 0.05,0 0.08,-0.02 0.02,-0.01 0.04,-0.03 0.05,-0.05l0 0c0.03,-0.04 0.06,-0.08 0.1,-0.1l0 0c0.04,-0.02 0.08,-0.04 0.13,-0.04 0.05,0 0.1,0.02 0.14,0.04 0.04,0.02 0.07,0.06 0.09,0.1l-0.05 0.03 0.05 -0.03c0.02,0.02 0.03,0.04 0.06,0.05l0 0c0.02,0.02 0.05,0.02 0.07,0.02 0.03,0 0.06,0 0.08,-0.02 0.02,-0.01 0.04,-0.03 0.05,-0.05l0 0c0.03,-0.04 0.06,-0.08 0.1,-0.1l0 0c0.04,-0.02 0.09,-0.04 0.13,-0.04 0.05,0 0.1,0.02 0.14,0.04 0.04,0.02 0.07,0.06 0.09,0.1l-0.05 0.03 0.05 -0.03c0.02,0.02 0.04,0.04 0.06,0.05l0 0c0.02,0.02 0.05,0.02 0.07,0.02 0.03,0 0.06,0 0.08,-0.02 0.02,-0.01 0.04,-0.03 0.05,-0.05l0.05 0.03 0.06 0.01 -0.12 0.49c0.04,0 0.07,0.02 0.1,0.04l0 0c0.02,0.03 0.04,0.06 0.04,0.1 0,0.05 -0.02,0.08 -0.04,0.11l0 0c-0.02,0.02 -0.05,0.04 -0.08,0.04l0 0zm-0.89 -2.45c0.75,0 1.42,0.3 1.91,0.79 0.49,0.49 0.79,1.16 0.79,1.9 0,0.75 -0.3,1.42 -0.79,1.91 -0.49,0.49 -1.16,0.79 -1.91,0.79 -0.74,0 -1.41,-0.3 -1.9,-0.79 -0.49,-0.49 -0.79,-1.16 -0.79,-1.91 0,-0.74 0.3,-1.41 0.79,-1.9 0.49,-0.49 1.16,-0.79 1.9,-0.79zm1.8 0.9c-0.46,-0.46 -1.09,-0.74 -1.8,-0.74 -0.7,0 -1.33,0.28 -1.79,0.74 -0.46,0.46 -0.74,1.09 -0.74,1.79 0,0.71 0.28,1.34 0.74,1.8 0.46,0.46 1.09,0.74 1.79,0.74 0.71,0 1.34,-0.28 1.8,-0.74 0.46,-0.46 0.74,-1.09 0.74,-1.8 0,-0.7 -0.28,-1.33 -0.74,-1.79zm-1.71 0.11l0 0.26 -0.12 0 0.01 -0.26 0.11 0 0 0zm0.34 0.14l-0.14 0.23 -0.1 -0.06 0.14 -0.23 0.1 0.06 0 0zm-0.69 -0.07l0.12 0.23 -0.1 0.05 -0.12 -0.23 0.1 -0.05 0 0zm-0.87 1.69l0.11 0.04c0.02,-0.06 0.03,-0.1 0.05,-0.15 0.02,-0.05 0.04,-0.1 0.05,-0.15l-0.11 -0.04c-0.01,0.05 -0.03,0.1 -0.05,0.15 -0.02,0.06 -0.04,0.11 -0.05,0.15l0 0zm0.08 1.34l0.07 -0.09c-0.16,-0.11 -0.21,-0.28 -0.21,-0.46 0,-0.2 0.06,-0.43 0.13,-0.64l-0.11 -0.04c-0.07,0.23 -0.13,0.46 -0.14,0.68 0,0.22 0.07,0.42 0.26,0.55l0 0zm0.36 -1.95l1.44 0 0.09 -0.35c-0.03,0.01 -0.06,0.01 -0.09,0.01 -0.04,0 -0.09,-0.01 -0.13,-0.04l0 0c-0.04,-0.02 -0.07,-0.05 -0.1,-0.09l0 0c-0.01,-0.03 -0.03,-0.05 -0.05,-0.06 -0.02,-0.01 -0.05,-0.02 -0.08,-0.02 -0.02,0 -0.05,0.01 -0.07,0.02l0 0c-0.02,0.01 -0.04,0.03 -0.06,0.06l-0.05 -0.03 0.05 0.03c-0.02,0.04 -0.05,0.07 -0.09,0.09 -0.04,0.03 -0.09,0.04 -0.14,0.04 -0.05,0 -0.09,-0.01 -0.13,-0.04l0 0c-0.04,-0.02 -0.07,-0.05 -0.1,-0.09l0 0c-0.01,-0.03 -0.03,-0.05 -0.05,-0.06 -0.03,-0.01 -0.05,-0.02 -0.08,-0.02 -0.03,0 -0.05,0.01 -0.07,0.02l0 0c-0.03,0.01 -0.04,0.03 -0.06,0.06l-0.05 -0.03 0.05 0.03c-0.02,0.04 -0.06,0.07 -0.1,0.09 -0.04,0.03 -0.08,0.04 -0.13,0.04 -0.03,0 -0.06,0 -0.08,-0.01l0.08 0.35 0 0zm-0.01 0.29c-0.01,0.04 -0.03,0.09 -0.04,0.13 -0.1,0.29 -0.22,0.62 -0.22,0.9 0,0.33 0.18,0.59 0.8,0.59l0.39 0c0.62,0 0.8,-0.26 0.8,-0.59 0,-0.28 -0.12,-0.61 -0.22,-0.9 -0.02,-0.04 -0.03,-0.08 -0.05,-0.13l-1.46 0 0 0zm1.02 0.99c0,0.07 0.02,0.12 0.04,0.15 0.03,0.03 0.06,0.05 0.1,0.05 0.03,0 0.06,-0.02 0.09,-0.05 0.02,-0.02 0.03,-0.07 0.03,-0.14 0,-0.06 -0.01,-0.1 -0.03,-0.13 -0.03,-0.03 -0.06,-0.05 -0.1,-0.05 -0.03,0 -0.06,0.02 -0.09,0.05 -0.02,0.02 -0.04,0.07 -0.04,0.12zm-0.79 -0.16l0.12 0c0.08,0 0.13,0 0.15,-0.01 0.02,0 0.03,-0.02 0.04,-0.03 0.01,-0.02 0.02,-0.04 0.02,-0.06 0,-0.03 -0.01,-0.05 -0.02,-0.07 -0.02,-0.01 -0.04,-0.03 -0.06,-0.03 -0.02,0 -0.06,0 -0.12,0l-0.13 0 0 0.2zm-0.16 0.46l0 -0.8 0.34 0c0.09,0 0.15,0.01 0.19,0.02 0.04,0.02 0.07,0.04 0.09,0.08 0.02,0.04 0.04,0.08 0.04,0.13 0,0.06 -0.02,0.11 -0.06,0.15 -0.03,0.04 -0.08,0.06 -0.16,0.07 0.04,0.02 0.07,0.04 0.09,0.07 0.02,0.02 0.05,0.07 0.09,0.13l0.1 0.15 -0.19 0 -0.12 -0.17c-0.04,-0.06 -0.07,-0.1 -0.08,-0.12 -0.02,-0.01 -0.04,-0.03 -0.05,-0.03 -0.02,-0.01 -0.05,-0.01 -0.09,-0.01l-0.03 0 0 0.33 -0.16 0zm0.8 -0.58l0.15 0 0 0.09c0.02,-0.03 0.04,-0.05 0.07,-0.07 0.03,-0.02 0.07,-0.03 0.11,-0.03 0.06,0 0.12,0.03 0.17,0.08 0.05,0.05 0.07,0.13 0.07,0.22 0,0.1 -0.02,0.17 -0.07,0.23 -0.05,0.05 -0.11,0.08 -0.17,0.08 -0.04,0 -0.06,-0.01 -0.09,-0.02 -0.03,-0.01 -0.05,-0.03 -0.08,-0.07l0 0.3 -0.16 0 0 -0.81zm-0.97 -0.82l1.66 0c0.01,0 0.02,-0.01 0.02,-0.01l0.01 0c0,-0.01 0,-0.02 0,-0.03 0,0 0,-0.01 0,-0.02l-0.01 0c0,0 -0.01,-0.01 -0.02,-0.01l-1.66 0c-0.01,0 -0.01,0.01 -0.02,0.01l0 0c-0.01,0.01 -0.01,0.02 -0.01,0.02 0,0.01 0,0.02 0.01,0.03l0 0c0.01,0 0.01,0.01 0.02,0.01l0 0z"/>
 </g>
</svg>
