<?xml version="1.0" encoding="UTF-8"?>
<!DOCTYPE svg PUBLIC "-//W3C//DTD SVG 1.1//EN" "http://www.w3.org/Graphics/SVG/1.1/DTD/svg11.dtd">
<!-- Creator: CorelDRAW 2018 (64-Bit) -->
<svg xmlns="http://www.w3.org/2000/svg" xml:space="preserve" width="539px" height="60px" version="1.1" style="shape-rendering:geometricPrecision; text-rendering:geometricPrecision; image-rendering:optimizeQuality; fill-rule:evenodd; clip-rule:evenodd"
viewBox="0 0 663.5 74.03"
 xmlns:xlink="http://www.w3.org/1999/xlink">
 <defs>
  <style type="text/css">
   <![CDATA[
    .fil0 {fill:#5F5D5D}
    .fil1 {fill:#FEFEFE;fill-rule:nonzero}
   ]]>
  </style>
 </defs>
 <g id="Layer_x0020_1">
  <metadata id="CorelCorpID_0Corel-Layer"/>
  <g id="_1691632921472">
   <rect class="fil0" width="663.5" height="74.03" rx="41.19" ry="15.51"/>
   <g>
    <polygon class="fil1" points="218.39,44.79 218.39,23.01 220.2,23.01 220.2,42.97 231.09,42.97 231.09,44.79 "/>
    <path id="1" class="fil1" d="M232.91 33.74c0,-0.86 0.17,-1.61 0.52,-2.26 0.35,-0.65 0.81,-1.18 1.37,-1.61 0.57,-0.43 1.21,-0.76 1.94,-0.99 0.73,-0.23 1.47,-0.34 2.23,-0.34 0.76,0 1.5,0.11 2.22,0.34 0.71,0.23 1.35,0.56 1.92,0.99 0.56,0.43 1.02,0.96 1.37,1.61 0.34,0.65 0.52,1.4 0.52,2.26l0 6.15c0,0.87 -0.18,1.62 -0.52,2.28 -0.35,0.66 -0.81,1.2 -1.37,1.63 -0.57,0.43 -1.21,0.76 -1.92,0.97 -0.72,0.22 -1.46,0.32 -2.22,0.32 -0.76,0 -1.5,-0.1 -2.23,-0.32 -0.73,-0.21 -1.37,-0.54 -1.94,-0.97 -0.56,-0.43 -1.02,-0.97 -1.37,-1.63 -0.35,-0.66 -0.52,-1.41 -0.52,-2.28l0 -6.15zm6.06 -3.54c-0.53,0 -1.06,0.07 -1.57,0.2 -0.51,0.14 -0.97,0.34 -1.38,0.62 -0.41,0.28 -0.75,0.63 -1,1.06 -0.26,0.43 -0.39,0.95 -0.39,1.57l0 6.31c0,0.61 0.13,1.13 0.39,1.57 0.25,0.43 0.59,0.79 1,1.07 0.41,0.29 0.87,0.5 1.38,0.63 0.51,0.14 1.04,0.2 1.57,0.2 0.51,0 1.02,-0.06 1.54,-0.2 0.51,-0.13 0.97,-0.34 1.38,-0.63 0.41,-0.28 0.75,-0.64 1,-1.07 0.26,-0.44 0.39,-0.96 0.39,-1.57l0 -6.31c0,-0.62 -0.13,-1.14 -0.39,-1.57 -0.25,-0.43 -0.59,-0.78 -1,-1.06 -0.41,-0.28 -0.87,-0.48 -1.38,-0.62 -0.52,-0.13 -1.03,-0.2 -1.54,-0.2z"/>
    <path id="2" class="fil1" d="M254.14 49.56c0.57,0 1.12,-0.08 1.66,-0.24 0.53,-0.15 0.99,-0.38 1.38,-0.69 0.39,-0.31 0.71,-0.69 0.94,-1.15 0.24,-0.46 0.35,-1 0.35,-1.62l0 -1.72c-0.67,0.35 -1.37,0.6 -2.09,0.74 -0.72,0.14 -1.44,0.21 -2.18,0.21 -0.76,0 -1.5,-0.1 -2.22,-0.32 -0.71,-0.21 -1.36,-0.54 -1.92,-0.97 -0.56,-0.43 -1.01,-0.97 -1.35,-1.61 -0.34,-0.65 -0.51,-1.39 -0.51,-2.23l0 -6.31c0,-0.84 0.17,-1.58 0.51,-2.21 0.34,-0.64 0.78,-1.17 1.32,-1.61 0.54,-0.43 1.17,-0.75 1.88,-0.96 0.7,-0.22 1.43,-0.33 2.17,-0.33 0.71,0 1.45,0.07 2.2,0.2 0.74,0.14 1.48,0.31 2.19,0.51l1.7 0.52 0 16.06c0,0.86 -0.17,1.62 -0.51,2.28 -0.34,0.66 -0.78,1.21 -1.34,1.66 -0.55,0.45 -1.19,0.79 -1.91,1.02 -0.71,0.22 -1.46,0.33 -2.24,0.33 -0.99,0 -1.94,-0.16 -2.86,-0.49 -0.93,-0.33 -1.72,-0.84 -2.37,-1.54l1.08 -1.01c0.47,0.49 1.08,0.86 1.82,1.11 0.75,0.24 1.52,0.37 2.3,0.37zm-0.06 -19.36c-0.54,0 -1.05,0.08 -1.54,0.22 -0.49,0.14 -0.94,0.35 -1.33,0.63 -0.39,0.28 -0.7,0.63 -0.93,1.05 -0.24,0.42 -0.36,0.91 -0.36,1.49l0 6.49c0,0.55 0.12,1.05 0.36,1.48 0.23,0.43 0.55,0.78 0.95,1.06 0.4,0.27 0.85,0.48 1.35,0.63 0.51,0.14 1.02,0.21 1.56,0.21 0.72,-0.02 1.45,-0.1 2.2,-0.24 0.74,-0.15 1.46,-0.36 2.13,-0.65l0 -11.44c-0.47,-0.21 -1.1,-0.41 -1.9,-0.62 -0.8,-0.2 -1.63,-0.31 -2.49,-0.31z"/>
    <path id="3" class="fil1" d="M263.77 24.94c0,-0.41 0.14,-0.76 0.43,-1.04 0.28,-0.29 0.63,-0.43 1.04,-0.43 0.41,0 0.76,0.14 1.05,0.43 0.29,0.28 0.43,0.63 0.43,1.04 0,0.41 -0.14,0.76 -0.43,1.05 -0.29,0.29 -0.64,0.43 -1.05,0.43 -0.41,0 -0.76,-0.14 -1.04,-0.43 -0.29,-0.29 -0.43,-0.64 -0.43,-1.05zm2.24 19.85l-1.84 0 0 -15.94 1.84 0 0 15.94z"/>
    <path id="4" class="fil1" d="M282.16 33.68l0 11.11 -1.72 0 0 -11.17c0,-0.58 -0.12,-1.08 -0.37,-1.51 -0.24,-0.43 -0.57,-0.79 -0.97,-1.08 -0.4,-0.28 -0.84,-0.49 -1.34,-0.63 -0.49,-0.13 -0.99,-0.2 -1.5,-0.2 -0.86,0 -1.69,0.11 -2.49,0.31 -0.8,0.21 -1.44,0.41 -1.91,0.62l0 13.66 -1.72 0 0 -14.99c0.98,-0.34 1.98,-0.64 3.01,-0.89 1.03,-0.25 2.06,-0.37 3.11,-0.37 0.74,0.02 1.46,0.14 2.17,0.36 0.7,0.21 1.33,0.53 1.89,0.95 0.55,0.42 1,0.95 1.34,1.59 0.34,0.63 0.5,1.38 0.5,2.24z"/>
    <path id="5" class="fil1" d="M292.5 39.93l0 -6.19c0,-0.84 0.18,-1.58 0.53,-2.23 0.34,-0.64 0.8,-1.19 1.36,-1.63 0.57,-0.44 1.21,-0.77 1.94,-0.98 0.73,-0.22 1.47,-0.33 2.23,-0.33 1.5,0 2.95,0.32 4.34,0.96l0 -6.59 1.72 0 0 21.08c-0.98,0.35 -1.99,0.61 -3.03,0.8 -1.03,0.18 -2.07,0.27 -3.12,0.27 -0.74,-0.02 -1.47,-0.13 -2.18,-0.35 -0.72,-0.22 -1.36,-0.54 -1.93,-0.97 -0.56,-0.43 -1.01,-0.96 -1.35,-1.6 -0.34,-0.63 -0.51,-1.38 -0.51,-2.24zm6.03 -9.63c-0.53,0 -1.06,0.07 -1.58,0.21 -0.53,0.14 -0.99,0.36 -1.39,0.63 -0.4,0.28 -0.71,0.63 -0.95,1.06 -0.24,0.43 -0.35,0.94 -0.35,1.51l0 6.28c0,0.57 0.11,1.07 0.35,1.49 0.24,0.42 0.55,0.77 0.95,1.06 0.4,0.29 0.85,0.5 1.36,0.65 0.5,0.14 1.02,0.21 1.55,0.21 0.74,0 1.48,-0.03 2.23,-0.11 0.75,-0.07 1.48,-0.23 2.2,-0.47l0 -11.63c-0.68,-0.29 -1.39,-0.51 -2.14,-0.66 -0.75,-0.16 -1.49,-0.23 -2.23,-0.23z"/>
    <path id="6" class="fil1" d="M310.01 39.99c0,0.59 0.12,1.1 0.37,1.54 0.24,0.43 0.57,0.79 0.97,1.07 0.4,0.29 0.85,0.5 1.37,0.63 0.51,0.14 1.04,0.2 1.6,0.2 0.86,0 1.67,-0.17 2.43,-0.52 0.75,-0.35 1.3,-0.88 1.63,-1.6l1.53 0.71c-0.24,0.51 -0.56,0.96 -0.95,1.35 -0.39,0.39 -0.83,0.71 -1.34,0.97 -0.5,0.26 -1.03,0.45 -1.6,0.57 -0.56,0.12 -1.13,0.18 -1.7,0.18 -0.76,0 -1.51,-0.1 -2.24,-0.32 -0.72,-0.21 -1.37,-0.54 -1.93,-0.97 -0.57,-0.43 -1.02,-0.97 -1.37,-1.61 -0.35,-0.65 -0.53,-1.4 -0.53,-2.26l0 -6.22c0,-0.86 0.18,-1.61 0.53,-2.26 0.35,-0.65 0.8,-1.18 1.37,-1.62 0.56,-0.43 1.21,-0.75 1.93,-0.96 0.73,-0.22 1.48,-0.33 2.24,-0.33 0.73,0 1.47,0.11 2.19,0.33 0.73,0.21 1.38,0.53 1.94,0.96 0.57,0.44 1.02,0.97 1.37,1.62 0.35,0.65 0.52,1.4 0.52,2.26l0 3.88 -10.33 0 0 2.4zm8.61 -6.4c0,-0.58 -0.12,-1.08 -0.37,-1.51 -0.24,-0.43 -0.57,-0.78 -0.97,-1.06 -0.4,-0.28 -0.86,-0.48 -1.38,-0.62 -0.52,-0.13 -1.05,-0.2 -1.58,-0.2 -0.56,0 -1.09,0.07 -1.6,0.2 -0.52,0.14 -0.98,0.34 -1.39,0.62 -0.41,0.28 -0.73,0.63 -0.97,1.06 -0.23,0.43 -0.35,0.93 -0.35,1.51l0 2.55 8.61 0 0 -2.55z"/>
    <path id="7" class="fil1" d="M335.79 33.68l0 11.11 -1.72 0 0 -11.17c0,-0.58 -0.13,-1.08 -0.37,-1.51 -0.25,-0.43 -0.57,-0.79 -0.97,-1.08 -0.4,-0.28 -0.85,-0.49 -1.34,-0.63 -0.49,-0.13 -0.99,-0.2 -1.51,-0.2 -0.86,0 -1.69,0.11 -2.49,0.31 -0.8,0.21 -1.44,0.41 -1.91,0.62l0 13.66 -1.72 0 0 -14.99c0.98,-0.34 1.99,-0.64 3.01,-0.89 1.03,-0.25 2.07,-0.37 3.11,-0.37 0.74,0.02 1.46,0.14 2.17,0.36 0.71,0.21 1.34,0.53 1.89,0.95 0.56,0.42 1,0.95 1.34,1.59 0.34,0.63 0.51,1.38 0.51,2.24z"/>
    <path id="8" class="fil1" d="M345.33 49.56c0.57,0 1.12,-0.08 1.66,-0.24 0.53,-0.15 0.99,-0.38 1.38,-0.69 0.39,-0.31 0.7,-0.69 0.94,-1.15 0.24,-0.46 0.35,-1 0.35,-1.62l0 -1.72c-0.67,0.35 -1.37,0.6 -2.09,0.74 -0.72,0.14 -1.44,0.21 -2.18,0.21 -0.76,0 -1.5,-0.1 -2.22,-0.32 -0.72,-0.21 -1.36,-0.54 -1.92,-0.97 -0.56,-0.43 -1.01,-0.97 -1.35,-1.61 -0.34,-0.65 -0.51,-1.39 -0.51,-2.23l0 -6.31c0,-0.84 0.17,-1.58 0.51,-2.21 0.34,-0.64 0.78,-1.17 1.32,-1.61 0.54,-0.43 1.17,-0.75 1.88,-0.96 0.7,-0.22 1.43,-0.33 2.17,-0.33 0.71,0 1.45,0.07 2.19,0.2 0.75,0.14 1.49,0.31 2.2,0.51l1.7 0.52 0 16.06c0,0.86 -0.17,1.62 -0.51,2.28 -0.34,0.66 -0.79,1.21 -1.34,1.66 -0.55,0.45 -1.19,0.79 -1.91,1.02 -0.72,0.22 -1.46,0.33 -2.24,0.33 -0.99,0 -1.94,-0.16 -2.86,-0.49 -0.93,-0.33 -1.72,-0.84 -2.37,-1.54l1.07 -1.01c0.48,0.49 1.09,0.86 1.83,1.11 0.75,0.24 1.52,0.37 2.3,0.37zm-0.06 -19.36c-0.54,0 -1.05,0.08 -1.54,0.22 -0.5,0.14 -0.94,0.35 -1.33,0.63 -0.39,0.28 -0.7,0.63 -0.94,1.05 -0.23,0.42 -0.35,0.91 -0.35,1.49l0 6.49c0,0.55 0.12,1.05 0.35,1.48 0.24,0.43 0.56,0.78 0.96,1.06 0.4,0.27 0.85,0.48 1.35,0.63 0.51,0.14 1.02,0.21 1.56,0.21 0.71,-0.02 1.45,-0.1 2.2,-0.24 0.74,-0.15 1.46,-0.36 2.13,-0.65l0 -11.44c-0.47,-0.21 -1.1,-0.41 -1.9,-0.62 -0.8,-0.2 -1.63,-0.31 -2.49,-0.31z"/>
    <path id="9" class="fil1" d="M364.86 33.62c0,-0.58 -0.12,-1.07 -0.37,-1.49 -0.24,-0.42 -0.58,-0.78 -1,-1.06 -0.42,-0.29 -0.89,-0.51 -1.41,-0.65 -0.52,-0.14 -1.06,-0.22 -1.62,-0.22 -0.8,0 -1.57,0.14 -2.3,0.4 -0.74,0.27 -1.32,0.67 -1.73,1.2l-1.17 -1.1c0.66,-0.72 1.47,-1.26 2.43,-1.62 0.97,-0.36 1.95,-0.54 2.96,-0.54 0.76,0 1.5,0.11 2.21,0.33 0.72,0.21 1.36,0.53 1.91,0.95 0.55,0.42 0.99,0.95 1.32,1.58 0.33,0.64 0.5,1.38 0.5,2.22l0 10.46c-1.97,0.68 -4.02,1.01 -6.16,1.01 -0.12,0 -0.24,0 -0.37,0 -0.78,0 -1.5,-0.1 -2.18,-0.3 -0.68,-0.21 -1.27,-0.52 -1.77,-0.93 -0.5,-0.41 -0.9,-0.91 -1.18,-1.52 -0.29,-0.6 -0.44,-1.33 -0.44,-2.17 0,-0.9 0.18,-1.67 0.54,-2.29 0.36,-0.63 0.83,-1.14 1.4,-1.54 0.58,-0.4 1.23,-0.69 1.96,-0.88 0.73,-0.18 1.47,-0.27 2.23,-0.27 0.74,0 1.47,0.07 2.2,0.21 0.73,0.15 1.41,0.35 2.04,0.62l0 -2.4zm-1.9 3.28c-0.74,-0.16 -1.5,-0.24 -2.28,-0.24 -0.6,0 -1.16,0.06 -1.69,0.17 -0.54,0.12 -1.01,0.31 -1.42,0.59 -0.41,0.28 -0.74,0.63 -0.98,1.07 -0.25,0.45 -0.37,1 -0.37,1.68 0,1.21 0.37,2.07 1.12,2.59 0.75,0.51 1.69,0.78 2.82,0.8 0.16,0 0.33,0 0.52,0 0.61,0 1.23,-0.02 1.85,-0.07 0.79,-0.08 1.57,-0.21 2.33,-0.4l0 -5.66c-0.53,-0.2 -1.17,-0.38 -1.9,-0.53z"/>
    <path id="10" class="fil1" d="M382.55 33.68l0 11.11 -1.72 0 0 -11.17c0,-0.58 -0.12,-1.08 -0.37,-1.51 -0.24,-0.43 -0.57,-0.79 -0.97,-1.08 -0.4,-0.28 -0.84,-0.49 -1.34,-0.63 -0.49,-0.13 -0.99,-0.2 -1.5,-0.2 -0.87,0 -1.7,0.11 -2.5,0.31 -0.8,0.21 -1.43,0.41 -1.9,0.62l0 13.66 -1.73 0 0 -14.99c0.99,-0.34 1.99,-0.64 3.02,-0.89 1.02,-0.25 2.06,-0.37 3.11,-0.37 0.73,0.02 1.46,0.14 2.17,0.36 0.7,0.21 1.33,0.53 1.89,0.95 0.55,0.42 1,0.95 1.33,1.59 0.34,0.63 0.51,1.38 0.51,2.24z"/>
    <polygon id="11" class="fil1" points="395.54,24.82 395.54,33.62 405.9,33.62 405.9,35.43 395.54,35.43 395.54,44.79 393.72,44.79 393.72,23.01 407.35,23.01 407.35,24.82 "/>
    <path id="12" class="fil1" d="M418.46 33.62c0,-0.58 -0.13,-1.07 -0.37,-1.49 -0.25,-0.42 -0.58,-0.78 -1,-1.06 -0.42,-0.29 -0.89,-0.51 -1.42,-0.65 -0.52,-0.14 -1.06,-0.22 -1.61,-0.22 -0.8,0 -1.57,0.14 -2.31,0.4 -0.74,0.27 -1.31,0.67 -1.72,1.2l-1.17 -1.1c0.65,-0.72 1.46,-1.26 2.43,-1.62 0.96,-0.36 1.95,-0.54 2.95,-0.54 0.76,0 1.5,0.11 2.22,0.33 0.71,0.21 1.35,0.53 1.9,0.95 0.56,0.42 1,0.95 1.33,1.58 0.32,0.64 0.49,1.38 0.49,2.22l0 10.46c-1.97,0.68 -4.02,1.01 -6.15,1.01 -0.13,0 -0.25,0 -0.37,0 -0.78,0 -1.51,-0.1 -2.19,-0.3 -0.67,-0.21 -1.26,-0.52 -1.77,-0.93 -0.5,-0.41 -0.89,-0.91 -1.18,-1.52 -0.29,-0.6 -0.43,-1.33 -0.43,-2.17 0,-0.9 0.18,-1.67 0.54,-2.29 0.35,-0.63 0.82,-1.14 1.4,-1.54 0.57,-0.4 1.22,-0.69 1.95,-0.88 0.73,-0.18 1.47,-0.27 2.23,-0.27 0.74,0 1.47,0.07 2.2,0.21 0.73,0.15 1.41,0.35 2.05,0.62l0 -2.4zm-1.91 3.28c-0.74,-0.16 -1.5,-0.24 -2.28,-0.24 -0.59,0 -1.16,0.06 -1.69,0.17 -0.53,0.12 -1.01,0.31 -1.42,0.59 -0.41,0.28 -0.73,0.63 -0.98,1.07 -0.25,0.45 -0.37,1 -0.37,1.68 0,1.21 0.38,2.07 1.12,2.59 0.75,0.51 1.69,0.78 2.82,0.8 0.16,0 0.34,0 0.52,0 0.62,0 1.23,-0.02 1.85,-0.07 0.8,-0.08 1.58,-0.21 2.34,-0.4l0 -5.66c-0.54,-0.2 -1.17,-0.38 -1.91,-0.53z"/>
    <path id="13" class="fil1" d="M429.72 30.2c-0.54,0 -1.07,0.07 -1.59,0.2 -0.52,0.14 -0.98,0.34 -1.38,0.62 -0.4,0.28 -0.73,0.62 -0.97,1.04 -0.25,0.43 -0.37,0.93 -0.37,1.53l0 6.46c0,0.59 0.12,1.1 0.37,1.52 0.24,0.42 0.57,0.77 0.97,1.05 0.4,0.27 0.86,0.48 1.38,0.61 0.52,0.14 1.05,0.2 1.59,0.2 0.92,0 1.79,-0.2 2.6,-0.6 0.8,-0.4 1.33,-1.02 1.58,-1.86l1.57 0.71c-0.21,0.57 -0.51,1.08 -0.91,1.51 -0.4,0.43 -0.86,0.78 -1.37,1.06 -0.51,0.27 -1.07,0.49 -1.66,0.63 -0.59,0.14 -1.2,0.21 -1.81,0.21 -0.74,0 -1.48,-0.1 -2.2,-0.32 -0.73,-0.21 -1.38,-0.54 -1.94,-0.97 -0.57,-0.43 -1.02,-0.97 -1.37,-1.61 -0.35,-0.65 -0.52,-1.4 -0.52,-2.26l0 -6.22c0,-0.86 0.17,-1.61 0.52,-2.26 0.35,-0.65 0.8,-1.18 1.37,-1.62 0.56,-0.43 1.21,-0.75 1.94,-0.96 0.72,-0.22 1.46,-0.33 2.2,-0.33 1.1,0 2.15,0.23 3.15,0.68 0.99,0.45 1.76,1.14 2.29,2.06l-1.44 0.86c-0.35,-0.65 -0.9,-1.14 -1.64,-1.46 -0.73,-0.32 -1.52,-0.48 -2.36,-0.48z"/>
    <path id="14" class="fil1" d="M439.62 39.99c0,0.59 0.13,1.1 0.37,1.54 0.25,0.43 0.57,0.79 0.97,1.07 0.4,0.29 0.86,0.5 1.37,0.63 0.51,0.14 1.05,0.2 1.6,0.2 0.86,0 1.67,-0.17 2.43,-0.52 0.76,-0.35 1.3,-0.88 1.63,-1.6l1.54 0.71c-0.25,0.51 -0.57,0.96 -0.95,1.35 -0.39,0.39 -0.84,0.71 -1.34,0.97 -0.51,0.26 -1.04,0.45 -1.6,0.57 -0.57,0.12 -1.14,0.18 -1.71,0.18 -0.76,0 -1.5,-0.1 -2.23,-0.32 -0.73,-0.21 -1.37,-0.54 -1.94,-0.97 -0.56,-0.43 -1.02,-0.97 -1.37,-1.61 -0.35,-0.65 -0.52,-1.4 -0.52,-2.26l0 -6.22c0,-0.86 0.17,-1.61 0.52,-2.26 0.35,-0.65 0.81,-1.18 1.37,-1.62 0.57,-0.43 1.21,-0.75 1.94,-0.96 0.73,-0.22 1.47,-0.33 2.23,-0.33 0.74,0 1.47,0.11 2.2,0.33 0.73,0.21 1.37,0.53 1.94,0.96 0.56,0.44 1.02,0.97 1.37,1.62 0.34,0.65 0.52,1.4 0.52,2.26l0 3.88 -10.34 0 0 2.4zm8.62 -6.4c0,-0.58 -0.13,-1.08 -0.37,-1.51 -0.25,-0.43 -0.57,-0.78 -0.97,-1.06 -0.4,-0.28 -0.86,-0.48 -1.39,-0.62 -0.52,-0.13 -1.05,-0.2 -1.58,-0.2 -0.55,0 -1.09,0.07 -1.6,0.2 -0.51,0.14 -0.97,0.34 -1.39,0.62 -0.41,0.28 -0.73,0.63 -0.96,1.06 -0.24,0.43 -0.36,0.93 -0.36,1.51l0 2.55 8.62 0 0 -2.55z"/>
    <path id="15" class="fil1" d="M459.44 28.54c0.75,0 1.5,0.11 2.23,0.33 0.72,0.21 1.37,0.54 1.93,0.98 0.57,0.44 1.02,0.98 1.37,1.63 0.35,0.65 0.53,1.39 0.53,2.23l0 6.22c0,0.9 -0.17,1.67 -0.51,2.3 -0.34,0.64 -0.79,1.17 -1.36,1.59 -0.56,0.42 -1.2,0.73 -1.92,0.94 -0.72,0.2 -1.44,0.31 -2.18,0.33 -1.05,0 -2.09,-0.09 -3.13,-0.27 -1.03,-0.19 -2.04,-0.45 -3.03,-0.8l0 -21.08 1.73 0 0 6.56c1.39,-0.64 2.84,-0.96 4.34,-0.96zm0.09 14.86c0.53,0 1.05,-0.07 1.55,-0.21 0.5,-0.15 0.96,-0.36 1.36,-0.65 0.39,-0.29 0.71,-0.64 0.95,-1.06 0.23,-0.42 0.35,-0.92 0.35,-1.49l0 -6.37c0,-0.58 -0.12,-1.08 -0.35,-1.51 -0.24,-0.43 -0.56,-0.78 -0.95,-1.06 -0.4,-0.28 -0.87,-0.49 -1.39,-0.63 -0.52,-0.14 -1.05,-0.22 -1.58,-0.22 -0.74,0 -1.49,0.08 -2.24,0.24 -0.74,0.15 -1.46,0.37 -2.13,0.66l0 11.72c0.71,0.24 1.45,0.4 2.2,0.47 0.75,0.08 1.49,0.11 2.23,0.11z"/>
    <path id="16" class="fil1" d="M468.7 33.74c0,-0.86 0.17,-1.61 0.52,-2.26 0.35,-0.65 0.8,-1.18 1.37,-1.61 0.56,-0.43 1.21,-0.76 1.94,-0.99 0.72,-0.23 1.47,-0.34 2.23,-0.34 0.76,0 1.49,0.11 2.21,0.34 0.72,0.23 1.36,0.56 1.93,0.99 0.56,0.43 1.02,0.96 1.36,1.61 0.35,0.65 0.53,1.4 0.53,2.26l0 6.15c0,0.87 -0.18,1.62 -0.53,2.28 -0.34,0.66 -0.8,1.2 -1.36,1.63 -0.57,0.43 -1.21,0.76 -1.93,0.97 -0.72,0.22 -1.45,0.32 -2.21,0.32 -0.76,0 -1.51,-0.1 -2.23,-0.32 -0.73,-0.21 -1.38,-0.54 -1.94,-0.97 -0.57,-0.43 -1.02,-0.97 -1.37,-1.63 -0.35,-0.66 -0.52,-1.41 -0.52,-2.28l0 -6.15zm6.06 -3.54c-0.54,0 -1.06,0.07 -1.57,0.2 -0.52,0.14 -0.98,0.34 -1.39,0.62 -0.41,0.28 -0.74,0.63 -1,1.06 -0.25,0.43 -0.38,0.95 -0.38,1.57l0 6.31c0,0.61 0.13,1.13 0.38,1.57 0.26,0.43 0.59,0.79 1,1.07 0.41,0.29 0.87,0.5 1.39,0.63 0.51,0.14 1.03,0.2 1.57,0.2 0.51,0 1.02,-0.06 1.54,-0.2 0.51,-0.13 0.97,-0.34 1.38,-0.63 0.41,-0.28 0.74,-0.64 1,-1.07 0.26,-0.44 0.38,-0.96 0.38,-1.57l0 -6.31c0,-0.62 -0.12,-1.14 -0.38,-1.57 -0.26,-0.43 -0.59,-0.78 -1,-1.06 -0.41,-0.28 -0.87,-0.48 -1.38,-0.62 -0.52,-0.13 -1.03,-0.2 -1.54,-0.2z"/>
    <path id="17" class="fil1" d="M483.99 33.74c0,-0.86 0.17,-1.61 0.52,-2.26 0.35,-0.65 0.8,-1.18 1.37,-1.61 0.56,-0.43 1.21,-0.76 1.94,-0.99 0.72,-0.23 1.47,-0.34 2.23,-0.34 0.76,0 1.49,0.11 2.21,0.34 0.72,0.23 1.36,0.56 1.93,0.99 0.56,0.43 1.02,0.96 1.36,1.61 0.35,0.65 0.53,1.4 0.53,2.26l0 6.15c0,0.87 -0.18,1.62 -0.53,2.28 -0.34,0.66 -0.8,1.2 -1.36,1.63 -0.57,0.43 -1.21,0.76 -1.93,0.97 -0.72,0.22 -1.45,0.32 -2.21,0.32 -0.76,0 -1.51,-0.1 -2.23,-0.32 -0.73,-0.21 -1.38,-0.54 -1.94,-0.97 -0.57,-0.43 -1.02,-0.97 -1.37,-1.63 -0.35,-0.66 -0.52,-1.41 -0.52,-2.28l0 -6.15zm6.06 -3.54c-0.54,0 -1.06,0.07 -1.57,0.2 -0.51,0.14 -0.98,0.34 -1.39,0.62 -0.41,0.28 -0.74,0.63 -1,1.06 -0.25,0.43 -0.38,0.95 -0.38,1.57l0 6.31c0,0.61 0.13,1.13 0.38,1.57 0.26,0.43 0.59,0.79 1,1.07 0.41,0.29 0.88,0.5 1.39,0.63 0.51,0.14 1.03,0.2 1.57,0.2 0.51,0 1.02,-0.06 1.54,-0.2 0.51,-0.13 0.97,-0.34 1.38,-0.63 0.41,-0.28 0.74,-0.64 1,-1.07 0.26,-0.44 0.38,-0.96 0.38,-1.57l0 -6.31c0,-0.62 -0.12,-1.14 -0.38,-1.57 -0.26,-0.43 -0.59,-0.78 -1,-1.06 -0.41,-0.28 -0.87,-0.48 -1.38,-0.62 -0.52,-0.13 -1.03,-0.2 -1.54,-0.2z"/>
    <polygon id="18" class="fil1" points="501.49,44.79 499.77,44.79 499.77,23.01 501.49,23.01 501.49,37.22 509.89,28.85 512.04,28.85 504.91,36.05 511.98,44.79 509.86,44.79 503.71,37.28 501.49,39.49 "/>
    <path class="fil1" d="M161.2 16.35c5.7,0 10.87,2.32 14.61,6.05 3.73,3.75 6.05,8.91 6.05,14.61 0,5.7 -2.31,10.87 -6.05,14.61 -3.75,3.74 -8.91,6.06 -14.61,6.06 -5.7,0 -10.87,-2.32 -14.61,-6.06 -3.74,-3.73 -6.06,-8.9 -6.06,-14.61 0,-5.7 2.32,-10.87 6.06,-14.61 3.73,-3.73 8.9,-6.05 14.61,-6.05zm12.72 7.94c-3.25,-3.26 -7.75,-5.27 -12.72,-5.27 -4.97,0 -9.47,2.01 -12.73,5.27 -3.25,3.25 -5.27,7.75 -5.27,12.72 0,4.97 2.02,9.47 5.27,12.73 3.25,3.26 7.75,5.27 12.73,5.27 4.97,0 9.47,-2.01 12.72,-5.27 3.26,-3.25 5.27,-7.75 5.27,-12.73 0,-4.97 -2.01,-9.47 -5.27,-12.72zm-10.81 7.66l0 -2.06c0,-1 0.66,-1.23 1.13,-1.23 0.47,0 2.88,0 2.88,0l0 -4.39 -3.96 -0.02c-4.41,0 -5.41,3.28 -5.41,5.38l0 2.32 -2.54 0 0 5.13 2.57 0c0,5.81 0,12.82 0,12.82l5.13 0c0,0 0,-7.08 0,-12.82l3.8 0 0.19 -2.02 0.28 -3.11 -4.07 0z"/>
   </g>
  </g>
 </g>
</svg>
