<?xml version="1.0" encoding="UTF-8"?>
<!DOCTYPE svg PUBLIC "-//W3C//DTD SVG 1.1//EN" "http://www.w3.org/Graphics/SVG/1.1/DTD/svg11.dtd">
<!-- Creator: CorelDRAW 2018 (64-Bit) -->
<svg xmlns="http://www.w3.org/2000/svg" xml:space="preserve" width="35px" height="35px" version="1.1" style="shape-rendering:geometricPrecision; text-rendering:geometricPrecision; image-rendering:optimizeQuality; fill-rule:evenodd; clip-rule:evenodd"
viewBox="0 0 1.2 1.2"
 xmlns:xlink="http://www.w3.org/1999/xlink">
 <defs>
  <style type="text/css">
   <![CDATA[
    .fil0 {fill:#EEEEEF}
   ]]>
  </style>
 </defs>
 <g id="Layer_x0020_1">
  <metadata id="CorelCorpID_0Corel-Layer"/>
  <path class="fil0" d="M0.26 0.97c0.09,0.08 0.21,0.13 0.34,0.13 0.07,0 0.12,-0.01 0.17,-0.03 0.07,-0.02 0.13,-0.06 0.18,-0.1l-0.11 -0.02c-0.02,0 -0.05,-0.01 -0.06,-0.03l-0.02 -0.02 -0.09 -0.04 0.05 -0.02c0.03,-0.01 0.04,-0.04 0.05,-0.06l0.02 -0.07c0.05,0 0.08,-0.03 0.08,-0.09 0,-0.05 -0.02,-0.08 -0.06,-0.08 0,-0.05 0.03,-0.1 0.03,-0.16 0,-0.13 -0.09,-0.18 -0.29,-0.18 -0.07,0 -0.1,0.03 -0.1,0.11 -0.05,0 -0.09,0.02 -0.09,0.07 0,0.06 0.03,0.11 0.03,0.16 -0.04,0 -0.06,0.03 -0.06,0.08 0,0.06 0.02,0.09 0.08,0.09l0.02 0.07c0.01,0.02 0.02,0.05 0.05,0.06l0.05 0.02 -0.09 0.04 -0.02 0.02c-0.01,0.02 -0.04,0.03 -0.06,0.03l-0.1 0.02zm0.34 0.23c-0.33,0 -0.6,-0.27 -0.6,-0.6 0,-0.33 0.27,-0.6 0.6,-0.6 0.33,0 0.6,0.27 0.6,0.6 0,0.33 -0.27,0.6 -0.6,0.6z"/>
 </g>
</svg>
