<?xml version="1.0" encoding="UTF-8"?>
<!DOCTYPE svg PUBLIC "-//W3C//DTD SVG 1.1//EN" "http://www.w3.org/Graphics/SVG/1.1/DTD/svg11.dtd">
<!-- Creator: CorelDRAW 2018 (64-Bit) -->
<svg xmlns="http://www.w3.org/2000/svg" xml:space="preserve" width="35px" height="35px" version="1.1" style="shape-rendering:geometricPrecision; text-rendering:geometricPrecision; image-rendering:optimizeQuality; fill-rule:evenodd; clip-rule:evenodd"
viewBox="0 0 1.54 1.54"
 xmlns:xlink="http://www.w3.org/1999/xlink">
 <defs>
  <style type="text/css">
   <![CDATA[
    .fil0 {fill:#088378}
   ]]>
  </style>
 </defs>
 <g id="Layer_x0020_1">
  <metadata id="CorelCorpID_0Corel-Layer"/>
  <path class="fil0" d="M1.42 0.14l-0.21 0 0 -0.09c0,-0.03 -0.02,-0.05 -0.05,-0.05 -0.03,0 -0.05,0.02 -0.05,0.05l0 0.09 -0.29 0 0 -0.09c0,-0.03 -0.02,-0.05 -0.05,-0.05 -0.02,0 -0.05,0.02 -0.05,0.05l0 0.09 -0.29 0 0 -0.09c0,-0.03 -0.02,-0.05 -0.04,-0.05 -0.03,0 -0.05,0.02 -0.05,0.05l0 0.09 -0.21 0c-0.07,0 -0.13,0.06 -0.13,0.13l0 1.15c0,0.07 0.06,0.12 0.13,0.12l1.29 0c0.07,0 0.12,-0.05 0.12,-0.12l0 -1.15c0,-0.07 -0.05,-0.13 -0.12,-0.13zm-0.41 0.58l0.2 0 0 -0.14 -0.2 0 0 0.14zm0 0.25l0.2 0 0 -0.15 -0.2 0 0 0.15zm0 0.24l0.2 0 0 -0.15 -0.2 0 0 0.15zm-0.33 -0.49l0.19 0 0 -0.14 -0.19 0 0 0.14zm0 0.25l0.19 0 0 -0.15 -0.19 0 0 0.15zm0 0.24l0.19 0 0 -0.15 -0.19 0 0 0.15zm-0.34 0l0.19 0 0 -0.15 -0.19 0 0 0.15zm0 -0.24l0.19 0 0 -0.15 -0.19 0 0 0.15zm0 -0.25l0.19 0 0 -0.14 -0.19 0 0 0.14zm1.11 0.7c0,0.01 -0.02,0.03 -0.03,0.03l-1.29 0c-0.02,0 -0.03,-0.02 -0.03,-0.03l0 -1.15c0,-0.01 0.01,-0.03 0.03,-0.03l0.21 0 0 0.1c0,0.02 0.02,0.05 0.05,0.05 0.02,0 0.04,-0.03 0.04,-0.05l0 -0.1 0.29 0 0 0.1c0,0.02 0.03,0.05 0.05,0.05 0.03,0 0.05,-0.03 0.05,-0.05l0 -0.1 0.29 0 0 0.1c0,0.02 0.02,0.05 0.05,0.05 0.03,0 0.05,-0.03 0.05,-0.05l0 -0.1 0.21 0c0.01,0 0.03,0.02 0.03,0.03l0 1.15z"/>
 </g>
</svg>
