<?xml version="1.0" encoding="UTF-8"?>
<!DOCTYPE svg PUBLIC "-//W3C//DTD SVG 1.1//EN" "http://www.w3.org/Graphics/SVG/1.1/DTD/svg11.dtd">
<!-- Creator: CorelDRAW 2018 (64-Bit) -->
<svg xmlns="http://www.w3.org/2000/svg" xml:space="preserve" width="35px" height="35px" version="1.1" style="shape-rendering:geometricPrecision; text-rendering:geometricPrecision; image-rendering:optimizeQuality; fill-rule:evenodd; clip-rule:evenodd"
viewBox="0 0 1.18 1.18"
 xmlns:xlink="http://www.w3.org/1999/xlink">
 <defs>
  <style type="text/css">
   <![CDATA[
    .fil0 {fill:#FEFEFE}
   ]]>
  </style>
 </defs>
 <g id="Layer_x0020_1">
  <metadata id="CorelCorpID_0Corel-Layer"/>
  <path class="fil0" d="M1.08 0.11l-0.16 0 0 -0.07c0,-0.02 -0.01,-0.04 -0.03,-0.04 -0.02,0 -0.04,0.02 -0.04,0.04l0 0.07 -0.22 0 0 -0.07c0,-0.02 -0.02,-0.04 -0.04,-0.04 -0.02,0 -0.04,0.02 -0.04,0.04l0 0.07 -0.22 0 0 -0.07c0,-0.02 -0.01,-0.04 -0.03,-0.04 -0.02,0 -0.04,0.02 -0.04,0.04l0 0.07 -0.16 0c-0.06,0 -0.1,0.05 -0.1,0.1l0 0.87c0,0.06 0.04,0.1 0.1,0.1l0.98 0c0.06,0 0.1,-0.04 0.1,-0.1l0 -0.87c0,-0.05 -0.04,-0.1 -0.1,-0.1zm-0.3 0.44l0.14 0 0 -0.11 -0.14 0 0 0.11zm0 0.19l0.14 0 0 -0.11 -0.14 0 0 0.11zm0 0.18l0.14 0 0 -0.11 -0.14 0 0 0.11zm-0.26 -0.37l0.15 0 0 -0.11 -0.15 0 0 0.11zm0 0.19l0.15 0 0 -0.11 -0.15 0 0 0.11zm0 0.18l0.15 0 0 -0.11 -0.15 0 0 0.11zm-0.26 0l0.15 0 0 -0.11 -0.15 0 0 0.11zm0 -0.18l0.15 0 0 -0.11 -0.15 0 0 0.11zm0 -0.19l0.15 0 0 -0.11 -0.15 0 0 0.11zm0.85 0.53c0,0.02 -0.01,0.03 -0.03,0.03l-0.98 0c-0.01,0 -0.03,-0.01 -0.03,-0.03l0 -0.87c0,-0.01 0.02,-0.03 0.03,-0.03l0.16 0 0 0.08c0,0.02 0.02,0.04 0.04,0.04 0.02,0 0.03,-0.02 0.03,-0.04l0 -0.08 0.22 0 0 0.08c0,0.02 0.02,0.04 0.04,0.04 0.02,0 0.04,-0.02 0.04,-0.04l0 -0.08 0.22 0 0 0.08c0,0.02 0.02,0.04 0.04,0.04 0.02,0 0.03,-0.02 0.03,-0.04l0 -0.08 0.16 0c0.02,0 0.03,0.02 0.03,0.03l0 0.87z"/>
 </g>
</svg>
