<?xml version="1.0" encoding="UTF-8"?>
<!DOCTYPE svg PUBLIC "-//W3C//DTD SVG 1.1//EN" "http://www.w3.org/Graphics/SVG/1.1/DTD/svg11.dtd">
<!-- Creator: CorelDRAW 2018 (64-Bit) -->
<svg xmlns="http://www.w3.org/2000/svg" xml:space="preserve" width="35px" height="35px" version="1.1" style="shape-rendering:geometricPrecision; text-rendering:geometricPrecision; image-rendering:optimizeQuality; fill-rule:evenodd; clip-rule:evenodd"
viewBox="0 0 0.9 0.9"
 xmlns:xlink="http://www.w3.org/1999/xlink">
 <defs>
  <style type="text/css">
   <![CDATA[
    .fil0 {fill:#757475}
   ]]>
  </style>
 </defs>
 <g id="Layer_x0020_1">
  <metadata id="CorelCorpID_0Corel-Layer"/>
  <path class="fil0" d="M0.73 0.49l-0.22 0c-0.02,0 -0.05,0.01 -0.06,0.03l-0.11 0.19c0.04,0.01 0.07,0.02 0.11,0.02 0.14,0 0.26,-0.11 0.28,-0.24zm0 -0.08c-0.02,-0.14 -0.14,-0.24 -0.28,-0.24 -0.04,0 -0.07,0.01 -0.11,0.02l0.11 0.18c0.01,0.03 0.04,0.04 0.06,0.04l0.22 0zm-0.45 -0.18c-0.07,0.05 -0.11,0.13 -0.11,0.22 0,0.09 0.04,0.17 0.11,0.22l0.1 -0.18c0.02,-0.03 0.02,-0.05 0,-0.08l-0.1 -0.18zm0.1 -0.13c0.01,0 0.02,-0.01 0.02,-0.02l0.01 -0.05c0,-0.02 0.02,-0.03 0.03,-0.03l0.02 0c0.01,0 0.02,0.01 0.03,0.03l0 0.05c0.01,0.01 0.02,0.02 0.03,0.02 0.01,0 0.02,0 0.03,-0.01l0.03 -0.05c0,-0.01 0.02,-0.01 0.03,-0.01l0.02 0.01c0.01,0 0.02,0.02 0.02,0.03l-0.02 0.05c0,0.01 0.01,0.03 0.02,0.03 0.01,0.01 0.02,0.01 0.03,0l0.04 -0.03c0.01,-0.01 0.03,0 0.04,0.01l0.01 0.01c0.01,0.01 0.01,0.02 0.01,0.04l-0.03 0.04c-0.01,0.01 -0.01,0.02 0,0.03 0,0.01 0.02,0.02 0.03,0.01l0.05 -0.01c0.01,0 0.03,0.01 0.03,0.02l0.01 0.01c0,0.02 0,0.03 -0.01,0.04l-0.05 0.03c-0.01,0 -0.01,0.02 -0.01,0.03 0,0.01 0.01,0.02 0.02,0.02l0.05 0.01c0.02,0 0.03,0.02 0.03,0.03l0 0.02c0,0.01 -0.01,0.02 -0.03,0.03l-0.05 0c-0.01,0.01 -0.02,0.02 -0.02,0.03 0,0.01 0,0.02 0.01,0.03l0.05 0.03c0.01,0.01 0.01,0.02 0.01,0.03l-0.01 0.02c0,0.01 -0.02,0.02 -0.03,0.02l-0.05 -0.02c-0.01,0 -0.03,0.01 -0.03,0.02 -0.01,0.01 -0.01,0.02 0,0.03l0.03 0.04c0,0.01 0,0.03 -0.01,0.04l-0.01 0.01c-0.01,0.01 -0.03,0.01 -0.04,0.01l-0.04 -0.03c-0.01,-0.01 -0.02,-0.01 -0.03,0 -0.01,0 -0.02,0.02 -0.02,0.03l0.02 0.05c0,0.01 -0.01,0.03 -0.02,0.03l-0.02 0.01c-0.01,0 -0.02,0 -0.03,-0.01l-0.03 -0.05c-0.01,-0.01 -0.02,-0.01 -0.03,-0.01 -0.01,0 -0.02,0.01 -0.03,0.02l0 0.05c-0.01,0.02 -0.02,0.03 -0.03,0.03l-0.02 0c-0.01,0 -0.03,-0.01 -0.03,-0.03l-0.01 -0.05c0,-0.01 -0.01,-0.02 -0.02,-0.02 -0.01,0 -0.03,0 -0.03,0.01l-0.03 0.05c-0.01,0.01 -0.02,0.01 -0.03,0.01l-0.02 -0.01c-0.01,0 -0.02,-0.02 -0.02,-0.03l0.01 -0.05c0.01,-0.01 0,-0.03 -0.01,-0.04 -0.01,0 -0.02,0 -0.03,0.01l-0.04 0.03c-0.02,0 -0.03,0 -0.04,-0.01l-0.01 -0.01c-0.01,-0.01 -0.02,-0.03 -0.01,-0.04l0.03 -0.04c0.01,-0.01 0.01,-0.02 0,-0.03 0,-0.01 -0.02,-0.02 -0.03,-0.02l-0.05 0.02c-0.01,0 -0.03,-0.01 -0.03,-0.02l-0.01 -0.02c0,-0.01 0,-0.02 0.01,-0.03l0.05 -0.03c0.01,-0.01 0.01,-0.02 0.01,-0.03 0,-0.01 -0.01,-0.02 -0.02,-0.03l-0.05 0c-0.02,-0.01 -0.03,-0.02 -0.03,-0.03l0 -0.02c0,-0.01 0.01,-0.03 0.03,-0.03l0.05 -0.01c0.01,0 0.02,-0.01 0.02,-0.02 0,-0.01 0,-0.03 -0.01,-0.03l-0.05 -0.03c-0.01,-0.01 -0.01,-0.02 -0.01,-0.03l0.01 -0.02c0,-0.01 0.02,-0.02 0.03,-0.02l0.05 0.01c0.01,0.01 0.03,0 0.03,-0.01 0.01,-0.01 0.01,-0.02 0,-0.03l-0.03 -0.04c-0.01,-0.02 0,-0.03 0.01,-0.04l0.01 -0.01c0.01,-0.01 0.02,-0.02 0.04,-0.01l0.04 0.03c0.01,0.01 0.02,0.01 0.03,0 0.01,0 0.02,-0.02 0.01,-0.03l-0.01 -0.05c0,-0.01 0.01,-0.03 0.02,-0.03l0.01 -0.01c0.02,0 0.03,0 0.04,0.01l0.03 0.05c0,0.01 0.02,0.01 0.03,0.01z"/>
 </g>
</svg>
