<?xml version="1.0" encoding="UTF-8"?>
<!DOCTYPE svg PUBLIC "-//W3C//DTD SVG 1.1//EN" "http://www.w3.org/Graphics/SVG/1.1/DTD/svg11.dtd">
<!-- Creator: CorelDRAW 2018 (64-Bit) -->
<svg xmlns="http://www.w3.org/2000/svg" xml:space="preserve" width="35px" height="34px" version="1.1" style="shape-rendering:geometricPrecision; text-rendering:geometricPrecision; image-rendering:optimizeQuality; fill-rule:evenodd; clip-rule:evenodd"
viewBox="0 0 1.04 1"
 xmlns:xlink="http://www.w3.org/1999/xlink">
 <defs>
  <style type="text/css">
   <![CDATA[
    .fil0 {fill:#757475}
   ]]>
  </style>
 </defs>
 <g id="Layer_x0020_1">
  <metadata id="CorelCorpID_0Corel-Layer"/>
  <path class="fil0" d="M0.17 0.97l0 0c-0.02,0 -0.03,-0.02 -0.03,-0.04 0,-0.02 0.01,-0.03 0.03,-0.03 0.02,0 0.03,0.01 0.03,0.03 0,0.02 -0.01,0.04 -0.03,0.04zm0.41 -0.54l0 0c0,-0.02 0.01,-0.03 0.03,-0.03 0.01,0 0.03,0.01 0.03,0.03 0,0.01 -0.02,0.03 -0.03,0.03 -0.02,0 -0.03,-0.02 -0.03,-0.03zm0.08 -0.01c0,-0.01 0,-0.02 -0.01,-0.03l0.04 -0.25c0.01,-0.01 0,-0.02 -0.01,-0.02l0 0c-0.01,-0.01 -0.02,0 -0.02,0.01l-0.08 0.25c-0.02,0.01 -0.03,0.03 -0.03,0.05 0,0.03 0.03,0.06 0.06,0.06 0,0 0.01,0 0.01,-0.01l0.16 0.09c0.01,0 0.02,0 0.03,-0.01l0 0c0,-0.01 0,-0.02 -0.01,-0.03l-0.14 -0.11zm0.38 0.01l0 0c0,0.19 -0.13,0.35 -0.3,0.41l0 -0.06c0.14,-0.06 0.24,-0.19 0.24,-0.35 0,-0.21 -0.17,-0.37 -0.37,-0.37 -0.21,0 -0.37,0.16 -0.37,0.37 0,0.02 0,0.04 0,0.06l-0.06 0c0,-0.02 0,-0.04 0,-0.06 0,-0.24 0.19,-0.43 0.43,-0.43 0.23,0 0.43,0.19 0.43,0.43zm-0.42 0.31l0 0 -0.12 0c-0.01,0 -0.01,0 -0.01,-0.01l0 -0.09c0,-0.01 0,-0.01 0.01,-0.01l0.02 0c0,0 0,0 0.01,0l0.1 0.1c0,0 0,0.01 -0.01,0.01zm0.06 0l0 0 -0.13 -0.14c-0.01,0 -0.02,-0.01 -0.03,-0.01l-0.07 0 0 -0.02c0,-0.02 -0.01,-0.04 -0.03,-0.04l-0.39 0c-0.01,0 -0.03,0.02 -0.03,0.04l0 0.22 0.7 0 0 -0.02c0,-0.02 -0.01,-0.03 -0.02,-0.03zm0.02 0.07l0 0 0 0.07c0,0.02 -0.02,0.04 -0.04,0.04l-0.03 0c-0.01,-0.05 -0.05,-0.08 -0.1,-0.08 -0.04,0 -0.08,0.03 -0.09,0.08l-0.18 0c-0.01,-0.05 -0.04,-0.08 -0.09,-0.08 -0.05,0 -0.08,0.03 -0.09,0.08l-0.05 0c-0.01,0 -0.03,-0.02 -0.03,-0.04l0 -0.07 0.7 0zm-0.17 0.16l0 0c-0.01,0 -0.03,-0.02 -0.03,-0.04 0,-0.02 0.02,-0.03 0.03,-0.03 0.02,0 0.04,0.01 0.04,0.03 0,0.02 -0.02,0.04 -0.04,0.04zm0 -0.11l0 0c-0.03,0 -0.06,0.03 -0.06,0.07 0,0.04 0.03,0.07 0.06,0.07 0.04,0 0.07,-0.03 0.07,-0.07 0,-0.04 -0.03,-0.07 -0.07,-0.07zm-0.36 0l0 0c-0.04,0 -0.07,0.03 -0.07,0.07 0,0.04 0.03,0.07 0.07,0.07 0.04,0 0.07,-0.03 0.07,-0.07 0,-0.04 -0.03,-0.07 -0.07,-0.07z"/>
 </g>
</svg>
