<?xml version="1.0" encoding="UTF-8"?>
<!DOCTYPE svg PUBLIC "-//W3C//DTD SVG 1.1//EN" "http://www.w3.org/Graphics/SVG/1.1/DTD/svg11.dtd">
<!-- Creator: CorelDRAW 2018 (64-Bit) -->
<svg xmlns="http://www.w3.org/2000/svg" xml:space="preserve" width="35px" height="35px" version="1.1" style="shape-rendering:geometricPrecision; text-rendering:geometricPrecision; image-rendering:optimizeQuality; fill-rule:evenodd; clip-rule:evenodd"
viewBox="0 0 1.2 1.2"
 xmlns:xlink="http://www.w3.org/1999/xlink">
 <defs>
  <style type="text/css">
   <![CDATA[
    .fil0 {fill:#EEEEEF}
   ]]>
  </style>
 </defs>
 <g id="Layer_x0020_1">
  <metadata id="CorelCorpID_0Corel-Layer"/>
  <path class="fil0" d="M0.97 0.65l-0.28 0c-0.04,0 -0.07,0.02 -0.09,0.05l-0.14 0.25c0.04,0.02 0.09,0.03 0.14,0.03 0.19,0 0.35,-0.14 0.37,-0.33zm0 -0.1c-0.02,-0.18 -0.18,-0.32 -0.37,-0.32 -0.05,0 -0.1,0.01 -0.14,0.02l0.14 0.25c0.02,0.03 0.05,0.05 0.09,0.05l0.28 0zm-0.6 -0.25c-0.09,0.07 -0.14,0.18 -0.14,0.3 0,0.12 0.05,0.23 0.14,0.3l0.14 -0.25c0.02,-0.03 0.02,-0.07 0,-0.1l-0.14 -0.25zm0.14 -0.16c0.02,-0.01 0.03,-0.02 0.03,-0.04l0.01 -0.07c0,-0.02 0.02,-0.03 0.04,-0.03l0.02 0c0.02,0 0.04,0.01 0.04,0.03l0.01 0.07c0,0.02 0.02,0.03 0.03,0.04 0.02,0 0.04,-0.01 0.05,-0.02l0.03 -0.06c0.01,-0.02 0.03,-0.03 0.05,-0.02l0.02 0.01c0.02,0.01 0.03,0.03 0.03,0.05l-0.02 0.06c0,0.02 0,0.04 0.02,0.05 0.01,0.01 0.03,0.01 0.04,0l0.06 -0.05c0.01,-0.01 0.04,-0.01 0.05,0.01l0.01 0.01c0.02,0.02 0.02,0.04 0.01,0.06l-0.04 0.05c-0.01,0.01 -0.01,0.03 0,0.05 0.01,0.01 0.02,0.02 0.04,0.01l0.07 -0.01c0.02,-0.01 0.04,0 0.04,0.02l0.01 0.02c0.01,0.02 0,0.04 -0.01,0.05l-0.06 0.04c-0.02,0.01 -0.03,0.02 -0.02,0.04 0,0.02 0.02,0.03 0.03,0.03l0.07 0.01c0.02,0 0.03,0.02 0.03,0.04l0 0.02c0,0.02 -0.01,0.04 -0.03,0.04l-0.07 0.01c-0.01,0 -0.03,0.02 -0.03,0.03 -0.01,0.02 0,0.04 0.02,0.05l0.06 0.03c0.01,0.01 0.02,0.03 0.01,0.05l-0.01 0.02c0,0.02 -0.02,0.03 -0.04,0.03l-0.07 -0.02c-0.02,-0.01 -0.03,0 -0.04,0.02 -0.01,0.01 -0.01,0.03 0,0.04l0.04 0.06c0.01,0.01 0.01,0.04 -0.01,0.05l-0.01 0.01c-0.01,0.02 -0.04,0.02 -0.05,0.01l-0.06 -0.04c-0.01,-0.01 -0.03,-0.01 -0.04,0 -0.02,0.01 -0.03,0.02 -0.02,0.04l0.02 0.07c0,0.02 -0.01,0.04 -0.03,0.04l-0.02 0.01c-0.02,0.01 -0.04,0 -0.05,-0.01l-0.03 -0.06c-0.01,-0.02 -0.03,-0.03 -0.05,-0.02 -0.01,0 -0.03,0.02 -0.03,0.03l-0.01 0.07c0,0.02 -0.02,0.03 -0.04,0.03l-0.02 0c-0.02,0 -0.04,-0.01 -0.04,-0.03l-0.01 -0.07c0,-0.01 -0.01,-0.03 -0.03,-0.03 -0.02,-0.01 -0.04,0 -0.04,0.02l-0.04 0.06c-0.01,0.01 -0.03,0.02 -0.05,0.01l-0.02 -0.01c-0.02,0 -0.03,-0.02 -0.02,-0.04l0.01 -0.07c0.01,-0.02 0,-0.03 -0.01,-0.04 -0.02,-0.01 -0.04,-0.01 -0.05,0l-0.05 0.04c-0.02,0.01 -0.04,0.01 -0.06,-0.01l-0.01 -0.01c-0.02,-0.01 -0.02,-0.04 -0.01,-0.05l0.05 -0.06c0.01,-0.01 0.01,-0.03 0,-0.04 -0.01,-0.02 -0.03,-0.03 -0.05,-0.02l-0.06 0.02c-0.02,0 -0.04,-0.01 -0.05,-0.03l-0.01 -0.02c-0.01,-0.02 0,-0.04 0.02,-0.05l0.06 -0.03c0.01,-0.01 0.02,-0.03 0.02,-0.05 -0.01,-0.01 -0.02,-0.03 -0.04,-0.03l-0.07 -0.01c-0.02,0 -0.03,-0.02 -0.03,-0.04l0 -0.02c0,-0.02 0.01,-0.04 0.03,-0.04l0.07 -0.01c0.02,0 0.03,-0.01 0.04,-0.03 0,-0.02 -0.01,-0.04 -0.02,-0.04l-0.06 -0.04c-0.02,-0.01 -0.03,-0.03 -0.02,-0.05l0.01 -0.02c0.01,-0.02 0.03,-0.03 0.05,-0.02l0.06 0.01c0.02,0.01 0.04,0 0.05,-0.01 0.01,-0.02 0.01,-0.04 0,-0.05l-0.05 -0.05c-0.01,-0.02 -0.01,-0.04 0.01,-0.06l0.01 -0.01c0.02,-0.02 0.04,-0.02 0.06,-0.01l0.05 0.05c0.01,0.01 0.03,0.01 0.05,0 0.01,-0.01 0.02,-0.03 0.01,-0.05l-0.01 -0.06c-0.01,-0.02 0,-0.04 0.02,-0.05l0.02 -0.01c0.02,-0.01 0.04,0 0.05,0.02l0.04 0.06c0.01,0.01 0.02,0.02 0.04,0.02z"/>
 </g>
</svg>
