<?xml version="1.0" encoding="UTF-8"?>
<!DOCTYPE svg PUBLIC "-//W3C//DTD SVG 1.1//EN" "http://www.w3.org/Graphics/SVG/1.1/DTD/svg11.dtd">
<!-- Creator: CorelDRAW 2018 (64-Bit) -->
<svg xmlns="http://www.w3.org/2000/svg" xml:space="preserve" width="35px" height="35px" version="1.1" style="shape-rendering:geometricPrecision; text-rendering:geometricPrecision; image-rendering:optimizeQuality; fill-rule:evenodd; clip-rule:evenodd"
viewBox="0 0 1.75 1.75"
 xmlns:xlink="http://www.w3.org/1999/xlink">
 <defs>
  <style type="text/css">
   <![CDATA[
    .fil0 {fill:#B9CCBC}
   ]]>
  </style>
 </defs>
 <g id="Layer_x0020_1">
  <metadata id="CorelCorpID_0Corel-Layer"/>
  <path class="fil0" d="M0.88 0c0.48,0 0.87,0.39 0.87,0.88 0,0.48 -0.39,0.87 -0.87,0.87 -0.49,0 -0.88,-0.39 -0.88,-0.87 0,-0.49 0.39,-0.88 0.88,-0.88zm0.5 0.86l0 0.38c0,0.04 -0.01,0.08 -0.04,0.1 -0.02,0.03 -0.06,0.04 -0.1,0.04l-0.73 0c-0.04,0 -0.07,-0.01 -0.1,-0.04 -0.02,-0.02 -0.04,-0.06 -0.04,-0.1l0 -0.73c0,-0.04 0.02,-0.07 0.04,-0.1 0.03,-0.02 0.06,-0.04 0.1,-0.04l0.73 0c0.04,0 0.08,0.02 0.1,0.04 0.03,0.03 0.04,0.06 0.04,0.1l0 0.07 -0.12 0 0 -0.07c0,-0.01 0,-0.01 0,-0.01 -0.01,-0.01 -0.01,-0.01 -0.02,-0.01l-0.73 0c-0.01,0 -0.01,0 -0.01,0.01 -0.01,0 -0.01,0 -0.01,0.01l0 0.73c0,0.01 0,0.01 0.01,0.02 0,0 0,0 0.01,0l0.73 0c0.01,0 0.01,0 0.02,0 0,-0.01 0,-0.01 0,-0.02l0 -0.29 -0.32 0.24c-0.03,0.02 -0.07,0.02 -0.1,-0.01l-0.17 -0.17c-0.03,-0.03 -0.03,-0.08 0,-0.11 0.03,-0.03 0.07,-0.03 0.1,0l0.13 0.13 0.52 -0.38c0.03,-0.02 0.08,-0.01 0.1,0.02 0.02,0.03 0.02,0.08 -0.02,0.1l-0.12 0.09z"/>
 </g>
</svg>
