<?xml version="1.0" encoding="UTF-8"?>
<!DOCTYPE svg PUBLIC "-//W3C//DTD SVG 1.1//EN" "http://www.w3.org/Graphics/SVG/1.1/DTD/svg11.dtd">
<!-- Creator: CorelDRAW 2018 (64-Bit) -->
<svg xmlns="http://www.w3.org/2000/svg" xml:space="preserve" width="35px" height="35px" version="1.1" style="shape-rendering:geometricPrecision; text-rendering:geometricPrecision; image-rendering:optimizeQuality; fill-rule:evenodd; clip-rule:evenodd"
viewBox="0 0 1.56 1.56"
 xmlns:xlink="http://www.w3.org/1999/xlink">
 <defs>
  <style type="text/css">
   <![CDATA[
    .fil0 {fill:#088378}
   ]]>
  </style>
 </defs>
 <g id="Layer_x0020_1">
  <metadata id="CorelCorpID_0Corel-Layer"/>
  <path class="fil0" d="M0.78 0c0.43,0 0.78,0.35 0.78,0.78 0,0.43 -0.35,0.78 -0.78,0.78 -0.43,0 -0.78,-0.35 -0.78,-0.78 0,-0.43 0.35,-0.78 0.78,-0.78zm-0.54 1.01l0 -0.45 0.08 0 0.16 0.26 0.04 0.09 0.01 0 -0.01 -0.1 0 -0.25 0.07 0 0 0.45 -0.09 0 -0.15 -0.26 -0.04 -0.09 -0.01 0 0.02 0.1 0 0.25 -0.08 0zm0.58 0l-0.07 0 0 -0.45 0.07 0 0 0.45zm0.24 0l-0.07 0 0 -0.45 0.07 0 0 0.2 0.19 -0.2 0.09 0 -0.2 0.21 0.21 0.24 -0.1 0 -0.16 -0.18 -0.03 0.03 0 0.15z"/>
 </g>
</svg>
