<?xml version="1.0" encoding="UTF-8"?>
<!DOCTYPE svg PUBLIC "-//W3C//DTD SVG 1.1//EN" "http://www.w3.org/Graphics/SVG/1.1/DTD/svg11.dtd">
<!-- Creator: CorelDRAW 2018 (64-Bit) -->
<svg xmlns="http://www.w3.org/2000/svg" xml:space="preserve" width="35px" height="35px" version="1.1" style="shape-rendering:geometricPrecision; text-rendering:geometricPrecision; image-rendering:optimizeQuality; fill-rule:evenodd; clip-rule:evenodd"
viewBox="0 0 0.59 0.59"
 xmlns:xlink="http://www.w3.org/1999/xlink">
 <defs>
  <style type="text/css">
   <![CDATA[
    .fil0 {fill:#757475}
   ]]>
  </style>
 </defs>
 <g id="Layer_x0020_1">
  <metadata id="CorelCorpID_0Corel-Layer"/>
  <path class="fil0" d="M0.43 0.05l-0.1 0.1 -0.19 0c-0.03,0 -0.04,0 -0.05,0.01 -0.01,0 -0.02,0.01 -0.03,0.02 0,0.02 -0.01,0.03 -0.01,0.06l0 0.21c0,0.03 0.01,0.04 0.01,0.05 0.01,0.01 0.02,0.02 0.03,0.03 0.01,0.01 0.02,0.01 0.05,0.01l0.26 0c0.03,0 0.04,0 0.05,-0.01 0.01,-0.01 0.02,-0.02 0.03,-0.03 0,-0.01 0,-0.02 0,-0.05l0 -0.23 0.06 -0.05 0 0.27c0,0.05 -0.01,0.07 -0.02,0.09 -0.01,0.02 -0.02,0.04 -0.04,0.05 -0.02,0.01 -0.04,0.01 -0.1,0.01l-0.22 0c-0.06,0 -0.08,0 -0.1,-0.01 -0.02,-0.01 -0.03,-0.03 -0.04,-0.05 -0.01,-0.02 -0.02,-0.04 -0.02,-0.09l0 -0.23c0,-0.05 0.01,-0.07 0.02,-0.09 0.01,-0.02 0.02,-0.04 0.04,-0.05 0.02,-0.01 0.04,-0.02 0.1,-0.02l0.27 0zm0.14 -0.04l0.01 0.01c0.02,0.01 0.02,0.03 0,0.05l-0.32 0.32 -0.08 0.03 0.02 -0.08 0.33 -0.33c0.01,-0.01 0.03,-0.01 0.04,0l0 0 0 0z"/>
 </g>
</svg>
