<?xml version="1.0" encoding="UTF-8"?>
<!DOCTYPE svg PUBLIC "-//W3C//DTD SVG 1.1//EN" "http://www.w3.org/Graphics/SVG/1.1/DTD/svg11.dtd">
<!-- Creator: CorelDRAW 2018 (64-Bit) -->
<svg xmlns="http://www.w3.org/2000/svg" xml:space="preserve" width="35px" height="35px" version="1.1" style="shape-rendering:geometricPrecision; text-rendering:geometricPrecision; image-rendering:optimizeQuality; fill-rule:evenodd; clip-rule:evenodd"
viewBox="0 0 1.3 1.3"
 xmlns:xlink="http://www.w3.org/1999/xlink">
 <defs>
  <style type="text/css">
   <![CDATA[
    .fil0 {fill:#EEEEEF}
   ]]>
  </style>
 </defs>
 <g id="Layer_x0020_1">
  <metadata id="CorelCorpID_0Corel-Layer"/>
  <path class="fil0" d="M0.65 0c0.36,0 0.65,0.29 0.65,0.65 0,0.36 -0.29,0.65 -0.65,0.65 -0.36,0 -0.65,-0.29 -0.65,-0.65 0,-0.36 0.29,-0.65 0.65,-0.65zm-0.33 1.05c-0.11,-0.12 -0.07,-0.34 -0.07,-0.34 0,0 0,-0.01 0.01,-0.01 0,0 0.01,0 0.01,0 0.03,0.05 0.07,0.07 0.12,0.09 0.05,0.02 0.1,0.04 0.14,0.09 0.08,0.11 0.08,0.27 0.08,0.28 0,0 -0.01,0.01 -0.01,0.01 0,0 -0.17,0.01 -0.28,-0.12zm0.48 -0.81c0.04,0 0.07,0.03 0.07,0.07 0,0.04 -0.03,0.08 -0.07,0.08 -0.05,0 -0.08,-0.04 -0.08,-0.08 0,-0.04 0.03,-0.07 0.08,-0.07zm-0.16 0.92c0,0 -0.02,-0.24 0.02,-0.37 0.03,-0.12 0.13,-0.19 0.19,-0.24l0.02 -0.02c0.06,-0.04 0.14,-0.15 0.14,-0.15 0,-0.01 0.01,-0.01 0.02,-0.01 0,0.01 0,0.01 0,0.01 0.01,0.01 0.08,0.2 0.07,0.36 0,0.08 -0.01,0.18 -0.07,0.26 -0.06,0.08 -0.17,0.15 -0.37,0.17 -0.01,0 -0.02,0 -0.02,-0.01zm0.02 -0.64c-0.01,0.09 -0.13,0.25 -0.13,0.26 -0.01,0 -0.02,0 -0.02,0 -0.06,-0.04 -0.1,-0.08 -0.12,-0.13 -0.02,-0.06 -0.02,-0.13 0,-0.19 0.02,-0.13 0.15,-0.22 0.15,-0.22 0.01,0 0.01,0 0.02,0 0,0 0.02,0.04 0.05,0.08l0 0.01c0.03,0.04 0.06,0.11 0.05,0.19z"/>
 </g>
</svg>
