<?xml version="1.0" encoding="UTF-8"?>
<!DOCTYPE svg PUBLIC "-//W3C//DTD SVG 1.1//EN" "http://www.w3.org/Graphics/SVG/1.1/DTD/svg11.dtd">
<!-- Creator: CorelDRAW 2018 (64-Bit) -->
<svg xmlns="http://www.w3.org/2000/svg" xml:space="preserve" width="19px" height="19px" version="1.1" style="shape-rendering:geometricPrecision; text-rendering:geometricPrecision; image-rendering:optimizeQuality; fill-rule:evenodd; clip-rule:evenodd"
viewBox="0 0 0.17 0.17"
 xmlns:xlink="http://www.w3.org/1999/xlink">
 <defs>
  <style type="text/css">
   <![CDATA[
    .fil0 {fill:#757475}
   ]]>
  </style>
 </defs>
 <g id="Layer_x0020_1">
  <metadata id="CorelCorpID_0Corel-Layer"/>
  <path class="fil0" d="M0.09 0.07l-0.07 -0.07c0,0 0,0 0,0 0,0 -0.01,0 -0.01,0 0,0 0,0 0,0l-0.01 0.01c0,0 0,0 0,0 0,0 0,0.01 0,0.01 0,0 0,0 0,0l0.07 0.07 -0.07 0.06c0,0 0,0 0,0 0,0.01 0,0.01 0,0.01 0,0 0,0 0,0.01l0.01 0c0,0 0,0 0,0 0,0 0.01,0 0.01,0 0,0 0,0 0,0l0.07 -0.06 0.06 0.06c0,0 0,0 0,0 0.01,0 0.01,0 0.01,0 0,0 0,0 0.01,0l0 0c0,-0.01 0,-0.01 0,-0.01 0,0 0,0 0,-0.01 0,0 0,0 0,0l-0.06 -0.06 0.06 -0.07c0,0 0,0 0,0 0,0 0,-0.01 0,-0.01 0,0 0,0 0,0l0 -0.01c-0.01,0 -0.01,0 -0.01,0 0,0 0,0 -0.01,0 0,0 0,0 0,0l-0.06 0.07z"/>
 </g>
</svg>
