<?xml version="1.0" encoding="UTF-8"?>
<!DOCTYPE svg PUBLIC "-//W3C//DTD SVG 1.1//EN" "http://www.w3.org/Graphics/SVG/1.1/DTD/svg11.dtd">
<!-- Creator: CorelDRAW 2018 (64-Bit) -->
<svg xmlns="http://www.w3.org/2000/svg" xml:space="preserve" width="35px" height="31px" version="1.1" style="shape-rendering:geometricPrecision; text-rendering:geometricPrecision; image-rendering:optimizeQuality; fill-rule:evenodd; clip-rule:evenodd"
viewBox="0 0 1.18 1.04"
 xmlns:xlink="http://www.w3.org/1999/xlink">
 <defs>
  <style type="text/css">
   <![CDATA[
    .fil0 {fill:#FEFEFE}
   ]]>
  </style>
 </defs>
 <g id="Layer_x0020_1">
  <metadata id="CorelCorpID_0Corel-Layer"/>
  <path class="fil0" d="M0.59 0l0.25 0c0.04,0 0.06,0.01 0.08,0.05l0.12 0.21 0.13 0.21c0.02,0.04 0.02,0.06 0,0.1l-0.13 0.21 -0.12 0.21c-0.02,0.04 -0.04,0.05 -0.08,0.05l-0.25 0 -0.24 0c-0.05,0 -0.06,-0.01 -0.09,-0.05l-0.12 -0.21 -0.12 -0.21c-0.03,-0.04 -0.03,-0.06 0,-0.1l0.12 -0.21 0.12 -0.21c0.03,-0.04 0.04,-0.05 0.09,-0.05l0.24 0zm-0.25 0.69l-0.09 0c-0.02,0 -0.03,-0.01 -0.05,-0.03 -0.01,-0.01 -0.02,-0.03 -0.02,-0.05l0 -0.15c-0.01,0 -0.02,-0.01 -0.03,-0.01 0,-0.01 0,-0.01 0,-0.02 -0.01,0 -0.01,-0.01 -0.01,-0.01 0,-0.01 0.01,-0.02 0.02,-0.03l0.18 -0.18c0,-0.01 0.01,-0.02 0.02,-0.02 0.01,0 0.02,0 0.03,0 0.01,0 0.02,0 0.03,0 0.01,0 0.02,0.01 0.03,0.02l0.11 0.11c0,0 -0.01,0 -0.01,0.01 -0.01,0 -0.01,0 -0.01,0l-0.11 -0.1c0,-0.01 -0.01,-0.01 -0.02,-0.01 0,-0.01 -0.01,-0.01 -0.02,-0.01l0 0c0,0 -0.01,0 -0.02,0.01 0,0 -0.01,0 -0.01,0.01l-0.19 0.18c0,0 0,0.01 0,0.01l0 0 0 0.01c0.01,0 0.02,0.01 0.02,0.01l0.02 0 0 0.17c0,0.02 0,0.03 0.01,0.04 0.01,0 0.02,0.01 0.03,0.01l0.09 0 0 0.03zm0.28 -0.37l0.11 -0.11c0.01,-0.01 0.02,-0.02 0.03,-0.02 0.01,0 0.02,0 0.03,0 0.01,0 0.02,0 0.03,0 0.01,0 0.02,0.01 0.03,0.02l0.18 0.18c0.01,0.01 0.01,0.02 0.01,0.03 0,0 0,0.01 0,0.01 0,0.01 -0.01,0.01 -0.01,0.02 -0.01,0 -0.02,0.01 -0.03,0.01l0 0.15c0,0.02 -0.01,0.04 -0.02,0.05 -0.01,0.02 -0.03,0.03 -0.05,0.03l-0.09 0 0 -0.03 0.09 0c0.01,0 0.02,-0.01 0.03,-0.01 0.01,-0.01 0.02,-0.02 0.02,-0.04l0 -0.17 0.01 0c0.01,0 0.02,-0.01 0.02,-0.01l0 -0.01 0 0c0,0 0,-0.01 0,-0.01l-0.18 -0.18c-0.01,-0.01 -0.01,-0.01 -0.02,-0.01 -0.01,-0.01 -0.01,-0.01 -0.02,-0.01l0 0c-0.01,0 -0.01,0 -0.02,0.01 -0.01,0 -0.01,0 -0.02,0.01l-0.1 0.1c-0.01,0 -0.01,0 -0.01,0 -0.01,-0.01 -0.01,-0.01 -0.02,-0.01zm-0.03 0.54l-0.14 0c-0.02,0 -0.04,-0.01 -0.05,-0.02 -0.01,-0.02 -0.02,-0.04 -0.02,-0.06l0 -0.15c-0.01,0 -0.02,0 -0.03,-0.01 0,-0.01 0,-0.01 -0.01,-0.01 0,-0.01 0,-0.01 0,-0.02 0,-0.01 0.01,-0.02 0.01,-0.03l0.19 -0.18c0,-0.01 0.01,-0.01 0.02,-0.02 0.01,0 0.02,0 0.03,0 0.01,0 0.02,0 0.03,0 0.01,0.01 0.02,0.01 0.03,0.02l0.18 0.18c0.01,0.01 0.01,0.02 0.01,0.03 0,0.01 0,0.01 0,0.02 0,0 -0.01,0 -0.01,0.01 -0.01,0.01 -0.02,0.01 -0.03,0.01l0 0.15c0,0.02 -0.01,0.04 -0.02,0.06 -0.01,0.01 -0.03,0.02 -0.05,0.02l-0.14 0z"/>
 </g>
</svg>
