<?xml version="1.0" encoding="UTF-8"?>
<!DOCTYPE svg PUBLIC "-//W3C//DTD SVG 1.1//EN" "http://www.w3.org/Graphics/SVG/1.1/DTD/svg11.dtd">
<!-- Creator: CorelDRAW 2018 (64-Bit) -->
<svg xmlns="http://www.w3.org/2000/svg" xml:space="preserve" width="35px" height="35px" version="1.1" style="shape-rendering:geometricPrecision; text-rendering:geometricPrecision; image-rendering:optimizeQuality; fill-rule:evenodd; clip-rule:evenodd"
viewBox="0 0 1.04 1.04"
 xmlns:xlink="http://www.w3.org/1999/xlink">
 <defs>
  <style type="text/css">
   <![CDATA[
    .fil0 {fill:#757475}
   ]]>
  </style>
 </defs>
 <g id="Layer_x0020_1">
  <metadata id="CorelCorpID_0Corel-Layer"/>
  <path class="fil0" d="M0.52 0c0.28,0 0.52,0.23 0.52,0.52 0,0.28 -0.24,0.52 -0.52,0.52 -0.29,0 -0.52,-0.24 -0.52,-0.52 0,-0.29 0.23,-0.52 0.52,-0.52zm0.27 0.67l-0.39 0 0 0.05 -0.16 -0.09 0.16 -0.09 0 0.04 0.39 0 0 0.09zm-0.55 -0.22l0.4 0 0 0.05 0.15 -0.09 -0.15 -0.09 0 0.04 -0.4 0 0 0.09z"/>
 </g>
</svg>
