<?xml version="1.0" encoding="UTF-8"?>
<!DOCTYPE svg PUBLIC "-//W3C//DTD SVG 1.1//EN" "http://www.w3.org/Graphics/SVG/1.1/DTD/svg11.dtd">
<!-- Creator: CorelDRAW 2018 (64-Bit) -->
<svg xmlns="http://www.w3.org/2000/svg" xml:space="preserve" width="35px" height="35px" version="1.1" style="shape-rendering:geometricPrecision; text-rendering:geometricPrecision; image-rendering:optimizeQuality; fill-rule:evenodd; clip-rule:evenodd"
viewBox="0 0 0.77 0.77"
 xmlns:xlink="http://www.w3.org/1999/xlink">
 <defs>
  <style type="text/css">
   <![CDATA[
    .fil0 {fill:#EEEEEF;fill-rule:nonzero}
   ]]>
  </style>
 </defs>
 <g id="Layer_x0020_1">
  <metadata id="CorelCorpID_0Corel-Layer"/>
  <path class="fil0" d="M0.38 0c0.11,0 0.21,0.04 0.27,0.11 0.07,0.07 0.12,0.17 0.12,0.27 0,0.11 -0.05,0.21 -0.12,0.27 -0.06,0.07 -0.16,0.12 -0.27,0.12 -0.1,0 -0.2,-0.05 -0.27,-0.12 -0.07,-0.06 -0.11,-0.16 -0.11,-0.27 0,-0.1 0.04,-0.2 0.11,-0.27 0.07,-0.07 0.17,-0.11 0.27,-0.11zm0.25 0.13c-0.06,-0.06 -0.15,-0.1 -0.25,-0.1 -0.09,0 -0.18,0.04 -0.25,0.1 -0.06,0.07 -0.1,0.16 -0.1,0.25 0,0.1 0.04,0.19 0.1,0.25 0.07,0.07 0.16,0.11 0.25,0.11 0.1,0 0.19,-0.04 0.25,-0.11 0.07,-0.06 0.11,-0.15 0.11,-0.25 0,-0.09 -0.04,-0.18 -0.11,-0.25z"/>
 </g>
</svg>
