<?xml version="1.0" encoding="UTF-8"?>
<!DOCTYPE svg PUBLIC "-//W3C//DTD SVG 1.1//EN" "http://www.w3.org/Graphics/SVG/1.1/DTD/svg11.dtd">
<!-- Creator: CorelDRAW 2018 (64-Bit) -->
<svg xmlns="http://www.w3.org/2000/svg" xml:space="preserve" width="35px" height="35px" version="1.1" style="shape-rendering:geometricPrecision; text-rendering:geometricPrecision; image-rendering:optimizeQuality; fill-rule:evenodd; clip-rule:evenodd"
viewBox="0 0 1.2 1.2"
 xmlns:xlink="http://www.w3.org/1999/xlink">
 <defs>
  <style type="text/css">
   <![CDATA[
    .fil0 {fill:#EEEEEF}
   ]]>
  </style>
 </defs>
 <g id="Layer_x0020_1">
  <metadata id="CorelCorpID_0Corel-Layer"/>
  <path class="fil0" d="M0.18 1.03c-0.24,-0.24 -0.24,-0.62 0,-0.85 0.23,-0.24 0.61,-0.24 0.85,0 0.23,0.23 0.23,0.61 0,0.85 -0.24,0.23 -0.62,0.23 -0.85,0zm0.33 -0.57c-0.01,0.01 -0.02,0.01 -0.02,0.01 -0.01,0.01 -0.01,0.01 -0.02,0.02 0,0 0,0.01 -0.01,0.02l-0.2 0.41c-0.01,0.01 -0.01,0.01 0,0.02 0,0.01 0.01,0.01 0.02,0.01l0.42 -0.21c0.01,-0.01 0.01,-0.01 0.02,-0.01 0,0 0.01,-0.01 0.01,-0.01 0,-0.01 0,-0.01 0.01,-0.02l0.21 -0.42c0,0 0,-0.01 0,-0.01 -0.01,-0.01 -0.02,-0.02 -0.03,-0.01l-0.41 0.2zm0.04 0.09l0.1 0.1c0.01,0.01 0.01,0.02 0,0.03 0,0 0,0 0,0.01l-0.26 0.12 0.13 -0.25c0,-0.01 0.02,-0.02 0.03,-0.01 0,0 0,0 0,0z"/>
 </g>
</svg>
