<?xml version="1.0" encoding="UTF-8"?>
<!DOCTYPE svg PUBLIC "-//W3C//DTD SVG 1.1//EN" "http://www.w3.org/Graphics/SVG/1.1/DTD/svg11.dtd">
<!-- Creator: CorelDRAW 2018 (64-Bit) -->
<svg xmlns="http://www.w3.org/2000/svg" xml:space="preserve" width="34px" height="35px" version="1.1" style="shape-rendering:geometricPrecision; text-rendering:geometricPrecision; image-rendering:optimizeQuality; fill-rule:evenodd; clip-rule:evenodd"
viewBox="0 0 1.24 1.26"
 xmlns:xlink="http://www.w3.org/1999/xlink">
 <defs>
  <style type="text/css">
   <![CDATA[
    .fil0 {fill:#EEEEEF}
   ]]>
  </style>
 </defs>
 <g id="Layer_x0020_1">
  <metadata id="CorelCorpID_0Corel-Layer"/>
  <path class="fil0" d="M1.01 0c0.01,0 0.03,0.01 0.04,0.02 0.01,0.01 0.02,0.03 0.02,0.05l0 0.33c0.01,0.02 0.02,0.03 0.03,0.05 0,0.02 0.01,0.03 0.02,0.05l0.07 0c0.01,0 0.03,0 0.04,0.01 0.01,0.01 0.01,0.03 0.01,0.04l0 0.46c0,0.02 -0.01,0.03 -0.02,0.04 -0.01,0.01 -0.02,0.02 -0.03,0.02l-0.07 0 0 0.19 -0.15 -0.17c-0.05,0.05 -0.1,0.08 -0.17,0.11 -0.06,0.03 -0.13,0.04 -0.2,0.04 -0.07,0 -0.13,-0.01 -0.19,-0.03 -0.06,-0.02 -0.11,-0.05 -0.16,-0.09l-0.06 0.07 0 -0.12c-0.02,-0.03 -0.04,-0.05 -0.06,-0.08 -0.02,-0.03 -0.03,-0.06 -0.04,-0.09l-0.02 0c-0.02,0 -0.04,-0.01 -0.05,-0.02 -0.01,-0.01 -0.02,-0.03 -0.02,-0.05l0 -0.76c0,-0.02 0.01,-0.04 0.02,-0.05 0.01,-0.01 0.03,-0.02 0.05,-0.02l0.94 0zm-0.73 0.54l0.51 0c0.01,0 0.02,0 0.03,0.01 0,0 0.01,0.01 0.01,0.02 0,0.01 -0.01,0.02 -0.01,0.03 -0.01,0.01 -0.02,0.01 -0.03,0.01l-0.51 0c-0.01,0 -0.02,0 -0.03,-0.01 0,-0.01 -0.01,-0.02 -0.01,-0.03 0,-0.01 0.01,-0.02 0.01,-0.02 0.01,-0.01 0.02,-0.01 0.03,-0.01zm0 -0.13l0.51 0c0.01,0 0.02,0.01 0.03,0.01 0,0.01 0.01,0.02 0.01,0.03 0,0.01 -0.01,0.02 -0.01,0.02 -0.01,0.01 -0.02,0.02 -0.03,0.02l-0.51 0c-0.01,0 -0.02,-0.01 -0.03,-0.02 0,0 -0.01,-0.01 -0.01,-0.02 0,-0.01 0.01,-0.02 0.01,-0.03 0.01,-0.01 0.02,-0.01 0.03,-0.01zm-0.03 -0.06c0,-0.01 -0.01,-0.02 -0.01,-0.03 0,-0.01 0.01,-0.02 0.01,-0.02 0.01,-0.01 0.02,-0.01 0.03,-0.01l0.51 0c0.01,0 0.02,0 0.03,0.01 0,0 0.01,0.01 0.01,0.02 0,0.01 -0.01,0.02 -0.01,0.03 -0.01,0.01 -0.02,0.01 -0.03,0.01l-0.51 0c-0.01,0 -0.02,0 -0.03,-0.01zm-0.18 -0.28l0 0.76 0.19 0 0 0.18 0.15 -0.17c0.01,-0.01 0.02,-0.01 0.02,-0.01l0.57 0 0 -0.76 -0.93 0z"/>
 </g>
</svg>
