<?xml version="1.0" encoding="UTF-8"?>
<!DOCTYPE svg PUBLIC "-//W3C//DTD SVG 1.1//EN" "http://www.w3.org/Graphics/SVG/1.1/DTD/svg11.dtd">
<!-- Creator: CorelDRAW 2018 (64-Bit) -->
<svg xmlns="http://www.w3.org/2000/svg" xml:space="preserve" width="35px" height="35px" version="1.1" style="shape-rendering:geometricPrecision; text-rendering:geometricPrecision; image-rendering:optimizeQuality; fill-rule:evenodd; clip-rule:evenodd"
viewBox="0 0 1.18 1.18"
 xmlns:xlink="http://www.w3.org/1999/xlink">
 <defs>
  <style type="text/css">
   <![CDATA[
    .fil0 {fill:#FEFEFE}
   ]]>
  </style>
 </defs>
 <g id="Layer_x0020_1">
  <metadata id="CorelCorpID_0Corel-Layer"/>
  <path class="fil0" d="M0.26 0l0.67 0c0.14,0 0.25,0.12 0.25,0.26l0 0.67c0,0.14 -0.11,0.25 -0.25,0.25l-0.67 0c-0.14,0 -0.26,-0.11 -0.26,-0.25l0 -0.67c0,-0.14 0.12,-0.26 0.26,-0.26zm0.56 0.38l0 -0.13 0.06 0c0.04,0 0.06,0.02 0.06,0.06 0,0.04 -0.02,0.07 -0.06,0.07l-0.06 0zm-0.66 0.19l0.08 0 0 -0.3 0.01 0 0.12 0.3 0.12 0 0 -0.4 -0.08 0 0 0.3 -0.01 0 -0.11 -0.3 -0.13 0 0 0.4zm0 0.04l0.08 0.41 0.12 0 0.04 -0.29 0.05 0.29 0.11 0 0.09 -0.41 0 -0.44 -0.08 0 0 0.44 -0.06 0.32 -0.01 0 -0.05 -0.32 -0.09 0 -0.06 0.32 0 0 -0.06 -0.32 -0.08 0zm0.66 0.21l0 -0.13 0.06 0c0.04,0 0.06,0.02 0.06,0.06 0,0.05 -0.02,0.07 -0.06,0.07l-0.06 0zm0.06 0.08c0.1,0 0.14,-0.05 0.14,-0.15 0,-0.09 -0.04,-0.14 -0.14,-0.14l-0.14 0 0 0.41 0.08 0 0 -0.12 0.06 0zm0 -0.44c0.1,0 0.14,-0.06 0.14,-0.15 0,-0.09 -0.04,-0.14 -0.14,-0.14l-0.14 0 0 0.4 0.08 0 0 -0.11 0.06 0z"/>
 </g>
</svg>
