<?xml version="1.0" encoding="UTF-8"?>
<!DOCTYPE svg PUBLIC "-//W3C//DTD SVG 1.1//EN" "http://www.w3.org/Graphics/SVG/1.1/DTD/svg11.dtd">
<!-- Creator: CorelDRAW 2018 (64-Bit) -->
<svg xmlns="http://www.w3.org/2000/svg" xml:space="preserve" width="35px" height="35px" version="1.1" style="shape-rendering:geometricPrecision; text-rendering:geometricPrecision; image-rendering:optimizeQuality; fill-rule:evenodd; clip-rule:evenodd"
viewBox="0 0 1.77 1.77"
 xmlns:xlink="http://www.w3.org/1999/xlink">
 <defs>
  <style type="text/css">
   <![CDATA[
    .fil0 {fill:#7DBB37}
   ]]>
  </style>
 </defs>
 <g id="Layer_x0020_1">
  <metadata id="CorelCorpID_0Corel-Layer"/>
  <path class="fil0" d="M0.26 1.51c-0.35,-0.34 -0.35,-0.91 0,-1.25 0.34,-0.35 0.91,-0.35 1.25,0 0.35,0.34 0.35,0.91 0,1.25 -0.34,0.35 -0.91,0.35 -1.25,0zm0.49 -0.83c-0.02,0.01 -0.03,0.01 -0.03,0.02 -0.01,0 -0.02,0.01 -0.02,0.02 -0.01,0 -0.01,0.01 -0.02,0.03l-0.3 0.6c-0.01,0.01 -0.01,0.02 0,0.03 0,0.01 0.02,0.02 0.04,0.01l0.6 -0.3c0.02,-0.01 0.03,-0.01 0.03,-0.02 0.01,0 0.02,-0.01 0.02,-0.02 0.01,0 0.01,-0.01 0.02,-0.03l0.3 -0.6c0.01,-0.01 0.01,-0.02 0,-0.03 0,-0.01 -0.02,-0.02 -0.04,-0.01l-0.6 0.3zm0.06 0.13l0.15 0.15c0.01,0.01 0.01,0.03 0,0.04 0,0 0,0.01 -0.01,0.01l-0.38 0.19 0.19 -0.38c0.01,-0.02 0.03,-0.02 0.04,-0.02 0,0.01 0.01,0.01 0.01,0.01z"/>
 </g>
</svg>
