<?xml version="1.0" encoding="UTF-8"?>
<!DOCTYPE svg PUBLIC "-//W3C//DTD SVG 1.1//EN" "http://www.w3.org/Graphics/SVG/1.1/DTD/svg11.dtd">
<!-- Creator: CorelDRAW 2018 (64-Bit) -->
<svg xmlns="http://www.w3.org/2000/svg" xml:space="preserve" width="35px" height="35px" version="1.1" style="shape-rendering:geometricPrecision; text-rendering:geometricPrecision; image-rendering:optimizeQuality; fill-rule:evenodd; clip-rule:evenodd"
viewBox="0 0 0.56 0.56"
 xmlns:xlink="http://www.w3.org/1999/xlink">
 <defs>
  <style type="text/css">
   <![CDATA[
    .fil0 {fill:#757475;fill-rule:nonzero}
   ]]>
  </style>
 </defs>
 <g id="Layer_x0020_1">
  <metadata id="CorelCorpID_0Corel-Layer"/>
  <path class="fil0" d="M0.28 0c0.08,0 0.15,0.03 0.2,0.08 0.05,0.05 0.08,0.12 0.08,0.2 0,0.08 -0.03,0.15 -0.08,0.2 -0.05,0.05 -0.12,0.08 -0.2,0.08 -0.08,0 -0.15,-0.03 -0.2,-0.08 -0.05,-0.05 -0.08,-0.12 -0.08,-0.2 0,-0.08 0.03,-0.15 0.08,-0.2 0.05,-0.05 0.12,-0.08 0.2,-0.08zm0 0.13c0.04,0 0.08,0.02 0.11,0.04 0.03,0.03 0.04,0.07 0.04,0.11 0,0.04 -0.01,0.08 -0.04,0.11 -0.03,0.03 -0.07,0.04 -0.11,0.04 -0.04,0 -0.08,-0.01 -0.11,-0.04 -0.02,-0.03 -0.04,-0.07 -0.04,-0.11 0,-0.04 0.02,-0.08 0.04,-0.11 0.03,-0.02 0.07,-0.04 0.11,-0.04zm-0.06 0.11c0,0 0.01,-0.01 0.01,-0.02 0.01,-0.01 0.01,-0.01 0.02,-0.02 0.02,-0.01 0.04,-0.01 0.06,0 0.03,0.01 0.04,0.05 0.01,0.07 -0.01,0.01 -0.02,0.02 -0.03,0.04 0,0.01 0,0.01 -0.01,0.01 -0.01,0 -0.02,0 -0.02,-0.01 0,-0.02 0.01,-0.03 0.03,-0.04 0.01,-0.01 0.03,-0.03 0.01,-0.04 -0.01,-0.01 -0.03,-0.01 -0.04,0 0,0 0,0.01 -0.01,0.01 0,0.03 -0.03,0.02 -0.03,0zm0.05 0.12c-0.01,0 -0.01,-0.02 0,-0.02 0,-0.01 0.02,-0.01 0.02,0 0.01,0 0.01,0.02 0,0.02 -0.01,0.01 -0.02,0.01 -0.02,0zm-0.07 0.04l0.02 -0.02 -0.01 0c-0.01,-0.01 -0.01,-0.01 -0.01,-0.01 -0.01,-0.01 -0.01,-0.01 -0.01,-0.02l-0.01 0 -0.02 0.02 0.01 0c0,0.01 0,0.01 0.01,0.01 0,0.01 0,0.01 0.01,0.01l0.01 0.01zm0.15 -0.02l0.02 0.02 0 -0.01c0.01,0 0.01,0 0.01,-0.01 0.01,0 0.01,0 0.01,-0.01l0.01 0 -0.02 -0.02 0 0c-0.01,0.01 -0.01,0.01 -0.01,0.02 -0.01,0 -0.01,0 -0.02,0.01l0 0zm0.03 -0.16l0.02 -0.02 -0.01 -0.01c0,-0.01 0,-0.01 -0.01,-0.01 0,-0.01 0,-0.01 -0.01,-0.01l0 -0.01 -0.02 0.02 0 0.01c0.01,0 0.01,0 0.02,0.01 0,0 0,0 0.01,0.01l0 0.01zm-0.16 -0.04l-0.02 -0.02 -0.01 0.01c-0.01,0 -0.01,0 -0.01,0.01 -0.01,0 -0.01,0 -0.01,0.01l-0.01 0.01 0.02 0.02 0.01 -0.01c0,-0.01 0,-0.01 0.01,-0.01 0,-0.01 0,-0.01 0.01,-0.01l0.01 -0.01zm0.14 0.02c-0.02,-0.02 -0.05,-0.03 -0.08,-0.03 -0.03,0 -0.06,0.01 -0.08,0.03 -0.02,0.02 -0.03,0.05 -0.03,0.08 0,0.03 0.01,0.06 0.03,0.08 0.02,0.02 0.05,0.03 0.08,0.03 0.03,0 0.06,-0.01 0.08,-0.03 0.02,-0.02 0.03,-0.05 0.03,-0.08 0,-0.03 -0.01,-0.06 -0.03,-0.08zm0.1 -0.1c-0.04,-0.05 -0.11,-0.08 -0.18,-0.08 -0.07,0 -0.13,0.03 -0.18,0.08 -0.05,0.05 -0.08,0.11 -0.08,0.18 0,0.07 0.03,0.14 0.08,0.18 0.05,0.05 0.11,0.08 0.18,0.08 0.07,0 0.14,-0.03 0.18,-0.08 0.05,-0.04 0.08,-0.11 0.08,-0.18 0,-0.07 -0.03,-0.13 -0.08,-0.18z"/>
 </g>
</svg>
