<?xml version="1.0" encoding="UTF-8"?>
<!DOCTYPE svg PUBLIC "-//W3C//DTD SVG 1.1//EN" "http://www.w3.org/Graphics/SVG/1.1/DTD/svg11.dtd">
<!-- Creator: CorelDRAW 2018 (64-Bit) -->
<svg xmlns="http://www.w3.org/2000/svg" xml:space="preserve" width="35px" height="35px" version="1.1" style="shape-rendering:geometricPrecision; text-rendering:geometricPrecision; image-rendering:optimizeQuality; fill-rule:evenodd; clip-rule:evenodd"
viewBox="0 0 1.77 1.77"
 xmlns:xlink="http://www.w3.org/1999/xlink">
 <defs>
  <style type="text/css">
   <![CDATA[
    .fil0 {fill:#088378}
   ]]>
  </style>
 </defs>
 <g id="Layer_x0020_1">
  <metadata id="CorelCorpID_0Corel-Layer"/>
  <path class="fil0" d="M0.38 1.42c0.13,0.13 0.31,0.2 0.51,0.2 0.09,0 0.17,-0.02 0.24,-0.04 0.1,-0.04 0.19,-0.09 0.26,-0.16l-0.15 -0.02c-0.03,0 -0.07,-0.02 -0.1,-0.05l-0.02 -0.03 -0.13 -0.05 0.07 -0.04c0.04,-0.01 0.06,-0.05 0.08,-0.08l0.03 -0.11c0.07,0 0.11,-0.04 0.11,-0.13 0,-0.08 -0.03,-0.12 -0.08,-0.12 0,-0.06 0.03,-0.15 0.03,-0.23 0,-0.19 -0.13,-0.26 -0.43,-0.26 -0.09,0 -0.13,0.04 -0.13,0.15 -0.08,0 -0.14,0.04 -0.14,0.11 0,0.08 0.04,0.17 0.04,0.23 -0.05,0 -0.09,0.04 -0.09,0.12 0,0.09 0.03,0.13 0.12,0.13l0.03 0.11c0.01,0.03 0.04,0.07 0.07,0.08l0.08 0.04 -0.13 0.05 -0.03 0.03c-0.02,0.03 -0.06,0.05 -0.1,0.05l-0.14 0.02zm0.51 0.35c-0.49,0 -0.89,-0.4 -0.89,-0.88 0,-0.49 0.4,-0.89 0.89,-0.89 0.48,0 0.88,0.4 0.88,0.89 0,0.48 -0.4,0.88 -0.88,0.88z"/>
 </g>
</svg>
