<?xml version="1.0" encoding="UTF-8"?>
<!DOCTYPE svg PUBLIC "-//W3C//DTD SVG 1.1//EN" "http://www.w3.org/Graphics/SVG/1.1/DTD/svg11.dtd">
<!-- Creator: CorelDRAW 2018 (64-Bit) -->
<svg xmlns="http://www.w3.org/2000/svg" xml:space="preserve" width="175px" height="90px" version="1.1" style="shape-rendering:geometricPrecision; text-rendering:geometricPrecision; image-rendering:optimizeQuality; fill-rule:evenodd; clip-rule:evenodd"
viewBox="0 0 981.25 505.15"
 xmlns:xlink="http://www.w3.org/1999/xlink">
 <defs>
  <style type="text/css">
   <![CDATA[
    .fil4 {fill:#EBBC0D}
    .fil5 {fill:#EBDA13}
    .fil6 {fill:#A2CB38}
    .fil1 {fill:#7DBB37}
    .fil7 {fill:#5BA997}
    .fil3 {fill:#088378}
    .fil2 {fill:#009B4C}
    .fil0 {fill:#088378;fill-rule:nonzero}
   ]]>
  </style>
 </defs>
 <g id="Layer_x0020_1">
  <metadata id="CorelCorpID_0Corel-Layer"/>
  <g id="_2519766937536">
   <g>
    <path class="fil0" d="M509.83 276.86l0 -17.21 -0.26 0 0 -93.66c0,-12.34 -1.74,-27.61 -13.18,-28.7l0 -4.25c31.55,0 49.25,6.78 49.25,37.35l0 19.28 23.88 0 0 32.95 -23.88 0 0 37.03 0 16.95c0,18.86 13.35,18.97 27.77,16.09l0 29.58c-38.88,12.96 -63.58,-6.54 -63.58,-45.41zm76.21 2.07l0 -44.37c0,-61.59 106.65,-65.19 106.65,-1.55l0 39.44 -70.32 0 0 5.97c0,19.15 32.26,20.71 41.26,5.7l23.62 17.13c-22.53,42.05 -101.21,30.52 -101.21,-22.32zm72.66 -45.41c0,-19.12 -36.33,-18.58 -36.33,0.26l0 11.94 36.33 0 0 -12.2zm124.18 -43.85l0 29.06c-12.89,-3.39 -35.55,-0.25 -35.55,16.61l0 88.75 -36.07 0 0 -89.27c0,-39.24 38.25,-52.73 71.62,-45.15zm84.19 0l0 29.06c-12.89,-3.39 -35.54,-0.24 -35.54,16.61l0 88.75 -36.07 0 0 -89.27c0,-39.24 38.24,-52.73 71.61,-45.15zm6.89 94.45c0,-39.9 39.18,-50.98 71.62,-39.7l0 -9.6c0,-27.06 -35.44,-20.55 -49.04,-6.23l-17.65 -18.94c32.19,-37.02 101.46,-28.02 101.46,25.17l0 82c-34.48,12.74 -106.39,21.65 -106.39,-32.7zm39.05 -12.84c-6.39,6.06 -6.58,17.56 0.26,23.35 7.05,5.98 22.74,4.68 31.27,2.47l0 -27.25c-8.56,-3.56 -24.48,-5.24 -31.53,1.43z"/>
    <path class="fil1" d="M85.39 240.86c-13.32,-15.33 -15.8,-36.92 1.75,-67.32 36.25,-62.78 82.68,-32.81 118.24,8.64 3.99,-1.06 8.12,-1.78 12.35,-2.15 -33.44,-53.57 -92.25,-85.6 -136.06,-57.07 7.75,14.23 8.13,32.04 -0.56,47.09 -8.7,15.07 -24.31,23.64 -40.51,24.04 -1.26,23.45 9.59,43.41 27.64,58.49 5.17,-4.32 10.91,-8.24 17.15,-11.72zm-80.09 -114.57c10.89,-18.88 35.02,-25.34 53.89,-14.44 18.86,10.89 25.33,35.02 14.43,53.89 -10.89,18.87 -35.02,25.33 -53.88,14.44 -18.87,-10.89 -25.34,-35.03 -14.44,-53.89z"/>
    <path class="fil2" d="M164.86 126.65c6.62,-19.2 24.07,-32.14 59.18,-32.14 72.49,0 69.75,55.2 51.63,106.72 2.94,2.97 5.63,6.18 8.03,9.61 29.68,-55.74 28.01,-122.68 -18.6,-146.36 -8.45,13.83 -23.68,23.06 -41.06,23.06 -17.4,0 -32.63,-9.23 -41.07,-23.06 -20.94,10.64 -32.8,30.01 -36.83,53.17 6.32,2.31 12.59,5.34 18.72,9zm59.17 -126.65c21.79,0 39.45,17.66 39.45,39.45 0,21.78 -17.66,39.45 -39.44,39.45 -21.79,0 -39.45,-17.67 -39.45,-39.45 0,-21.79 17.66,-39.45 39.44,-39.45z"/>
    <path class="fil3" d="M303.51 138.37c19.93,-3.87 39.87,4.78 57.42,35.17 36.24,62.78 -12.93,88.01 -66.6,98.08 -1.1,4.07 -2.55,8 -4.31,11.76 63.11,-2.17 120.24,-37.09 117.44,-89.29 -16.19,-0.4 -31.8,-8.97 -40.5,-24.04 -8.69,-15.05 -8.32,-32.86 -0.57,-47.09 -19.67,-12.81 -42.38,-13.4 -64.46,-5.31 1.15,6.64 1.68,13.58 1.58,20.72zm139.26 -12.08c10.9,18.86 4.43,43 -14.44,53.89 -18.87,10.89 -43,4.43 -53.89,-14.44 -10.89,-18.87 -4.43,-43 14.44,-53.89 18.87,-10.9 43,-4.44 53.89,14.44z"/>
    <path class="fil4" d="M362.68 264.3c13.31,15.32 15.8,36.92 -1.75,67.31 -36.25,62.79 -82.69,32.82 -118.24,-8.64 -3.99,1.06 -8.12,1.78 -12.35,2.15 33.43,53.57 92.25,85.6 136.05,57.07 -7.75,-14.23 -8.12,-32.04 0.57,-47.09 8.7,-15.06 24.31,-23.64 40.5,-24.04 1.26,-23.45 -9.58,-43.41 -27.63,-58.48 -5.17,4.31 -10.92,8.24 -17.15,11.72zm80.09 114.56c-10.89,18.88 -35.02,25.34 -53.89,14.44 -18.87,-10.89 -25.34,-35.01 -14.44,-53.89 10.89,-18.86 35.02,-25.33 53.89,-14.44 18.87,10.9 25.34,35.03 14.44,53.89z"/>
    <path class="fil5" d="M283.21 378.51c-6.62,19.19 -24.08,32.13 -59.17,32.13 -72.51,0 -69.76,-55.2 -51.64,-106.72 -2.94,-2.96 -5.63,-6.18 -8.03,-9.61 -29.68,55.74 -28.01,122.69 18.6,146.37 8.44,-13.83 23.68,-23.07 41.07,-23.07 17.39,0 32.61,9.24 41.06,23.07 20.93,-10.64 32.8,-30.02 36.83,-53.18 -6.32,-2.31 -12.59,-5.33 -18.72,-8.99zm-59.17 126.64c-21.79,0 -39.45,-17.66 -39.45,-39.45 0,-21.78 17.66,-39.45 39.45,-39.45 21.78,0 39.44,17.67 39.44,39.45 0,21.79 -17.66,39.45 -39.44,39.45z"/>
    <path class="fil6" d="M144.56 366.79c-19.93,3.87 -39.87,-4.78 -57.42,-35.18 -36.25,-62.78 12.92,-88.01 66.6,-98.07 1.1,-4.08 2.55,-8.01 4.3,-11.77 -63.1,2.17 -120.23,37.09 -117.44,89.29 16.2,0.4 31.81,8.98 40.51,24.04 8.69,15.05 8.31,32.86 0.56,47.09 19.68,12.82 42.39,13.4 64.47,5.31 -1.16,-6.63 -1.68,-13.57 -1.58,-20.71zm-139.26 12.07c-10.9,-18.86 -4.43,-42.99 14.44,-53.89 18.86,-10.89 42.99,-4.42 53.88,14.44 10.9,18.88 4.43,43 -14.43,53.89 -18.88,10.9 -43,4.44 -53.89,-14.44z"/>
    <path class="fil7" d="M224.04 179.76c40.21,0 72.81,32.6 72.81,72.82 0,40.21 -32.6,72.81 -72.81,72.81 -40.22,0 -72.83,-32.6 -72.83,-72.81 0,-40.22 32.61,-72.82 72.83,-72.82zm8.64 124.05c0,0 -3.18,-7.69 15.4,-15.96 18.58,-8.27 21.02,-11.97 26.64,-26.8 5.63,-14.82 6.61,-17.95 6.61,-17.95 0,0 -21.28,-6.28 -35.21,0.85 -13.93,7.13 -17.36,19.39 -18.82,25.66 -1.47,6.27 -1.22,18.81 -1.22,18.81 0,0 6.84,-19.67 15.89,-26.8 9.04,-7.12 20.78,-8.83 20.78,-8.83 0,0 -36.52,26.18 -30.07,51.02zm-11.67 -52.16c0,0 -16.13,-8.55 -13.45,-30.51 2.69,-21.95 15.65,-30.22 15.65,-30.22 0,0 16.38,11.41 16.87,30.51 0.49,19.1 -11.73,30.5 -11.73,30.5l-4.9 -42.48c0,0 -2.68,18.82 -2.44,42.2zm-5.62 52.16c0,0 3.18,-7.69 -15.4,-15.96 -18.58,-8.27 -21.03,-11.97 -26.65,-26.8 -5.62,-14.82 -6.6,-17.95 -6.6,-17.95 0,0 21.27,-6.28 35.2,0.85 13.94,7.13 17.36,19.39 18.83,25.66 1.46,6.27 1.22,18.81 1.22,18.81 0,0 -6.84,-19.67 -15.89,-26.8 -9.04,-7.12 -20.78,-8.83 -20.78,-8.83 0,0 36.51,26.18 30.07,51.02z"/>
   </g>
   <polygon class="fil0" points="515.34,374.05 509.87,374.05 509.87,340.69 515.34,340.69 515.34,354.69 530.18,354.69 530.18,340.69 535.65,340.69 535.65,374.05 530.18,374.05 530.18,360.1 515.34,360.1 "/>
   <path id="1" class="fil0" d="M557.54 357.37c0,-0.59 -0.14,-1.13 -0.43,-1.58 -0.28,-0.45 -0.65,-0.83 -1.12,-1.13 -0.48,-0.3 -1.02,-0.52 -1.63,-0.66 -0.62,-0.14 -1.25,-0.21 -1.91,-0.21 -0.97,0 -1.91,0.16 -2.83,0.49 -0.91,0.33 -1.68,0.84 -2.31,1.53l-2.92 -3.01c1.32,-1.47 2.71,-2.45 4.17,-2.92 1.47,-0.47 2.98,-0.71 4.55,-0.71 1.19,0 2.36,0.17 3.51,0.5 1.15,0.32 2.18,0.82 3.08,1.48 0.92,0.66 1.65,1.5 2.2,2.5 0.55,1 0.82,2.2 0.82,3.58l0 15.64c-1.13,0.45 -2.51,0.83 -4.12,1.15 -1.62,0.34 -3.32,0.5 -5.11,0.5 -1.29,0 -2.53,-0.12 -3.73,-0.35 -1.19,-0.24 -2.24,-0.64 -3.16,-1.2 -0.9,-0.57 -1.65,-1.33 -2.21,-2.29 -0.56,-0.96 -0.85,-2.16 -0.85,-3.6 0,-1.36 0.26,-2.52 0.78,-3.49 0.52,-0.97 1.2,-1.78 2.05,-2.43 0.85,-0.64 1.81,-1.12 2.9,-1.43 1.08,-0.32 2.19,-0.48 3.32,-0.48 0.88,0 1.74,0.08 2.59,0.24 0.85,0.16 1.63,0.39 2.36,0.71l0 -2.83zm-4.19 6.03c-1.51,0 -2.67,0.34 -3.49,1.01 -0.82,0.68 -1.23,1.55 -1.23,2.62 0,0.56 0.13,1.05 0.38,1.46 0.25,0.41 0.59,0.74 1.02,0.99 0.42,0.25 0.9,0.43 1.43,0.54 0.53,0.11 1.1,0.17 1.69,0.17 0.85,0 1.66,-0.05 2.41,-0.14 0.76,-0.1 1.41,-0.22 1.98,-0.38l0 -5.42c-0.53,-0.25 -1.17,-0.45 -1.91,-0.61 -0.74,-0.16 -1.5,-0.24 -2.28,-0.24z"/>
   <path id="2" class="fil0" d="M580.41 349.17c0.42,0 0.85,0.01 1.3,0.05 0.46,0.03 0.95,0.11 1.49,0.24l0 4.56c-0.57,-0.16 -1.19,-0.23 -1.89,-0.23 -0.09,0 -0.2,0 -0.33,0 -0.82,0.03 -1.57,0.19 -2.28,0.49 -0.71,0.3 -1.3,0.73 -1.77,1.3 -0.47,0.57 -0.71,1.25 -0.71,2.07l0 16.4 -5.18 0 0 -16.49c0,-1.76 0.42,-3.25 1.27,-4.48 0.85,-1.22 1.93,-2.18 3.25,-2.87 0.38,-0.19 0.81,-0.36 1.3,-0.5 0.48,-0.14 0.96,-0.25 1.43,-0.33 0.48,-0.08 0.9,-0.13 1.28,-0.16 0.37,-0.04 0.66,-0.05 0.84,-0.05z"/>
   <polygon id="3" class="fil0" points="604.47,349.64 609.98,349.64 601.32,374.05 595.99,374.05 587.37,349.64 592.83,349.64 597.73,363.88 598.53,368.73 598.86,368.73 599.71,363.88 "/>
   <path id="4" class="fil0" d="M624.71 374.52c-1.19,0 -2.37,-0.17 -3.53,-0.52 -1.17,-0.34 -2.2,-0.87 -3.11,-1.57 -0.92,-0.71 -1.65,-1.58 -2.2,-2.62 -0.55,-1.04 -0.82,-2.26 -0.82,-3.67l0 -8.58c0,-1.41 0.27,-2.65 0.82,-3.7 0.55,-1.06 1.28,-1.92 2.2,-2.61 0.91,-0.7 1.94,-1.22 3.11,-1.56 1.16,-0.35 2.34,-0.52 3.53,-0.52 1.16,0 2.31,0.17 3.46,0.52 1.15,0.34 2.17,0.86 3.06,1.56 0.9,0.69 1.62,1.55 2.17,2.61 0.55,1.05 0.83,2.29 0.83,3.7l0 6.69 -13.95 0 0 1.69c0,0.57 0.13,1.06 0.37,1.49 0.26,0.42 0.58,0.79 0.97,1.11 0.39,0.31 0.85,0.55 1.37,0.7 0.52,0.16 1.06,0.24 1.63,0.24 0.91,0 1.77,-0.18 2.61,-0.54 0.84,-0.36 1.47,-1 1.91,-1.91l4.34 2.5c-0.48,0.85 -1.05,1.58 -1.73,2.19 -0.67,0.61 -1.39,1.13 -2.17,1.56 -0.77,0.42 -1.57,0.73 -2.42,0.94 -0.85,0.2 -1.67,0.3 -2.45,0.3zm4.52 -16.87c0,-0.56 -0.12,-1.06 -0.38,-1.48 -0.25,-0.42 -0.59,-0.79 -1.01,-1.09 -0.42,-0.29 -0.9,-0.51 -1.43,-0.65 -0.54,-0.15 -1.09,-0.21 -1.65,-0.21 -0.57,0 -1.13,0.06 -1.67,0.21 -0.55,0.14 -1.04,0.36 -1.47,0.65 -0.42,0.3 -0.76,0.67 -1.01,1.11 -0.25,0.44 -0.36,0.96 -0.33,1.56l0 2.21 8.95 0 0 -2.31z"/>
   <path id="5" class="fil0" d="M650.17 369.72c0.04,0 0.08,0 0.14,0 0.89,0 1.64,-0.23 2.27,-0.69 0.62,-0.45 0.97,-1.14 1.03,-2.05 0,-0.44 -0.11,-0.8 -0.35,-1.1 -0.24,-0.3 -0.54,-0.55 -0.92,-0.76 -0.38,-0.2 -0.79,-0.37 -1.24,-0.5 -0.46,-0.12 -0.89,-0.23 -1.3,-0.32 -0.85,-0.16 -1.79,-0.4 -2.81,-0.71 -1.02,-0.31 -1.96,-0.76 -2.82,-1.32 -0.87,-0.56 -1.59,-1.31 -2.17,-2.21 -0.58,-0.91 -0.87,-2.06 -0.87,-3.44 0,-1.36 0.28,-2.5 0.84,-3.44 0.57,-0.95 1.28,-1.71 2.15,-2.31 0.86,-0.6 1.84,-1.03 2.92,-1.3 1.09,-0.27 2.15,-0.4 3.18,-0.4 1.32,0 2.68,0.29 4.08,0.85 1.4,0.56 2.69,1.45 3.88,2.64l-3.11 3.39c-0.69,-0.69 -1.53,-1.21 -2.52,-1.56 -0.98,-0.34 -1.94,-0.51 -2.85,-0.51 -0.9,0 -1.69,0.18 -2.35,0.54 -0.66,0.36 -1.02,0.92 -1.09,1.67 -0.06,0.54 0.04,1 0.31,1.39 0.27,0.4 0.62,0.72 1.06,0.97 0.44,0.25 0.93,0.45 1.48,0.61 0.55,0.16 1.08,0.29 1.58,0.38 0.98,0.15 1.94,0.38 2.9,0.68 0.96,0.3 1.81,0.73 2.57,1.3 0.75,0.57 1.37,1.27 1.86,2.14 0.49,0.86 0.73,1.94 0.73,3.23 0,1.29 -0.24,2.41 -0.71,3.37 -0.47,0.95 -1.1,1.75 -1.88,2.38 -0.79,0.63 -1.7,1.11 -2.73,1.44 -1.04,0.32 -2.11,0.49 -3.21,0.49 -0.97,0 -1.94,-0.12 -2.9,-0.35 -0.96,-0.24 -1.87,-0.6 -2.73,-1.09 -0.87,-0.48 -1.65,-1.09 -2.36,-1.84 -0.7,-0.73 -1.28,-1.59 -1.71,-2.56l3.86 -2.5c0.66,1.16 1.55,2.04 2.69,2.64 1.06,0.56 2.1,0.85 3.1,0.85z"/>
   <path id="6" class="fil0" d="M674.7 374.52c-1.19,0 -2.32,-0.16 -3.37,-0.5 -1.05,-0.32 -1.97,-0.84 -2.75,-1.55 -0.79,-0.71 -1.4,-1.61 -1.85,-2.71 -0.43,-1.1 -0.65,-2.42 -0.65,-3.96l0 -21.91 4.66 0 0.48 5.75 4.66 0 0 4.72 -4.66 0 0 11.4c0,0.97 0.14,1.73 0.44,2.28 0.3,0.56 0.7,0.96 1.2,1.23 0.5,0.27 1.08,0.43 1.72,0.49 0.65,0.07 1.33,0.09 2.05,0.09l0 4.53c-0.65,0.1 -1.3,0.14 -1.93,0.14z"/>
   <path id="7" class="fil0" d="M682.88 343.52c0,-0.98 0.31,-1.79 0.96,-2.46 0.64,-0.65 1.45,-0.98 2.42,-0.98 0.98,0 1.79,0.33 2.46,0.98 0.65,0.67 0.98,1.48 0.98,2.46 0,0.97 -0.33,1.79 -0.98,2.45 -0.67,0.66 -1.48,0.99 -2.46,0.99 -0.97,0 -1.78,-0.33 -2.42,-0.99 -0.65,-0.66 -0.96,-1.48 -0.96,-2.45zm5.93 30.53l-5.32 0 0 -24.36 5.32 0 0 24.36z"/>
   <path id="8" class="fil0" d="M716.63 357.84l0 16.21 -5.13 0 0 -16.16c-0.04,-0.69 -0.22,-1.28 -0.55,-1.77 -0.32,-0.49 -0.73,-0.88 -1.22,-1.2 -0.49,-0.31 -1.04,-0.54 -1.65,-0.68 -0.62,-0.14 -1.23,-0.22 -1.86,-0.22 -0.66,0 -1.29,0.08 -1.91,0.22 -0.61,0.14 -1.14,0.35 -1.58,0.63l0 19.18 -5.18 0 0 -22.9c1.19,-0.63 2.51,-1.11 3.95,-1.44 1.45,-0.33 2.92,-0.51 4.39,-0.54 1.38,0 2.72,0.16 4.03,0.47 1.3,0.31 2.45,0.82 3.44,1.51 0.99,0.69 1.78,1.59 2.38,2.69 0.59,1.1 0.89,2.43 0.89,4z"/>
   <path id="9" class="fil0" d="M734.04 379.04c0.63,0 1.22,-0.09 1.77,-0.28 0.55,-0.19 1.04,-0.49 1.46,-0.92 0.42,-0.42 0.76,-0.98 1.01,-1.67 0.26,-0.69 0.38,-1.54 0.38,-2.54 -0.72,0.31 -1.46,0.54 -2.21,0.68 -0.76,0.14 -1.51,0.21 -2.26,0.21 -1.23,0 -2.42,-0.18 -3.59,-0.56 -1.16,-0.38 -2.19,-0.92 -3.08,-1.63 -0.9,-0.71 -1.61,-1.59 -2.15,-2.63 -0.53,-1.06 -0.8,-2.28 -0.8,-3.66l0 -8.29c0,-1.48 0.29,-2.76 0.87,-3.85 0.59,-1.08 1.35,-1.96 2.29,-2.65 0.94,-0.7 2.04,-1.22 3.28,-1.56 1.23,-0.35 2.51,-0.52 3.83,-0.52 1.61,0 3.19,0.25 4.76,0.73 1.57,0.49 2.91,1.14 4.01,1.96l0 22.66c0,1.54 -0.27,2.88 -0.8,4.01 -0.54,1.13 -1.25,2.06 -2.15,2.78 -0.89,0.72 -1.91,1.26 -3.03,1.62 -1.14,0.36 -2.32,0.55 -3.54,0.55 -0.91,0 -1.81,-0.09 -2.71,-0.26 -0.89,-0.18 -1.75,-0.44 -2.57,-0.8 -0.81,-0.37 -1.57,-0.82 -2.26,-1.37 -0.69,-0.55 -1.27,-1.19 -1.74,-1.91l3.11 -2.97c0.69,0.91 1.59,1.62 2.71,2.12 1.11,0.51 2.25,0.75 3.41,0.75zm0.57 -25.11c-0.63,0 -1.23,0.08 -1.81,0.23 -0.59,0.16 -1.1,0.39 -1.54,0.69 -0.43,0.3 -0.8,0.69 -1.08,1.18 -0.28,0.49 -0.42,1.06 -0.42,1.72l0 8.34c0.03,0.63 0.18,1.17 0.47,1.65 0.28,0.47 0.64,0.87 1.08,1.2 0.44,0.33 0.94,0.57 1.51,0.73 0.57,0.16 1.15,0.23 1.75,0.23 0.72,0 1.42,-0.09 2.11,-0.28 0.7,-0.19 1.29,-0.45 1.8,-0.8l0 -13.9c-0.48,-0.35 -1.06,-0.6 -1.75,-0.76 -0.69,-0.15 -1.4,-0.23 -2.12,-0.23z"/>
   <path id="10" class="fil0" d="M770.21 374.52c-1.19,0 -2.32,-0.16 -3.37,-0.5 -1.05,-0.32 -1.97,-0.84 -2.75,-1.55 -0.79,-0.71 -1.4,-1.61 -1.85,-2.71 -0.44,-1.1 -0.65,-2.42 -0.65,-3.96l0 -21.91 4.66 0 0.47 5.75 4.66 0 0 4.72 -4.66 0 0 11.4c0,0.97 0.15,1.73 0.45,2.28 0.3,0.56 0.7,0.96 1.2,1.23 0.5,0.27 1.08,0.43 1.72,0.49 0.64,0.07 1.33,0.09 2.05,0.09l0 4.53c-0.66,0.1 -1.31,0.14 -1.93,0.14z"/>
   <path id="11" class="fil0" d="M788.75 349.17c0.12,0 0.27,0 0.42,0 1.17,0 2.29,0.17 3.37,0.52 1.09,0.34 2.05,0.87 2.9,1.58 0.85,0.71 1.53,1.59 2.05,2.66 0.52,1.07 0.78,2.33 0.78,3.77l0 16.35 -5.14 0 0 -16.4c0,-1.07 -0.33,-1.89 -0.99,-2.47 -0.66,-0.58 -1.44,-0.95 -2.35,-1.11 -0.47,-0.09 -0.96,-0.14 -1.44,-0.14 -0.49,0 -0.98,0.05 -1.49,0.14 -1,0.16 -1.85,0.46 -2.54,0.9l0 19.08 -5.19 0 0 -33.36 5.19 0 0 9.42c1.41,-0.63 2.89,-0.94 4.43,-0.94z"/>
   <path id="12" class="fil0" d="M815.87 374.52c-1.2,0 -2.38,-0.17 -3.54,-0.52 -1.16,-0.34 -2.2,-0.87 -3.11,-1.57 -0.91,-0.71 -1.64,-1.58 -2.19,-2.62 -0.55,-1.04 -0.82,-2.26 -0.82,-3.67l0 -8.58c0,-1.41 0.27,-2.65 0.82,-3.7 0.55,-1.06 1.28,-1.92 2.19,-2.61 0.91,-0.7 1.95,-1.22 3.11,-1.56 1.16,-0.35 2.34,-0.52 3.54,-0.52 1.16,0 2.31,0.17 3.46,0.52 1.14,0.34 2.16,0.86 3.06,1.56 0.89,0.69 1.62,1.55 2.17,2.61 0.55,1.05 0.83,2.29 0.83,3.7l0 6.69 -13.95 0 0 1.69c0,0.57 0.12,1.06 0.37,1.49 0.25,0.42 0.58,0.79 0.97,1.11 0.39,0.31 0.85,0.55 1.36,0.7 0.53,0.16 1.06,0.24 1.63,0.24 0.91,0 1.78,-0.18 2.62,-0.54 0.83,-0.36 1.47,-1 1.91,-1.91l4.33 2.5c-0.47,0.85 -1.05,1.58 -1.72,2.19 -0.67,0.61 -1.4,1.13 -2.17,1.56 -0.77,0.42 -1.58,0.73 -2.43,0.94 -0.85,0.2 -1.66,0.3 -2.44,0.3zm4.52 -16.87c0,-0.56 -0.13,-1.06 -0.38,-1.48 -0.25,-0.42 -0.59,-0.79 -1.01,-1.09 -0.43,-0.29 -0.91,-0.51 -1.44,-0.65 -0.53,-0.15 -1.08,-0.21 -1.65,-0.21 -0.56,0 -1.12,0.06 -1.67,0.21 -0.55,0.14 -1.04,0.36 -1.46,0.65 -0.43,0.3 -0.76,0.67 -1.02,1.11 -0.25,0.44 -0.35,0.96 -0.32,1.56l0 2.21 8.95 0 0 -2.31z"/>
   <polygon id="13" class="fil0" points="848.45,355.54 862.91,355.54 862.91,361 848.45,361 848.45,374.05 842.98,374.05 842.98,340.69 864.94,340.69 864.94,346.16 848.45,346.16 "/>
   <path id="14" class="fil0" d="M881.26 374.52c-1.31,0 -2.57,-0.16 -3.76,-0.47 -1.2,-0.31 -2.23,-0.81 -3.12,-1.5 -0.87,-0.7 -1.57,-1.57 -2.09,-2.65 -0.52,-1.07 -0.78,-2.35 -0.78,-3.86l0 -16.4 5.19 0 0 16.5c0.02,0.69 0.2,1.28 0.51,1.76 0.32,0.49 0.72,0.89 1.2,1.21 0.49,0.31 1.04,0.55 1.65,0.7 0.61,0.16 1.25,0.24 1.91,0.24 0.63,0 1.25,-0.08 1.87,-0.24 0.61,-0.15 1.16,-0.36 1.67,-0.61l0 -19.56 5.14 0 0 22.85c-1.52,0.63 -3.07,1.13 -4.67,1.49 -1.61,0.36 -3.18,0.54 -4.72,0.54z"/>
   <path id="15" class="fil0" d="M907.82 374.52c-1.19,0 -2.32,-0.16 -3.37,-0.5 -1.05,-0.32 -1.97,-0.84 -2.75,-1.55 -0.79,-0.71 -1.4,-1.61 -1.85,-2.71 -0.43,-1.1 -0.65,-2.42 -0.65,-3.96l0 -21.91 4.66 0 0.47 5.75 4.66 0 0 4.72 -4.66 0 0 11.4c0,0.97 0.15,1.73 0.45,2.28 0.3,0.56 0.7,0.96 1.2,1.23 0.5,0.27 1.08,0.43 1.72,0.49 0.65,0.07 1.33,0.09 2.05,0.09l0 4.53c-0.66,0.1 -1.31,0.14 -1.93,0.14z"/>
   <path id="16" class="fil0" d="M926.31 374.52c-1.32,0 -2.57,-0.16 -3.76,-0.47 -1.2,-0.31 -2.24,-0.81 -3.12,-1.5 -0.88,-0.7 -1.58,-1.57 -2.1,-2.65 -0.51,-1.07 -0.77,-2.35 -0.77,-3.86l0 -16.4 5.18 0 0 16.5c0.03,0.69 0.21,1.28 0.52,1.76 0.31,0.49 0.72,0.89 1.2,1.21 0.49,0.31 1.04,0.55 1.65,0.7 0.61,0.16 1.25,0.24 1.91,0.24 0.63,0 1.25,-0.08 1.86,-0.24 0.61,-0.15 1.17,-0.36 1.67,-0.61l0 -19.56 5.14 0 0 22.85c-1.51,0.63 -3.06,1.13 -4.67,1.49 -1.6,0.36 -3.17,0.54 -4.71,0.54z"/>
   <path id="17" class="fil0" d="M953.62 349.17c0.41,0 0.84,0.01 1.3,0.05 0.45,0.03 0.94,0.11 1.48,0.24l0 4.56c-0.57,-0.16 -1.19,-0.23 -1.89,-0.23 -0.09,0 -0.2,0 -0.32,0 -0.83,0.03 -1.58,0.19 -2.29,0.49 -0.71,0.3 -1.3,0.73 -1.77,1.3 -0.47,0.57 -0.7,1.25 -0.7,2.07l0 16.4 -5.19 0 0 -16.49c0,-1.76 0.43,-3.25 1.28,-4.48 0.84,-1.22 1.92,-2.18 3.24,-2.87 0.38,-0.19 0.81,-0.36 1.3,-0.5 0.49,-0.14 0.96,-0.25 1.44,-0.33 0.47,-0.08 0.9,-0.13 1.27,-0.16 0.38,-0.04 0.66,-0.05 0.85,-0.05z"/>
   <path id="18" class="fil0" d="M971.73 374.52c-1.19,0 -2.37,-0.17 -3.53,-0.52 -1.17,-0.34 -2.2,-0.87 -3.11,-1.57 -0.91,-0.71 -1.64,-1.58 -2.19,-2.62 -0.55,-1.04 -0.82,-2.26 -0.82,-3.67l0 -8.58c0,-1.41 0.27,-2.65 0.82,-3.7 0.55,-1.06 1.28,-1.92 2.19,-2.61 0.91,-0.7 1.94,-1.22 3.11,-1.56 1.16,-0.35 2.34,-0.52 3.53,-0.52 1.16,0 2.32,0.17 3.47,0.52 1.14,0.34 2.16,0.86 3.06,1.56 0.89,0.69 1.62,1.55 2.17,2.61 0.55,1.05 0.82,2.29 0.82,3.7l0 6.69 -13.94 0 0 1.69c0,0.57 0.12,1.06 0.37,1.49 0.25,0.42 0.57,0.79 0.97,1.11 0.39,0.31 0.84,0.55 1.36,0.7 0.52,0.16 1.06,0.24 1.63,0.24 0.91,0 1.78,-0.18 2.61,-0.54 0.84,-0.36 1.48,-1 1.91,-1.91l4.34 2.5c-0.47,0.85 -1.05,1.58 -1.73,2.19 -0.66,0.61 -1.39,1.13 -2.16,1.56 -0.77,0.42 -1.58,0.73 -2.43,0.94 -0.85,0.2 -1.66,0.3 -2.45,0.3zm4.53 -16.87c0,-0.56 -0.13,-1.06 -0.38,-1.48 -0.25,-0.42 -0.59,-0.79 -1.02,-1.09 -0.42,-0.29 -0.9,-0.51 -1.43,-0.65 -0.54,-0.15 -1.09,-0.21 -1.65,-0.21 -0.56,0 -1.13,0.06 -1.67,0.21 -0.55,0.14 -1.04,0.36 -1.46,0.65 -0.43,0.3 -0.77,0.67 -1.02,1.11 -0.25,0.44 -0.36,0.96 -0.32,1.56l0 2.21 8.95 0 0 -2.31z"/>
  </g>
 </g>
</svg>
