<?xml version="1.0" encoding="UTF-8"?>
<!DOCTYPE svg PUBLIC "-//W3C//DTD SVG 1.1//EN" "http://www.w3.org/Graphics/SVG/1.1/DTD/svg11.dtd">
<!-- Creator: CorelDRAW 2018 (64-Bit) -->
<svg xmlns="http://www.w3.org/2000/svg" xml:space="preserve" width="90px" height="90px" version="1.1" style="shape-rendering:geometricPrecision; text-rendering:geometricPrecision; image-rendering:optimizeQuality; fill-rule:evenodd; clip-rule:evenodd"
viewBox="0 0 5.39 5.39"
 xmlns:xlink="http://www.w3.org/1999/xlink">
 <defs>
  <style type="text/css">
   <![CDATA[
    .fil0 {fill:#088378}
   ]]>
  </style>
 </defs>
 <g id="Layer_x0020_1">
  <metadata id="CorelCorpID_0Corel-Layer"/>
  <path class="fil0" d="M2.69 0c0.75,0 1.42,0.3 1.91,0.79 0.49,0.49 0.79,1.16 0.79,1.9 0,0.75 -0.3,1.42 -0.79,1.91 -0.49,0.49 -1.16,0.79 -1.91,0.79 -0.74,0 -1.41,-0.3 -1.9,-0.79 -0.49,-0.49 -0.79,-1.16 -0.79,-1.91 0,-0.74 0.3,-1.41 0.79,-1.9 0.49,-0.49 1.16,-0.79 1.9,-0.79zm-1.73 1.28c-0.02,0.01 -0.03,0.02 -0.04,0.04 -0.01,0.02 -0.02,0.04 -0.02,0.05 0,0.03 0.03,0.08 0.05,0.09 0.02,0.02 0.03,0.02 0.23,0.02l0.22 0.01 0.04 0.17c0.32,1.43 0.39,1.72 0.39,1.74 0,0 -0.05,0.14 -0.12,0.31 -0.13,0.32 -0.14,0.34 -0.11,0.39 0.03,0.05 0.05,0.05 0.24,0.05l0.16 0 0 0.03c0,0.08 0.05,0.19 0.12,0.26 0.15,0.15 0.4,0.15 0.55,-0.02 0.06,-0.06 0.1,-0.14 0.11,-0.23l0 -0.04 0.19 0 0.18 0 0 0.03c0,0.1 0.07,0.23 0.16,0.3 0.15,0.11 0.35,0.09 0.49,-0.03 0.07,-0.07 0.11,-0.15 0.13,-0.26l0 -0.04 0.09 0c0.11,0 0.13,-0.01 0.16,-0.06 0.02,-0.04 0.02,-0.06 0,-0.1 -0.02,-0.05 -0.05,-0.06 -0.19,-0.06l-0.12 0 -0.03 -0.03c-0.04,-0.06 -0.13,-0.12 -0.21,-0.14 -0.04,-0.01 -0.14,-0.01 -0.18,0 -0.08,0.02 -0.19,0.09 -0.23,0.15l-0.01 0.02 -0.24 0 -0.25 0 -0.03 -0.03c-0.06,-0.09 -0.18,-0.15 -0.3,-0.15 -0.12,0 -0.19,0.03 -0.28,0.12l-0.06 0.06 -0.1 0 -0.1 0 0.09 -0.23c0.05,-0.13 0.1,-0.25 0.1,-0.26 0.01,-0.03 0.01,-0.04 -0.02,-0.18 -0.02,-0.09 -0.03,-0.16 -0.03,-0.16 0,0 0.15,-0.02 0.32,-0.04 0.8,-0.09 1.51,-0.17 1.52,-0.17 0.04,-0.01 0.06,-0.03 0.07,-0.06 0.01,-0.02 0.07,-0.28 0.13,-0.6l0.11 -0.57 -0.02 -0.03c-0.01,-0.05 -0.04,-0.06 -0.09,-0.06 -0.04,0 -0.08,0.02 -0.09,0.05l-0.01 0.03 -1.14 0c-1.08,0 -1.14,0 -1.14,-0.01 -0.01,-0.01 -0.02,-0.08 -0.04,-0.16 -0.02,-0.08 -0.04,-0.15 -0.05,-0.17 0,-0.01 -0.02,-0.02 -0.04,-0.03 -0.03,-0.02 -0.05,-0.02 -0.28,-0.02 -0.22,0 -0.25,0 -0.28,0.02zm1.12 0.61c0.01,0.05 0.05,0.34 0.04,0.35 0,0.01 -0.03,0.01 -0.13,0.01 -0.07,0.01 -0.14,0.01 -0.16,0.01l-0.04 0.01 -0.04 -0.19c-0.03,-0.1 -0.05,-0.19 -0.05,-0.2 0,-0.01 0.01,-0.01 0.19,-0.01l0.19 0 0 0.02zm0.61 0.15l0 0.18 -0.17 0.01c-0.1,0 -0.18,0 -0.18,0 0,0 -0.05,-0.34 -0.05,-0.36 0,0 0.09,0 0.2,0l0.21 0 -0.01 0.17zm0.59 -0.16c0,0.01 -0.02,0.25 -0.03,0.28l0 0.03 -0.11 0c-0.06,0.01 -0.14,0.01 -0.18,0.01l-0.06 0.01 0 -0.17 0 -0.17 0.19 0c0.14,0 0.19,0 0.19,0.01zm0.6 0c0,0 -0.01,0.07 -0.03,0.14l-0.02 0.14 -0.18 0.01c-0.1,0 -0.18,0.01 -0.18,0 -0.01,0 0.01,-0.23 0.02,-0.28l0 -0.02 0.2 0c0.15,0 0.19,0 0.19,0.01zm-0.1 0.51c0,0.01 -0.01,0.08 -0.03,0.15 -0.01,0.08 -0.03,0.14 -0.03,0.14 0,0.01 -0.3,0.04 -0.3,0.04 -0.01,-0.01 0.02,-0.32 0.02,-0.32 0.01,0 0.22,-0.02 0.28,-0.02 0.06,0 0.07,0 0.06,0.01zm-0.55 0.04c0,0.05 -0.03,0.3 -0.03,0.31 -0.01,0 -0.07,0.01 -0.14,0.02 -0.07,0 -0.13,0.01 -0.14,0.01l-0.02 0.01 0 -0.18 0 -0.17 0.02 -0.01c0.01,0 0.05,0 0.1,0 0.04,0 0.11,-0.01 0.15,-0.01 0.06,0 0.06,0 0.06,0.02zm-0.54 0.19l0.01 0.18 -0.04 0c-0.07,0.01 -0.24,0.03 -0.25,0.03 0,-0.01 -0.04,-0.37 -0.04,-0.37 0,-0.01 0.28,-0.03 0.31,-0.02 0.01,0 0.01,0.02 0.01,0.18zm-0.54 -0.16c0.01,0.07 0.05,0.39 0.05,0.39 -0.01,0.01 -0.26,0.03 -0.26,0.03 -0.01,-0.01 -0.03,-0.1 -0.05,-0.2 -0.03,-0.13 -0.05,-0.2 -0.04,-0.2 0,0 0.06,-0.01 0.13,-0.01 0.15,-0.01 0.17,-0.01 0.17,-0.01zm0.32 1.52c0.04,0.02 0.08,0.08 0.09,0.11 0.03,0.09 -0.01,0.17 -0.08,0.22 -0.13,0.07 -0.29,-0.03 -0.27,-0.18 0.01,-0.08 0.06,-0.14 0.15,-0.16 0.03,-0.01 0.08,0 0.11,0.01zm1.16 0.01c0.06,0.03 0.09,0.09 0.09,0.16 0,0.1 -0.07,0.17 -0.17,0.18 -0.12,0.01 -0.22,-0.11 -0.19,-0.22 0.03,-0.12 0.16,-0.18 0.27,-0.12zm0.86 -3.09c-0.46,-0.46 -1.09,-0.74 -1.8,-0.74 -0.7,0 -1.33,0.28 -1.79,0.74 -0.46,0.46 -0.74,1.09 -0.74,1.79 0,0.71 0.28,1.34 0.74,1.8 0.46,0.46 1.09,0.74 1.79,0.74 0.71,0 1.34,-0.28 1.8,-0.74 0.46,-0.46 0.74,-1.09 0.74,-1.8 0,-0.7 -0.28,-1.33 -0.74,-1.79z"/>
 </g>
</svg>
