<?xml version="1.0" encoding="UTF-8"?>
<!DOCTYPE svg PUBLIC "-//W3C//DTD SVG 1.1//EN" "http://www.w3.org/Graphics/SVG/1.1/DTD/svg11.dtd">
<!-- Creator: CorelDRAW 2018 (64-Bit) -->
<svg xmlns="http://www.w3.org/2000/svg" xml:space="preserve" width="90px" height="90px" version="1.1" style="shape-rendering:geometricPrecision; text-rendering:geometricPrecision; image-rendering:optimizeQuality; fill-rule:evenodd; clip-rule:evenodd"
viewBox="0 0 4.59 4.59"
 xmlns:xlink="http://www.w3.org/1999/xlink">
 <defs>
  <style type="text/css">
   <![CDATA[
    .fil0 {fill:#EEEEEF}
   ]]>
  </style>
 </defs>
 <g id="Layer_x0020_1">
  <metadata id="CorelCorpID_0Corel-Layer"/>
  <path class="fil0" d="M2.29 0c0.64,0 1.21,0.26 1.63,0.67 0.41,0.42 0.67,0.99 0.67,1.62 0,0.64 -0.26,1.21 -0.67,1.63 -0.42,0.41 -0.99,0.67 -1.63,0.67 -0.63,0 -1.2,-0.26 -1.62,-0.67 -0.41,-0.42 -0.67,-0.99 -0.67,-1.63 0,-0.63 0.26,-1.2 0.67,-1.62 0.42,-0.41 0.99,-0.67 1.62,-0.67zm1.49 2.12c-0.14,-0.15 -0.33,-0.25 -0.52,-0.3 0.02,-0.02 0.04,-0.04 0.07,-0.06 0.2,-0.2 0.31,-0.48 0.31,-0.76 0,-0.07 -0.05,-0.12 -0.11,-0.12 -0.33,0 -0.63,0.15 -0.83,0.39 -0.04,-0.2 -0.14,-0.38 -0.29,-0.53 -0.02,-0.02 -0.05,-0.03 -0.08,-0.03 -0.03,0 -0.06,0.01 -0.08,0.03 -0.15,0.16 -0.26,0.36 -0.3,0.57 -0.01,-0.02 -0.03,-0.03 -0.05,-0.05 -0.02,-0.02 -0.05,-0.04 -0.08,-0.04 -0.03,0 -0.06,0.02 -0.08,0.04 -0.16,0.16 -0.26,0.36 -0.3,0.57 -0.01,-0.02 -0.03,-0.04 -0.05,-0.06 -0.05,-0.05 -0.12,-0.05 -0.16,0 -0.4,0.39 -0.42,1.02 -0.08,1.44l-0.49 0.5c-0.33,-0.38 -0.53,-0.87 -0.53,-1.42 0,-0.59 0.24,-1.13 0.64,-1.52 0.39,-0.4 0.93,-0.64 1.52,-0.64 0.6,0 1.14,0.24 1.53,0.64 0.39,0.39 0.64,0.93 0.64,1.52 0,0.6 -0.25,1.14 -0.64,1.53 -0.39,0.39 -0.93,0.64 -1.53,0.64 -0.57,0 -1.09,-0.23 -1.47,-0.59l0 0 0.49 -0.5c0.19,0.16 0.43,0.24 0.68,0.24l0 0c0.29,0 0.56,-0.11 0.77,-0.31 0.02,-0.02 0.03,-0.05 0.03,-0.08 0,-0.03 -0.01,-0.06 -0.03,-0.08 -0.02,-0.02 -0.04,-0.04 -0.06,-0.05 0.22,-0.04 0.41,-0.15 0.57,-0.3 0.02,-0.02 0.03,-0.05 0.03,-0.08 0,-0.03 -0.01,-0.06 -0.03,-0.08 -0.02,-0.02 -0.04,-0.04 -0.06,-0.06 0.22,-0.04 0.41,-0.14 0.57,-0.29 0.01,-0.01 0.02,-0.03 0.03,-0.04 0.01,-0.04 0,-0.09 -0.03,-0.12l0 0zm-0.37 -1c-0.03,0.18 -0.11,0.35 -0.24,0.48 -0.12,0.12 -0.26,0.2 -0.42,0.23 0,0 0,0 0,0 -0.02,0.01 -0.04,0.01 -0.07,0.01 0.06,-0.37 0.35,-0.67 0.73,-0.72l0 0zm-1.08 -0.12c0.11,0.14 0.17,0.32 0.17,0.51 0,0.19 -0.06,0.37 -0.17,0.51 -0.11,-0.14 -0.17,-0.32 -0.17,-0.51 0,-0.19 0.06,-0.37 0.17,-0.51zm-0.51 0.51c0.23,0.3 0.23,0.72 0,1.03 -0.23,-0.31 -0.23,-0.73 0,-1.03zm-0.51 0.51c0.11,0.15 0.17,0.33 0.17,0.51 0,0.19 -0.06,0.37 -0.17,0.52 -0.11,-0.15 -0.17,-0.33 -0.17,-0.52 0,-0.18 0.06,-0.36 0.17,-0.51zm0.68 1.37c0,0 0,0 0,0 -0.18,0 -0.36,-0.06 -0.51,-0.17 0.15,-0.11 0.33,-0.17 0.51,-0.17 0.19,0 0.37,0.06 0.52,0.17 -0.15,0.11 -0.33,0.17 -0.52,0.17l0 0zm0.52 -0.51c-0.19,0 -0.37,-0.06 -0.52,-0.17 0.15,-0.11 0.33,-0.17 0.52,-0.17 0.18,0 0.36,0.06 0.51,0.17 -0.15,0.11 -0.33,0.17 -0.51,0.17zm0.51 -0.51c-0.19,0 -0.37,-0.06 -0.52,-0.18 0.1,-0.06 0.2,-0.11 0.31,-0.14 0,0 0,0 0,0 0.07,-0.02 0.14,-0.03 0.21,-0.03 0.19,0 0.36,0.06 0.51,0.17 -0.15,0.12 -0.32,0.18 -0.51,0.18l0 0z"/>
 </g>
</svg>
