<?xml version="1.0" encoding="UTF-8"?>
<!DOCTYPE svg PUBLIC "-//W3C//DTD SVG 1.1//EN" "http://www.w3.org/Graphics/SVG/1.1/DTD/svg11.dtd">
<!-- Creator: CorelDRAW 2018 (64-Bit) -->
<svg xmlns="http://www.w3.org/2000/svg" xml:space="preserve" width="90px" height="90px" version="1.1" style="shape-rendering:geometricPrecision; text-rendering:geometricPrecision; image-rendering:optimizeQuality; fill-rule:evenodd; clip-rule:evenodd"
viewBox="0 0 4 4"
 xmlns:xlink="http://www.w3.org/1999/xlink">
 <defs>
  <style type="text/css">
   <![CDATA[
    .fil0 {fill:#757475}
   ]]>
  </style>
 </defs>
 <g id="Layer_x0020_1">
  <metadata id="CorelCorpID_0Corel-Layer"/>
  <path class="fil0" d="M2 0c0.55,0 1.05,0.22 1.41,0.59 0.36,0.36 0.59,0.86 0.59,1.41 0,0.55 -0.23,1.05 -0.59,1.41 -0.36,0.36 -0.86,0.59 -1.41,0.59 -0.55,0 -1.05,-0.23 -1.41,-0.59 -0.37,-0.36 -0.59,-0.86 -0.59,-1.41 0,-0.55 0.22,-1.05 0.59,-1.41 0.36,-0.37 0.86,-0.59 1.41,-0.59zm1.29 1.84c-0.12,-0.13 -0.28,-0.21 -0.45,-0.25 0.02,-0.02 0.04,-0.04 0.06,-0.06 0.18,-0.17 0.27,-0.41 0.27,-0.66 0,-0.06 -0.04,-0.1 -0.09,-0.1 -0.29,0 -0.55,0.13 -0.73,0.34 -0.04,-0.18 -0.12,-0.33 -0.25,-0.46 -0.02,-0.02 -0.04,-0.03 -0.07,-0.03 -0.03,0 -0.05,0.01 -0.07,0.03 -0.14,0.14 -0.23,0.31 -0.26,0.49 -0.01,-0.01 -0.03,-0.03 -0.05,-0.05 -0.01,-0.01 -0.04,-0.02 -0.06,-0.02 -0.03,0 -0.06,0.01 -0.07,0.02 -0.14,0.14 -0.23,0.32 -0.26,0.5 -0.02,-0.02 -0.03,-0.03 -0.05,-0.05 -0.04,-0.04 -0.1,-0.04 -0.14,0 -0.34,0.34 -0.37,0.89 -0.07,1.26l-0.43 0.43c-0.28,-0.33 -0.45,-0.76 -0.45,-1.23 0,-0.52 0.21,-0.99 0.55,-1.33 0.34,-0.34 0.81,-0.55 1.33,-0.55 0.52,0 0.99,0.21 1.33,0.55 0.34,0.34 0.55,0.81 0.55,1.33 0,0.52 -0.21,0.99 -0.55,1.33 -0.34,0.34 -0.81,0.55 -1.33,0.55 -0.5,0 -0.95,-0.19 -1.29,-0.51l0 0 0.43 -0.43c0.17,0.13 0.38,0.21 0.6,0.21l0 0c0.25,0 0.48,-0.1 0.66,-0.28 0.02,-0.02 0.03,-0.04 0.03,-0.07 0,-0.02 -0.01,-0.05 -0.03,-0.07 -0.01,-0.01 -0.03,-0.03 -0.05,-0.04 0.19,-0.04 0.36,-0.13 0.5,-0.26 0.02,-0.02 0.03,-0.05 0.03,-0.07 0,-0.03 -0.01,-0.05 -0.03,-0.07 -0.02,-0.02 -0.03,-0.03 -0.05,-0.05 0.18,-0.03 0.36,-0.12 0.49,-0.26 0.01,-0.01 0.02,-0.02 0.02,-0.03 0.02,-0.04 0.01,-0.08 -0.02,-0.11l0 0zm-0.32 -0.87c-0.02,0.16 -0.1,0.31 -0.21,0.42 -0.1,0.11 -0.23,0.17 -0.36,0.2 0,0 0,0 0,0 -0.02,0.01 -0.04,0.01 -0.06,0.02 0.04,-0.33 0.3,-0.59 0.63,-0.64l0 0zm-0.94 -0.1c0.1,0.13 0.15,0.28 0.15,0.44 0,0.17 -0.05,0.32 -0.15,0.45 -0.1,-0.13 -0.15,-0.28 -0.15,-0.45 0,-0.16 0.05,-0.31 0.15,-0.44zm-0.44 0.44c0.19,0.27 0.19,0.63 0,0.9 -0.2,-0.27 -0.2,-0.63 0,-0.9zm-0.45 0.45c0.1,0.13 0.15,0.28 0.15,0.45 0,0.16 -0.05,0.32 -0.15,0.44 -0.1,-0.12 -0.15,-0.28 -0.15,-0.44 0,-0.17 0.05,-0.32 0.15,-0.45zm0.6 1.19c0,0 0,0 0,0 -0.17,0 -0.32,-0.05 -0.45,-0.15 0.13,-0.09 0.28,-0.15 0.45,-0.15 0.16,0 0.32,0.06 0.44,0.15 -0.12,0.1 -0.28,0.15 -0.44,0.15l0 0zm0.44 -0.44c-0.16,0 -0.32,-0.06 -0.45,-0.15 0.13,-0.1 0.29,-0.15 0.45,-0.15 0.17,0 0.32,0.05 0.45,0.15 -0.13,0.09 -0.28,0.15 -0.45,0.15zm0.45 -0.45c-0.17,0 -0.32,-0.05 -0.45,-0.15 0.08,-0.06 0.17,-0.1 0.27,-0.13 0,0 0,0 0,0 0.06,-0.01 0.12,-0.02 0.18,-0.02 0.16,0 0.32,0.05 0.45,0.15 -0.13,0.1 -0.29,0.15 -0.45,0.15l0 0z"/>
 </g>
</svg>
