<?xml version="1.0" encoding="UTF-8"?>
<!DOCTYPE svg PUBLIC "-//W3C//DTD SVG 1.1//EN" "http://www.w3.org/Graphics/SVG/1.1/DTD/svg11.dtd">
<!-- Creator: CorelDRAW 2018 (64-Bit) -->
<svg xmlns="http://www.w3.org/2000/svg" xml:space="preserve" width="542px" height="63px" version="1.1" style="shape-rendering:geometricPrecision; text-rendering:geometricPrecision; image-rendering:optimizeQuality; fill-rule:evenodd; clip-rule:evenodd"
viewBox="0 0 229.25 26.47"
 xmlns:xlink="http://www.w3.org/1999/xlink">
 <defs>
  <style type="text/css">
   <![CDATA[
    .fil2 {fill:#088378}
    .fil1 {fill:#B6B6B7;fill-rule:nonzero}
    .fil0 {fill:#088378;fill-rule:nonzero}
   ]]>
  </style>
 </defs>
 <g id="Layer_x0020_1">
  <metadata id="CorelCorpID_0Corel-Layer"/>
  <g id="_2298840582880">
   <path class="fil0" d="M5.84 0l217.58 0c1.6,0 3.06,0.66 4.12,1.71 1.05,1.06 1.71,2.52 1.71,4.13l0 14.79c0,1.6 -0.66,3.06 -1.71,4.12 -1.06,1.06 -2.52,1.72 -4.12,1.72l-217.58 0c-1.61,0 -3.07,-0.66 -4.12,-1.72 -1.06,-1.05 -1.72,-2.51 -1.72,-4.12l0 -14.79c0,-1.61 0.66,-3.07 1.71,-4.13 1.06,-1.05 2.52,-1.71 4.13,-1.71zm217.58 1l-217.58 0c-1.33,0 -2.54,0.54 -3.42,1.42 -0.88,0.88 -1.42,2.09 -1.42,3.42l0 14.79c0,1.33 0.54,2.54 1.42,3.42 0.88,0.87 2.09,1.42 3.42,1.42l217.58 0c1.32,0 2.53,-0.55 3.41,-1.42 0.88,-0.88 1.42,-2.09 1.42,-3.42l0 -14.79c0,-1.33 -0.54,-2.54 -1.42,-3.42 -0.88,-0.88 -2.09,-1.42 -3.41,-1.42z"/>
   <path class="fil1" d="M38.6 16.46l-1.11 -2.13c-0.11,-0.21 -0.22,-0.38 -0.32,-0.52 -0.11,-0.15 -0.22,-0.26 -0.32,-0.34 -0.12,-0.09 -0.23,-0.15 -0.36,-0.18 -0.12,-0.04 -0.27,-0.06 -0.42,-0.06l-0.82 0 0 3.23 -0.68 0 0 -7.41 2.13 0c0.28,0 0.55,0.04 0.81,0.12 0.26,0.08 0.49,0.21 0.69,0.37 0.21,0.16 0.37,0.36 0.49,0.61 0.13,0.24 0.19,0.53 0.19,0.85 0,0.26 -0.04,0.5 -0.12,0.72 -0.08,0.22 -0.2,0.42 -0.34,0.59 -0.15,0.17 -0.33,0.32 -0.53,0.43 -0.21,0.12 -0.45,0.21 -0.71,0.27l0 0.02c0.1,0.04 0.19,0.1 0.28,0.16 0.08,0.07 0.16,0.15 0.24,0.24 0.07,0.09 0.15,0.2 0.22,0.32 0.08,0.12 0.16,0.26 0.24,0.41l1.25 2.3 -0.81 0zm-3.35 -6.78l0 2.93 1.23 0c0.25,0 0.48,-0.04 0.69,-0.11 0.2,-0.07 0.38,-0.18 0.53,-0.31 0.14,-0.14 0.25,-0.3 0.34,-0.49 0.08,-0.19 0.12,-0.4 0.12,-0.64 0,-0.43 -0.14,-0.77 -0.42,-1.01 -0.28,-0.25 -0.68,-0.37 -1.2,-0.37l-1.29 0z"/>
   <polygon id="1" class="fil1" points="42.79,9.68 42.79,16.46 42.1,16.46 42.1,9.68 39.97,9.68 39.97,9.05 44.93,9.05 44.93,9.68 "/>
   <polygon id="2" class="fil1" points="48.57,17.69 47.94,17.69 51.52,9.05 52.16,9.05 "/>
   <path id="3" class="fil1" d="M59.98 16.46l-1.11 -2.13c-0.11,-0.21 -0.22,-0.38 -0.32,-0.52 -0.11,-0.15 -0.21,-0.26 -0.32,-0.34 -0.12,-0.09 -0.23,-0.15 -0.36,-0.18 -0.12,-0.04 -0.26,-0.06 -0.42,-0.06l-0.81 0 0 3.23 -0.69 0 0 -7.41 2.13 0c0.28,0 0.55,0.04 0.81,0.12 0.26,0.08 0.49,0.21 0.69,0.37 0.21,0.16 0.37,0.36 0.49,0.61 0.13,0.24 0.19,0.53 0.19,0.85 0,0.26 -0.04,0.5 -0.12,0.72 -0.08,0.22 -0.19,0.42 -0.34,0.59 -0.15,0.17 -0.33,0.32 -0.53,0.43 -0.21,0.12 -0.45,0.21 -0.71,0.27l0 0.02c0.1,0.04 0.19,0.1 0.28,0.16 0.08,0.07 0.16,0.15 0.24,0.24 0.07,0.09 0.15,0.2 0.23,0.32 0.07,0.12 0.15,0.26 0.23,0.41l1.25 2.3 -0.81 0zm-3.34 -6.78l0 2.93 1.22 0c0.25,0 0.48,-0.04 0.69,-0.11 0.2,-0.07 0.38,-0.18 0.53,-0.31 0.14,-0.14 0.26,-0.3 0.34,-0.49 0.08,-0.19 0.12,-0.4 0.12,-0.64 0,-0.43 -0.14,-0.77 -0.42,-1.01 -0.27,-0.25 -0.68,-0.37 -1.2,-0.37l-1.28 0z"/>
   <path id="4" class="fil1" d="M68.44 16.46l-0.72 0 -1.59 -5.5c-0.04,-0.13 -0.07,-0.25 -0.09,-0.37 -0.02,-0.12 -0.03,-0.24 -0.04,-0.35l-0.02 0c-0.01,0.2 -0.06,0.44 -0.15,0.71l-1.64 5.51 -0.72 0 -2.19 -7.41 0.77 0 1.63 5.81c0.04,0.13 0.07,0.25 0.09,0.36 0.03,0.12 0.04,0.23 0.06,0.34l0.02 0c0.02,-0.16 0.08,-0.39 0.17,-0.7l1.74 -5.81 0.54 0 1.63 5.83c0.03,0.12 0.05,0.23 0.08,0.34 0.02,0.12 0.04,0.23 0.06,0.33l0.02 0c0,-0.07 0.02,-0.14 0.04,-0.23 0.02,-0.09 0.04,-0.18 0.07,-0.29l1.62 -5.98 0.75 0 -2.13 7.41z"/>
   <path id="5" class="fil1" d="M76.79 16.4c-0.22,0.11 -0.47,0.16 -0.74,0.17 -0.86,-0.01 -1.28,-0.5 -1.28,-1.48l0 -3.35 -0.93 0 0 -0.57 0.93 0 0 -1.34 0.66 -0.21 0 1.55 1.36 0 0 0.57 -1.36 0 0 3.24c0,0.36 0.06,0.62 0.18,0.78 0.11,0.16 0.31,0.24 0.59,0.24 0.21,0 0.4,-0.06 0.59,-0.19l0 0.59z"/>
   <path id="6" class="fil1" d="M78.2 13.93c0,0.32 0.05,0.62 0.13,0.87 0.08,0.26 0.2,0.48 0.36,0.66 0.15,0.18 0.34,0.32 0.56,0.41 0.22,0.1 0.47,0.14 0.75,0.14 0.6,0 1.16,-0.21 1.69,-0.62l0 0.65c-0.5,0.36 -1.12,0.54 -1.84,0.54 -0.35,0 -0.67,-0.06 -0.96,-0.18 -0.29,-0.13 -0.54,-0.31 -0.74,-0.54 -0.2,-0.24 -0.36,-0.53 -0.47,-0.88 -0.11,-0.34 -0.17,-0.73 -0.17,-1.17 0,-0.4 0.06,-0.77 0.18,-1.1 0.12,-0.34 0.29,-0.63 0.5,-0.88 0.22,-0.25 0.47,-0.44 0.76,-0.58 0.3,-0.14 0.62,-0.21 0.97,-0.21 0.34,0 0.64,0.06 0.9,0.18 0.26,0.12 0.48,0.29 0.66,0.51 0.18,0.22 0.31,0.49 0.4,0.8 0.1,0.32 0.14,0.68 0.14,1.07l0 0.33 -3.82 0zm3.14 -0.58c-0.01,-0.55 -0.14,-0.98 -0.39,-1.28 -0.25,-0.3 -0.6,-0.45 -1.05,-0.45 -0.22,0 -0.43,0.03 -0.62,0.11 -0.19,0.08 -0.36,0.2 -0.51,0.35 -0.14,0.15 -0.26,0.33 -0.36,0.55 -0.09,0.21 -0.16,0.45 -0.19,0.72l3.12 0z"/>
   <path id="7" class="fil1" d="M89.97 16.46l0 -3.11c0,-0.32 -0.02,-0.59 -0.07,-0.81 -0.05,-0.22 -0.12,-0.39 -0.23,-0.53 -0.1,-0.14 -0.23,-0.24 -0.38,-0.3 -0.16,-0.06 -0.35,-0.09 -0.56,-0.09 -0.2,0 -0.38,0.04 -0.55,0.13 -0.17,0.09 -0.32,0.22 -0.45,0.38 -0.13,0.16 -0.23,0.35 -0.31,0.56 -0.07,0.22 -0.11,0.46 -0.11,0.71l0 3.06 -0.66 0 0 -3.18c0,-1.11 -0.43,-1.66 -1.28,-1.66 -0.19,0 -0.38,0.04 -0.55,0.13 -0.16,0.08 -0.31,0.21 -0.44,0.37 -0.12,0.16 -0.22,0.35 -0.29,0.57 -0.07,0.22 -0.11,0.47 -0.11,0.73l0 3.04 -0.66 0 0 -5.29 0.66 0 0 0.85 0.02 0c0.38,-0.65 0.92,-0.98 1.63,-0.98 0.19,0 0.36,0.03 0.53,0.09 0.16,0.05 0.31,0.13 0.44,0.23 0.13,0.11 0.25,0.23 0.34,0.37 0.1,0.14 0.17,0.29 0.21,0.46 0.19,-0.37 0.43,-0.66 0.73,-0.85 0.3,-0.2 0.64,-0.3 1.01,-0.3 1.16,0 1.74,0.72 1.74,2.15l0 3.27 -0.66 0z"/>
   <path id="8" class="fil1" d="M92.89 15.61l0 3.28 -0.67 0 0 -7.72 0.67 0 0 1.01 0.02 0c0.19,-0.37 0.46,-0.65 0.79,-0.85 0.32,-0.19 0.7,-0.29 1.11,-0.29 0.34,0 0.64,0.06 0.91,0.19 0.26,0.12 0.49,0.29 0.67,0.51 0.19,0.23 0.33,0.5 0.43,0.82 0.09,0.32 0.14,0.68 0.14,1.08 0,0.44 -0.05,0.84 -0.16,1.2 -0.11,0.36 -0.27,0.67 -0.48,0.92 -0.2,0.26 -0.45,0.46 -0.75,0.61 -0.29,0.14 -0.63,0.21 -0.99,0.21 -0.75,0 -1.3,-0.32 -1.67,-0.97l-0.02 0zm0 -1.35c0,0.24 0.04,0.46 0.12,0.67 0.08,0.22 0.19,0.4 0.34,0.56 0.14,0.16 0.32,0.29 0.52,0.38 0.21,0.1 0.43,0.14 0.68,0.14 0.27,0 0.51,-0.05 0.72,-0.16 0.21,-0.12 0.39,-0.28 0.54,-0.48 0.15,-0.21 0.27,-0.46 0.35,-0.75 0.08,-0.3 0.12,-0.62 0.12,-0.99 0,-0.3 -0.04,-0.58 -0.11,-0.83 -0.08,-0.25 -0.18,-0.47 -0.32,-0.64 -0.14,-0.18 -0.31,-0.31 -0.51,-0.41 -0.2,-0.09 -0.42,-0.13 -0.67,-0.13 -0.27,0 -0.52,0.05 -0.74,0.15 -0.22,0.1 -0.41,0.24 -0.56,0.41 -0.16,0.18 -0.28,0.38 -0.36,0.62 -0.08,0.24 -0.12,0.49 -0.12,0.75l0 0.71z"/>
   <path id="9" class="fil1" d="M101.35 16.46l0 -0.94 -0.03 0c-0.17,0.33 -0.4,0.6 -0.7,0.78 -0.3,0.19 -0.64,0.28 -1.01,0.28 -0.26,0 -0.48,-0.03 -0.69,-0.11 -0.21,-0.07 -0.38,-0.17 -0.52,-0.31 -0.14,-0.13 -0.26,-0.29 -0.33,-0.47 -0.08,-0.19 -0.12,-0.39 -0.12,-0.62 0,-0.48 0.15,-0.86 0.45,-1.14 0.29,-0.29 0.74,-0.47 1.34,-0.56l1.61 -0.23c0,-1.02 -0.4,-1.52 -1.19,-1.52 -0.61,0 -1.19,0.22 -1.71,0.67l0 -0.72c0.11,-0.08 0.23,-0.15 0.37,-0.22 0.14,-0.06 0.29,-0.11 0.44,-0.16 0.16,-0.05 0.32,-0.08 0.48,-0.11 0.16,-0.03 0.32,-0.04 0.48,-0.04 0.59,0 1.03,0.17 1.34,0.5 0.3,0.33 0.45,0.82 0.45,1.48l0 3.44 -0.66 0zm-1.37 -2.57c-0.24,0.03 -0.44,0.08 -0.61,0.13 -0.17,0.05 -0.31,0.12 -0.42,0.21 -0.11,0.09 -0.19,0.19 -0.24,0.32 -0.05,0.13 -0.08,0.29 -0.08,0.48 0,0.14 0.03,0.27 0.08,0.39 0.05,0.12 0.12,0.23 0.21,0.32 0.1,0.08 0.22,0.15 0.35,0.2 0.14,0.05 0.29,0.07 0.46,0.07 0.24,0 0.45,-0.04 0.65,-0.13 0.2,-0.09 0.37,-0.21 0.51,-0.37 0.14,-0.16 0.25,-0.35 0.33,-0.57 0.09,-0.22 0.13,-0.46 0.13,-0.72l0 -0.52 -1.37 0.19z"/>
   <path id="10" class="fil1" d="M105.87 16.4c-0.22,0.11 -0.47,0.16 -0.74,0.17 -0.86,-0.01 -1.28,-0.5 -1.28,-1.48l0 -3.35 -0.93 0 0 -0.57 0.93 0 0 -1.34 0.66 -0.21 0 1.55 1.36 0 0 0.57 -1.36 0 0 3.24c0,0.36 0.06,0.62 0.18,0.78 0.11,0.16 0.31,0.24 0.59,0.24 0.21,0 0.4,-0.06 0.59,-0.19l0 0.59z"/>
   <path id="11" class="fil1" d="M112.14 16.4c-0.23,0.11 -0.48,0.16 -0.75,0.17 -0.85,-0.01 -1.28,-0.5 -1.28,-1.48l0 -3.35 -0.93 0 0 -0.57 0.93 0 0 -1.34 0.66 -0.21 0 1.55 1.37 0 0 0.57 -1.37 0 0 3.24c0,0.36 0.06,0.62 0.18,0.78 0.12,0.16 0.31,0.24 0.59,0.24 0.21,0 0.41,-0.06 0.6,-0.19l0 0.59z"/>
   <path id="12" class="fil1" d="M113.55 9.83c-0.12,0 -0.24,-0.05 -0.33,-0.14 -0.09,-0.09 -0.14,-0.2 -0.14,-0.34 0,-0.13 0.05,-0.24 0.14,-0.33 0.09,-0.09 0.21,-0.13 0.33,-0.13 0.07,0 0.13,0.01 0.19,0.03 0.06,0.02 0.11,0.05 0.15,0.1 0.04,0.04 0.08,0.09 0.1,0.14 0.03,0.06 0.04,0.12 0.04,0.19 0,0.07 -0.01,0.13 -0.03,0.19 -0.03,0.06 -0.06,0.11 -0.11,0.15 -0.04,0.04 -0.09,0.08 -0.15,0.1 -0.05,0.02 -0.12,0.04 -0.19,0.04zm-0.32 6.63l0 -5.29 0.66 0 0 5.29 -0.66 0z"/>
   <path id="13" class="fil1" d="M119.17 16.46l0 -3.05c0,-1.2 -0.44,-1.79 -1.31,-1.79 -0.23,0 -0.44,0.04 -0.64,0.13 -0.19,0.09 -0.36,0.22 -0.51,0.38 -0.14,0.16 -0.25,0.35 -0.33,0.58 -0.08,0.22 -0.12,0.46 -0.12,0.72l0 3.03 -0.67 0 0 -5.29 0.67 0 0 0.91 0.02 0c0.39,-0.69 0.98,-1.04 1.77,-1.04 0.58,0 1.02,0.19 1.32,0.56 0.31,0.38 0.46,0.92 0.46,1.63l0 3.23 -0.66 0z"/>
   <path id="14" class="fil1" d="M125.79 16.05c0,0.98 -0.22,1.71 -0.67,2.18 -0.44,0.48 -1.13,0.71 -2.06,0.71 -0.58,0 -1.13,-0.13 -1.65,-0.39l0 -0.67c0.58,0.32 1.13,0.48 1.65,0.48 1.38,0 2.07,-0.73 2.07,-2.19l0 -0.63 -0.02 0c-0.41,0.69 -1.03,1.04 -1.86,1.04 -0.33,0 -0.63,-0.06 -0.9,-0.18 -0.27,-0.12 -0.5,-0.29 -0.69,-0.52 -0.2,-0.23 -0.35,-0.51 -0.45,-0.83 -0.11,-0.33 -0.16,-0.69 -0.16,-1.1 0,-0.44 0.05,-0.83 0.17,-1.19 0.11,-0.36 0.27,-0.66 0.48,-0.92 0.21,-0.25 0.47,-0.45 0.77,-0.59 0.29,-0.14 0.63,-0.21 1,-0.21 0.75,0 1.29,0.31 1.64,0.91l0.02 0 0 -0.78 0.66 0 0 4.88zm-0.66 -2.81c0,-0.22 -0.04,-0.43 -0.12,-0.62 -0.08,-0.2 -0.19,-0.37 -0.33,-0.52 -0.14,-0.15 -0.31,-0.27 -0.5,-0.35 -0.2,-0.09 -0.41,-0.13 -0.65,-0.13 -0.27,0 -0.52,0.05 -0.74,0.16 -0.23,0.1 -0.42,0.25 -0.57,0.45 -0.16,0.2 -0.28,0.43 -0.36,0.72 -0.09,0.28 -0.13,0.59 -0.13,0.94 0,0.33 0.04,0.62 0.12,0.88 0.08,0.26 0.19,0.49 0.33,0.67 0.15,0.18 0.32,0.32 0.53,0.42 0.2,0.1 0.43,0.15 0.68,0.15 0.27,0 0.5,-0.04 0.72,-0.14 0.21,-0.09 0.39,-0.22 0.54,-0.39 0.16,-0.17 0.27,-0.37 0.36,-0.59 0.08,-0.23 0.12,-0.47 0.12,-0.73l0 -0.92z"/>
   <path id="15" class="fil1" d="M131.87 16.05c0,0.98 -0.23,1.71 -0.67,2.18 -0.45,0.48 -1.14,0.71 -2.07,0.71 -0.57,0 -1.12,-0.13 -1.64,-0.39l0 -0.67c0.58,0.32 1.12,0.48 1.64,0.48 1.39,0 2.08,-0.73 2.08,-2.19l0 -0.63 -0.02 0c-0.41,0.69 -1.03,1.04 -1.86,1.04 -0.33,0 -0.63,-0.06 -0.9,-0.18 -0.27,-0.12 -0.5,-0.29 -0.7,-0.52 -0.19,-0.23 -0.34,-0.51 -0.45,-0.83 -0.1,-0.33 -0.16,-0.69 -0.16,-1.1 0,-0.44 0.06,-0.83 0.17,-1.19 0.12,-0.36 0.28,-0.66 0.49,-0.92 0.21,-0.25 0.46,-0.45 0.76,-0.59 0.3,-0.14 0.64,-0.21 1.01,-0.21 0.74,0 1.29,0.31 1.64,0.91l0.02 0 0 -0.78 0.66 0 0 4.88zm-0.66 -2.81c0,-0.22 -0.04,-0.43 -0.12,-0.62 -0.08,-0.2 -0.19,-0.37 -0.33,-0.52 -0.14,-0.15 -0.31,-0.27 -0.51,-0.35 -0.19,-0.09 -0.41,-0.13 -0.64,-0.13 -0.28,0 -0.53,0.05 -0.75,0.16 -0.22,0.1 -0.41,0.25 -0.57,0.45 -0.15,0.2 -0.27,0.43 -0.36,0.72 -0.08,0.28 -0.12,0.59 -0.12,0.94 0,0.33 0.04,0.62 0.12,0.88 0.07,0.26 0.19,0.49 0.33,0.67 0.15,0.18 0.32,0.32 0.52,0.42 0.21,0.1 0.44,0.15 0.69,0.15 0.26,0 0.5,-0.04 0.71,-0.14 0.22,-0.09 0.4,-0.22 0.55,-0.39 0.15,-0.17 0.27,-0.37 0.35,-0.59 0.09,-0.23 0.13,-0.47 0.13,-0.73l0 -0.92z"/>
   <path id="16" class="fil1" d="M136.62 16.46l0 -0.94 -0.02 0c-0.17,0.33 -0.41,0.6 -0.71,0.78 -0.29,0.19 -0.63,0.28 -1,0.28 -0.26,0 -0.49,-0.03 -0.7,-0.11 -0.2,-0.07 -0.37,-0.17 -0.52,-0.31 -0.14,-0.13 -0.25,-0.29 -0.33,-0.47 -0.08,-0.19 -0.11,-0.39 -0.11,-0.62 0,-0.48 0.14,-0.86 0.44,-1.14 0.3,-0.29 0.74,-0.47 1.34,-0.56l1.61 -0.23c0,-1.02 -0.39,-1.52 -1.18,-1.52 -0.62,0 -1.19,0.22 -1.72,0.67l0 -0.72c0.11,-0.08 0.24,-0.15 0.38,-0.22 0.14,-0.06 0.28,-0.11 0.44,-0.16 0.15,-0.05 0.31,-0.08 0.48,-0.11 0.16,-0.03 0.32,-0.04 0.47,-0.04 0.59,0 1.04,0.17 1.34,0.5 0.3,0.33 0.45,0.82 0.45,1.48l0 3.44 -0.66 0zm-1.36 -2.57c-0.24,0.03 -0.44,0.08 -0.61,0.13 -0.17,0.05 -0.31,0.12 -0.42,0.21 -0.11,0.09 -0.19,0.19 -0.24,0.32 -0.05,0.13 -0.08,0.29 -0.08,0.48 0,0.14 0.02,0.27 0.07,0.39 0.05,0.12 0.13,0.23 0.22,0.32 0.09,0.08 0.21,0.15 0.35,0.2 0.13,0.05 0.29,0.07 0.46,0.07 0.23,0 0.45,-0.04 0.64,-0.13 0.2,-0.09 0.37,-0.21 0.51,-0.37 0.15,-0.16 0.26,-0.35 0.34,-0.57 0.08,-0.22 0.12,-0.46 0.12,-0.72l0 -0.52 -1.36 0.19z"/>
   <polygon id="17" class="fil1" points="138.87,16.46 138.87,8.62 139.54,8.62 139.54,16.46 "/>
  </g>
  <path class="fil2" d="M16.42 5.76c4.01,0 7.28,3.14 7.49,7.09l-14.98 0c0.21,-3.95 3.49,-7.09 7.49,-7.09zm-3.58 5.05l0 1.57 -0.89 0 0 -4.3 1.69 0c0.21,0 0.41,0.03 0.6,0.08 0.18,0.05 0.34,0.13 0.48,0.24 0.14,0.11 0.24,0.25 0.32,0.43 0.08,0.17 0.13,0.38 0.13,0.62 0,0.4 -0.08,0.7 -0.25,0.9 -0.17,0.2 -0.41,0.34 -0.72,0.4l1.28 1.63 -1.1 0 -1.22 -1.57 -0.32 0zm0.8 -0.82c0.2,0 0.35,-0.04 0.47,-0.12 0.11,-0.08 0.17,-0.22 0.17,-0.41 0,-0.18 -0.06,-0.31 -0.17,-0.38 -0.11,-0.07 -0.25,-0.1 -0.42,-0.1 -0.01,0 -0.03,0 -0.05,0l-0.8 0 0 1.01 0.8 0zm5.95 -1.02l0 3.41 -0.9 0 0 -3.41 -1.23 0 0 -0.89 3.36 0 0 0.89 -1.23 0zm-6.75 7.9l0 1.57 -0.89 0 0 -4.3 1.69 0c0.21,0 0.41,0.03 0.6,0.08 0.18,0.05 0.34,0.13 0.48,0.24 0.14,0.11 0.24,0.26 0.32,0.43 0.08,0.17 0.13,0.38 0.13,0.63 0,0.39 -0.08,0.69 -0.25,0.89 -0.17,0.2 -0.41,0.34 -0.72,0.4l1.28 1.63 -1.1 0 -1.22 -1.57 -0.32 0zm0.8 -0.82c0.2,0 0.35,-0.04 0.47,-0.12 0.11,-0.08 0.17,-0.22 0.17,-0.41 0,-0.18 -0.06,-0.31 -0.17,-0.38 -0.11,-0.07 -0.25,-0.1 -0.42,-0.1 -0.01,0 -0.03,0 -0.05,0l-0.8 0 0 1.01 0.8 0zm1.71 -1.91l0.92 0 0.62 2.25 0.13 1 0.05 0 0.15 -1.01c0.06,-0.19 0.11,-0.35 0.15,-0.47 0.04,-0.13 0.08,-0.24 0.12,-0.35 0.04,-0.11 0.08,-0.23 0.12,-0.35 0.04,-0.12 0.09,-0.28 0.16,-0.47l0.72 0 0.52 1.65 0.17 1.04 0.06 0 0.11 -1.04 0.63 -2.25 0.92 0 -1.24 4.3 -0.88 0 -0.55 -1.66 -0.1 -0.51 -0.04 0c-0.02,0.09 -0.04,0.18 -0.06,0.26 -0.01,0.07 -0.03,0.13 -0.04,0.19l-0.02 0.07 -0.5 1.65 -0.88 0 -1.24 -4.3zm8.57 -0.63c-0.14,4.03 -3.44,7.25 -7.5,7.25 -4.06,0 -7.36,-3.22 -7.49,-7.25l14.99 0z"/>
 </g>
</svg>
