<?xml version="1.0" encoding="UTF-8"?>
<!DOCTYPE svg PUBLIC "-//W3C//DTD SVG 1.1//EN" "http://www.w3.org/Graphics/SVG/1.1/DTD/svg11.dtd">
<!-- Creator: CorelDRAW 2018 (64-Bit) -->
<svg xmlns="http://www.w3.org/2000/svg" xml:space="preserve" width="542px" height="63px" version="1.1" style="shape-rendering:geometricPrecision; text-rendering:geometricPrecision; image-rendering:optimizeQuality; fill-rule:evenodd; clip-rule:evenodd"
viewBox="0 0 229.25 26.47"
 xmlns:xlink="http://www.w3.org/1999/xlink">
 <defs>
  <style type="text/css">
   <![CDATA[
    .fil2 {fill:#088378}
    .fil1 {fill:#B6B6B7;fill-rule:nonzero}
    .fil0 {fill:#088378;fill-rule:nonzero}
   ]]>
  </style>
 </defs>
 <g id="Layer_x0020_1">
  <metadata id="CorelCorpID_0Corel-Layer"/>
  <g id="_2298703393024">
   <path class="fil0" d="M5.84 0l217.58 0c1.6,0 3.06,0.66 4.12,1.71 1.05,1.06 1.71,2.52 1.71,4.13l0 14.79c0,1.6 -0.66,3.06 -1.71,4.12 -1.06,1.06 -2.52,1.72 -4.12,1.72l-217.58 0c-1.61,0 -3.07,-0.66 -4.12,-1.72 -1.06,-1.05 -1.72,-2.51 -1.72,-4.12l0 -14.79c0,-1.61 0.66,-3.07 1.71,-4.13 1.06,-1.05 2.52,-1.71 4.13,-1.71zm217.58 1l-217.58 0c-1.33,0 -2.54,0.54 -3.42,1.42 -0.88,0.88 -1.42,2.09 -1.42,3.42l0 14.79c0,1.33 0.54,2.54 1.42,3.42 0.88,0.87 2.09,1.42 3.42,1.42l217.58 0c1.32,0 2.53,-0.55 3.41,-1.42 0.88,-0.88 1.42,-2.09 1.42,-3.42l0 -14.79c0,-1.33 -0.54,-2.54 -1.42,-3.42 -0.88,-0.88 -2.09,-1.42 -3.41,-1.42z"/>
   <path class="fil1" d="M39.64 16.46l-4.11 -5.95c-0.05,-0.08 -0.1,-0.15 -0.16,-0.23 -0.05,-0.08 -0.09,-0.16 -0.12,-0.24l-0.02 0c0,0.07 0.01,0.15 0.02,0.26 0,0.11 0,0.25 0,0.42l0 5.74 -0.68 0 0 -7.41 0.76 0 4.04 5.87c0.06,0.1 0.12,0.18 0.17,0.26 0.05,0.08 0.1,0.16 0.14,0.23l0.02 0c-0.01,-0.12 -0.02,-0.24 -0.03,-0.39 0,-0.14 -0.01,-0.29 -0.01,-0.46l0 -5.51 0.69 0 0 7.41 -0.71 0z"/>
   <path id="1" class="fil1" d="M44.33 16.58c-0.39,0 -0.74,-0.06 -1.05,-0.2 -0.32,-0.13 -0.58,-0.31 -0.8,-0.55 -0.22,-0.24 -0.39,-0.53 -0.51,-0.86 -0.11,-0.33 -0.17,-0.71 -0.17,-1.11 0,-0.44 0.06,-0.84 0.18,-1.19 0.13,-0.34 0.3,-0.64 0.53,-0.88 0.23,-0.25 0.51,-0.43 0.83,-0.56 0.32,-0.12 0.69,-0.19 1.09,-0.19 0.38,0 0.72,0.06 1.03,0.19 0.31,0.13 0.57,0.31 0.78,0.55 0.21,0.23 0.38,0.52 0.49,0.86 0.12,0.34 0.17,0.73 0.17,1.17 0,0.41 -0.06,0.79 -0.18,1.12 -0.11,0.35 -0.29,0.64 -0.51,0.88 -0.22,0.25 -0.48,0.44 -0.8,0.57 -0.32,0.13 -0.68,0.2 -1.08,0.2zm0.05 -4.96c-0.28,0 -0.55,0.04 -0.78,0.15 -0.24,0.09 -0.44,0.24 -0.6,0.43 -0.17,0.19 -0.3,0.43 -0.39,0.7 -0.09,0.28 -0.13,0.6 -0.13,0.95 0,0.33 0.04,0.63 0.13,0.89 0.09,0.27 0.22,0.49 0.38,0.68 0.17,0.19 0.36,0.34 0.6,0.44 0.23,0.1 0.49,0.15 0.78,0.15 0.3,0 0.56,-0.05 0.79,-0.14 0.23,-0.1 0.42,-0.25 0.58,-0.43 0.16,-0.19 0.28,-0.42 0.36,-0.69 0.08,-0.28 0.12,-0.59 0.12,-0.93 0,-0.72 -0.16,-1.26 -0.48,-1.64 -0.31,-0.38 -0.77,-0.56 -1.36,-0.56z"/>
   <path id="2" class="fil1" d="M54.88 16.46l0 -3.11c0,-0.32 -0.02,-0.59 -0.07,-0.81 -0.04,-0.22 -0.12,-0.39 -0.22,-0.53 -0.1,-0.14 -0.23,-0.24 -0.39,-0.3 -0.16,-0.06 -0.34,-0.09 -0.56,-0.09 -0.19,0 -0.38,0.04 -0.55,0.13 -0.17,0.09 -0.32,0.22 -0.45,0.38 -0.13,0.16 -0.23,0.35 -0.31,0.56 -0.07,0.22 -0.11,0.46 -0.11,0.71l0 3.06 -0.66 0 0 -3.18c0,-1.11 -0.42,-1.66 -1.27,-1.66 -0.2,0 -0.38,0.04 -0.55,0.13 -0.17,0.08 -0.32,0.21 -0.44,0.37 -0.13,0.16 -0.23,0.35 -0.3,0.57 -0.07,0.22 -0.11,0.47 -0.11,0.73l0 3.04 -0.66 0 0 -5.29 0.66 0 0 0.85 0.03 0c0.37,-0.65 0.91,-0.98 1.62,-0.98 0.19,0 0.37,0.03 0.53,0.09 0.17,0.05 0.32,0.13 0.45,0.23 0.13,0.11 0.24,0.23 0.33,0.37 0.1,0.14 0.17,0.29 0.22,0.46 0.18,-0.37 0.43,-0.66 0.72,-0.85 0.3,-0.2 0.64,-0.3 1.02,-0.3 1.16,0 1.74,0.72 1.74,2.15l0 3.27 -0.67 0z"/>
   <path id="3" class="fil1" d="M59.3 16.58c-0.39,0 -0.74,-0.06 -1.05,-0.2 -0.31,-0.13 -0.58,-0.31 -0.8,-0.55 -0.22,-0.24 -0.39,-0.53 -0.51,-0.86 -0.11,-0.33 -0.17,-0.71 -0.17,-1.11 0,-0.44 0.06,-0.84 0.18,-1.19 0.13,-0.34 0.3,-0.64 0.53,-0.88 0.23,-0.25 0.51,-0.43 0.83,-0.56 0.33,-0.12 0.69,-0.19 1.09,-0.19 0.38,0 0.72,0.06 1.03,0.19 0.31,0.13 0.57,0.31 0.78,0.55 0.21,0.23 0.38,0.52 0.49,0.86 0.12,0.34 0.17,0.73 0.17,1.17 0,0.41 -0.06,0.79 -0.18,1.12 -0.11,0.35 -0.29,0.64 -0.51,0.88 -0.22,0.25 -0.48,0.44 -0.8,0.57 -0.32,0.13 -0.68,0.2 -1.08,0.2zm0.05 -4.96c-0.28,0 -0.55,0.04 -0.78,0.15 -0.23,0.09 -0.44,0.24 -0.6,0.43 -0.17,0.19 -0.3,0.43 -0.39,0.7 -0.09,0.28 -0.13,0.6 -0.13,0.95 0,0.33 0.04,0.63 0.13,0.89 0.09,0.27 0.22,0.49 0.38,0.68 0.17,0.19 0.36,0.34 0.6,0.44 0.23,0.1 0.5,0.15 0.78,0.15 0.3,0 0.56,-0.05 0.79,-0.14 0.23,-0.1 0.42,-0.25 0.58,-0.43 0.16,-0.19 0.28,-0.42 0.36,-0.69 0.08,-0.28 0.12,-0.59 0.12,-0.93 0,-0.72 -0.16,-1.26 -0.48,-1.64 -0.31,-0.38 -0.77,-0.56 -1.36,-0.56z"/>
   <path id="4" class="fil1" d="M65.83 11.84c-0.16,-0.11 -0.35,-0.17 -0.6,-0.17 -0.18,0 -0.33,0.04 -0.47,0.1 -0.13,0.07 -0.25,0.16 -0.35,0.27 -0.1,0.12 -0.19,0.25 -0.26,0.4 -0.07,0.15 -0.12,0.3 -0.17,0.47 -0.04,0.16 -0.07,0.32 -0.09,0.49 -0.02,0.16 -0.03,0.32 -0.03,0.47l0 2.59 -0.66 0 0 -5.29 0.66 0 0 1.13 0.02 0c0.06,-0.2 0.14,-0.37 0.24,-0.52 0.09,-0.16 0.2,-0.28 0.33,-0.39 0.12,-0.1 0.25,-0.19 0.4,-0.24 0.15,-0.06 0.3,-0.08 0.46,-0.08 0.11,0 0.2,0 0.29,0.02 0.08,0.01 0.16,0.03 0.23,0.06l0 0.69z"/>
   <path id="5" class="fil1" d="M74.87 16.46l-4.11 -5.95c-0.05,-0.08 -0.1,-0.15 -0.15,-0.23 -0.05,-0.08 -0.09,-0.16 -0.12,-0.24l-0.03 0c0.01,0.07 0.01,0.15 0.02,0.26 0,0.11 0.01,0.25 0.01,0.42l0 5.74 -0.69 0 0 -7.41 0.76 0 4.05 5.87c0.06,0.1 0.11,0.18 0.16,0.26 0.05,0.08 0.1,0.16 0.14,0.23l0.03 0c-0.02,-0.12 -0.03,-0.24 -0.04,-0.39 0,-0.14 0,-0.29 0,-0.46l0 -5.51 0.69 0 0 7.41 -0.72 0z"/>
   <polygon id="6" class="fil1" points="78.2,9.05 78.2,16.46 77.51,16.46 77.51,9.05 "/>
   <path id="7" class="fil1" d="M84 16.46l-3.01 -3.47c-0.09,-0.1 -0.14,-0.17 -0.16,-0.21l-0.02 0 0 3.68 -0.69 0 0 -7.41 0.69 0 0 3.48 0.02 0c0.02,-0.03 0.05,-0.07 0.07,-0.1 0.03,-0.04 0.06,-0.07 0.09,-0.11l2.89 -3.27 0.87 0 -3.21 3.57 3.42 3.84 -0.96 0z"/>
   <path id="8" class="fil1" d="M90.24 18.14c-1.05,-1.22 -1.58,-2.72 -1.58,-4.51 0,-1.82 0.53,-3.35 1.59,-4.58l0.64 0c-1.08,1.27 -1.62,2.8 -1.62,4.58 0,1.72 0.53,3.22 1.6,4.51l-0.63 0z"/>
   <path id="9" class="fil1" d="M95.84 16.46l-3.01 -3.47c-0.08,-0.1 -0.13,-0.17 -0.16,-0.21l-0.02 0 0 3.68 -0.69 0 0 -7.41 0.69 0 0 3.48 0.02 0c0.03,-0.03 0.05,-0.07 0.08,-0.1 0.03,-0.04 0.06,-0.07 0.09,-0.11l2.88 -3.27 0.87 0 -3.21 3.57 3.43 3.84 -0.97 0z"/>
   <polygon id="10" class="fil1" points="99.94,9.68 99.94,16.46 99.25,16.46 99.25,9.68 97.12,9.68 97.12,9.05 102.08,9.05 102.08,9.68 "/>
   <path id="11" class="fil1" d="M103.98 13.57l0 2.89 -0.68 0 0 -7.41 1.91 0c0.39,0 0.73,0.04 1.03,0.14 0.3,0.1 0.55,0.24 0.76,0.42 0.21,0.18 0.36,0.41 0.47,0.67 0.11,0.27 0.16,0.57 0.16,0.91 0,0.35 -0.06,0.66 -0.18,0.95 -0.12,0.3 -0.29,0.55 -0.52,0.76 -0.23,0.21 -0.5,0.38 -0.82,0.5 -0.33,0.11 -0.69,0.17 -1.1,0.17l-1.03 0zm0 -3.89l0 3.26 0.98 0c0.64,0 1.13,-0.14 1.46,-0.44 0.33,-0.3 0.49,-0.72 0.49,-1.26 0,-1.04 -0.61,-1.56 -1.83,-1.56l-1.1 0z"/>
   <polygon id="12" class="fil1" points="108.65,17.69 108.02,17.69 111.61,9.05 112.25,9.05 "/>
   <path id="13" class="fil1" d="M112.85 15.37c0.12,0.09 0.26,0.18 0.41,0.25 0.15,0.08 0.3,0.14 0.46,0.19 0.15,0.05 0.31,0.09 0.47,0.11 0.16,0.03 0.31,0.04 0.45,0.04 0.57,0 0.99,-0.11 1.27,-0.32 0.27,-0.22 0.42,-0.53 0.42,-0.94 0,-0.2 -0.04,-0.37 -0.1,-0.51 -0.07,-0.15 -0.17,-0.29 -0.31,-0.42 -0.14,-0.12 -0.31,-0.25 -0.52,-0.37 -0.21,-0.13 -0.46,-0.27 -0.75,-0.43 -0.31,-0.17 -0.58,-0.34 -0.81,-0.49 -0.22,-0.15 -0.41,-0.31 -0.55,-0.47 -0.15,-0.16 -0.25,-0.33 -0.32,-0.52 -0.06,-0.19 -0.1,-0.4 -0.1,-0.63 0,-0.3 0.07,-0.57 0.19,-0.81 0.13,-0.24 0.3,-0.44 0.52,-0.61 0.22,-0.17 0.47,-0.29 0.76,-0.38 0.29,-0.09 0.6,-0.14 0.94,-0.14 0.58,0 1.07,0.08 1.46,0.25l0 0.76c-0.44,-0.26 -0.95,-0.38 -1.54,-0.38 -0.22,0 -0.43,0.02 -0.62,0.08 -0.2,0.05 -0.37,0.13 -0.52,0.23 -0.14,0.11 -0.26,0.23 -0.34,0.39 -0.09,0.15 -0.13,0.33 -0.13,0.53 0,0.2 0.03,0.36 0.09,0.5 0.05,0.14 0.14,0.27 0.27,0.4 0.13,0.12 0.29,0.24 0.5,0.37 0.2,0.12 0.45,0.26 0.75,0.42 0.31,0.16 0.58,0.32 0.81,0.48 0.23,0.16 0.42,0.32 0.58,0.49 0.15,0.17 0.26,0.35 0.34,0.54 0.07,0.2 0.11,0.41 0.11,0.64 0,0.33 -0.06,0.61 -0.18,0.86 -0.12,0.24 -0.29,0.45 -0.5,0.61 -0.22,0.16 -0.48,0.28 -0.78,0.37 -0.3,0.08 -0.63,0.12 -0.99,0.12 -0.11,0 -0.25,-0.01 -0.41,-0.03 -0.17,-0.02 -0.33,-0.04 -0.5,-0.08 -0.16,-0.04 -0.32,-0.08 -0.47,-0.13 -0.15,-0.05 -0.27,-0.1 -0.36,-0.16l0 -0.81z"/>
   <polygon id="14" class="fil1" points="119.27,9.05 119.27,16.46 118.58,16.46 118.58,9.05 "/>
   <path id="15" class="fil1" d="M127.75 16.46l0 -5.12c0,-0.26 0.01,-0.68 0.06,-1.26l-0.02 0c-0.05,0.15 -0.1,0.28 -0.14,0.4 -0.04,0.11 -0.07,0.21 -0.11,0.28l-2.58 5.7 -0.29 0 -2.59 -5.67c-0.08,-0.17 -0.16,-0.41 -0.24,-0.73l-0.02 0c0.02,0.16 0.03,0.34 0.03,0.55 0.01,0.2 0.01,0.43 0.01,0.67l0 5.18 -0.67 0 0 -7.41 0.81 0 2.52 5.57c0.05,0.11 0.1,0.23 0.15,0.36 0.05,0.12 0.09,0.25 0.13,0.39l0.03 0c0.05,-0.14 0.1,-0.27 0.14,-0.38 0.04,-0.11 0.09,-0.24 0.15,-0.37l2.53 -5.57 0.77 0 0 7.41 -0.67 0z"/>
   <polygon id="16" class="fil1" points="129.86,17.69 129.23,17.69 132.81,9.05 133.46,9.05 "/>
   <path id="17" class="fil1" d="M135.03 13.57l0 2.89 -0.69 0 0 -7.41 1.92 0c0.39,0 0.73,0.04 1.03,0.14 0.3,0.1 0.55,0.24 0.76,0.42 0.21,0.18 0.36,0.41 0.47,0.67 0.11,0.27 0.16,0.57 0.16,0.91 0,0.35 -0.06,0.66 -0.18,0.95 -0.12,0.3 -0.29,0.55 -0.52,0.76 -0.23,0.21 -0.5,0.38 -0.82,0.5 -0.33,0.11 -0.7,0.17 -1.1,0.17l-1.03 0zm0 -3.89l0 3.26 0.98 0c0.64,0 1.12,-0.14 1.46,-0.44 0.33,-0.3 0.49,-0.72 0.49,-1.26 0,-1.04 -0.61,-1.56 -1.83,-1.56l-1.1 0z"/>
   <path id="18" class="fil1" d="M144.99 16.46l-0.82 -2.19 -3.18 0 -0.79 2.19 -0.77 0 2.82 -7.41 0.69 0 2.81 7.41 -0.76 0zm-2.26 -6.12c-0.03,-0.06 -0.05,-0.14 -0.08,-0.22 -0.02,-0.09 -0.05,-0.19 -0.06,-0.3l-0.02 0c-0.02,0.11 -0.05,0.21 -0.07,0.3 -0.03,0.08 -0.05,0.16 -0.08,0.22l-1.2 3.3 2.72 0 -1.21 -3.3z"/>
   <path id="19" class="fil1" d="M146.63 15.37c0.12,0.09 0.26,0.18 0.41,0.25 0.15,0.08 0.3,0.14 0.46,0.19 0.15,0.05 0.31,0.09 0.47,0.11 0.16,0.03 0.31,0.04 0.46,0.04 0.56,0 0.98,-0.11 1.26,-0.32 0.28,-0.22 0.42,-0.53 0.42,-0.94 0,-0.2 -0.04,-0.37 -0.1,-0.51 -0.07,-0.15 -0.17,-0.29 -0.31,-0.42 -0.13,-0.12 -0.31,-0.25 -0.52,-0.37 -0.21,-0.13 -0.46,-0.27 -0.74,-0.43 -0.32,-0.17 -0.59,-0.34 -0.82,-0.49 -0.22,-0.15 -0.41,-0.31 -0.55,-0.47 -0.14,-0.16 -0.25,-0.33 -0.31,-0.52 -0.07,-0.19 -0.11,-0.4 -0.11,-0.63 0,-0.3 0.07,-0.57 0.2,-0.81 0.12,-0.24 0.3,-0.44 0.51,-0.61 0.22,-0.17 0.47,-0.29 0.76,-0.38 0.3,-0.09 0.61,-0.14 0.94,-0.14 0.58,0 1.07,0.08 1.46,0.25l0 0.76c-0.44,-0.26 -0.95,-0.38 -1.54,-0.38 -0.22,0 -0.43,0.02 -0.62,0.08 -0.2,0.05 -0.37,0.13 -0.51,0.23 -0.15,0.11 -0.27,0.23 -0.35,0.39 -0.08,0.15 -0.13,0.33 -0.13,0.53 0,0.2 0.03,0.36 0.09,0.5 0.05,0.14 0.15,0.27 0.27,0.4 0.13,0.12 0.29,0.24 0.5,0.37 0.2,0.12 0.45,0.26 0.75,0.42 0.31,0.16 0.58,0.32 0.81,0.48 0.23,0.16 0.42,0.32 0.58,0.49 0.15,0.17 0.26,0.35 0.34,0.54 0.08,0.2 0.11,0.41 0.11,0.64 0,0.33 -0.06,0.61 -0.18,0.86 -0.12,0.24 -0.29,0.45 -0.5,0.61 -0.22,0.16 -0.48,0.28 -0.78,0.37 -0.3,0.08 -0.63,0.12 -0.99,0.12 -0.11,0 -0.25,-0.01 -0.41,-0.03 -0.17,-0.02 -0.33,-0.04 -0.5,-0.08 -0.16,-0.04 -0.32,-0.08 -0.47,-0.13 -0.15,-0.05 -0.27,-0.1 -0.36,-0.16l0 -0.81z"/>
   <path id="20" class="fil1" d="M153.05 13.57l0 2.89 -0.69 0 0 -7.41 1.91 0c0.39,0 0.74,0.04 1.04,0.14 0.3,0.1 0.55,0.24 0.76,0.42 0.2,0.18 0.36,0.41 0.46,0.67 0.11,0.27 0.17,0.57 0.17,0.91 0,0.35 -0.06,0.66 -0.19,0.95 -0.12,0.3 -0.29,0.55 -0.51,0.76 -0.23,0.21 -0.51,0.38 -0.83,0.5 -0.32,0.11 -0.69,0.17 -1.1,0.17l-1.02 0zm0 -3.89l0 3.26 0.98 0c0.64,0 1.12,-0.14 1.45,-0.44 0.33,-0.3 0.5,-0.72 0.5,-1.26 0,-1.04 -0.61,-1.56 -1.83,-1.56l-1.1 0z"/>
   <path id="21" class="fil1" d="M161.22 16.59c-0.54,0 -1.02,-0.1 -1.44,-0.3 -0.43,-0.19 -0.79,-0.46 -1.09,-0.79 -0.3,-0.34 -0.53,-0.74 -0.69,-1.19 -0.16,-0.46 -0.24,-0.95 -0.24,-1.48 0,-0.57 0.08,-1.1 0.24,-1.59 0.16,-0.47 0.39,-0.89 0.7,-1.23 0.31,-0.34 0.68,-0.61 1.13,-0.8 0.44,-0.19 0.95,-0.29 1.52,-0.29 0.52,0 0.99,0.1 1.41,0.28 0.41,0.19 0.77,0.45 1.06,0.79 0.29,0.33 0.52,0.72 0.68,1.18 0.15,0.45 0.23,0.94 0.23,1.48 0,0.56 -0.07,1.08 -0.23,1.56 -0.15,0.48 -0.38,0.9 -0.67,1.25 -0.3,0.35 -0.67,0.63 -1.11,0.83 -0.43,0.2 -0.93,0.3 -1.5,0.3zm0.05 -7.04c-0.44,0 -0.84,0.08 -1.19,0.25 -0.34,0.17 -0.63,0.41 -0.87,0.7 -0.24,0.29 -0.42,0.63 -0.54,1.02 -0.12,0.39 -0.19,0.81 -0.19,1.25 0,0.42 0.05,0.82 0.16,1.2 0.11,0.39 0.28,0.73 0.51,1.02 0.22,0.3 0.51,0.53 0.85,0.71 0.35,0.17 0.75,0.26 1.21,0.26 0.47,0 0.87,-0.08 1.22,-0.24 0.35,-0.16 0.64,-0.38 0.88,-0.67 0.23,-0.28 0.41,-0.62 0.53,-1.01 0.11,-0.39 0.17,-0.82 0.17,-1.29 0,-0.43 -0.05,-0.84 -0.15,-1.23 -0.11,-0.39 -0.27,-0.73 -0.5,-1.02 -0.22,-0.29 -0.5,-0.53 -0.85,-0.7 -0.34,-0.17 -0.75,-0.25 -1.24,-0.25z"/>
   <path id="22" class="fil1" d="M170.25 16.46l-1.12 -2.13c-0.1,-0.21 -0.21,-0.38 -0.31,-0.52 -0.11,-0.15 -0.22,-0.26 -0.33,-0.34 -0.11,-0.09 -0.22,-0.15 -0.35,-0.18 -0.13,-0.04 -0.27,-0.06 -0.42,-0.06l-0.82 0 0 3.23 -0.68 0 0 -7.41 2.13 0c0.28,0 0.55,0.04 0.81,0.12 0.26,0.08 0.49,0.21 0.69,0.37 0.21,0.16 0.37,0.36 0.49,0.61 0.12,0.24 0.18,0.53 0.18,0.85 0,0.26 -0.03,0.5 -0.11,0.72 -0.08,0.22 -0.2,0.42 -0.34,0.59 -0.15,0.17 -0.33,0.32 -0.54,0.43 -0.2,0.12 -0.44,0.21 -0.7,0.27l0 0.02c0.1,0.04 0.19,0.1 0.27,0.16 0.09,0.07 0.17,0.15 0.24,0.24 0.08,0.09 0.16,0.2 0.23,0.32 0.08,0.12 0.16,0.26 0.24,0.41l1.25 2.3 -0.81 0zm-3.35 -6.78l0 2.93 1.23 0c0.25,0 0.48,-0.04 0.69,-0.11 0.2,-0.07 0.38,-0.18 0.52,-0.31 0.15,-0.14 0.26,-0.3 0.34,-0.49 0.09,-0.19 0.13,-0.4 0.13,-0.64 0,-0.43 -0.14,-0.77 -0.42,-1.01 -0.28,-0.25 -0.68,-0.37 -1.2,-0.37l-1.29 0z"/>
   <path id="23" class="fil1" d="M171.49 18.14c1.06,-1.29 1.6,-2.79 1.6,-4.51 0,-1.78 -0.54,-3.31 -1.62,-4.58l0.64 0c1.06,1.23 1.59,2.76 1.59,4.58 0,1.79 -0.53,3.29 -1.58,4.51l-0.63 0z"/>
  </g>
  <path class="fil2" d="M16.42 5.73c4.14,0 7.5,3.36 7.5,7.5 0,4.15 -3.36,7.5 -7.5,7.5 -4.14,0 -7.5,-3.35 -7.5,-7.5 0,-4.14 3.36,-7.5 7.5,-7.5zm-5.17 9.66l0 -4.31 0.74 0 1.5 2.54 0.44 0.86 0.04 -0.01 -0.1 -0.93 0 -2.46 0.7 0 0 4.31 -0.82 0 -1.46 -2.5 -0.4 -0.82 -0.05 0.01 0.11 0.9 0 2.41 -0.7 0zm5.58 0l-0.7 0 0 -4.31 0.7 0 0 4.31zm2.24 0l-0.7 0 0 -4.31 0.7 0 0 1.9 1.87 -1.9 0.87 0 -1.93 2.08 1.94 2.23 -0.89 0 -1.55 -1.73 -0.31 0.3 0 1.43z"/>
 </g>
</svg>
