<?xml version="1.0" encoding="UTF-8"?>
<!DOCTYPE svg PUBLIC "-//W3C//DTD SVG 1.1//EN" "http://www.w3.org/Graphics/SVG/1.1/DTD/svg11.dtd">
<!-- Creator: CorelDRAW 2018 (64-Bit) -->
<svg xmlns="http://www.w3.org/2000/svg" xml:space="preserve" width="542px" height="63px" version="1.1" style="shape-rendering:geometricPrecision; text-rendering:geometricPrecision; image-rendering:optimizeQuality; fill-rule:evenodd; clip-rule:evenodd"
viewBox="0 0 229.25 26.47"
 xmlns:xlink="http://www.w3.org/1999/xlink">
 <defs>
  <style type="text/css">
   <![CDATA[
    .fil2 {fill:#088378}
    .fil1 {fill:#B6B6B7;fill-rule:nonzero}
    .fil0 {fill:#088378;fill-rule:nonzero}
   ]]>
  </style>
 </defs>
 <g id="Layer_x0020_1">
  <metadata id="CorelCorpID_0Corel-Layer"/>
  <g id="_2298957424544">
   <path class="fil0" d="M5.84 0l217.58 0c1.6,0 3.06,0.66 4.12,1.71 1.05,1.06 1.71,2.52 1.71,4.13l0 14.79c0,1.6 -0.66,3.06 -1.71,4.12 -1.06,1.06 -2.52,1.72 -4.12,1.72l-217.58 0c-1.61,0 -3.07,-0.66 -4.12,-1.72 -1.06,-1.05 -1.72,-2.51 -1.72,-4.12l0 -14.79c0,-1.61 0.66,-3.07 1.71,-4.13 1.06,-1.05 2.52,-1.71 4.13,-1.71zm217.58 1l-217.58 0c-1.33,0 -2.54,0.54 -3.42,1.42 -0.88,0.88 -1.42,2.09 -1.42,3.42l0 14.79c0,1.33 0.54,2.54 1.42,3.42 0.88,0.87 2.09,1.42 3.42,1.42l217.58 0c1.32,0 2.53,-0.55 3.41,-1.42 0.88,-0.88 1.42,-2.09 1.42,-3.42l0 -14.79c0,-1.33 -0.54,-2.54 -1.42,-3.42 -0.88,-0.88 -2.09,-1.42 -3.41,-1.42z"/>
   <path class="fil1" d="M34.57 16.46l0 -7.41 1.94 0c1.27,0 2.23,0.3 2.88,0.91 0.65,0.61 0.97,1.51 0.97,2.69 0,0.58 -0.09,1.1 -0.27,1.56 -0.18,0.47 -0.44,0.87 -0.79,1.21 -0.34,0.33 -0.75,0.59 -1.24,0.77 -0.48,0.18 -1.03,0.27 -1.64,0.27l-1.85 0zm0.68 -6.78l0 6.15 1.14 0c0.51,0 0.96,-0.07 1.37,-0.21 0.4,-0.13 0.74,-0.34 1.02,-0.6 0.28,-0.27 0.49,-0.6 0.64,-0.99 0.14,-0.4 0.22,-0.84 0.22,-1.36 0,-1.99 -1.06,-2.99 -3.17,-2.99l-1.22 0z"/>
   <path id="1" class="fil1" d="M42.05 13.93c0,0.32 0.05,0.62 0.13,0.87 0.08,0.26 0.2,0.48 0.36,0.66 0.15,0.18 0.34,0.32 0.56,0.41 0.22,0.1 0.47,0.14 0.75,0.14 0.6,0 1.16,-0.21 1.69,-0.62l0 0.65c-0.5,0.36 -1.12,0.54 -1.84,0.54 -0.35,0 -0.67,-0.06 -0.96,-0.18 -0.29,-0.13 -0.54,-0.31 -0.74,-0.54 -0.21,-0.24 -0.36,-0.53 -0.47,-0.88 -0.11,-0.34 -0.17,-0.73 -0.17,-1.17 0,-0.4 0.06,-0.77 0.18,-1.1 0.12,-0.34 0.29,-0.63 0.5,-0.88 0.22,-0.25 0.47,-0.44 0.76,-0.58 0.3,-0.14 0.62,-0.21 0.97,-0.21 0.34,0 0.64,0.06 0.9,0.18 0.26,0.12 0.48,0.29 0.66,0.51 0.18,0.22 0.31,0.49 0.4,0.8 0.1,0.32 0.14,0.68 0.14,1.07l0 0.33 -3.82 0zm3.14 -0.58c-0.01,-0.55 -0.14,-0.98 -0.39,-1.28 -0.25,-0.3 -0.6,-0.45 -1.05,-0.45 -0.22,0 -0.43,0.03 -0.62,0.11 -0.19,0.08 -0.36,0.2 -0.51,0.35 -0.14,0.15 -0.26,0.33 -0.36,0.55 -0.09,0.21 -0.16,0.45 -0.2,0.72l3.13 0z"/>
   <path id="2" class="fil1" d="M46.87 15.51c0.1,0.08 0.21,0.15 0.33,0.21 0.11,0.06 0.23,0.11 0.36,0.16 0.12,0.04 0.25,0.08 0.37,0.1 0.13,0.02 0.25,0.03 0.36,0.03 0.79,0 1.18,-0.29 1.18,-0.88 0,-0.14 -0.03,-0.25 -0.08,-0.35 -0.06,-0.1 -0.14,-0.19 -0.24,-0.27 -0.1,-0.08 -0.23,-0.15 -0.37,-0.22 -0.15,-0.07 -0.31,-0.15 -0.49,-0.22 -0.25,-0.1 -0.46,-0.2 -0.63,-0.3 -0.18,-0.11 -0.32,-0.22 -0.44,-0.34 -0.11,-0.13 -0.2,-0.26 -0.25,-0.41 -0.06,-0.14 -0.08,-0.31 -0.08,-0.49 0,-0.24 0.05,-0.45 0.15,-0.63 0.1,-0.18 0.24,-0.34 0.41,-0.47 0.17,-0.12 0.37,-0.22 0.6,-0.29 0.22,-0.06 0.46,-0.1 0.71,-0.1 0.46,0 0.85,0.09 1.2,0.26l0 0.7c-0.4,-0.26 -0.83,-0.38 -1.29,-0.38 -0.16,0 -0.31,0.02 -0.45,0.06 -0.13,0.04 -0.25,0.1 -0.35,0.17 -0.09,0.08 -0.17,0.17 -0.22,0.27 -0.06,0.11 -0.08,0.23 -0.08,0.35 0,0.13 0.02,0.25 0.06,0.35 0.04,0.1 0.11,0.18 0.19,0.26 0.09,0.08 0.21,0.16 0.34,0.23 0.15,0.07 0.32,0.15 0.51,0.23 0.26,0.11 0.48,0.21 0.67,0.31 0.18,0.1 0.33,0.21 0.46,0.33 0.12,0.12 0.21,0.25 0.26,0.4 0.06,0.15 0.09,0.31 0.09,0.51 0,0.23 -0.05,0.45 -0.15,0.63 -0.09,0.19 -0.23,0.35 -0.4,0.47 -0.18,0.13 -0.38,0.23 -0.62,0.29 -0.23,0.07 -0.49,0.1 -0.76,0.1 -0.54,0 -0.98,-0.11 -1.35,-0.33l0 -0.74z"/>
   <path id="3" class="fil1" d="M54.52 16.46l0 -0.94 -0.02 0c-0.17,0.33 -0.41,0.6 -0.71,0.78 -0.29,0.19 -0.63,0.28 -1.01,0.28 -0.25,0 -0.48,-0.03 -0.69,-0.11 -0.2,-0.07 -0.37,-0.17 -0.52,-0.31 -0.14,-0.13 -0.25,-0.29 -0.33,-0.47 -0.08,-0.19 -0.12,-0.39 -0.12,-0.62 0,-0.48 0.15,-0.86 0.45,-1.14 0.3,-0.29 0.74,-0.47 1.34,-0.56l1.61 -0.23c0,-1.02 -0.4,-1.52 -1.18,-1.52 -0.62,0 -1.19,0.22 -1.72,0.67l0 -0.72c0.11,-0.08 0.24,-0.15 0.38,-0.22 0.14,-0.06 0.28,-0.11 0.44,-0.16 0.15,-0.05 0.31,-0.08 0.47,-0.11 0.17,-0.03 0.33,-0.04 0.48,-0.04 0.59,0 1.04,0.17 1.34,0.5 0.3,0.33 0.45,0.82 0.45,1.48l0 3.44 -0.66 0zm-1.36 -2.57c-0.24,0.03 -0.44,0.08 -0.61,0.13 -0.17,0.05 -0.31,0.12 -0.42,0.21 -0.11,0.09 -0.19,0.19 -0.25,0.32 -0.05,0.13 -0.07,0.29 -0.07,0.48 0,0.14 0.02,0.27 0.07,0.39 0.05,0.12 0.12,0.23 0.22,0.32 0.09,0.08 0.21,0.15 0.35,0.2 0.13,0.05 0.28,0.07 0.46,0.07 0.23,0 0.45,-0.04 0.64,-0.13 0.2,-0.09 0.37,-0.21 0.51,-0.37 0.15,-0.16 0.26,-0.35 0.34,-0.57 0.08,-0.22 0.12,-0.46 0.12,-0.72l0 -0.52 -1.36 0.19z"/>
   <path id="4" class="fil1" d="M62.72 16.46l0 -0.94 -0.02 0c-0.17,0.33 -0.41,0.6 -0.7,0.78 -0.3,0.19 -0.64,0.28 -1.01,0.28 -0.26,0 -0.49,-0.03 -0.69,-0.11 -0.21,-0.07 -0.38,-0.17 -0.52,-0.31 -0.15,-0.13 -0.26,-0.29 -0.34,-0.47 -0.07,-0.19 -0.11,-0.39 -0.11,-0.62 0,-0.48 0.15,-0.86 0.44,-1.14 0.3,-0.29 0.75,-0.47 1.35,-0.56l1.6 -0.23c0,-1.02 -0.39,-1.52 -1.18,-1.52 -0.62,0 -1.19,0.22 -1.72,0.67l0 -0.72c0.11,-0.08 0.24,-0.15 0.38,-0.22 0.14,-0.06 0.28,-0.11 0.44,-0.16 0.15,-0.05 0.31,-0.08 0.48,-0.11 0.16,-0.03 0.32,-0.04 0.48,-0.04 0.58,0 1.03,0.17 1.33,0.5 0.3,0.33 0.45,0.82 0.45,1.48l0 3.44 -0.66 0zm-1.36 -2.57c-0.24,0.03 -0.44,0.08 -0.61,0.13 -0.17,0.05 -0.31,0.12 -0.42,0.21 -0.11,0.09 -0.19,0.19 -0.24,0.32 -0.05,0.13 -0.08,0.29 -0.08,0.48 0,0.14 0.02,0.27 0.07,0.39 0.05,0.12 0.13,0.23 0.22,0.32 0.1,0.08 0.21,0.15 0.35,0.2 0.13,0.05 0.29,0.07 0.46,0.07 0.23,0 0.45,-0.04 0.65,-0.13 0.19,-0.09 0.36,-0.21 0.51,-0.37 0.14,-0.16 0.25,-0.35 0.33,-0.57 0.08,-0.22 0.12,-0.46 0.12,-0.72l0 -0.52 -1.36 0.19z"/>
   <path id="5" class="fil1" d="M64.68 15.51c0.1,0.08 0.21,0.15 0.32,0.21 0.12,0.06 0.24,0.11 0.36,0.16 0.13,0.04 0.25,0.08 0.38,0.1 0.12,0.02 0.24,0.03 0.36,0.03 0.78,0 1.18,-0.29 1.18,-0.88 0,-0.14 -0.03,-0.25 -0.09,-0.35 -0.05,-0.1 -0.13,-0.19 -0.23,-0.27 -0.11,-0.08 -0.23,-0.15 -0.38,-0.22 -0.14,-0.07 -0.3,-0.15 -0.49,-0.22 -0.24,-0.1 -0.45,-0.2 -0.63,-0.3 -0.17,-0.11 -0.32,-0.22 -0.43,-0.34 -0.12,-0.13 -0.2,-0.26 -0.26,-0.41 -0.05,-0.14 -0.08,-0.31 -0.08,-0.49 0,-0.24 0.05,-0.45 0.15,-0.63 0.11,-0.18 0.24,-0.34 0.42,-0.47 0.17,-0.12 0.37,-0.22 0.59,-0.29 0.23,-0.06 0.46,-0.1 0.71,-0.1 0.46,0 0.86,0.09 1.2,0.26l0 0.7c-0.39,-0.26 -0.82,-0.38 -1.28,-0.38 -0.17,0 -0.32,0.02 -0.45,0.06 -0.14,0.04 -0.25,0.1 -0.35,0.17 -0.1,0.08 -0.17,0.17 -0.23,0.27 -0.05,0.11 -0.08,0.23 -0.08,0.35 0,0.13 0.03,0.25 0.07,0.35 0.04,0.1 0.1,0.18 0.19,0.26 0.09,0.08 0.2,0.16 0.34,0.23 0.14,0.07 0.31,0.15 0.51,0.23 0.26,0.11 0.48,0.21 0.66,0.31 0.19,0.1 0.34,0.21 0.46,0.33 0.12,0.12 0.21,0.25 0.27,0.4 0.06,0.15 0.09,0.31 0.09,0.51 0,0.23 -0.05,0.45 -0.15,0.63 -0.1,0.19 -0.23,0.35 -0.41,0.47 -0.17,0.13 -0.38,0.23 -0.61,0.29 -0.23,0.07 -0.49,0.1 -0.77,0.1 -0.53,0 -0.98,-0.11 -1.34,-0.33l0 -0.74z"/>
   <path id="6" class="fil1" d="M72.33 16.46l0 -0.94 -0.03 0c-0.17,0.33 -0.4,0.6 -0.7,0.78 -0.3,0.19 -0.64,0.28 -1.01,0.28 -0.26,0 -0.49,-0.03 -0.69,-0.11 -0.21,-0.07 -0.38,-0.17 -0.52,-0.31 -0.14,-0.13 -0.26,-0.29 -0.33,-0.47 -0.08,-0.19 -0.12,-0.39 -0.12,-0.62 0,-0.48 0.15,-0.86 0.44,-1.14 0.3,-0.29 0.75,-0.47 1.35,-0.56l1.61 -0.23c0,-1.02 -0.4,-1.52 -1.19,-1.52 -0.62,0 -1.19,0.22 -1.71,0.67l0 -0.72c0.11,-0.08 0.23,-0.15 0.37,-0.22 0.14,-0.06 0.29,-0.11 0.44,-0.16 0.16,-0.05 0.32,-0.08 0.48,-0.11 0.16,-0.03 0.32,-0.04 0.48,-0.04 0.59,0 1.03,0.17 1.34,0.5 0.3,0.33 0.45,0.82 0.45,1.48l0 3.44 -0.66 0zm-1.37 -2.57c-0.24,0.03 -0.44,0.08 -0.61,0.13 -0.17,0.05 -0.31,0.12 -0.42,0.21 -0.11,0.09 -0.19,0.19 -0.24,0.32 -0.05,0.13 -0.08,0.29 -0.08,0.48 0,0.14 0.03,0.27 0.08,0.39 0.05,0.12 0.12,0.23 0.21,0.32 0.1,0.08 0.22,0.15 0.35,0.2 0.14,0.05 0.29,0.07 0.46,0.07 0.24,0 0.45,-0.04 0.65,-0.13 0.19,-0.09 0.37,-0.21 0.51,-0.37 0.14,-0.16 0.25,-0.35 0.33,-0.57 0.08,-0.22 0.13,-0.46 0.13,-0.72l0 -0.52 -1.37 0.19z"/>
   <polygon id="7" class="fil1" points="74.58,16.46 74.58,8.62 75.24,8.62 75.24,16.46 "/>
   <path id="8" class="fil1" d="M82.9 16.46l0 -0.94 -0.03 0c-0.17,0.33 -0.4,0.6 -0.7,0.78 -0.3,0.19 -0.64,0.28 -1.01,0.28 -0.26,0 -0.49,-0.03 -0.69,-0.11 -0.21,-0.07 -0.38,-0.17 -0.52,-0.31 -0.14,-0.13 -0.26,-0.29 -0.33,-0.47 -0.08,-0.19 -0.12,-0.39 -0.12,-0.62 0,-0.48 0.15,-0.86 0.44,-1.14 0.3,-0.29 0.75,-0.47 1.35,-0.56l1.61 -0.23c0,-1.02 -0.4,-1.52 -1.19,-1.52 -0.62,0 -1.19,0.22 -1.71,0.67l0 -0.72c0.11,-0.08 0.23,-0.15 0.37,-0.22 0.14,-0.06 0.29,-0.11 0.44,-0.16 0.16,-0.05 0.32,-0.08 0.48,-0.11 0.16,-0.03 0.32,-0.04 0.48,-0.04 0.59,0 1.03,0.17 1.34,0.5 0.3,0.33 0.45,0.82 0.45,1.48l0 3.44 -0.66 0zm-1.37 -2.57c-0.24,0.03 -0.44,0.08 -0.61,0.13 -0.17,0.05 -0.31,0.12 -0.42,0.21 -0.11,0.09 -0.19,0.19 -0.24,0.32 -0.05,0.13 -0.08,0.29 -0.08,0.48 0,0.14 0.03,0.27 0.08,0.39 0.05,0.12 0.12,0.23 0.21,0.32 0.1,0.08 0.22,0.15 0.35,0.2 0.14,0.05 0.29,0.07 0.46,0.07 0.24,0 0.45,-0.04 0.65,-0.13 0.19,-0.09 0.37,-0.21 0.51,-0.37 0.14,-0.16 0.25,-0.35 0.33,-0.57 0.08,-0.22 0.13,-0.46 0.13,-0.72l0 -0.52 -1.37 0.19z"/>
   <path id="9" class="fil1" d="M88.72 16.46l0 -3.05c0,-1.2 -0.43,-1.79 -1.3,-1.79 -0.23,0 -0.45,0.04 -0.64,0.13 -0.2,0.09 -0.37,0.22 -0.51,0.38 -0.14,0.16 -0.26,0.35 -0.34,0.58 -0.08,0.22 -0.12,0.46 -0.12,0.72l0 3.03 -0.66 0 0 -5.29 0.66 0 0 0.91 0.02 0c0.39,-0.69 0.99,-1.04 1.77,-1.04 0.58,0 1.02,0.19 1.33,0.56 0.3,0.38 0.45,0.92 0.45,1.63l0 3.23 -0.66 0z"/>
   <path id="10" class="fil1" d="M94.68 16.46l0 -0.93 -0.02 0c-0.17,0.33 -0.42,0.59 -0.75,0.78 -0.32,0.18 -0.69,0.27 -1.11,0.27 -0.33,0 -0.63,-0.06 -0.9,-0.18 -0.27,-0.12 -0.5,-0.3 -0.69,-0.53 -0.2,-0.23 -0.35,-0.51 -0.45,-0.84 -0.11,-0.33 -0.16,-0.7 -0.16,-1.11 0,-0.43 0.06,-0.82 0.18,-1.17 0.11,-0.35 0.27,-0.66 0.49,-0.91 0.21,-0.25 0.46,-0.45 0.76,-0.59 0.3,-0.14 0.63,-0.21 1,-0.21 0.76,0 1.3,0.31 1.63,0.92l0.02 0 0 -3.34 0.67 0 0 7.84 -0.67 0zm0 -3.2c0,-0.23 -0.04,-0.44 -0.11,-0.64 -0.08,-0.2 -0.19,-0.38 -0.34,-0.52 -0.14,-0.15 -0.31,-0.27 -0.51,-0.36 -0.19,-0.08 -0.41,-0.12 -0.65,-0.12 -0.26,0 -0.5,0.05 -0.72,0.15 -0.22,0.1 -0.41,0.25 -0.57,0.45 -0.15,0.19 -0.28,0.43 -0.36,0.71 -0.09,0.28 -0.14,0.59 -0.14,0.95 0,0.33 0.04,0.63 0.12,0.9 0.08,0.26 0.19,0.49 0.34,0.67 0.15,0.18 0.32,0.32 0.53,0.42 0.2,0.1 0.42,0.14 0.67,0.14 0.27,0 0.51,-0.04 0.73,-0.14 0.21,-0.1 0.4,-0.23 0.55,-0.4 0.15,-0.17 0.26,-0.37 0.34,-0.59 0.08,-0.23 0.12,-0.47 0.12,-0.73l0 -0.89z"/>
   <path id="11" class="fil1" d="M100.1 16.46l0 -0.94 -0.02 0c-0.17,0.33 -0.41,0.6 -0.71,0.78 -0.3,0.19 -0.63,0.28 -1.01,0.28 -0.25,0 -0.48,-0.03 -0.69,-0.11 -0.2,-0.07 -0.38,-0.17 -0.52,-0.31 -0.14,-0.13 -0.25,-0.29 -0.33,-0.47 -0.08,-0.19 -0.12,-0.39 -0.12,-0.62 0,-0.48 0.15,-0.86 0.45,-1.14 0.29,-0.29 0.74,-0.47 1.34,-0.56l1.61 -0.23c0,-1.02 -0.4,-1.52 -1.18,-1.52 -0.62,0 -1.19,0.22 -1.72,0.67l0 -0.72c0.11,-0.08 0.24,-0.15 0.37,-0.22 0.14,-0.06 0.29,-0.11 0.45,-0.16 0.15,-0.05 0.31,-0.08 0.47,-0.11 0.17,-0.03 0.33,-0.04 0.48,-0.04 0.59,0 1.04,0.17 1.34,0.5 0.3,0.33 0.45,0.82 0.45,1.48l0 3.44 -0.66 0zm-1.36 -2.57c-0.24,0.03 -0.45,0.08 -0.61,0.13 -0.17,0.05 -0.31,0.12 -0.42,0.21 -0.11,0.09 -0.2,0.19 -0.25,0.32 -0.05,0.13 -0.07,0.29 -0.07,0.48 0,0.14 0.02,0.27 0.07,0.39 0.05,0.12 0.12,0.23 0.22,0.32 0.09,0.08 0.21,0.15 0.34,0.2 0.14,0.05 0.29,0.07 0.47,0.07 0.23,0 0.45,-0.04 0.64,-0.13 0.2,-0.09 0.37,-0.21 0.51,-0.37 0.15,-0.16 0.26,-0.35 0.34,-0.57 0.08,-0.22 0.12,-0.46 0.12,-0.72l0 -0.52 -1.36 0.19z"/>
  </g>
  <path class="fil2" d="M16.42 6.74l3.07 0c0.58,0 0.76,0.11 1.05,0.61l1.54 2.66 1.53 2.65c0.29,0.51 0.29,0.72 0,1.22l-1.53 2.66 -1.54 2.65c-0.29,0.51 -0.47,0.62 -1.05,0.62l-3.07 0 -3.06 0c-0.59,0 -0.77,-0.11 -1.06,-0.62l-1.54 -2.65 -1.53 -2.66c-0.29,-0.5 -0.29,-0.71 0,-1.22l1.53 -2.65 1.54 -2.66c0.29,-0.5 0.47,-0.61 1.06,-0.61l3.06 0zm-3.14 8.58l-1.08 0c-0.25,0 -0.48,-0.1 -0.65,-0.26 -0.16,-0.17 -0.27,-0.4 -0.27,-0.65l0 -1.9c-0.13,-0.02 -0.25,-0.09 -0.33,-0.17 -0.04,-0.05 -0.08,-0.1 -0.11,-0.16 -0.03,-0.06 -0.04,-0.13 -0.04,-0.19 0,-0.13 0.05,-0.27 0.17,-0.38l2.26 -2.27c0.1,-0.09 0.21,-0.16 0.33,-0.21 0.12,-0.04 0.25,-0.06 0.37,-0.05 0.13,-0.01 0.26,0.01 0.38,0.05 0.12,0.05 0.23,0.12 0.32,0.21l1.43 1.43c-0.06,0.01 -0.12,0.03 -0.18,0.05 -0.05,0.02 -0.11,0.05 -0.16,0.07l-1.32 -1.32c-0.06,-0.06 -0.13,-0.11 -0.21,-0.13 -0.07,-0.03 -0.16,-0.04 -0.25,-0.04l-0.02 0c-0.08,0 -0.17,0.01 -0.25,0.04 -0.07,0.02 -0.14,0.07 -0.21,0.13l-2.26 2.27c-0.05,0.05 -0.08,0.1 -0.08,0.15l0.02 0.06 0.04 0.06c0.06,0.06 0.15,0.1 0.27,0.1l0.16 0 0 2.2c0,0.16 0.07,0.31 0.17,0.42 0.11,0.1 0.26,0.17 0.42,0.17l1.08 0 0 0.32zm3.5 -4.55l1.43 -1.43c0.09,-0.09 0.2,-0.16 0.32,-0.21 0.12,-0.04 0.25,-0.06 0.38,-0.05 0.12,-0.01 0.25,0.01 0.37,0.05 0.12,0.05 0.23,0.12 0.33,0.21l2.26 2.27c0.12,0.11 0.17,0.25 0.17,0.38 0,0.06 -0.01,0.13 -0.04,0.19 -0.03,0.06 -0.06,0.11 -0.11,0.16 -0.08,0.08 -0.2,0.15 -0.33,0.17l0 1.9c0,0.25 -0.11,0.48 -0.27,0.65 -0.17,0.16 -0.4,0.26 -0.65,0.26l-1.08 0 0 -0.32 1.08 0c0.16,0 0.31,-0.07 0.42,-0.17 0.1,-0.11 0.17,-0.26 0.17,-0.42l0 -2.2 0.16 0c0.12,0 0.21,-0.04 0.27,-0.1l0.04 -0.06 0.02 -0.06c0,-0.05 -0.03,-0.1 -0.08,-0.15l-2.26 -2.27c-0.07,-0.06 -0.14,-0.11 -0.21,-0.13 -0.08,-0.03 -0.17,-0.04 -0.25,-0.04l-0.02 0c-0.09,0 -0.18,0.01 -0.25,0.04 -0.08,0.02 -0.15,0.07 -0.21,0.13l-1.32 1.32c-0.05,-0.02 -0.1,-0.05 -0.16,-0.07 -0.06,-0.02 -0.12,-0.03 -0.18,-0.05zm-0.36 6.7l-1.73 0c-0.26,0 -0.49,-0.1 -0.65,-0.27 -0.17,-0.16 -0.27,-0.39 -0.27,-0.64l0 -1.9c-0.13,-0.03 -0.25,-0.09 -0.33,-0.17 -0.05,-0.05 -0.09,-0.1 -0.11,-0.16 -0.03,-0.06 -0.04,-0.13 -0.04,-0.2 0,-0.13 0.05,-0.26 0.16,-0.37l2.27 -2.27c0.09,-0.1 0.21,-0.17 0.33,-0.21 0.12,-0.04 0.25,-0.06 0.37,-0.06 0.12,0 0.25,0.02 0.37,0.06 0.12,0.04 0.24,0.11 0.33,0.21l2.27 2.27c0.11,0.11 0.16,0.24 0.16,0.37 0,0.07 -0.01,0.13 -0.04,0.19 -0.02,0.07 -0.06,0.12 -0.11,0.17 -0.08,0.08 -0.2,0.14 -0.33,0.17l0 1.9c0,0.25 -0.1,0.48 -0.27,0.64 -0.16,0.17 -0.39,0.27 -0.65,0.27l-1.73 0z"/>
 </g>
</svg>
