<?xml version="1.0" encoding="UTF-8"?>
<!DOCTYPE svg PUBLIC "-//W3C//DTD SVG 1.1//EN" "http://www.w3.org/Graphics/SVG/1.1/DTD/svg11.dtd">
<!-- Creator: CorelDRAW 2018 (64-Bit) -->
<svg xmlns="http://www.w3.org/2000/svg" xml:space="preserve" width="542px" height="63px" version="1.1" style="shape-rendering:geometricPrecision; text-rendering:geometricPrecision; image-rendering:optimizeQuality; fill-rule:evenodd; clip-rule:evenodd"
viewBox="0 0 229.25 26.47"
 xmlns:xlink="http://www.w3.org/1999/xlink">
 <defs>
  <style type="text/css">
   <![CDATA[
    .fil2 {fill:#088378}
    .fil1 {fill:#B6B6B7;fill-rule:nonzero}
    .fil0 {fill:#088378;fill-rule:nonzero}
   ]]>
  </style>
 </defs>
 <g id="Layer_x0020_1">
  <metadata id="CorelCorpID_0Corel-Layer"/>
  <g id="_2298696715440">
   <path class="fil0" d="M5.84 0l217.58 0c1.6,0 3.06,0.66 4.12,1.71 1.05,1.06 1.71,2.52 1.71,4.13l0 14.79c0,1.6 -0.66,3.06 -1.71,4.12 -1.06,1.06 -2.52,1.72 -4.12,1.72l-217.58 0c-1.61,0 -3.07,-0.66 -4.12,-1.72 -1.06,-1.05 -1.72,-2.51 -1.72,-4.12l0 -14.79c0,-1.61 0.66,-3.07 1.71,-4.13 1.06,-1.05 2.52,-1.71 4.13,-1.71zm217.58 1l-217.58 0c-1.33,0 -2.54,0.54 -3.42,1.42 -0.88,0.88 -1.42,2.09 -1.42,3.42l0 14.79c0,1.33 0.54,2.54 1.42,3.42 0.88,0.87 2.09,1.42 3.42,1.42l217.58 0c1.32,0 2.53,-0.55 3.41,-1.42 0.88,-0.88 1.42,-2.09 1.42,-3.42l0 -14.79c0,-1.33 -0.54,-2.54 -1.42,-3.42 -0.88,-0.88 -2.09,-1.42 -3.41,-1.42z"/>
   <path class="fil1" d="M38.45 16.46l-3.02 -3.47c-0.08,-0.1 -0.13,-0.17 -0.16,-0.21l-0.02 0 0 3.68 -0.68 0 0 -7.41 0.68 0 0 3.48 0.02 0c0.03,-0.03 0.05,-0.07 0.08,-0.1 0.03,-0.04 0.06,-0.07 0.09,-0.11l2.88 -3.27 0.88 0 -3.22 3.57 3.43 3.84 -0.96 0z"/>
   <path id="1" class="fil1" d="M40.63 13.93c0,0.32 0.05,0.62 0.13,0.87 0.08,0.26 0.2,0.48 0.35,0.66 0.16,0.18 0.35,0.32 0.57,0.41 0.22,0.1 0.47,0.14 0.75,0.14 0.6,0 1.16,-0.21 1.69,-0.62l0 0.65c-0.5,0.36 -1.12,0.54 -1.84,0.54 -0.35,0 -0.68,-0.06 -0.96,-0.18 -0.29,-0.13 -0.54,-0.31 -0.74,-0.54 -0.21,-0.24 -0.36,-0.53 -0.47,-0.88 -0.11,-0.34 -0.17,-0.73 -0.17,-1.17 0,-0.4 0.06,-0.77 0.18,-1.1 0.12,-0.34 0.29,-0.63 0.5,-0.88 0.22,-0.25 0.47,-0.44 0.76,-0.58 0.3,-0.14 0.62,-0.21 0.96,-0.21 0.34,0 0.65,0.06 0.91,0.18 0.26,0.12 0.48,0.29 0.66,0.51 0.17,0.22 0.31,0.49 0.4,0.8 0.1,0.32 0.14,0.68 0.14,1.07l0 0.33 -3.82 0zm3.14 -0.58c-0.01,-0.55 -0.14,-0.98 -0.39,-1.28 -0.25,-0.3 -0.6,-0.45 -1.05,-0.45 -0.23,0 -0.43,0.03 -0.62,0.11 -0.2,0.08 -0.36,0.2 -0.51,0.35 -0.14,0.15 -0.26,0.33 -0.36,0.55 -0.09,0.21 -0.16,0.45 -0.2,0.72l3.13 0z"/>
   <polygon id="2" class="fil1" points="45.75,16.46 45.75,8.62 46.41,8.62 46.41,16.46 "/>
   <path id="3" class="fil1" d="M51.58 16.46l0 -0.9 -0.02 0c-0.36,0.68 -0.92,1.02 -1.67,1.02 -1.26,0 -1.89,-0.77 -1.89,-2.3l0 -3.11 0.66 0 0 2.98c0,0.64 0.12,1.1 0.34,1.41 0.23,0.3 0.57,0.45 1.04,0.45 0.23,0 0.43,-0.04 0.62,-0.13 0.19,-0.09 0.35,-0.21 0.49,-0.37 0.13,-0.16 0.24,-0.35 0.31,-0.58 0.08,-0.22 0.12,-0.47 0.12,-0.74l0 -3.02 0.66 0 0 5.29 -0.66 0z"/>
   <path id="4" class="fil1" d="M56.57 11.84c-0.15,-0.11 -0.35,-0.17 -0.6,-0.17 -0.17,0 -0.33,0.04 -0.46,0.1 -0.14,0.07 -0.26,0.16 -0.36,0.27 -0.1,0.12 -0.19,0.25 -0.26,0.4 -0.07,0.15 -0.12,0.3 -0.17,0.47 -0.04,0.16 -0.07,0.32 -0.09,0.49 -0.02,0.16 -0.03,0.32 -0.03,0.47l0 2.59 -0.66 0 0 -5.29 0.66 0 0 1.13 0.02 0c0.06,-0.2 0.14,-0.37 0.24,-0.52 0.09,-0.16 0.2,-0.28 0.33,-0.39 0.12,-0.1 0.25,-0.19 0.4,-0.24 0.15,-0.06 0.3,-0.08 0.46,-0.08 0.11,0 0.21,0 0.29,0.02 0.08,0.01 0.16,0.03 0.23,0.06l0 0.69z"/>
   <path id="5" class="fil1" d="M60.58 16.46l0 -0.94 -0.02 0c-0.17,0.33 -0.41,0.6 -0.71,0.78 -0.29,0.19 -0.63,0.28 -1.01,0.28 -0.25,0 -0.48,-0.03 -0.69,-0.11 -0.2,-0.07 -0.37,-0.17 -0.52,-0.31 -0.14,-0.13 -0.25,-0.29 -0.33,-0.47 -0.08,-0.19 -0.12,-0.39 -0.12,-0.62 0,-0.48 0.15,-0.86 0.45,-1.14 0.3,-0.29 0.74,-0.47 1.34,-0.56l1.61 -0.23c0,-1.02 -0.39,-1.52 -1.18,-1.52 -0.62,0 -1.19,0.22 -1.72,0.67l0 -0.72c0.11,-0.08 0.24,-0.15 0.38,-0.22 0.14,-0.06 0.28,-0.11 0.44,-0.16 0.15,-0.05 0.31,-0.08 0.48,-0.11 0.16,-0.03 0.32,-0.04 0.47,-0.04 0.59,0 1.04,0.17 1.34,0.5 0.3,0.33 0.45,0.82 0.45,1.48l0 3.44 -0.66 0zm-1.36 -2.57c-0.24,0.03 -0.44,0.08 -0.61,0.13 -0.17,0.05 -0.31,0.12 -0.42,0.21 -0.11,0.09 -0.19,0.19 -0.24,0.32 -0.06,0.13 -0.08,0.29 -0.08,0.48 0,0.14 0.02,0.27 0.07,0.39 0.05,0.12 0.13,0.23 0.22,0.32 0.09,0.08 0.21,0.15 0.35,0.2 0.13,0.05 0.29,0.07 0.46,0.07 0.23,0 0.45,-0.04 0.64,-0.13 0.2,-0.09 0.37,-0.21 0.51,-0.37 0.15,-0.16 0.26,-0.35 0.34,-0.57 0.08,-0.22 0.12,-0.46 0.12,-0.72l0 -0.52 -1.36 0.19z"/>
   <path id="6" class="fil1" d="M66.41 16.46l0 -3.11c0,-0.6 -0.11,-1.03 -0.33,-1.31 -0.21,-0.29 -0.54,-0.42 -0.99,-0.42 -0.22,0 -0.42,0.04 -0.61,0.12 -0.2,0.09 -0.36,0.21 -0.51,0.38 -0.14,0.16 -0.26,0.36 -0.34,0.59 -0.09,0.23 -0.14,0.49 -0.14,0.79l0 2.96 -0.66 0 0 -7.84 0.66 0 0 3.46 0.03 0c0.41,-0.69 1,-1.04 1.77,-1.04 0.59,0 1.04,0.18 1.33,0.54 0.3,0.37 0.45,0.9 0.45,1.61l0 3.27 -0.66 0z"/>
   <path id="7" class="fil1" d="M71.71 16.46l0 -0.94 -0.02 0c-0.17,0.33 -0.41,0.6 -0.71,0.78 -0.3,0.19 -0.63,0.28 -1.01,0.28 -0.25,0 -0.48,-0.03 -0.69,-0.11 -0.2,-0.07 -0.38,-0.17 -0.52,-0.31 -0.14,-0.13 -0.25,-0.29 -0.33,-0.47 -0.08,-0.19 -0.12,-0.39 -0.12,-0.62 0,-0.48 0.15,-0.86 0.45,-1.14 0.29,-0.29 0.74,-0.47 1.34,-0.56l1.61 -0.23c0,-1.02 -0.4,-1.52 -1.19,-1.52 -0.61,0 -1.18,0.22 -1.71,0.67l0 -0.72c0.11,-0.08 0.23,-0.15 0.37,-0.22 0.14,-0.06 0.29,-0.11 0.44,-0.16 0.16,-0.05 0.32,-0.08 0.48,-0.11 0.17,-0.03 0.33,-0.04 0.48,-0.04 0.59,0 1.04,0.17 1.34,0.5 0.3,0.33 0.45,0.82 0.45,1.48l0 3.44 -0.66 0zm-1.37 -2.57c-0.23,0.03 -0.44,0.08 -0.61,0.13 -0.17,0.05 -0.3,0.12 -0.42,0.21 -0.11,0.09 -0.19,0.19 -0.24,0.32 -0.05,0.13 -0.08,0.29 -0.08,0.48 0,0.14 0.03,0.27 0.08,0.39 0.05,0.12 0.12,0.23 0.22,0.32 0.09,0.08 0.21,0.15 0.34,0.2 0.14,0.05 0.29,0.07 0.47,0.07 0.23,0 0.45,-0.04 0.64,-0.13 0.2,-0.09 0.37,-0.21 0.51,-0.37 0.14,-0.16 0.25,-0.35 0.34,-0.57 0.08,-0.22 0.12,-0.46 0.12,-0.72l0 -0.52 -1.37 0.19z"/>
   <path id="8" class="fil1" d="M77.53 16.46l0 -3.05c0,-1.2 -0.43,-1.79 -1.3,-1.79 -0.23,0 -0.44,0.04 -0.64,0.13 -0.2,0.09 -0.37,0.22 -0.51,0.38 -0.14,0.16 -0.26,0.35 -0.34,0.58 -0.08,0.22 -0.12,0.46 -0.12,0.72l0 3.03 -0.66 0 0 -5.29 0.66 0 0 0.91 0.02 0c0.4,-0.69 0.99,-1.04 1.78,-1.04 0.57,0 1.02,0.19 1.32,0.56 0.3,0.38 0.45,0.92 0.45,1.63l0 3.23 -0.66 0z"/>
   <polygon id="9" class="fil1" points="82.31,17.69 81.68,17.69 85.26,9.05 85.91,9.05 "/>
   <path id="10" class="fil1" d="M93.3 16.46l0 -0.93 -0.02 0c-0.18,0.33 -0.43,0.59 -0.76,0.78 -0.32,0.18 -0.69,0.27 -1.1,0.27 -0.33,0 -0.63,-0.06 -0.91,-0.18 -0.27,-0.12 -0.5,-0.3 -0.69,-0.53 -0.19,-0.23 -0.34,-0.51 -0.45,-0.84 -0.1,-0.33 -0.16,-0.7 -0.16,-1.11 0,-0.43 0.06,-0.82 0.18,-1.17 0.11,-0.35 0.28,-0.66 0.49,-0.91 0.21,-0.25 0.47,-0.45 0.76,-0.59 0.3,-0.14 0.63,-0.21 1,-0.21 0.76,0 1.31,0.31 1.64,0.92l0.02 0 0 -3.34 0.66 0 0 7.84 -0.66 0zm0 -3.2c0,-0.23 -0.04,-0.44 -0.12,-0.64 -0.08,-0.2 -0.19,-0.38 -0.33,-0.52 -0.14,-0.15 -0.31,-0.27 -0.51,-0.36 -0.2,-0.08 -0.42,-0.12 -0.66,-0.12 -0.26,0 -0.5,0.05 -0.72,0.15 -0.22,0.1 -0.41,0.25 -0.56,0.45 -0.16,0.19 -0.28,0.43 -0.37,0.71 -0.09,0.28 -0.13,0.59 -0.13,0.95 0,0.33 0.04,0.63 0.12,0.9 0.08,0.26 0.19,0.49 0.33,0.67 0.15,0.18 0.33,0.32 0.53,0.42 0.2,0.1 0.43,0.14 0.68,0.14 0.26,0 0.51,-0.04 0.72,-0.14 0.22,-0.1 0.4,-0.23 0.55,-0.4 0.15,-0.17 0.26,-0.37 0.35,-0.59 0.08,-0.23 0.12,-0.47 0.12,-0.73l0 -0.89z"/>
   <path id="11" class="fil1" d="M95.98 13.93c0,0.32 0.05,0.62 0.13,0.87 0.08,0.26 0.2,0.48 0.35,0.66 0.16,0.18 0.35,0.32 0.57,0.41 0.22,0.1 0.47,0.14 0.75,0.14 0.6,0 1.16,-0.21 1.69,-0.62l0 0.65c-0.5,0.36 -1.12,0.54 -1.84,0.54 -0.35,0 -0.67,-0.06 -0.96,-0.18 -0.29,-0.13 -0.54,-0.31 -0.74,-0.54 -0.21,-0.24 -0.36,-0.53 -0.47,-0.88 -0.11,-0.34 -0.17,-0.73 -0.17,-1.17 0,-0.4 0.06,-0.77 0.18,-1.1 0.12,-0.34 0.29,-0.63 0.5,-0.88 0.22,-0.25 0.47,-0.44 0.76,-0.58 0.3,-0.14 0.62,-0.21 0.96,-0.21 0.34,0 0.65,0.06 0.91,0.18 0.26,0.12 0.48,0.29 0.66,0.51 0.18,0.22 0.31,0.49 0.4,0.8 0.1,0.32 0.14,0.68 0.14,1.07l0 0.33 -3.82 0zm3.14 -0.58c-0.01,-0.55 -0.14,-0.98 -0.39,-1.28 -0.25,-0.3 -0.6,-0.45 -1.05,-0.45 -0.23,0 -0.43,0.03 -0.62,0.11 -0.19,0.08 -0.36,0.2 -0.51,0.35 -0.14,0.15 -0.26,0.33 -0.36,0.55 -0.09,0.21 -0.16,0.45 -0.2,0.72l3.13 0z"/>
   <path id="12" class="fil1" d="M100.8 15.51c0.1,0.08 0.21,0.15 0.33,0.21 0.11,0.06 0.23,0.11 0.36,0.16 0.12,0.04 0.25,0.08 0.37,0.1 0.13,0.02 0.25,0.03 0.36,0.03 0.79,0 1.18,-0.29 1.18,-0.88 0,-0.14 -0.03,-0.25 -0.08,-0.35 -0.06,-0.1 -0.14,-0.19 -0.24,-0.27 -0.1,-0.08 -0.23,-0.15 -0.37,-0.22 -0.15,-0.07 -0.31,-0.15 -0.49,-0.22 -0.25,-0.1 -0.46,-0.2 -0.63,-0.3 -0.18,-0.11 -0.33,-0.22 -0.44,-0.34 -0.11,-0.13 -0.2,-0.26 -0.25,-0.41 -0.06,-0.14 -0.09,-0.31 -0.09,-0.49 0,-0.24 0.06,-0.45 0.16,-0.63 0.1,-0.18 0.24,-0.34 0.41,-0.47 0.17,-0.12 0.37,-0.22 0.6,-0.29 0.22,-0.06 0.46,-0.1 0.71,-0.1 0.45,0 0.85,0.09 1.2,0.26l0 0.7c-0.4,-0.26 -0.83,-0.38 -1.29,-0.38 -0.16,0 -0.31,0.02 -0.45,0.06 -0.14,0.04 -0.25,0.1 -0.35,0.17 -0.09,0.08 -0.17,0.17 -0.22,0.27 -0.06,0.11 -0.08,0.23 -0.08,0.35 0,0.13 0.02,0.25 0.06,0.35 0.04,0.1 0.1,0.18 0.19,0.26 0.09,0.08 0.2,0.16 0.34,0.23 0.14,0.07 0.31,0.15 0.51,0.23 0.26,0.11 0.48,0.21 0.66,0.31 0.19,0.1 0.34,0.21 0.47,0.33 0.12,0.12 0.21,0.25 0.26,0.4 0.06,0.15 0.09,0.31 0.09,0.51 0,0.23 -0.05,0.45 -0.15,0.63 -0.09,0.19 -0.23,0.35 -0.4,0.47 -0.18,0.13 -0.38,0.23 -0.62,0.29 -0.23,0.07 -0.49,0.1 -0.76,0.1 -0.54,0 -0.98,-0.11 -1.35,-0.33l0 -0.74z"/>
   <path id="13" class="fil1" d="M108.45 16.46l0 -0.94 -0.02 0c-0.17,0.33 -0.41,0.6 -0.71,0.78 -0.3,0.19 -0.63,0.28 -1.01,0.28 -0.25,0 -0.48,-0.03 -0.69,-0.11 -0.2,-0.07 -0.38,-0.17 -0.52,-0.31 -0.14,-0.13 -0.25,-0.29 -0.33,-0.47 -0.08,-0.19 -0.12,-0.39 -0.12,-0.62 0,-0.48 0.15,-0.86 0.45,-1.14 0.29,-0.29 0.74,-0.47 1.34,-0.56l1.61 -0.23c0,-1.02 -0.4,-1.52 -1.18,-1.52 -0.62,0 -1.19,0.22 -1.72,0.67l0 -0.72c0.11,-0.08 0.24,-0.15 0.37,-0.22 0.14,-0.06 0.29,-0.11 0.45,-0.16 0.15,-0.05 0.31,-0.08 0.47,-0.11 0.17,-0.03 0.33,-0.04 0.48,-0.04 0.59,0 1.04,0.17 1.34,0.5 0.3,0.33 0.45,0.82 0.45,1.48l0 3.44 -0.66 0zm-1.36 -2.57c-0.24,0.03 -0.45,0.08 -0.61,0.13 -0.17,0.05 -0.31,0.12 -0.42,0.21 -0.11,0.09 -0.2,0.19 -0.25,0.32 -0.05,0.13 -0.07,0.29 -0.07,0.48 0,0.14 0.02,0.27 0.07,0.39 0.05,0.12 0.12,0.23 0.22,0.32 0.09,0.08 0.21,0.15 0.34,0.2 0.14,0.05 0.29,0.07 0.47,0.07 0.23,0 0.45,-0.04 0.64,-0.13 0.2,-0.09 0.37,-0.21 0.51,-0.37 0.15,-0.16 0.26,-0.35 0.34,-0.57 0.08,-0.22 0.12,-0.46 0.12,-0.72l0 -0.52 -1.36 0.19z"/>
  </g>
  <path class="fil2" d="M16.39 5.85c1.6,0.01 2.9,1.3 3.06,2.99 0.06,0.68 -0.11,1.3 -0.4,1.88 -0.34,0.68 -0.82,1.26 -1.27,1.85 -0.41,0.54 -0.83,1.06 -1.24,1.59 -0.09,0.11 -0.14,0.12 -0.23,0.01 -0.69,-0.83 -1.39,-1.64 -2.02,-2.51 -0.43,-0.58 -0.74,-1.22 -0.86,-1.96 -0.27,-1.77 0.83,-3.48 2.44,-3.8 0.19,-0.03 0.39,-0.05 0.52,-0.05zm3.4 10.58l0.69 0 0 3.54 1.93 0 0 0.7 -2.62 0 0 -4.24zm-3.82 1.77l1.93 0 0 0.7 -1.93 0 0 1.07 2.1 0 0 0.7 -2.8 0 0 -4.25 2.8 0 0 0.7 -2.1 0 0 1.08zm-4.85 2.47l-0.69 0 0 -4.24 0.69 0 0 1.87 1.84 -1.87 0.86 0 -1.91 2.05 1.92 2.19 -0.88 0 -1.53 -1.7 -0.3 0.3 0 1.4zm1.05 -8.95c0.12,0.17 0.22,0.31 0.32,0.45l2.64 3.61 -0.34 0 -2.05 -2.79c-0.28,-0.38 -0.55,-0.75 -0.83,-1.13 -0.05,-0.03 -0.07,-0.09 -0.13,-0.1 -0.04,0.01 -0.08,0.04 -0.1,0.07 -0.46,0.35 -0.93,0.7 -1.39,1.05 -0.16,0.11 -0.16,0.11 -0.05,0.28 0.54,0.87 1.09,1.75 1.64,2.62l-0.7 0 -1.62 -2.61c-0.14,-0.24 -0.13,-0.39 0.09,-0.55 0.62,-0.46 1.23,-0.92 1.85,-1.38 0.11,-0.09 0.22,-0.12 0.36,-0.13 0.47,-0.01 0.95,-0.02 1.43,-0.03 0.11,0 0.18,0.04 0.24,0.15 0.04,0.1 0.11,0.19 0.15,0.29 0.02,0.04 0.08,0.08 0.04,0.14 -0.02,0.04 -0.08,0.02 -0.12,0.02 -0.43,0.01 -0.87,0.02 -1.31,0.03 -0.03,0 -0.06,0 -0.12,0.01zm7.49 4.06l-0.02 -0.02c-0.69,-0.67 -1.39,-1.35 -2.08,-2.01 -0.03,-0.03 -0.1,-0.06 -0.06,-0.13 0.04,-0.08 0.09,-0.15 0.15,-0.18 0.04,-0.03 0.08,0.02 0.11,0.06 0.39,0.37 0.78,0.74 1.15,1.12 0.36,0.33 0.7,0.68 1.04,1.02 0.06,0.06 0.12,0.05 0.18,0 0.78,-0.67 1.55,-1.31 2.34,-1.98 0.1,-0.09 0.08,-0.13 -0.02,-0.17 -0.81,-0.44 -1.62,-0.9 -2.43,-1.35 -0.3,-0.16 -0.59,-0.33 -0.89,-0.5 -0.1,-0.05 -0.11,-0.11 -0.04,-0.2 0.04,-0.04 0.05,-0.09 0.09,-0.13 0.14,-0.25 0.08,-0.26 0.36,-0.11 1.21,0.68 2.42,1.35 3.62,2.01 0.27,0.14 0.28,0.38 0.04,0.58 -0.78,0.66 -1.56,1.33 -2.34,1.99l-1.2 0zm-1.77 -6.53c0.01,-0.9 -0.62,-1.61 -1.44,-1.61 -0.83,0 -1.48,0.7 -1.49,1.59 0,0.9 0.64,1.61 1.45,1.61 0.83,0 1.47,-0.7 1.48,-1.59z"/>
 </g>
</svg>
