<?xml version="1.0" encoding="UTF-8"?>
<!DOCTYPE svg PUBLIC "-//W3C//DTD SVG 1.1//EN" "http://www.w3.org/Graphics/SVG/1.1/DTD/svg11.dtd">
<!-- Creator: CorelDRAW 2018 (64-Bit) -->
<svg xmlns="http://www.w3.org/2000/svg" xml:space="preserve" width="542px" height="63px" version="1.1" style="shape-rendering:geometricPrecision; text-rendering:geometricPrecision; image-rendering:optimizeQuality; fill-rule:evenodd; clip-rule:evenodd"
viewBox="0 0 229.25 26.47"
 xmlns:xlink="http://www.w3.org/1999/xlink">
 <defs>
  <style type="text/css">
   <![CDATA[
    .str0 {stroke:#088378;stroke-miterlimit:22.9256}
    .fil0 {fill:none}
    .fil2 {fill:#088378}
    .fil1 {fill:#B6B6B7;fill-rule:nonzero}
   ]]>
  </style>
 </defs>
 <g id="Layer_x0020_1">
  <metadata id="CorelCorpID_0Corel-Layer"/>
  <g id="_2298840572160">
   <rect class="fil0 str0" x="0.5" y="0.5" width="228.25" height="25.47" rx="14.17" ry="5.34"/>
   <path class="fil1" d="M36.01 13.07l0 2.89 -0.69 0 0 -7.41 1.91 0c0.39,0 0.74,0.04 1.04,0.14 0.3,0.1 0.55,0.24 0.76,0.42 0.2,0.18 0.36,0.41 0.47,0.67 0.1,0.27 0.16,0.57 0.16,0.91 0,0.35 -0.06,0.66 -0.18,0.95 -0.12,0.3 -0.3,0.55 -0.52,0.76 -0.23,0.21 -0.5,0.38 -0.83,0.5 -0.32,0.11 -0.69,0.17 -1.1,0.17l-1.02 0zm0 -3.89l0 3.26 0.98 0c0.64,0 1.12,-0.14 1.45,-0.44 0.33,-0.3 0.5,-0.72 0.5,-1.26 0,-1.04 -0.61,-1.56 -1.83,-1.56l-1.1 0z"/>
   <path id="1" class="fil1" d="M44.1 15.96l0 -0.94 -0.02 0c-0.17,0.33 -0.41,0.6 -0.7,0.78 -0.3,0.19 -0.64,0.28 -1.01,0.28 -0.26,0 -0.49,-0.03 -0.69,-0.11 -0.21,-0.07 -0.38,-0.17 -0.52,-0.31 -0.15,-0.13 -0.26,-0.29 -0.34,-0.47 -0.07,-0.19 -0.11,-0.39 -0.11,-0.62 0,-0.48 0.15,-0.86 0.44,-1.14 0.3,-0.29 0.75,-0.47 1.35,-0.56l1.6 -0.23c0,-1.02 -0.39,-1.52 -1.18,-1.52 -0.62,0 -1.19,0.22 -1.72,0.67l0 -0.72c0.11,-0.08 0.24,-0.15 0.38,-0.22 0.14,-0.06 0.28,-0.11 0.44,-0.16 0.15,-0.05 0.31,-0.08 0.48,-0.11 0.16,-0.03 0.32,-0.04 0.48,-0.04 0.58,0 1.03,0.17 1.33,0.5 0.3,0.33 0.45,0.82 0.45,1.48l0 3.44 -0.66 0zm-1.36 -2.57c-0.24,0.03 -0.44,0.08 -0.61,0.13 -0.17,0.05 -0.31,0.12 -0.42,0.21 -0.11,0.09 -0.19,0.19 -0.24,0.32 -0.05,0.13 -0.08,0.29 -0.08,0.48 0,0.14 0.02,0.27 0.07,0.39 0.05,0.12 0.13,0.23 0.22,0.32 0.1,0.08 0.21,0.15 0.35,0.2 0.13,0.05 0.29,0.07 0.46,0.07 0.23,0 0.45,-0.04 0.65,-0.13 0.19,-0.09 0.36,-0.21 0.51,-0.37 0.14,-0.16 0.25,-0.35 0.33,-0.57 0.08,-0.22 0.12,-0.46 0.12,-0.72l0 -0.52 -1.36 0.19z"/>
   <path id="2" class="fil1" d="M46.06 15.01c0.1,0.08 0.21,0.15 0.32,0.21 0.12,0.06 0.24,0.11 0.36,0.16 0.13,0.04 0.25,0.08 0.38,0.1 0.12,0.02 0.24,0.03 0.36,0.03 0.78,0 1.18,-0.29 1.18,-0.88 0,-0.14 -0.03,-0.25 -0.09,-0.35 -0.05,-0.1 -0.13,-0.19 -0.23,-0.27 -0.11,-0.08 -0.23,-0.15 -0.38,-0.22 -0.14,-0.07 -0.3,-0.15 -0.49,-0.22 -0.24,-0.1 -0.45,-0.2 -0.63,-0.3 -0.17,-0.11 -0.32,-0.22 -0.43,-0.34 -0.12,-0.13 -0.2,-0.26 -0.26,-0.41 -0.05,-0.14 -0.08,-0.31 -0.08,-0.49 0,-0.24 0.05,-0.45 0.15,-0.63 0.11,-0.18 0.24,-0.34 0.42,-0.47 0.17,-0.12 0.37,-0.22 0.59,-0.29 0.23,-0.06 0.46,-0.1 0.71,-0.1 0.46,0 0.86,0.09 1.2,0.26l0 0.7c-0.39,-0.26 -0.82,-0.38 -1.28,-0.38 -0.17,0 -0.32,0.02 -0.45,0.06 -0.14,0.04 -0.25,0.1 -0.35,0.17 -0.1,0.08 -0.17,0.17 -0.23,0.27 -0.05,0.11 -0.08,0.23 -0.08,0.35 0,0.13 0.03,0.25 0.07,0.35 0.04,0.1 0.1,0.18 0.19,0.26 0.09,0.08 0.2,0.16 0.34,0.23 0.14,0.07 0.31,0.15 0.51,0.23 0.26,0.11 0.48,0.21 0.66,0.31 0.19,0.1 0.34,0.21 0.46,0.33 0.12,0.12 0.21,0.25 0.27,0.4 0.06,0.15 0.09,0.31 0.09,0.51 0,0.23 -0.05,0.45 -0.15,0.63 -0.1,0.19 -0.23,0.35 -0.41,0.47 -0.17,0.13 -0.38,0.23 -0.61,0.29 -0.23,0.07 -0.49,0.1 -0.77,0.1 -0.53,0 -0.98,-0.11 -1.34,-0.33l0 -0.74z"/>
   <path id="3" class="fil1" d="M50.36 15.01c0.1,0.08 0.21,0.15 0.32,0.21 0.12,0.06 0.24,0.11 0.36,0.16 0.13,0.04 0.25,0.08 0.38,0.1 0.12,0.02 0.24,0.03 0.36,0.03 0.78,0 1.18,-0.29 1.18,-0.88 0,-0.14 -0.03,-0.25 -0.09,-0.35 -0.05,-0.1 -0.13,-0.19 -0.23,-0.27 -0.11,-0.08 -0.23,-0.15 -0.38,-0.22 -0.14,-0.07 -0.3,-0.15 -0.49,-0.22 -0.24,-0.1 -0.45,-0.2 -0.63,-0.3 -0.17,-0.11 -0.32,-0.22 -0.43,-0.34 -0.12,-0.13 -0.2,-0.26 -0.26,-0.41 -0.05,-0.14 -0.08,-0.31 -0.08,-0.49 0,-0.24 0.05,-0.45 0.16,-0.63 0.1,-0.18 0.23,-0.34 0.41,-0.47 0.17,-0.12 0.37,-0.22 0.59,-0.29 0.23,-0.06 0.46,-0.1 0.71,-0.1 0.46,0 0.86,0.09 1.2,0.26l0 0.7c-0.39,-0.26 -0.82,-0.38 -1.28,-0.38 -0.17,0 -0.32,0.02 -0.45,0.06 -0.14,0.04 -0.25,0.1 -0.35,0.17 -0.1,0.08 -0.17,0.17 -0.23,0.27 -0.05,0.11 -0.08,0.23 -0.08,0.35 0,0.13 0.03,0.25 0.07,0.35 0.04,0.1 0.1,0.18 0.19,0.26 0.09,0.08 0.2,0.16 0.34,0.23 0.14,0.07 0.31,0.15 0.51,0.23 0.26,0.11 0.48,0.21 0.66,0.31 0.19,0.1 0.34,0.21 0.46,0.33 0.12,0.12 0.21,0.25 0.27,0.4 0.06,0.15 0.09,0.31 0.09,0.51 0,0.23 -0.05,0.45 -0.15,0.63 -0.1,0.19 -0.23,0.35 -0.41,0.47 -0.17,0.13 -0.37,0.23 -0.61,0.29 -0.23,0.07 -0.49,0.1 -0.76,0.1 -0.54,0 -0.99,-0.11 -1.35,-0.33l0 -0.74z"/>
   <path id="4" class="fil1" d="M59.74 15.96l-0.67 0 -1.12 -3.89c-0.03,-0.12 -0.06,-0.28 -0.08,-0.47l-0.02 0c-0.01,0.05 -0.02,0.12 -0.03,0.19 -0.02,0.08 -0.04,0.17 -0.08,0.27l-1.23 3.9 -0.65 0 -1.6 -5.29 0.71 0 1.16 4.1c0.03,0.12 0.06,0.27 0.07,0.46l0.04 0c0.01,-0.06 0.02,-0.13 0.04,-0.21 0.01,-0.08 0.03,-0.17 0.06,-0.26l1.28 -4.09 0.55 0 1.15 4.1c0.03,0.12 0.05,0.27 0.08,0.46l0.04 0c-0.01,-0.05 0,-0.12 0.02,-0.2 0.02,-0.08 0.04,-0.16 0.06,-0.26l1.17 -4.1 0.66 0 -1.61 5.29z"/>
   <path id="5" class="fil1" d="M64.53 16.08c-0.4,0 -0.75,-0.06 -1.06,-0.2 -0.31,-0.13 -0.58,-0.31 -0.8,-0.55 -0.22,-0.24 -0.39,-0.53 -0.5,-0.86 -0.12,-0.33 -0.18,-0.71 -0.18,-1.11 0,-0.44 0.06,-0.84 0.19,-1.19 0.12,-0.34 0.3,-0.64 0.53,-0.88 0.22,-0.25 0.5,-0.43 0.82,-0.56 0.33,-0.12 0.69,-0.19 1.09,-0.19 0.38,0 0.73,0.06 1.03,0.19 0.31,0.13 0.57,0.31 0.78,0.55 0.22,0.23 0.38,0.52 0.49,0.86 0.12,0.34 0.18,0.73 0.18,1.17 0,0.41 -0.06,0.79 -0.18,1.12 -0.12,0.35 -0.29,0.64 -0.51,0.88 -0.22,0.25 -0.49,0.44 -0.81,0.57 -0.31,0.13 -0.67,0.2 -1.07,0.2zm0.05 -4.96c-0.29,0 -0.55,0.04 -0.79,0.15 -0.23,0.09 -0.43,0.24 -0.6,0.43 -0.17,0.19 -0.29,0.43 -0.38,0.7 -0.09,0.28 -0.14,0.6 -0.14,0.95 0,0.33 0.05,0.63 0.14,0.89 0.09,0.27 0.21,0.49 0.38,0.68 0.16,0.19 0.36,0.34 0.59,0.44 0.24,0.1 0.5,0.15 0.79,0.15 0.29,0 0.56,-0.05 0.78,-0.14 0.23,-0.1 0.42,-0.25 0.58,-0.43 0.16,-0.19 0.28,-0.42 0.36,-0.69 0.08,-0.28 0.12,-0.59 0.12,-0.93 0,-0.72 -0.16,-1.26 -0.47,-1.64 -0.32,-0.38 -0.77,-0.56 -1.36,-0.56z"/>
   <path id="6" class="fil1" d="M71.05 11.34c-0.15,-0.11 -0.35,-0.17 -0.6,-0.17 -0.17,0 -0.33,0.04 -0.46,0.1 -0.14,0.07 -0.25,0.16 -0.36,0.27 -0.1,0.12 -0.18,0.25 -0.25,0.4 -0.07,0.15 -0.13,0.3 -0.17,0.47 -0.05,0.16 -0.08,0.32 -0.1,0.49 -0.02,0.16 -0.03,0.32 -0.03,0.47l0 2.59 -0.65 0 0 -5.29 0.65 0 0 1.13 0.02 0c0.07,-0.2 0.15,-0.37 0.24,-0.52 0.09,-0.16 0.2,-0.28 0.33,-0.39 0.12,-0.1 0.26,-0.19 0.4,-0.24 0.15,-0.06 0.3,-0.08 0.47,-0.08 0.1,0 0.2,0 0.28,0.02 0.09,0.01 0.16,0.03 0.23,0.06l0 0.69z"/>
   <path id="7" class="fil1" d="M75.72 15.96l0 -0.93 -0.02 0c-0.17,0.33 -0.42,0.59 -0.75,0.78 -0.32,0.18 -0.69,0.27 -1.11,0.27 -0.33,0 -0.63,-0.06 -0.9,-0.18 -0.27,-0.12 -0.5,-0.3 -0.69,-0.53 -0.2,-0.23 -0.35,-0.51 -0.45,-0.84 -0.11,-0.33 -0.16,-0.7 -0.16,-1.11 0,-0.43 0.06,-0.82 0.18,-1.17 0.11,-0.35 0.27,-0.66 0.49,-0.91 0.21,-0.25 0.46,-0.45 0.76,-0.59 0.3,-0.14 0.63,-0.21 1,-0.21 0.76,0 1.3,0.31 1.63,0.92l0.02 0 0 -3.34 0.67 0 0 7.84 -0.67 0zm0 -3.2c0,-0.23 -0.04,-0.44 -0.11,-0.64 -0.08,-0.2 -0.19,-0.38 -0.34,-0.52 -0.14,-0.15 -0.31,-0.27 -0.51,-0.36 -0.19,-0.08 -0.41,-0.12 -0.65,-0.12 -0.26,0 -0.5,0.05 -0.72,0.15 -0.22,0.1 -0.41,0.25 -0.57,0.45 -0.15,0.19 -0.28,0.43 -0.36,0.71 -0.09,0.28 -0.14,0.59 -0.14,0.95 0,0.33 0.04,0.63 0.12,0.9 0.08,0.26 0.19,0.49 0.34,0.67 0.15,0.18 0.32,0.32 0.53,0.42 0.2,0.1 0.42,0.14 0.67,0.14 0.27,0 0.51,-0.04 0.73,-0.14 0.21,-0.1 0.4,-0.23 0.55,-0.4 0.15,-0.17 0.26,-0.37 0.34,-0.59 0.08,-0.23 0.12,-0.47 0.12,-0.73l0 -0.89z"/>
   <polygon id="8" class="fil1" points="84.11,15.96 81.67,13.38 81.65,13.38 81.65,15.96 80.99,15.96 80.99,8.12 81.65,8.12 81.65,13.13 81.67,13.13 83.98,10.67 84.85,10.67 82.37,13.22 85.04,15.96 "/>
   <path id="9" class="fil1" d="M86.28 13.43c0.01,0.32 0.05,0.62 0.13,0.87 0.08,0.26 0.2,0.48 0.36,0.66 0.15,0.18 0.34,0.32 0.56,0.41 0.23,0.1 0.48,0.14 0.76,0.14 0.59,0 1.16,-0.21 1.69,-0.62l0 0.65c-0.51,0.36 -1.12,0.54 -1.84,0.54 -0.36,0 -0.68,-0.06 -0.97,-0.18 -0.29,-0.13 -0.54,-0.31 -0.74,-0.54 -0.2,-0.24 -0.36,-0.53 -0.47,-0.88 -0.11,-0.34 -0.17,-0.73 -0.17,-1.17 0,-0.4 0.07,-0.77 0.19,-1.1 0.12,-0.34 0.28,-0.63 0.5,-0.88 0.21,-0.25 0.46,-0.44 0.76,-0.58 0.29,-0.14 0.61,-0.21 0.96,-0.21 0.34,0 0.64,0.06 0.9,0.18 0.26,0.12 0.48,0.29 0.66,0.51 0.18,0.22 0.31,0.49 0.41,0.8 0.09,0.32 0.14,0.68 0.14,1.07l0 0.33 -3.83 0zm3.14 -0.58c-0.01,-0.55 -0.14,-0.98 -0.39,-1.28 -0.25,-0.3 -0.6,-0.45 -1.05,-0.45 -0.22,0 -0.43,0.03 -0.62,0.11 -0.19,0.08 -0.36,0.2 -0.5,0.35 -0.15,0.15 -0.27,0.33 -0.36,0.55 -0.1,0.21 -0.17,0.45 -0.2,0.72l3.12 0z"/>
   <path id="10" class="fil1" d="M94.45 15.96l0 -0.94 -0.02 0c-0.17,0.33 -0.41,0.6 -0.7,0.78 -0.3,0.19 -0.64,0.28 -1.01,0.28 -0.26,0 -0.49,-0.03 -0.69,-0.11 -0.21,-0.07 -0.38,-0.17 -0.52,-0.31 -0.15,-0.13 -0.26,-0.29 -0.34,-0.47 -0.07,-0.19 -0.11,-0.39 -0.11,-0.62 0,-0.48 0.15,-0.86 0.44,-1.14 0.3,-0.29 0.75,-0.47 1.35,-0.56l1.6 -0.23c0,-1.02 -0.39,-1.52 -1.18,-1.52 -0.62,0 -1.19,0.22 -1.72,0.67l0 -0.72c0.11,-0.08 0.24,-0.15 0.38,-0.22 0.14,-0.06 0.28,-0.11 0.44,-0.16 0.15,-0.05 0.31,-0.08 0.48,-0.11 0.16,-0.03 0.32,-0.04 0.48,-0.04 0.58,0 1.03,0.17 1.33,0.5 0.3,0.33 0.45,0.82 0.45,1.48l0 3.44 -0.66 0zm-1.36 -2.57c-0.24,0.03 -0.44,0.08 -0.61,0.13 -0.17,0.05 -0.31,0.12 -0.42,0.21 -0.11,0.09 -0.19,0.19 -0.24,0.32 -0.05,0.13 -0.08,0.29 -0.08,0.48 0,0.14 0.02,0.27 0.07,0.39 0.05,0.12 0.13,0.23 0.22,0.32 0.1,0.08 0.21,0.15 0.35,0.2 0.13,0.05 0.29,0.07 0.46,0.07 0.23,0 0.45,-0.04 0.65,-0.13 0.19,-0.09 0.36,-0.21 0.51,-0.37 0.14,-0.16 0.25,-0.35 0.33,-0.57 0.08,-0.22 0.12,-0.46 0.12,-0.72l0 -0.52 -1.36 0.19z"/>
   <path id="11" class="fil1" d="M103.36 15.96l0 -3.11c0,-0.32 -0.03,-0.59 -0.08,-0.81 -0.04,-0.22 -0.12,-0.39 -0.22,-0.53 -0.1,-0.14 -0.23,-0.24 -0.39,-0.3 -0.15,-0.06 -0.34,-0.09 -0.56,-0.09 -0.19,0 -0.37,0.04 -0.55,0.13 -0.17,0.09 -0.32,0.22 -0.45,0.38 -0.13,0.16 -0.23,0.35 -0.3,0.56 -0.08,0.22 -0.11,0.46 -0.11,0.71l0 3.06 -0.67 0 0 -3.18c0,-1.11 -0.42,-1.66 -1.27,-1.66 -0.2,0 -0.38,0.04 -0.55,0.13 -0.17,0.08 -0.32,0.21 -0.44,0.37 -0.13,0.16 -0.23,0.35 -0.3,0.57 -0.07,0.22 -0.1,0.47 -0.1,0.73l0 3.04 -0.66 0 0 -5.29 0.66 0 0 0.85 0.02 0c0.37,-0.65 0.91,-0.98 1.63,-0.98 0.18,0 0.36,0.03 0.52,0.09 0.17,0.05 0.32,0.13 0.45,0.23 0.13,0.11 0.24,0.23 0.34,0.37 0.09,0.14 0.16,0.29 0.21,0.46 0.19,-0.37 0.43,-0.66 0.73,-0.85 0.29,-0.2 0.63,-0.3 1.01,-0.3 1.16,0 1.74,0.72 1.74,2.15l0 3.27 -0.66 0z"/>
   <path id="12" class="fil1" d="M108.66 15.96l0 -0.94 -0.02 0c-0.17,0.33 -0.41,0.6 -0.71,0.78 -0.3,0.19 -0.63,0.28 -1.01,0.28 -0.25,0 -0.48,-0.03 -0.69,-0.11 -0.2,-0.07 -0.38,-0.17 -0.52,-0.31 -0.14,-0.13 -0.25,-0.29 -0.33,-0.47 -0.08,-0.19 -0.12,-0.39 -0.12,-0.62 0,-0.48 0.15,-0.86 0.45,-1.14 0.29,-0.29 0.74,-0.47 1.34,-0.56l1.61 -0.23c0,-1.02 -0.4,-1.52 -1.18,-1.52 -0.62,0 -1.19,0.22 -1.72,0.67l0 -0.72c0.11,-0.08 0.24,-0.15 0.38,-0.22 0.13,-0.06 0.28,-0.11 0.44,-0.16 0.15,-0.05 0.31,-0.08 0.47,-0.11 0.17,-0.03 0.33,-0.04 0.48,-0.04 0.59,0 1.04,0.17 1.34,0.5 0.3,0.33 0.45,0.82 0.45,1.48l0 3.44 -0.66 0zm-1.36 -2.57c-0.24,0.03 -0.44,0.08 -0.61,0.13 -0.17,0.05 -0.31,0.12 -0.42,0.21 -0.11,0.09 -0.19,0.19 -0.25,0.32 -0.05,0.13 -0.07,0.29 -0.07,0.48 0,0.14 0.02,0.27 0.07,0.39 0.05,0.12 0.12,0.23 0.22,0.32 0.09,0.08 0.21,0.15 0.35,0.2 0.13,0.05 0.28,0.07 0.46,0.07 0.23,0 0.45,-0.04 0.64,-0.13 0.2,-0.09 0.37,-0.21 0.51,-0.37 0.15,-0.16 0.26,-0.35 0.34,-0.57 0.08,-0.22 0.12,-0.46 0.12,-0.72l0 -0.52 -1.36 0.19z"/>
   <path id="13" class="fil1" d="M114.48 15.96l0 -3.05c0,-1.2 -0.43,-1.79 -1.3,-1.79 -0.23,0 -0.44,0.04 -0.64,0.13 -0.2,0.09 -0.36,0.22 -0.51,0.38 -0.14,0.16 -0.25,0.35 -0.33,0.58 -0.09,0.22 -0.13,0.46 -0.13,0.72l0 3.03 -0.66 0 0 -5.29 0.66 0 0 0.91 0.02 0c0.4,-0.69 0.99,-1.04 1.78,-1.04 0.58,0 1.02,0.19 1.32,0.56 0.3,0.38 0.46,0.92 0.46,1.63l0 3.23 -0.67 0z"/>
   <path id="14" class="fil1" d="M119.79 15.96l0 -0.94 -0.02 0c-0.18,0.33 -0.41,0.6 -0.71,0.78 -0.3,0.19 -0.63,0.28 -1.01,0.28 -0.25,0 -0.48,-0.03 -0.69,-0.11 -0.2,-0.07 -0.38,-0.17 -0.52,-0.31 -0.14,-0.13 -0.25,-0.29 -0.33,-0.47 -0.08,-0.19 -0.12,-0.39 -0.12,-0.62 0,-0.48 0.15,-0.86 0.45,-1.14 0.29,-0.29 0.74,-0.47 1.34,-0.56l1.61 -0.23c0,-1.02 -0.4,-1.52 -1.19,-1.52 -0.61,0 -1.19,0.22 -1.71,0.67l0 -0.72c0.11,-0.08 0.23,-0.15 0.37,-0.22 0.14,-0.06 0.29,-0.11 0.44,-0.16 0.16,-0.05 0.32,-0.08 0.48,-0.11 0.17,-0.03 0.32,-0.04 0.48,-0.04 0.59,0 1.04,0.17 1.34,0.5 0.3,0.33 0.45,0.82 0.45,1.48l0 3.44 -0.66 0zm-1.37 -2.57c-0.23,0.03 -0.44,0.08 -0.61,0.13 -0.17,0.05 -0.31,0.12 -0.42,0.21 -0.11,0.09 -0.19,0.19 -0.24,0.32 -0.05,0.13 -0.08,0.29 -0.08,0.48 0,0.14 0.03,0.27 0.08,0.39 0.05,0.12 0.12,0.23 0.22,0.32 0.09,0.08 0.21,0.15 0.34,0.2 0.14,0.05 0.29,0.07 0.46,0.07 0.24,0 0.45,-0.04 0.65,-0.13 0.2,-0.09 0.37,-0.21 0.51,-0.37 0.14,-0.16 0.25,-0.35 0.34,-0.57 0.08,-0.22 0.12,-0.46 0.12,-0.72l0 -0.52 -1.37 0.19z"/>
   <path id="15" class="fil1" d="M125.61 15.96l0 -3.05c0,-1.2 -0.43,-1.79 -1.3,-1.79 -0.23,0 -0.44,0.04 -0.64,0.13 -0.2,0.09 -0.37,0.22 -0.51,0.38 -0.14,0.16 -0.26,0.35 -0.34,0.58 -0.08,0.22 -0.12,0.46 -0.12,0.72l0 3.03 -0.66 0 0 -5.29 0.66 0 0 0.91 0.02 0c0.4,-0.69 0.99,-1.04 1.78,-1.04 0.57,0 1.01,0.19 1.32,0.56 0.3,0.38 0.45,0.92 0.45,1.63l0 3.23 -0.66 0z"/>
   <path class="fil2" d="M11.42 6.98l2.33 0c0.42,0 0.6,0.02 0.78,0.06 0.19,0.05 0.35,0.11 0.52,0.22 0.16,0.1 0.3,0.21 0.59,0.5l0.31 0.32c0.3,0.29 0.43,0.41 0.6,0.51 0.16,0.1 0.32,0.17 0.51,0.21 0.18,0.04 0.36,0.06 0.78,0.06l3.68 0c0.83,0 1.14,0.09 1.44,0.25 0.31,0.16 0.55,0.4 0.71,0.71 0.16,0.3 0.25,0.61 0.25,1.44l0 5.66c0,0.89 -0.09,1.21 -0.27,1.54 -0.17,0.33 -0.43,0.58 -0.75,0.76 -0.33,0.17 -0.65,0.26 -1.54,0.26l-9.88 0c-0.89,0 -1.21,-0.09 -1.54,-0.26 -0.32,-0.18 -0.58,-0.43 -0.75,-0.76 -0.18,-0.33 -0.27,-0.65 -0.27,-1.54l0 -7.44c0,-0.81 0.09,-1.15 0.27,-1.47 0.17,-0.33 0.43,-0.58 0.75,-0.76 0.33,-0.17 0.67,-0.27 1.48,-0.27l0 0zm-0.5 3.44c-0.11,0 -0.18,0.02 -0.24,0.05 -0.07,0.03 -0.11,0.08 -0.15,0.14 -0.03,0.06 -0.05,0.13 -0.05,0.25l0 0.06c0,0.12 0.02,0.19 0.05,0.25 0.04,0.06 0.08,0.11 0.15,0.14 0.06,0.03 0.13,0.05 0.24,0.05l11 0c0.11,0 0.18,-0.02 0.25,-0.05 0.06,-0.03 0.11,-0.08 0.14,-0.14 0.03,-0.06 0.05,-0.13 0.05,-0.25l0 -0.06c0,-0.12 -0.02,-0.19 -0.05,-0.25 -0.03,-0.06 -0.08,-0.11 -0.14,-0.14 -0.07,-0.03 -0.14,-0.05 -0.25,-0.05l-11 0z"/>
  </g>
 </g>
</svg>
