<?xml version="1.0" encoding="UTF-8"?>
<!DOCTYPE svg PUBLIC "-//W3C//DTD SVG 1.1//EN" "http://www.w3.org/Graphics/SVG/1.1/DTD/svg11.dtd">
<!-- Creator: CorelDRAW 2018 (64-Bit) -->
<svg xmlns="http://www.w3.org/2000/svg" xml:space="preserve" width="542px" height="63px" version="1.1" style="shape-rendering:geometricPrecision; text-rendering:geometricPrecision; image-rendering:optimizeQuality; fill-rule:evenodd; clip-rule:evenodd"
viewBox="0 0 229.25 26.47"
 xmlns:xlink="http://www.w3.org/1999/xlink">
 <defs>
  <style type="text/css">
   <![CDATA[
    .fil2 {fill:#088378}
    .fil1 {fill:#B6B6B7;fill-rule:nonzero}
    .fil0 {fill:#088378;fill-rule:nonzero}
   ]]>
  </style>
 </defs>
 <g id="Layer_x0020_1">
  <metadata id="CorelCorpID_0Corel-Layer"/>
  <g id="_2298839376016">
   <path class="fil0" d="M5.84 0l217.58 0c1.6,0 3.06,0.66 4.12,1.71 1.05,1.06 1.71,2.52 1.71,4.13l0 14.79c0,1.6 -0.66,3.06 -1.71,4.12 -1.06,1.06 -2.52,1.72 -4.12,1.72l-217.58 0c-1.61,0 -3.07,-0.66 -4.12,-1.72 -1.06,-1.05 -1.72,-2.51 -1.72,-4.12l0 -14.79c0,-1.61 0.66,-3.07 1.71,-4.13 1.06,-1.05 2.52,-1.71 4.13,-1.71zm217.58 1l-217.58 0c-1.33,0 -2.54,0.54 -3.42,1.42 -0.88,0.88 -1.42,2.09 -1.42,3.42l0 14.79c0,1.33 0.54,2.54 1.42,3.42 0.88,0.87 2.09,1.42 3.42,1.42l217.58 0c1.32,0 2.53,-0.55 3.41,-1.42 0.88,-0.88 1.42,-2.09 1.42,-3.42l0 -14.79c0,-1.33 -0.54,-2.54 -1.42,-3.42 -0.88,-0.88 -2.09,-1.42 -3.41,-1.42z"/>
   <path class="fil1" d="M39.64 16.46l-4.11 -5.95c-0.05,-0.08 -0.1,-0.15 -0.16,-0.23 -0.05,-0.08 -0.09,-0.16 -0.12,-0.24l-0.02 0c0,0.07 0.01,0.15 0.02,0.26 0,0.11 0,0.25 0,0.42l0 5.74 -0.68 0 0 -7.41 0.76 0 4.04 5.87c0.06,0.1 0.12,0.18 0.17,0.26 0.05,0.08 0.1,0.16 0.14,0.23l0.02 0c-0.01,-0.12 -0.02,-0.24 -0.03,-0.39 0,-0.14 -0.01,-0.29 -0.01,-0.46l0 -5.51 0.69 0 0 7.41 -0.71 0z"/>
   <path id="1" class="fil1" d="M45.22 16.46l0 -0.94 -0.02 0c-0.18,0.33 -0.41,0.6 -0.71,0.78 -0.3,0.19 -0.63,0.28 -1.01,0.28 -0.25,0 -0.48,-0.03 -0.69,-0.11 -0.2,-0.07 -0.38,-0.17 -0.52,-0.31 -0.14,-0.13 -0.25,-0.29 -0.33,-0.47 -0.08,-0.19 -0.12,-0.39 -0.12,-0.62 0,-0.48 0.15,-0.86 0.45,-1.14 0.29,-0.29 0.74,-0.47 1.34,-0.56l1.61 -0.23c0,-1.02 -0.4,-1.52 -1.19,-1.52 -0.61,0 -1.19,0.22 -1.71,0.67l0 -0.72c0.11,-0.08 0.23,-0.15 0.37,-0.22 0.14,-0.06 0.29,-0.11 0.44,-0.16 0.16,-0.05 0.32,-0.08 0.48,-0.11 0.17,-0.03 0.32,-0.04 0.48,-0.04 0.59,0 1.04,0.17 1.34,0.5 0.3,0.33 0.45,0.82 0.45,1.48l0 3.44 -0.66 0zm-1.37 -2.57c-0.23,0.03 -0.44,0.08 -0.61,0.13 -0.17,0.05 -0.31,0.12 -0.42,0.21 -0.11,0.09 -0.19,0.19 -0.24,0.32 -0.05,0.13 -0.08,0.29 -0.08,0.48 0,0.14 0.03,0.27 0.08,0.39 0.05,0.12 0.12,0.23 0.22,0.32 0.09,0.08 0.21,0.15 0.34,0.2 0.14,0.05 0.29,0.07 0.46,0.07 0.24,0 0.45,-0.04 0.65,-0.13 0.2,-0.09 0.37,-0.21 0.51,-0.37 0.14,-0.16 0.25,-0.35 0.34,-0.57 0.08,-0.22 0.12,-0.46 0.12,-0.72l0 -0.52 -1.37 0.19z"/>
   <path id="2" class="fil1" d="M54.12 16.46l0 -3.11c0,-0.32 -0.02,-0.59 -0.07,-0.81 -0.05,-0.22 -0.12,-0.39 -0.23,-0.53 -0.1,-0.14 -0.23,-0.24 -0.38,-0.3 -0.16,-0.06 -0.35,-0.09 -0.56,-0.09 -0.2,0 -0.38,0.04 -0.55,0.13 -0.17,0.09 -0.33,0.22 -0.45,0.38 -0.13,0.16 -0.24,0.35 -0.31,0.56 -0.07,0.22 -0.11,0.46 -0.11,0.71l0 3.06 -0.66 0 0 -3.18c0,-1.11 -0.43,-1.66 -1.28,-1.66 -0.19,0 -0.38,0.04 -0.55,0.13 -0.16,0.08 -0.31,0.21 -0.44,0.37 -0.12,0.16 -0.22,0.35 -0.29,0.57 -0.07,0.22 -0.11,0.47 -0.11,0.73l0 3.04 -0.66 0 0 -5.29 0.66 0 0 0.85 0.02 0c0.37,-0.65 0.92,-0.98 1.63,-0.98 0.19,0 0.36,0.03 0.53,0.09 0.16,0.05 0.31,0.13 0.44,0.23 0.13,0.11 0.25,0.23 0.34,0.37 0.09,0.14 0.17,0.29 0.21,0.46 0.19,-0.37 0.43,-0.66 0.73,-0.85 0.3,-0.2 0.64,-0.3 1.01,-0.3 1.16,0 1.74,0.72 1.74,2.15l0 3.27 -0.66 0z"/>
   <path id="3" class="fil1" d="M59.42 16.46l0 -0.94 -0.02 0c-0.17,0.33 -0.4,0.6 -0.7,0.78 -0.3,0.19 -0.64,0.28 -1.01,0.28 -0.26,0 -0.49,-0.03 -0.69,-0.11 -0.21,-0.07 -0.38,-0.17 -0.52,-0.31 -0.15,-0.13 -0.26,-0.29 -0.34,-0.47 -0.07,-0.19 -0.11,-0.39 -0.11,-0.62 0,-0.48 0.15,-0.86 0.44,-1.14 0.3,-0.29 0.75,-0.47 1.35,-0.56l1.6 -0.23c0,-1.02 -0.39,-1.52 -1.18,-1.52 -0.62,0 -1.19,0.22 -1.72,0.67l0 -0.72c0.12,-0.08 0.24,-0.15 0.38,-0.22 0.14,-0.06 0.29,-0.11 0.44,-0.16 0.16,-0.05 0.31,-0.08 0.48,-0.11 0.16,-0.03 0.32,-0.04 0.48,-0.04 0.59,0 1.03,0.17 1.33,0.5 0.3,0.33 0.46,0.82 0.46,1.48l0 3.44 -0.67 0zm-1.36 -2.57c-0.24,0.03 -0.44,0.08 -0.61,0.13 -0.17,0.05 -0.31,0.12 -0.42,0.21 -0.11,0.09 -0.19,0.19 -0.24,0.32 -0.05,0.13 -0.08,0.29 -0.08,0.48 0,0.14 0.03,0.27 0.08,0.39 0.05,0.12 0.12,0.23 0.21,0.32 0.1,0.08 0.21,0.15 0.35,0.2 0.14,0.05 0.29,0.07 0.46,0.07 0.24,0 0.45,-0.04 0.65,-0.13 0.19,-0.09 0.36,-0.21 0.51,-0.37 0.14,-0.16 0.25,-0.35 0.33,-0.57 0.08,-0.22 0.12,-0.46 0.12,-0.72l0 -0.52 -1.36 0.19z"/>
   <path id="4" class="fil1" d="M67.63 16.46l0 -0.94 -0.02 0c-0.18,0.33 -0.41,0.6 -0.71,0.78 -0.3,0.19 -0.64,0.28 -1.01,0.28 -0.25,0 -0.48,-0.03 -0.69,-0.11 -0.21,-0.07 -0.38,-0.17 -0.52,-0.31 -0.14,-0.13 -0.25,-0.29 -0.33,-0.47 -0.08,-0.19 -0.12,-0.39 -0.12,-0.62 0,-0.48 0.15,-0.86 0.45,-1.14 0.29,-0.29 0.74,-0.47 1.34,-0.56l1.61 -0.23c0,-1.02 -0.4,-1.52 -1.19,-1.52 -0.61,0 -1.19,0.22 -1.71,0.67l0 -0.72c0.11,-0.08 0.23,-0.15 0.37,-0.22 0.14,-0.06 0.29,-0.11 0.44,-0.16 0.16,-0.05 0.32,-0.08 0.48,-0.11 0.17,-0.03 0.32,-0.04 0.48,-0.04 0.59,0 1.03,0.17 1.34,0.5 0.3,0.33 0.45,0.82 0.45,1.48l0 3.44 -0.66 0zm-1.37 -2.57c-0.24,0.03 -0.44,0.08 -0.61,0.13 -0.17,0.05 -0.31,0.12 -0.42,0.21 -0.11,0.09 -0.19,0.19 -0.24,0.32 -0.05,0.13 -0.08,0.29 -0.08,0.48 0,0.14 0.03,0.27 0.08,0.39 0.05,0.12 0.12,0.23 0.21,0.32 0.1,0.08 0.22,0.15 0.35,0.2 0.14,0.05 0.29,0.07 0.46,0.07 0.24,0 0.45,-0.04 0.65,-0.13 0.2,-0.09 0.37,-0.21 0.51,-0.37 0.14,-0.16 0.25,-0.35 0.33,-0.57 0.09,-0.22 0.13,-0.46 0.13,-0.72l0 -0.52 -1.37 0.19z"/>
   <path id="5" class="fil1" d="M69.58 15.51c0.1,0.08 0.21,0.15 0.33,0.21 0.11,0.06 0.23,0.11 0.36,0.16 0.12,0.04 0.25,0.08 0.37,0.1 0.13,0.02 0.25,0.03 0.36,0.03 0.79,0 1.18,-0.29 1.18,-0.88 0,-0.14 -0.03,-0.25 -0.08,-0.35 -0.06,-0.1 -0.14,-0.19 -0.24,-0.27 -0.1,-0.08 -0.23,-0.15 -0.37,-0.22 -0.15,-0.07 -0.31,-0.15 -0.49,-0.22 -0.25,-0.1 -0.46,-0.2 -0.63,-0.3 -0.18,-0.11 -0.32,-0.22 -0.44,-0.34 -0.11,-0.13 -0.2,-0.26 -0.25,-0.41 -0.06,-0.14 -0.08,-0.31 -0.08,-0.49 0,-0.24 0.05,-0.45 0.15,-0.63 0.1,-0.18 0.24,-0.34 0.41,-0.47 0.17,-0.12 0.37,-0.22 0.6,-0.29 0.22,-0.06 0.46,-0.1 0.71,-0.1 0.46,0 0.85,0.09 1.2,0.26l0 0.7c-0.4,-0.26 -0.83,-0.38 -1.29,-0.38 -0.16,0 -0.31,0.02 -0.45,0.06 -0.14,0.04 -0.25,0.1 -0.35,0.17 -0.09,0.08 -0.17,0.17 -0.22,0.27 -0.06,0.11 -0.08,0.23 -0.08,0.35 0,0.13 0.02,0.25 0.06,0.35 0.04,0.1 0.11,0.18 0.19,0.26 0.09,0.08 0.2,0.16 0.34,0.23 0.15,0.07 0.31,0.15 0.51,0.23 0.26,0.11 0.48,0.21 0.67,0.31 0.18,0.1 0.33,0.21 0.46,0.33 0.12,0.12 0.21,0.25 0.26,0.4 0.06,0.15 0.09,0.31 0.09,0.51 0,0.23 -0.05,0.45 -0.15,0.63 -0.09,0.19 -0.23,0.35 -0.4,0.47 -0.18,0.13 -0.38,0.23 -0.62,0.29 -0.23,0.07 -0.49,0.1 -0.76,0.1 -0.54,0 -0.98,-0.11 -1.35,-0.33l0 -0.74z"/>
   <polygon id="6" class="fil1" points="74.18,16.46 74.18,8.62 74.84,8.62 74.84,16.46 "/>
   <path id="7" class="fil1" d="M76.87 9.83c-0.12,0 -0.24,-0.05 -0.33,-0.14 -0.09,-0.09 -0.14,-0.2 -0.14,-0.34 0,-0.13 0.05,-0.24 0.14,-0.33 0.09,-0.09 0.21,-0.13 0.33,-0.13 0.07,0 0.13,0.01 0.19,0.03 0.06,0.02 0.11,0.05 0.15,0.1 0.04,0.04 0.08,0.09 0.1,0.14 0.03,0.06 0.04,0.12 0.04,0.19 0,0.07 -0.01,0.13 -0.03,0.19 -0.03,0.06 -0.06,0.11 -0.11,0.15 -0.04,0.04 -0.09,0.08 -0.15,0.1 -0.05,0.02 -0.12,0.04 -0.19,0.04zm-0.32 6.63l0 -5.29 0.66 0 0 5.29 -0.66 0z"/>
   <path id="8" class="fil1" d="M81.52 15.51c0.09,0.08 0.2,0.15 0.32,0.21 0.12,0.06 0.24,0.11 0.36,0.16 0.13,0.04 0.25,0.08 0.38,0.1 0.12,0.02 0.24,0.03 0.36,0.03 0.78,0 1.17,-0.29 1.17,-0.88 0,-0.14 -0.02,-0.25 -0.08,-0.35 -0.05,-0.1 -0.13,-0.19 -0.23,-0.27 -0.11,-0.08 -0.23,-0.15 -0.38,-0.22 -0.14,-0.07 -0.31,-0.15 -0.49,-0.22 -0.24,-0.1 -0.45,-0.2 -0.63,-0.3 -0.18,-0.11 -0.32,-0.22 -0.43,-0.34 -0.12,-0.13 -0.2,-0.26 -0.26,-0.41 -0.05,-0.14 -0.08,-0.31 -0.08,-0.49 0,-0.24 0.05,-0.45 0.15,-0.63 0.1,-0.18 0.24,-0.34 0.41,-0.47 0.18,-0.12 0.38,-0.22 0.6,-0.29 0.23,-0.06 0.46,-0.1 0.71,-0.1 0.46,0 0.86,0.09 1.2,0.26l0 0.7c-0.4,-0.26 -0.82,-0.38 -1.28,-0.38 -0.17,0 -0.32,0.02 -0.45,0.06 -0.14,0.04 -0.25,0.1 -0.35,0.17 -0.1,0.08 -0.17,0.17 -0.23,0.27 -0.05,0.11 -0.08,0.23 -0.08,0.35 0,0.13 0.02,0.25 0.06,0.35 0.05,0.1 0.11,0.18 0.2,0.26 0.09,0.08 0.2,0.16 0.34,0.23 0.14,0.07 0.31,0.15 0.51,0.23 0.25,0.11 0.48,0.21 0.66,0.31 0.19,0.1 0.34,0.21 0.46,0.33 0.12,0.12 0.21,0.25 0.27,0.4 0.06,0.15 0.09,0.31 0.09,0.51 0,0.23 -0.05,0.45 -0.15,0.63 -0.1,0.19 -0.23,0.35 -0.41,0.47 -0.17,0.13 -0.38,0.23 -0.61,0.29 -0.24,0.07 -0.49,0.1 -0.77,0.1 -0.53,0 -0.98,-0.11 -1.34,-0.33l0 -0.74z"/>
   <path id="9" class="fil1" d="M86.43 13.93c0,0.32 0.05,0.62 0.13,0.87 0.08,0.26 0.2,0.48 0.36,0.66 0.15,0.18 0.34,0.32 0.56,0.41 0.22,0.1 0.47,0.14 0.75,0.14 0.6,0 1.16,-0.21 1.69,-0.62l0 0.65c-0.5,0.36 -1.12,0.54 -1.83,0.54 -0.36,0 -0.68,-0.06 -0.97,-0.18 -0.29,-0.13 -0.54,-0.31 -0.74,-0.54 -0.2,-0.24 -0.36,-0.53 -0.47,-0.88 -0.11,-0.34 -0.17,-0.73 -0.17,-1.17 0,-0.4 0.06,-0.77 0.18,-1.1 0.12,-0.34 0.29,-0.63 0.51,-0.88 0.21,-0.25 0.46,-0.44 0.76,-0.58 0.29,-0.14 0.61,-0.21 0.96,-0.21 0.34,0 0.64,0.06 0.9,0.18 0.26,0.12 0.48,0.29 0.66,0.51 0.18,0.22 0.31,0.49 0.41,0.8 0.09,0.32 0.13,0.68 0.13,1.07l0 0.33 -3.82 0zm3.14 -0.58c-0.01,-0.55 -0.14,-0.98 -0.39,-1.28 -0.25,-0.3 -0.6,-0.45 -1.05,-0.45 -0.22,0 -0.43,0.03 -0.62,0.11 -0.19,0.08 -0.36,0.2 -0.51,0.35 -0.14,0.15 -0.26,0.33 -0.35,0.55 -0.1,0.21 -0.17,0.45 -0.2,0.72l3.12 0z"/>
   <path id="10" class="fil1" d="M91.25 15.51c0.1,0.08 0.21,0.15 0.33,0.21 0.11,0.06 0.24,0.11 0.36,0.16 0.12,0.04 0.25,0.08 0.37,0.1 0.13,0.02 0.25,0.03 0.36,0.03 0.79,0 1.18,-0.29 1.18,-0.88 0,-0.14 -0.03,-0.25 -0.08,-0.35 -0.06,-0.1 -0.14,-0.19 -0.24,-0.27 -0.1,-0.08 -0.23,-0.15 -0.37,-0.22 -0.14,-0.07 -0.31,-0.15 -0.49,-0.22 -0.25,-0.1 -0.46,-0.2 -0.63,-0.3 -0.18,-0.11 -0.32,-0.22 -0.44,-0.34 -0.11,-0.13 -0.2,-0.26 -0.25,-0.41 -0.05,-0.14 -0.08,-0.31 -0.08,-0.49 0,-0.24 0.05,-0.45 0.15,-0.63 0.1,-0.18 0.24,-0.34 0.41,-0.47 0.17,-0.12 0.37,-0.22 0.6,-0.29 0.22,-0.06 0.46,-0.1 0.71,-0.1 0.46,0 0.86,0.09 1.2,0.26l0 0.7c-0.4,-0.26 -0.83,-0.38 -1.28,-0.38 -0.17,0 -0.32,0.02 -0.46,0.06 -0.13,0.04 -0.25,0.1 -0.34,0.17 -0.1,0.08 -0.18,0.17 -0.23,0.27 -0.05,0.11 -0.08,0.23 -0.08,0.35 0,0.13 0.02,0.25 0.06,0.35 0.04,0.1 0.11,0.18 0.2,0.26 0.08,0.08 0.2,0.16 0.34,0.23 0.14,0.07 0.31,0.15 0.51,0.23 0.25,0.11 0.47,0.21 0.66,0.31 0.18,0.1 0.34,0.21 0.46,0.33 0.12,0.12 0.21,0.25 0.27,0.4 0.05,0.15 0.08,0.31 0.08,0.51 0,0.23 -0.05,0.45 -0.14,0.63 -0.1,0.19 -0.24,0.35 -0.41,0.47 -0.18,0.13 -0.38,0.23 -0.61,0.29 -0.24,0.07 -0.49,0.1 -0.77,0.1 -0.53,0 -0.98,-0.11 -1.35,-0.33l0 -0.74z"/>
   <path id="11" class="fil1" d="M99.31 16.46l0 -0.9 -0.02 0c-0.35,0.68 -0.91,1.02 -1.67,1.02 -1.25,0 -1.88,-0.77 -1.88,-2.3l0 -3.11 0.66 0 0 2.98c0,0.64 0.11,1.1 0.34,1.41 0.22,0.3 0.57,0.45 1.03,0.45 0.23,0 0.44,-0.04 0.63,-0.13 0.19,-0.09 0.35,-0.21 0.48,-0.37 0.14,-0.16 0.25,-0.35 0.32,-0.58 0.08,-0.22 0.11,-0.47 0.11,-0.74l0 -3.02 0.67 0 0 5.29 -0.67 0z"/>
   <path id="12" class="fil1" d="M104.73 16.46l0 -0.94 -0.02 0c-0.17,0.33 -0.41,0.6 -0.71,0.78 -0.29,0.19 -0.63,0.28 -1,0.28 -0.26,0 -0.49,-0.03 -0.7,-0.11 -0.2,-0.07 -0.37,-0.17 -0.52,-0.31 -0.14,-0.13 -0.25,-0.29 -0.33,-0.47 -0.08,-0.19 -0.11,-0.39 -0.11,-0.62 0,-0.48 0.14,-0.86 0.44,-1.14 0.3,-0.29 0.74,-0.47 1.34,-0.56l1.61 -0.23c0,-1.02 -0.39,-1.52 -1.18,-1.52 -0.62,0 -1.19,0.22 -1.72,0.67l0 -0.72c0.11,-0.08 0.24,-0.15 0.38,-0.22 0.14,-0.06 0.28,-0.11 0.44,-0.16 0.15,-0.05 0.31,-0.08 0.48,-0.11 0.16,-0.03 0.32,-0.04 0.47,-0.04 0.59,0 1.04,0.17 1.34,0.5 0.3,0.33 0.45,0.82 0.45,1.48l0 3.44 -0.66 0zm-1.36 -2.57c-0.24,0.03 -0.44,0.08 -0.61,0.13 -0.17,0.05 -0.31,0.12 -0.42,0.21 -0.11,0.09 -0.19,0.19 -0.24,0.32 -0.06,0.13 -0.08,0.29 -0.08,0.48 0,0.14 0.02,0.27 0.07,0.39 0.05,0.12 0.13,0.23 0.22,0.32 0.09,0.08 0.21,0.15 0.35,0.2 0.13,0.05 0.29,0.07 0.46,0.07 0.23,0 0.45,-0.04 0.64,-0.13 0.2,-0.09 0.37,-0.21 0.51,-0.37 0.15,-0.16 0.26,-0.35 0.34,-0.57 0.08,-0.22 0.12,-0.46 0.12,-0.72l0 -0.52 -1.36 0.19z"/>
   <path id="13" class="fil1" d="M107.31 9.83c-0.13,0 -0.24,-0.05 -0.33,-0.14 -0.09,-0.09 -0.14,-0.2 -0.14,-0.34 0,-0.13 0.05,-0.24 0.14,-0.33 0.09,-0.09 0.2,-0.13 0.33,-0.13 0.07,0 0.13,0.01 0.19,0.03 0.06,0.02 0.1,0.05 0.15,0.1 0.04,0.04 0.08,0.09 0.1,0.14 0.03,0.06 0.04,0.12 0.04,0.19 0,0.07 -0.01,0.13 -0.04,0.19 -0.02,0.06 -0.05,0.11 -0.1,0.15 -0.04,0.04 -0.09,0.08 -0.15,0.1 -0.06,0.02 -0.12,0.04 -0.19,0.04zm-0.33 6.63l0 -5.29 0.67 0 0 5.29 -0.67 0z"/>
   <path id="14" class="fil1" d="M115.96 16.46l0 -0.93 -0.02 0c-0.17,0.33 -0.42,0.59 -0.75,0.78 -0.33,0.18 -0.7,0.27 -1.11,0.27 -0.33,0 -0.63,-0.06 -0.9,-0.18 -0.27,-0.12 -0.5,-0.3 -0.7,-0.53 -0.19,-0.23 -0.34,-0.51 -0.44,-0.84 -0.11,-0.33 -0.16,-0.7 -0.16,-1.11 0,-0.43 0.06,-0.82 0.17,-1.17 0.12,-0.35 0.28,-0.66 0.49,-0.91 0.22,-0.25 0.47,-0.45 0.77,-0.59 0.3,-0.14 0.63,-0.21 0.99,-0.21 0.76,0 1.31,0.31 1.64,0.92l0.02 0 0 -3.34 0.66 0 0 7.84 -0.66 0zm0 -3.2c0,-0.23 -0.04,-0.44 -0.12,-0.64 -0.08,-0.2 -0.19,-0.38 -0.33,-0.52 -0.14,-0.15 -0.31,-0.27 -0.51,-0.36 -0.2,-0.08 -0.41,-0.12 -0.65,-0.12 -0.26,0 -0.5,0.05 -0.72,0.15 -0.22,0.1 -0.41,0.25 -0.57,0.45 -0.16,0.19 -0.28,0.43 -0.37,0.71 -0.08,0.28 -0.13,0.59 -0.13,0.95 0,0.33 0.04,0.63 0.12,0.9 0.08,0.26 0.19,0.49 0.34,0.67 0.14,0.18 0.32,0.32 0.52,0.42 0.21,0.1 0.43,0.14 0.68,0.14 0.27,0 0.51,-0.04 0.73,-0.14 0.21,-0.1 0.39,-0.23 0.54,-0.4 0.15,-0.17 0.27,-0.37 0.35,-0.59 0.08,-0.23 0.12,-0.47 0.12,-0.73l0 -0.89z"/>
   <path id="15" class="fil1" d="M118.64 13.93c0.01,0.32 0.05,0.62 0.13,0.87 0.09,0.26 0.21,0.48 0.36,0.66 0.15,0.18 0.34,0.32 0.56,0.41 0.23,0.1 0.48,0.14 0.76,0.14 0.59,0 1.16,-0.21 1.69,-0.62l0 0.65c-0.51,0.36 -1.12,0.54 -1.84,0.54 -0.36,0 -0.68,-0.06 -0.97,-0.18 -0.29,-0.13 -0.53,-0.31 -0.74,-0.54 -0.2,-0.24 -0.36,-0.53 -0.47,-0.88 -0.11,-0.34 -0.16,-0.73 -0.16,-1.17 0,-0.4 0.06,-0.77 0.18,-1.1 0.12,-0.34 0.28,-0.63 0.5,-0.88 0.21,-0.25 0.47,-0.44 0.76,-0.58 0.29,-0.14 0.61,-0.21 0.96,-0.21 0.34,0 0.64,0.06 0.9,0.18 0.27,0.12 0.48,0.29 0.66,0.51 0.18,0.22 0.31,0.49 0.41,0.8 0.09,0.32 0.14,0.68 0.14,1.07l0 0.33 -3.83 0zm3.14 -0.58c0,-0.55 -0.14,-0.98 -0.39,-1.28 -0.25,-0.3 -0.6,-0.45 -1.05,-0.45 -0.22,0 -0.43,0.03 -0.62,0.11 -0.19,0.08 -0.36,0.2 -0.5,0.35 -0.15,0.15 -0.27,0.33 -0.36,0.55 -0.1,0.21 -0.16,0.45 -0.2,0.72l3.12 0z"/>
   <path id="16" class="fil1" d="M127.34 16.46l0 -3.05c0,-1.2 -0.44,-1.79 -1.31,-1.79 -0.23,0 -0.44,0.04 -0.64,0.13 -0.19,0.09 -0.36,0.22 -0.51,0.38 -0.14,0.16 -0.25,0.35 -0.33,0.58 -0.08,0.22 -0.12,0.46 -0.12,0.72l0 3.03 -0.67 0 0 -5.29 0.67 0 0 0.91 0.02 0c0.39,-0.69 0.98,-1.04 1.77,-1.04 0.58,0 1.02,0.19 1.32,0.56 0.31,0.38 0.46,0.92 0.46,1.63l0 3.23 -0.66 0z"/>
   <path id="17" class="fil1" d="M133.96 16.05c0,0.98 -0.22,1.71 -0.67,2.18 -0.44,0.48 -1.13,0.71 -2.06,0.71 -0.58,0 -1.13,-0.13 -1.65,-0.39l0 -0.67c0.58,0.32 1.13,0.48 1.65,0.48 1.38,0 2.07,-0.73 2.07,-2.19l0 -0.63 -0.02 0c-0.41,0.69 -1.03,1.04 -1.86,1.04 -0.33,0 -0.63,-0.06 -0.9,-0.18 -0.27,-0.12 -0.5,-0.29 -0.69,-0.52 -0.2,-0.23 -0.35,-0.51 -0.45,-0.83 -0.11,-0.33 -0.16,-0.69 -0.16,-1.1 0,-0.44 0.05,-0.83 0.17,-1.19 0.11,-0.36 0.27,-0.66 0.48,-0.92 0.21,-0.25 0.47,-0.45 0.77,-0.59 0.29,-0.14 0.63,-0.21 1,-0.21 0.75,0 1.29,0.31 1.64,0.91l0.02 0 0 -0.78 0.66 0 0 4.88zm-0.66 -2.81c0,-0.22 -0.04,-0.43 -0.12,-0.62 -0.08,-0.2 -0.19,-0.37 -0.33,-0.52 -0.14,-0.15 -0.31,-0.27 -0.5,-0.35 -0.2,-0.09 -0.41,-0.13 -0.65,-0.13 -0.27,0 -0.52,0.05 -0.74,0.16 -0.23,0.1 -0.42,0.25 -0.57,0.45 -0.16,0.2 -0.28,0.43 -0.36,0.72 -0.09,0.28 -0.13,0.59 -0.13,0.94 0,0.33 0.04,0.62 0.12,0.88 0.08,0.26 0.19,0.49 0.33,0.67 0.15,0.18 0.32,0.32 0.53,0.42 0.2,0.1 0.43,0.15 0.68,0.15 0.27,0 0.5,-0.04 0.72,-0.14 0.21,-0.09 0.39,-0.22 0.54,-0.39 0.16,-0.17 0.27,-0.37 0.36,-0.59 0.08,-0.23 0.12,-0.47 0.12,-0.73l0 -0.92z"/>
   <path id="18" class="fil1" d="M138.72 16.46l0 -0.94 -0.03 0c-0.17,0.33 -0.4,0.6 -0.7,0.78 -0.3,0.19 -0.64,0.28 -1.01,0.28 -0.26,0 -0.49,-0.03 -0.69,-0.11 -0.21,-0.07 -0.38,-0.17 -0.52,-0.31 -0.15,-0.13 -0.26,-0.29 -0.33,-0.47 -0.08,-0.19 -0.12,-0.39 -0.12,-0.62 0,-0.48 0.15,-0.86 0.44,-1.14 0.3,-0.29 0.75,-0.47 1.35,-0.56l1.61 -0.23c0,-1.02 -0.4,-1.52 -1.19,-1.52 -0.62,0 -1.19,0.22 -1.71,0.67l0 -0.72c0.11,-0.08 0.23,-0.15 0.37,-0.22 0.14,-0.06 0.29,-0.11 0.44,-0.16 0.16,-0.05 0.32,-0.08 0.48,-0.11 0.16,-0.03 0.32,-0.04 0.48,-0.04 0.59,0 1.03,0.17 1.33,0.5 0.3,0.33 0.46,0.82 0.46,1.48l0 3.44 -0.66 0zm-1.37 -2.57c-0.24,0.03 -0.44,0.08 -0.61,0.13 -0.17,0.05 -0.31,0.12 -0.42,0.21 -0.11,0.09 -0.19,0.19 -0.24,0.32 -0.05,0.13 -0.08,0.29 -0.08,0.48 0,0.14 0.03,0.27 0.08,0.39 0.05,0.12 0.12,0.23 0.21,0.32 0.1,0.08 0.21,0.15 0.35,0.2 0.14,0.05 0.29,0.07 0.46,0.07 0.24,0 0.45,-0.04 0.65,-0.13 0.19,-0.09 0.37,-0.21 0.51,-0.37 0.14,-0.16 0.25,-0.35 0.33,-0.57 0.08,-0.22 0.13,-0.46 0.13,-0.72l0 -0.52 -1.37 0.19z"/>
   <path id="19" class="fil1" d="M144.54 16.46l0 -3.05c0,-1.2 -0.43,-1.79 -1.3,-1.79 -0.23,0 -0.45,0.04 -0.64,0.13 -0.2,0.09 -0.37,0.22 -0.51,0.38 -0.15,0.16 -0.26,0.35 -0.34,0.58 -0.08,0.22 -0.12,0.46 -0.12,0.72l0 3.03 -0.66 0 0 -5.29 0.66 0 0 0.91 0.02 0c0.39,-0.69 0.98,-1.04 1.77,-1.04 0.58,0 1.02,0.19 1.33,0.56 0.3,0.38 0.45,0.92 0.45,1.63l0 3.23 -0.66 0z"/>
   <path id="20" class="fil1" d="M154.88 16.46l-4.12 -5.95c-0.05,-0.08 -0.1,-0.15 -0.15,-0.23 -0.05,-0.08 -0.09,-0.16 -0.12,-0.24l-0.03 0c0.01,0.07 0.02,0.15 0.02,0.26 0.01,0.11 0.01,0.25 0.01,0.42l0 5.74 -0.69 0 0 -7.41 0.76 0 4.05 5.87c0.06,0.1 0.11,0.18 0.17,0.26 0.05,0.08 0.09,0.16 0.13,0.23l0.03 0c-0.02,-0.12 -0.03,-0.24 -0.03,-0.39 -0.01,-0.14 -0.01,-0.29 -0.01,-0.46l0 -5.51 0.69 0 0 7.41 -0.71 0z"/>
   <polygon id="21" class="fil1" points="158.2,9.05 158.2,16.46 157.51,16.46 157.51,9.05 "/>
   <path id="22" class="fil1" d="M164 16.46l-3.01 -3.47c-0.08,-0.1 -0.14,-0.17 -0.16,-0.21l-0.02 0 0 3.68 -0.69 0 0 -7.41 0.69 0 0 3.48 0.02 0c0.02,-0.03 0.05,-0.07 0.08,-0.1 0.02,-0.04 0.05,-0.07 0.08,-0.11l2.89 -3.27 0.87 0 -3.21 3.57 3.42 3.84 -0.96 0z"/>
  </g>
  <path class="fil2" d="M13.13 8.2c0.68,0 1.22,0.6 1.22,1.33 0,0.73 -0.54,1.32 -1.22,1.32 -0.67,0 -1.21,-0.59 -1.21,-1.32 0,-0.73 0.54,-1.33 1.21,-1.33zm8.17 10.63l1.43 0 0 0.51 -1.43 0 0 0.79 1.55 0 0 0.51 -2.06 0 0 -3.12 2.06 0 0 0.51 -1.55 0 0 0.8zm-4.5 -1.31l0.57 0 0.86 2.03 0.87 -2.03 0.57 0 0 3.12 -0.51 0 0 -1.43 0.1 -0.85 -0.05 0 -0.26 0.74 -0.51 1.11 -0.4 0 -0.52 -1.11 -0.26 -0.75 -0.04 0 0.09 0.86 0 1.43 -0.51 0 0 -3.12zm-0.82 3.12l-0.53 0 -0.31 -0.81 -1.12 0 -0.28 0.81 -0.55 0 1.13 -3.12 0.53 0 1.13 3.12zm-1.41 -2.6l-0.13 0.5 -0.25 0.78 0.77 0 -0.25 -0.79 -0.12 -0.49 -0.02 0zm-4.61 2.6l0 -3.12 0.54 0 1.08 1.84 0.32 0.62 0.03 0 -0.07 -0.67 0 -1.79 0.51 0 0 3.12 -0.59 0 -1.07 -1.81 -0.29 -0.59 -0.03 0.01 0.08 0.65 0 1.74 -0.51 0zm0.62 -14.81l11.69 0c0.43,0 0.82,0.17 1.1,0.45l0 0.01c0.28,0.28 0.46,0.67 0.46,1.1l0 6.56c0,0.43 -0.18,0.82 -0.46,1.11l0 0c-0.28,0.28 -0.67,0.46 -1.1,0.46l-11.69 0c-0.43,0 -0.83,-0.18 -1.11,-0.46l0 0c-0.28,-0.29 -0.46,-0.68 -0.46,-1.11l0 -6.56c0,-0.43 0.18,-0.82 0.46,-1.1l0 -0.01c0.28,-0.28 0.68,-0.45 1.11,-0.45zm11.69 0.81l-11.69 0c-0.21,0 -0.4,0.08 -0.54,0.22l0 0c-0.13,0.13 -0.22,0.32 -0.22,0.53l0 6.56c0,0.21 0.09,0.4 0.22,0.53l0 0c0.14,0.14 0.33,0.23 0.54,0.23l11.69 0c0.2,0 0.39,-0.09 0.53,-0.23l0 0c0.13,-0.13 0.22,-0.32 0.22,-0.53l0 -6.56c0,-0.21 -0.09,-0.4 -0.22,-0.53l0 0c-0.14,-0.14 -0.33,-0.22 -0.53,-0.22zm-5.63 2.08l4.96 0c0.21,0 0.39,0.17 0.39,0.39l0 0c0,0.21 -0.18,0.38 -0.39,0.38l-4.96 0c-0.22,0 -0.39,-0.17 -0.39,-0.38l0 0c0,-0.22 0.17,-0.39 0.39,-0.39zm0 3.3l2.65 0c0.22,0 0.39,0.18 0.39,0.39l0 0c0,0.21 -0.17,0.38 -0.39,0.38l-2.65 0c-0.22,0 -0.39,-0.17 -0.39,-0.38l0 0c0,-0.21 0.17,-0.39 0.39,-0.39zm0 -1.65l4.96 0c0.21,0 0.39,0.17 0.39,0.39l0 0c0,0.21 -0.18,0.38 -0.39,0.38l-4.96 0c-0.22,0 -0.39,-0.17 -0.39,-0.38l0 0c0,-0.22 0.17,-0.39 0.39,-0.39zm-2.63 0.58c1.25,0.25 1.47,1.07 1.47,1.48 0,0.51 -1.05,0.98 -2.35,0.98 -1.29,0 -2.34,-0.47 -2.34,-0.98 0,-0.41 0.22,-1.23 1.47,-1.48 0.25,0.18 0.55,0.29 0.87,0.29 0.33,0 0.63,-0.11 0.88,-0.29z"/>
 </g>
</svg>
