<?xml version="1.0" encoding="UTF-8"?>
<!DOCTYPE svg PUBLIC "-//W3C//DTD SVG 1.1//EN" "http://www.w3.org/Graphics/SVG/1.1/DTD/svg11.dtd">
<!-- Creator: CorelDRAW 2018 (64-Bit) -->
<svg xmlns="http://www.w3.org/2000/svg" xml:space="preserve" width="542px" height="63px" version="1.1" style="shape-rendering:geometricPrecision; text-rendering:geometricPrecision; image-rendering:optimizeQuality; fill-rule:evenodd; clip-rule:evenodd"
viewBox="0 0 229.25 26.47"
 xmlns:xlink="http://www.w3.org/1999/xlink">
 <defs>
  <style type="text/css">
   <![CDATA[
    .fil2 {fill:#088378}
    .fil1 {fill:#B6B6B7;fill-rule:nonzero}
    .fil0 {fill:#088378;fill-rule:nonzero}
   ]]>
  </style>
 </defs>
 <g id="Layer_x0020_1">
  <metadata id="CorelCorpID_0Corel-Layer"/>
  <g id="_2298708766208">
   <path class="fil0" d="M5.84 0l217.58 0c1.6,0 3.06,0.66 4.12,1.71 1.05,1.06 1.71,2.52 1.71,4.13l0 14.79c0,1.6 -0.66,3.06 -1.71,4.12 -1.06,1.06 -2.52,1.72 -4.12,1.72l-217.58 0c-1.61,0 -3.07,-0.66 -4.12,-1.72 -1.06,-1.05 -1.72,-2.51 -1.72,-4.12l0 -14.79c0,-1.61 0.66,-3.07 1.71,-4.13 1.06,-1.05 2.52,-1.71 4.13,-1.71zm217.58 1l-217.58 0c-1.33,0 -2.54,0.54 -3.42,1.42 -0.88,0.88 -1.42,2.09 -1.42,3.42l0 14.79c0,1.33 0.54,2.54 1.42,3.42 0.88,0.87 2.09,1.42 3.42,1.42l217.58 0c1.32,0 2.53,-0.55 3.41,-1.42 0.88,-0.88 1.42,-2.09 1.42,-3.42l0 -14.79c0,-1.33 -0.54,-2.54 -1.42,-3.42 -0.88,-0.88 -2.09,-1.42 -3.41,-1.42z"/>
   <path class="fil1" d="M39.37 16.46l-0.82 -2.19 -3.18 0 -0.79 2.19 -0.77 0 2.82 -7.41 0.69 0 2.81 7.41 -0.76 0zm-2.26 -6.12c-0.03,-0.06 -0.05,-0.14 -0.08,-0.22 -0.02,-0.09 -0.04,-0.19 -0.06,-0.3l-0.02 0c-0.02,0.11 -0.04,0.21 -0.07,0.3 -0.03,0.08 -0.05,0.16 -0.08,0.22l-1.19 3.3 2.71 0 -1.21 -3.3z"/>
   <path id="1" class="fil1" d="M45.56 16.05c0,0.98 -0.22,1.71 -0.67,2.18 -0.44,0.48 -1.13,0.71 -2.06,0.71 -0.58,0 -1.13,-0.13 -1.65,-0.39l0 -0.67c0.58,0.32 1.13,0.48 1.65,0.48 1.38,0 2.07,-0.73 2.07,-2.19l0 -0.63 -0.02 0c-0.41,0.69 -1.03,1.04 -1.86,1.04 -0.33,0 -0.63,-0.06 -0.9,-0.18 -0.27,-0.12 -0.5,-0.29 -0.69,-0.52 -0.19,-0.23 -0.34,-0.51 -0.45,-0.83 -0.11,-0.33 -0.16,-0.69 -0.16,-1.1 0,-0.44 0.06,-0.83 0.17,-1.19 0.11,-0.36 0.27,-0.66 0.49,-0.92 0.21,-0.25 0.46,-0.45 0.76,-0.59 0.3,-0.14 0.63,-0.21 1,-0.21 0.75,0 1.3,0.31 1.64,0.91l0.02 0 0 -0.78 0.66 0 0 4.88zm-0.66 -2.81c0,-0.22 -0.04,-0.43 -0.12,-0.62 -0.08,-0.2 -0.19,-0.37 -0.33,-0.52 -0.14,-0.15 -0.31,-0.27 -0.5,-0.35 -0.2,-0.09 -0.41,-0.13 -0.64,-0.13 -0.28,0 -0.53,0.05 -0.75,0.16 -0.22,0.1 -0.41,0.25 -0.57,0.45 -0.16,0.2 -0.28,0.43 -0.36,0.72 -0.09,0.28 -0.13,0.59 -0.13,0.94 0,0.33 0.04,0.62 0.12,0.88 0.08,0.26 0.19,0.49 0.34,0.67 0.14,0.18 0.32,0.32 0.52,0.42 0.21,0.1 0.43,0.15 0.69,0.15 0.26,0 0.49,-0.04 0.71,-0.14 0.21,-0.09 0.39,-0.22 0.55,-0.39 0.15,-0.17 0.27,-0.37 0.35,-0.59 0.08,-0.23 0.12,-0.47 0.12,-0.73l0 -0.92z"/>
   <path id="2" class="fil1" d="M50.32 16.46l0 -0.94 -0.02 0c-0.18,0.33 -0.41,0.6 -0.71,0.78 -0.3,0.19 -0.64,0.28 -1.01,0.28 -0.25,0 -0.48,-0.03 -0.69,-0.11 -0.21,-0.07 -0.38,-0.17 -0.52,-0.31 -0.14,-0.13 -0.25,-0.29 -0.33,-0.47 -0.08,-0.19 -0.12,-0.39 -0.12,-0.62 0,-0.48 0.15,-0.86 0.45,-1.14 0.29,-0.29 0.74,-0.47 1.34,-0.56l1.61 -0.23c0,-1.02 -0.4,-1.52 -1.19,-1.52 -0.61,0 -1.19,0.22 -1.71,0.67l0 -0.72c0.11,-0.08 0.23,-0.15 0.37,-0.22 0.14,-0.06 0.29,-0.11 0.44,-0.16 0.16,-0.05 0.32,-0.08 0.48,-0.11 0.17,-0.03 0.32,-0.04 0.48,-0.04 0.59,0 1.03,0.17 1.34,0.5 0.3,0.33 0.45,0.82 0.45,1.48l0 3.44 -0.66 0zm-1.37 -2.57c-0.24,0.03 -0.44,0.08 -0.61,0.13 -0.17,0.05 -0.31,0.12 -0.42,0.21 -0.11,0.09 -0.19,0.19 -0.24,0.32 -0.05,0.13 -0.08,0.29 -0.08,0.48 0,0.14 0.03,0.27 0.08,0.39 0.05,0.12 0.12,0.23 0.21,0.32 0.1,0.08 0.22,0.15 0.35,0.2 0.14,0.05 0.29,0.07 0.46,0.07 0.24,0 0.45,-0.04 0.65,-0.13 0.2,-0.09 0.37,-0.21 0.51,-0.37 0.14,-0.16 0.25,-0.35 0.33,-0.57 0.09,-0.22 0.13,-0.46 0.13,-0.72l0 -0.52 -1.37 0.19z"/>
   <path id="3" class="fil1" d="M59.22 16.46l0 -3.11c0,-0.32 -0.02,-0.59 -0.07,-0.81 -0.05,-0.22 -0.12,-0.39 -0.23,-0.53 -0.1,-0.14 -0.23,-0.24 -0.38,-0.3 -0.16,-0.06 -0.35,-0.09 -0.56,-0.09 -0.2,0 -0.38,0.04 -0.55,0.13 -0.17,0.09 -0.33,0.22 -0.45,0.38 -0.13,0.16 -0.24,0.35 -0.31,0.56 -0.07,0.22 -0.11,0.46 -0.11,0.71l0 3.06 -0.66 0 0 -3.18c0,-1.11 -0.43,-1.66 -1.28,-1.66 -0.2,0 -0.38,0.04 -0.55,0.13 -0.17,0.08 -0.31,0.21 -0.44,0.37 -0.12,0.16 -0.22,0.35 -0.29,0.57 -0.07,0.22 -0.11,0.47 -0.11,0.73l0 3.04 -0.66 0 0 -5.29 0.66 0 0 0.85 0.02 0c0.37,-0.65 0.92,-0.98 1.63,-0.98 0.19,0 0.36,0.03 0.53,0.09 0.16,0.05 0.31,0.13 0.44,0.23 0.13,0.11 0.25,0.23 0.34,0.37 0.09,0.14 0.17,0.29 0.21,0.46 0.19,-0.37 0.43,-0.66 0.73,-0.85 0.3,-0.2 0.64,-0.3 1.01,-0.3 1.16,0 1.74,0.72 1.74,2.15l0 3.27 -0.66 0z"/>
   <path id="4" class="fil1" d="M64.52 16.46l0 -0.94 -0.02 0c-0.17,0.33 -0.41,0.6 -0.7,0.78 -0.3,0.19 -0.64,0.28 -1.01,0.28 -0.26,0 -0.49,-0.03 -0.69,-0.11 -0.21,-0.07 -0.38,-0.17 -0.52,-0.31 -0.15,-0.13 -0.26,-0.29 -0.34,-0.47 -0.07,-0.19 -0.11,-0.39 -0.11,-0.62 0,-0.48 0.15,-0.86 0.44,-1.14 0.3,-0.29 0.75,-0.47 1.35,-0.56l1.6 -0.23c0,-1.02 -0.39,-1.52 -1.18,-1.52 -0.62,0 -1.19,0.22 -1.72,0.67l0 -0.72c0.11,-0.08 0.24,-0.15 0.38,-0.22 0.14,-0.06 0.29,-0.11 0.44,-0.16 0.16,-0.05 0.31,-0.08 0.48,-0.11 0.16,-0.03 0.32,-0.04 0.48,-0.04 0.59,0 1.03,0.17 1.33,0.5 0.3,0.33 0.46,0.82 0.46,1.48l0 3.44 -0.67 0zm-1.36 -2.57c-0.24,0.03 -0.44,0.08 -0.61,0.13 -0.17,0.05 -0.31,0.12 -0.42,0.21 -0.11,0.09 -0.19,0.19 -0.24,0.32 -0.05,0.13 -0.08,0.29 -0.08,0.48 0,0.14 0.03,0.27 0.07,0.39 0.06,0.12 0.13,0.23 0.22,0.32 0.1,0.08 0.21,0.15 0.35,0.2 0.13,0.05 0.29,0.07 0.46,0.07 0.24,0 0.45,-0.04 0.65,-0.13 0.19,-0.09 0.36,-0.21 0.51,-0.37 0.14,-0.16 0.25,-0.35 0.33,-0.57 0.08,-0.22 0.12,-0.46 0.12,-0.72l0 -0.52 -1.36 0.19z"/>
   <path id="5" class="fil1" d="M71.15 18.14c-1.05,-1.22 -1.58,-2.72 -1.58,-4.51 0,-1.82 0.53,-3.35 1.59,-4.58l0.64 0c-1.08,1.27 -1.62,2.8 -1.62,4.58 0,1.72 0.54,3.22 1.61,4.51l-0.64 0z"/>
   <path id="6" class="fil1" d="M75.39 11.84c-0.15,-0.11 -0.35,-0.17 -0.6,-0.17 -0.17,0 -0.33,0.04 -0.46,0.1 -0.14,0.07 -0.25,0.16 -0.36,0.27 -0.1,0.12 -0.18,0.25 -0.25,0.4 -0.07,0.15 -0.13,0.3 -0.18,0.47 -0.04,0.16 -0.07,0.32 -0.09,0.49 -0.02,0.16 -0.03,0.32 -0.03,0.47l0 2.59 -0.65 0 0 -5.29 0.65 0 0 1.13 0.02 0c0.07,-0.2 0.15,-0.37 0.24,-0.52 0.09,-0.16 0.2,-0.28 0.33,-0.39 0.12,-0.1 0.26,-0.19 0.4,-0.24 0.15,-0.06 0.3,-0.08 0.47,-0.08 0.1,0 0.2,0 0.28,0.02 0.09,0.01 0.16,0.03 0.23,0.06l0 0.69z"/>
   <path id="7" class="fil1" d="M76.67 13.93c0,0.32 0.05,0.62 0.13,0.87 0.08,0.26 0.2,0.48 0.36,0.66 0.15,0.18 0.34,0.32 0.56,0.41 0.22,0.1 0.47,0.14 0.75,0.14 0.6,0 1.16,-0.21 1.69,-0.62l0 0.65c-0.5,0.36 -1.12,0.54 -1.84,0.54 -0.35,0 -0.67,-0.06 -0.96,-0.18 -0.29,-0.13 -0.54,-0.31 -0.74,-0.54 -0.21,-0.24 -0.36,-0.53 -0.47,-0.88 -0.11,-0.34 -0.17,-0.73 -0.17,-1.17 0,-0.4 0.06,-0.77 0.18,-1.1 0.12,-0.34 0.29,-0.63 0.5,-0.88 0.22,-0.25 0.47,-0.44 0.76,-0.58 0.3,-0.14 0.62,-0.21 0.97,-0.21 0.34,0 0.64,0.06 0.9,0.18 0.26,0.12 0.48,0.29 0.66,0.51 0.18,0.22 0.31,0.49 0.4,0.8 0.1,0.32 0.14,0.68 0.14,1.07l0 0.33 -3.82 0zm3.14 -0.58c-0.01,-0.55 -0.14,-0.98 -0.39,-1.28 -0.25,-0.3 -0.6,-0.45 -1.05,-0.45 -0.22,0 -0.43,0.03 -0.62,0.11 -0.19,0.08 -0.36,0.2 -0.51,0.35 -0.14,0.15 -0.26,0.33 -0.36,0.55 -0.09,0.21 -0.16,0.45 -0.2,0.72l3.13 0z"/>
   <polygon id="8" class="fil1" points="81.79,16.46 81.79,8.62 82.45,8.62 82.45,16.46 "/>
   <path id="9" class="fil1" d="M84.48 9.83c-0.12,0 -0.24,-0.05 -0.33,-0.14 -0.09,-0.09 -0.14,-0.2 -0.14,-0.34 0,-0.13 0.05,-0.24 0.14,-0.33 0.09,-0.09 0.21,-0.13 0.33,-0.13 0.07,0 0.13,0.01 0.19,0.03 0.06,0.02 0.11,0.05 0.15,0.1 0.04,0.04 0.08,0.09 0.1,0.14 0.03,0.06 0.04,0.12 0.04,0.19 0,0.07 -0.01,0.13 -0.03,0.19 -0.03,0.06 -0.06,0.11 -0.11,0.15 -0.04,0.04 -0.09,0.08 -0.15,0.1 -0.05,0.02 -0.12,0.04 -0.19,0.04zm-0.32 6.63l0 -5.29 0.66 0 0 5.29 -0.66 0z"/>
   <path id="10" class="fil1" d="M90.9 16.05c0,0.98 -0.23,1.71 -0.67,2.18 -0.45,0.48 -1.14,0.71 -2.07,0.71 -0.58,0 -1.12,-0.13 -1.64,-0.39l0 -0.67c0.58,0.32 1.12,0.48 1.64,0.48 1.38,0 2.08,-0.73 2.08,-2.19l0 -0.63 -0.03 0c-0.4,0.69 -1.02,1.04 -1.86,1.04 -0.32,0 -0.62,-0.06 -0.89,-0.18 -0.27,-0.12 -0.5,-0.29 -0.7,-0.52 -0.19,-0.23 -0.34,-0.51 -0.45,-0.83 -0.1,-0.33 -0.16,-0.69 -0.16,-1.1 0,-0.44 0.06,-0.83 0.17,-1.19 0.12,-0.36 0.28,-0.66 0.49,-0.92 0.21,-0.25 0.46,-0.45 0.76,-0.59 0.3,-0.14 0.63,-0.21 1.01,-0.21 0.74,0 1.29,0.31 1.63,0.91l0.03 0 0 -0.78 0.66 0 0 4.88zm-0.66 -2.81c0,-0.22 -0.05,-0.43 -0.12,-0.62 -0.08,-0.2 -0.19,-0.37 -0.33,-0.52 -0.15,-0.15 -0.31,-0.27 -0.51,-0.35 -0.19,-0.09 -0.41,-0.13 -0.64,-0.13 -0.28,0 -0.53,0.05 -0.75,0.16 -0.22,0.1 -0.41,0.25 -0.57,0.45 -0.15,0.2 -0.27,0.43 -0.36,0.72 -0.08,0.28 -0.13,0.59 -0.13,0.94 0,0.33 0.04,0.62 0.12,0.88 0.08,0.26 0.19,0.49 0.34,0.67 0.14,0.18 0.32,0.32 0.52,0.42 0.21,0.1 0.44,0.15 0.69,0.15 0.26,0 0.5,-0.04 0.71,-0.14 0.22,-0.09 0.4,-0.22 0.55,-0.39 0.15,-0.17 0.27,-0.37 0.35,-0.59 0.08,-0.23 0.13,-0.47 0.13,-0.73l0 -0.92z"/>
   <path id="11" class="fil1" d="M92.93 9.83c-0.13,0 -0.24,-0.05 -0.34,-0.14 -0.09,-0.09 -0.13,-0.2 -0.13,-0.34 0,-0.13 0.04,-0.24 0.13,-0.33 0.1,-0.09 0.21,-0.13 0.34,-0.13 0.06,0 0.12,0.01 0.18,0.03 0.06,0.02 0.11,0.05 0.16,0.1 0.04,0.04 0.07,0.09 0.1,0.14 0.02,0.06 0.04,0.12 0.04,0.19 0,0.07 -0.01,0.13 -0.04,0.19 -0.02,0.06 -0.06,0.11 -0.1,0.15 -0.05,0.04 -0.1,0.08 -0.15,0.1 -0.06,0.02 -0.12,0.04 -0.19,0.04zm-0.33 6.63l0 -5.29 0.66 0 0 5.29 -0.66 0z"/>
   <path id="12" class="fil1" d="M97.13 16.58c-0.39,0 -0.74,-0.06 -1.05,-0.2 -0.32,-0.13 -0.58,-0.31 -0.8,-0.55 -0.22,-0.24 -0.39,-0.53 -0.51,-0.86 -0.11,-0.33 -0.17,-0.71 -0.17,-1.11 0,-0.44 0.06,-0.84 0.18,-1.19 0.13,-0.34 0.3,-0.64 0.53,-0.88 0.23,-0.25 0.51,-0.43 0.83,-0.56 0.32,-0.12 0.69,-0.19 1.09,-0.19 0.38,0 0.72,0.06 1.03,0.19 0.31,0.13 0.57,0.31 0.78,0.55 0.21,0.23 0.38,0.52 0.49,0.86 0.12,0.34 0.17,0.73 0.17,1.17 0,0.41 -0.06,0.79 -0.18,1.12 -0.11,0.35 -0.29,0.64 -0.51,0.88 -0.22,0.25 -0.48,0.44 -0.8,0.57 -0.32,0.13 -0.68,0.2 -1.08,0.2zm0.05 -4.96c-0.28,0 -0.55,0.04 -0.78,0.15 -0.24,0.09 -0.44,0.24 -0.6,0.43 -0.17,0.19 -0.3,0.43 -0.39,0.7 -0.09,0.28 -0.13,0.6 -0.13,0.95 0,0.33 0.04,0.63 0.13,0.89 0.09,0.27 0.22,0.49 0.38,0.68 0.17,0.19 0.36,0.34 0.6,0.44 0.23,0.1 0.49,0.15 0.78,0.15 0.3,0 0.56,-0.05 0.79,-0.14 0.23,-0.1 0.42,-0.25 0.58,-0.43 0.16,-0.19 0.28,-0.42 0.36,-0.69 0.08,-0.28 0.12,-0.59 0.12,-0.93 0,-0.72 -0.16,-1.26 -0.48,-1.64 -0.31,-0.38 -0.77,-0.56 -1.36,-0.56z"/>
   <path id="13" class="fil1" d="M104.61 16.46l0 -3.05c0,-1.2 -0.44,-1.79 -1.31,-1.79 -0.23,0 -0.44,0.04 -0.64,0.13 -0.19,0.09 -0.36,0.22 -0.51,0.38 -0.14,0.16 -0.25,0.35 -0.33,0.58 -0.08,0.22 -0.13,0.46 -0.13,0.72l0 3.03 -0.66 0 0 -5.29 0.66 0 0 0.91 0.03 0c0.39,-0.69 0.98,-1.04 1.77,-1.04 0.58,0 1.02,0.19 1.32,0.56 0.3,0.38 0.46,0.92 0.46,1.63l0 3.23 -0.66 0z"/>
   <path id="14" class="fil1" d="M106.13 18.14c1.07,-1.29 1.61,-2.79 1.61,-4.51 0,-1.78 -0.54,-3.31 -1.62,-4.58l0.64 0c1.06,1.23 1.59,2.76 1.59,4.58 0,1.79 -0.53,3.29 -1.58,4.51l-0.64 0z"/>
  </g>
  <path class="fil2" d="M16.42 5.77c4.14,0 7.5,3.36 7.5,7.5 0,4.15 -3.36,7.5 -7.5,7.5 -4.14,0 -7.5,-3.35 -7.5,-7.5 0,-4.14 3.36,-7.5 7.5,-7.5zm0 3.75c2.07,0 3.75,1.68 3.75,3.75 0,2.07 -1.68,3.75 -3.75,3.75 -2.07,0 -3.75,-1.68 -3.75,-3.75 0,-2.07 1.68,-3.75 3.75,-3.75z"/>
 </g>
</svg>
