<?xml version="1.0" encoding="UTF-8"?>
<!DOCTYPE svg PUBLIC "-//W3C//DTD SVG 1.1//EN" "http://www.w3.org/Graphics/SVG/1.1/DTD/svg11.dtd">
<!-- Creator: CorelDRAW 2018 (64-Bit) -->
<svg xmlns="http://www.w3.org/2000/svg" xml:space="preserve" width="35px" height="35px" version="1.1" style="shape-rendering:geometricPrecision; text-rendering:geometricPrecision; image-rendering:optimizeQuality; fill-rule:evenodd; clip-rule:evenodd"
viewBox="0 0 1.2 1.2"
 xmlns:xlink="http://www.w3.org/1999/xlink">
 <defs>
  <style type="text/css">
   <![CDATA[
    .fil0 {fill:#FEFEFE}
   ]]>
  </style>
 </defs>
 <g id="Layer_x0020_1">
  <metadata id="CorelCorpID_0Corel-Layer"/>
  <path class="fil0" d="M0.6 0c0.32,0 0.58,0.25 0.6,0.57l-1.2 0c0.02,-0.32 0.28,-0.57 0.6,-0.57zm-0.29 0.4l0 0.13 -0.07 0 0 -0.34 0.14 0c0.01,0 0.03,0 0.04,0 0.02,0.01 0.03,0.01 0.04,0.02 0.01,0.01 0.02,0.02 0.03,0.04 0.01,0.01 0.01,0.03 0.01,0.05 0,0.03 -0.01,0.05 -0.02,0.07 -0.01,0.01 -0.03,0.02 -0.06,0.03l0.1 0.13 -0.08 0 -0.1 -0.13 -0.03 0zm0.07 -0.06c0.01,0 0.02,0 0.03,-0.01 0.01,-0.01 0.02,-0.02 0.02,-0.03 0,-0.02 -0.01,-0.03 -0.02,-0.03 0,-0.01 -0.02,-0.01 -0.03,-0.01 0,0 0,0 0,0l-0.07 0 0 0.08 0.07 0zm0.47 -0.08l0 0.27 -0.07 0 0 -0.27 -0.1 0 0 -0.07 0.27 0 0 0.07 -0.1 0zm-0.54 0.63l0 0.12 -0.07 0 0 -0.34 0.14 0c0.01,0 0.03,0 0.04,0.01 0.02,0 0.03,0.01 0.04,0.02 0.01,0 0.02,0.02 0.03,0.03 0.01,0.01 0.01,0.03 0.01,0.05 0,0.03 -0.01,0.06 -0.02,0.07 -0.01,0.02 -0.03,0.03 -0.06,0.03l0.1 0.13 -0.08 0 -0.1 -0.12 -0.03 0zm0.07 -0.07c0.01,0 0.02,0 0.03,-0.01 0.01,0 0.02,-0.01 0.02,-0.03 0,-0.01 -0.01,-0.02 -0.02,-0.03 0,-0.01 -0.02,-0.01 -0.03,-0.01 0,0 0,0 0,0l-0.07 0 0 0.08 0.07 0zm0.13 -0.15l0.08 0 0.05 0.18 0.01 0.08 0 0 0.01 -0.08c0.01,-0.02 0.01,-0.03 0.01,-0.04 0.01,-0.01 0.01,-0.02 0.01,-0.03 0.01,-0.01 0.01,-0.01 0.01,-0.02 0.01,-0.01 0.01,-0.03 0.02,-0.04l0.05 0 0.05 0.13 0.01 0.08 0 0 0.01 -0.08 0.05 -0.18 0.08 0 -0.1 0.34 -0.07 0 -0.05 -0.13 0 -0.04 -0.01 0c0,0.01 0,0.01 0,0.02 0,0.01 0,0.01 -0.01,0.02l0 0 -0.04 0.13 -0.07 0 -0.1 -0.34zm0.69 -0.05c-0.01,0.32 -0.28,0.58 -0.6,0.58 -0.33,0 -0.59,-0.26 -0.6,-0.58l1.2 0z"/>
 </g>
</svg>
