<?xml version="1.0" encoding="UTF-8"?>
<!DOCTYPE svg PUBLIC "-//W3C//DTD SVG 1.1//EN" "http://www.w3.org/Graphics/SVG/1.1/DTD/svg11.dtd">
<!-- Creator: CorelDRAW 2018 (64-Bit) -->
<svg xmlns="http://www.w3.org/2000/svg" xml:space="preserve" width="542px" height="63px" version="1.1" style="shape-rendering:geometricPrecision; text-rendering:geometricPrecision; image-rendering:optimizeQuality; fill-rule:evenodd; clip-rule:evenodd"
viewBox="0 0 229.25 26.47"
 xmlns:xlink="http://www.w3.org/1999/xlink">
 <defs>
  <style type="text/css">
   <![CDATA[
    .fil2 {fill:#088378}
    .fil1 {fill:#B6B6B7;fill-rule:nonzero}
    .fil0 {fill:#088378;fill-rule:nonzero}
   ]]>
  </style>
 </defs>
 <g id="Layer_x0020_1">
  <metadata id="CorelCorpID_0Corel-Layer"/>
  <g id="_2298708481584">
   <path class="fil0" d="M5.84 0l217.58 0c1.6,0 3.06,0.66 4.12,1.71 1.05,1.06 1.71,2.52 1.71,4.13l0 14.79c0,1.6 -0.66,3.06 -1.71,4.12 -1.06,1.06 -2.52,1.72 -4.12,1.72l-217.58 0c-1.61,0 -3.07,-0.66 -4.12,-1.72 -1.06,-1.05 -1.72,-2.51 -1.72,-4.12l0 -14.79c0,-1.61 0.66,-3.07 1.71,-4.13 1.06,-1.05 2.52,-1.71 4.13,-1.71zm217.58 1l-217.58 0c-1.33,0 -2.54,0.54 -3.42,1.42 -0.88,0.88 -1.42,2.09 -1.42,3.42l0 14.79c0,1.33 0.54,2.54 1.42,3.42 0.88,0.87 2.09,1.42 3.42,1.42l217.58 0c1.32,0 2.53,-0.55 3.41,-1.42 0.88,-0.88 1.42,-2.09 1.42,-3.42l0 -14.79c0,-1.33 -0.54,-2.54 -1.42,-3.42 -0.88,-0.88 -2.09,-1.42 -3.41,-1.42z"/>
   <path class="fil1" d="M38.45 16.46l-3.02 -3.47c-0.08,-0.1 -0.13,-0.17 -0.16,-0.21l-0.02 0 0 3.68 -0.68 0 0 -7.41 0.68 0 0 3.48 0.02 0c0.03,-0.03 0.05,-0.07 0.08,-0.1 0.03,-0.04 0.06,-0.07 0.09,-0.11l2.88 -3.27 0.88 0 -3.22 3.57 3.43 3.84 -0.96 0z"/>
   <path id="1" class="fil1" d="M42.48 16.58c-0.4,0 -0.75,-0.06 -1.06,-0.2 -0.31,-0.13 -0.58,-0.31 -0.8,-0.55 -0.22,-0.24 -0.39,-0.53 -0.5,-0.86 -0.12,-0.33 -0.18,-0.71 -0.18,-1.11 0,-0.44 0.06,-0.84 0.19,-1.19 0.12,-0.34 0.3,-0.64 0.53,-0.88 0.22,-0.25 0.5,-0.43 0.82,-0.56 0.33,-0.12 0.69,-0.19 1.09,-0.19 0.38,0 0.73,0.06 1.03,0.19 0.31,0.13 0.57,0.31 0.78,0.55 0.22,0.23 0.38,0.52 0.49,0.86 0.12,0.34 0.18,0.73 0.18,1.17 0,0.41 -0.06,0.79 -0.18,1.12 -0.12,0.35 -0.29,0.64 -0.51,0.88 -0.22,0.25 -0.49,0.44 -0.81,0.57 -0.31,0.13 -0.67,0.2 -1.07,0.2zm0.05 -4.96c-0.29,0 -0.55,0.04 -0.79,0.15 -0.23,0.09 -0.43,0.24 -0.6,0.43 -0.17,0.19 -0.29,0.43 -0.38,0.7 -0.09,0.28 -0.14,0.6 -0.14,0.95 0,0.33 0.05,0.63 0.14,0.89 0.09,0.27 0.21,0.49 0.38,0.68 0.16,0.19 0.36,0.34 0.59,0.44 0.24,0.1 0.5,0.15 0.79,0.15 0.29,0 0.56,-0.05 0.79,-0.14 0.22,-0.1 0.41,-0.25 0.57,-0.43 0.16,-0.19 0.28,-0.42 0.36,-0.69 0.08,-0.28 0.12,-0.59 0.12,-0.93 0,-0.72 -0.16,-1.26 -0.47,-1.64 -0.32,-0.38 -0.77,-0.56 -1.36,-0.56z"/>
   <path id="2" class="fil1" d="M50.09 16.46l0 -0.93 -0.02 0c-0.18,0.33 -0.43,0.59 -0.75,0.78 -0.33,0.18 -0.7,0.27 -1.11,0.27 -0.33,0 -0.63,-0.06 -0.9,-0.18 -0.27,-0.12 -0.51,-0.3 -0.7,-0.53 -0.19,-0.23 -0.34,-0.51 -0.45,-0.84 -0.1,-0.33 -0.15,-0.7 -0.15,-1.11 0,-0.43 0.05,-0.82 0.17,-1.17 0.11,-0.35 0.28,-0.66 0.49,-0.91 0.21,-0.25 0.47,-0.45 0.77,-0.59 0.29,-0.14 0.62,-0.21 0.99,-0.21 0.76,0 1.31,0.31 1.64,0.92l0.02 0 0 -3.34 0.66 0 0 7.84 -0.66 0zm0 -3.2c0,-0.23 -0.04,-0.44 -0.12,-0.64 -0.08,-0.2 -0.19,-0.38 -0.33,-0.52 -0.14,-0.15 -0.31,-0.27 -0.51,-0.36 -0.2,-0.08 -0.42,-0.12 -0.65,-0.12 -0.27,0 -0.51,0.05 -0.73,0.15 -0.22,0.1 -0.41,0.25 -0.56,0.45 -0.16,0.19 -0.28,0.43 -0.37,0.71 -0.09,0.28 -0.13,0.59 -0.13,0.95 0,0.33 0.04,0.63 0.12,0.9 0.08,0.26 0.19,0.49 0.34,0.67 0.14,0.18 0.32,0.32 0.52,0.42 0.2,0.1 0.43,0.14 0.68,0.14 0.27,0 0.51,-0.04 0.72,-0.14 0.22,-0.1 0.4,-0.23 0.55,-0.4 0.15,-0.17 0.27,-0.37 0.35,-0.59 0.08,-0.23 0.12,-0.47 0.12,-0.73l0 -0.89z"/>
   <path id="3" class="fil1" d="M52.77 13.93c0,0.32 0.05,0.62 0.13,0.87 0.08,0.26 0.2,0.48 0.36,0.66 0.15,0.18 0.34,0.32 0.56,0.41 0.22,0.1 0.47,0.14 0.75,0.14 0.6,0 1.16,-0.21 1.69,-0.62l0 0.65c-0.5,0.36 -1.12,0.54 -1.84,0.54 -0.35,0 -0.67,-0.06 -0.96,-0.18 -0.29,-0.13 -0.54,-0.31 -0.74,-0.54 -0.2,-0.24 -0.36,-0.53 -0.47,-0.88 -0.11,-0.34 -0.17,-0.73 -0.17,-1.17 0,-0.4 0.06,-0.77 0.18,-1.1 0.12,-0.34 0.29,-0.63 0.5,-0.88 0.22,-0.25 0.47,-0.44 0.76,-0.58 0.3,-0.14 0.62,-0.21 0.97,-0.21 0.34,0 0.64,0.06 0.9,0.18 0.26,0.12 0.48,0.29 0.66,0.51 0.18,0.22 0.31,0.49 0.4,0.8 0.1,0.32 0.14,0.68 0.14,1.07l0 0.33 -3.82 0zm3.14 -0.58c-0.01,-0.55 -0.14,-0.98 -0.39,-1.28 -0.25,-0.3 -0.6,-0.45 -1.05,-0.45 -0.22,0 -0.43,0.03 -0.62,0.11 -0.19,0.08 -0.36,0.2 -0.51,0.35 -0.14,0.15 -0.26,0.33 -0.35,0.55 -0.1,0.21 -0.17,0.45 -0.2,0.72l3.12 0z"/>
   <path id="4" class="fil1" d="M61.59 13.57l0 2.89 -0.69 0 0 -7.41 1.91 0c0.39,0 0.74,0.04 1.04,0.14 0.3,0.1 0.55,0.24 0.76,0.42 0.2,0.18 0.36,0.41 0.47,0.67 0.1,0.27 0.16,0.57 0.16,0.91 0,0.35 -0.06,0.66 -0.19,0.95 -0.12,0.3 -0.29,0.55 -0.51,0.76 -0.23,0.21 -0.51,0.38 -0.83,0.5 -0.32,0.11 -0.69,0.17 -1.1,0.17l-1.02 0zm0 -3.89l0 3.26 0.98 0c0.64,0 1.12,-0.14 1.45,-0.44 0.33,-0.3 0.5,-0.72 0.5,-1.26 0,-1.04 -0.61,-1.56 -1.83,-1.56l-1.1 0z"/>
   <path id="5" class="fil1" d="M68.8 16.58c-0.4,0 -0.75,-0.06 -1.06,-0.2 -0.31,-0.13 -0.58,-0.31 -0.8,-0.55 -0.22,-0.24 -0.39,-0.53 -0.5,-0.86 -0.12,-0.33 -0.18,-0.71 -0.18,-1.11 0,-0.44 0.06,-0.84 0.19,-1.19 0.12,-0.34 0.3,-0.64 0.53,-0.88 0.22,-0.25 0.5,-0.43 0.82,-0.56 0.33,-0.12 0.69,-0.19 1.09,-0.19 0.38,0 0.73,0.06 1.03,0.19 0.31,0.13 0.57,0.31 0.78,0.55 0.22,0.23 0.38,0.52 0.49,0.86 0.12,0.34 0.18,0.73 0.18,1.17 0,0.41 -0.06,0.79 -0.18,1.12 -0.12,0.35 -0.29,0.64 -0.51,0.88 -0.22,0.25 -0.49,0.44 -0.81,0.57 -0.31,0.13 -0.67,0.2 -1.07,0.2zm0.05 -4.96c-0.29,0 -0.55,0.04 -0.79,0.15 -0.23,0.09 -0.43,0.24 -0.6,0.43 -0.17,0.19 -0.29,0.43 -0.38,0.7 -0.09,0.28 -0.14,0.6 -0.14,0.95 0,0.33 0.05,0.63 0.14,0.89 0.09,0.27 0.21,0.49 0.38,0.68 0.16,0.19 0.36,0.34 0.59,0.44 0.24,0.1 0.5,0.15 0.79,0.15 0.29,0 0.56,-0.05 0.78,-0.14 0.23,-0.1 0.42,-0.25 0.58,-0.43 0.16,-0.19 0.28,-0.42 0.36,-0.69 0.08,-0.28 0.12,-0.59 0.12,-0.93 0,-0.72 -0.16,-1.26 -0.47,-1.64 -0.32,-0.38 -0.77,-0.56 -1.36,-0.56z"/>
   <path id="6" class="fil1" d="M72.4 15.51c0.1,0.08 0.21,0.15 0.32,0.21 0.12,0.06 0.24,0.11 0.37,0.16 0.12,0.04 0.24,0.08 0.37,0.1 0.13,0.02 0.25,0.03 0.36,0.03 0.79,0 1.18,-0.29 1.18,-0.88 0,-0.14 -0.03,-0.25 -0.09,-0.35 -0.05,-0.1 -0.13,-0.19 -0.23,-0.27 -0.11,-0.08 -0.23,-0.15 -0.37,-0.22 -0.15,-0.07 -0.31,-0.15 -0.5,-0.22 -0.24,-0.1 -0.45,-0.2 -0.63,-0.3 -0.17,-0.11 -0.32,-0.22 -0.43,-0.34 -0.11,-0.13 -0.2,-0.26 -0.25,-0.41 -0.06,-0.14 -0.09,-0.31 -0.09,-0.49 0,-0.24 0.05,-0.45 0.16,-0.63 0.1,-0.18 0.23,-0.34 0.41,-0.47 0.17,-0.12 0.37,-0.22 0.59,-0.29 0.23,-0.06 0.47,-0.1 0.71,-0.1 0.46,0 0.86,0.09 1.2,0.26l0 0.7c-0.39,-0.26 -0.82,-0.38 -1.28,-0.38 -0.16,0 -0.31,0.02 -0.45,0.06 -0.14,0.04 -0.25,0.1 -0.35,0.17 -0.1,0.08 -0.17,0.17 -0.22,0.27 -0.06,0.11 -0.08,0.23 -0.08,0.35 0,0.13 0.02,0.25 0.06,0.35 0.04,0.1 0.1,0.18 0.19,0.26 0.09,0.08 0.2,0.16 0.34,0.23 0.14,0.07 0.31,0.15 0.51,0.23 0.26,0.11 0.48,0.21 0.66,0.31 0.19,0.1 0.34,0.21 0.46,0.33 0.12,0.12 0.21,0.25 0.27,0.4 0.06,0.15 0.09,0.31 0.09,0.51 0,0.23 -0.05,0.45 -0.15,0.63 -0.1,0.19 -0.23,0.35 -0.41,0.47 -0.17,0.13 -0.37,0.23 -0.61,0.29 -0.23,0.07 -0.49,0.1 -0.76,0.1 -0.54,0 -0.99,-0.11 -1.35,-0.33l0 -0.74z"/>
   <path id="7" class="fil1" d="M82.95 16.46l0 -0.94 -0.02 0c-0.17,0.33 -0.41,0.6 -0.71,0.78 -0.3,0.19 -0.63,0.28 -1.01,0.28 -0.25,0 -0.48,-0.03 -0.69,-0.11 -0.2,-0.07 -0.38,-0.17 -0.52,-0.31 -0.14,-0.13 -0.25,-0.29 -0.33,-0.47 -0.08,-0.19 -0.12,-0.39 -0.12,-0.62 0,-0.48 0.15,-0.86 0.45,-1.14 0.29,-0.29 0.74,-0.47 1.34,-0.56l1.61 -0.23c0,-1.02 -0.4,-1.52 -1.19,-1.52 -0.61,0 -1.18,0.22 -1.71,0.67l0 -0.72c0.11,-0.08 0.23,-0.15 0.37,-0.22 0.14,-0.06 0.29,-0.11 0.44,-0.16 0.16,-0.05 0.32,-0.08 0.48,-0.11 0.17,-0.03 0.33,-0.04 0.48,-0.04 0.59,0 1.04,0.17 1.34,0.5 0.3,0.33 0.45,0.82 0.45,1.48l0 3.44 -0.66 0zm-1.37 -2.57c-0.23,0.03 -0.44,0.08 -0.61,0.13 -0.17,0.05 -0.3,0.12 -0.42,0.21 -0.1,0.09 -0.19,0.19 -0.24,0.32 -0.05,0.13 -0.07,0.29 -0.07,0.48 0,0.14 0.02,0.27 0.07,0.39 0.05,0.12 0.12,0.23 0.22,0.32 0.09,0.08 0.21,0.15 0.34,0.2 0.14,0.05 0.29,0.07 0.47,0.07 0.23,0 0.45,-0.04 0.64,-0.13 0.2,-0.09 0.37,-0.21 0.51,-0.37 0.14,-0.16 0.26,-0.35 0.34,-0.57 0.08,-0.22 0.12,-0.46 0.12,-0.72l0 -0.52 -1.37 0.19z"/>
   <polygon id="8" class="fil1" points="85.2,16.46 85.2,8.62 85.86,8.62 85.86,16.46 "/>
   <path id="9" class="fil1" d="M90.62 16.46l0 -0.94 -0.02 0c-0.17,0.33 -0.41,0.6 -0.71,0.78 -0.3,0.19 -0.63,0.28 -1.01,0.28 -0.25,0 -0.48,-0.03 -0.69,-0.11 -0.2,-0.07 -0.38,-0.17 -0.52,-0.31 -0.14,-0.13 -0.25,-0.29 -0.33,-0.47 -0.08,-0.19 -0.12,-0.39 -0.12,-0.62 0,-0.48 0.15,-0.86 0.45,-1.14 0.29,-0.29 0.74,-0.47 1.34,-0.56l1.61 -0.23c0,-1.02 -0.4,-1.52 -1.19,-1.52 -0.61,0 -1.18,0.22 -1.71,0.67l0 -0.72c0.11,-0.08 0.23,-0.15 0.37,-0.22 0.14,-0.06 0.29,-0.11 0.44,-0.16 0.16,-0.05 0.32,-0.08 0.48,-0.11 0.17,-0.03 0.33,-0.04 0.48,-0.04 0.59,0 1.04,0.17 1.34,0.5 0.3,0.33 0.45,0.82 0.45,1.48l0 3.44 -0.66 0zm-1.37 -2.57c-0.23,0.03 -0.44,0.08 -0.61,0.13 -0.17,0.05 -0.3,0.12 -0.42,0.21 -0.11,0.09 -0.19,0.19 -0.24,0.32 -0.05,0.13 -0.08,0.29 -0.08,0.48 0,0.14 0.03,0.27 0.08,0.39 0.05,0.12 0.12,0.23 0.22,0.32 0.09,0.08 0.21,0.15 0.34,0.2 0.14,0.05 0.29,0.07 0.47,0.07 0.23,0 0.45,-0.04 0.64,-0.13 0.2,-0.09 0.37,-0.21 0.51,-0.37 0.14,-0.16 0.25,-0.35 0.34,-0.57 0.08,-0.22 0.12,-0.46 0.12,-0.72l0 -0.52 -1.37 0.19z"/>
   <path id="10" class="fil1" d="M99.52 16.46l0 -3.11c0,-0.32 -0.02,-0.59 -0.07,-0.81 -0.05,-0.22 -0.12,-0.39 -0.23,-0.53 -0.1,-0.14 -0.23,-0.24 -0.38,-0.3 -0.16,-0.06 -0.35,-0.09 -0.56,-0.09 -0.2,0 -0.38,0.04 -0.55,0.13 -0.17,0.09 -0.32,0.22 -0.45,0.38 -0.13,0.16 -0.23,0.35 -0.31,0.56 -0.07,0.22 -0.11,0.46 -0.11,0.71l0 3.06 -0.66 0 0 -3.18c0,-1.11 -0.43,-1.66 -1.28,-1.66 -0.19,0 -0.38,0.04 -0.55,0.13 -0.16,0.08 -0.31,0.21 -0.44,0.37 -0.12,0.16 -0.22,0.35 -0.29,0.57 -0.07,0.22 -0.11,0.47 -0.11,0.73l0 3.04 -0.66 0 0 -5.29 0.66 0 0 0.85 0.02 0c0.38,-0.65 0.92,-0.98 1.63,-0.98 0.19,0 0.36,0.03 0.53,0.09 0.16,0.05 0.31,0.13 0.44,0.23 0.13,0.11 0.25,0.23 0.34,0.37 0.1,0.14 0.17,0.29 0.21,0.46 0.19,-0.37 0.43,-0.66 0.73,-0.85 0.3,-0.2 0.64,-0.3 1.01,-0.3 1.16,0 1.74,0.72 1.74,2.15l0 3.27 -0.66 0z"/>
   <path id="11" class="fil1" d="M104.82 16.46l0 -0.94 -0.02 0c-0.17,0.33 -0.4,0.6 -0.7,0.78 -0.3,0.19 -0.64,0.28 -1.01,0.28 -0.26,0 -0.49,-0.03 -0.69,-0.11 -0.21,-0.07 -0.38,-0.17 -0.52,-0.31 -0.15,-0.13 -0.26,-0.29 -0.33,-0.47 -0.08,-0.19 -0.12,-0.39 -0.12,-0.62 0,-0.48 0.15,-0.86 0.44,-1.14 0.3,-0.29 0.75,-0.47 1.35,-0.56l1.6 -0.23c0,-1.02 -0.39,-1.52 -1.18,-1.52 -0.62,0 -1.19,0.22 -1.72,0.67l0 -0.72c0.12,-0.08 0.24,-0.15 0.38,-0.22 0.14,-0.06 0.29,-0.11 0.44,-0.16 0.16,-0.05 0.32,-0.08 0.48,-0.11 0.16,-0.03 0.32,-0.04 0.48,-0.04 0.59,0 1.03,0.17 1.33,0.5 0.3,0.33 0.46,0.82 0.46,1.48l0 3.44 -0.67 0zm-1.36 -2.57c-0.24,0.03 -0.44,0.08 -0.61,0.13 -0.17,0.05 -0.31,0.12 -0.42,0.21 -0.11,0.09 -0.19,0.19 -0.24,0.32 -0.05,0.13 -0.08,0.29 -0.08,0.48 0,0.14 0.03,0.27 0.08,0.39 0.05,0.12 0.12,0.23 0.21,0.32 0.1,0.08 0.21,0.15 0.35,0.2 0.14,0.05 0.29,0.07 0.46,0.07 0.24,0 0.45,-0.04 0.65,-0.13 0.19,-0.09 0.36,-0.21 0.51,-0.37 0.14,-0.16 0.25,-0.35 0.33,-0.57 0.08,-0.22 0.12,-0.46 0.12,-0.72l0 -0.52 -1.36 0.19z"/>
   <path id="12" class="fil1" d="M109.35 16.4c-0.22,0.11 -0.47,0.16 -0.74,0.17 -0.86,-0.01 -1.28,-0.5 -1.28,-1.48l0 -3.35 -0.93 0 0 -0.57 0.93 0 0 -1.34 0.66 -0.21 0 1.55 1.36 0 0 0.57 -1.36 0 0 3.24c0,0.36 0.06,0.62 0.17,0.78 0.12,0.16 0.32,0.24 0.6,0.24 0.2,0 0.4,-0.06 0.59,-0.19l0 0.59z"/>
  </g>
  <path class="fil2" d="M17.96 9.43c0,-0.94 -0.66,-1.69 -1.51,-1.69 -0.88,0 -1.56,0.73 -1.57,1.67 0,0.94 0.67,1.69 1.52,1.69 0.88,0 1.55,-0.73 1.56,-1.67zm-6.52 2.48l1.92 0c0.09,0.15 0.19,0.3 0.3,0.44 0.81,1.13 1.72,2.17 2.61,3.24 0.12,0.14 0.19,0.13 0.3,-0.01 0.53,-0.68 1.06,-1.37 1.59,-2.06 0.41,-0.53 0.83,-1.05 1.2,-1.61l2.04 0c0.77,0 1.41,0.63 1.41,1.4l0 5.96c0,0.78 -0.64,1.41 -1.41,1.41l-9.96 0c-0.77,0 -1.4,-0.63 -1.4,-1.41l0 -5.96c0,-0.77 0.63,-1.4 1.4,-1.4zm-0.87 1.45l5.85 2.91 5.85 -2.91 -3.75 2.79 3.13 3.19 -3.85 -2.65 -1.38 1.02 -1.38 -1.02 -3.85 2.65 3.13 -3.19 -3.75 -2.79zm5.81 -7.5c1.68,0.01 3.05,1.36 3.22,3.14 0.06,0.72 -0.12,1.36 -0.42,1.97 -0.36,0.72 -0.87,1.33 -1.34,1.95 -0.43,0.56 -0.87,1.12 -1.3,1.67 -0.09,0.12 -0.14,0.13 -0.24,0.01 -0.73,-0.87 -1.46,-1.72 -2.13,-2.63 -0.45,-0.61 -0.77,-1.29 -0.89,-2.07 -0.29,-1.86 0.87,-3.65 2.56,-3.98 0.2,-0.04 0.4,-0.06 0.54,-0.06z"/>
 </g>
</svg>
