<?xml version="1.0" encoding="UTF-8"?>
<!DOCTYPE svg PUBLIC "-//W3C//DTD SVG 1.1//EN" "http://www.w3.org/Graphics/SVG/1.1/DTD/svg11.dtd">
<!-- Creator: CorelDRAW 2018 (64-Bit) -->
<svg xmlns="http://www.w3.org/2000/svg" xml:space="preserve" width="542px" height="63px" version="1.1" style="shape-rendering:geometricPrecision; text-rendering:geometricPrecision; image-rendering:optimizeQuality; fill-rule:evenodd; clip-rule:evenodd"
viewBox="0 0 229.25 26.47"
 xmlns:xlink="http://www.w3.org/1999/xlink">
 <defs>
  <style type="text/css">
   <![CDATA[
    .fil2 {fill:#088378}
    .fil1 {fill:#B6B6B7;fill-rule:nonzero}
    .fil0 {fill:#088378;fill-rule:nonzero}
   ]]>
  </style>
 </defs>
 <g id="Layer_x0020_1">
  <metadata id="CorelCorpID_0Corel-Layer"/>
  <g id="_2299327884192">
   <path class="fil0" d="M5.84 0l217.58 0c1.6,0 3.06,0.66 4.12,1.71 1.05,1.06 1.71,2.52 1.71,4.13l0 14.79c0,1.6 -0.66,3.06 -1.71,4.12 -1.06,1.06 -2.52,1.72 -4.12,1.72l-217.58 0c-1.61,0 -3.07,-0.66 -4.12,-1.72 -1.06,-1.05 -1.72,-2.51 -1.72,-4.12l0 -14.79c0,-1.61 0.66,-3.07 1.71,-4.13 1.06,-1.05 2.52,-1.71 4.13,-1.71zm217.58 1l-217.58 0c-1.33,0 -2.54,0.54 -3.42,1.42 -0.88,0.88 -1.42,2.09 -1.42,3.42l0 14.79c0,1.33 0.54,2.54 1.42,3.42 0.88,0.87 2.09,1.42 3.42,1.42l217.58 0c1.32,0 2.53,-0.55 3.41,-1.42 0.88,-0.88 1.42,-2.09 1.42,-3.42l0 -14.79c0,-1.33 -0.54,-2.54 -1.42,-3.42 -0.88,-0.88 -2.09,-1.42 -3.41,-1.42z"/>
   <path class="fil1" d="M36.3 13.85c0,0.93 -0.17,1.61 -0.52,2.06 -0.34,0.45 -0.82,0.67 -1.44,0.67 -0.12,0 -0.24,-0.01 -0.34,-0.02 -0.11,-0.02 -0.21,-0.04 -0.3,-0.08l0 -0.67c0.2,0.1 0.41,0.15 0.65,0.15 0.44,0 0.76,-0.17 0.96,-0.52 0.2,-0.34 0.3,-0.87 0.3,-1.59l0 -4.8 0.69 0 0 4.8z"/>
   <path id="1" class="fil1" d="M38.37 13.93c0.01,0.32 0.05,0.62 0.13,0.87 0.09,0.26 0.21,0.48 0.36,0.66 0.16,0.18 0.34,0.32 0.57,0.41 0.22,0.1 0.47,0.14 0.75,0.14 0.59,0 1.16,-0.21 1.69,-0.62l0 0.65c-0.51,0.36 -1.12,0.54 -1.84,0.54 -0.36,0 -0.68,-0.06 -0.97,-0.18 -0.29,-0.13 -0.53,-0.31 -0.74,-0.54 -0.2,-0.24 -0.36,-0.53 -0.47,-0.88 -0.11,-0.34 -0.16,-0.73 -0.16,-1.17 0,-0.4 0.06,-0.77 0.18,-1.1 0.12,-0.34 0.29,-0.63 0.5,-0.88 0.21,-0.25 0.47,-0.44 0.76,-0.58 0.29,-0.14 0.61,-0.21 0.96,-0.21 0.34,0 0.64,0.06 0.9,0.18 0.27,0.12 0.49,0.29 0.66,0.51 0.18,0.22 0.32,0.49 0.41,0.8 0.09,0.32 0.14,0.68 0.14,1.07l0 0.33 -3.83 0zm3.15 -0.58c-0.01,-0.55 -0.14,-0.98 -0.4,-1.28 -0.25,-0.3 -0.6,-0.45 -1.04,-0.45 -0.23,0 -0.44,0.03 -0.63,0.11 -0.19,0.08 -0.36,0.2 -0.5,0.35 -0.15,0.15 -0.27,0.33 -0.36,0.55 -0.1,0.21 -0.16,0.45 -0.2,0.72l3.13 0z"/>
   <path id="2" class="fil1" d="M47.07 16.46l0 -3.05c0,-1.2 -0.44,-1.79 -1.3,-1.79 -0.24,0 -0.45,0.04 -0.65,0.13 -0.19,0.09 -0.36,0.22 -0.5,0.38 -0.15,0.16 -0.26,0.35 -0.34,0.58 -0.08,0.22 -0.12,0.46 -0.12,0.72l0 3.03 -0.66 0 0 -5.29 0.66 0 0 0.91 0.02 0c0.39,-0.69 0.98,-1.04 1.77,-1.04 0.58,0 1.02,0.19 1.32,0.56 0.31,0.38 0.46,0.92 0.46,1.63l0 3.23 -0.66 0z"/>
   <path id="3" class="fil1" d="M49.65 9.83c-0.13,0 -0.24,-0.05 -0.34,-0.14 -0.09,-0.09 -0.13,-0.2 -0.13,-0.34 0,-0.13 0.04,-0.24 0.13,-0.33 0.1,-0.09 0.21,-0.13 0.34,-0.13 0.06,0 0.12,0.01 0.18,0.03 0.06,0.02 0.11,0.05 0.16,0.1 0.04,0.04 0.07,0.09 0.1,0.14 0.02,0.06 0.04,0.12 0.04,0.19 0,0.07 -0.01,0.13 -0.04,0.19 -0.02,0.06 -0.06,0.11 -0.1,0.15 -0.05,0.04 -0.1,0.08 -0.15,0.1 -0.06,0.02 -0.12,0.04 -0.19,0.04zm-0.33 6.63l0 -5.29 0.66 0 0 5.29 -0.66 0z"/>
   <path id="4" class="fil1" d="M51.39 15.51c0.1,0.08 0.21,0.15 0.32,0.21 0.12,0.06 0.24,0.11 0.37,0.16 0.12,0.04 0.24,0.08 0.37,0.1 0.13,0.02 0.25,0.03 0.36,0.03 0.79,0 1.18,-0.29 1.18,-0.88 0,-0.14 -0.03,-0.25 -0.09,-0.35 -0.05,-0.1 -0.13,-0.19 -0.23,-0.27 -0.11,-0.08 -0.23,-0.15 -0.37,-0.22 -0.15,-0.07 -0.31,-0.15 -0.5,-0.22 -0.24,-0.1 -0.45,-0.2 -0.63,-0.3 -0.17,-0.11 -0.32,-0.22 -0.43,-0.34 -0.11,-0.13 -0.2,-0.26 -0.25,-0.41 -0.06,-0.14 -0.09,-0.31 -0.09,-0.49 0,-0.24 0.05,-0.45 0.16,-0.63 0.1,-0.18 0.23,-0.34 0.41,-0.47 0.17,-0.12 0.37,-0.22 0.59,-0.29 0.23,-0.06 0.47,-0.1 0.71,-0.1 0.46,0 0.86,0.09 1.2,0.26l0 0.7c-0.39,-0.26 -0.82,-0.38 -1.28,-0.38 -0.16,0 -0.31,0.02 -0.45,0.06 -0.14,0.04 -0.25,0.1 -0.35,0.17 -0.1,0.08 -0.17,0.17 -0.22,0.27 -0.06,0.11 -0.08,0.23 -0.08,0.35 0,0.13 0.02,0.25 0.06,0.35 0.04,0.1 0.1,0.18 0.19,0.26 0.09,0.08 0.2,0.16 0.34,0.23 0.14,0.07 0.31,0.15 0.51,0.23 0.26,0.11 0.48,0.21 0.66,0.31 0.19,0.1 0.34,0.21 0.46,0.33 0.12,0.12 0.21,0.25 0.27,0.4 0.06,0.15 0.09,0.31 0.09,0.51 0,0.23 -0.05,0.45 -0.15,0.63 -0.1,0.19 -0.23,0.35 -0.41,0.47 -0.17,0.13 -0.37,0.23 -0.61,0.29 -0.23,0.07 -0.49,0.1 -0.76,0.1 -0.54,0 -0.99,-0.11 -1.35,-0.33l0 -0.74z"/>
   <path id="5" class="fil1" d="M62.35 16.46l0 -0.9 -0.02 0c-0.36,0.68 -0.91,1.02 -1.67,1.02 -1.26,0 -1.89,-0.77 -1.89,-2.3l0 -3.11 0.67 0 0 2.98c0,0.64 0.11,1.1 0.33,1.41 0.23,0.3 0.58,0.45 1.04,0.45 0.23,0 0.44,-0.04 0.62,-0.13 0.19,-0.09 0.35,-0.21 0.49,-0.37 0.14,-0.16 0.24,-0.35 0.32,-0.58 0.07,-0.22 0.11,-0.47 0.11,-0.74l0 -3.02 0.66 0 0 5.29 -0.66 0z"/>
   <path id="6" class="fil1" d="M64.42 15.51c0.1,0.08 0.21,0.15 0.32,0.21 0.12,0.06 0.24,0.11 0.37,0.16 0.12,0.04 0.24,0.08 0.37,0.1 0.13,0.02 0.25,0.03 0.36,0.03 0.79,0 1.18,-0.29 1.18,-0.88 0,-0.14 -0.03,-0.25 -0.09,-0.35 -0.05,-0.1 -0.13,-0.19 -0.23,-0.27 -0.11,-0.08 -0.23,-0.15 -0.37,-0.22 -0.15,-0.07 -0.31,-0.15 -0.5,-0.22 -0.24,-0.1 -0.45,-0.2 -0.63,-0.3 -0.17,-0.11 -0.32,-0.22 -0.43,-0.34 -0.11,-0.13 -0.2,-0.26 -0.25,-0.41 -0.06,-0.14 -0.09,-0.31 -0.09,-0.49 0,-0.24 0.05,-0.45 0.16,-0.63 0.1,-0.18 0.23,-0.34 0.41,-0.47 0.17,-0.12 0.37,-0.22 0.59,-0.29 0.23,-0.06 0.47,-0.1 0.71,-0.1 0.46,0 0.86,0.09 1.2,0.26l0 0.7c-0.39,-0.26 -0.82,-0.38 -1.28,-0.38 -0.16,0 -0.31,0.02 -0.45,0.06 -0.14,0.04 -0.25,0.1 -0.35,0.17 -0.1,0.08 -0.17,0.17 -0.22,0.27 -0.06,0.11 -0.08,0.23 -0.08,0.35 0,0.13 0.02,0.25 0.06,0.35 0.04,0.1 0.1,0.18 0.19,0.26 0.09,0.08 0.2,0.16 0.34,0.23 0.14,0.07 0.31,0.15 0.51,0.23 0.26,0.11 0.48,0.21 0.66,0.31 0.19,0.1 0.34,0.21 0.46,0.33 0.12,0.12 0.21,0.25 0.27,0.4 0.06,0.15 0.09,0.31 0.09,0.51 0,0.23 -0.05,0.45 -0.15,0.63 -0.1,0.19 -0.23,0.35 -0.41,0.47 -0.17,0.13 -0.37,0.23 -0.61,0.29 -0.23,0.07 -0.49,0.1 -0.76,0.1 -0.54,0 -0.99,-0.11 -1.35,-0.33l0 -0.74z"/>
   <path id="7" class="fil1" d="M69.33 13.93c0.01,0.32 0.05,0.62 0.13,0.87 0.09,0.26 0.21,0.48 0.36,0.66 0.15,0.18 0.34,0.32 0.56,0.41 0.23,0.1 0.48,0.14 0.76,0.14 0.59,0 1.16,-0.21 1.69,-0.62l0 0.65c-0.51,0.36 -1.12,0.54 -1.84,0.54 -0.36,0 -0.68,-0.06 -0.97,-0.18 -0.29,-0.13 -0.53,-0.31 -0.74,-0.54 -0.2,-0.24 -0.36,-0.53 -0.47,-0.88 -0.11,-0.34 -0.16,-0.73 -0.16,-1.17 0,-0.4 0.06,-0.77 0.18,-1.1 0.12,-0.34 0.28,-0.63 0.5,-0.88 0.21,-0.25 0.47,-0.44 0.76,-0.58 0.29,-0.14 0.61,-0.21 0.96,-0.21 0.34,0 0.64,0.06 0.9,0.18 0.27,0.12 0.48,0.29 0.66,0.51 0.18,0.22 0.31,0.49 0.41,0.8 0.09,0.32 0.14,0.68 0.14,1.07l0 0.33 -3.83 0zm3.14 -0.58c0,-0.55 -0.14,-0.98 -0.39,-1.28 -0.25,-0.3 -0.6,-0.45 -1.05,-0.45 -0.22,0 -0.43,0.03 -0.62,0.11 -0.19,0.08 -0.36,0.2 -0.5,0.35 -0.15,0.15 -0.27,0.33 -0.36,0.55 -0.1,0.21 -0.16,0.45 -0.2,0.72l3.12 0z"/>
   <path id="8" class="fil1" d="M77.08 11.84c-0.15,-0.11 -0.35,-0.17 -0.6,-0.17 -0.18,0 -0.33,0.04 -0.46,0.1 -0.14,0.07 -0.26,0.16 -0.36,0.27 -0.1,0.12 -0.19,0.25 -0.26,0.4 -0.07,0.15 -0.12,0.3 -0.17,0.47 -0.04,0.16 -0.07,0.32 -0.09,0.49 -0.02,0.16 -0.03,0.32 -0.03,0.47l0 2.59 -0.66 0 0 -5.29 0.66 0 0 1.13 0.02 0c0.06,-0.2 0.14,-0.37 0.24,-0.52 0.09,-0.16 0.2,-0.28 0.33,-0.39 0.12,-0.1 0.25,-0.19 0.4,-0.24 0.15,-0.06 0.3,-0.08 0.46,-0.08 0.11,0 0.2,0 0.29,0.02 0.08,0.01 0.16,0.03 0.23,0.06l0 0.69z"/>
   <path id="9" class="fil1" d="M83.99 16.46l0 -0.94 -0.02 0c-0.17,0.33 -0.41,0.6 -0.71,0.78 -0.29,0.19 -0.63,0.28 -1.01,0.28 -0.25,0 -0.48,-0.03 -0.69,-0.11 -0.2,-0.07 -0.37,-0.17 -0.52,-0.31 -0.14,-0.13 -0.25,-0.29 -0.33,-0.47 -0.08,-0.19 -0.12,-0.39 -0.12,-0.62 0,-0.48 0.15,-0.86 0.45,-1.14 0.3,-0.29 0.74,-0.47 1.34,-0.56l1.61 -0.23c0,-1.02 -0.39,-1.52 -1.18,-1.52 -0.62,0 -1.19,0.22 -1.72,0.67l0 -0.72c0.11,-0.08 0.24,-0.15 0.38,-0.22 0.14,-0.06 0.28,-0.11 0.44,-0.16 0.15,-0.05 0.31,-0.08 0.48,-0.11 0.16,-0.03 0.32,-0.04 0.47,-0.04 0.59,0 1.04,0.17 1.34,0.5 0.3,0.33 0.45,0.82 0.45,1.48l0 3.44 -0.66 0zm-1.36 -2.57c-0.24,0.03 -0.44,0.08 -0.61,0.13 -0.17,0.05 -0.31,0.12 -0.42,0.21 -0.11,0.09 -0.19,0.19 -0.24,0.32 -0.06,0.13 -0.08,0.29 -0.08,0.48 0,0.14 0.02,0.27 0.07,0.39 0.05,0.12 0.13,0.23 0.22,0.32 0.09,0.08 0.21,0.15 0.35,0.2 0.13,0.05 0.29,0.07 0.46,0.07 0.23,0 0.45,-0.04 0.64,-0.13 0.2,-0.09 0.37,-0.21 0.51,-0.37 0.15,-0.16 0.26,-0.35 0.34,-0.57 0.08,-0.22 0.12,-0.46 0.12,-0.72l0 -0.52 -1.36 0.19z"/>
   <path id="10" class="fil1" d="M89.76 16.22c-0.39,0.24 -0.87,0.36 -1.42,0.37 -0.38,0 -0.72,-0.07 -1.03,-0.2 -0.3,-0.13 -0.56,-0.32 -0.77,-0.56 -0.22,-0.24 -0.38,-0.52 -0.49,-0.85 -0.12,-0.32 -0.17,-0.68 -0.17,-1.06 0,-0.4 0.06,-0.77 0.18,-1.12 0.12,-0.35 0.29,-0.65 0.53,-0.91 0.23,-0.26 0.51,-0.47 0.84,-0.62 0.34,-0.15 0.72,-0.23 1.15,-0.23 0.44,0 0.84,0.09 1.2,0.25l0 0.71c-0.39,-0.26 -0.8,-0.38 -1.25,-0.38 -0.31,0 -0.6,0.06 -0.84,0.17 -0.24,0.12 -0.45,0.28 -0.62,0.49 -0.16,0.2 -0.29,0.44 -0.38,0.72 -0.09,0.27 -0.13,0.56 -0.13,0.87 0,0.28 0.04,0.55 0.11,0.81 0.07,0.26 0.19,0.49 0.34,0.68 0.15,0.2 0.35,0.36 0.58,0.48 0.24,0.11 0.51,0.17 0.83,0.17 0.5,0 0.94,-0.15 1.34,-0.44l0 0.65z"/>
   <path id="11" class="fil1" d="M94.55 16.22c-0.39,0.24 -0.86,0.36 -1.42,0.37 -0.38,0 -0.72,-0.07 -1.03,-0.2 -0.3,-0.13 -0.56,-0.32 -0.77,-0.56 -0.21,-0.24 -0.38,-0.52 -0.49,-0.85 -0.11,-0.32 -0.17,-0.68 -0.17,-1.06 0,-0.4 0.06,-0.77 0.18,-1.12 0.12,-0.35 0.3,-0.65 0.53,-0.91 0.23,-0.26 0.51,-0.47 0.84,-0.62 0.34,-0.15 0.72,-0.23 1.15,-0.23 0.44,0 0.84,0.09 1.2,0.25l0 0.71c-0.39,-0.26 -0.8,-0.38 -1.25,-0.38 -0.31,0 -0.59,0.06 -0.84,0.17 -0.24,0.12 -0.45,0.28 -0.61,0.49 -0.17,0.2 -0.3,0.44 -0.39,0.72 -0.09,0.27 -0.13,0.56 -0.13,0.87 0,0.28 0.04,0.55 0.11,0.81 0.08,0.26 0.19,0.49 0.34,0.68 0.15,0.2 0.35,0.36 0.58,0.48 0.24,0.11 0.51,0.17 0.83,0.17 0.5,0 0.94,-0.15 1.34,-0.44l0 0.65z"/>
   <path id="12" class="fil1" d="M97.99 16.58c-0.39,0 -0.74,-0.06 -1.06,-0.2 -0.31,-0.13 -0.57,-0.31 -0.79,-0.55 -0.22,-0.24 -0.39,-0.53 -0.51,-0.86 -0.12,-0.33 -0.18,-0.71 -0.18,-1.11 0,-0.44 0.07,-0.84 0.19,-1.19 0.12,-0.34 0.3,-0.64 0.53,-0.88 0.23,-0.25 0.51,-0.43 0.83,-0.56 0.32,-0.12 0.68,-0.19 1.08,-0.19 0.39,0 0.73,0.06 1.04,0.19 0.3,0.13 0.56,0.31 0.78,0.55 0.21,0.23 0.38,0.52 0.49,0.86 0.11,0.34 0.17,0.73 0.17,1.17 0,0.41 -0.06,0.79 -0.18,1.12 -0.12,0.35 -0.29,0.64 -0.51,0.88 -0.22,0.25 -0.49,0.44 -0.8,0.57 -0.32,0.13 -0.68,0.2 -1.08,0.2zm0.05 -4.96c-0.29,0 -0.55,0.04 -0.78,0.15 -0.24,0.09 -0.44,0.24 -0.6,0.43 -0.17,0.19 -0.3,0.43 -0.39,0.7 -0.09,0.28 -0.13,0.6 -0.13,0.95 0,0.33 0.04,0.63 0.13,0.89 0.09,0.27 0.22,0.49 0.38,0.68 0.16,0.19 0.36,0.34 0.6,0.44 0.23,0.1 0.49,0.15 0.78,0.15 0.3,0 0.56,-0.05 0.79,-0.14 0.23,-0.1 0.42,-0.25 0.58,-0.43 0.16,-0.19 0.28,-0.42 0.36,-0.69 0.08,-0.28 0.12,-0.59 0.12,-0.93 0,-0.72 -0.16,-1.26 -0.48,-1.64 -0.32,-0.38 -0.77,-0.56 -1.36,-0.56z"/>
   <path id="13" class="fil1" d="M105.35 16.46l0 -0.9 -0.02 0c-0.36,0.68 -0.91,1.02 -1.67,1.02 -1.25,0 -1.88,-0.77 -1.88,-2.3l0 -3.11 0.66 0 0 2.98c0,0.64 0.11,1.1 0.34,1.41 0.22,0.3 0.57,0.45 1.03,0.45 0.23,0 0.44,-0.04 0.63,-0.13 0.19,-0.09 0.35,-0.21 0.48,-0.37 0.14,-0.16 0.25,-0.35 0.32,-0.58 0.08,-0.22 0.11,-0.47 0.11,-0.74l0 -3.02 0.67 0 0 5.29 -0.67 0z"/>
   <path id="14" class="fil1" d="M111.29 16.46l0 -3.05c0,-1.2 -0.43,-1.79 -1.3,-1.79 -0.23,0 -0.44,0.04 -0.64,0.13 -0.2,0.09 -0.37,0.22 -0.51,0.38 -0.14,0.16 -0.25,0.35 -0.34,0.58 -0.08,0.22 -0.12,0.46 -0.12,0.72l0 3.03 -0.66 0 0 -5.29 0.66 0 0 0.91 0.02 0c0.4,-0.69 0.99,-1.04 1.78,-1.04 0.57,0 1.02,0.19 1.32,0.56 0.3,0.38 0.45,0.92 0.45,1.63l0 3.23 -0.66 0z"/>
   <path id="15" class="fil1" d="M115.82 16.4c-0.23,0.11 -0.48,0.16 -0.74,0.17 -0.86,-0.01 -1.29,-0.5 -1.29,-1.48l0 -3.35 -0.93 0 0 -0.57 0.93 0 0 -1.34 0.67 -0.21 0 1.55 1.36 0 0 0.57 -1.36 0 0 3.24c0,0.36 0.05,0.62 0.17,0.78 0.12,0.16 0.32,0.24 0.6,0.24 0.2,0 0.4,-0.06 0.59,-0.19l0 0.59z"/>
  </g>
  <path class="fil2" d="M15.46 6.13c1.85,0 3.34,1.63 3.34,3.64 0,2.01 -1.49,3.64 -3.34,3.64 -1.85,0 -3.35,-1.63 -3.35,-3.64 0,-2.01 1.5,-3.64 3.35,-3.64zm4.47 9.97l-0.78 0.79 0.64 0.64c0.27,0.27 0.27,0.7 0,0.97 -0.26,0.26 -0.69,0.26 -0.96,0l-0.64 -0.64 -0.62 0.62 0.64 0.64c0.27,0.26 0.27,0.7 0,0.96 -0.26,0.27 -0.7,0.27 -0.96,0l-1.12 -1.12 0 0c-0.27,-0.27 -0.27,-0.7 0,-0.96l1.54 -1.55c0.01,-0.02 0.02,-0.03 0.04,-0.04 0.01,-0.01 0.02,-0.02 0.03,-0.04l1.23 -1.23c-0.21,-0.38 -0.33,-0.82 -0.33,-1.29 0,-0.71 0.29,-1.36 0.76,-1.83 0.47,-0.47 1.12,-0.76 1.83,-0.76 0.72,0 1.37,0.29 1.84,0.76 0.47,0.47 0.76,1.12 0.76,1.83 0,0.72 -0.29,1.37 -0.76,1.84 -0.47,0.47 -1.12,0.76 -1.84,0.76 -0.47,0 -0.91,-0.13 -1.3,-0.35zm2.17 -3.12c-0.22,-0.22 -0.53,-0.36 -0.87,-0.36 -0.34,0 -0.65,0.14 -0.87,0.36 -0.22,0.23 -0.36,0.53 -0.36,0.87 0,0.34 0.14,0.65 0.36,0.87 0.22,0.23 0.53,0.37 0.87,0.37 0.34,0 0.65,-0.14 0.87,-0.37 0.23,-0.22 0.36,-0.53 0.36,-0.87 0,-0.34 -0.13,-0.64 -0.36,-0.87zm-5.72 7.43c-0.3,0.01 -0.61,0.02 -0.92,0.02 -3.56,0 -6.45,-1.28 -6.45,-2.66 0,-1.16 0.59,-3.39 4.03,-4.1 0.69,0.5 1.52,0.8 2.42,0.8 0.86,0 1.66,-0.27 2.33,-0.75l0 0.13c0,0.3 0.04,0.6 0.12,0.88l0.06 0.22 -2.44 2.45c-0.3,0.3 -0.45,0.69 -0.45,1.08 0,0.36 0.13,0.72 0.39,1.01l0.91 0.92z"/>
 </g>
</svg>
