<?xml version="1.0" encoding="UTF-8"?>
<!DOCTYPE svg PUBLIC "-//W3C//DTD SVG 1.1//EN" "http://www.w3.org/Graphics/SVG/1.1/DTD/svg11.dtd">
<!-- Creator: CorelDRAW 2018 (64-Bit) -->
<svg xmlns="http://www.w3.org/2000/svg" xml:space="preserve" width="539px" height="60px" version="1.1" style="shape-rendering:geometricPrecision; text-rendering:geometricPrecision; image-rendering:optimizeQuality; fill-rule:evenodd; clip-rule:evenodd"
viewBox="0 0 663.5 74.03"
 xmlns:xlink="http://www.w3.org/1999/xlink">
 <defs>
  <style type="text/css">
   <![CDATA[
    .fil0 {fill:#5F5D5D}
    .fil2 {fill:#FEFEFE;fill-rule:nonzero}
    .fil1 {fill:#FEFEFE;fill-rule:nonzero}
   ]]>
  </style>
 </defs>
 <g id="Layer_x0020_1">
  <metadata id="CorelCorpID_0Corel-Layer"/>
  <g id="_1691422293184">
   <rect class="fil0" width="663.5" height="74.03" rx="41.19" ry="15.51"/>
   <g>
    <polygon class="fil1" points="241.22,44.79 241.22,23.01 243.04,23.01 243.04,42.97 253.93,42.97 253.93,44.79 "/>
    <path id="1" class="fil1" d="M255.74 33.74c0,-0.86 0.18,-1.61 0.52,-2.26 0.35,-0.65 0.81,-1.18 1.37,-1.61 0.57,-0.43 1.21,-0.76 1.94,-0.99 0.73,-0.23 1.47,-0.34 2.23,-0.34 0.76,0 1.5,0.11 2.22,0.34 0.72,0.23 1.36,0.56 1.92,0.99 0.56,0.43 1.02,0.96 1.37,1.61 0.35,0.65 0.52,1.4 0.52,2.26l0 6.15c0,0.87 -0.17,1.62 -0.52,2.28 -0.35,0.66 -0.81,1.2 -1.37,1.63 -0.56,0.43 -1.2,0.76 -1.92,0.97 -0.72,0.22 -1.46,0.32 -2.22,0.32 -0.76,0 -1.5,-0.1 -2.23,-0.32 -0.73,-0.21 -1.37,-0.54 -1.94,-0.97 -0.56,-0.43 -1.02,-0.97 -1.37,-1.63 -0.34,-0.66 -0.52,-1.41 -0.52,-2.28l0 -6.15zm6.06 -3.54c-0.53,0 -1.05,0.07 -1.57,0.2 -0.51,0.14 -0.97,0.34 -1.38,0.62 -0.41,0.28 -0.75,0.63 -1,1.06 -0.26,0.43 -0.39,0.95 -0.39,1.57l0 6.31c0,0.61 0.13,1.13 0.39,1.57 0.25,0.43 0.59,0.79 1,1.07 0.41,0.29 0.87,0.5 1.38,0.63 0.52,0.14 1.04,0.2 1.57,0.2 0.51,0 1.03,-0.06 1.54,-0.2 0.51,-0.13 0.97,-0.34 1.38,-0.63 0.42,-0.28 0.75,-0.64 1,-1.07 0.26,-0.44 0.39,-0.96 0.39,-1.57l0 -6.31c0,-0.62 -0.13,-1.14 -0.39,-1.57 -0.25,-0.43 -0.58,-0.78 -1,-1.06 -0.41,-0.28 -0.87,-0.48 -1.38,-0.62 -0.51,-0.13 -1.03,-0.2 -1.54,-0.2z"/>
    <path id="2" class="fil1" d="M276.97 49.56c0.57,0 1.13,-0.08 1.66,-0.24 0.53,-0.15 0.99,-0.38 1.38,-0.69 0.4,-0.31 0.71,-0.69 0.94,-1.15 0.24,-0.46 0.36,-1 0.36,-1.62l0 -1.72c-0.68,0.35 -1.38,0.6 -2.1,0.74 -0.71,0.14 -1.44,0.21 -2.18,0.21 -0.76,0 -1.5,-0.1 -2.21,-0.32 -0.72,-0.21 -1.36,-0.54 -1.93,-0.97 -0.56,-0.43 -1.01,-0.97 -1.35,-1.61 -0.34,-0.65 -0.51,-1.39 -0.51,-2.23l0 -6.31c0,-0.84 0.17,-1.58 0.51,-2.21 0.34,-0.64 0.78,-1.17 1.32,-1.61 0.55,-0.43 1.17,-0.75 1.88,-0.96 0.71,-0.22 1.43,-0.33 2.17,-0.33 0.71,0 1.45,0.07 2.2,0.2 0.75,0.14 1.48,0.31 2.2,0.51l1.69 0.52 0 16.06c0,0.86 -0.17,1.62 -0.51,2.28 -0.34,0.66 -0.78,1.21 -1.34,1.66 -0.55,0.45 -1.19,0.79 -1.9,1.02 -0.72,0.22 -1.47,0.33 -2.25,0.33 -0.98,0 -1.94,-0.16 -2.86,-0.49 -0.92,-0.33 -1.71,-0.84 -2.37,-1.54l1.08 -1.01c0.47,0.49 1.08,0.86 1.83,1.11 0.75,0.24 1.51,0.37 2.29,0.37zm-0.06 -19.36c-0.54,0 -1.05,0.08 -1.54,0.22 -0.49,0.14 -0.93,0.35 -1.32,0.63 -0.39,0.28 -0.71,0.63 -0.94,1.05 -0.24,0.42 -0.36,0.91 -0.36,1.49l0 6.49c0,0.55 0.12,1.05 0.36,1.48 0.23,0.43 0.55,0.78 0.95,1.06 0.4,0.27 0.85,0.48 1.36,0.63 0.5,0.14 1.02,0.21 1.55,0.21 0.72,-0.02 1.45,-0.1 2.2,-0.24 0.75,-0.15 1.46,-0.36 2.14,-0.65l0 -11.44c-0.47,-0.21 -1.11,-0.41 -1.91,-0.62 -0.8,-0.2 -1.63,-0.31 -2.49,-0.31z"/>
    <path id="3" class="fil1" d="M286.6 24.94c0,-0.41 0.14,-0.76 0.43,-1.04 0.29,-0.29 0.64,-0.43 1.05,-0.43 0.41,0 0.76,0.14 1.04,0.43 0.29,0.28 0.43,0.63 0.43,1.04 0,0.41 -0.14,0.76 -0.43,1.05 -0.28,0.29 -0.63,0.43 -1.04,0.43 -0.41,0 -0.76,-0.14 -1.05,-0.43 -0.29,-0.29 -0.43,-0.64 -0.43,-1.05zm2.25 19.85l-1.85 0 0 -15.94 1.85 0 0 15.94z"/>
    <path id="4" class="fil1" d="M305 33.68l0 11.11 -1.73 0 0 -11.17c0,-0.58 -0.12,-1.08 -0.37,-1.51 -0.24,-0.43 -0.57,-0.79 -0.96,-1.08 -0.4,-0.28 -0.85,-0.49 -1.34,-0.63 -0.49,-0.13 -1,-0.2 -1.51,-0.2 -0.86,0 -1.69,0.11 -2.49,0.31 -0.8,0.21 -1.44,0.41 -1.91,0.62l0 13.66 -1.72 0 0 -14.99c0.98,-0.34 1.99,-0.64 3.01,-0.89 1.03,-0.25 2.06,-0.37 3.11,-0.37 0.74,0.02 1.46,0.14 2.17,0.36 0.71,0.21 1.34,0.53 1.89,0.95 0.55,0.42 1,0.95 1.34,1.59 0.34,0.63 0.51,1.38 0.51,2.24z"/>
    <path id="5" class="fil1" d="M315.33 39.93l0 -6.19c0,-0.84 0.18,-1.58 0.53,-2.23 0.35,-0.64 0.8,-1.19 1.37,-1.63 0.56,-0.44 1.21,-0.77 1.93,-0.98 0.73,-0.22 1.48,-0.33 2.24,-0.33 1.49,0 2.94,0.32 4.33,0.96l0 -6.59 1.72 0 0 21.08c-0.98,0.35 -1.99,0.61 -3.02,0.8 -1.04,0.18 -2.08,0.27 -3.13,0.27 -0.74,-0.02 -1.46,-0.13 -2.18,-0.35 -0.72,-0.22 -1.36,-0.54 -1.93,-0.97 -0.56,-0.43 -1.01,-0.96 -1.35,-1.6 -0.34,-0.63 -0.51,-1.38 -0.51,-2.24zm6.03 -9.63c-0.53,0 -1.06,0.07 -1.58,0.21 -0.52,0.14 -0.98,0.36 -1.38,0.63 -0.4,0.28 -0.72,0.63 -0.96,1.06 -0.23,0.43 -0.35,0.94 -0.35,1.51l0 6.28c0,0.57 0.12,1.07 0.35,1.49 0.24,0.42 0.56,0.77 0.96,1.06 0.4,0.29 0.85,0.5 1.35,0.65 0.5,0.14 1.02,0.21 1.55,0.21 0.74,0 1.48,-0.03 2.23,-0.11 0.75,-0.07 1.48,-0.23 2.2,-0.47l0 -11.63c-0.67,-0.29 -1.39,-0.51 -2.14,-0.66 -0.74,-0.16 -1.49,-0.23 -2.23,-0.23z"/>
    <path id="6" class="fil1" d="M332.84 39.99c0,0.59 0.12,1.1 0.37,1.54 0.25,0.43 0.57,0.79 0.97,1.07 0.4,0.29 0.85,0.5 1.37,0.63 0.51,0.14 1.04,0.2 1.6,0.2 0.86,0 1.67,-0.17 2.43,-0.52 0.76,-0.35 1.3,-0.88 1.63,-1.6l1.54 0.71c-0.25,0.51 -0.57,0.96 -0.96,1.35 -0.39,0.39 -0.83,0.71 -1.34,0.97 -0.5,0.26 -1.03,0.45 -1.6,0.57 -0.56,0.12 -1.13,0.18 -1.7,0.18 -0.76,0 -1.5,-0.1 -2.23,-0.32 -0.73,-0.21 -1.38,-0.54 -1.94,-0.97 -0.57,-0.43 -1.02,-0.97 -1.37,-1.61 -0.35,-0.65 -0.52,-1.4 -0.52,-2.26l0 -6.22c0,-0.86 0.17,-1.61 0.52,-2.26 0.35,-0.65 0.8,-1.18 1.37,-1.62 0.56,-0.43 1.21,-0.75 1.94,-0.96 0.73,-0.22 1.47,-0.33 2.23,-0.33 0.74,0 1.47,0.11 2.2,0.33 0.73,0.21 1.37,0.53 1.94,0.96 0.56,0.44 1.02,0.97 1.36,1.62 0.35,0.65 0.53,1.4 0.53,2.26l0 3.88 -10.34 0 0 2.4zm8.61 -6.4c0,-0.58 -0.12,-1.08 -0.36,-1.51 -0.25,-0.43 -0.57,-0.78 -0.97,-1.06 -0.4,-0.28 -0.86,-0.48 -1.39,-0.62 -0.52,-0.13 -1.05,-0.2 -1.58,-0.2 -0.56,0 -1.09,0.07 -1.6,0.2 -0.52,0.14 -0.98,0.34 -1.39,0.62 -0.41,0.28 -0.73,0.63 -0.97,1.06 -0.23,0.43 -0.35,0.93 -0.35,1.51l0 2.55 8.61 0 0 -2.55z"/>
    <path id="7" class="fil1" d="M358.62 33.68l0 11.11 -1.72 0 0 -11.17c0,-0.58 -0.12,-1.08 -0.37,-1.51 -0.25,-0.43 -0.57,-0.79 -0.97,-1.08 -0.4,-0.28 -0.85,-0.49 -1.34,-0.63 -0.49,-0.13 -0.99,-0.2 -1.51,-0.2 -0.86,0 -1.69,0.11 -2.49,0.31 -0.8,0.21 -1.43,0.41 -1.91,0.62l0 13.66 -1.72 0 0 -14.99c0.99,-0.34 1.99,-0.64 3.02,-0.89 1.02,-0.25 2.06,-0.37 3.1,-0.37 0.74,0.02 1.47,0.14 2.17,0.36 0.71,0.21 1.34,0.53 1.9,0.95 0.55,0.42 1,0.95 1.33,1.59 0.34,0.63 0.51,1.38 0.51,2.24z"/>
    <path id="8" class="fil1" d="M368.16 49.56c0.57,0 1.13,-0.08 1.66,-0.24 0.53,-0.15 0.99,-0.38 1.38,-0.69 0.39,-0.31 0.71,-0.69 0.94,-1.15 0.24,-0.46 0.36,-1 0.36,-1.62l0 -1.72c-0.68,0.35 -1.38,0.6 -2.1,0.74 -0.71,0.14 -1.44,0.21 -2.18,0.21 -0.76,0 -1.5,-0.1 -2.22,-0.32 -0.71,-0.21 -1.35,-0.54 -1.92,-0.97 -0.56,-0.43 -1.01,-0.97 -1.35,-1.61 -0.34,-0.65 -0.51,-1.39 -0.51,-2.23l0 -6.31c0,-0.84 0.17,-1.58 0.51,-2.21 0.34,-0.64 0.78,-1.17 1.32,-1.61 0.54,-0.43 1.17,-0.75 1.88,-0.96 0.71,-0.22 1.43,-0.33 2.17,-0.33 0.71,0 1.45,0.07 2.2,0.2 0.75,0.14 1.48,0.31 2.2,0.51l1.69 0.52 0 16.06c0,0.86 -0.17,1.62 -0.51,2.28 -0.34,0.66 -0.78,1.21 -1.34,1.66 -0.55,0.45 -1.19,0.79 -1.91,1.02 -0.71,0.22 -1.46,0.33 -2.24,0.33 -0.98,0 -1.94,-0.16 -2.86,-0.49 -0.92,-0.33 -1.71,-0.84 -2.37,-1.54l1.08 -1.01c0.47,0.49 1.08,0.86 1.83,1.11 0.75,0.24 1.51,0.37 2.29,0.37zm-0.06 -19.36c-0.54,0 -1.05,0.08 -1.54,0.22 -0.49,0.14 -0.93,0.35 -1.32,0.63 -0.39,0.28 -0.71,0.63 -0.94,1.05 -0.24,0.42 -0.36,0.91 -0.36,1.49l0 6.49c0,0.55 0.12,1.05 0.36,1.48 0.23,0.43 0.55,0.78 0.95,1.06 0.4,0.27 0.85,0.48 1.35,0.63 0.51,0.14 1.03,0.21 1.56,0.21 0.72,-0.02 1.45,-0.1 2.2,-0.24 0.75,-0.15 1.46,-0.36 2.14,-0.65l0 -11.44c-0.48,-0.21 -1.11,-0.41 -1.91,-0.62 -0.8,-0.2 -1.63,-0.31 -2.49,-0.31z"/>
    <path id="9" class="fil1" d="M387.69 33.62c0,-0.58 -0.12,-1.07 -0.36,-1.49 -0.25,-0.42 -0.58,-0.78 -1,-1.06 -0.42,-0.29 -0.9,-0.51 -1.42,-0.65 -0.52,-0.14 -1.06,-0.22 -1.62,-0.22 -0.79,0 -1.56,0.14 -2.3,0.4 -0.74,0.27 -1.31,0.67 -1.72,1.2l-1.17 -1.1c0.65,-0.72 1.46,-1.26 2.43,-1.62 0.96,-0.36 1.95,-0.54 2.95,-0.54 0.76,0 1.5,0.11 2.21,0.33 0.72,0.21 1.36,0.53 1.91,0.95 0.56,0.42 1,0.95 1.33,1.58 0.32,0.64 0.49,1.38 0.49,2.22l0 10.46c-1.97,0.68 -4.02,1.01 -6.16,1.01 -0.12,0 -0.24,0 -0.36,0 -0.78,0 -1.51,-0.1 -2.19,-0.3 -0.68,-0.21 -1.27,-0.52 -1.77,-0.93 -0.5,-0.41 -0.89,-0.91 -1.18,-1.52 -0.29,-0.6 -0.43,-1.33 -0.43,-2.17 0,-0.9 0.18,-1.67 0.53,-2.29 0.36,-0.63 0.83,-1.14 1.41,-1.54 0.57,-0.4 1.22,-0.69 1.95,-0.88 0.73,-0.18 1.47,-0.27 2.23,-0.27 0.74,0 1.47,0.07 2.2,0.21 0.73,0.15 1.41,0.35 2.04,0.62l0 -2.4zm-1.9 3.28c-0.74,-0.16 -1.5,-0.24 -2.28,-0.24 -0.59,0 -1.16,0.06 -1.69,0.17 -0.54,0.12 -1.01,0.31 -1.42,0.59 -0.41,0.28 -0.73,0.63 -0.98,1.07 -0.25,0.45 -0.37,1 -0.37,1.68 0,1.21 0.37,2.07 1.12,2.59 0.75,0.51 1.69,0.78 2.82,0.8 0.16,0 0.34,0 0.52,0 0.62,0 1.23,-0.02 1.85,-0.07 0.8,-0.08 1.58,-0.21 2.33,-0.4l0 -5.66c-0.53,-0.2 -1.16,-0.38 -1.9,-0.53z"/>
    <path id="10" class="fil1" d="M405.38 33.68l0 11.11 -1.72 0 0 -11.17c0,-0.58 -0.12,-1.08 -0.37,-1.51 -0.24,-0.43 -0.57,-0.79 -0.97,-1.08 -0.4,-0.28 -0.84,-0.49 -1.34,-0.63 -0.49,-0.13 -0.99,-0.2 -1.5,-0.2 -0.86,0 -1.69,0.11 -2.49,0.31 -0.8,0.21 -1.44,0.41 -1.91,0.62l0 13.66 -1.72 0 0 -14.99c0.98,-0.34 1.99,-0.64 3.01,-0.89 1.03,-0.25 2.06,-0.37 3.11,-0.37 0.74,0.02 1.46,0.14 2.17,0.36 0.7,0.21 1.33,0.53 1.89,0.95 0.55,0.42 1,0.95 1.34,1.59 0.34,0.63 0.5,1.38 0.5,2.24z"/>
    <path id="11" class="fil1" d="M424.09 22.7c0.76,0 1.52,0.08 2.28,0.24 0.76,0.17 1.46,0.41 2.12,0.74 0.66,0.33 1.25,0.74 1.77,1.23 0.52,0.49 0.94,1.07 1.24,1.72l-1.62 0.81c-0.25,-0.5 -0.58,-0.92 -0.99,-1.28 -0.41,-0.36 -0.87,-0.66 -1.38,-0.91 -0.52,-0.24 -1.07,-0.43 -1.67,-0.55 -0.59,-0.13 -1.2,-0.19 -1.81,-0.19 -0.78,0 -1.55,0.11 -2.31,0.31 -0.76,0.21 -1.43,0.51 -2.01,0.91 -0.59,0.4 -1.06,0.89 -1.42,1.49 -0.36,0.59 -0.54,1.29 -0.54,2.09l0 9.11c0,0.8 0.18,1.51 0.54,2.12 0.36,0.62 0.84,1.12 1.45,1.52 0.6,0.4 1.28,0.71 2.04,0.91 0.76,0.21 1.54,0.31 2.34,0.31 0.8,0 1.58,-0.1 2.34,-0.31 0.76,-0.2 1.44,-0.51 2.03,-0.91 0.59,-0.4 1.07,-0.9 1.43,-1.52 0.36,-0.61 0.54,-1.32 0.54,-2.12l0 -2.74 -6.68 0 0 -1.81 8.49 0 0 4.52c0,1.1 -0.23,2.08 -0.7,2.92 -0.48,0.84 -1.09,1.54 -1.85,2.11 -0.76,0.56 -1.63,0.98 -2.62,1.26 -0.98,0.28 -1.97,0.41 -2.98,0.41 -1.02,0 -2.02,-0.13 -3,-0.41 -0.97,-0.28 -1.84,-0.7 -2.61,-1.26 -0.77,-0.57 -1.39,-1.27 -1.86,-2.11 -0.48,-0.84 -0.71,-1.82 -0.71,-2.92l0 -9.08c0,-1.09 0.23,-2.04 0.71,-2.87 0.47,-0.84 1.08,-1.53 1.84,-2.08 0.76,-0.56 1.63,-0.97 2.6,-1.25 0.98,-0.27 1.98,-0.41 3,-0.41z"/>
    <path id="12" class="fil1" d="M435.23 33.74c0,-0.86 0.17,-1.61 0.52,-2.26 0.35,-0.65 0.81,-1.18 1.37,-1.61 0.56,-0.43 1.21,-0.76 1.94,-0.99 0.73,-0.23 1.47,-0.34 2.23,-0.34 0.76,0 1.5,0.11 2.21,0.34 0.72,0.23 1.36,0.56 1.93,0.99 0.56,0.43 1.02,0.96 1.36,1.61 0.35,0.65 0.53,1.4 0.53,2.26l0 6.15c0,0.87 -0.18,1.62 -0.53,2.28 -0.34,0.66 -0.8,1.2 -1.36,1.63 -0.57,0.43 -1.21,0.76 -1.93,0.97 -0.71,0.22 -1.45,0.32 -2.21,0.32 -0.76,0 -1.5,-0.1 -2.23,-0.32 -0.73,-0.21 -1.38,-0.54 -1.94,-0.97 -0.56,-0.43 -1.02,-0.97 -1.37,-1.63 -0.35,-0.66 -0.52,-1.41 -0.52,-2.28l0 -6.15zm6.06 -3.54c-0.53,0 -1.06,0.07 -1.57,0.2 -0.51,0.14 -0.97,0.34 -1.38,0.62 -0.42,0.28 -0.75,0.63 -1,1.06 -0.26,0.43 -0.39,0.95 -0.39,1.57l0 6.31c0,0.61 0.13,1.13 0.39,1.57 0.25,0.43 0.58,0.79 1,1.07 0.41,0.29 0.87,0.5 1.38,0.63 0.51,0.14 1.04,0.2 1.57,0.2 0.51,0 1.02,-0.06 1.54,-0.2 0.51,-0.13 0.97,-0.34 1.38,-0.63 0.41,-0.28 0.74,-0.64 1,-1.07 0.26,-0.44 0.39,-0.96 0.39,-1.57l0 -6.31c0,-0.62 -0.13,-1.14 -0.39,-1.57 -0.26,-0.43 -0.59,-0.78 -1,-1.06 -0.41,-0.28 -0.87,-0.48 -1.38,-0.62 -0.52,-0.13 -1.03,-0.2 -1.54,-0.2z"/>
    <path id="13" class="fil1" d="M450.52 33.74c0,-0.86 0.17,-1.61 0.52,-2.26 0.35,-0.65 0.81,-1.18 1.37,-1.61 0.56,-0.43 1.21,-0.76 1.94,-0.99 0.73,-0.23 1.47,-0.34 2.23,-0.34 0.76,0 1.5,0.11 2.21,0.34 0.72,0.23 1.36,0.56 1.93,0.99 0.56,0.43 1.02,0.96 1.36,1.61 0.35,0.65 0.53,1.4 0.53,2.26l0 6.15c0,0.87 -0.18,1.62 -0.53,2.28 -0.34,0.66 -0.8,1.2 -1.36,1.63 -0.57,0.43 -1.21,0.76 -1.93,0.97 -0.71,0.22 -1.45,0.32 -2.21,0.32 -0.76,0 -1.5,-0.1 -2.23,-0.32 -0.73,-0.21 -1.38,-0.54 -1.94,-0.97 -0.56,-0.43 -1.02,-0.97 -1.37,-1.63 -0.35,-0.66 -0.52,-1.41 -0.52,-2.28l0 -6.15zm6.06 -3.54c-0.53,0 -1.06,0.07 -1.57,0.2 -0.51,0.14 -0.97,0.34 -1.38,0.62 -0.42,0.28 -0.75,0.63 -1,1.06 -0.26,0.43 -0.39,0.95 -0.39,1.57l0 6.31c0,0.61 0.13,1.13 0.39,1.57 0.25,0.43 0.58,0.79 1,1.07 0.41,0.29 0.87,0.5 1.38,0.63 0.51,0.14 1.04,0.2 1.57,0.2 0.51,0 1.02,-0.06 1.54,-0.2 0.51,-0.13 0.97,-0.34 1.38,-0.63 0.41,-0.28 0.74,-0.64 1,-1.07 0.26,-0.44 0.39,-0.96 0.39,-1.57l0 -6.31c0,-0.62 -0.13,-1.14 -0.39,-1.57 -0.26,-0.43 -0.59,-0.78 -1,-1.06 -0.41,-0.28 -0.87,-0.48 -1.38,-0.62 -0.52,-0.13 -1.03,-0.2 -1.54,-0.2z"/>
    <path id="14" class="fil1" d="M471.75 49.56c0.57,0 1.12,-0.08 1.66,-0.24 0.53,-0.15 0.99,-0.38 1.38,-0.69 0.39,-0.31 0.7,-0.69 0.94,-1.15 0.24,-0.46 0.35,-1 0.35,-1.62l0 -1.72c-0.67,0.35 -1.37,0.6 -2.09,0.74 -0.72,0.14 -1.44,0.21 -2.18,0.21 -0.76,0 -1.5,-0.1 -2.22,-0.32 -0.72,-0.21 -1.36,-0.54 -1.92,-0.97 -0.56,-0.43 -1.02,-0.97 -1.35,-1.61 -0.34,-0.65 -0.51,-1.39 -0.51,-2.23l0 -6.31c0,-0.84 0.17,-1.58 0.51,-2.21 0.33,-0.64 0.77,-1.17 1.32,-1.61 0.54,-0.43 1.17,-0.75 1.87,-0.96 0.71,-0.22 1.44,-0.33 2.17,-0.33 0.72,0 1.46,0.07 2.2,0.2 0.75,0.14 1.49,0.31 2.2,0.51l1.7 0.52 0 16.06c0,0.86 -0.17,1.62 -0.51,2.28 -0.34,0.66 -0.79,1.21 -1.34,1.66 -0.55,0.45 -1.19,0.79 -1.91,1.02 -0.72,0.22 -1.46,0.33 -2.24,0.33 -0.99,0 -1.94,-0.16 -2.86,-0.49 -0.93,-0.33 -1.72,-0.84 -2.37,-1.54l1.07 -1.01c0.47,0.49 1.09,0.86 1.83,1.11 0.75,0.24 1.52,0.37 2.3,0.37zm-0.07 -19.36c-0.53,0 -1.04,0.08 -1.53,0.22 -0.5,0.14 -0.94,0.35 -1.33,0.63 -0.39,0.28 -0.7,0.63 -0.94,1.05 -0.23,0.42 -0.35,0.91 -0.35,1.49l0 6.49c0,0.55 0.12,1.05 0.35,1.48 0.24,0.43 0.56,0.78 0.96,1.06 0.4,0.27 0.85,0.48 1.35,0.63 0.51,0.14 1.02,0.21 1.56,0.21 0.71,-0.02 1.45,-0.1 2.2,-0.24 0.74,-0.15 1.46,-0.36 2.13,-0.65l0 -11.44c-0.47,-0.21 -1.1,-0.41 -1.9,-0.62 -0.8,-0.2 -1.63,-0.31 -2.5,-0.31z"/>
    <path id="15" class="fil1" d="M486.67 45.09c-1.56,0 -2.76,-0.44 -3.6,-1.32 -0.84,-0.88 -1.26,-2.12 -1.26,-3.72l0 -17.04 1.72 0 0 17.04c0,1.07 0.25,1.89 0.75,2.46 0.51,0.57 1.3,0.86 2.39,0.86l0 1.72z"/>
    <path id="16" class="fil1" d="M490.2 39.99c0,0.59 0.13,1.1 0.37,1.54 0.25,0.43 0.57,0.79 0.97,1.07 0.4,0.29 0.86,0.5 1.37,0.63 0.52,0.14 1.05,0.2 1.6,0.2 0.86,0 1.67,-0.17 2.43,-0.52 0.76,-0.35 1.31,-0.88 1.63,-1.6l1.54 0.71c-0.24,0.51 -0.56,0.96 -0.95,1.35 -0.39,0.39 -0.84,0.71 -1.34,0.97 -0.5,0.26 -1.04,0.45 -1.6,0.57 -0.56,0.12 -1.13,0.18 -1.71,0.18 -0.76,0 -1.5,-0.1 -2.23,-0.32 -0.73,-0.21 -1.37,-0.54 -1.94,-0.97 -0.56,-0.43 -1.02,-0.97 -1.36,-1.61 -0.35,-0.65 -0.53,-1.4 -0.53,-2.26l0 -6.22c0,-0.86 0.18,-1.61 0.53,-2.26 0.34,-0.65 0.8,-1.18 1.36,-1.62 0.57,-0.43 1.21,-0.75 1.94,-0.96 0.73,-0.22 1.47,-0.33 2.23,-0.33 0.74,0 1.47,0.11 2.2,0.33 0.73,0.21 1.38,0.53 1.94,0.96 0.56,0.44 1.02,0.97 1.37,1.62 0.35,0.65 0.52,1.4 0.52,2.26l0 3.88 -10.34 0 0 2.4zm8.62 -6.4c0,-0.58 -0.12,-1.08 -0.37,-1.51 -0.25,-0.43 -0.57,-0.78 -0.97,-1.06 -0.4,-0.28 -0.86,-0.48 -1.38,-0.62 -0.53,-0.13 -1.06,-0.2 -1.59,-0.2 -0.55,0 -1.08,0.07 -1.6,0.2 -0.51,0.14 -0.97,0.34 -1.38,0.62 -0.41,0.28 -0.74,0.63 -0.97,1.06 -0.24,0.43 -0.36,0.93 -0.36,1.51l0 2.55 8.62 0 0 -2.55z"/>
    <g>
     <path class="fil2" d="M196.52 34.19c-0.35,0 -0.69,0 -1.05,0 0,-0.07 0,-0.14 0,-0.21 0,-0.27 0,-0.5 0,-0.72 0.01,-1.33 0.02,-2.67 -0.01,-4 0,-0.22 -0.23,-0.61 -0.36,-0.61 -1.22,-0.05 -2.44,-0.03 -3.72,-0.03 0,1.59 0,3.11 0,4.65 0,0.3 0,0.6 0,0.91 -1.87,0 -3.66,0 -5.58,0 0,0.41 -0.02,0.7 0,0.98 0.04,1 0.08,2.01 0.13,3.02 0.98,0.03 1.97,0.08 2.95,0.1 0.82,0.01 1.65,0 2.56,0 0,1.92 0,3.7 0,5.48 1.37,0 2.64,0 4.02,0 0,-1.81 0,-3.6 0,-5.49 1.89,0 3.68,0 5.5,0 0,-1.06 0,-2.06 0,-3.08 0,-0.33 0,-0.66 0,-1 -1.48,0 -2.94,0 -4.44,0z"/>
     <path class="fil2" d="M180.73 33.72c-3.48,0.05 -6.95,0.02 -10.43,0.02 -0.99,0 -1.98,-0.02 -2.97,0.02 -0.19,0.01 -0.53,0.24 -0.53,0.37 -0.04,2 -0.03,4 -0.03,6.11 2.87,0 5.64,0 8.51,0 -0.11,0.41 -0.18,0.71 -0.28,1 -1.3,3.87 -5.3,5.79 -9.58,5.09 -5.33,-0.87 -8.64,-5.81 -7.69,-11.14 0.13,-0.75 0.37,-1.47 0.67,-2.14 1.76,-3.87 6.11,-6.22 10.42,-5.28 1.54,0.34 2.86,1.09 4,2.08 1.54,-1.56 3.05,-3.08 4.65,-4.7 -0.1,-0.08 -0.25,-0.18 -0.39,-0.3 -3.75,-3.17 -8.07,-4.34 -12.9,-3.54 -6.95,1.13 -11.95,6.6 -13.06,12.99 -0.48,2.74 -0.26,5.64 0.83,8.44 2.65,6.79 9.47,10.92 16.77,10.12 3.56,-0.39 6.74,-1.68 9.22,-4.33 3.67,-3.9 4.61,-8.62 4.03,-13.79 -0.1,-0.86 -0.45,-1.03 -1.24,-1.02z"/>
    </g>
   </g>
  </g>
 </g>
</svg>
