<?xml version="1.0" encoding="UTF-8"?>
<!DOCTYPE svg PUBLIC "-//W3C//DTD SVG 1.1//EN" "http://www.w3.org/Graphics/SVG/1.1/DTD/svg11.dtd">
<!-- Creator: CorelDRAW 2018 (64-Bit) -->
<svg xmlns="http://www.w3.org/2000/svg" xml:space="preserve" width="35px" height="27px" version="1.1" style="shape-rendering:geometricPrecision; text-rendering:geometricPrecision; image-rendering:optimizeQuality; fill-rule:evenodd; clip-rule:evenodd"
viewBox="0 0 1.2 0.92"
 xmlns:xlink="http://www.w3.org/1999/xlink">
 <defs>
  <style type="text/css">
   <![CDATA[
    .fil0 {fill:#FEFEFE}
   ]]>
  </style>
 </defs>
 <g id="Layer_x0020_1">
  <metadata id="CorelCorpID_0Corel-Layer"/>
  <path class="fil0" d="M1.2 0.82c0,0.06 -0.05,0.1 -0.1,0.1l-1 0c-0.06,0 -0.1,-0.04 -0.1,-0.1l0 -0.57c0,-0.06 0.04,-0.1 0.1,-0.1l0.09 0 0.13 -0.13c0.02,-0.01 0.04,-0.02 0.05,-0.02l0.18 0c0.02,0 0.04,0.01 0.05,0.02l0.13 0.13 0.09 0 0 -0.06c0,-0.02 0.02,-0.04 0.05,-0.04l0.16 0c0.02,0 0.04,0.02 0.04,0.04l0 0.06 0.03 0c0.05,0 0.1,0.04 0.1,0.1l0 0.57 0 0zm-0.37 -0.53l0.2 0c0.03,0 0.05,0.02 0.05,0.05l0 0c0,0.02 -0.02,0.04 -0.05,0.04l-0.2 0c-0.03,0 -0.05,-0.02 -0.05,-0.04l0 0c0,-0.03 0.02,-0.05 0.05,-0.05zm-0.25 0.24c0.16,0.03 0.19,0.14 0.19,0.19 0,0.07 -0.14,0.13 -0.31,0.13 -0.17,0 -0.3,-0.06 -0.3,-0.13 0,-0.05 0.02,-0.16 0.19,-0.19 0.03,0.02 0.07,0.04 0.11,0.04 0.04,0 0.08,-0.02 0.12,-0.04zm-0.12 -0.36c0.09,0 0.16,0.08 0.16,0.17 0,0.1 -0.07,0.18 -0.16,0.18 -0.09,0 -0.16,-0.08 -0.16,-0.18 0,-0.09 0.07,-0.17 0.16,-0.17z"/>
 </g>
</svg>
