<?xml version="1.0" encoding="UTF-8"?>
<!DOCTYPE svg PUBLIC "-//W3C//DTD SVG 1.1//EN" "http://www.w3.org/Graphics/SVG/1.1/DTD/svg11.dtd">
<!-- Creator: CorelDRAW 2018 (64-Bit) -->
<svg xmlns="http://www.w3.org/2000/svg" xml:space="preserve" width="35px" height="35px" version="1.1" style="shape-rendering:geometricPrecision; text-rendering:geometricPrecision; image-rendering:optimizeQuality; fill-rule:evenodd; clip-rule:evenodd"
viewBox="0 0 0.9 0.9"
 xmlns:xlink="http://www.w3.org/1999/xlink">
 <defs>
  <style type="text/css">
   <![CDATA[
    .fil0 {fill:#757475}
   ]]>
  </style>
 </defs>
 <g id="Layer_x0020_1">
  <metadata id="CorelCorpID_0Corel-Layer"/>
  <path class="fil0" d="M0.19 0.72c0.07,0.07 0.16,0.1 0.26,0.1 0.05,0 0.09,0 0.13,-0.02 0.05,-0.02 0.09,-0.04 0.13,-0.08l-0.08 -0.01c-0.02,0 -0.04,-0.01 -0.05,-0.02l-0.01 -0.02 -0.07 -0.02 0.04 -0.02c0.02,-0.01 0.03,-0.03 0.04,-0.05l0.01 -0.05c0.04,0 0.06,-0.02 0.06,-0.07 0,-0.04 -0.02,-0.06 -0.04,-0.06 0,-0.03 0.01,-0.07 0.01,-0.12 0,-0.09 -0.06,-0.13 -0.21,-0.13 -0.05,0 -0.07,0.02 -0.07,0.08 -0.04,0 -0.07,0.02 -0.07,0.05 0,0.05 0.02,0.09 0.02,0.12 -0.03,0 -0.04,0.02 -0.04,0.06 0,0.05 0.01,0.07 0.05,0.07l0.02 0.05c0.01,0.02 0.02,0.04 0.04,0.05l0.04 0.02 -0.07 0.02 -0.01 0.02c-0.02,0.01 -0.04,0.02 -0.05,0.02l-0.08 0.01zm0.26 0.18c-0.25,0 -0.45,-0.2 -0.45,-0.45 0,-0.25 0.2,-0.45 0.45,-0.45 0.25,0 0.45,0.2 0.45,0.45 0,0.25 -0.2,0.45 -0.45,0.45z"/>
 </g>
</svg>
