<?xml version="1.0" encoding="UTF-8"?>
<!DOCTYPE svg PUBLIC "-//W3C//DTD SVG 1.1//EN" "http://www.w3.org/Graphics/SVG/1.1/DTD/svg11.dtd">
<!-- Creator: CorelDRAW 2018 (64-Bit) -->
<svg xmlns="http://www.w3.org/2000/svg" xml:space="preserve" width="35px" height="35px" version="1.1" style="shape-rendering:geometricPrecision; text-rendering:geometricPrecision; image-rendering:optimizeQuality; fill-rule:evenodd; clip-rule:evenodd"
viewBox="0 0 1.18 1.18"
 xmlns:xlink="http://www.w3.org/1999/xlink">
 <defs>
  <style type="text/css">
   <![CDATA[
    .fil0 {fill:#FEFEFE;fill-rule:nonzero}
   ]]>
  </style>
 </defs>
 <g id="Layer_x0020_1">
  <metadata id="CorelCorpID_0Corel-Layer"/>
  <path class="fil0" d="M0.06 0.32c0.01,-0.01 0.02,-0.01 0.03,-0.01 0.01,0.01 0.01,0.02 0.01,0.03 -0.03,0.05 -0.05,0.11 -0.06,0.18 -0.01,0.05 -0.01,0.12 0,0.18 0.01,0 0.01,0 0.01,0 0,0.01 0,0.01 0,0.01 0,0.01 0,0.01 0,0.02 0,0 0,0.01 -0.01,0.02 -0.01,0 -0.02,-0.01 -0.02,-0.02 0,0 0,0 -0.01,-0.01 0,0 0,-0.01 0,-0.01 0,0 0,0 0,0 -0.01,-0.07 -0.01,-0.14 0,-0.2 0,-0.07 0.02,-0.13 0.05,-0.19zm0.66 0.29c0.19,0.04 0.22,0.16 0.22,0.22 0,0.08 -0.16,0.15 -0.35,0.15 -0.19,0 -0.35,-0.07 -0.35,-0.15 0,-0.06 0.04,-0.18 0.22,-0.22 0.04,0.03 0.08,0.05 0.13,0.05 0.05,0 0.09,-0.02 0.13,-0.05zm-0.13 -0.4c0.1,0 0.18,0.08 0.18,0.19 0,0.11 -0.08,0.2 -0.18,0.2 -0.1,0 -0.18,-0.09 -0.18,-0.2 0,-0.11 0.08,-0.19 0.18,-0.19zm0.53 0.65c-0.01,0.01 -0.01,0.02 -0.02,0.02 -0.01,0 -0.02,-0.01 -0.02,-0.02 0.01,-0.06 0.01,-0.12 0.01,-0.18 0,-0.06 -0.01,-0.11 -0.02,-0.17l0 0 0 -0.01c-0.02,-0.09 -0.06,-0.17 -0.12,-0.23 -0.05,-0.07 -0.13,-0.11 -0.21,-0.14 -0.01,0 -0.01,-0.01 -0.01,-0.02 0,-0.01 0.01,-0.02 0.02,-0.01 0.09,0.02 0.17,0.08 0.23,0.15 0.06,0.06 0.1,0.14 0.12,0.22l0 0 0 0.02c0.01,0.06 0.02,0.12 0.02,0.19 0.01,0.06 0,0.12 0,0.18zm-0.46 -0.78c0.01,0 0.02,0.01 0.02,0.02 -0.01,0.01 -0.01,0.01 -0.02,0.01 -0.03,0 -0.06,0 -0.08,0 -0.03,0 -0.06,0 -0.08,0.01l0 0c-0.14,0.02 -0.24,0.1 -0.31,0.2 -0.07,0.1 -0.1,0.23 -0.08,0.35l0.01 0.02c0,0.02 0,0.05 -0.01,0.07 0,0.03 -0.02,0.05 -0.03,0.07 -0.01,0.01 -0.02,0.01 -0.03,0 -0.01,-0.01 -0.01,-0.02 0,-0.02 0.01,-0.02 0.02,-0.04 0.03,-0.06 0,-0.01 0.01,-0.03 0,-0.05l0 -0.01c-0.03,-0.14 0.01,-0.28 0.08,-0.39 0.07,-0.11 0.19,-0.19 0.33,-0.22l0 0c0.03,0 0.06,-0.01 0.08,-0.01 0.03,0 0.06,0 0.09,0.01zm0.36 0.92c-0.01,0.01 -0.02,0.02 -0.03,0.01 0,0 -0.01,-0.01 -0.01,-0.02 0.02,-0.05 0.03,-0.11 0.03,-0.17 0.01,-0.05 0.01,-0.11 0.01,-0.17 0,-0.01 0,-0.01 0.01,-0.01 0.01,-0.01 0.02,0 0.02,0.01 0,0.06 0,0.12 0,0.18 -0.01,0.06 -0.02,0.11 -0.03,0.17zm0.02 -0.44c0,0.01 0,0.02 -0.01,0.02 -0.01,0 -0.02,-0.01 -0.02,-0.02 0,0 -0.01,-0.01 -0.01,-0.02 0,-0.01 0,-0.01 0,-0.02l0 -0.01c-0.03,-0.11 -0.09,-0.2 -0.18,-0.26 -0.04,-0.03 -0.09,-0.05 -0.13,-0.06 -0.03,-0.02 -0.06,-0.02 -0.1,-0.02 -0.03,0 -0.06,0 -0.09,0.02 -0.08,0.02 -0.15,0.06 -0.2,0.11 -0.06,0.06 -0.1,0.14 -0.12,0.22 0,0.01 -0.01,0.02 -0.02,0.01 -0.01,0 -0.01,-0.01 -0.01,-0.02 0.02,-0.08 0.06,-0.17 0.12,-0.23 0.06,-0.06 0.14,-0.11 0.23,-0.13 0.12,-0.02 0.24,0 0.34,0.07 0.09,0.06 0.16,0.15 0.19,0.27l0 0 0 0.01c0,0.01 0,0.02 0.01,0.03 0,0.01 0,0.02 0,0.03zm-0.9 0.05c0,-0.01 0.01,-0.02 0.02,-0.02 0.01,0 0.02,0.01 0.02,0.02 0,0.01 0,0.02 0,0.03 0,0.01 0,0.01 0,0.02l0.01 0.01c0,0.05 0,0.09 -0.01,0.13 -0.02,0.04 -0.04,0.07 -0.07,0.1 -0.01,0 -0.02,0 -0.03,0 0,-0.01 0,-0.02 0.01,-0.03 0.02,-0.02 0.04,-0.05 0.06,-0.09 0.01,-0.03 0.01,-0.06 0,-0.09l0 -0.01c0,-0.01 0,-0.02 0,-0.04 0,-0.01 -0.01,-0.02 -0.01,-0.03zm0.01 0.35c-0.01,0 -0.02,0 -0.03,-0.01 0,0 0,-0.01 0.01,-0.02 0.03,-0.03 0.06,-0.06 0.07,-0.1l0 0c0,0.02 0.01,0.04 0.02,0.05 -0.02,0.03 -0.04,0.06 -0.07,0.08zm0.08 -0.23c0,-0.02 0,-0.03 0,-0.05l-0.01 -0.01c-0.01,-0.07 -0.01,-0.14 0.02,-0.21 0.02,-0.06 0.06,-0.12 0.11,-0.16 0.01,-0.01 0.02,-0.01 0.03,0 0,0.01 0,0.02 0,0.03 -0.05,0.04 -0.09,0.09 -0.11,0.15 -0.02,0.05 -0.03,0.11 -0.02,0.17l0.01 0.01c0,0.01 0,0.01 0,0.02 -0.01,0.02 -0.02,0.03 -0.03,0.05zm0.54 -0.47c0.02,0.01 0.04,0.02 0.06,0.04 0.01,0.01 0.01,0.02 0,0.02 0,0.01 -0.01,0.01 -0.02,0.01l-0.01 -0.01c-0.01,-0.02 -0.02,-0.04 -0.03,-0.06zm0.1 0.13c-0.01,-0.01 -0.01,-0.02 0,-0.02 0.01,-0.01 0.02,-0.01 0.03,0 0.01,0.02 0.03,0.05 0.04,0.07 0.01,0.02 0.01,0.05 0.02,0.07l0 0 0 0.01c0.02,0.09 0.03,0.19 0.02,0.28l0 0c-0.01,-0.02 -0.01,-0.06 -0.03,-0.09 0,-0.06 -0.01,-0.12 -0.02,-0.18l0 -0.01c-0.01,-0.02 -0.02,-0.04 -0.03,-0.07 -0.01,-0.02 -0.02,-0.04 -0.03,-0.06zm0.1 0.49c-0.01,0.07 -0.03,0.14 -0.06,0.2 0,0.01 -0.01,0.02 -0.02,0.01 -0.01,0 -0.01,-0.01 -0.01,-0.02 0.02,-0.04 0.03,-0.09 0.04,-0.14 0.02,-0.02 0.04,-0.04 0.05,-0.05zm-0.16 0.26c0,0 -0.01,0.01 -0.02,0 -0.01,0 -0.01,-0.01 -0.01,-0.02 0.02,-0.03 0.03,-0.05 0.04,-0.08 0,-0.02 0.01,-0.04 0.02,-0.06l0.01 -0.01c0.01,0 0.02,-0.01 0.03,-0.01 0,0 0,0 0,0 -0.01,0.03 -0.02,0.06 -0.03,0.09 -0.01,0.03 -0.02,0.06 -0.04,0.09zm0.06 -0.51c0,-0.03 -0.01,-0.06 -0.01,-0.09l0 -0.01c-0.01,-0.03 -0.03,-0.07 -0.05,-0.1 0,-0.01 0,-0.02 0,-0.03 0,-0.01 0,-0.01 0,-0.02 0.04,0.04 0.07,0.09 0.08,0.15l0 0.01 0 0c0.01,0.04 0.01,0.08 0.02,0.12 -0.01,-0.01 -0.03,-0.02 -0.04,-0.03zm-0.5 -0.2l0 0.01c-0.04,0.05 -0.05,0.12 -0.05,0.18 -0.01,0.01 -0.02,0.02 -0.03,0.03 -0.01,-0.08 0.01,-0.16 0.05,-0.23 0.01,-0.01 0.02,-0.03 0.03,-0.04 0,0.01 0,0.01 0,0.02 0,0.01 0,0.02 0,0.03zm-0.1 0.5l-0.01 0.01c-0.02,0.03 -0.04,0.05 -0.06,0.07 -0.01,0.01 -0.02,0.01 -0.03,0 0,-0.01 0,-0.02 0,-0.03 0.03,-0.01 0.05,-0.04 0.06,-0.06l0.01 -0.01c0.01,0.01 0.02,0.02 0.03,0.02zm0.45 0.23c-0.01,0.01 -0.02,0.01 -0.03,0.01 -0.01,0 -0.01,-0.02 0,-0.02 0.02,-0.05 0.05,-0.1 0.06,-0.15 0.02,0 0.03,-0.01 0.04,-0.01 -0.02,0.06 -0.04,0.12 -0.07,0.17zm0.07 -0.57c0,-0.01 0,-0.02 0,-0.04l-0.01 0c0,-0.01 0,-0.02 0,-0.02 0.01,-0.02 0.01,-0.03 0.02,-0.05 0.01,0.02 0.02,0.04 0.02,0.07l0 0.01 0 0c0.01,0.02 0.01,0.03 0.01,0.05 -0.01,-0.01 -0.02,-0.01 -0.04,-0.02zm-0.39 -0.06c0,0.02 -0.01,0.04 -0.01,0.06 -0.01,0 -0.02,0.01 -0.03,0.01 0,-0.04 0.01,-0.08 0.02,-0.12 0.01,0.02 0.02,0.03 0.02,0.05zm-0.07 0.44c-0.02,0.03 -0.05,0.06 -0.08,0.09 -0.01,0 -0.02,0 -0.02,0 -0.01,-0.01 -0.01,-0.02 0,-0.03 0.03,-0.02 0.05,-0.05 0.07,-0.08 0.01,0.01 0.02,0.01 0.03,0.02zm0.29 0.21c0,0 -0.01,0.01 -0.02,0 -0.01,-0.01 -0.01,-0.02 0,-0.02 0.03,-0.05 0.05,-0.1 0.07,-0.15 0.02,0 0.03,0 0.04,0 -0.02,0.06 -0.05,0.11 -0.09,0.17zm-0.22 -0.19c-0.02,0.04 -0.05,0.08 -0.09,0.11 0,0.01 -0.01,0.01 -0.02,0 -0.01,-0.01 -0.01,-0.02 0,-0.03 0.03,-0.02 0.05,-0.05 0.08,-0.09 0.01,0.01 0.02,0.01 0.03,0.01zm0.14 0.18c-0.01,0.01 -0.02,0.01 -0.03,0.01 0,-0.01 -0.01,-0.02 0,-0.03 0.03,-0.04 0.06,-0.09 0.08,-0.13 0.02,0 0.03,0 0.04,0 -0.02,0.05 -0.06,0.1 -0.09,0.15zm-0.07 -0.16c0,0.01 -0.01,0.02 -0.01,0.03 -0.03,0.03 -0.05,0.06 -0.08,0.09 -0.01,0.01 -0.02,0.01 -0.02,0 -0.01,0 -0.01,-0.01 0,-0.02 0.02,-0.03 0.05,-0.06 0.07,-0.09 0,0 0,-0.01 0.01,-0.02 0.01,0 0.02,0.01 0.03,0.01zm-0.01 0.15c-0.01,0 -0.02,0.01 -0.03,0 -0.01,-0.01 -0.01,-0.02 0,-0.02 0.03,-0.04 0.06,-0.08 0.08,-0.13 0.02,0 0.03,0.01 0.04,0.01 -0.02,0.05 -0.06,0.09 -0.09,0.14zm0.39 -1.1c0.01,0 0.01,0.01 0.01,0.02 0,0.01 -0.01,0.02 -0.02,0.01 -0.06,-0.03 -0.12,-0.04 -0.18,-0.05 -0.06,-0.01 -0.12,-0.01 -0.18,0.01 -0.07,0.01 -0.13,0.04 -0.19,0.07 -0.06,0.04 -0.11,0.09 -0.15,0.14 0,0.01 -0.01,0.01 -0.02,0.01 -0.01,-0.01 -0.01,-0.02 -0.01,-0.03 0.05,-0.06 0.1,-0.11 0.16,-0.15 0.06,-0.04 0.13,-0.06 0.2,-0.08 0.07,-0.01 0.13,-0.01 0.2,-0.01 0.06,0.01 0.12,0.03 0.18,0.06zm0.29 0.42c0,0 0,0 0,0 -0.02,-0.07 -0.04,-0.14 -0.08,-0.19 -0.04,-0.06 -0.09,-0.11 -0.15,-0.15 -0.01,-0.01 -0.01,-0.02 0,-0.03 0,-0.01 0.01,-0.01 0.02,0 0.06,0.04 0.12,0.09 0.16,0.16 0.04,0.06 0.07,0.13 0.08,0.2 0,0 0,0 0,0 0.01,0.03 0.01,0.05 0.01,0.07 0,0.02 0,0.04 0,0.06 0,0.01 0,0.02 -0.01,0.02 -0.01,0 -0.02,-0.01 -0.02,-0.02 0,-0.02 0,-0.04 0,-0.06 0,-0.02 -0.01,-0.04 -0.01,-0.06z"/>
 </g>
</svg>
