<?xml version="1.0" encoding="UTF-8"?>
<!DOCTYPE svg PUBLIC "-//W3C//DTD SVG 1.1//EN" "http://www.w3.org/Graphics/SVG/1.1/DTD/svg11.dtd">
<!-- Creator: CorelDRAW 2018 (64-Bit) -->
<svg xmlns="http://www.w3.org/2000/svg" xml:space="preserve" width="35px" height="33px" version="1.1" style="shape-rendering:geometricPrecision; text-rendering:geometricPrecision; image-rendering:optimizeQuality; fill-rule:evenodd; clip-rule:evenodd"
viewBox="0 0 1.2 1.15"
 xmlns:xlink="http://www.w3.org/1999/xlink">
 <defs>
  <style type="text/css">
   <![CDATA[
    .fil0 {fill:#EEEEEF}
   ]]>
  </style>
 </defs>
 <g id="Layer_x0020_1">
  <metadata id="CorelCorpID_0Corel-Layer"/>
  <path class="fil0" d="M0.57 0.97l-0.28 0.17c-0.02,0.02 -0.06,0.01 -0.07,-0.02 -0.01,-0.01 -0.01,-0.02 -0.01,-0.04l0.07 -0.32c0.01,-0.02 0,-0.04 -0.01,-0.05l-0.25 -0.22c-0.02,-0.02 -0.03,-0.05 -0.01,-0.07 0.01,-0.01 0.03,-0.02 0.04,-0.02l0.33 -0.03c0.02,0 0.03,-0.02 0.04,-0.04l0.13 -0.3c0.01,-0.02 0.05,-0.04 0.07,-0.03 0.02,0.01 0.03,0.02 0.03,0.03l0.13 0.3c0.01,0.02 0.03,0.04 0.05,0.04l0.32 0.03c0.03,0 0.06,0.03 0.05,0.06 0,0.01 0,0.02 -0.02,0.03l-0.24 0.22c-0.02,0.01 -0.02,0.03 -0.02,0.05l0.07 0.32c0.01,0.03 -0.01,0.06 -0.04,0.07 -0.01,0 -0.03,0 -0.04,-0.01l-0.28 -0.17c-0.02,-0.01 -0.04,-0.01 -0.06,0l0 0z"/>
 </g>
</svg>
