<?xml version="1.0" encoding="UTF-8"?>
<!DOCTYPE svg PUBLIC "-//W3C//DTD SVG 1.1//EN" "http://www.w3.org/Graphics/SVG/1.1/DTD/svg11.dtd">
<!-- Creator: CorelDRAW 2018 (64-Bit) -->
<svg xmlns="http://www.w3.org/2000/svg" xml:space="preserve" width="35px" height="34px" version="1.1" style="shape-rendering:geometricPrecision; text-rendering:geometricPrecision; image-rendering:optimizeQuality; fill-rule:evenodd; clip-rule:evenodd"
viewBox="0 0 1.3 1.26"
 xmlns:xlink="http://www.w3.org/1999/xlink">
 <defs>
  <style type="text/css">
   <![CDATA[
    .fil0 {fill:#EEEEEF}
   ]]>
  </style>
 </defs>
 <g id="Layer_x0020_1">
  <metadata id="CorelCorpID_0Corel-Layer"/>
  <path class="fil0" d="M0.21 1.21l0 0c-0.02,0 -0.04,-0.02 -0.04,-0.04 0,-0.02 0.02,-0.04 0.04,-0.04 0.03,0 0.05,0.02 0.05,0.04 0,0.02 -0.02,0.04 -0.05,0.04zm0.52 -0.67l0 0c0,-0.02 0.01,-0.04 0.03,-0.04 0.02,0 0.04,0.02 0.04,0.04 0,0.02 -0.02,0.03 -0.04,0.03 -0.02,0 -0.03,-0.01 -0.03,-0.03zm0.1 -0.01c0,-0.01 0,-0.02 -0.01,-0.03l0.05 -0.33c0,-0.01 0,-0.02 -0.02,-0.02l0 0c-0.01,-0.01 -0.02,0 -0.02,0.01l-0.1 0.32c-0.02,0.01 -0.04,0.03 -0.04,0.06 0,0.04 0.03,0.07 0.07,0.07 0.01,0 0.02,0 0.02,0l0.2 0.1c0.01,0.01 0.03,0 0.03,-0.01l0 0c0.01,-0.01 0.01,-0.02 0,-0.03l-0.18 -0.14zm0.47 0.01l0 0c0,0.24 -0.15,0.44 -0.37,0.51l0 -0.07c0.18,-0.07 0.3,-0.24 0.3,-0.44 0,-0.26 -0.21,-0.47 -0.47,-0.47 -0.25,0 -0.46,0.21 -0.46,0.47 0,0.03 0,0.05 0,0.08l-0.07 0c0,-0.03 -0.01,-0.05 -0.01,-0.08 0,-0.3 0.25,-0.54 0.54,-0.54 0.3,0 0.54,0.24 0.54,0.54zm-0.51 0.39l0 0 -0.17 0c0,0 0,0 0,-0.01l0 -0.12c0,-0.01 0,-0.01 0,-0.01l0.04 0c0,0 0,0 0,0l0.13 0.13c0,0 0,0.01 0,0.01zm0.07 -0.01l0 0 -0.17 -0.16c-0.01,-0.01 -0.02,-0.02 -0.04,-0.02l-0.08 0 0 -0.03c0,-0.02 -0.02,-0.04 -0.04,-0.04l-0.49 0c-0.02,0 -0.04,0.02 -0.04,0.04l0 0.28 0.87 0 0 -0.03c0,-0.01 0,-0.03 -0.01,-0.04zm0.01 0.1l0 0 0 0.09c0,0.03 -0.01,0.04 -0.04,0.04l-0.04 0c-0.01,-0.05 -0.06,-0.1 -0.12,-0.1 -0.06,0 -0.1,0.05 -0.11,0.1l-0.23 0c-0.01,-0.05 -0.06,-0.1 -0.12,-0.1 -0.05,0 -0.1,0.05 -0.11,0.1l-0.06 0c-0.02,0 -0.04,-0.01 -0.04,-0.04l0 -0.09 0.87 0zm-0.2 0.19l0 0c-0.02,0 -0.04,-0.02 -0.04,-0.04 0,-0.02 0.02,-0.04 0.04,-0.04 0.03,0 0.05,0.02 0.05,0.04 0,0.02 -0.02,0.04 -0.05,0.04zm0 -0.13l0 0c-0.05,0 -0.09,0.04 -0.09,0.09 0,0.05 0.04,0.09 0.09,0.09 0.05,0 0.09,-0.04 0.09,-0.09 0,-0.05 -0.04,-0.09 -0.09,-0.09zm-0.46 0l0 0c-0.04,0 -0.08,0.04 -0.08,0.09 0,0.05 0.04,0.09 0.08,0.09 0.05,0 0.09,-0.04 0.09,-0.09 0,-0.05 -0.04,-0.09 -0.09,-0.09z"/>
 </g>
</svg>
