<?xml version="1.0" encoding="UTF-8"?>
<!DOCTYPE svg PUBLIC "-//W3C//DTD SVG 1.1//EN" "http://www.w3.org/Graphics/SVG/1.1/DTD/svg11.dtd">
<!-- Creator: CorelDRAW 2018 (64-Bit) -->
<svg xmlns="http://www.w3.org/2000/svg" xml:space="preserve" width="35px" height="27px" version="1.1" style="shape-rendering:geometricPrecision; text-rendering:geometricPrecision; image-rendering:optimizeQuality; fill-rule:evenodd; clip-rule:evenodd"
viewBox="0 0 1.56 1.21"
 xmlns:xlink="http://www.w3.org/1999/xlink">
 <defs>
  <style type="text/css">
   <![CDATA[
    .fil0 {fill:#088378}
   ]]>
  </style>
 </defs>
 <g id="Layer_x0020_1">
  <metadata id="CorelCorpID_0Corel-Layer"/>
  <path class="fil0" d="M1.56 1.08c0,0.07 -0.05,0.13 -0.13,0.13l-1.3 0c-0.07,0 -0.13,-0.06 -0.13,-0.13l0 -0.75c0,-0.08 0.06,-0.13 0.13,-0.13l0.12 0 0.17 -0.17c0.02,-0.02 0.04,-0.03 0.07,-0.03l0.23 0c0.02,0 0.05,0.01 0.07,0.03l0.16 0.17 0.13 0 0 -0.08c0,-0.03 0.02,-0.05 0.05,-0.05l0.21 0c0.04,0 0.06,0.02 0.06,0.05l0 0.08 0.03 0c0.08,0 0.13,0.05 0.13,0.13l0 0.75 0 0zm-0.48 -0.7l0.27 0c0.03,0 0.06,0.03 0.06,0.06l0 0c0,0.03 -0.03,0.06 -0.06,0.06l-0.27 0c-0.03,0 -0.06,-0.03 -0.06,-0.06l0 0c0,-0.03 0.03,-0.06 0.06,-0.06zm-0.33 0.31c0.21,0.04 0.25,0.18 0.25,0.25 0,0.09 -0.18,0.17 -0.4,0.17 -0.22,0 -0.4,-0.08 -0.4,-0.17 0,-0.07 0.04,-0.21 0.25,-0.25 0.05,0.03 0.1,0.05 0.15,0.05 0.06,0 0.11,-0.02 0.15,-0.05zm-0.15 -0.47c0.12,0 0.21,0.1 0.21,0.23 0,0.12 -0.09,0.22 -0.21,0.22 -0.11,0 -0.2,-0.1 -0.2,-0.22 0,-0.13 0.09,-0.23 0.2,-0.23z"/>
 </g>
</svg>
