<?xml version="1.0" encoding="UTF-8"?>
<!DOCTYPE svg PUBLIC "-//W3C//DTD SVG 1.1//EN" "http://www.w3.org/Graphics/SVG/1.1/DTD/svg11.dtd">
<!-- Creator: CorelDRAW 2018 (64-Bit) -->
<svg xmlns="http://www.w3.org/2000/svg" xml:space="preserve" width="35px" height="35px" version="1.1" style="shape-rendering:geometricPrecision; text-rendering:geometricPrecision; image-rendering:optimizeQuality; fill-rule:evenodd; clip-rule:evenodd"
viewBox="0 0 1.04 1.04"
 xmlns:xlink="http://www.w3.org/1999/xlink">
 <defs>
  <style type="text/css">
   <![CDATA[
    .fil0 {fill:#757475}
   ]]>
  </style>
 </defs>
 <g id="Layer_x0020_1">
  <metadata id="CorelCorpID_0Corel-Layer"/>
  <path class="fil0" d="M0.52 0c0.28,0 0.52,0.23 0.52,0.52 0,0.28 -0.24,0.52 -0.52,0.52 -0.29,0 -0.52,-0.24 -0.52,-0.52 0,-0.29 0.23,-0.52 0.52,-0.52zm-0.27 0.84c-0.08,-0.1 -0.05,-0.28 -0.05,-0.28 0,0 0,0 0,0 0.01,-0.01 0.01,0 0.02,0 0.02,0.03 0.05,0.05 0.09,0.07 0.04,0.01 0.08,0.03 0.11,0.07 0.06,0.08 0.06,0.22 0.06,0.22 0,0 0,0.01 -0.01,0.01 0,0 -0.13,0 -0.22,-0.09zm0.38 -0.65c0.03,0 0.06,0.03 0.06,0.06 0,0.03 -0.03,0.06 -0.06,0.06 -0.03,0 -0.06,-0.03 -0.06,-0.06 0,-0.03 0.03,-0.06 0.06,-0.06zm-0.12 0.73c0,0 -0.02,-0.19 0.01,-0.29 0.03,-0.09 0.11,-0.16 0.16,-0.19l0.01 -0.02c0.05,-0.03 0.11,-0.12 0.11,-0.12 0.01,-0.01 0.01,-0.01 0.02,0 0,0 0,0 0,0 0,0.01 0.06,0.16 0.06,0.29 0,0.06 -0.01,0.14 -0.06,0.21 -0.05,0.06 -0.14,0.11 -0.3,0.13 0,0 -0.01,0 -0.01,-0.01zm0.02 -0.5c-0.02,0.06 -0.11,0.19 -0.11,0.2 0,0 -0.01,0 -0.01,0 -0.05,-0.03 -0.08,-0.06 -0.1,-0.11 -0.01,-0.04 -0.01,-0.09 0,-0.15 0.02,-0.1 0.12,-0.17 0.12,-0.17 0,0 0.01,0 0.01,0 0,0 0.02,0.03 0.04,0.06l0.01 0.01c0.02,0.03 0.05,0.09 0.04,0.16z"/>
 </g>
</svg>
