<?xml version="1.0" encoding="UTF-8"?>
<!DOCTYPE svg PUBLIC "-//W3C//DTD SVG 1.1//EN" "http://www.w3.org/Graphics/SVG/1.1/DTD/svg11.dtd">
<!-- Creator: CorelDRAW 2018 (64-Bit) -->
<svg xmlns="http://www.w3.org/2000/svg" xml:space="preserve" width="35px" height="31px" version="1.1" style="shape-rendering:geometricPrecision; text-rendering:geometricPrecision; image-rendering:optimizeQuality; fill-rule:evenodd; clip-rule:evenodd"
viewBox="0 0 1.18 1.05"
 xmlns:xlink="http://www.w3.org/1999/xlink">
 <defs>
  <style type="text/css">
   <![CDATA[
    .fil0 {fill:#FEFEFE}
   ]]>
  </style>
 </defs>
 <g id="Layer_x0020_1">
  <metadata id="CorelCorpID_0Corel-Layer"/>
  <path class="fil0" d="M0.06 0l0.88 0c0.03,0 0.06,0.03 0.06,0.06l0 0.04 0 0.18 0 0.02c0,0.02 -0.02,0.04 -0.04,0.04l0 0c-0.03,0 -0.04,-0.02 -0.04,-0.04l0 -0.02 -0.83 0 0 0.54 0.14 0 0.14 0 0.06 0c0.03,0 0.05,0.02 0.05,0.05l0 0c0,0.02 -0.02,0.04 -0.05,0.04l-0.06 0 -0.14 0 -0.17 0c-0.03,0 -0.06,-0.03 -0.06,-0.06l0 -0.79c0,-0.03 0.03,-0.06 0.06,-0.06zm0.81 0.42c0.17,0 0.31,0.14 0.31,0.31 0,0.18 -0.14,0.32 -0.31,0.32 -0.18,0 -0.32,-0.14 -0.32,-0.32 0,-0.17 0.14,-0.31 0.32,-0.31zm-0.16 0.26c-0.02,-0.01 -0.02,-0.03 0,-0.05 0.01,-0.01 0.03,-0.01 0.04,0l0.12 0.1 0.16 -0.12c0.01,-0.01 0.03,-0.01 0.04,0.01 0.01,0.01 0.01,0.03 0,0.04l-0.18 0.14c-0.02,0.01 -0.03,0.01 -0.05,0l-0.13 -0.12zm-0.51 -0.08l0.14 0 0 0.13 -0.14 0 0 -0.13zm0.24 -0.23l0.13 0 0 0.13 -0.13 0 0 -0.13zm-0.24 0l0.14 0 0 0.13 -0.14 0 0 -0.13zm0.07 -0.29c0.04,0 0.06,0.03 0.06,0.06 0,0.03 -0.02,0.06 -0.06,0.06 -0.03,0 -0.06,-0.03 -0.06,-0.06 0,-0.03 0.03,-0.06 0.06,-0.06zm0.46 0c0.03,0 0.06,0.03 0.06,0.06 0,0.03 -0.03,0.06 -0.06,0.06 -0.03,0 -0.06,-0.03 -0.06,-0.06 0,-0.03 0.03,-0.06 0.06,-0.06z"/>
 </g>
</svg>
