<?xml version="1.0" encoding="UTF-8"?>
<!DOCTYPE svg PUBLIC "-//W3C//DTD SVG 1.1//EN" "http://www.w3.org/Graphics/SVG/1.1/DTD/svg11.dtd">
<!-- Creator: CorelDRAW 2018 (64-Bit) -->
<svg xmlns="http://www.w3.org/2000/svg" xml:space="preserve" width="35px" height="35px" version="1.1" style="shape-rendering:geometricPrecision; text-rendering:geometricPrecision; image-rendering:optimizeQuality; fill-rule:evenodd; clip-rule:evenodd"
viewBox="0 0 1.3 1.3"
 xmlns:xlink="http://www.w3.org/1999/xlink">
 <defs>
  <style type="text/css">
   <![CDATA[
    .fil0 {fill:#EEEEEF}
   ]]>
  </style>
 </defs>
 <g id="Layer_x0020_1">
  <metadata id="CorelCorpID_0Corel-Layer"/>
  <path class="fil0" d="M0.65 0c0.36,0 0.65,0.29 0.65,0.65 0,0.36 -0.29,0.65 -0.65,0.65 -0.36,0 -0.65,-0.29 -0.65,-0.65 0,-0.36 0.29,-0.65 0.65,-0.65zm0.05 0.91c0,0 0.02,0.04 0.04,0.05 0.02,0 0.05,-0.02 0.04,-0.04 0,-0.01 -0.03,-0.05 -0.04,-0.05 -0.02,-0.01 -0.05,0.01 -0.04,0.04zm-0.04 -0.03c-0.01,0 -0.01,0.01 -0.02,0.02 -0.02,0.02 -0.01,0.05 0.01,0.06 0.02,0.01 0.04,-0.01 0.05,-0.01 -0.01,-0.02 -0.03,-0.05 -0.01,-0.07 0,-0.02 0.02,-0.03 0.05,-0.03 0,-0.01 0,-0.02 0.01,-0.03 0.03,-0.05 0.06,-0.03 0.08,-0.02 0.01,-0.04 0.05,-0.05 0.09,-0.04 -0.01,-0.03 0.01,-0.05 0.04,-0.06 0.03,-0.01 0.05,0.02 0.07,0.03 0.01,-0.01 0.02,-0.02 0.03,-0.03l-0.07 -0.11c-0.02,-0.03 -0.06,-0.1 -0.07,-0.13 -0.03,0.01 -0.04,0.03 -0.09,0.03 0.01,0.02 0.03,0.04 0.02,0.06 -0.01,0.03 -0.06,0.05 -0.1,0.03 -0.02,-0.01 -0.05,-0.06 -0.05,-0.08 -0.02,-0.01 -0.05,-0.01 -0.07,0l-0.08 0.05c-0.01,0 -0.01,0 -0.02,0.01 0,0.01 0,0.01 -0.01,0.02l-0.03 0.03c-0.01,0.01 -0.01,0.01 -0.01,0.02l-0.11 0.12c-0.04,0.04 0,0.07 0.02,0.07 0.02,0.01 0.03,-0.01 0.04,-0.02l0.09 -0.1c0.01,-0.01 0.02,-0.03 0.03,-0.02 0,0 0.01,0 -0.01,0.02l-0.05 0.06c-0.01,0.02 -0.02,0.03 -0.03,0.04 -0.01,0.01 -0.02,0.01 -0.02,0.02 -0.01,0.03 0.02,0.06 0.06,0.05 0.01,0 0.01,0 0.02,-0.01l0.05 -0.06c0.01,-0.01 0.01,-0.01 0.02,-0.02 0,-0.01 0.01,-0.01 0.02,-0.01 0,0.02 -0.01,0.02 -0.03,0.04 0,0.01 -0.01,0.01 -0.01,0.02 -0.03,0.03 -0.07,0.06 -0.03,0.09 0.04,0.03 0.06,-0.01 0.08,-0.03 0,0 0,0 0.01,-0.01l0.03 -0.04c0.01,-0.01 0.04,-0.01 0,0.04zm-0.26 -0.19c0.01,-0.01 0.01,-0.01 0.01,-0.01l0.02 -0.02c0,-0.01 0,-0.01 0.01,-0.02l0.07 -0.08c0.02,-0.02 0.04,-0.03 0.07,-0.05 0.01,-0.01 0.04,-0.02 0.05,-0.03 0.01,0 0.06,0 0.07,0 0.02,0.02 0.04,0.07 0.05,0.08 0.02,0.01 0.07,0.02 0.08,-0.01 0.01,-0.02 -0.02,-0.07 -0.03,-0.08 0,-0.01 -0.03,-0.07 -0.04,-0.07 -0.01,-0.01 -0.09,-0.01 -0.11,-0.01 -0.05,0 -0.06,0.01 -0.09,0.03 -0.05,0.03 -0.1,0.07 -0.16,0.06 -0.01,0.02 -0.02,0.04 -0.03,0.06 -0.02,0.04 -0.04,0.08 -0.06,0.12 -0.01,0.01 -0.03,0.03 -0.03,0.05 0,0 0.06,0.04 0.07,0.04l0.05 -0.06zm-0.18 0.05c0.06,-0.05 0.15,-0.22 0.17,-0.29 -0.02,-0.01 -0.14,-0.08 -0.16,-0.1 -0.01,0.02 -0.03,0.07 -0.04,0.09 -0.02,0.02 -0.03,0.05 -0.04,0.08 -0.03,0.05 -0.06,0.11 -0.08,0.16l0.15 0.06zm0.71 -0.3c0.03,0.06 0.06,0.13 0.1,0.18l0.07 0.09c0.01,0 0.13,-0.05 0.14,-0.05 -0.01,-0.03 -0.03,-0.06 -0.04,-0.08l-0.08 -0.16c-0.01,-0.02 -0.03,-0.07 -0.04,-0.08 -0.01,0.01 -0.15,0.09 -0.15,0.1zm-0.17 0.41c0,0.01 0.02,0.02 0.02,0.03 0.01,0.01 0.02,0.03 0.03,0.04 0.02,0.02 0.07,-0.01 0.06,-0.04 0,-0.02 -0.01,-0.02 -0.02,-0.03 -0.01,-0.02 -0.02,-0.02 -0.03,-0.03 -0.01,-0.02 -0.03,-0.02 -0.04,-0.01 -0.01,0 -0.03,0.02 -0.02,0.04zm0.09 -0.04c0,0.02 0.01,0.03 0.02,0.03 0.01,0.01 0.02,0.03 0.03,0.03 0.02,0.02 0.05,-0.01 0.05,-0.03 0.01,-0.03 -0.03,-0.05 -0.04,-0.06 -0.03,-0.02 -0.06,0 -0.06,0.03zm0.08 -0.05c0,0.01 0.03,0.04 0.04,0.04 0.03,0.01 0.07,-0.03 0.04,-0.06 -0.06,-0.05 -0.08,-0.01 -0.08,0.02z"/>
 </g>
</svg>
