<?xml version="1.0" encoding="UTF-8"?>
<!DOCTYPE svg PUBLIC "-//W3C//DTD SVG 1.1//EN" "http://www.w3.org/Graphics/SVG/1.1/DTD/svg11.dtd">
<!-- Creator: CorelDRAW 2018 (64-Bit) -->
<svg xmlns="http://www.w3.org/2000/svg" xml:space="preserve" width="35px" height="34px" version="1.1" style="shape-rendering:geometricPrecision; text-rendering:geometricPrecision; image-rendering:optimizeQuality; fill-rule:evenodd; clip-rule:evenodd"
viewBox="0 0 1.18 1.14"
 xmlns:xlink="http://www.w3.org/1999/xlink">
 <defs>
  <style type="text/css">
   <![CDATA[
    .fil0 {fill:#FEFEFE}
   ]]>
  </style>
 </defs>
 <g id="Layer_x0020_1">
  <metadata id="CorelCorpID_0Corel-Layer"/>
  <path class="fil0" d="M0.51 0c0.15,0 0.27,0.13 0.27,0.29 0,0.16 -0.12,0.29 -0.27,0.29 -0.14,0 -0.26,-0.13 -0.26,-0.29 0,-0.16 0.12,-0.29 0.26,-0.29zm0.36 0.8l-0.06 0.06 0.05 0.05c0.02,0.02 0.02,0.06 0,0.08 -0.02,0.02 -0.05,0.02 -0.08,0l-0.05 -0.05 -0.05 0.05 0.05 0.05c0.03,0.02 0.03,0.05 0,0.07 -0.02,0.03 -0.05,0.03 -0.07,0l-0.09 -0.09 0 0c-0.02,-0.02 -0.02,-0.05 0,-0.07l0.12 -0.13c0,0 0,0 0,0 0.01,0 0.01,0 0.01,0l0.1 -0.1c-0.02,-0.03 -0.03,-0.07 -0.03,-0.1 0,-0.06 0.02,-0.11 0.06,-0.15 0.04,-0.04 0.09,-0.06 0.15,-0.06 0.05,0 0.11,0.02 0.14,0.06 0.04,0.04 0.06,0.09 0.06,0.15 0,0.05 -0.02,0.11 -0.06,0.14 -0.03,0.04 -0.09,0.06 -0.14,0.06 -0.04,0 -0.08,-0.01 -0.11,-0.02zm0.18 -0.25c-0.02,-0.02 -0.05,-0.03 -0.07,-0.03 -0.03,0 -0.06,0.01 -0.07,0.03 -0.02,0.02 -0.03,0.04 -0.03,0.07 0,0.02 0.01,0.05 0.03,0.07 0.01,0.01 0.04,0.03 0.07,0.03 0.02,0 0.05,-0.02 0.07,-0.03 0.01,-0.02 0.02,-0.05 0.02,-0.07 0,-0.03 -0.01,-0.05 -0.02,-0.07zm-0.46 0.59c-0.03,0 -0.05,0 -0.08,0 -0.28,0 -0.51,-0.1 -0.51,-0.21 0,-0.09 0.05,-0.27 0.32,-0.33 0.06,0.04 0.12,0.07 0.19,0.07 0.07,0 0.14,-0.03 0.19,-0.06l0 0.01c0,0.02 0,0.04 0.01,0.07l0.01 0.01 -0.2 0.2c-0.02,0.02 -0.04,0.06 -0.04,0.09 0,0.03 0.02,0.05 0.04,0.08l0.07 0.07z"/>
 </g>
</svg>
