<?xml version="1.0" encoding="UTF-8"?>
<!DOCTYPE svg PUBLIC "-//W3C//DTD SVG 1.1//EN" "http://www.w3.org/Graphics/SVG/1.1/DTD/svg11.dtd">
<!-- Creator: CorelDRAW 2018 (64-Bit) -->
<svg xmlns="http://www.w3.org/2000/svg" xml:space="preserve" width="35px" height="35px" version="1.1" style="shape-rendering:geometricPrecision; text-rendering:geometricPrecision; image-rendering:optimizeQuality; fill-rule:evenodd; clip-rule:evenodd"
viewBox="0 0 1.75 1.75"
 xmlns:xlink="http://www.w3.org/1999/xlink">
 <defs>
  <style type="text/css">
   <![CDATA[
    .fil0 {fill:#FDD100}
   ]]>
  </style>
 </defs>
 <g id="Layer_x0020_1">
  <metadata id="CorelCorpID_0Corel-Layer"/>
  <path class="fil0" d="M0.88 0c0.48,0 0.87,0.39 0.87,0.88 0,0.48 -0.39,0.87 -0.87,0.87 -0.49,0 -0.88,-0.39 -0.88,-0.87 0,-0.49 0.39,-0.88 0.88,-0.88zm-0.31 0.82c0,0.12 0.02,0.18 0.1,0.26 0.02,0.02 0.03,0.05 0.04,0.07 0.07,0.14 -0.03,0.35 0.1,0.35 0.21,0 0.2,0.01 0.2,-0.15 0,-0.05 -0.08,-0.06 -0.12,-0.09 0.24,0 0.05,0 0.18,-0.17 0.02,-0.01 0.03,-0.02 0.05,-0.04 0.07,-0.1 0.09,-0.23 0.04,-0.34 -0.05,-0.09 -0.15,-0.18 -0.25,-0.18 -0.11,0 -0.17,0.01 -0.26,0.1 -0.04,0.04 -0.08,0.11 -0.08,0.19zm-0.16 0.06c0.03,0 0.09,0.01 0.09,-0.04 0,-0.04 -0.05,-0.03 -0.11,-0.03 -0.03,0 -0.05,0.07 0.02,0.07zm0.84 -0.04c0,0.05 0.06,0.04 0.1,0.04 0.07,0 0.05,-0.07 0.02,-0.07 -0.05,0 -0.12,-0.01 -0.12,0.03zm-0.73 -0.4c-0.03,0 -0.04,0.01 -0.04,0.03 -0.01,0.03 0.09,0.12 0.1,0.12 0.02,0 0.07,-0.03 0.02,-0.08 -0.02,-0.02 -0.06,-0.07 -0.08,-0.07zm0.72 0c-0.02,0 -0.11,0.08 -0.11,0.11 0,0.02 0.02,0.04 0.04,0.04 0.02,0 0.11,-0.09 0.11,-0.11 0,-0.02 -0.02,-0.04 -0.04,-0.04zm-0.4 -0.15c0,0.08 -0.01,0.18 0.04,0.18 0.05,0 0.03,-0.1 0.03,-0.18 0,-0.05 -0.07,-0.05 -0.07,0z"/>
 </g>
</svg>
