<?xml version="1.0" encoding="UTF-8"?>
<!DOCTYPE svg PUBLIC "-//W3C//DTD SVG 1.1//EN" "http://www.w3.org/Graphics/SVG/1.1/DTD/svg11.dtd">
<!-- Creator: CorelDRAW 2018 (64-Bit) -->
<svg xmlns="http://www.w3.org/2000/svg" xml:space="preserve" width="35px" height="35px" version="1.1" style="shape-rendering:geometricPrecision; text-rendering:geometricPrecision; image-rendering:optimizeQuality; fill-rule:evenodd; clip-rule:evenodd"
viewBox="0 0 1.2 1.2"
 xmlns:xlink="http://www.w3.org/1999/xlink">
 <defs>
  <style type="text/css">
   <![CDATA[
    .fil0 {fill:#EEEEEF}
   ]]>
  </style>
 </defs>
 <g id="Layer_x0020_1">
  <metadata id="CorelCorpID_0Corel-Layer"/>
  <path class="fil0" d="M0.6 0c0.33,0 0.6,0.27 0.6,0.6 0,0.33 -0.27,0.6 -0.6,0.6 -0.33,0 -0.6,-0.27 -0.6,-0.6 0,-0.33 0.27,-0.6 0.6,-0.6zm0 0.53l-0.21 -0.21c-0.01,-0.01 -0.02,-0.02 -0.03,-0.02 0,0 -0.01,0 -0.02,0 0,0 -0.01,0.01 -0.02,0.02l0 0c-0.01,0.01 -0.02,0.02 -0.02,0.02 0,0.01 0,0.02 0,0.02 0,0.01 0.01,0.02 0.02,0.03l0.21 0.21 -0.21 0.22c-0.01,0.01 -0.02,0.01 -0.02,0.02 0,0.01 0,0.01 0,0.02 0,0.01 0.01,0.01 0.02,0.02l0 0.01c0.01,0.01 0.02,0.01 0.02,0.01 0.01,0 0.02,0 0.02,0 0.01,0 0.02,0 0.03,-0.01l0.21 -0.22 0.22 0.22c0.01,0.01 0.01,0.01 0.02,0.01 0.01,0 0.01,0 0.02,0 0.01,0 0.01,0 0.02,-0.01l0.01 -0.01c0.01,-0.01 0.01,-0.01 0.01,-0.02 0,-0.01 0,-0.01 0,-0.02 0,-0.01 0,-0.01 -0.01,-0.02l-0.22 -0.22 0.22 -0.21c0.01,-0.01 0.01,-0.02 0.01,-0.03 0,0 0,-0.01 0,-0.02 0,0 0,-0.01 -0.01,-0.02l-0.01 0c-0.01,-0.01 -0.01,-0.02 -0.02,-0.02 -0.01,0 -0.01,0 -0.02,0 -0.01,0 -0.01,0.01 -0.02,0.02l-0.22 0.21z"/>
 </g>
</svg>
