<?xml version="1.0" encoding="UTF-8"?>
<!DOCTYPE svg PUBLIC "-//W3C//DTD SVG 1.1//EN" "http://www.w3.org/Graphics/SVG/1.1/DTD/svg11.dtd">
<!-- Creator: CorelDRAW 2018 (64-Bit) -->
<svg xmlns="http://www.w3.org/2000/svg" xml:space="preserve" width="35px" height="35px" version="1.1" style="shape-rendering:geometricPrecision; text-rendering:geometricPrecision; image-rendering:optimizeQuality; fill-rule:evenodd; clip-rule:evenodd"
viewBox="0 0 0.59 0.59"
 xmlns:xlink="http://www.w3.org/1999/xlink">
 <defs>
  <style type="text/css">
   <![CDATA[
    .fil0 {fill:#757475;fill-rule:nonzero}
   ]]>
  </style>
 </defs>
 <g id="Layer_x0020_1">
  <metadata id="CorelCorpID_0Corel-Layer"/>
  <path class="fil0" d="M0.3 0c0.08,0 0.15,0.03 0.2,0.09 0.06,0.05 0.09,0.12 0.09,0.21 0,0.08 -0.03,0.15 -0.09,0.2 -0.05,0.06 -0.12,0.09 -0.2,0.09 -0.09,0 -0.16,-0.03 -0.21,-0.09 -0.06,-0.05 -0.09,-0.12 -0.09,-0.2 0,-0.09 0.03,-0.16 0.09,-0.21 0.05,-0.06 0.12,-0.09 0.21,-0.09zm0 0.26l-0.12 -0.12c0,0 -0.01,0 -0.01,0 0,-0.01 -0.01,-0.01 -0.01,0 -0.01,0 -0.01,0 -0.01,0l-0.01 0.01c0,0 0,0 0,0.01 -0.01,0 -0.01,0.01 0,0.01 0,0 0,0.01 0,0.01l0.12 0.12 -0.12 0.11c0,0 0,0.01 0,0.01 -0.01,0.01 -0.01,0.01 0,0.01 0,0.01 0,0.01 0,0.01l0.01 0.01c0,0 0,0 0.01,0.01 0,0 0.01,0 0.01,0 0,-0.01 0.01,-0.01 0.01,-0.01l0.12 -0.12 0.11 0.12c0,0 0.01,0 0.01,0.01 0.01,0 0.01,0 0.01,0 0.01,-0.01 0.01,-0.01 0.01,-0.01l0.01 -0.01c0,0 0,0 0.01,-0.01 0,0 0,0 0,-0.01 -0.01,0 -0.01,-0.01 -0.01,-0.01l-0.12 -0.11 0.12 -0.12c0,0 0,-0.01 0.01,-0.01 0,0 0,-0.01 0,-0.01 -0.01,-0.01 -0.01,-0.01 -0.01,-0.01l-0.01 -0.01c0,0 0,0 -0.01,0 0,-0.01 0,-0.01 -0.01,0 0,0 -0.01,0 -0.01,0l-0.11 0.12zm0.19 -0.16c-0.05,-0.05 -0.12,-0.08 -0.19,-0.08 -0.08,0 -0.15,0.03 -0.2,0.08 -0.05,0.05 -0.08,0.12 -0.08,0.2 0,0.07 0.03,0.14 0.08,0.19 0.05,0.05 0.12,0.08 0.2,0.08 0.07,0 0.14,-0.03 0.19,-0.08 0.05,-0.05 0.08,-0.12 0.08,-0.19 0,-0.08 -0.03,-0.15 -0.08,-0.2z"/>
 </g>
</svg>
