<?xml version="1.0" encoding="UTF-8"?>
<!DOCTYPE svg PUBLIC "-//W3C//DTD SVG 1.1//EN" "http://www.w3.org/Graphics/SVG/1.1/DTD/svg11.dtd">
<!-- Creator: CorelDRAW 2018 (64-Bit) -->
<svg xmlns="http://www.w3.org/2000/svg" xml:space="preserve" width="35px" height="33px" version="1.1" style="shape-rendering:geometricPrecision; text-rendering:geometricPrecision; image-rendering:optimizeQuality; fill-rule:evenodd; clip-rule:evenodd"
viewBox="0 0 1.77 1.69"
 xmlns:xlink="http://www.w3.org/1999/xlink">
 <defs>
  <style type="text/css">
   <![CDATA[
    .fil0 {fill:#EBDA13}
   ]]>
  </style>
 </defs>
 <g id="Layer_x0020_1">
  <metadata id="CorelCorpID_0Corel-Layer"/>
  <path class="fil0" d="M0.84 1.43l-0.41 0.25c-0.04,0.02 -0.09,0.01 -0.11,-0.03 -0.01,-0.02 -0.02,-0.04 -0.01,-0.06l0.11 -0.47c0,-0.03 -0.01,-0.06 -0.03,-0.08l-0.36 -0.31c-0.04,-0.03 -0.04,-0.08 -0.01,-0.12 0.01,-0.01 0.03,-0.02 0.05,-0.03l0.48 -0.04c0.03,0 0.06,-0.02 0.07,-0.05l0.19 -0.44c0.02,-0.04 0.07,-0.06 0.11,-0.04 0.02,0 0.03,0.02 0.04,0.04l0.19 0.44c0.01,0.03 0.04,0.05 0.07,0.05l0.48 0.04c0.04,0.01 0.07,0.05 0.07,0.09 0,0.02 -0.01,0.04 -0.03,0.06l-0.36 0.31c-0.02,0.02 -0.03,0.05 -0.03,0.08l0.11 0.47c0.01,0.05 -0.02,0.09 -0.06,0.1 -0.02,0 -0.04,0 -0.06,-0.01l-0.41 -0.25c-0.03,-0.01 -0.06,-0.01 -0.09,0l0 0z"/>
 </g>
</svg>
