<?xml version="1.0" encoding="UTF-8"?>
<!DOCTYPE svg PUBLIC "-//W3C//DTD SVG 1.1//EN" "http://www.w3.org/Graphics/SVG/1.1/DTD/svg11.dtd">
<!-- Creator: CorelDRAW 2018 (64-Bit) -->
<svg xmlns="http://www.w3.org/2000/svg" xml:space="preserve" width="90px" height="90px" version="1.1" style="shape-rendering:geometricPrecision; text-rendering:geometricPrecision; image-rendering:optimizeQuality; fill-rule:evenodd; clip-rule:evenodd"
viewBox="0 0 4 4"
 xmlns:xlink="http://www.w3.org/1999/xlink">
 <defs>
  <style type="text/css">
   <![CDATA[
    .fil0 {fill:#757475}
   ]]>
  </style>
 </defs>
 <g id="Layer_x0020_1">
  <metadata id="CorelCorpID_0Corel-Layer"/>
  <path class="fil0" d="M2 0c0.55,0 1.05,0.22 1.41,0.59 0.36,0.36 0.59,0.86 0.59,1.41 0,0.55 -0.23,1.05 -0.59,1.41 -0.36,0.36 -0.86,0.59 -1.41,0.59 -0.55,0 -1.05,-0.23 -1.41,-0.59 -0.37,-0.36 -0.59,-0.86 -0.59,-1.41 0,-0.55 0.22,-1.05 0.59,-1.41 0.36,-0.37 0.86,-0.59 1.41,-0.59zm-1.28 0.95c-0.02,0 -0.03,0.01 -0.04,0.03 0,0.01 -0.01,0.03 -0.01,0.04 0,0.02 0.02,0.05 0.03,0.06 0.02,0.02 0.03,0.02 0.18,0.02l0.16 0 0.03 0.13c0.24,1.06 0.29,1.28 0.29,1.29 0,0 -0.04,0.11 -0.09,0.23 -0.1,0.24 -0.1,0.25 -0.08,0.29 0.02,0.04 0.03,0.04 0.17,0.04l0.12 0 0 0.02c0,0.06 0.04,0.14 0.09,0.19 0.12,0.12 0.3,0.11 0.41,-0.01 0.05,-0.04 0.07,-0.11 0.08,-0.18l0 -0.02 0.14 0 0.14 0 0 0.02c0,0.07 0.05,0.17 0.12,0.22 0.11,0.08 0.25,0.07 0.35,-0.02 0.06,-0.05 0.09,-0.11 0.1,-0.19l0.01 -0.03 0.06 0c0.08,0 0.1,-0.01 0.12,-0.04 0.01,-0.03 0.01,-0.05 0,-0.08 -0.02,-0.04 -0.04,-0.04 -0.14,-0.04l-0.09 0 -0.02 -0.03c-0.03,-0.04 -0.1,-0.09 -0.15,-0.1 -0.04,-0.01 -0.11,-0.01 -0.14,0 -0.06,0.01 -0.14,0.07 -0.17,0.11l-0.01 0.02 -0.18 0 -0.18 0 -0.02 -0.03c-0.05,-0.07 -0.14,-0.11 -0.23,-0.11 -0.08,0 -0.14,0.02 -0.2,0.09l-0.05 0.05 -0.07 0 -0.08 0 0.07 -0.18c0.04,-0.09 0.07,-0.18 0.08,-0.19 0,-0.02 0,-0.03 -0.02,-0.13 -0.02,-0.07 -0.03,-0.12 -0.02,-0.12 0,0 0.11,-0.02 0.24,-0.03 0.59,-0.07 1.11,-0.12 1.12,-0.13 0.03,0 0.05,-0.02 0.06,-0.04 0,-0.01 0.04,-0.21 0.09,-0.44l0.08 -0.43 -0.01 -0.02c-0.02,-0.03 -0.03,-0.05 -0.07,-0.05 -0.03,0 -0.06,0.02 -0.07,0.04l-0.01 0.02 -0.84 0c-0.8,0 -0.85,0 -0.85,-0.01 0,0 -0.01,-0.05 -0.03,-0.11 -0.01,-0.06 -0.02,-0.12 -0.03,-0.13 0,-0.01 -0.02,-0.02 -0.03,-0.02 -0.02,-0.01 -0.04,-0.01 -0.21,-0.01 -0.17,0 -0.18,0 -0.2,0.01zm0.83 0.45c0,0.04 0.03,0.25 0.02,0.26 0,0.01 -0.02,0.01 -0.09,0.01 -0.05,0 -0.11,0.01 -0.12,0.01l-0.03 0 -0.03 -0.14c-0.02,-0.07 -0.04,-0.14 -0.04,-0.14 0,-0.01 0.01,-0.01 0.14,-0.01l0.14 0 0.01 0.01zm0.45 0.12l0 0.12 -0.13 0.01c-0.07,0 -0.13,0.01 -0.14,0.01 0,-0.01 -0.03,-0.26 -0.03,-0.27 0,0 0.07,0 0.15,0l0.15 0 0 0.13zm0.43 -0.13c0,0.01 -0.01,0.19 -0.02,0.21l0 0.02 -0.08 0.01c-0.05,0 -0.11,0 -0.13,0l-0.05 0.01 0 -0.13 0 -0.12 0.14 0c0.1,0 0.14,0 0.14,0zm0.45 0c0,0.01 -0.01,0.06 -0.02,0.11l-0.02 0.1 -0.14 0.01c-0.07,0 -0.13,0 -0.13,0 0,0 0.01,-0.17 0.02,-0.21l0 -0.01 0.14 0c0.12,0 0.15,0 0.15,0zm-0.08 0.39c0,0 -0.01,0.05 -0.02,0.11 -0.01,0.05 -0.02,0.1 -0.02,0.1 0,0 -0.22,0.03 -0.23,0.02 0,0 0.02,-0.23 0.02,-0.23 0.01,0 0.16,-0.01 0.21,-0.01 0.04,0 0.05,0 0.04,0.01zm-0.41 0.02c0.01,0.04 -0.01,0.22 -0.02,0.23 0,0 -0.05,0.01 -0.1,0.02 -0.05,0 -0.1,0.01 -0.11,0.01l-0.01 0 0 -0.13 0 -0.13 0.01 0c0.01,0 0.04,0 0.08,-0.01 0.03,0 0.08,0 0.11,0 0.04,0 0.04,0 0.04,0.01zm-0.39 0.14l0 0.13 -0.02 0.01c-0.06,0.01 -0.19,0.02 -0.19,0.02 0,-0.01 -0.04,-0.28 -0.03,-0.28 0,0 0.21,-0.02 0.23,-0.01 0.01,0 0.01,0.02 0.01,0.13zm-0.4 -0.11c0.01,0.04 0.03,0.28 0.03,0.28 0,0.01 -0.19,0.03 -0.19,0.02 -0.01,0 -0.02,-0.06 -0.04,-0.14 -0.02,-0.1 -0.03,-0.15 -0.03,-0.15 0.01,0 0.05,0 0.1,-0.01 0.11,0 0.13,0 0.13,0zm0.23 1.12c0.03,0.02 0.06,0.06 0.07,0.08 0.02,0.07 -0.01,0.13 -0.06,0.17 -0.09,0.05 -0.21,-0.03 -0.2,-0.13 0,-0.07 0.04,-0.11 0.11,-0.13 0.02,0 0.06,0 0.08,0.01zm0.86 0.01c0.04,0.02 0.07,0.06 0.07,0.12 0,0.07 -0.05,0.13 -0.12,0.13 -0.09,0.01 -0.17,-0.08 -0.15,-0.16 0.03,-0.09 0.12,-0.13 0.2,-0.09zm0.64 -2.29c-0.34,-0.34 -0.81,-0.55 -1.33,-0.55 -0.52,0 -0.99,0.21 -1.33,0.55 -0.34,0.34 -0.55,0.81 -0.55,1.33 0,0.52 0.21,0.99 0.55,1.33 0.34,0.34 0.81,0.55 1.33,0.55 0.52,0 0.99,-0.21 1.33,-0.55 0.34,-0.34 0.55,-0.81 0.55,-1.33 0,-0.52 -0.21,-0.99 -0.55,-1.33z"/>
 </g>
</svg>
