<?xml version="1.0" encoding="UTF-8"?>
<!DOCTYPE svg PUBLIC "-//W3C//DTD SVG 1.1//EN" "http://www.w3.org/Graphics/SVG/1.1/DTD/svg11.dtd">
<!-- Creator: CorelDRAW 2018 (64-Bit) -->
<svg xmlns="http://www.w3.org/2000/svg" xml:space="preserve" width="90px" height="90px" version="1.1" style="shape-rendering:geometricPrecision; text-rendering:geometricPrecision; image-rendering:optimizeQuality; fill-rule:evenodd; clip-rule:evenodd"
viewBox="0 0 4.59 4.59"
 xmlns:xlink="http://www.w3.org/1999/xlink">
 <defs>
  <style type="text/css">
   <![CDATA[
    .fil0 {fill:#EEEEEF}
   ]]>
  </style>
 </defs>
 <g id="Layer_x0020_1">
  <metadata id="CorelCorpID_0Corel-Layer"/>
  <path class="fil0" d="M2.29 0c0.64,0 1.21,0.26 1.63,0.67 0.41,0.42 0.67,0.99 0.67,1.62 0,0.64 -0.26,1.21 -0.67,1.63 -0.42,0.41 -0.99,0.67 -1.63,0.67 -0.63,0 -1.2,-0.26 -1.62,-0.67 -0.41,-0.42 -0.67,-0.99 -0.67,-1.63 0,-0.63 0.26,-1.2 0.67,-1.62 0.42,-0.41 0.99,-0.67 1.62,-0.67zm-1.47 1.09c-0.02,0.01 -0.03,0.02 -0.04,0.04 0,0.01 -0.01,0.03 -0.01,0.04 0,0.02 0.02,0.06 0.04,0.08 0.02,0.01 0.02,0.01 0.2,0.01l0.18 0.01 0.03 0.15c0.28,1.21 0.34,1.46 0.34,1.47 0,0.01 -0.05,0.13 -0.1,0.27 -0.11,0.27 -0.12,0.29 -0.1,0.33 0.03,0.04 0.05,0.05 0.2,0.05l0.14 0 0 0.02c0,0.07 0.04,0.16 0.1,0.22 0.14,0.13 0.35,0.13 0.48,-0.01 0.05,-0.06 0.08,-0.12 0.09,-0.21l0 -0.02 0.16 0 0.15 0 0 0.02c0,0.09 0.06,0.2 0.14,0.25 0.13,0.09 0.3,0.09 0.41,-0.02 0.07,-0.06 0.1,-0.13 0.11,-0.22l0.01 -0.03 0.08 0c0.09,0 0.11,-0.01 0.13,-0.05 0.02,-0.04 0.02,-0.06 0,-0.09 -0.02,-0.04 -0.04,-0.05 -0.17,-0.05l-0.1 0 -0.02 -0.03c-0.03,-0.05 -0.11,-0.1 -0.17,-0.12 -0.04,-0.01 -0.12,-0.01 -0.16,0 -0.07,0.02 -0.16,0.08 -0.19,0.13l-0.01 0.02 -0.21 0 -0.21 0 -0.03 -0.03c-0.05,-0.08 -0.15,-0.13 -0.25,-0.13 -0.1,0 -0.16,0.03 -0.24,0.11l-0.05 0.05 -0.09 0 -0.09 0 0.08 -0.2c0.05,-0.11 0.09,-0.21 0.09,-0.22 0.01,-0.02 0.01,-0.04 -0.02,-0.15 -0.02,-0.08 -0.03,-0.14 -0.02,-0.14 0,0 0.12,-0.02 0.27,-0.03 0.68,-0.08 1.28,-0.15 1.3,-0.15 0.02,-0.01 0.04,-0.02 0.05,-0.05 0.01,-0.01 0.06,-0.24 0.11,-0.51l0.09 -0.48 -0.01 -0.03c-0.01,-0.04 -0.04,-0.06 -0.08,-0.06 -0.04,0 -0.07,0.02 -0.08,0.05l0 0.03 -0.97 0c-0.92,0 -0.97,-0.01 -0.98,-0.02 0,0 -0.01,-0.06 -0.03,-0.13 -0.01,-0.07 -0.03,-0.13 -0.04,-0.14 0,-0.01 -0.02,-0.03 -0.03,-0.03 -0.03,-0.01 -0.05,-0.01 -0.24,-0.01 -0.19,0 -0.22,0 -0.24,0.01zm0.95 0.52c0.01,0.04 0.04,0.29 0.04,0.3 0,0 -0.03,0.01 -0.11,0.01 -0.06,0 -0.13,0 -0.14,0.01l-0.03 0 -0.04 -0.16c-0.02,-0.08 -0.04,-0.16 -0.04,-0.17 0,-0.01 0.01,-0.01 0.16,-0.01l0.16 0 0 0.02zm0.52 0.13l0 0.15 -0.15 0.01c-0.08,0 -0.15,0 -0.15,0 0,0 -0.04,-0.29 -0.04,-0.3 0,-0.01 0.08,-0.01 0.17,-0.01l0.18 0 -0.01 0.15zm0.5 -0.14c0,0.01 -0.01,0.21 -0.02,0.24l0 0.02 -0.1 0.01c-0.05,0 -0.12,0 -0.15,0.01l-0.05 0 0 -0.14 0 -0.15 0.16 0c0.12,0 0.16,0 0.16,0.01zm0.51 0c0,0 -0.01,0.06 -0.02,0.12l-0.02 0.12 -0.15 0.01c-0.09,0 -0.16,0 -0.16,0 0,0 0.02,-0.2 0.02,-0.24l0 -0.02 0.17 0c0.13,0 0.16,0 0.16,0.01zm-0.08 0.44c0,0.01 -0.01,0.06 -0.02,0.13 -0.02,0.06 -0.03,0.11 -0.03,0.11 -0.01,0.01 -0.26,0.04 -0.26,0.03 0,0 0.02,-0.27 0.02,-0.27 0.01,0 0.19,-0.01 0.24,-0.01 0.05,0 0.05,0 0.05,0.01zm-0.47 0.03c0,0.04 -0.02,0.26 -0.03,0.26 0,0 -0.05,0.01 -0.11,0.02 -0.06,0 -0.12,0.01 -0.13,0.01l-0.01 0.01 0 -0.15 0 -0.15 0.01 0c0.01,-0.01 0.05,-0.01 0.09,-0.01 0.04,0 0.1,0 0.13,-0.01 0.05,0 0.05,0 0.05,0.02zm-0.46 0.16l0.01 0.15 -0.03 0.01c-0.07,0 -0.21,0.02 -0.21,0.02 -0.01,-0.01 -0.05,-0.31 -0.04,-0.32 0,0 0.24,-0.02 0.26,-0.02 0.01,0 0.01,0.03 0.01,0.16zm-0.46 -0.13c0.01,0.05 0.05,0.32 0.04,0.33 0,0 -0.22,0.02 -0.22,0.02 0,0 -0.02,-0.08 -0.04,-0.17 -0.03,-0.11 -0.04,-0.17 -0.03,-0.17 0,0 0.05,0 0.11,-0.01 0.13,0 0.14,0 0.14,0zm0.27 1.29c0.03,0.02 0.07,0.07 0.08,0.09 0.02,0.08 0,0.15 -0.07,0.19 -0.11,0.06 -0.24,-0.03 -0.23,-0.15 0.01,-0.07 0.05,-0.12 0.13,-0.14 0.02,-0.01 0.07,0 0.09,0.01zm0.99 0.01c0.05,0.03 0.08,0.07 0.08,0.13 0,0.09 -0.06,0.15 -0.14,0.16 -0.1,0.01 -0.19,-0.09 -0.17,-0.19 0.03,-0.11 0.14,-0.15 0.23,-0.1zm0.73 -2.63c-0.39,-0.4 -0.93,-0.64 -1.53,-0.64 -0.59,0 -1.13,0.24 -1.52,0.64 -0.4,0.39 -0.64,0.93 -0.64,1.52 0,0.6 0.24,1.14 0.64,1.53 0.39,0.39 0.93,0.64 1.52,0.64 0.6,0 1.14,-0.25 1.53,-0.64 0.39,-0.39 0.64,-0.93 0.64,-1.53 0,-0.59 -0.25,-1.13 -0.64,-1.52z"/>
 </g>
</svg>
