<?xml version="1.0" encoding="UTF-8"?>
<!DOCTYPE svg PUBLIC "-//W3C//DTD SVG 1.1//EN" "http://www.w3.org/Graphics/SVG/1.1/DTD/svg11.dtd">
<!-- Creator: CorelDRAW 2018 (64-Bit) -->
<svg xmlns="http://www.w3.org/2000/svg" xml:space="preserve" width="35px" height="30px" version="1.1" style="shape-rendering:geometricPrecision; text-rendering:geometricPrecision; image-rendering:optimizeQuality; fill-rule:evenodd; clip-rule:evenodd"
viewBox="0 0 1.56 1.3"
 xmlns:xlink="http://www.w3.org/1999/xlink">
 <defs>
  <style type="text/css">
   <![CDATA[
    .fil0 {fill:#088378}
   ]]>
  </style>
 </defs>
 <g id="Layer_x0020_1">
  <metadata id="CorelCorpID_0Corel-Layer"/>
  <path class="fil0" d="M0.26 0l0.24 0c0.05,0 0.07,0 0.09,0.01 0.01,0 0.03,0.01 0.05,0.02 0.02,0.01 0.03,0.02 0.06,0.05l0.03 0.03c0.03,0.03 0.05,0.05 0.06,0.06 0.02,0.01 0.04,0.01 0.06,0.02 0.02,0 0.04,0.01 0.08,0.01l0.38 0c0.09,0 0.12,0 0.15,0.02 0.04,0.02 0.06,0.04 0.08,0.08 0.01,0.03 0.02,0.06 0.02,0.15l0 0.59c0,0.09 -0.01,0.12 -0.02,0.16 -0.02,0.03 -0.05,0.06 -0.08,0.08 -0.04,0.01 -0.07,0.02 -0.16,0.02l-1.03 0c-0.1,0 -0.13,-0.01 -0.16,-0.02 -0.04,-0.02 -0.06,-0.05 -0.08,-0.08 -0.02,-0.04 -0.03,-0.07 -0.03,-0.16l0 -0.78c0,-0.08 0.01,-0.12 0.03,-0.15 0.02,-0.04 0.04,-0.06 0.08,-0.08 0.03,-0.02 0.07,-0.03 0.15,-0.03l0 0zm-0.05 0.36c-0.01,0 -0.02,0 -0.03,0 0,0.01 -0.01,0.01 -0.01,0.02 -0.01,0 -0.01,0.01 -0.01,0.02l0 0.01c0,0.01 0,0.02 0.01,0.03 0,0 0.01,0.01 0.01,0.01 0.01,0 0.02,0.01 0.03,0.01l1.15 0c0.01,0 0.01,-0.01 0.02,-0.01 0.01,0 0.01,-0.01 0.02,-0.01 0,-0.01 0,-0.02 0,-0.03l0 -0.01c0,-0.01 0,-0.02 0,-0.02 -0.01,-0.01 -0.01,-0.01 -0.02,-0.02 -0.01,0 -0.01,0 -0.02,0l-1.15 0z"/>
 </g>
</svg>
