<?xml version="1.0" encoding="UTF-8"?>
<!DOCTYPE svg PUBLIC "-//W3C//DTD SVG 1.1//EN" "http://www.w3.org/Graphics/SVG/1.1/DTD/svg11.dtd">
<!-- Creator: CorelDRAW 2018 (64-Bit) -->
<svg xmlns="http://www.w3.org/2000/svg" xml:space="preserve" width="90px" height="90px" version="1.1" style="shape-rendering:geometricPrecision; text-rendering:geometricPrecision; image-rendering:optimizeQuality; fill-rule:evenodd; clip-rule:evenodd"
viewBox="0 0 10.81 10.81"
 xmlns:xlink="http://www.w3.org/1999/xlink">
 <defs>
  <style type="text/css">
   <![CDATA[
    .fil165 {fill:#FEFEFE}
    .fil1 {fill:#5BA997}
    .fil2 {fill:#5BA897}
    .fil3 {fill:#5AA897}
    .fil5 {fill:#5AA997}
    .fil4 {fill:#5AA897}
    .fil6 {fill:#5AA897}
    .fil7 {fill:#59A897}
    .fil8 {fill:#59A897}
    .fil9 {fill:#59A896}
    .fil10 {fill:#58A896}
    .fil11 {fill:#58A896}
    .fil12 {fill:#57A796}
    .fil14 {fill:#58A796}
    .fil13 {fill:#57A795}
    .fil15 {fill:#58A796}
    .fil16 {fill:#57A796}
    .fil17 {fill:#57A795}
    .fil18 {fill:#57A695}
    .fil20 {fill:#56A795}
    .fil19 {fill:#56A695}
    .fil21 {fill:#56A695}
    .fil22 {fill:#56A694}
    .fil23 {fill:#55A694}
    .fil24 {fill:#55A594}
    .fil25 {fill:#54A594}
    .fil26 {fill:#54A594}
    .fil27 {fill:#55A594}
    .fil28 {fill:#53A494}
    .fil30 {fill:#54A593}
    .fil29 {fill:#54A493}
    .fil31 {fill:#53A493}
    .fil32 {fill:#53A493}
    .fil33 {fill:#52A392}
    .fil34 {fill:#52A493}
    .fil35 {fill:#51A392}
    .fil36 {fill:#51A392}
    .fil37 {fill:#52A292}
    .fil38 {fill:#50A392}
    .fil39 {fill:#51A292}
    .fil40 {fill:#51A291}
    .fil41 {fill:#4FA291}
    .fil43 {fill:#50A291}
    .fil42 {fill:#50A191}
    .fil44 {fill:#4EA291}
    .fil45 {fill:#4FA190}
    .fil47 {fill:#4EA190}
    .fil46 {fill:#4DA090}
    .fil48 {fill:#4EA190}
    .fil49 {fill:#4EA190}
    .fil50 {fill:#4DA090}
    .fil51 {fill:#4DA08F}
    .fil52 {fill:#4CA08F}
    .fil53 {fill:#4CA08F}
    .fil54 {fill:#4A9F8F}
    .fil56 {fill:#4B9F8F}
    .fil55 {fill:#4B9F8E}
    .fil57 {fill:#4A9F8E}
    .fil58 {fill:#4A9E8E}
    .fil60 {fill:#499E8E}
    .fil59 {fill:#499E8E}
    .fil61 {fill:#499E8E}
    .fil62 {fill:#489E8E}
    .fil63 {fill:#489D8D}
    .fil64 {fill:#479D8D}
    .fil65 {fill:#479D8D}
    .fil66 {fill:#479D8D}
    .fil67 {fill:#469C8C}
    .fil68 {fill:#459C8C}
    .fil69 {fill:#459C8C}
    .fil70 {fill:#449B8C}
    .fil71 {fill:#449B8B}
    .fil72 {fill:#439A8B}
    .fil73 {fill:#439A8A}
    .fil75 {fill:#429A8A}
    .fil74 {fill:#429A8A}
    .fil76 {fill:#429A8A}
    .fil77 {fill:#41998A}
    .fil78 {fill:#419989}
    .fil79 {fill:#40998A}
    .fil80 {fill:#409889}
    .fil81 {fill:#3E9889}
    .fil82 {fill:#3F9889}
    .fil83 {fill:#3F9888}
    .fil84 {fill:#3E9788}
    .fil85 {fill:#3E9788}
    .fil86 {fill:#3C9788}
    .fil87 {fill:#3D9787}
    .fil88 {fill:#3B9687}
    .fil89 {fill:#3B9687}
    .fil90 {fill:#3A9687}
    .fil91 {fill:#389586}
    .fil92 {fill:#399586}
    .fil93 {fill:#379586}
    .fil94 {fill:#389485}
    .fil95 {fill:#369486}
    .fil96 {fill:#369486}
    .fil97 {fill:#349485}
    .fil98 {fill:#359385}
    .fil99 {fill:#349385}
    .fil100 {fill:#349384}
    .fil101 {fill:#349384}
    .fil102 {fill:#329284}
    .fil103 {fill:#339284}
    .fil104 {fill:#319284}
    .fil105 {fill:#329284}
    .fil106 {fill:#309183}
    .fil107 {fill:#309183}
    .fil108 {fill:#2F9183}
    .fil109 {fill:#309082}
    .fil110 {fill:#2E9082}
    .fil111 {fill:#2E9082}
    .fil112 {fill:#2C9082}
    .fil114 {fill:#2D9082}
    .fil113 {fill:#2D8F81}
    .fil115 {fill:#2A8F82}
    .fil116 {fill:#2B8F81}
    .fil118 {fill:#288F81}
    .fil117 {fill:#288E81}
    .fil119 {fill:#298E80}
    .fil120 {fill:#268E80}
    .fil122 {fill:#278E80}
    .fil121 {fill:#278E80}
    .fil123 {fill:#248E80}
    .fil124 {fill:#258D80}
    .fil125 {fill:#228D80}
    .fil127 {fill:#238D7F}
    .fil126 {fill:#238D7F}
    .fil128 {fill:#218C7F}
    .fil129 {fill:#228C7E}
    .fil130 {fill:#1F8C7F}
    .fil131 {fill:#208B7E}
    .fil132 {fill:#1D8B7E}
    .fil133 {fill:#1E8B7E}
    .fil134 {fill:#1B8B7E}
    .fil135 {fill:#1C8A7E}
    .fil136 {fill:#1C8A7D}
    .fil138 {fill:#1A8A7D}
    .fil137 {fill:#1A8A7D}
    .fil139 {fill:#18897C}
    .fil140 {fill:#19897C}
    .fil141 {fill:#16897C}
    .fil142 {fill:#16897C}
    .fil143 {fill:#16887C}
    .fil144 {fill:#13887C}
    .fil145 {fill:#14887C}
    .fil146 {fill:#15877B}
    .fil147 {fill:#11877B}
    .fil148 {fill:#12877B}
    .fil149 {fill:#0F877B}
    .fil150 {fill:#0F877A}
    .fil151 {fill:#10877A}
    .fil152 {fill:#0D867A}
    .fil153 {fill:#0D867A}
    .fil154 {fill:#0E867A}
    .fil156 {fill:#0C857A}
    .fil155 {fill:#0C8579}
    .fil157 {fill:#0B8579}
    .fil158 {fill:#0C8579}
    .fil159 {fill:#0A8579}
    .fil160 {fill:#0A8478}
    .fil161 {fill:#098478}
    .fil163 {fill:#098479}
    .fil162 {fill:#098478}
    .fil164 {fill:#098478}
    .fil0 {fill:#088378}
   ]]>
  </style>
     <clipPath id="id0">
      <path d="M4.61 0l1.59 0c3.43,0.1 4.46,1.44 4.61,4.38l0 2.05c-0.15,2.94 -1.18,4.28 -4.61,4.38l-1.59 0c-3.43,-0.1 -4.46,-1.44 -4.61,-4.38l0 -2.05c0.15,-2.94 1.18,-4.28 4.61,-4.38z"/>
     </clipPath>
 </defs>
 <g id="Layer_x0020_1">
  <metadata id="CorelCorpID_0Corel-Layer"/>
  <g id="_1691420860576">
   <g>
    <g style="clip-path:url(#id0)">
     <polygon class="fil0" points="-4.12,5.4 5.4,-4.12 14.93,5.4 5.4,14.93 "/>
     <path id="1" class="fil1" d="M5.32 5.27c-0.01,-0.01 -0.03,-0.01 -0.05,0 -0.01,0.02 -0.01,0.04 0,0.05 0.02,0.01 0.04,0.01 0.05,0 0.01,-0.01 0.01,-0.03 0,-0.05z"/>
     <path id="2" class="fil1" d="M5.31 5.28c0.01,0.01 0.01,0.02 0,0.03 -0.01,0.01 -0.02,0.01 -0.03,0 -0.01,-0.01 -0.01,-0.02 0,-0.03 0.01,-0.01 0.02,-0.01 0.03,0zm0.02 -0.02c-0.02,-0.02 -0.05,-0.02 -0.07,0 -0.02,0.02 -0.02,0.05 0,0.07 0.02,0.02 0.05,0.02 0.07,0 0.02,-0.02 0.02,-0.05 0,-0.07z"/>
     <path id="3" class="fil1" d="M5.33 5.27c0.01,0.01 0.01,0.04 0,0.06 -0.02,0.01 -0.05,0.01 -0.06,0 -0.02,-0.02 -0.02,-0.05 0,-0.06 0.01,-0.02 0.04,-0.02 0.06,0zm0.02 -0.03c-0.03,-0.03 -0.08,-0.03 -0.11,0 -0.03,0.03 -0.03,0.08 0,0.11 0.03,0.03 0.08,0.03 0.11,0 0.03,-0.03 0.03,-0.08 0,-0.11z"/>
     <path id="4" class="fil1" d="M5.34 5.25c0.03,0.03 0.03,0.07 0,0.09 -0.02,0.03 -0.06,0.03 -0.09,0 -0.02,-0.02 -0.02,-0.06 0,-0.09 0.03,-0.02 0.07,-0.02 0.09,0zm0.02 -0.02c-0.03,-0.04 -0.09,-0.04 -0.13,0 -0.04,0.04 -0.04,0.1 0,0.13 0.04,0.04 0.1,0.04 0.13,0 0.04,-0.03 0.04,-0.09 0,-0.13z"/>
     <path id="5" class="fil1" d="M5.36 5.24c0.03,0.03 0.03,0.08 0,0.12 -0.04,0.03 -0.09,0.03 -0.12,0 -0.04,-0.04 -0.04,-0.09 0,-0.12 0.03,-0.04 0.08,-0.04 0.12,0zm0.02 -0.03c-0.05,-0.04 -0.12,-0.04 -0.17,0 -0.04,0.05 -0.04,0.12 0,0.17 0.05,0.04 0.12,0.04 0.17,0 0.04,-0.05 0.04,-0.12 0,-0.17z"/>
     <path id="6" class="fil2" d="M5.37 5.22c0.04,0.04 0.04,0.11 0,0.15 -0.04,0.04 -0.11,0.04 -0.15,0 -0.04,-0.04 -0.04,-0.11 0,-0.15 0.04,-0.04 0.11,-0.04 0.15,0zm0.02 -0.02c-0.05,-0.05 -0.14,-0.05 -0.19,0 -0.05,0.05 -0.05,0.14 0,0.19 0.05,0.06 0.14,0.06 0.19,0 0.06,-0.05 0.06,-0.14 0,-0.19z"/>
     <path id="7" class="fil3" d="M5.39 5.21c0.04,0.05 0.04,0.13 0,0.18 -0.05,0.04 -0.13,0.04 -0.18,0 -0.05,-0.05 -0.05,-0.13 0,-0.18 0.05,-0.05 0.13,-0.05 0.18,0zm0.02 -0.03c-0.06,-0.06 -0.16,-0.06 -0.23,0 -0.06,0.07 -0.06,0.17 0,0.23 0.07,0.06 0.17,0.06 0.23,0 0.06,-0.06 0.06,-0.16 0,-0.23z"/>
     <path id="8" class="fil3" d="M5.4 5.19c0.06,0.06 0.06,0.15 0,0.21 -0.06,0.06 -0.15,0.06 -0.21,0 -0.06,-0.06 -0.06,-0.15 0,-0.21 0.06,-0.06 0.15,-0.06 0.21,0zm0.02 -0.02c-0.07,-0.07 -0.18,-0.07 -0.25,0 -0.07,0.07 -0.07,0.18 0,0.25 0.07,0.07 0.18,0.07 0.25,0 0.07,-0.07 0.07,-0.18 0,-0.25z"/>
     <path id="9" class="fil4" d="M5.42 5.18c0.06,0.06 0.06,0.17 0,0.24 -0.07,0.06 -0.18,0.06 -0.24,0 -0.07,-0.07 -0.07,-0.18 0,-0.24 0.06,-0.07 0.17,-0.07 0.24,0zm0.02 -0.03c-0.08,-0.07 -0.21,-0.07 -0.29,0 -0.07,0.08 -0.07,0.21 0,0.29 0.08,0.08 0.21,0.08 0.29,0 0.08,-0.08 0.08,-0.21 0,-0.29z"/>
     <path id="10" class="fil4" d="M5.43 5.16c0.07,0.08 0.07,0.2 0,0.27 -0.07,0.07 -0.19,0.07 -0.27,0 -0.07,-0.07 -0.07,-0.19 0,-0.27 0.08,-0.07 0.2,-0.07 0.27,0zm0.02 -0.02c-0.08,-0.09 -0.22,-0.09 -0.31,0 -0.09,0.09 -0.09,0.23 0,0.31 0.09,0.09 0.23,0.09 0.31,0 0.09,-0.08 0.09,-0.22 0,-0.31z"/>
     <path id="11" class="fil5" d="M5.45 5.15c0.08,0.08 0.08,0.21 0,0.3 -0.09,0.08 -0.22,0.08 -0.3,0 -0.09,-0.09 -0.09,-0.22 0,-0.3 0.08,-0.09 0.21,-0.09 0.3,0zm0.02 -0.03c-0.1,-0.09 -0.25,-0.09 -0.35,0 -0.09,0.1 -0.09,0.25 0,0.35 0.1,0.09 0.25,0.09 0.35,0 0.09,-0.1 0.09,-0.25 0,-0.35z"/>
     <path id="12" class="fil5" d="M5.46 5.13c0.09,0.09 0.09,0.24 0,0.33 -0.09,0.09 -0.24,0.09 -0.33,0 -0.09,-0.09 -0.09,-0.24 0,-0.33 0.09,-0.09 0.24,-0.09 0.33,0zm0.02 -0.02c-0.1,-0.1 -0.27,-0.1 -0.37,0 -0.1,0.1 -0.1,0.27 0,0.37 0.1,0.11 0.27,0.11 0.37,0 0.11,-0.1 0.11,-0.27 0,-0.37z"/>
     <path id="13" class="fil5" d="M5.47 5.12c0.1,0.1 0.1,0.26 0,0.35 -0.09,0.1 -0.25,0.1 -0.35,0 -0.1,-0.09 -0.1,-0.25 0,-0.35 0.1,-0.1 0.26,-0.1 0.35,0zm0.03 -0.03c-0.11,-0.11 -0.29,-0.11 -0.41,0 -0.11,0.12 -0.11,0.3 0,0.41 0.12,0.11 0.3,0.11 0.41,0 0.11,-0.11 0.11,-0.29 0,-0.41z"/>
     <path id="14" class="fil5" d="M5.49 5.1c0.11,0.11 0.11,0.28 0,0.39 -0.11,0.11 -0.28,0.11 -0.39,0 -0.11,-0.11 -0.11,-0.28 0,-0.39 0.11,-0.11 0.28,-0.11 0.39,0zm0.02 -0.02c-0.12,-0.12 -0.31,-0.12 -0.43,0 -0.12,0.12 -0.12,0.31 0,0.43 0.12,0.12 0.31,0.12 0.43,0 0.12,-0.12 0.12,-0.31 0,-0.43z"/>
     <path id="15" class="fil6" d="M5.5 5.09c0.12,0.11 0.12,0.3 0,0.41 -0.11,0.12 -0.3,0.12 -0.41,0 -0.12,-0.11 -0.12,-0.3 0,-0.41 0.11,-0.12 0.3,-0.12 0.41,0zm0.03 -0.03c-0.13,-0.12 -0.34,-0.12 -0.47,0 -0.12,0.13 -0.12,0.34 0,0.47 0.13,0.12 0.34,0.12 0.47,0 0.12,-0.13 0.12,-0.34 0,-0.47z"/>
     <path id="16" class="fil6" d="M5.52 5.07c0.12,0.13 0.12,0.33 0,0.45 -0.12,0.12 -0.32,0.12 -0.45,0 -0.12,-0.12 -0.12,-0.32 0,-0.45 0.13,-0.12 0.33,-0.12 0.45,0zm0.02 -0.02c-0.13,-0.14 -0.35,-0.14 -0.49,0 -0.14,0.14 -0.14,0.36 0,0.49 0.14,0.14 0.36,0.14 0.49,0 0.14,-0.13 0.14,-0.35 0,-0.49z"/>
     <path id="17" class="fil6" d="M5.53 5.06c0.14,0.13 0.14,0.34 0,0.47 -0.13,0.14 -0.34,0.14 -0.47,0 -0.13,-0.13 -0.13,-0.34 0,-0.47 0.13,-0.13 0.34,-0.13 0.47,0zm0.03 -0.03c-0.15,-0.14 -0.38,-0.14 -0.53,0 -0.14,0.15 -0.14,0.38 0,0.53 0.15,0.14 0.38,0.14 0.53,0 0.14,-0.15 0.14,-0.38 0,-0.53z"/>
     <path id="18" class="fil7" d="M5.55 5.04c0.14,0.14 0.14,0.37 0,0.51 -0.14,0.14 -0.37,0.14 -0.51,0 -0.14,-0.14 -0.14,-0.37 0,-0.51 0.14,-0.14 0.37,-0.14 0.51,0zm0.02 -0.02c-0.15,-0.15 -0.4,-0.15 -0.55,0 -0.15,0.15 -0.15,0.4 0,0.55 0.15,0.15 0.4,0.15 0.55,0 0.15,-0.15 0.15,-0.4 0,-0.55z"/>
     <path id="19" class="fil7" d="M5.56 5.03c0.15,0.15 0.15,0.39 0,0.53 -0.14,0.15 -0.38,0.15 -0.53,0 -0.15,-0.14 -0.15,-0.38 0,-0.53 0.15,-0.15 0.39,-0.15 0.53,0zm0.03 -0.03c-0.16,-0.16 -0.42,-0.16 -0.59,0 -0.16,0.17 -0.16,0.43 0,0.59 0.17,0.16 0.43,0.16 0.59,0 0.16,-0.16 0.16,-0.42 0,-0.59z"/>
     <path id="20" class="fil7" d="M5.58 5.01c0.16,0.16 0.16,0.41 0,0.57 -0.16,0.16 -0.41,0.16 -0.57,0 -0.15,-0.16 -0.15,-0.41 0,-0.57 0.16,-0.15 0.41,-0.15 0.57,0zm0.02 -0.02c-0.17,-0.17 -0.44,-0.17 -0.61,0 -0.17,0.17 -0.17,0.44 0,0.61 0.17,0.17 0.44,0.17 0.61,0 0.17,-0.17 0.17,-0.44 0,-0.61z"/>
     <path id="21" class="fil7" d="M5.59 5c0.17,0.16 0.17,0.43 0,0.59 -0.16,0.17 -0.43,0.17 -0.59,0 -0.17,-0.16 -0.17,-0.43 0,-0.59 0.16,-0.17 0.43,-0.17 0.59,0zm0.03 -0.03c-0.18,-0.17 -0.47,-0.17 -0.65,0 -0.17,0.18 -0.17,0.47 0,0.65 0.18,0.17 0.47,0.17 0.65,0 0.17,-0.18 0.17,-0.47 0,-0.65z"/>
     <path id="22" class="fil7" d="M5.61 4.98c0.17,0.18 0.17,0.46 0,0.63 -0.17,0.17 -0.45,0.17 -0.63,0 -0.17,-0.17 -0.17,-0.45 0,-0.63 0.18,-0.17 0.46,-0.17 0.63,0zm0.02 -0.02c-0.18,-0.19 -0.48,-0.19 -0.67,0 -0.19,0.19 -0.19,0.49 0,0.67 0.19,0.19 0.49,0.19 0.67,0 0.19,-0.18 0.19,-0.48 0,-0.67z"/>
     <path id="23" class="fil8" d="M5.62 4.97c0.19,0.18 0.19,0.47 0,0.65 -0.18,0.19 -0.47,0.19 -0.65,0 -0.18,-0.18 -0.18,-0.47 0,-0.65 0.18,-0.18 0.47,-0.18 0.65,0zm0.03 -0.02c-0.2,-0.2 -0.51,-0.2 -0.7,0 -0.2,0.19 -0.2,0.5 0,0.7 0.19,0.19 0.5,0.19 0.7,0 0.19,-0.2 0.19,-0.51 0,-0.7z"/>
     <path id="24" class="fil9" d="M5.64 4.95c0.19,0.19 0.19,0.5 0,0.69 -0.19,0.19 -0.5,0.19 -0.69,0 -0.19,-0.19 -0.19,-0.5 0,-0.69 0.19,-0.19 0.5,-0.19 0.69,0zm0.02 -0.02c-0.2,-0.2 -0.53,-0.2 -0.73,0 -0.2,0.2 -0.2,0.53 0,0.73 0.2,0.2 0.53,0.2 0.73,0 0.2,-0.2 0.2,-0.53 0,-0.73z"/>
     <path id="25" class="fil9" d="M5.65 4.94c0.2,0.2 0.2,0.52 0,0.71 -0.19,0.2 -0.51,0.2 -0.71,0 -0.2,-0.19 -0.2,-0.51 0,-0.71 0.2,-0.2 0.52,-0.2 0.71,0zm0.03 -0.02c-0.21,-0.22 -0.55,-0.22 -0.76,0 -0.22,0.21 -0.22,0.55 0,0.76 0.21,0.21 0.55,0.21 0.76,0 0.21,-0.21 0.21,-0.55 0,-0.76z"/>
     <path id="26" class="fil9" d="M5.67 4.92c0.21,0.21 0.21,0.54 0,0.75 -0.21,0.21 -0.54,0.21 -0.75,0 -0.2,-0.21 -0.2,-0.54 0,-0.75 0.21,-0.2 0.54,-0.2 0.75,0zm0.02 -0.02c-0.22,-0.22 -0.57,-0.22 -0.79,0 -0.22,0.22 -0.22,0.57 0,0.79 0.22,0.22 0.57,0.22 0.79,0 0.22,-0.22 0.22,-0.57 0,-0.79z"/>
     <path id="27" class="fil9" d="M5.68 4.91c0.22,0.21 0.22,0.56 0,0.77 -0.21,0.22 -0.56,0.22 -0.77,0 -0.22,-0.21 -0.22,-0.56 0,-0.77 0.21,-0.22 0.56,-0.22 0.77,0zm0.03 -0.02c-0.23,-0.23 -0.6,-0.23 -0.82,0 -0.23,0.22 -0.23,0.59 0,0.82 0.22,0.22 0.59,0.22 0.82,0 0.22,-0.23 0.22,-0.6 0,-0.82z"/>
     <path id="28" class="fil10" d="M5.7 4.89c0.22,0.23 0.22,0.59 0,0.81 -0.22,0.22 -0.58,0.22 -0.81,0 -0.22,-0.22 -0.22,-0.58 0,-0.81 0.23,-0.22 0.59,-0.22 0.81,0zm0.02 -0.02c-0.23,-0.23 -0.61,-0.23 -0.85,0 -0.23,0.24 -0.23,0.62 0,0.85 0.24,0.24 0.62,0.24 0.85,0 0.24,-0.23 0.24,-0.61 0,-0.85z"/>
     <path id="29" class="fil10" d="M5.71 4.88c0.23,0.23 0.23,0.6 0,0.83 -0.23,0.23 -0.6,0.23 -0.83,0 -0.23,-0.23 -0.23,-0.6 0,-0.83 0.23,-0.23 0.6,-0.23 0.83,0zm0.03 -0.02c-0.25,-0.25 -0.64,-0.25 -0.88,0 -0.25,0.24 -0.25,0.63 0,0.88 0.24,0.24 0.63,0.24 0.88,0 0.24,-0.25 0.24,-0.64 0,-0.88z"/>
     <path id="30" class="fil10" d="M5.73 4.86c0.24,0.24 0.24,0.63 0,0.87 -0.24,0.24 -0.63,0.24 -0.87,0 -0.24,-0.24 -0.24,-0.63 0,-0.87 0.24,-0.24 0.63,-0.24 0.87,0zm0.02 -0.02c-0.25,-0.25 -0.66,-0.25 -0.91,0 -0.25,0.25 -0.25,0.66 0,0.91 0.25,0.25 0.66,0.25 0.91,0 0.25,-0.25 0.25,-0.66 0,-0.91z"/>
     <path id="31" class="fil11" d="M5.74 4.85c0.25,0.25 0.25,0.65 0,0.89 -0.24,0.25 -0.64,0.25 -0.89,0 -0.25,-0.24 -0.25,-0.64 0,-0.89 0.25,-0.25 0.65,-0.25 0.89,0zm0.03 -0.02c-0.26,-0.26 -0.68,-0.26 -0.94,0 -0.26,0.26 -0.26,0.68 0,0.94 0.26,0.26 0.68,0.26 0.94,0 0.26,-0.26 0.26,-0.68 0,-0.94z"/>
     <path id="32" class="fil11" d="M5.76 4.83c0.25,0.26 0.25,0.67 0,0.93 -0.26,0.25 -0.67,0.25 -0.93,0 -0.25,-0.26 -0.25,-0.67 0,-0.93 0.26,-0.25 0.67,-0.25 0.93,0zm0.02 -0.02c-0.27,-0.27 -0.7,-0.27 -0.97,0 -0.27,0.27 -0.27,0.7 0,0.97 0.27,0.27 0.7,0.27 0.97,0 0.27,-0.27 0.27,-0.7 0,-0.97z"/>
     <path id="33" class="fil11" d="M5.77 4.82c0.27,0.26 0.27,0.69 0,0.95 -0.26,0.27 -0.69,0.27 -0.95,0 -0.27,-0.26 -0.27,-0.69 0,-0.95 0.26,-0.27 0.69,-0.27 0.95,0zm0.03 -0.02c-0.28,-0.28 -0.73,-0.28 -1,0 -0.28,0.27 -0.28,0.72 0,1 0.27,0.27 0.72,0.27 1,0 0.27,-0.28 0.27,-0.73 0,-1z"/>
     <path id="34" class="fil11" d="M5.79 4.8c0.27,0.28 0.27,0.72 0,0.99 -0.27,0.27 -0.71,0.27 -0.99,0 -0.27,-0.27 -0.27,-0.71 0,-0.99 0.28,-0.27 0.72,-0.27 0.99,0zm0.02 -0.02c-0.28,-0.28 -0.74,-0.28 -1.03,0 -0.28,0.29 -0.28,0.75 0,1.03 0.29,0.29 0.75,0.29 1.03,0 0.29,-0.28 0.29,-0.74 0,-1.03z"/>
     <path id="35" class="fil11" d="M5.8 4.79c0.28,0.28 0.28,0.73 0,1.01 -0.28,0.28 -0.73,0.28 -1.01,0 -0.28,-0.28 -0.28,-0.73 0,-1.01 0.28,-0.28 0.73,-0.28 1.01,0zm0.03 -0.02c-0.3,-0.3 -0.77,-0.3 -1.06,0 -0.3,0.29 -0.3,0.76 0,1.06 0.29,0.29 0.76,0.29 1.06,0 0.29,-0.3 0.29,-0.77 0,-1.06z"/>
     <path id="36" class="fil11" d="M5.82 4.77c0.29,0.29 0.29,0.76 0,1.05 -0.29,0.29 -0.76,0.29 -1.05,0 -0.29,-0.29 -0.29,-0.76 0,-1.05 0.29,-0.29 0.76,-0.29 1.05,0zm0.02 -0.02c-0.3,-0.3 -0.79,-0.3 -1.09,0 -0.3,0.3 -0.3,0.79 0,1.09 0.3,0.3 0.79,0.3 1.09,0 0.3,-0.3 0.3,-0.79 0,-1.09z"/>
     <path id="37" class="fil12" d="M5.83 4.76c0.3,0.3 0.3,0.78 0,1.07 -0.29,0.3 -0.77,0.3 -1.07,0 -0.3,-0.29 -0.3,-0.77 0,-1.07 0.3,-0.3 0.78,-0.3 1.07,0zm0.03 -0.02c-0.31,-0.31 -0.81,-0.31 -1.12,0 -0.31,0.31 -0.31,0.81 0,1.12 0.31,0.3 0.81,0.3 1.12,0 0.3,-0.31 0.3,-0.81 0,-1.12z"/>
     <path id="38" class="fil13" d="M5.85 4.74c0.3,0.31 0.3,0.8 0,1.11 -0.31,0.3 -0.8,0.3 -1.11,0 -0.3,-0.31 -0.3,-0.8 0,-1.11 0.31,-0.3 0.8,-0.3 1.11,0zm0.02 -0.02c-0.32,-0.32 -0.83,-0.32 -1.15,0 -0.32,0.32 -0.32,0.83 0,1.15 0.32,0.32 0.83,0.32 1.15,0 0.32,-0.32 0.32,-0.83 0,-1.15z"/>
     <path id="39" class="fil13" d="M5.86 4.73c0.32,0.31 0.32,0.82 0,1.13 -0.31,0.32 -0.82,0.32 -1.13,0 -0.31,-0.31 -0.31,-0.82 0,-1.13 0.31,-0.31 0.82,-0.31 1.13,0zm0.03 -0.02c-0.33,-0.33 -0.86,-0.33 -1.18,0 -0.33,0.32 -0.33,0.85 0,1.18 0.32,0.32 0.85,0.32 1.18,0 0.32,-0.33 0.32,-0.86 0,-1.18z"/>
     <path id="40" class="fil13" d="M5.88 4.71c0.32,0.33 0.32,0.85 0,1.17 -0.32,0.32 -0.84,0.32 -1.17,0 -0.32,-0.32 -0.32,-0.84 0,-1.17 0.33,-0.32 0.85,-0.32 1.17,0zm0.02 -0.02c-0.33,-0.33 -0.87,-0.33 -1.21,0 -0.33,0.34 -0.33,0.88 0,1.21 0.34,0.33 0.88,0.33 1.21,0 0.33,-0.33 0.33,-0.87 0,-1.21z"/>
     <path id="41" class="fil13" d="M5.89 4.7c0.33,0.33 0.33,0.86 0,1.19 -0.33,0.33 -0.86,0.33 -1.19,0 -0.33,-0.33 -0.33,-0.86 0,-1.19 0.33,-0.33 0.86,-0.33 1.19,0zm0.03 -0.02c-0.35,-0.35 -0.9,-0.35 -1.24,0 -0.35,0.34 -0.35,0.89 0,1.24 0.34,0.34 0.89,0.34 1.24,0 0.34,-0.35 0.34,-0.9 0,-1.24z"/>
     <path id="42" class="fil13" d="M5.91 4.68c0.34,0.34 0.34,0.89 0,1.23 -0.34,0.34 -0.89,0.34 -1.23,0 -0.33,-0.34 -0.33,-0.89 0,-1.23 0.34,-0.33 0.89,-0.33 1.23,0zm0.02 -0.02c-0.35,-0.35 -0.92,-0.35 -1.27,0 -0.35,0.35 -0.35,0.92 0,1.27 0.35,0.35 0.92,0.35 1.27,0 0.35,-0.35 0.35,-0.92 0,-1.27z"/>
     <path id="43" class="fil14" d="M5.92 4.67c0.35,0.35 0.35,0.91 0,1.25 -0.34,0.35 -0.9,0.35 -1.25,0 -0.35,-0.34 -0.35,-0.9 0,-1.25 0.35,-0.35 0.91,-0.35 1.25,0zm0.03 -0.02c-0.36,-0.36 -0.94,-0.36 -1.3,0 -0.36,0.36 -0.36,0.94 0,1.3 0.36,0.35 0.94,0.35 1.3,0 0.35,-0.36 0.35,-0.94 0,-1.3z"/>
     <path id="44" class="fil14" d="M5.94 4.65c0.35,0.36 0.35,0.93 0,1.29 -0.36,0.35 -0.93,0.35 -1.29,0 -0.35,-0.36 -0.35,-0.93 0,-1.29 0.36,-0.35 0.93,-0.35 1.29,0zm0.02 -0.02c-0.37,-0.37 -0.96,-0.37 -1.33,0 -0.37,0.37 -0.37,0.96 0,1.33 0.37,0.37 0.96,0.37 1.33,0 0.37,-0.37 0.37,-0.96 0,-1.33z"/>
     <path id="45" class="fil15" d="M5.95 4.64c0.37,0.36 0.37,0.95 0,1.31 -0.36,0.37 -0.95,0.37 -1.31,0 -0.36,-0.36 -0.36,-0.95 0,-1.31 0.36,-0.36 0.95,-0.36 1.31,0zm0.02 -0.02c-0.37,-0.38 -0.98,-0.38 -1.35,0 -0.38,0.37 -0.38,0.98 0,1.35 0.37,0.38 0.98,0.38 1.35,0 0.38,-0.37 0.38,-0.98 0,-1.35z"/>
     <path id="46" class="fil16" d="M5.97 4.62c0.37,0.38 0.37,0.98 0,1.35 -0.37,0.37 -0.97,0.37 -1.35,0 -0.37,-0.37 -0.37,-0.97 0,-1.35 0.38,-0.37 0.98,-0.37 1.35,0zm0.02 -0.02c-0.38,-0.38 -1,-0.38 -1.39,0 -0.38,0.39 -0.38,1.01 0,1.39 0.39,0.38 1.01,0.38 1.39,0 0.38,-0.38 0.38,-1 0,-1.39z"/>
     <path id="47" class="fil16" d="M5.98 4.61c0.38,0.38 0.38,0.99 0,1.37 -0.38,0.38 -0.99,0.38 -1.37,0 -0.38,-0.38 -0.38,-0.99 0,-1.37 0.38,-0.38 0.99,-0.38 1.37,0zm0.02 -0.02c-0.39,-0.39 -1.02,-0.39 -1.41,0 -0.39,0.39 -0.39,1.02 0,1.41 0.39,0.4 1.02,0.4 1.41,0 0.4,-0.39 0.4,-1.02 0,-1.41z"/>
     <path id="48" class="fil16" d="M6 4.59c0.38,0.39 0.38,1.02 0,1.41 -0.39,0.38 -1.02,0.38 -1.41,0 -0.38,-0.39 -0.38,-1.02 0,-1.41 0.39,-0.38 1.02,-0.38 1.41,0zm0.02 -0.02c-0.4,-0.4 -1.05,-0.4 -1.45,0 -0.4,0.4 -0.4,1.05 0,1.45 0.4,0.4 1.05,0.4 1.45,0 0.4,-0.4 0.4,-1.05 0,-1.45z"/>
     <path id="49" class="fil17" d="M6.01 4.58c0.4,0.4 0.4,1.04 0,1.43 -0.39,0.4 -1.03,0.4 -1.43,0 -0.4,-0.39 -0.4,-1.03 0,-1.43 0.4,-0.4 1.04,-0.4 1.43,0zm0.02 -0.02c-0.4,-0.41 -1.06,-0.41 -1.47,0 -0.41,0.41 -0.41,1.07 0,1.47 0.41,0.41 1.07,0.41 1.47,0 0.41,-0.4 0.41,-1.06 0,-1.47z"/>
     <path id="50" class="fil17" d="M6.03 4.56c0.4,0.41 0.4,1.06 0,1.47 -0.41,0.4 -1.06,0.4 -1.47,0 -0.4,-0.41 -0.4,-1.06 0,-1.47 0.41,-0.4 1.06,-0.4 1.47,0zm0.02 -0.02c-0.42,-0.41 -1.09,-0.41 -1.51,0 -0.41,0.42 -0.41,1.09 0,1.51 0.42,0.42 1.09,0.42 1.51,0 0.42,-0.42 0.42,-1.09 0,-1.51z"/>
     <path id="51" class="fil17" d="M6.04 4.55c0.41,0.41 0.41,1.08 0,1.49 -0.41,0.41 -1.08,0.41 -1.49,0 -0.41,-0.41 -0.41,-1.08 0,-1.49 0.41,-0.41 1.08,-0.41 1.49,0zm0.02 -0.02c-0.42,-0.43 -1.11,-0.43 -1.53,0 -0.43,0.42 -0.43,1.11 0,1.53 0.42,0.43 1.11,0.43 1.53,0 0.43,-0.42 0.43,-1.11 0,-1.53z"/>
     <path id="52" class="fil18" d="M6.06 4.53c0.42,0.43 0.42,1.11 0,1.53 -0.42,0.42 -1.1,0.42 -1.53,0 -0.42,-0.42 -0.42,-1.1 0,-1.53 0.43,-0.42 1.11,-0.42 1.53,0zm0.02 -0.02c-0.43,-0.43 -1.14,-0.43 -1.57,0 -0.43,0.43 -0.43,1.14 0,1.57 0.43,0.43 1.14,0.43 1.57,0 0.43,-0.43 0.43,-1.14 0,-1.57z"/>
     <path id="53" class="fil18" d="M6.07 4.52c0.43,0.43 0.43,1.12 0,1.55 -0.43,0.43 -1.12,0.43 -1.55,0 -0.43,-0.43 -0.43,-1.12 0,-1.55 0.43,-0.43 1.12,-0.43 1.55,0zm0.02 -0.02c-0.44,-0.44 -1.15,-0.44 -1.59,0 -0.44,0.44 -0.44,1.15 0,1.59 0.44,0.45 1.15,0.45 1.59,0 0.45,-0.44 0.45,-1.15 0,-1.59z"/>
     <path id="54" class="fil19" d="M6.09 4.5c0.43,0.44 0.43,1.15 0,1.59 -0.44,0.43 -1.15,0.43 -1.59,0 -0.43,-0.44 -0.43,-1.15 0,-1.59 0.44,-0.43 1.15,-0.43 1.59,0zm0.02 -0.02c-0.45,-0.45 -1.18,-0.45 -1.63,0 -0.45,0.45 -0.45,1.18 0,1.63 0.45,0.45 1.18,0.45 1.63,0 0.45,-0.45 0.45,-1.18 0,-1.63z"/>
     <path id="55" class="fil19" d="M6.1 4.49c0.45,0.45 0.45,1.17 0,1.61 -0.44,0.45 -1.16,0.45 -1.61,0 -0.45,-0.44 -0.45,-1.16 0,-1.61 0.45,-0.45 1.17,-0.45 1.61,0zm0.02 -0.02c-0.45,-0.46 -1.2,-0.46 -1.65,0 -0.46,0.45 -0.46,1.2 0,1.65 0.45,0.46 1.2,0.46 1.65,0 0.46,-0.45 0.46,-1.2 0,-1.65z"/>
     <path id="56" class="fil19" d="M6.12 4.47c0.45,0.46 0.45,1.19 0,1.65 -0.46,0.45 -1.19,0.45 -1.65,0 -0.45,-0.46 -0.45,-1.19 0,-1.65 0.46,-0.45 1.19,-0.45 1.65,0zm0.02 -0.02c-0.47,-0.46 -1.22,-0.46 -1.69,0 -0.46,0.47 -0.46,1.22 0,1.69 0.47,0.46 1.22,0.46 1.69,0 0.46,-0.47 0.46,-1.22 0,-1.69z"/>
     <path id="57" class="fil20" d="M6.13 4.46c0.46,0.46 0.46,1.21 0,1.67 -0.46,0.46 -1.21,0.46 -1.67,0 -0.46,-0.46 -0.46,-1.21 0,-1.67 0.46,-0.46 1.21,-0.46 1.67,0zm0.02 -0.02c-0.47,-0.48 -1.24,-0.48 -1.71,0 -0.48,0.47 -0.48,1.24 0,1.71 0.47,0.48 1.24,0.48 1.71,0 0.48,-0.47 0.48,-1.24 0,-1.71z"/>
     <path id="58" class="fil21" d="M6.15 4.45c0.47,0.46 0.47,1.23 0,1.7 -0.47,0.47 -1.24,0.47 -1.71,0 -0.46,-0.47 -0.46,-1.24 0,-1.7 0.47,-0.47 1.24,-0.47 1.71,0zm0.02 -0.03c-0.48,-0.48 -1.27,-0.48 -1.75,0 -0.48,0.48 -0.48,1.27 0,1.75 0.48,0.48 1.27,0.48 1.75,0 0.48,-0.48 0.48,-1.27 0,-1.75z"/>
     <path id="59" class="fil21" d="M6.16 4.43c0.48,0.48 0.48,1.25 0,1.73 -0.48,0.48 -1.25,0.48 -1.73,0 -0.48,-0.48 -0.48,-1.25 0,-1.73 0.48,-0.48 1.25,-0.48 1.73,0zm0.02 -0.02c-0.49,-0.49 -1.28,-0.49 -1.77,0 -0.49,0.49 -0.49,1.28 0,1.77 0.49,0.49 1.28,0.49 1.77,0 0.49,-0.49 0.49,-1.28 0,-1.77z"/>
     <path id="60" class="fil22" d="M6.18 4.42c0.48,0.48 0.48,1.27 0,1.76 -0.49,0.48 -1.28,0.48 -1.76,0 -0.49,-0.49 -0.49,-1.28 0,-1.76 0.48,-0.49 1.27,-0.49 1.76,0zm0.02 -0.03c-0.5,-0.5 -1.31,-0.5 -1.81,0 -0.5,0.5 -0.5,1.31 0,1.81 0.5,0.5 1.31,0.5 1.81,0 0.5,-0.5 0.5,-1.31 0,-1.81z"/>
     <path id="61" class="fil22" d="M6.19 4.4c0.5,0.49 0.5,1.3 0,1.79 -0.49,0.5 -1.3,0.5 -1.79,0 -0.49,-0.49 -0.49,-1.3 0,-1.79 0.49,-0.49 1.3,-0.49 1.79,0zm0.02 -0.02c-0.5,-0.51 -1.33,-0.51 -1.83,0 -0.51,0.5 -0.51,1.33 0,1.83 0.5,0.51 1.33,0.51 1.83,0 0.51,-0.5 0.51,-1.33 0,-1.83z"/>
     <path id="62" class="fil23" d="M6.21 4.39c0.5,0.5 0.5,1.31 0,1.82 -0.51,0.5 -1.32,0.5 -1.82,0 -0.51,-0.51 -0.51,-1.32 0,-1.82 0.5,-0.51 1.31,-0.51 1.82,0zm0.02 -0.03c-0.52,-0.51 -1.35,-0.51 -1.87,0 -0.51,0.52 -0.51,1.35 0,1.87 0.52,0.51 1.35,0.51 1.87,0 0.51,-0.52 0.51,-1.35 0,-1.87z"/>
     <path id="63" class="fil23" d="M6.22 4.37c0.51,0.51 0.51,1.34 0,1.85 -0.51,0.51 -1.34,0.51 -1.85,0 -0.51,-0.51 -0.51,-1.34 0,-1.85 0.51,-0.51 1.34,-0.51 1.85,0zm0.02 -0.02c-0.52,-0.53 -1.37,-0.53 -1.89,0 -0.53,0.52 -0.53,1.37 0,1.89 0.52,0.53 1.37,0.53 1.89,0 0.53,-0.52 0.53,-1.37 0,-1.89z"/>
     <path id="64" class="fil24" d="M6.24 4.36c0.52,0.51 0.52,1.36 0,1.88 -0.52,0.52 -1.37,0.52 -1.88,0 -0.52,-0.52 -0.52,-1.37 0,-1.88 0.51,-0.52 1.36,-0.52 1.88,0zm0.02 -0.03c-0.53,-0.53 -1.4,-0.53 -1.93,0 -0.53,0.53 -0.53,1.4 0,1.93 0.53,0.53 1.4,0.53 1.93,0 0.53,-0.53 0.53,-1.4 0,-1.93z"/>
     <path id="65" class="fil24" d="M6.25 4.34c0.53,0.53 0.53,1.38 0,1.91 -0.53,0.53 -1.38,0.53 -1.91,0 -0.53,-0.53 -0.53,-1.38 0,-1.91 0.53,-0.53 1.38,-0.53 1.91,0zm0.02 -0.02c-0.54,-0.54 -1.41,-0.54 -1.95,0 -0.54,0.54 -0.54,1.41 0,1.95 0.54,0.54 1.41,0.54 1.95,0 0.54,-0.54 0.54,-1.41 0,-1.95z"/>
     <path id="66" class="fil24" d="M6.27 4.33c0.53,0.53 0.53,1.4 0,1.94 -0.54,0.53 -1.41,0.53 -1.94,0 -0.54,-0.54 -0.54,-1.41 0,-1.94 0.53,-0.54 1.4,-0.54 1.94,0zm0.02 -0.03c-0.55,-0.54 -1.44,-0.54 -1.99,0 -0.54,0.55 -0.54,1.44 0,1.99 0.55,0.55 1.44,0.55 1.99,0 0.55,-0.55 0.55,-1.44 0,-1.99z"/>
     <path id="67" class="fil24" d="M6.28 4.31c0.55,0.54 0.55,1.43 0,1.97 -0.54,0.55 -1.43,0.55 -1.97,0 -0.54,-0.54 -0.54,-1.43 0,-1.97 0.54,-0.54 1.43,-0.54 1.97,0zm0.02 -0.02c-0.55,-0.56 -1.46,-0.56 -2.01,0 -0.56,0.55 -0.56,1.46 0,2.01 0.55,0.56 1.46,0.56 2.01,0 0.56,-0.55 0.56,-1.46 0,-2.01z"/>
     <path id="68" class="fil24" d="M6.3 4.3c0.55,0.55 0.55,1.44 0,2 -0.56,0.55 -1.45,0.55 -2,0 -0.56,-0.56 -0.56,-1.45 0,-2 0.55,-0.56 1.44,-0.56 2,0zm0.02 -0.03c-0.57,-0.56 -1.48,-0.56 -2.05,0 -0.56,0.57 -0.56,1.48 0,2.05 0.57,0.56 1.48,0.56 2.05,0 0.56,-0.57 0.56,-1.48 0,-2.05z"/>
     <path id="69" class="fil25" d="M6.31 4.28c0.56,0.56 0.56,1.47 0,2.03 -0.56,0.56 -1.47,0.56 -2.03,0 -0.56,-0.56 -0.56,-1.47 0,-2.03 0.56,-0.56 1.47,-0.56 2.03,0zm0.02 -0.02c-0.57,-0.57 -1.5,-0.57 -2.07,0 -0.57,0.57 -0.57,1.5 0,2.07 0.57,0.58 1.5,0.58 2.07,0 0.58,-0.57 0.58,-1.5 0,-2.07z"/>
     <path id="70" class="fil26" d="M6.33 4.27c0.56,0.56 0.56,1.49 0,2.06 -0.57,0.56 -1.5,0.56 -2.06,0 -0.57,-0.57 -0.57,-1.5 0,-2.06 0.56,-0.57 1.49,-0.57 2.06,0zm0.02 -0.03c-0.58,-0.58 -1.53,-0.58 -2.11,0 -0.58,0.58 -0.58,1.53 0,2.11 0.58,0.58 1.53,0.58 2.11,0 0.58,-0.58 0.58,-1.53 0,-2.11z"/>
     <path id="71" class="fil26" d="M6.34 4.25c0.58,0.58 0.58,1.51 0,2.09 -0.58,0.58 -1.51,0.58 -2.09,0 -0.58,-0.58 -0.58,-1.51 0,-2.09 0.58,-0.58 1.51,-0.58 2.09,0zm0.02 -0.02c-0.59,-0.59 -1.54,-0.59 -2.13,0 -0.59,0.59 -0.59,1.54 0,2.13 0.59,0.59 1.54,0.59 2.13,0 0.59,-0.59 0.59,-1.54 0,-2.13z"/>
     <path id="72" class="fil26" d="M6.36 4.24c0.58,0.58 0.58,1.53 0,2.12 -0.59,0.58 -1.54,0.58 -2.12,0 -0.59,-0.59 -0.59,-1.54 0,-2.12 0.58,-0.59 1.53,-0.59 2.12,0zm0.02 -0.03c-0.6,-0.59 -1.57,-0.59 -2.17,0 -0.59,0.6 -0.59,1.57 0,2.17 0.6,0.6 1.57,0.6 2.17,0 0.6,-0.6 0.6,-1.57 0,-2.17z"/>
     <path id="73" class="fil26" d="M6.37 4.22c0.59,0.59 0.59,1.56 0,2.15 -0.59,0.59 -1.56,0.59 -2.15,0 -0.59,-0.59 -0.59,-1.56 0,-2.15 0.59,-0.59 1.56,-0.59 2.15,0zm0.02 -0.02c-0.6,-0.61 -1.59,-0.61 -2.19,0 -0.61,0.6 -0.61,1.59 0,2.19 0.6,0.61 1.59,0.61 2.19,0 0.61,-0.6 0.61,-1.59 0,-2.19z"/>
     <path id="74" class="fil27" d="M6.39 4.21c0.6,0.6 0.6,1.57 0,2.18 -0.61,0.6 -1.58,0.6 -2.18,0 -0.61,-0.61 -0.61,-1.58 0,-2.18 0.6,-0.61 1.57,-0.61 2.18,0zm0.02 -0.03c-0.62,-0.61 -1.61,-0.61 -2.23,0 -0.61,0.62 -0.61,1.61 0,2.23 0.62,0.61 1.61,0.61 2.23,0 0.61,-0.62 0.61,-1.61 0,-2.23z"/>
     <path id="75" class="fil28" d="M6.4 4.19c0.61,0.61 0.61,1.6 0,2.21 -0.61,0.61 -1.6,0.61 -2.21,0 -0.61,-0.61 -0.61,-1.6 0,-2.21 0.61,-0.61 1.6,-0.61 2.21,0zm0.02 -0.02c-0.62,-0.62 -1.63,-0.62 -2.25,0 -0.62,0.62 -0.62,1.63 0,2.25 0.62,0.63 1.63,0.63 2.25,0 0.63,-0.62 0.63,-1.63 0,-2.25z"/>
     <path id="76" class="fil28" d="M6.42 4.18c0.61,0.61 0.61,1.62 0,2.24 -0.62,0.61 -1.63,0.61 -2.24,0 -0.62,-0.62 -0.62,-1.63 0,-2.24 0.61,-0.62 1.62,-0.62 2.24,0zm0.02 -0.03c-0.63,-0.63 -1.66,-0.63 -2.29,0 -0.63,0.63 -0.63,1.66 0,2.29 0.63,0.63 1.66,0.63 2.29,0 0.63,-0.63 0.63,-1.66 0,-2.29z"/>
     <path id="77" class="fil28" d="M6.43 4.16c0.63,0.63 0.63,1.64 0,2.27 -0.63,0.63 -1.64,0.63 -2.27,0 -0.63,-0.63 -0.63,-1.64 0,-2.27 0.63,-0.63 1.64,-0.63 2.27,0zm0.02 -0.02c-0.64,-0.64 -1.67,-0.64 -2.31,0 -0.64,0.64 -0.64,1.67 0,2.31 0.64,0.64 1.67,0.64 2.31,0 0.64,-0.64 0.64,-1.67 0,-2.31z"/>
     <path id="78" class="fil28" d="M6.45 4.15c0.63,0.63 0.63,1.66 0,2.3 -0.64,0.63 -1.67,0.63 -2.3,0 -0.64,-0.64 -0.64,-1.67 0,-2.3 0.63,-0.64 1.66,-0.64 2.3,0zm0.02 -0.03c-0.65,-0.64 -1.7,-0.64 -2.35,0 -0.64,0.65 -0.64,1.7 0,2.35 0.65,0.64 1.7,0.64 2.35,0 0.64,-0.65 0.64,-1.7 0,-2.35z"/>
     <path id="79" class="fil29" d="M6.46 4.13c0.64,0.64 0.64,1.69 0,2.33 -0.64,0.64 -1.69,0.64 -2.33,0 -0.64,-0.64 -0.64,-1.69 0,-2.33 0.64,-0.64 1.69,-0.64 2.33,0zm0.02 -0.02c-0.65,-0.66 -1.72,-0.66 -2.37,0 -0.66,0.65 -0.66,1.72 0,2.37 0.65,0.66 1.72,0.66 2.37,0 0.66,-0.65 0.66,-1.72 0,-2.37z"/>
     <path id="80" class="fil30" d="M6.48 4.12c0.65,0.65 0.65,1.7 0,2.36 -0.66,0.65 -1.71,0.65 -2.36,0 -0.65,-0.66 -0.65,-1.71 0,-2.36 0.65,-0.65 1.7,-0.65 2.36,0zm0.02 -0.03c-0.67,-0.66 -1.74,-0.66 -2.41,0 -0.66,0.67 -0.66,1.74 0,2.41 0.67,0.66 1.74,0.66 2.41,0 0.66,-0.67 0.66,-1.74 0,-2.41z"/>
     <path id="81" class="fil31" d="M6.49 4.1c0.66,0.66 0.66,1.73 0,2.39 -0.66,0.66 -1.73,0.66 -2.39,0 -0.66,-0.66 -0.66,-1.73 0,-2.39 0.66,-0.66 1.73,-0.66 2.39,0zm0.02 -0.02c-0.67,-0.67 -1.76,-0.67 -2.43,0 -0.67,0.67 -0.67,1.76 0,2.43 0.67,0.67 1.76,0.67 2.43,0 0.67,-0.67 0.67,-1.76 0,-2.43z"/>
     <path id="82" class="fil31" d="M6.5 4.09c0.67,0.66 0.67,1.75 0,2.41 -0.66,0.67 -1.75,0.67 -2.41,0 -0.67,-0.66 -0.67,-1.75 0,-2.41 0.66,-0.67 1.75,-0.67 2.41,0zm0.03 -0.03c-0.68,-0.68 -1.79,-0.68 -2.47,0 -0.68,0.68 -0.68,1.79 0,2.47 0.68,0.68 1.79,0.68 2.47,0 0.68,-0.68 0.68,-1.79 0,-2.47z"/>
     <path id="83" class="fil31" d="M6.52 4.07c0.68,0.68 0.68,1.77 0,2.45 -0.68,0.68 -1.77,0.68 -2.45,0 -0.67,-0.68 -0.67,-1.77 0,-2.45 0.68,-0.67 1.77,-0.67 2.45,0zm0.02 -0.02c-0.69,-0.69 -1.8,-0.69 -2.49,0 -0.69,0.69 -0.69,1.8 0,2.49 0.69,0.69 1.8,0.69 2.49,0 0.69,-0.69 0.69,-1.8 0,-2.49z"/>
     <path id="84" class="fil32" d="M6.53 4.06c0.69,0.68 0.69,1.79 0,2.47 -0.68,0.69 -1.79,0.69 -2.47,0 -0.69,-0.68 -0.69,-1.79 0,-2.47 0.68,-0.69 1.79,-0.69 2.47,0zm0.03 -0.03c-0.7,-0.69 -1.83,-0.69 -2.53,0 -0.69,0.7 -0.69,1.83 0,2.53 0.7,0.69 1.83,0.69 2.53,0 0.69,-0.7 0.69,-1.83 0,-2.53z"/>
     <path id="85" class="fil32" d="M6.55 4.04c0.69,0.69 0.69,1.82 0,2.51 -0.69,0.69 -1.82,0.69 -2.51,0 -0.69,-0.69 -0.69,-1.82 0,-2.51 0.69,-0.69 1.82,-0.69 2.51,0zm0.02 -0.02c-0.7,-0.71 -1.85,-0.71 -2.55,0 -0.71,0.7 -0.71,1.85 0,2.55 0.7,0.71 1.85,0.71 2.55,0 0.71,-0.7 0.71,-1.85 0,-2.55z"/>
     <path id="86" class="fil32" d="M6.56 4.03c0.71,0.7 0.71,1.83 0,2.53 -0.7,0.71 -1.83,0.71 -2.53,0 -0.7,-0.7 -0.7,-1.83 0,-2.53 0.7,-0.7 1.83,-0.7 2.53,0zm0.03 -0.03c-0.72,-0.71 -1.87,-0.71 -2.59,0 -0.71,0.72 -0.71,1.87 0,2.59 0.72,0.71 1.87,0.71 2.59,0 0.71,-0.72 0.71,-1.87 0,-2.59z"/>
     <path id="87" class="fil33" d="M6.58 4.01c0.71,0.71 0.71,1.86 0,2.57 -0.71,0.71 -1.86,0.71 -2.57,0 -0.71,-0.71 -0.71,-1.86 0,-2.57 0.71,-0.71 1.86,-0.71 2.57,0zm0.02 -0.02c-0.72,-0.72 -1.89,-0.72 -2.61,0 -0.72,0.72 -0.72,1.89 0,2.61 0.72,0.72 1.89,0.72 2.61,0 0.72,-0.72 0.72,-1.89 0,-2.61z"/>
     <path id="88" class="fil33" d="M6.59 4c0.72,0.71 0.72,1.88 0,2.59 -0.71,0.72 -1.88,0.72 -2.59,0 -0.72,-0.71 -0.72,-1.88 0,-2.59 0.71,-0.72 1.88,-0.72 2.59,0zm0.03 -0.03c-0.73,-0.72 -1.92,-0.72 -2.65,0 -0.72,0.73 -0.72,1.92 0,2.65 0.73,0.73 1.92,0.73 2.65,0 0.73,-0.73 0.73,-1.92 0,-2.65z"/>
     <path id="89" class="fil34" d="M6.61 3.98c0.72,0.73 0.72,1.9 0,2.63 -0.73,0.72 -1.9,0.72 -2.63,0 -0.72,-0.73 -0.72,-1.9 0,-2.63 0.73,-0.72 1.9,-0.72 2.63,0zm0.02 -0.02c-0.74,-0.74 -1.93,-0.74 -2.67,0 -0.74,0.74 -0.74,1.93 0,2.67 0.74,0.74 1.93,0.74 2.67,0 0.74,-0.74 0.74,-1.93 0,-2.67z"/>
     <path id="90" class="fil34" d="M6.62 3.97c0.74,0.73 0.74,1.92 0,2.65 -0.73,0.74 -1.92,0.74 -2.65,0 -0.74,-0.73 -0.74,-1.92 0,-2.65 0.73,-0.74 1.92,-0.74 2.65,0zm0.03 -0.02c-0.75,-0.75 -1.96,-0.75 -2.7,0 -0.75,0.74 -0.75,1.95 0,2.7 0.74,0.74 1.95,0.74 2.7,0 0.74,-0.75 0.74,-1.96 0,-2.7z"/>
     <path id="91" class="fil34" d="M6.64 3.95c0.74,0.74 0.74,1.95 0,2.69 -0.74,0.74 -1.95,0.74 -2.69,0 -0.74,-0.74 -0.74,-1.95 0,-2.69 0.74,-0.74 1.95,-0.74 2.69,0zm0.02 -0.02c-0.75,-0.75 -1.98,-0.75 -2.73,0 -0.75,0.75 -0.75,1.98 0,2.73 0.75,0.76 1.98,0.76 2.73,0 0.76,-0.75 0.76,-1.98 0,-2.73z"/>
     <path id="92" class="fil34" d="M6.65 3.94c0.75,0.75 0.75,1.96 0,2.71 -0.75,0.75 -1.96,0.75 -2.71,0 -0.75,-0.75 -0.75,-1.96 0,-2.71 0.75,-0.75 1.96,-0.75 2.71,0zm0.03 -0.02c-0.77,-0.77 -2,-0.77 -2.76,0 -0.77,0.76 -0.77,1.99 0,2.76 0.76,0.76 1.99,0.76 2.76,0 0.76,-0.77 0.76,-2 0,-2.76z"/>
     <path id="93" class="fil35" d="M6.67 3.92c0.76,0.76 0.76,1.99 0,2.75 -0.76,0.76 -1.99,0.76 -2.75,0 -0.76,-0.76 -0.76,-1.99 0,-2.75 0.76,-0.76 1.99,-0.76 2.75,0zm0.02 -0.02c-0.77,-0.77 -2.02,-0.77 -2.79,0 -0.77,0.77 -0.77,2.02 0,2.79 0.77,0.77 2.02,0.77 2.79,0 0.77,-0.77 0.77,-2.02 0,-2.79z"/>
     <path id="94" class="fil35" d="M6.68 3.91c0.77,0.76 0.77,2.01 0,2.77 -0.76,0.77 -2.01,0.77 -2.77,0 -0.77,-0.76 -0.77,-2.01 0,-2.77 0.76,-0.77 2.01,-0.77 2.77,0zm0.03 -0.02c-0.78,-0.78 -2.05,-0.78 -2.82,0 -0.78,0.77 -0.78,2.04 0,2.82 0.77,0.78 2.04,0.78 2.82,0 0.78,-0.78 0.78,-2.05 0,-2.82z"/>
     <path id="95" class="fil36" d="M6.7 3.89c0.77,0.78 0.77,2.03 0,2.81 -0.78,0.77 -2.03,0.77 -2.81,0 -0.77,-0.78 -0.77,-2.03 0,-2.81 0.78,-0.77 2.03,-0.77 2.81,0zm0.02 -0.02c-0.79,-0.79 -2.06,-0.79 -2.85,0 -0.79,0.79 -0.79,2.06 0,2.85 0.79,0.79 2.06,0.79 2.85,0 0.79,-0.79 0.79,-2.06 0,-2.85z"/>
     <path id="96" class="fil36" d="M6.71 3.88c0.79,0.78 0.79,2.05 0,2.83 -0.78,0.79 -2.05,0.79 -2.83,0 -0.79,-0.78 -0.79,-2.05 0,-2.83 0.78,-0.79 2.05,-0.79 2.83,0zm0.03 -0.02c-0.8,-0.8 -2.09,-0.8 -2.88,0 -0.8,0.79 -0.8,2.08 0,2.88 0.79,0.79 2.08,0.79 2.88,0 0.79,-0.8 0.79,-2.09 0,-2.88z"/>
     <path id="97" class="fil37" d="M6.73 3.86c0.79,0.79 0.79,2.08 0,2.87 -0.79,0.79 -2.08,0.79 -2.87,0 -0.79,-0.79 -0.79,-2.08 0,-2.87 0.79,-0.79 2.08,-0.79 2.87,0zm0.02 -0.02c-0.8,-0.8 -2.11,-0.8 -2.91,0 -0.8,0.8 -0.8,2.11 0,2.91 0.8,0.8 2.11,0.8 2.91,0 0.8,-0.8 0.8,-2.11 0,-2.91z"/>
     <path id="98" class="fil38" d="M6.74 3.85c0.8,0.8 0.8,2.09 0,2.89 -0.8,0.8 -2.09,0.8 -2.89,0 -0.8,-0.8 -0.8,-2.09 0,-2.89 0.8,-0.8 2.09,-0.8 2.89,0zm0.03 -0.02c-0.82,-0.82 -2.13,-0.82 -2.94,0 -0.82,0.81 -0.82,2.12 0,2.94 0.81,0.81 2.12,0.81 2.94,0 0.81,-0.82 0.81,-2.13 0,-2.94z"/>
     <path id="99" class="fil38" d="M6.76 3.83c0.81,0.81 0.81,2.12 0,2.93 -0.81,0.81 -2.12,0.81 -2.93,0 -0.8,-0.81 -0.8,-2.12 0,-2.93 0.81,-0.8 2.12,-0.8 2.93,0zm0.02 -0.02c-0.82,-0.82 -2.15,-0.82 -2.97,0 -0.82,0.82 -0.82,2.15 0,2.97 0.82,0.82 2.15,0.82 2.97,0 0.82,-0.82 0.82,-2.15 0,-2.97z"/>
     <path id="100" class="fil38" d="M6.77 3.82c0.82,0.81 0.82,2.14 0,2.95 -0.81,0.82 -2.14,0.82 -2.95,0 -0.82,-0.81 -0.82,-2.14 0,-2.95 0.81,-0.82 2.14,-0.82 2.95,0zm0.03 -0.02c-0.83,-0.83 -2.18,-0.83 -3,0 -0.83,0.82 -0.83,2.17 0,3 0.82,0.82 2.17,0.82 3,0 0.82,-0.83 0.82,-2.18 0,-3z"/>
     <path id="101" class="fil39" d="M6.79 3.8c0.82,0.83 0.82,2.16 0,2.99 -0.83,0.82 -2.16,0.82 -2.99,0 -0.82,-0.83 -0.82,-2.16 0,-2.99 0.83,-0.82 2.16,-0.82 2.99,0zm0.02 -0.02c-0.84,-0.84 -2.19,-0.84 -3.03,0 -0.84,0.84 -0.84,2.19 0,3.03 0.84,0.84 2.19,0.84 3.03,0 0.84,-0.84 0.84,-2.19 0,-3.03z"/>
     <path id="102" class="fil40" d="M6.8 3.79c0.84,0.83 0.84,2.18 0,3.01 -0.83,0.84 -2.18,0.84 -3.01,0 -0.83,-0.83 -0.83,-2.18 0,-3.01 0.83,-0.83 2.18,-0.83 3.01,0zm0.03 -0.02c-0.85,-0.85 -2.22,-0.85 -3.06,0 -0.85,0.84 -0.85,2.21 0,3.06 0.84,0.84 2.21,0.84 3.06,0 0.84,-0.85 0.84,-2.22 0,-3.06z"/>
     <path id="103" class="fil41" d="M6.82 3.77c0.84,0.84 0.84,2.21 0,3.05 -0.84,0.84 -2.21,0.84 -3.05,0 -0.84,-0.84 -0.84,-2.21 0,-3.05 0.84,-0.84 2.21,-0.84 3.05,0zm0.02 -0.02c-0.85,-0.85 -2.24,-0.85 -3.09,0 -0.85,0.85 -0.85,2.24 0,3.09 0.85,0.85 2.24,0.85 3.09,0 0.85,-0.85 0.85,-2.24 0,-3.09z"/>
     <path id="104" class="fil41" d="M6.83 3.76c0.85,0.85 0.85,2.22 0,3.07 -0.85,0.85 -2.22,0.85 -3.07,0 -0.85,-0.85 -0.85,-2.22 0,-3.07 0.85,-0.85 2.22,-0.85 3.07,0zm0.03 -0.02c-0.87,-0.87 -2.26,-0.87 -3.12,0 -0.87,0.86 -0.87,2.25 0,3.12 0.86,0.86 2.25,0.86 3.12,0 0.86,-0.87 0.86,-2.26 0,-3.12z"/>
     <path id="105" class="fil42" d="M6.85 3.74c0.86,0.86 0.86,2.25 0,3.11 -0.86,0.86 -2.25,0.86 -3.11,0 -0.85,-0.86 -0.85,-2.25 0,-3.11 0.86,-0.85 2.25,-0.85 3.11,0zm0.02 -0.02c-0.87,-0.87 -2.28,-0.87 -3.15,0 -0.87,0.87 -0.87,2.28 0,3.15 0.87,0.87 2.28,0.87 3.15,0 0.87,-0.87 0.87,-2.28 0,-3.15z"/>
     <path id="106" class="fil43" d="M6.86 3.73c0.87,0.86 0.87,2.27 0,3.13 -0.86,0.87 -2.27,0.87 -3.13,0 -0.87,-0.86 -0.87,-2.27 0,-3.13 0.86,-0.87 2.27,-0.87 3.13,0zm0.03 -0.02c-0.88,-0.88 -2.31,-0.88 -3.18,0 -0.88,0.87 -0.88,2.3 0,3.18 0.87,0.87 2.3,0.87 3.18,0 0.87,-0.88 0.87,-2.31 0,-3.18z"/>
     <path id="107" class="fil44" d="M6.88 3.71c0.87,0.88 0.87,2.29 0,3.17 -0.88,0.87 -2.29,0.87 -3.17,0 -0.87,-0.88 -0.87,-2.29 0,-3.17 0.88,-0.87 2.29,-0.87 3.17,0zm0.02 -0.02c-0.89,-0.88 -2.32,-0.88 -3.21,0 -0.88,0.89 -0.88,2.32 0,3.21 0.89,0.89 2.32,0.89 3.21,0 0.89,-0.89 0.89,-2.32 0,-3.21z"/>
     <path id="108" class="fil45" d="M6.89 3.7c0.88,0.88 0.88,2.31 0,3.19 -0.88,0.88 -2.31,0.88 -3.19,0 -0.88,-0.88 -0.88,-2.31 0,-3.19 0.88,-0.88 2.31,-0.88 3.19,0zm0.03 -0.02c-0.9,-0.9 -2.35,-0.9 -3.24,0 -0.9,0.89 -0.9,2.34 0,3.24 0.89,0.89 2.34,0.89 3.24,0 0.89,-0.9 0.89,-2.35 0,-3.24z"/>
     <path id="109" class="fil45" d="M6.91 3.68c0.89,0.89 0.89,2.34 0,3.23 -0.89,0.89 -2.34,0.89 -3.23,0 -0.89,-0.89 -0.89,-2.34 0,-3.23 0.89,-0.89 2.34,-0.89 3.23,0zm0.02 -0.02c-0.9,-0.9 -2.37,-0.9 -3.27,0 -0.9,0.9 -0.9,2.37 0,3.27 0.9,0.9 2.37,0.9 3.27,0 0.9,-0.9 0.9,-2.37 0,-3.27z"/>
     <path id="110" class="fil45" d="M6.92 3.67c0.9,0.9 0.9,2.35 0,3.25 -0.9,0.9 -2.35,0.9 -3.25,0 -0.9,-0.9 -0.9,-2.35 0,-3.25 0.9,-0.9 2.35,-0.9 3.25,0zm0.03 -0.02c-0.92,-0.91 -2.39,-0.91 -3.3,0 -0.91,0.91 -0.91,2.38 0,3.3 0.91,0.91 2.38,0.91 3.3,0 0.91,-0.92 0.91,-2.39 0,-3.3z"/>
     <path id="111" class="fil45" d="M6.94 3.65c0.9,0.91 0.9,2.38 0,3.29 -0.91,0.9 -2.38,0.9 -3.29,0 -0.9,-0.91 -0.9,-2.38 0,-3.29 0.91,-0.9 2.38,-0.9 3.29,0zm0.02 -0.02c-0.92,-0.92 -2.41,-0.92 -3.33,0 -0.92,0.92 -0.92,2.41 0,3.33 0.92,0.92 2.41,0.92 3.33,0 0.92,-0.92 0.92,-2.41 0,-3.33z"/>
     <path id="112" class="fil46" d="M6.95 3.64c0.92,0.91 0.92,2.4 0,3.31 -0.91,0.92 -2.4,0.92 -3.31,0 -0.92,-0.91 -0.92,-2.4 0,-3.31 0.91,-0.92 2.4,-0.92 3.31,0zm0.03 -0.02c-0.93,-0.93 -2.44,-0.93 -3.36,0 -0.93,0.92 -0.93,2.43 0,3.36 0.92,0.92 2.43,0.92 3.36,0 0.92,-0.93 0.92,-2.44 0,-3.36z"/>
     <path id="113" class="fil47" d="M6.97 3.62c0.92,0.93 0.92,2.42 0,3.35 -0.93,0.92 -2.42,0.92 -3.35,0 -0.92,-0.93 -0.92,-2.42 0,-3.35 0.93,-0.92 2.42,-0.92 3.35,0zm0.02 -0.02c-0.94,-0.93 -2.45,-0.93 -3.39,0 -0.93,0.94 -0.93,2.45 0,3.39 0.94,0.94 2.45,0.94 3.39,0 0.94,-0.94 0.94,-2.45 0,-3.39z"/>
     <path id="114" class="fil48" d="M6.98 3.61c0.93,0.93 0.93,2.44 0,3.37 -0.93,0.93 -2.44,0.93 -3.37,0 -0.93,-0.93 -0.93,-2.44 0,-3.37 0.93,-0.93 2.44,-0.93 3.37,0zm0.02 -0.02c-0.94,-0.95 -2.47,-0.95 -3.41,0 -0.95,0.94 -0.95,2.47 0,3.41 0.94,0.95 2.47,0.95 3.41,0 0.95,-0.94 0.95,-2.47 0,-3.41z"/>
     <path id="115" class="fil49" d="M7 3.59c0.94,0.94 0.94,2.47 0,3.41 -0.94,0.94 -2.47,0.94 -3.41,0 -0.94,-0.94 -0.94,-2.47 0,-3.41 0.94,-0.94 2.47,-0.94 3.41,0zm0.02 -0.02c-0.95,-0.95 -2.5,-0.95 -3.45,0 -0.95,0.95 -0.95,2.5 0,3.45 0.95,0.95 2.5,0.95 3.45,0 0.95,-0.95 0.95,-2.5 0,-3.45z"/>
     <path id="116" class="fil50" d="M7.01 3.58c0.95,0.95 0.95,2.48 0,3.43 -0.95,0.95 -2.48,0.95 -3.43,0 -0.95,-0.95 -0.95,-2.48 0,-3.43 0.95,-0.95 2.48,-0.95 3.43,0zm0.02 -0.02c-0.96,-0.96 -2.51,-0.96 -3.47,0 -0.96,0.96 -0.96,2.51 0,3.47 0.96,0.97 2.51,0.97 3.47,0 0.97,-0.96 0.97,-2.51 0,-3.47z"/>
     <path id="117" class="fil50" d="M7.03 3.56c0.95,0.96 0.95,2.51 0,3.47 -0.96,0.95 -2.51,0.95 -3.47,0 -0.95,-0.96 -0.95,-2.51 0,-3.47 0.96,-0.95 2.51,-0.95 3.47,0zm0.02 -0.02c-0.97,-0.97 -2.54,-0.97 -3.51,0 -0.97,0.97 -0.97,2.54 0,3.51 0.97,0.97 2.54,0.97 3.51,0 0.97,-0.97 0.97,-2.54 0,-3.51z"/>
     <path id="118" class="fil50" d="M7.04 3.55c0.97,0.96 0.97,2.53 0,3.49 -0.96,0.97 -2.53,0.97 -3.49,0 -0.97,-0.96 -0.97,-2.53 0,-3.49 0.96,-0.97 2.53,-0.97 3.49,0zm0.02 -0.02c-0.97,-0.98 -2.56,-0.98 -3.53,0 -0.98,0.97 -0.98,2.56 0,3.53 0.97,0.98 2.56,0.98 3.53,0 0.98,-0.97 0.98,-2.56 0,-3.53z"/>
     <path id="119" class="fil51" d="M7.06 3.53c0.97,0.98 0.97,2.55 0,3.53 -0.98,0.97 -2.55,0.97 -3.53,0 -0.97,-0.98 -0.97,-2.55 0,-3.53 0.98,-0.97 2.55,-0.97 3.53,0zm0.02 -0.02c-0.99,-0.98 -2.58,-0.98 -3.57,0 -0.98,0.99 -0.98,2.58 0,3.57 0.99,0.98 2.58,0.98 3.57,0 0.98,-0.99 0.98,-2.58 0,-3.57z"/>
     <path id="120" class="fil52" d="M7.07 3.52c0.98,0.98 0.98,2.57 0,3.55 -0.98,0.98 -2.57,0.98 -3.55,0 -0.98,-0.98 -0.98,-2.57 0,-3.55 0.98,-0.98 2.57,-0.98 3.55,0zm0.02 -0.02c-0.99,-1 -2.6,-1 -3.59,0 -1,0.99 -1,2.6 0,3.59 0.99,1 2.6,1 3.59,0 1,-0.99 1,-2.6 0,-3.59z"/>
     <path id="121" class="fil52" d="M7.09 3.5c0.99,0.99 0.99,2.6 0,3.59 -0.99,0.99 -2.6,0.99 -3.59,0 -0.98,-0.99 -0.98,-2.6 0,-3.59 0.99,-0.98 2.6,-0.98 3.59,0zm0.02 -0.02c-1,-1 -2.63,-1 -3.63,0 -1,1 -1,2.63 0,3.63 1,1 2.63,1 3.63,0 1,-1 1,-2.63 0,-3.63z"/>
     <path id="122" class="fil53" d="M7.1 3.49c1,1 1,2.61 0,3.61 -1,1 -2.61,1 -3.61,0 -1,-1 -1,-2.61 0,-3.61 1,-1 2.61,-1 3.61,0zm0.02 -0.02c-1.01,-1.01 -2.64,-1.01 -3.65,0 -1.01,1.01 -1.01,2.64 0,3.65 1.01,1.01 2.64,1.01 3.65,0 1.01,-1.01 1.01,-2.64 0,-3.65z"/>
     <path id="123" class="fil53" d="M7.12 3.47c1,1.01 1,2.64 0,3.65 -1.01,1 -2.64,1 -3.65,0 -1,-1.01 -1,-2.64 0,-3.65 1.01,-1 2.64,-1 3.65,0zm0.02 -0.02c-1.02,-1.02 -2.67,-1.02 -3.69,0 -1.02,1.02 -1.02,2.67 0,3.69 1.02,1.02 2.67,1.02 3.69,0 1.02,-1.02 1.02,-2.67 0,-3.69z"/>
     <path id="124" class="fil54" d="M7.13 3.46c1.02,1.01 1.02,2.66 0,3.67 -1.01,1.02 -2.66,1.02 -3.67,0 -1.01,-1.01 -1.01,-2.66 0,-3.67 1.01,-1.01 2.66,-1.01 3.67,0zm0.02 -0.02c-1.02,-1.03 -2.69,-1.03 -3.71,0 -1.03,1.02 -1.03,2.69 0,3.71 1.02,1.03 2.69,1.03 3.71,0 1.03,-1.02 1.03,-2.69 0,-3.71z"/>
     <path id="125" class="fil55" d="M7.15 3.45c1.02,1.02 1.02,2.67 0,3.7 -1.03,1.02 -2.68,1.02 -3.7,0 -1.03,-1.03 -1.03,-2.68 0,-3.7 1.02,-1.03 2.67,-1.03 3.7,0zm0.02 -0.03c-1.04,-1.03 -2.71,-1.03 -3.75,0 -1.03,1.04 -1.03,2.71 0,3.75 1.04,1.03 2.71,1.03 3.75,0 1.03,-1.04 1.03,-2.71 0,-3.75z"/>
     <path id="126" class="fil56" d="M7.16 3.43c1.03,1.03 1.03,2.7 0,3.73 -1.03,1.03 -2.7,1.03 -3.73,0 -1.03,-1.03 -1.03,-2.7 0,-3.73 1.03,-1.03 2.7,-1.03 3.73,0zm0.02 -0.02c-1.04,-1.05 -2.73,-1.05 -3.77,0 -1.05,1.04 -1.05,2.73 0,3.77 1.04,1.05 2.73,1.05 3.77,0 1.05,-1.04 1.05,-2.73 0,-3.77z"/>
     <path id="127" class="fil57" d="M7.18 3.42c1.04,1.03 1.04,2.72 0,3.76 -1.04,1.04 -2.73,1.04 -3.76,0 -1.04,-1.04 -1.04,-2.73 0,-3.76 1.03,-1.04 2.72,-1.04 3.76,0zm0.02 -0.03c-1.05,-1.05 -2.76,-1.05 -3.81,0 -1.05,1.05 -1.05,2.76 0,3.81 1.05,1.05 2.76,1.05 3.81,0 1.05,-1.05 1.05,-2.76 0,-3.81z"/>
     <path id="128" class="fil57" d="M7.19 3.4c1.05,1.05 1.05,2.74 0,3.79 -1.05,1.05 -2.74,1.05 -3.79,0 -1.05,-1.05 -1.05,-2.74 0,-3.79 1.05,-1.05 2.74,-1.05 3.79,0zm0.02 -0.02c-1.06,-1.06 -2.77,-1.06 -3.83,0 -1.06,1.06 -1.06,2.77 0,3.83 1.06,1.06 2.77,1.06 3.83,0 1.06,-1.06 1.06,-2.77 0,-3.83z"/>
     <path id="129" class="fil57" d="M7.21 3.39c1.05,1.05 1.05,2.76 0,3.82 -1.06,1.05 -2.77,1.05 -3.82,0 -1.06,-1.06 -1.06,-2.77 0,-3.82 1.05,-1.06 2.76,-1.06 3.82,0zm0.02 -0.03c-1.07,-1.06 -2.8,-1.06 -3.87,0 -1.06,1.07 -1.06,2.8 0,3.87 1.07,1.07 2.8,1.07 3.87,0 1.07,-1.07 1.07,-2.8 0,-3.87z"/>
     <path id="130" class="fil58" d="M7.22 3.37c1.06,1.06 1.06,2.79 0,3.85 -1.06,1.06 -2.79,1.06 -3.85,0 -1.06,-1.06 -1.06,-2.79 0,-3.85 1.06,-1.06 2.79,-1.06 3.85,0zm0.02 -0.02c-1.07,-1.08 -2.82,-1.08 -3.89,0 -1.08,1.07 -1.08,2.82 0,3.89 1.07,1.08 2.82,1.08 3.89,0 1.08,-1.07 1.08,-2.82 0,-3.89z"/>
     <path id="131" class="fil59" d="M7.24 3.36c1.07,1.07 1.07,2.8 0,3.88 -1.08,1.07 -2.81,1.07 -3.88,0 -1.08,-1.08 -1.08,-2.81 0,-3.88 1.07,-1.08 2.8,-1.08 3.88,0zm0.02 -0.03c-1.09,-1.08 -2.84,-1.08 -3.93,0 -1.08,1.09 -1.08,2.84 0,3.93 1.09,1.08 2.84,1.08 3.93,0 1.08,-1.09 1.08,-2.84 0,-3.93z"/>
     <path id="132" class="fil60" d="M7.25 3.34c1.08,1.08 1.08,2.83 0,3.91 -1.08,1.08 -2.83,1.08 -3.91,0 -1.08,-1.08 -1.08,-2.83 0,-3.91 1.08,-1.08 2.83,-1.08 3.91,0zm0.02 -0.02c-1.09,-1.09 -2.86,-1.09 -3.95,0 -1.09,1.09 -1.09,2.86 0,3.95 1.09,1.1 2.86,1.1 3.95,0 1.1,-1.09 1.1,-2.86 0,-3.95z"/>
     <path id="133" class="fil61" d="M7.27 3.33c1.08,1.08 1.08,2.85 0,3.94 -1.09,1.08 -2.86,1.08 -3.94,0 -1.09,-1.09 -1.09,-2.86 0,-3.94 1.08,-1.09 2.85,-1.09 3.94,0zm0.02 -0.03c-1.1,-1.1 -2.89,-1.1 -3.99,0 -1.1,1.1 -1.1,2.89 0,3.99 1.1,1.1 2.89,1.1 3.99,0 1.1,-1.1 1.1,-2.89 0,-3.99z"/>
     <path id="134" class="fil62" d="M7.28 3.31c1.1,1.1 1.1,2.87 0,3.97 -1.1,1.1 -2.87,1.1 -3.97,0 -1.1,-1.1 -1.1,-2.87 0,-3.97 1.1,-1.1 2.87,-1.1 3.97,0zm0.02 -0.02c-1.11,-1.11 -2.9,-1.11 -4.01,0 -1.11,1.11 -1.11,2.9 0,4.01 1.11,1.11 2.9,1.11 4.01,0 1.11,-1.11 1.11,-2.9 0,-4.01z"/>
     <path id="135" class="fil63" d="M7.3 3.3c1.1,1.1 1.1,2.89 0,4 -1.11,1.1 -2.9,1.1 -4,0 -1.11,-1.11 -1.11,-2.9 0,-4 1.1,-1.11 2.89,-1.11 4,0zm0.02 -0.03c-1.12,-1.11 -2.93,-1.11 -4.05,0 -1.11,1.12 -1.11,2.93 0,4.05 1.12,1.12 2.93,1.12 4.05,0 1.12,-1.12 1.12,-2.93 0,-4.05z"/>
     <path id="136" class="fil63" d="M7.31 3.28c1.11,1.11 1.11,2.92 0,4.03 -1.11,1.11 -2.92,1.11 -4.03,0 -1.11,-1.11 -1.11,-2.92 0,-4.03 1.11,-1.11 2.92,-1.11 4.03,0zm0.02 -0.02c-1.12,-1.13 -2.95,-1.13 -4.07,0 -1.13,1.12 -1.13,2.95 0,4.07 1.12,1.13 2.95,1.13 4.07,0 1.13,-1.12 1.13,-2.95 0,-4.07z"/>
     <path id="137" class="fil64" d="M7.33 3.27c1.12,1.12 1.12,2.93 0,4.06 -1.13,1.12 -2.94,1.12 -4.06,0 -1.13,-1.13 -1.13,-2.94 0,-4.06 1.12,-1.13 2.93,-1.13 4.06,0zm0.02 -0.03c-1.14,-1.13 -2.97,-1.13 -4.11,0 -1.13,1.14 -1.13,2.97 0,4.11 1.14,1.13 2.97,1.13 4.11,0 1.13,-1.14 1.13,-2.97 0,-4.11z"/>
     <path id="138" class="fil65" d="M7.34 3.25c1.13,1.13 1.13,2.96 0,4.09 -1.13,1.13 -2.96,1.13 -4.09,0 -1.13,-1.13 -1.13,-2.96 0,-4.09 1.13,-1.13 2.96,-1.13 4.09,0zm0.02 -0.02c-1.14,-1.14 -2.99,-1.14 -4.13,0 -1.14,1.14 -1.14,2.99 0,4.13 1.14,1.14 2.99,1.14 4.13,0 1.14,-1.14 1.14,-2.99 0,-4.13z"/>
     <path id="139" class="fil66" d="M7.36 3.24c1.13,1.13 1.13,2.98 0,4.12 -1.14,1.13 -2.99,1.13 -4.12,0 -1.14,-1.14 -1.14,-2.99 0,-4.12 1.13,-1.14 2.98,-1.14 4.12,0zm0.02 -0.03c-1.15,-1.15 -3.02,-1.15 -4.17,0 -1.15,1.15 -1.15,3.02 0,4.17 1.15,1.15 3.02,1.15 4.17,0 1.15,-1.15 1.15,-3.02 0,-4.17z"/>
     <path id="140" class="fil67" d="M7.37 3.22c1.15,1.15 1.15,3 0,4.15 -1.15,1.15 -3,1.15 -4.15,0 -1.14,-1.15 -1.14,-3 0,-4.15 1.15,-1.14 3,-1.14 4.15,0zm0.02 -0.02c-1.16,-1.16 -3.03,-1.16 -4.19,0 -1.16,1.16 -1.16,3.03 0,4.19 1.16,1.16 3.03,1.16 4.19,0 1.16,-1.16 1.16,-3.03 0,-4.19z"/>
     <path id="141" class="fil67" d="M7.39 3.21c1.15,1.15 1.15,3.02 0,4.18 -1.16,1.15 -3.03,1.15 -4.18,0 -1.16,-1.16 -1.16,-3.03 0,-4.18 1.15,-1.16 3.02,-1.16 4.18,0zm0.02 -0.03c-1.17,-1.16 -3.06,-1.16 -4.23,0 -1.16,1.17 -1.16,3.06 0,4.23 1.17,1.16 3.06,1.16 4.23,0 1.16,-1.17 1.16,-3.06 0,-4.23z"/>
     <path id="142" class="fil67" d="M7.4 3.19c1.16,1.16 1.16,3.05 0,4.21 -1.16,1.16 -3.05,1.16 -4.21,0 -1.16,-1.16 -1.16,-3.05 0,-4.21 1.16,-1.16 3.05,-1.16 4.21,0zm0.02 -0.02c-1.17,-1.18 -3.08,-1.18 -4.25,0 -1.18,1.17 -1.18,3.08 0,4.25 1.17,1.18 3.08,1.18 4.25,0 1.18,-1.17 1.18,-3.08 0,-4.25z"/>
     <path id="143" class="fil68" d="M7.42 3.18c1.17,1.17 1.17,3.06 0,4.24 -1.18,1.17 -3.07,1.17 -4.24,0 -1.17,-1.18 -1.17,-3.07 0,-4.24 1.17,-1.17 3.06,-1.17 4.24,0zm0.02 -0.03c-1.19,-1.18 -3.1,-1.18 -4.29,0 -1.18,1.19 -1.18,3.1 0,4.29 1.19,1.18 3.1,1.18 4.29,0 1.18,-1.19 1.18,-3.1 0,-4.29z"/>
     <path id="144" class="fil68" d="M7.43 3.16c1.18,1.18 1.18,3.09 0,4.27 -1.18,1.18 -3.09,1.18 -4.27,0 -1.18,-1.18 -1.18,-3.09 0,-4.27 1.18,-1.18 3.09,-1.18 4.27,0zm0.02 -0.02c-1.19,-1.19 -3.12,-1.19 -4.31,0 -1.19,1.19 -1.19,3.12 0,4.31 1.19,1.19 3.12,1.19 4.31,0 1.19,-1.19 1.19,-3.12 0,-4.31z"/>
     <path id="145" class="fil69" d="M7.45 3.15c1.18,1.18 1.18,3.11 0,4.3 -1.19,1.18 -3.12,1.18 -4.3,0 -1.19,-1.19 -1.19,-3.12 0,-4.3 1.18,-1.19 3.11,-1.19 4.3,0zm0.02 -0.03c-1.2,-1.2 -3.15,-1.2 -4.35,0 -1.2,1.2 -1.2,3.15 0,4.35 1.2,1.2 3.15,1.2 4.35,0 1.2,-1.2 1.2,-3.15 0,-4.35z"/>
     <path id="146" class="fil70" d="M7.46 3.13c1.2,1.2 1.2,3.13 0,4.33 -1.2,1.2 -3.13,1.2 -4.33,0 -1.19,-1.2 -1.19,-3.13 0,-4.33 1.2,-1.19 3.13,-1.19 4.33,0zm0.02 -0.02c-1.21,-1.21 -3.16,-1.21 -4.37,0 -1.21,1.21 -1.21,3.16 0,4.37 1.21,1.21 3.16,1.21 4.37,0 1.21,-1.21 1.21,-3.16 0,-4.37z"/>
     <path id="147" class="fil71" d="M7.48 3.12c1.2,1.2 1.2,3.15 0,4.36 -1.21,1.2 -3.16,1.2 -4.36,0 -1.21,-1.21 -1.21,-3.16 0,-4.36 1.2,-1.21 3.15,-1.21 4.36,0zm0.02 -0.03c-1.22,-1.21 -3.19,-1.21 -4.41,0 -1.21,1.22 -1.21,3.19 0,4.41 1.22,1.21 3.19,1.21 4.41,0 1.21,-1.22 1.21,-3.19 0,-4.41z"/>
     <path id="148" class="fil71" d="M7.49 3.1c1.21,1.21 1.21,3.18 0,4.39 -1.21,1.21 -3.18,1.21 -4.39,0 -1.21,-1.21 -1.21,-3.18 0,-4.39 1.21,-1.21 3.18,-1.21 4.39,0zm0.02 -0.02c-1.22,-1.22 -3.21,-1.22 -4.43,0 -1.22,1.22 -1.22,3.21 0,4.43 1.22,1.23 3.21,1.23 4.43,0 1.23,-1.22 1.23,-3.21 0,-4.43z"/>
     <path id="149" class="fil72" d="M7.5 3.09c1.23,1.22 1.23,3.19 0,4.41 -1.22,1.23 -3.19,1.23 -4.41,0 -1.22,-1.22 -1.22,-3.19 0,-4.41 1.22,-1.22 3.19,-1.22 4.41,0zm0.03 -0.03c-1.24,-1.23 -3.23,-1.23 -4.47,0 -1.23,1.24 -1.23,3.23 0,4.47 1.24,1.23 3.23,1.23 4.47,0 1.23,-1.24 1.23,-3.23 0,-4.47z"/>
     <path id="150" class="fil73" d="M7.52 3.07c1.23,1.23 1.23,3.22 0,4.45 -1.23,1.23 -3.22,1.23 -4.45,0 -1.23,-1.23 -1.23,-3.22 0,-4.45 1.23,-1.23 3.22,-1.23 4.45,0zm0.02 -0.02c-1.24,-1.24 -3.25,-1.24 -4.49,0 -1.24,1.24 -1.24,3.25 0,4.49 1.24,1.24 3.25,1.24 4.49,0 1.24,-1.24 1.24,-3.25 0,-4.49z"/>
     <path id="151" class="fil74" d="M7.53 3.06c1.24,1.23 1.24,3.24 0,4.47 -1.23,1.24 -3.24,1.24 -4.47,0 -1.24,-1.23 -1.24,-3.24 0,-4.47 1.23,-1.24 3.24,-1.24 4.47,0zm0.03 -0.03c-1.25,-1.24 -3.28,-1.24 -4.53,0 -1.24,1.25 -1.24,3.28 0,4.53 1.25,1.25 3.28,1.25 4.53,0 1.25,-1.25 1.25,-3.28 0,-4.53z"/>
     <path id="152" class="fil75" d="M7.55 3.04c1.24,1.25 1.24,3.27 0,4.51 -1.24,1.24 -3.26,1.24 -4.51,0 -1.24,-1.24 -1.24,-3.26 0,-4.51 1.25,-1.24 3.27,-1.24 4.51,0zm0.02 -0.02c-1.26,-1.26 -3.29,-1.26 -4.55,0 -1.26,1.26 -1.26,3.29 0,4.55 1.26,1.26 3.29,1.26 4.55,0 1.26,-1.26 1.26,-3.29 0,-4.55z"/>
     <path id="153" class="fil76" d="M7.56 3.03c1.26,1.25 1.26,3.28 0,4.53 -1.25,1.26 -3.28,1.26 -4.53,0 -1.26,-1.25 -1.26,-3.28 0,-4.53 1.25,-1.26 3.28,-1.26 4.53,0zm0.03 -0.03c-1.27,-1.26 -3.32,-1.26 -4.59,0 -1.26,1.27 -1.26,3.32 0,4.59 1.27,1.26 3.32,1.26 4.59,0 1.26,-1.27 1.26,-3.32 0,-4.59z"/>
     <path id="154" class="fil77" d="M7.58 3.01c1.26,1.26 1.26,3.31 0,4.57 -1.26,1.26 -3.31,1.26 -4.57,0 -1.26,-1.26 -1.26,-3.31 0,-4.57 1.26,-1.26 3.31,-1.26 4.57,0zm0.02 -0.02c-1.27,-1.27 -3.34,-1.27 -4.61,0 -1.27,1.27 -1.27,3.34 0,4.61 1.27,1.28 3.34,1.28 4.61,0 1.28,-1.27 1.28,-3.34 0,-4.61z"/>
     <path id="155" class="fil78" d="M7.59 3c1.27,1.27 1.27,3.33 0,4.59 -1.26,1.27 -3.32,1.27 -4.59,0 -1.27,-1.26 -1.27,-3.32 0,-4.59 1.27,-1.27 3.33,-1.27 4.59,0zm0.03 -0.03c-1.28,-1.28 -3.36,-1.28 -4.65,0 -1.28,1.29 -1.28,3.37 0,4.65 1.29,1.28 3.37,1.28 4.65,0 1.28,-1.28 1.28,-3.36 0,-4.65z"/>
     <path id="156" class="fil79" d="M7.61 2.98c1.28,1.28 1.28,3.35 0,4.63 -1.28,1.28 -3.35,1.28 -4.63,0 -1.28,-1.28 -1.28,-3.35 0,-4.63 1.28,-1.28 3.35,-1.28 4.63,0zm0.02 -0.02c-1.29,-1.29 -3.38,-1.29 -4.67,0 -1.29,1.29 -1.29,3.38 0,4.67 1.29,1.29 3.38,1.29 4.67,0 1.29,-1.29 1.29,-3.38 0,-4.67z"/>
     <path id="157" class="fil80" d="M7.62 2.97c1.29,1.28 1.29,3.37 0,4.65 -1.28,1.29 -3.37,1.29 -4.65,0 -1.29,-1.28 -1.29,-3.37 0,-4.65 1.28,-1.29 3.37,-1.29 4.65,0zm0.03 -0.03c-1.3,-1.29 -3.41,-1.29 -4.71,0 -1.29,1.3 -1.29,3.41 0,4.71 1.3,1.3 3.41,1.3 4.71,0 1.3,-1.3 1.3,-3.41 0,-4.71z"/>
     <path id="158" class="fil81" d="M7.64 2.95c1.29,1.3 1.29,3.4 0,4.69 -1.29,1.29 -3.39,1.29 -4.69,0 -1.29,-1.29 -1.29,-3.39 0,-4.69 1.3,-1.29 3.4,-1.29 4.69,0zm0.02 -0.02c-1.3,-1.31 -3.42,-1.31 -4.73,0 -1.31,1.31 -1.31,3.43 0,4.73 1.31,1.31 3.43,1.31 4.73,0 1.31,-1.3 1.31,-3.42 0,-4.73z"/>
     <path id="159" class="fil82" d="M7.65 2.94c1.31,1.3 1.31,3.41 0,4.71 -1.3,1.31 -3.41,1.31 -4.71,0 -1.31,-1.3 -1.31,-3.41 0,-4.71 1.3,-1.31 3.41,-1.31 4.71,0zm0.03 -0.02c-1.32,-1.32 -3.45,-1.32 -4.76,0 -1.32,1.31 -1.32,3.44 0,4.76 1.31,1.31 3.44,1.31 4.76,0 1.31,-1.32 1.31,-3.45 0,-4.76z"/>
     <path id="160" class="fil83" d="M7.67 2.92c1.31,1.31 1.31,3.44 0,4.75 -1.31,1.31 -3.44,1.31 -4.75,0 -1.31,-1.31 -1.31,-3.44 0,-4.75 1.31,-1.31 3.44,-1.31 4.75,0zm0.02 -0.02c-1.32,-1.32 -3.47,-1.32 -4.79,0 -1.32,1.32 -1.32,3.47 0,4.79 1.32,1.32 3.47,1.32 4.79,0 1.32,-1.32 1.32,-3.47 0,-4.79z"/>
     <path id="161" class="fil84" d="M7.68 2.91c1.32,1.32 1.32,3.46 0,4.77 -1.31,1.32 -3.45,1.32 -4.77,0 -1.32,-1.31 -1.32,-3.45 0,-4.77 1.32,-1.32 3.46,-1.32 4.77,0zm0.03 -0.02c-1.33,-1.34 -3.49,-1.34 -4.82,0 -1.34,1.33 -1.34,3.49 0,4.82 1.33,1.33 3.49,1.33 4.82,0 1.33,-1.33 1.33,-3.49 0,-4.82z"/>
     <path id="162" class="fil85" d="M7.7 2.89c1.33,1.33 1.33,3.48 0,4.81 -1.33,1.33 -3.48,1.33 -4.81,0 -1.32,-1.33 -1.32,-3.48 0,-4.81 1.33,-1.32 3.48,-1.32 4.81,0zm0.02 -0.02c-1.34,-1.34 -3.51,-1.34 -4.85,0 -1.34,1.34 -1.34,3.51 0,4.85 1.34,1.34 3.51,1.34 4.85,0 1.34,-1.34 1.34,-3.51 0,-4.85z"/>
     <path id="163" class="fil86" d="M7.71 2.88c1.34,1.33 1.34,3.5 0,4.83 -1.33,1.34 -3.5,1.34 -4.83,0 -1.34,-1.33 -1.34,-3.5 0,-4.83 1.33,-1.34 3.5,-1.34 4.83,0zm0.03 -0.02c-1.35,-1.35 -3.54,-1.35 -4.88,0 -1.35,1.34 -1.35,3.53 0,4.88 1.34,1.34 3.53,1.34 4.88,0 1.34,-1.35 1.34,-3.54 0,-4.88z"/>
     <path id="164" class="fil87" d="M7.73 2.86c1.34,1.35 1.34,3.53 0,4.87 -1.34,1.34 -3.52,1.34 -4.87,0 -1.34,-1.34 -1.34,-3.52 0,-4.87 1.35,-1.34 3.53,-1.34 4.87,0zm0.02 -0.02c-1.35,-1.36 -3.55,-1.36 -4.91,0 -1.36,1.36 -1.36,3.56 0,4.91 1.36,1.36 3.56,1.36 4.91,0 1.36,-1.35 1.36,-3.55 0,-4.91z"/>
     <path id="165" class="fil88" d="M7.74 2.85c1.36,1.35 1.36,3.54 0,4.89 -1.35,1.36 -3.54,1.36 -4.89,0 -1.35,-1.35 -1.35,-3.54 0,-4.89 1.35,-1.35 3.54,-1.35 4.89,0zm0.03 -0.02c-1.37,-1.37 -3.58,-1.37 -4.94,0 -1.37,1.36 -1.37,3.57 0,4.94 1.36,1.36 3.57,1.36 4.94,0 1.36,-1.37 1.36,-3.58 0,-4.94z"/>
     <path id="166" class="fil89" d="M7.76 2.83c1.36,1.36 1.36,3.57 0,4.93 -1.36,1.36 -3.57,1.36 -4.93,0 -1.36,-1.36 -1.36,-3.57 0,-4.93 1.36,-1.36 3.57,-1.36 4.93,0zm0.02 -0.02c-1.37,-1.37 -3.6,-1.37 -4.97,0 -1.37,1.37 -1.37,3.6 0,4.97 1.37,1.37 3.6,1.37 4.97,0 1.37,-1.37 1.37,-3.6 0,-4.97z"/>
     <path id="167" class="fil90" d="M7.77 2.82c1.37,1.37 1.37,3.59 0,4.95 -1.36,1.37 -3.58,1.37 -4.95,0 -1.37,-1.36 -1.37,-3.58 0,-4.95 1.37,-1.37 3.59,-1.37 4.95,0zm0.03 -0.02c-1.38,-1.39 -3.62,-1.39 -5,0 -1.39,1.38 -1.39,3.62 0,5 1.38,1.38 3.62,1.38 5,0 1.38,-1.38 1.38,-3.62 0,-5z"/>
     <path id="168" class="fil90" d="M7.79 2.8c1.38,1.38 1.38,3.61 0,4.99 -1.38,1.38 -3.61,1.38 -4.99,0 -1.37,-1.38 -1.37,-3.61 0,-4.99 1.38,-1.37 3.61,-1.37 4.99,0zm0.02 -0.02c-1.39,-1.39 -3.64,-1.39 -5.03,0 -1.39,1.39 -1.39,3.64 0,5.03 1.39,1.39 3.64,1.39 5.03,0 1.39,-1.39 1.39,-3.64 0,-5.03z"/>
     <path id="169" class="fil91" d="M7.8 2.79c1.39,1.38 1.39,3.63 0,5.01 -1.38,1.39 -3.63,1.39 -5.01,0 -1.39,-1.38 -1.39,-3.63 0,-5.01 1.38,-1.39 3.63,-1.39 5.01,0zm0.03 -0.02c-1.4,-1.4 -3.67,-1.4 -5.06,0 -1.4,1.39 -1.4,3.66 0,5.06 1.39,1.39 3.66,1.39 5.06,0 1.39,-1.4 1.39,-3.67 0,-5.06z"/>
     <path id="170" class="fil92" d="M7.82 2.77c1.39,1.4 1.39,3.66 0,5.05 -1.39,1.39 -3.65,1.39 -5.05,0 -1.39,-1.39 -1.39,-3.65 0,-5.05 1.4,-1.39 3.66,-1.39 5.05,0zm0.02 -0.02c-1.4,-1.4 -3.68,-1.4 -5.09,0 -1.4,1.41 -1.4,3.69 0,5.09 1.41,1.41 3.69,1.41 5.09,0 1.41,-1.4 1.41,-3.68 0,-5.09z"/>
     <path id="171" class="fil93" d="M7.83 2.76c1.4,1.4 1.4,3.67 0,5.07 -1.4,1.4 -3.67,1.4 -5.07,0 -1.4,-1.4 -1.4,-3.67 0,-5.07 1.4,-1.4 3.67,-1.4 5.07,0zm0.03 -0.02c-1.42,-1.42 -3.71,-1.42 -5.12,0 -1.42,1.41 -1.42,3.7 0,5.12 1.41,1.41 3.7,1.41 5.12,0 1.41,-1.42 1.41,-3.71 0,-5.12z"/>
     <path id="172" class="fil94" d="M7.85 2.74c1.41,1.41 1.41,3.7 0,5.11 -1.41,1.41 -3.7,1.41 -5.11,0 -1.41,-1.41 -1.41,-3.7 0,-5.11 1.41,-1.41 3.7,-1.41 5.11,0zm0.02 -0.02c-1.42,-1.42 -3.73,-1.42 -5.15,0 -1.42,1.42 -1.42,3.73 0,5.15 1.42,1.42 3.73,1.42 5.15,0 1.42,-1.42 1.42,-3.73 0,-5.15z"/>
     <path id="173" class="fil95" d="M7.86 2.73c1.42,1.42 1.42,3.72 0,5.13 -1.41,1.42 -3.71,1.42 -5.13,0 -1.42,-1.41 -1.42,-3.71 0,-5.13 1.42,-1.42 3.72,-1.42 5.13,0zm0.03 -0.02c-1.43,-1.43 -3.75,-1.43 -5.18,0 -1.43,1.43 -1.43,3.75 0,5.18 1.43,1.43 3.75,1.43 5.18,0 1.43,-1.43 1.43,-3.75 0,-5.18z"/>
     <path id="174" class="fil96" d="M7.88 2.71c1.42,1.43 1.42,3.74 0,5.17 -1.43,1.42 -3.74,1.42 -5.17,0 -1.42,-1.43 -1.42,-3.74 0,-5.17 1.43,-1.42 3.74,-1.42 5.17,0zm0.02 -0.02c-1.44,-1.44 -3.77,-1.44 -5.21,0 -1.44,1.44 -1.44,3.77 0,5.21 1.44,1.44 3.77,1.44 5.21,0 1.44,-1.44 1.44,-3.77 0,-5.21z"/>
     <path id="175" class="fil97" d="M7.89 2.7c1.44,1.43 1.44,3.76 0,5.19 -1.43,1.44 -3.76,1.44 -5.19,0 -1.44,-1.43 -1.44,-3.76 0,-5.19 1.43,-1.44 3.76,-1.44 5.19,0zm0.03 -0.02c-1.45,-1.45 -3.8,-1.45 -5.24,0 -1.45,1.44 -1.45,3.79 0,5.24 1.44,1.44 3.79,1.44 5.24,0 1.44,-1.45 1.44,-3.8 0,-5.24z"/>
     <path id="176" class="fil98" d="M7.91 2.68c1.44,1.45 1.44,3.79 0,5.23 -1.44,1.44 -3.78,1.44 -5.23,0 -1.44,-1.44 -1.44,-3.78 0,-5.23 1.45,-1.44 3.79,-1.44 5.23,0zm0.02 -0.02c-1.45,-1.45 -3.81,-1.45 -5.27,0 -1.45,1.46 -1.45,3.82 0,5.27 1.46,1.46 3.82,1.46 5.27,0 1.46,-1.45 1.46,-3.81 0,-5.27z"/>
     <path id="177" class="fil99" d="M7.92 2.67c1.45,1.45 1.45,3.8 0,5.25 -1.45,1.45 -3.8,1.45 -5.25,0 -1.45,-1.45 -1.45,-3.8 0,-5.25 1.45,-1.45 3.8,-1.45 5.25,0zm0.03 -0.02c-1.47,-1.47 -3.84,-1.47 -5.3,0 -1.47,1.46 -1.47,3.83 0,5.3 1.46,1.46 3.83,1.46 5.3,0 1.46,-1.47 1.46,-3.84 0,-5.3z"/>
     <path id="178" class="fil100" d="M7.94 2.65c1.46,1.46 1.46,3.83 0,5.29 -1.46,1.46 -3.83,1.46 -5.29,0 -1.46,-1.46 -1.46,-3.83 0,-5.29 1.46,-1.46 3.83,-1.46 5.29,0zm0.02 -0.02c-1.47,-1.47 -3.86,-1.47 -5.33,0 -1.47,1.47 -1.47,3.86 0,5.33 1.47,1.47 3.86,1.47 5.33,0 1.47,-1.47 1.47,-3.86 0,-5.33z"/>
     <path id="179" class="fil101" d="M7.95 2.64c1.47,1.47 1.47,3.85 0,5.31 -1.46,1.47 -3.84,1.47 -5.31,0 -1.47,-1.46 -1.47,-3.84 0,-5.31 1.47,-1.47 3.85,-1.47 5.31,0zm0.03 -0.02c-1.48,-1.48 -3.88,-1.48 -5.36,0 -1.48,1.48 -1.48,3.88 0,5.36 1.48,1.47 3.88,1.47 5.36,0 1.47,-1.48 1.47,-3.88 0,-5.36z"/>
     <path id="180" class="fil102" d="M7.97 2.62c1.47,1.48 1.47,3.87 0,5.35 -1.48,1.47 -3.87,1.47 -5.35,0 -1.47,-1.48 -1.47,-3.87 0,-5.35 1.48,-1.47 3.87,-1.47 5.35,0zm0.02 -0.02c-1.49,-1.49 -3.9,-1.49 -5.39,0 -1.49,1.49 -1.49,3.9 0,5.39 1.49,1.49 3.9,1.49 5.39,0 1.49,-1.49 1.49,-3.9 0,-5.39z"/>
     <path id="181" class="fil103" d="M7.98 2.61c1.49,1.48 1.49,3.89 0,5.37 -1.48,1.49 -3.89,1.49 -5.37,0 -1.48,-1.48 -1.48,-3.89 0,-5.37 1.48,-1.48 3.89,-1.48 5.37,0zm0.03 -0.02c-1.5,-1.5 -3.93,-1.5 -5.42,0 -1.5,1.49 -1.5,3.92 0,5.42 1.49,1.49 3.92,1.49 5.42,0 1.49,-1.5 1.49,-3.93 0,-5.42z"/>
     <path id="182" class="fil104" d="M8 2.59c1.49,1.5 1.49,3.92 0,5.41 -1.49,1.49 -3.91,1.49 -5.41,0 -1.49,-1.49 -1.49,-3.91 0,-5.41 1.5,-1.49 3.92,-1.49 5.41,0zm0.02 -0.02c-1.5,-1.5 -3.94,-1.5 -5.45,0 -1.5,1.51 -1.5,3.95 0,5.45 1.51,1.5 3.95,1.5 5.45,0 1.5,-1.5 1.5,-3.94 0,-5.45z"/>
     <path id="183" class="fil105" d="M8.01 2.58c1.5,1.5 1.5,3.93 0,5.43 -1.5,1.5 -3.93,1.5 -5.43,0 -1.5,-1.5 -1.5,-3.93 0,-5.43 1.5,-1.5 3.93,-1.5 5.43,0zm0.02 -0.02c-1.51,-1.52 -3.96,-1.52 -5.47,0 -1.52,1.51 -1.52,3.96 0,5.47 1.51,1.52 3.96,1.52 5.47,0 1.52,-1.51 1.52,-3.96 0,-5.47z"/>
     <path id="184" class="fil106" d="M8.03 2.56c1.51,1.51 1.51,3.96 0,5.47 -1.51,1.51 -3.96,1.51 -5.47,0 -1.5,-1.51 -1.5,-3.96 0,-5.47 1.51,-1.5 3.96,-1.5 5.47,0zm0.02 -0.02c-1.52,-1.52 -3.99,-1.52 -5.51,0 -1.52,1.52 -1.52,3.99 0,5.51 1.52,1.52 3.99,1.52 5.51,0 1.52,-1.52 1.52,-3.99 0,-5.51z"/>
     <path id="185" class="fil107" d="M8.04 2.55c1.52,1.52 1.52,3.98 0,5.49 -1.51,1.52 -3.97,1.52 -5.49,0 -1.52,-1.51 -1.52,-3.97 0,-5.49 1.52,-1.52 3.98,-1.52 5.49,0zm0.02 -0.02c-1.52,-1.53 -4,-1.53 -5.53,0 -1.53,1.53 -1.53,4.01 0,5.53 1.53,1.53 4.01,1.53 5.53,0 1.53,-1.52 1.53,-4 0,-5.53z"/>
     <path id="186" class="fil107" d="M8.06 2.53c1.52,1.53 1.52,4 0,5.53 -1.53,1.52 -4,1.52 -5.53,0 -1.52,-1.53 -1.52,-4 0,-5.53 1.53,-1.52 4,-1.52 5.53,0zm0.02 -0.02c-1.54,-1.54 -4.03,-1.54 -5.57,0 -1.54,1.54 -1.54,4.03 0,5.57 1.54,1.54 4.03,1.54 5.57,0 1.54,-1.54 1.54,-4.03 0,-5.57z"/>
     <path id="187" class="fil108" d="M8.07 2.52c1.54,1.53 1.54,4.02 0,5.55 -1.53,1.54 -4.02,1.54 -5.55,0 -1.53,-1.53 -1.53,-4.02 0,-5.55 1.53,-1.53 4.02,-1.53 5.55,0zm0.02 -0.02c-1.54,-1.55 -4.05,-1.55 -5.59,0 -1.55,1.54 -1.55,4.05 0,5.59 1.54,1.55 4.05,1.55 5.59,0 1.55,-1.54 1.55,-4.05 0,-5.59z"/>
     <path id="188" class="fil109" d="M8.09 2.5c1.54,1.55 1.54,4.05 0,5.59 -1.54,1.54 -4.04,1.54 -5.59,0 -1.54,-1.54 -1.54,-4.04 0,-5.59 1.55,-1.54 4.05,-1.54 5.59,0zm0.02 -0.02c-1.55,-1.55 -4.07,-1.55 -5.63,0 -1.55,1.56 -1.55,4.08 0,5.63 1.56,1.55 4.08,1.55 5.63,0 1.55,-1.55 1.55,-4.07 0,-5.63z"/>
     <path id="189" class="fil110" d="M8.1 2.49c1.55,1.55 1.55,4.06 0,5.61 -1.55,1.55 -4.06,1.55 -5.61,0 -1.55,-1.55 -1.55,-4.06 0,-5.61 1.55,-1.55 4.06,-1.55 5.61,0zm0.02 -0.02c-1.56,-1.56 -4.09,-1.56 -5.65,0 -1.56,1.56 -1.56,4.09 0,5.65 1.56,1.57 4.09,1.57 5.65,0 1.57,-1.56 1.57,-4.09 0,-5.65z"/>
     <path id="190" class="fil111" d="M8.12 2.47c1.56,1.56 1.56,4.09 0,5.65 -1.56,1.56 -4.09,1.56 -5.65,0 -1.55,-1.56 -1.55,-4.09 0,-5.65 1.56,-1.55 4.09,-1.55 5.65,0zm0.02 -0.02c-1.57,-1.57 -4.12,-1.57 -5.69,0 -1.57,1.57 -1.57,4.12 0,5.69 1.57,1.57 4.12,1.57 5.69,0 1.57,-1.57 1.57,-4.12 0,-5.69z"/>
     <path id="191" class="fil112" d="M8.13 2.46c1.57,1.57 1.57,4.11 0,5.67 -1.56,1.57 -4.1,1.57 -5.67,0 -1.57,-1.56 -1.57,-4.1 0,-5.67 1.57,-1.57 4.11,-1.57 5.67,0zm0.02 -0.02c-1.57,-1.58 -4.13,-1.58 -5.71,0 -1.58,1.58 -1.58,4.14 0,5.71 1.58,1.58 4.14,1.58 5.71,0 1.58,-1.57 1.58,-4.13 0,-5.71z"/>
     <path id="192" class="fil113" d="M8.15 2.44c1.57,1.58 1.57,4.13 0,5.71 -1.58,1.57 -4.13,1.57 -5.71,0 -1.57,-1.58 -1.57,-4.13 0,-5.71 1.58,-1.57 4.13,-1.57 5.71,0zm0.02 -0.02c-1.59,-1.58 -4.16,-1.58 -5.75,0 -1.58,1.59 -1.58,4.16 0,5.75 1.59,1.59 4.16,1.59 5.75,0 1.59,-1.59 1.59,-4.16 0,-5.75z"/>
     <path id="193" class="fil114" d="M8.16 2.43c1.58,1.58 1.58,4.15 0,5.73 -1.58,1.58 -4.15,1.58 -5.73,0 -1.58,-1.58 -1.58,-4.15 0,-5.73 1.58,-1.58 4.15,-1.58 5.73,0zm0.02 -0.02c-1.59,-1.6 -4.18,-1.6 -5.77,0 -1.6,1.59 -1.6,4.18 0,5.77 1.59,1.6 4.18,1.6 5.77,0 1.6,-1.59 1.6,-4.18 0,-5.77z"/>
     <path id="194" class="fil115" d="M8.18 2.42c1.59,1.59 1.59,4.17 0,5.76 -1.59,1.59 -4.17,1.59 -5.76,0 -1.6,-1.59 -1.6,-4.17 0,-5.76 1.59,-1.6 4.17,-1.6 5.76,0zm0.02 -0.03c-1.6,-1.6 -4.2,-1.6 -5.81,0 -1.6,1.61 -1.6,4.21 0,5.81 1.61,1.6 4.21,1.6 5.81,0 1.6,-1.6 1.6,-4.2 0,-5.81z"/>
     <path id="195" class="fil116" d="M8.19 2.4c1.6,1.6 1.6,4.19 0,5.79 -1.6,1.6 -4.19,1.6 -5.79,0 -1.6,-1.6 -1.6,-4.19 0,-5.79 1.6,-1.6 4.19,-1.6 5.79,0zm0.02 -0.02c-1.61,-1.61 -4.22,-1.61 -5.83,0 -1.61,1.61 -1.61,4.22 0,5.83 1.61,1.62 4.22,1.62 5.83,0 1.62,-1.61 1.62,-4.22 0,-5.83z"/>
     <path id="196" class="fil117" d="M8.21 2.39c1.6,1.6 1.6,4.21 0,5.82 -1.61,1.6 -4.22,1.6 -5.82,0 -1.61,-1.61 -1.61,-4.22 0,-5.82 1.6,-1.61 4.21,-1.61 5.82,0zm0.02 -0.03c-1.62,-1.62 -4.25,-1.62 -5.87,0 -1.62,1.62 -1.62,4.25 0,5.87 1.62,1.62 4.25,1.62 5.87,0 1.62,-1.62 1.62,-4.25 0,-5.87z"/>
     <path id="197" class="fil118" d="M8.22 2.37c1.62,1.62 1.62,4.24 0,5.85 -1.61,1.62 -4.23,1.62 -5.85,0 -1.62,-1.61 -1.62,-4.23 0,-5.85 1.62,-1.62 4.24,-1.62 5.85,0zm0.02 -0.02c-1.62,-1.63 -4.26,-1.63 -5.89,0 -1.63,1.63 -1.63,4.27 0,5.89 1.63,1.63 4.27,1.63 5.89,0 1.63,-1.62 1.63,-4.26 0,-5.89z"/>
     <path id="198" class="fil119" d="M8.24 2.36c1.62,1.62 1.62,4.25 0,5.88 -1.63,1.62 -4.26,1.62 -5.88,0 -1.63,-1.63 -1.63,-4.26 0,-5.88 1.62,-1.63 4.25,-1.63 5.88,0zm0.02 -0.03c-1.64,-1.63 -4.29,-1.63 -5.93,0 -1.63,1.64 -1.63,4.29 0,5.93 1.64,1.64 4.29,1.64 5.93,0 1.64,-1.64 1.64,-4.29 0,-5.93z"/>
     <path id="199" class="fil120" d="M8.25 2.34c1.63,1.63 1.63,4.28 0,5.91 -1.63,1.63 -4.28,1.63 -5.91,0 -1.63,-1.63 -1.63,-4.28 0,-5.91 1.63,-1.63 4.28,-1.63 5.91,0zm0.02 -0.02c-1.64,-1.65 -4.31,-1.65 -5.95,0 -1.65,1.64 -1.65,4.31 0,5.95 1.64,1.65 4.31,1.65 5.95,0 1.65,-1.64 1.65,-4.31 0,-5.95z"/>
     <path id="200" class="fil121" d="M8.27 2.33c1.64,1.64 1.64,4.3 0,5.94 -1.64,1.64 -4.3,1.64 -5.94,0 -1.64,-1.64 -1.64,-4.3 0,-5.94 1.64,-1.64 4.3,-1.64 5.94,0zm0.02 -0.03c-1.65,-1.65 -4.33,-1.65 -5.99,0 -1.65,1.66 -1.65,4.34 0,5.99 1.66,1.65 4.34,1.65 5.99,0 1.65,-1.65 1.65,-4.33 0,-5.99z"/>
     <path id="201" class="fil122" d="M8.28 2.31c1.65,1.65 1.65,4.32 0,5.97 -1.65,1.65 -4.32,1.65 -5.97,0 -1.65,-1.65 -1.65,-4.32 0,-5.97 1.65,-1.65 4.32,-1.65 5.97,0zm0.02 -0.02c-1.66,-1.66 -4.35,-1.66 -6.01,0 -1.66,1.66 -1.66,4.35 0,6.01 1.66,1.66 4.35,1.66 6.01,0 1.66,-1.66 1.66,-4.35 0,-6.01z"/>
     <path id="202" class="fil123" d="M8.3 2.3c1.65,1.65 1.65,4.34 0,6 -1.66,1.65 -4.35,1.65 -6,0 -1.66,-1.66 -1.66,-4.35 0,-6 1.65,-1.66 4.34,-1.66 6,0zm0.02 -0.03c-1.67,-1.67 -4.38,-1.67 -6.05,0 -1.67,1.67 -1.67,4.38 0,6.05 1.67,1.67 4.38,1.67 6.05,0 1.67,-1.67 1.67,-4.38 0,-6.05z"/>
     <path id="203" class="fil124" d="M8.31 2.28c1.67,1.67 1.67,4.37 0,6.03 -1.66,1.67 -4.36,1.67 -6.03,0 -1.66,-1.66 -1.66,-4.36 0,-6.03 1.67,-1.66 4.37,-1.66 6.03,0zm0.02 -0.02c-1.67,-1.68 -4.39,-1.68 -6.07,0 -1.68,1.68 -1.68,4.4 0,6.07 1.68,1.68 4.4,1.68 6.07,0 1.68,-1.67 1.68,-4.39 0,-6.07z"/>
     <path id="204" class="fil125" d="M8.33 2.27c1.67,1.67 1.67,4.38 0,6.06 -1.68,1.67 -4.39,1.67 -6.06,0 -1.68,-1.68 -1.68,-4.39 0,-6.06 1.67,-1.68 4.38,-1.68 6.06,0zm0.02 -0.03c-1.69,-1.68 -4.42,-1.68 -6.11,0 -1.68,1.69 -1.68,4.42 0,6.11 1.69,1.68 4.42,1.68 6.11,0 1.68,-1.69 1.68,-4.42 0,-6.11z"/>
     <path id="205" class="fil126" d="M8.34 2.25c1.68,1.68 1.68,4.41 0,6.09 -1.68,1.68 -4.41,1.68 -6.09,0 -1.68,-1.68 -1.68,-4.41 0,-6.09 1.68,-1.68 4.41,-1.68 6.09,0zm0.02 -0.02c-1.69,-1.7 -4.44,-1.7 -6.13,0 -1.7,1.69 -1.7,4.44 0,6.13 1.69,1.7 4.44,1.7 6.13,0 1.7,-1.69 1.7,-4.44 0,-6.13z"/>
     <path id="206" class="fil127" d="M8.36 2.24c1.69,1.69 1.69,4.43 0,6.12 -1.69,1.69 -4.43,1.69 -6.12,0 -1.69,-1.69 -1.69,-4.43 0,-6.12 1.69,-1.69 4.43,-1.69 6.12,0zm0.02 -0.03c-1.7,-1.7 -4.46,-1.7 -6.17,0 -1.7,1.71 -1.7,4.47 0,6.17 1.71,1.7 4.47,1.7 6.17,0 1.7,-1.7 1.7,-4.46 0,-6.17z"/>
     <path id="207" class="fil128" d="M8.37 2.22c1.7,1.7 1.7,4.45 0,6.15 -1.7,1.7 -4.45,1.7 -6.15,0 -1.7,-1.7 -1.7,-4.45 0,-6.15 1.7,-1.7 4.45,-1.7 6.15,0zm0.02 -0.02c-1.71,-1.71 -4.48,-1.71 -6.19,0 -1.71,1.71 -1.71,4.48 0,6.19 1.71,1.71 4.48,1.71 6.19,0 1.71,-1.71 1.71,-4.48 0,-6.19z"/>
     <path id="208" class="fil128" d="M8.39 2.21c1.7,1.7 1.7,4.47 0,6.18 -1.71,1.7 -4.48,1.7 -6.18,0 -1.71,-1.71 -1.71,-4.48 0,-6.18 1.7,-1.71 4.47,-1.71 6.18,0zm0.02 -0.03c-1.72,-1.72 -4.51,-1.72 -6.23,0 -1.72,1.72 -1.72,4.51 0,6.23 1.72,1.72 4.51,1.72 6.23,0 1.72,-1.72 1.72,-4.51 0,-6.23z"/>
     <path id="209" class="fil129" d="M8.4 2.19c1.72,1.72 1.72,4.5 0,6.21 -1.71,1.72 -4.49,1.72 -6.21,0 -1.71,-1.71 -1.71,-4.49 0,-6.21 1.72,-1.71 4.5,-1.71 6.21,0zm0.02 -0.02c-1.72,-1.73 -4.52,-1.73 -6.25,0 -1.73,1.73 -1.73,4.53 0,6.25 1.73,1.73 4.53,1.73 6.25,0 1.73,-1.72 1.73,-4.52 0,-6.25z"/>
     <path id="210" class="fil130" d="M8.42 2.18c1.72,1.72 1.72,4.51 0,6.24 -1.73,1.72 -4.52,1.72 -6.24,0 -1.73,-1.73 -1.73,-4.52 0,-6.24 1.72,-1.73 4.51,-1.73 6.24,0zm0.02 -0.03c-1.74,-1.73 -4.55,-1.73 -6.29,0 -1.73,1.74 -1.73,4.55 0,6.29 1.74,1.73 4.55,1.73 6.29,0 1.73,-1.74 1.73,-4.55 0,-6.29z"/>
     <path id="211" class="fil131" d="M8.43 2.16c1.73,1.73 1.73,4.54 0,6.27 -1.73,1.73 -4.54,1.73 -6.27,0 -1.73,-1.73 -1.73,-4.54 0,-6.27 1.73,-1.73 4.54,-1.73 6.27,0zm0.02 -0.02c-1.74,-1.74 -4.57,-1.74 -6.31,0 -1.74,1.74 -1.74,4.57 0,6.31 1.74,1.75 4.57,1.75 6.31,0 1.75,-1.74 1.75,-4.57 0,-6.31z"/>
     <path id="212" class="fil131" d="M8.45 2.15c1.73,1.74 1.73,4.56 0,6.3 -1.74,1.73 -4.56,1.73 -6.3,0 -1.74,-1.74 -1.74,-4.56 0,-6.3 1.74,-1.74 4.56,-1.74 6.3,0zm0.02 -0.03c-1.75,-1.75 -4.59,-1.75 -6.35,0 -1.75,1.76 -1.75,4.6 0,6.35 1.76,1.75 4.6,1.75 6.35,0 1.75,-1.75 1.75,-4.59 0,-6.35z"/>
     <path id="213" class="fil132" d="M8.46 2.13c1.75,1.75 1.75,4.58 0,6.33 -1.75,1.75 -4.58,1.75 -6.33,0 -1.75,-1.75 -1.75,-4.58 0,-6.33 1.75,-1.75 4.58,-1.75 6.33,0zm0.02 -0.02c-1.76,-1.76 -4.61,-1.76 -6.37,0 -1.76,1.76 -1.76,4.61 0,6.37 1.76,1.76 4.61,1.76 6.37,0 1.76,-1.76 1.76,-4.61 0,-6.37z"/>
     <path id="214" class="fil133" d="M8.48 2.12c1.75,1.75 1.75,4.6 0,6.36 -1.76,1.75 -4.61,1.75 -6.36,0 -1.76,-1.76 -1.76,-4.61 0,-6.36 1.75,-1.76 4.6,-1.76 6.36,0zm0.02 -0.03c-1.77,-1.76 -4.64,-1.76 -6.41,0 -1.76,1.77 -1.76,4.64 0,6.41 1.77,1.77 4.64,1.77 6.41,0 1.77,-1.77 1.77,-4.64 0,-6.41z"/>
     <path id="215" class="fil134" d="M8.49 2.1c1.76,1.77 1.76,4.63 0,6.39 -1.76,1.76 -4.62,1.76 -6.39,0 -1.76,-1.76 -1.76,-4.62 0,-6.39 1.77,-1.76 4.63,-1.76 6.39,0zm0.02 -0.02c-1.77,-1.78 -4.65,-1.78 -6.43,0 -1.78,1.78 -1.78,4.66 0,6.43 1.78,1.78 4.66,1.78 6.43,0 1.78,-1.77 1.78,-4.65 0,-6.43z"/>
     <path id="216" class="fil135" d="M8.51 2.09c1.77,1.77 1.77,4.64 0,6.42 -1.78,1.77 -4.65,1.77 -6.42,0 -1.78,-1.78 -1.78,-4.65 0,-6.42 1.77,-1.78 4.64,-1.78 6.42,0zm0.02 -0.03c-1.79,-1.78 -4.68,-1.78 -6.47,0 -1.78,1.79 -1.78,4.68 0,6.47 1.79,1.78 4.68,1.78 6.47,0 1.78,-1.79 1.78,-4.68 0,-6.47z"/>
     <path id="217" class="fil136" d="M8.52 2.07c1.78,1.78 1.78,4.67 0,6.45 -1.78,1.78 -4.67,1.78 -6.45,0 -1.78,-1.78 -1.78,-4.67 0,-6.45 1.78,-1.78 4.67,-1.78 6.45,0zm0.02 -0.02c-1.79,-1.79 -4.7,-1.79 -6.49,0 -1.79,1.79 -1.79,4.7 0,6.49 1.79,1.8 4.7,1.8 6.49,0 1.8,-1.79 1.8,-4.7 0,-6.49z"/>
     <path id="218" class="fil137" d="M8.53 2.06c1.79,1.79 1.79,4.69 0,6.47 -1.78,1.79 -4.68,1.79 -6.47,0 -1.79,-1.78 -1.79,-4.68 0,-6.47 1.79,-1.79 4.69,-1.79 6.47,0zm0.03 -0.03c-1.8,-1.8 -4.72,-1.8 -6.53,0 -1.8,1.81 -1.8,4.73 0,6.53 1.81,1.8 4.73,1.8 6.53,0 1.8,-1.8 1.8,-4.72 0,-6.53z"/>
     <path id="219" class="fil137" d="M8.55 2.04c1.8,1.8 1.8,4.71 0,6.51 -1.8,1.8 -4.71,1.8 -6.51,0 -1.8,-1.8 -1.8,-4.71 0,-6.51 1.8,-1.8 4.71,-1.8 6.51,0zm0.02 -0.02c-1.81,-1.81 -4.74,-1.81 -6.55,0 -1.81,1.81 -1.81,4.74 0,6.55 1.81,1.81 4.74,1.81 6.55,0 1.81,-1.81 1.81,-4.74 0,-6.55z"/>
     <path id="220" class="fil138" d="M8.56 2.03c1.81,1.8 1.81,4.73 0,6.53 -1.8,1.81 -4.73,1.81 -6.53,0 -1.81,-1.8 -1.81,-4.73 0,-6.53 1.8,-1.81 4.73,-1.81 6.53,0zm0.03 -0.03c-1.82,-1.81 -4.77,-1.81 -6.59,0 -1.81,1.82 -1.81,4.77 0,6.59 1.82,1.81 4.77,1.81 6.59,0 1.81,-1.82 1.81,-4.77 0,-6.59z"/>
     <path id="221" class="fil139" d="M8.58 2.01c1.81,1.82 1.81,4.76 0,6.57 -1.81,1.81 -4.75,1.81 -6.57,0 -1.81,-1.81 -1.81,-4.75 0,-6.57 1.82,-1.81 4.76,-1.81 6.57,0zm0.02 -0.02c-1.82,-1.83 -4.78,-1.83 -6.61,0 -1.83,1.83 -1.83,4.79 0,6.61 1.83,1.83 4.79,1.83 6.61,0 1.83,-1.82 1.83,-4.78 0,-6.61z"/>
     <path id="222" class="fil139" d="M8.59 2c1.83,1.82 1.83,4.77 0,6.59 -1.82,1.83 -4.77,1.83 -6.59,0 -1.82,-1.82 -1.82,-4.77 0,-6.59 1.82,-1.82 4.77,-1.82 6.59,0zm0.03 -0.03c-1.84,-1.83 -4.81,-1.83 -6.65,0 -1.83,1.84 -1.83,4.81 0,6.65 1.84,1.83 4.81,1.83 6.65,0 1.83,-1.84 1.83,-4.81 0,-6.65z"/>
     <path id="223" class="fil140" d="M8.61 1.98c1.83,1.83 1.83,4.8 0,6.63 -1.83,1.83 -4.8,1.83 -6.63,0 -1.83,-1.83 -1.83,-4.8 0,-6.63 1.83,-1.83 4.8,-1.83 6.63,0zm0.02 -0.02c-1.84,-1.84 -4.83,-1.84 -6.67,0 -1.84,1.84 -1.84,4.83 0,6.67 1.84,1.84 4.83,1.84 6.67,0 1.84,-1.84 1.84,-4.83 0,-6.67z"/>
     <path id="224" class="fil141" d="M8.62 1.97c1.84,1.84 1.84,4.82 0,6.65 -1.83,1.84 -4.81,1.84 -6.65,0 -1.84,-1.83 -1.84,-4.81 0,-6.65 1.84,-1.84 4.82,-1.84 6.65,0zm0.03 -0.03c-1.85,-1.85 -4.85,-1.85 -6.71,0 -1.85,1.86 -1.85,4.86 0,6.71 1.86,1.85 4.86,1.85 6.71,0 1.85,-1.85 1.85,-4.85 0,-6.71z"/>
     <path id="225" class="fil142" d="M8.64 1.95c1.85,1.85 1.85,4.84 0,6.69 -1.85,1.85 -4.84,1.85 -6.69,0 -1.84,-1.85 -1.84,-4.84 0,-6.69 1.85,-1.84 4.84,-1.84 6.69,0zm0.02 -0.02c-1.86,-1.86 -4.87,-1.86 -6.73,0 -1.86,1.86 -1.86,4.87 0,6.73 1.86,1.86 4.87,1.86 6.73,0 1.86,-1.86 1.86,-4.87 0,-6.73z"/>
     <path id="226" class="fil143" d="M8.65 1.94c1.86,1.85 1.86,4.86 0,6.71 -1.85,1.86 -4.86,1.86 -6.71,0 -1.86,-1.85 -1.86,-4.86 0,-6.71 1.85,-1.86 4.86,-1.86 6.71,0zm0.03 -0.02c-1.87,-1.87 -4.9,-1.87 -6.76,0 -1.87,1.86 -1.87,4.89 0,6.76 1.86,1.86 4.89,1.86 6.76,0 1.86,-1.87 1.86,-4.9 0,-6.76z"/>
     <path id="227" class="fil144" d="M8.67 1.92c1.86,1.87 1.86,4.89 0,6.75 -1.86,1.86 -4.88,1.86 -6.75,0 -1.86,-1.86 -1.86,-4.88 0,-6.75 1.87,-1.86 4.89,-1.86 6.75,0zm0.02 -0.02c-1.87,-1.88 -4.91,-1.88 -6.79,0 -1.88,1.88 -1.88,4.92 0,6.79 1.88,1.88 4.92,1.88 6.79,0 1.88,-1.87 1.88,-4.91 0,-6.79z"/>
     <path id="228" class="fil145" d="M8.68 1.91c1.88,1.87 1.88,4.9 0,6.77 -1.87,1.88 -4.9,1.88 -6.77,0 -1.87,-1.87 -1.87,-4.9 0,-6.77 1.87,-1.87 4.9,-1.87 6.77,0zm0.03 -0.02c-1.89,-1.89 -4.94,-1.89 -6.82,0 -1.89,1.88 -1.89,4.93 0,6.82 1.88,1.88 4.93,1.88 6.82,0 1.88,-1.89 1.88,-4.94 0,-6.82z"/>
     <path id="229" class="fil145" d="M8.7 1.89c1.88,1.88 1.88,4.93 0,6.81 -1.88,1.88 -4.93,1.88 -6.81,0 -1.88,-1.88 -1.88,-4.93 0,-6.81 1.88,-1.88 4.93,-1.88 6.81,0zm0.02 -0.02c-1.89,-1.89 -4.96,-1.89 -6.85,0 -1.89,1.89 -1.89,4.96 0,6.85 1.89,1.89 4.96,1.89 6.85,0 1.89,-1.89 1.89,-4.96 0,-6.85z"/>
     <path id="230" class="fil146" d="M8.71 1.88c1.89,1.89 1.89,4.95 0,6.83 -1.88,1.89 -4.94,1.89 -6.83,0 -1.89,-1.88 -1.89,-4.94 0,-6.83 1.89,-1.89 4.95,-1.89 6.83,0zm0.03 -0.02c-1.9,-1.9 -4.98,-1.9 -6.88,0 -1.9,1.9 -1.9,4.98 0,6.88 1.9,1.9 4.98,1.9 6.88,0 1.9,-1.9 1.9,-4.98 0,-6.88z"/>
     <path id="231" class="fil147" d="M8.73 1.86c1.89,1.9 1.89,4.97 0,6.87 -1.9,1.89 -4.97,1.89 -6.87,0 -1.89,-1.9 -1.89,-4.97 0,-6.87 1.9,-1.89 4.97,-1.89 6.87,0zm0.02 -0.02c-1.91,-1.91 -5,-1.91 -6.91,0 -1.91,1.91 -1.91,5 0,6.91 1.91,1.91 5,1.91 6.91,0 1.91,-1.91 1.91,-5 0,-6.91z"/>
     <path id="232" class="fil147" d="M8.74 1.85c1.91,1.9 1.91,4.99 0,6.89 -1.9,1.91 -4.99,1.91 -6.89,0 -1.91,-1.9 -1.91,-4.99 0,-6.89 1.9,-1.91 4.99,-1.91 6.89,0zm0.03 -0.02c-1.92,-1.92 -5.03,-1.92 -6.94,0 -1.92,1.91 -1.92,5.02 0,6.94 1.91,1.91 5.02,1.91 6.94,0 1.91,-1.92 1.91,-5.03 0,-6.94z"/>
     <path id="233" class="fil148" d="M8.76 1.83c1.91,1.92 1.91,5.02 0,6.93 -1.91,1.91 -5.01,1.91 -6.93,0 -1.91,-1.91 -1.91,-5.01 0,-6.93 1.92,-1.91 5.02,-1.91 6.93,0zm0.02 -0.02c-1.92,-1.92 -5.04,-1.92 -6.97,0 -1.92,1.93 -1.92,5.05 0,6.97 1.93,1.93 5.05,1.93 6.97,0 1.93,-1.92 1.93,-5.04 0,-6.97z"/>
     <path id="234" class="fil149" d="M8.77 1.82c1.92,1.92 1.92,5.03 0,6.95 -1.92,1.92 -5.03,1.92 -6.95,0 -1.92,-1.92 -1.92,-5.03 0,-6.95 1.92,-1.92 5.03,-1.92 6.95,0zm0.03 -0.02c-1.94,-1.94 -5.07,-1.94 -7,0 -1.94,1.93 -1.94,5.06 0,7 1.93,1.93 5.06,1.93 7,0 1.93,-1.94 1.93,-5.07 0,-7z"/>
     <path id="235" class="fil150" d="M8.79 1.8c1.93,1.93 1.93,5.06 0,6.99 -1.93,1.93 -5.06,1.93 -6.99,0 -1.93,-1.93 -1.93,-5.06 0,-6.99 1.93,-1.93 5.06,-1.93 6.99,0zm0.02 -0.02c-1.94,-1.94 -5.09,-1.94 -7.03,0 -1.94,1.94 -1.94,5.09 0,7.03 1.94,1.94 5.09,1.94 7.03,0 1.94,-1.94 1.94,-5.09 0,-7.03z"/>
     <path id="236" class="fil151" d="M8.8 1.79c1.94,1.94 1.94,5.08 0,7.01 -1.93,1.94 -5.07,1.94 -7.01,0 -1.94,-1.93 -1.94,-5.07 0,-7.01 1.94,-1.94 5.08,-1.94 7.01,0zm0.03 -0.02c-1.95,-1.95 -5.11,-1.95 -7.06,0 -1.95,1.95 -1.95,5.11 0,7.06 1.95,1.95 5.11,1.95 7.06,0 1.95,-1.95 1.95,-5.11 0,-7.06z"/>
     <path id="237" class="fil152" d="M8.82 1.77c1.94,1.95 1.94,5.1 0,7.05 -1.95,1.94 -5.1,1.94 -7.05,0 -1.94,-1.95 -1.94,-5.1 0,-7.05 1.95,-1.94 5.1,-1.94 7.05,0zm0.02 -0.02c-1.96,-1.96 -5.13,-1.96 -7.09,0 -1.96,1.96 -1.96,5.13 0,7.09 1.96,1.96 5.13,1.96 7.09,0 1.96,-1.96 1.96,-5.13 0,-7.09z"/>
     <path id="238" class="fil153" d="M8.83 1.76c1.96,1.95 1.96,5.12 0,7.07 -1.95,1.96 -5.12,1.96 -7.07,0 -1.96,-1.95 -1.96,-5.12 0,-7.07 1.95,-1.96 5.12,-1.96 7.07,0zm0.03 -0.02c-1.97,-1.97 -5.16,-1.97 -7.12,0 -1.97,1.96 -1.97,5.15 0,7.12 1.96,1.96 5.15,1.96 7.12,0 1.96,-1.97 1.96,-5.16 0,-7.12z"/>
     <path id="239" class="fil154" d="M8.85 1.74c1.96,1.97 1.96,5.15 0,7.11 -1.96,1.96 -5.14,1.96 -7.11,0 -1.96,-1.96 -1.96,-5.14 0,-7.11 1.97,-1.96 5.15,-1.96 7.11,0zm0.02 -0.02c-1.97,-1.97 -5.17,-1.97 -7.15,0 -1.97,1.98 -1.97,5.18 0,7.15 1.98,1.98 5.18,1.98 7.15,0 1.98,-1.97 1.98,-5.17 0,-7.15z"/>
     <path id="240" class="fil154" d="M8.86 1.73c1.97,1.97 1.97,5.16 0,7.13 -1.97,1.97 -5.16,1.97 -7.13,0 -1.97,-1.97 -1.97,-5.16 0,-7.13 1.97,-1.97 5.16,-1.97 7.13,0zm0.03 -0.02c-1.99,-1.99 -5.2,-1.99 -7.18,0 -1.99,1.98 -1.99,5.19 0,7.18 1.98,1.98 5.19,1.98 7.18,0 1.98,-1.99 1.98,-5.2 0,-7.18z"/>
     <path id="241" class="fil155" d="M8.88 1.71c1.98,1.98 1.98,5.19 0,7.17 -1.98,1.98 -5.19,1.98 -7.17,0 -1.97,-1.98 -1.97,-5.19 0,-7.17 1.98,-1.97 5.19,-1.97 7.17,0zm0.02 -0.02c-1.99,-1.99 -5.22,-1.99 -7.21,0 -1.99,1.99 -1.99,5.22 0,7.21 1.99,1.99 5.22,1.99 7.21,0 1.99,-1.99 1.99,-5.22 0,-7.21z"/>
     <path id="242" class="fil156" d="M8.89 1.7c1.99,1.99 1.99,5.21 0,7.19 -1.98,1.99 -5.2,1.99 -7.19,0 -1.99,-1.98 -1.99,-5.2 0,-7.19 1.99,-1.99 5.21,-1.99 7.19,0zm0.03 -0.02c-2,-2 -5.24,-2 -7.24,0 -2,2 -2,5.24 0,7.24 2,1.99 5.24,1.99 7.24,0 1.99,-2 1.99,-5.24 0,-7.24z"/>
     <path id="243" class="fil156" d="M8.91 1.68c1.99,2 1.99,5.23 0,7.23 -2,1.99 -5.23,1.99 -7.23,0 -1.99,-2 -1.99,-5.23 0,-7.23 2,-1.99 5.23,-1.99 7.23,0zm0.02 -0.02c-2.01,-2.01 -5.26,-2.01 -7.27,0 -2.01,2.01 -2.01,5.26 0,7.27 2.01,2.01 5.26,2.01 7.27,0 2.01,-2.01 2.01,-5.26 0,-7.27z"/>
     <path id="244" class="fil157" d="M8.92 1.67c2.01,2 2.01,5.25 0,7.25 -2,2.01 -5.25,2.01 -7.25,0 -2,-2 -2,-5.25 0,-7.25 2,-2 5.25,-2 7.25,0zm0.03 -0.02c-2.02,-2.02 -5.29,-2.02 -7.3,0 -2.02,2.01 -2.02,5.28 0,7.3 2.01,2.01 5.28,2.01 7.3,0 2.01,-2.02 2.01,-5.29 0,-7.3z"/>
     <path id="245" class="fil157" d="M8.94 1.65c2.01,2.02 2.01,5.28 0,7.29 -2.01,2.01 -5.27,2.01 -7.29,0 -2.01,-2.01 -2.01,-5.27 0,-7.29 2.02,-2.01 5.28,-2.01 7.29,0zm0.02 -0.02c-2.02,-2.02 -5.3,-2.02 -7.33,0 -2.02,2.03 -2.02,5.31 0,7.33 2.03,2.02 5.31,2.02 7.33,0 2.02,-2.02 2.02,-5.3 0,-7.33z"/>
     <path id="246" class="fil158" d="M8.95 1.64c2.02,2.02 2.02,5.29 0,7.31 -2.02,2.02 -5.29,2.02 -7.31,0 -2.02,-2.02 -2.02,-5.29 0,-7.31 2.02,-2.02 5.29,-2.02 7.31,0zm0.03 -0.02c-2.04,-2.04 -5.33,-2.04 -7.36,0 -2.04,2.03 -2.04,5.32 0,7.36 2.03,2.03 5.32,2.03 7.36,0 2.03,-2.04 2.03,-5.33 0,-7.36z"/>
     <path id="247" class="fil159" d="M8.97 1.62c2.03,2.03 2.03,5.32 0,7.35 -2.03,2.03 -5.32,2.03 -7.35,0 -2.02,-2.03 -2.02,-5.32 0,-7.35 2.03,-2.02 5.32,-2.02 7.35,0zm0.02 -0.02c-2.04,-2.04 -5.35,-2.04 -7.39,0 -2.04,2.04 -2.04,5.35 0,7.39 2.04,2.04 5.35,2.04 7.39,0 2.04,-2.04 2.04,-5.35 0,-7.39z"/>
     <path id="248" class="fil159" d="M8.98 1.61c2.04,2.04 2.04,5.34 0,7.37 -2.03,2.04 -5.33,2.04 -7.37,0 -2.04,-2.03 -2.04,-5.33 0,-7.37 2.04,-2.04 5.34,-2.04 7.37,0zm0.02 -0.02c-2.04,-2.05 -5.36,-2.05 -7.41,0 -2.05,2.05 -2.05,5.37 0,7.42 2.05,2.04 5.37,2.04 7.41,0 2.05,-2.05 2.05,-5.37 0,-7.42z"/>
     <path id="249" class="fil160" d="M9 1.59c2.04,2.05 2.04,5.36 0,7.41 -2.05,2.04 -5.36,2.04 -7.41,0 -2.04,-2.05 -2.04,-5.36 0,-7.41 2.05,-2.04 5.36,-2.04 7.41,0zm0.02 -0.02c-2.06,-2.06 -5.39,-2.06 -7.45,0 -2.06,2.06 -2.06,5.39 0,7.45 2.06,2.06 5.39,2.06 7.45,0 2.06,-2.06 2.06,-5.39 0,-7.45z"/>
     <path id="250" class="fil160" d="M9.01 1.58c2.06,2.05 2.06,5.38 0,7.43 -2.05,2.06 -5.38,2.06 -7.43,0 -2.05,-2.05 -2.05,-5.38 0,-7.43 2.05,-2.05 5.38,-2.05 7.43,0zm0.02 -0.02c-2.06,-2.07 -5.41,-2.07 -7.47,0 -2.07,2.06 -2.07,5.41 0,7.47 2.06,2.07 5.41,2.07 7.47,0 2.07,-2.06 2.07,-5.41 0,-7.47z"/>
     <path id="251" class="fil161" d="M9.03 1.56c2.06,2.07 2.06,5.41 0,7.47 -2.06,2.06 -5.4,2.06 -7.47,0 -2.06,-2.06 -2.06,-5.4 0,-7.47 2.07,-2.06 5.41,-2.06 7.47,0zm0.02 -0.02c-2.07,-2.07 -5.43,-2.07 -7.51,0 -2.07,2.08 -2.07,5.44 0,7.51 2.08,2.07 5.44,2.07 7.51,0 2.07,-2.07 2.07,-5.43 0,-7.51z"/>
     <path id="252" class="fil162" d="M9.04 1.55c2.07,2.07 2.07,5.42 0,7.49 -2.07,2.07 -5.42,2.07 -7.49,0 -2.07,-2.07 -2.07,-5.42 0,-7.49 2.07,-2.07 5.42,-2.07 7.49,0zm0.02 -0.02c-2.08,-2.08 -5.45,-2.08 -7.53,0 -2.08,2.08 -2.08,5.45 0,7.53 2.08,2.09 5.45,2.09 7.53,0 2.09,-2.08 2.09,-5.45 0,-7.53z"/>
     <path id="253" class="fil163" d="M9.06 1.53c2.07,2.08 2.07,5.45 0,7.53 -2.08,2.07 -5.45,2.07 -7.53,0 -2.07,-2.08 -2.07,-5.45 0,-7.53 2.08,-2.07 5.45,-2.07 7.53,0zm0.02 -0.02c-2.09,-2.09 -5.48,-2.09 -7.57,0 -2.09,2.09 -2.09,5.48 0,7.57 2.09,2.09 5.48,2.09 7.57,0 2.09,-2.09 2.09,-5.48 0,-7.57z"/>
     <path id="254" class="fil164" d="M9.07 1.52c2.09,2.09 2.09,5.47 0,7.55 -2.08,2.09 -5.46,2.09 -7.55,0 -2.09,-2.08 -2.09,-5.46 0,-7.55 2.09,-2.09 5.47,-2.09 7.55,0zm0.02 -0.02c-2.09,-2.1 -5.49,-2.1 -7.59,0 -2.1,2.1 -2.1,5.5 0,7.59 2.1,2.1 5.5,2.1 7.59,0 2.1,-2.09 2.1,-5.49 0,-7.59z"/>
     <path id="255" class="fil0" d="M9.09 1.5c2.09,2.1 2.09,5.49 0,7.59 -2.1,2.09 -5.49,2.09 -7.59,0 -2.09,-2.1 -2.09,-5.49 0,-7.59 2.1,-2.09 5.49,-2.09 7.59,0zm0.02 -0.02c-2.11,-2.1 -5.52,-2.1 -7.63,0 -2.1,2.11 -2.1,5.52 0,7.63 2.11,2.11 5.52,2.11 7.63,0 2.11,-2.11 2.11,-5.52 0,-7.63z"/>
     <path id="256" class="fil0" d="M9.1 1.49c2.1,2.1 2.1,5.51 0,7.61 -2.1,2.1 -5.51,2.1 -7.61,0 -2.1,-2.1 -2.1,-5.51 0,-7.61 2.1,-2.1 5.51,-2.1 7.61,0zm0.02 -0.02c-2.11,-2.11 -5.53,-2.11 -7.65,0 -2.11,2.12 -2.11,5.54 0,7.65 2.12,2.11 5.54,2.11 7.65,0 2.11,-2.11 2.11,-5.53 0,-7.65z"/>
    </g>
   </g>
   <path class="fil165" d="M5.4 4.09c0.37,0 0.71,0.15 0.95,0.4l-0.01 -0.01c0.32,-0.93 0.37,-1.93 -0.94,-1.93 -0.63,0 -0.94,0.24 -1.06,0.58 -0.02,-0.01 -0.03,-0.01 -0.04,-0.02 0.37,0.21 0.73,0.56 0.99,0.99 0.04,-0.01 0.08,-0.01 0.11,-0.01zm1.08 0.56c0.15,0.21 0.24,0.47 0.24,0.75 0,0.12 -0.02,0.24 -0.05,0.35 0.97,-0.18 1.86,-0.64 1.2,-1.77 -0.31,-0.55 -0.67,-0.71 -1.03,-0.64 0,-0.01 0,-0.03 0,-0.04 0,0.43 -0.13,0.91 -0.36,1.35zm0.11 1.31c-0.16,0.35 -0.47,0.61 -0.85,0.71 0.64,0.75 1.48,1.29 2.13,0.16 0.32,-0.55 0.27,-0.94 0.03,-1.21 0.02,-0.01 0.03,-0.02 0.04,-0.03 -0.37,0.22 -0.85,0.35 -1.35,0.37zm-1.07 0.75c-0.04,0.01 -0.08,0.01 -0.12,0.01 -0.36,0 -0.69,-0.15 -0.93,-0.39 -0.32,0.93 -0.37,1.92 0.93,1.92 0.64,0 0.95,-0.23 1.07,-0.57 -0.36,-0.22 -0.7,-0.56 -0.95,-0.97zm-1.19 -0.55c-0.15,-0.22 -0.24,-0.48 -0.24,-0.76 0,-0.11 0.02,-0.23 0.05,-0.34 -0.97,0.18 -1.86,0.64 -1.2,1.77 0.31,0.55 0.67,0.7 1.03,0.63 0.01,-0.42 0.13,-0.88 0.36,-1.3zm-0.12 -1.31c0.17,-0.35 0.48,-0.62 0.86,-0.72 -0.64,-0.74 -1.48,-1.28 -2.13,-0.15 -0.32,0.55 -0.28,0.94 -0.04,1.21 -0.01,0.01 -0.02,0.02 -0.04,0.03 0.38,-0.22 0.86,-0.35 1.35,-0.37zm2.63 -1.6c0,-0.01 0,-0.03 0,-0.04 0,0.01 0,0.03 0,0.04zm-0.03 -0.28c-0.07,-0.42 -0.29,-0.77 -0.67,-0.96 -0.15,0.25 -0.42,0.42 -0.74,0.42 -0.31,0 -0.58,-0.17 -0.74,-0.42 -0.37,0.19 -0.59,0.54 -0.66,0.96 -0.4,-0.15 -0.81,-0.13 -1.16,0.1 0.14,0.25 0.14,0.57 -0.01,0.85 -0.16,0.27 -0.44,0.42 -0.73,0.43 -0.03,0.42 0.17,0.78 0.49,1.05 -0.32,0.28 -0.52,0.64 -0.49,1.06 0.29,0.01 0.57,0.16 0.73,0.43 0.15,0.27 0.15,0.59 0.01,0.85 0.35,0.23 0.76,0.24 1.16,0.1 0.07,0.42 0.29,0.76 0.66,0.96 0.16,-0.25 0.43,-0.42 0.74,-0.42 0.32,0 0.59,0.17 0.74,0.42 0.38,-0.2 0.6,-0.54 0.67,-0.96 0.4,0.14 0.81,0.13 1.16,-0.1 -0.14,-0.26 -0.15,-0.58 0.01,-0.85 0.16,-0.27 0.44,-0.42 0.73,-0.43 0.02,-0.42 -0.17,-0.78 -0.5,-1.06 0.33,-0.27 0.52,-0.63 0.5,-1.05 -0.29,-0.01 -0.57,-0.16 -0.73,-0.43 -0.16,-0.28 -0.15,-0.6 -0.01,-0.85 -0.35,-0.23 -0.76,-0.25 -1.16,-0.1zm1.17 2.6c-0.01,0.01 -0.02,0.01 -0.03,0.02l0.03 -0.02zm-1.14 -2.32c0,0.02 0,0.03 0,0.05l0 -0.05zm2.51 -0.12c0.2,0.34 0.08,0.77 -0.26,0.97 -0.34,0.19 -0.78,0.08 -0.97,-0.26 -0.2,-0.34 -0.08,-0.78 0.26,-0.97 0.34,-0.2 0.77,-0.08 0.97,0.26zm-2.76 4.61c-0.01,-0.01 -0.02,-0.01 -0.03,-0.02l0.03 0.02zm-0.08 -0.04c-0.01,-0.01 -0.03,-0.02 -0.04,-0.02 0.01,0 0.03,0.01 0.04,0.02zm2.84 -0.02c-0.2,0.34 -0.63,0.46 -0.97,0.26 -0.34,-0.19 -0.46,-0.63 -0.26,-0.97 0.19,-0.34 0.63,-0.46 0.97,-0.26 0.34,0.2 0.46,0.63 0.26,0.97zm-5.38 -0.17c0,-0.02 0,-0.03 0,-0.05l0 0.05zm1.43 2.45c-0.39,0 -0.71,-0.32 -0.71,-0.71 0,-0.4 0.32,-0.71 0.71,-0.71 0.4,0 0.72,0.31 0.72,0.71 0,0.39 -0.32,0.71 -0.72,0.71zm-2.61 -4.7c0.01,0 0.02,-0.01 0.03,-0.02 -0.01,0.01 -0.02,0.02 -0.03,0.02zm0.04 -0.02c0.01,-0.01 0.02,-0.02 0.03,-0.02 -0.01,0 -0.02,0.01 -0.03,0.02zm-1.37 2.44c-0.2,-0.34 -0.08,-0.77 0.26,-0.97 0.34,-0.2 0.77,-0.08 0.97,0.26 0.2,0.34 0.08,0.78 -0.26,0.97 -0.34,0.2 -0.77,0.08 -0.97,-0.26zm2.76 -4.61c0.02,0.01 0.05,0.02 0.08,0.04 -0.03,-0.02 -0.06,-0.03 -0.08,-0.04zm-2.76 0.06c0.2,-0.34 0.63,-0.46 0.97,-0.26 0.34,0.19 0.46,0.63 0.26,0.97 -0.2,0.34 -0.63,0.45 -0.97,0.26 -0.34,-0.2 -0.46,-0.63 -0.26,-0.97zm3.94 -2.28c0.4,0 0.72,0.32 0.72,0.71 0,0.39 -0.32,0.71 -0.72,0.71 -0.39,0 -0.71,-0.32 -0.71,-0.71 0,-0.39 0.32,-0.71 0.71,-0.71zm0.16 5.48c0,0 -0.06,-0.14 0.28,-0.29 0.33,-0.15 0.38,-0.22 0.48,-0.48 0.1,-0.27 0.12,-0.33 0.12,-0.33 0,0 -0.39,-0.11 -0.64,0.02 -0.25,0.13 -0.31,0.35 -0.34,0.46 -0.02,0.11 -0.02,0.34 -0.02,0.34 0,0 0.12,-0.35 0.29,-0.48 0.16,-0.13 0.37,-0.16 0.37,-0.16 0,0 -0.66,0.47 -0.54,0.92zm-0.21 -0.94c0,0 -0.29,-0.16 -0.24,-0.55 0.05,-0.4 0.28,-0.55 0.28,-0.55 0,0 0.29,0.21 0.3,0.55 0.01,0.35 -0.21,0.55 -0.21,0.55l-0.09 -0.76c0,0 -0.04,0.34 -0.04,0.76zm-0.1 0.94c0,0 0.06,-0.14 -0.28,-0.29 -0.33,-0.15 -0.38,-0.22 -0.48,-0.48 -0.1,-0.27 -0.12,-0.33 -0.12,-0.33 0,0 0.38,-0.11 0.64,0.02 0.25,0.13 0.31,0.35 0.34,0.46 0.02,0.11 0.02,0.34 0.02,0.34 0,0 -0.13,-0.35 -0.29,-0.48 -0.16,-0.13 -0.37,-0.16 -0.37,-0.16 0,0 0.65,0.47 0.54,0.92z"/>
  </g>
 </g>
</svg>
