<?xml version="1.0" encoding="UTF-8"?>
<!DOCTYPE svg PUBLIC "-//W3C//DTD SVG 1.1//EN" "http://www.w3.org/Graphics/SVG/1.1/DTD/svg11.dtd">
<!-- Creator: CorelDRAW 2018 (64-Bit) -->
<svg xmlns="http://www.w3.org/2000/svg" xml:space="preserve" width="90px" height="90px" version="1.1" style="shape-rendering:geometricPrecision; text-rendering:geometricPrecision; image-rendering:optimizeQuality; fill-rule:evenodd; clip-rule:evenodd"
viewBox="0 0 6.76 6.76"
 xmlns:xlink="http://www.w3.org/1999/xlink">
 <defs>
  <style type="text/css">
   <![CDATA[
    .fil1 {fill:#FEFEFE}
    .fil0 {fill:#B6B6B7}
   ]]>
  </style>
 </defs>
 <g id="Layer_x0020_1">
  <metadata id="CorelCorpID_0Corel-Layer"/>
  <g id="_1691417942800">
   <path class="fil0" d="M2.88 0l1 0c2.14,0.06 2.79,0.9 2.88,2.74l0 1.28c-0.09,1.84 -0.74,2.68 -2.88,2.74l-1 0c-2.14,-0.06 -2.79,-0.9 -2.88,-2.74l0 -1.28c0.09,-1.84 0.74,-2.68 2.88,-2.74z"/>
   <path class="fil1" d="M3.38 2.56c0.23,0 0.44,0.09 0.59,0.25l-0.01 -0.01c0.21,-0.58 0.24,-1.2 -0.58,-1.2 -0.4,0 -0.59,0.14 -0.67,0.36 -0.01,-0.01 -0.01,-0.01 -0.02,-0.01 0.23,0.13 0.45,0.35 0.62,0.61 0.02,0 0.05,0 0.07,0zm0.67 0.35c0.1,0.13 0.15,0.29 0.15,0.47 0,0.07 -0.01,0.15 -0.03,0.21 0.61,-0.11 1.16,-0.39 0.75,-1.1 -0.19,-0.34 -0.42,-0.44 -0.64,-0.4 0,-0.01 0,-0.02 0,-0.03 0,0.27 -0.08,0.57 -0.23,0.85zm0.07 0.82c-0.1,0.22 -0.29,0.38 -0.53,0.44 0.4,0.47 0.93,0.81 1.33,0.1 0.2,-0.34 0.17,-0.58 0.02,-0.76 0.01,0 0.02,-0.01 0.03,-0.01 -0.24,0.14 -0.53,0.22 -0.85,0.23zm-0.67 0.47c-0.02,0 -0.05,0 -0.07,0 -0.23,0 -0.43,-0.09 -0.58,-0.24 -0.21,0.58 -0.24,1.2 0.58,1.2 0.4,0 0.59,-0.14 0.67,-0.36 -0.23,-0.13 -0.44,-0.35 -0.6,-0.6zm-0.74 -0.35c-0.1,-0.13 -0.15,-0.29 -0.15,-0.47 0,-0.07 0.01,-0.15 0.03,-0.21 -0.61,0.11 -1.16,0.39 -0.75,1.1 0.19,0.34 0.42,0.44 0.64,0.4 0.01,-0.27 0.09,-0.55 0.23,-0.82zm-0.07 -0.82c0.1,-0.22 0.29,-0.38 0.53,-0.44 -0.4,-0.47 -0.93,-0.81 -1.33,-0.1 -0.2,0.34 -0.17,0.58 -0.02,0.76 -0.01,0 -0.02,0.01 -0.03,0.01 0.24,-0.14 0.53,-0.22 0.85,-0.23zm1.64 -1c0,-0.01 0,-0.01 0,-0.02 0,0.01 0,0.01 0,0.02zm-0.02 -0.17c-0.05,-0.26 -0.18,-0.48 -0.42,-0.6 -0.09,0.15 -0.26,0.26 -0.46,0.26 -0.2,0 -0.37,-0.11 -0.46,-0.26 -0.24,0.12 -0.37,0.34 -0.42,0.6 -0.25,-0.09 -0.5,-0.09 -0.73,0.06 0.09,0.16 0.1,0.36 0,0.53 -0.1,0.17 -0.28,0.27 -0.46,0.27 -0.01,0.26 0.11,0.49 0.31,0.66 -0.2,0.17 -0.32,0.4 -0.31,0.66 0.18,0 0.36,0.1 0.46,0.27 0.1,0.17 0.09,0.37 0,0.53 0.23,0.15 0.48,0.15 0.73,0.06 0.05,0.26 0.18,0.48 0.42,0.6 0.09,-0.15 0.26,-0.26 0.46,-0.26 0.2,0 0.37,0.11 0.46,0.26 0.24,-0.12 0.37,-0.34 0.42,-0.6 0.25,0.09 0.5,0.09 0.73,-0.06 -0.09,-0.16 -0.1,-0.36 0,-0.53 0.1,-0.17 0.28,-0.27 0.46,-0.27 0.01,-0.26 -0.11,-0.49 -0.31,-0.66 0.2,-0.17 0.32,-0.4 0.31,-0.66 -0.18,0 -0.36,-0.1 -0.46,-0.27 -0.1,-0.17 -0.09,-0.37 0,-0.53 -0.23,-0.15 -0.48,-0.15 -0.73,-0.06zm0.73 1.62c0,0.01 -0.01,0.01 -0.02,0.02l0.02 -0.02zm-0.71 -1.45c0,0.01 0,0.02 0,0.03l0 -0.03zm1.57 -0.07c0.12,0.21 0.05,0.48 -0.17,0.6 -0.21,0.13 -0.48,0.05 -0.6,-0.16 -0.13,-0.21 -0.05,-0.48 0.16,-0.61 0.21,-0.12 0.48,-0.05 0.61,0.17zm-1.73 2.88c-0.01,0 -0.01,-0.01 -0.02,-0.01l0.02 0.01zm-0.05 -0.03c-0.01,0 -0.01,0 -0.02,-0.01 0.01,0.01 0.01,0.01 0.02,0.01zm1.78 -0.01c-0.13,0.22 -0.4,0.29 -0.61,0.17 -0.21,-0.13 -0.29,-0.4 -0.16,-0.61 0.12,-0.21 0.39,-0.29 0.6,-0.16 0.22,0.12 0.29,0.39 0.17,0.6zm-3.37 -0.11c0,0 0,-0.01 0,-0.02l0 0.02zm0.9 1.54c-0.25,0 -0.44,-0.2 -0.44,-0.45 0,-0.24 0.19,-0.44 0.44,-0.44 0.25,0 0.45,0.2 0.45,0.44 0,0.25 -0.2,0.45 -0.45,0.45zm-1.64 -2.94c0.01,0 0.02,-0.01 0.02,-0.01 0,0 -0.01,0.01 -0.02,0.01zm0.03 -0.01c0,-0.01 0.01,-0.01 0.02,-0.02 -0.01,0.01 -0.02,0.01 -0.02,0.02zm-0.86 1.52c-0.12,-0.21 -0.05,-0.48 0.17,-0.6 0.21,-0.13 0.48,-0.05 0.6,0.16 0.13,0.21 0.05,0.48 -0.16,0.61 -0.21,0.12 -0.48,0.05 -0.61,-0.17zm1.73 -2.88c0.01,0.01 0.03,0.02 0.05,0.02 -0.02,0 -0.04,-0.01 -0.05,-0.02zm-1.73 0.04c0.13,-0.22 0.4,-0.29 0.61,-0.17 0.21,0.13 0.29,0.4 0.16,0.61 -0.12,0.21 -0.39,0.29 -0.6,0.16 -0.22,-0.12 -0.29,-0.39 -0.17,-0.6zm2.47 -1.43c0.25,0 0.45,0.2 0.45,0.45 0,0.24 -0.2,0.44 -0.45,0.44 -0.25,0 -0.44,-0.2 -0.44,-0.44 0,-0.25 0.19,-0.45 0.44,-0.45zm0.1 3.43c0,0 -0.04,-0.09 0.17,-0.18 0.21,-0.1 0.24,-0.14 0.3,-0.3 0.07,-0.17 0.08,-0.21 0.08,-0.21 0,0 -0.24,-0.07 -0.4,0.01 -0.16,0.08 -0.2,0.22 -0.21,0.29 -0.02,0.07 -0.02,0.21 -0.02,0.21 0,0 0.08,-0.22 0.18,-0.3 0.1,-0.08 0.24,-0.1 0.24,-0.1 0,0 -0.42,0.3 -0.34,0.58zm-0.13 -0.59c0,0 -0.19,-0.1 -0.16,-0.34 0.03,-0.25 0.18,-0.35 0.18,-0.35 0,0 0.19,0.13 0.19,0.35 0.01,0.21 -0.13,0.34 -0.13,0.34l-0.06 -0.48c0,0 -0.03,0.22 -0.02,0.48zm-0.07 0.59c0,0 0.04,-0.09 -0.17,-0.18 -0.21,-0.1 -0.24,-0.14 -0.3,-0.3 -0.07,-0.17 -0.08,-0.21 -0.08,-0.21 0,0 0.24,-0.07 0.4,0.01 0.16,0.08 0.2,0.22 0.21,0.29 0.02,0.07 0.02,0.21 0.02,0.21 0,0 -0.08,-0.22 -0.18,-0.3 -0.1,-0.08 -0.24,-0.1 -0.24,-0.1 0,0 0.42,0.3 0.34,0.58z"/>
  </g>
 </g>
</svg>
