<?xml version="1.0" encoding="UTF-8"?>
<!DOCTYPE svg PUBLIC "-//W3C//DTD SVG 1.1//EN" "http://www.w3.org/Graphics/SVG/1.1/DTD/svg11.dtd">
<!-- Creator: CorelDRAW 2018 (64-Bit) -->
<svg xmlns="http://www.w3.org/2000/svg" xml:space="preserve" width="97px" height="50px" version="1.1" style="shape-rendering:geometricPrecision; text-rendering:geometricPrecision; image-rendering:optimizeQuality; fill-rule:evenodd; clip-rule:evenodd"
viewBox="0 0 5.12 2.64"
 xmlns:xlink="http://www.w3.org/1999/xlink">
 <defs>
  <style type="text/css">
   <![CDATA[
    .fil0 {fill:#EEEEEF}
   ]]>
  </style>
 </defs>
 <g id="Layer_x0020_1">
  <metadata id="CorelCorpID_0Corel-Layer"/>
  <path class="fil0" d="M0.45 1.26c-0.07,-0.08 -0.09,-0.2 0,-0.35 0.19,-0.33 0.44,-0.18 0.62,0.04 -0.11,0.03 -0.2,0.11 -0.25,0.21l0.01 0c-0.14,0 -0.28,0.04 -0.38,0.1zm2.21 0.19l0 -0.09 0 0 0 -0.49c0,-0.07 -0.01,-0.15 -0.07,-0.15l0 -0.03c0.17,0 0.26,0.04 0.26,0.2l0 0.1 0.12 0 0 0.17 -0.12 0 0 0.2 0 0.08c0,0.1 0.07,0.1 0.14,0.09l0 0.15c-0.2,0.07 -0.33,-0.03 -0.33,-0.23zm0.4 0.01l0 -0.24c0,-0.32 0.56,-0.34 0.56,0l0 0.2 -0.37 0 0 0.03c0,0.1 0.17,0.11 0.21,0.03l0.13 0.09c-0.12,0.22 -0.53,0.16 -0.53,-0.11zm0.38 -0.24c0,-0.1 -0.19,-0.1 -0.19,0l0 0.06 0.19 0 0 -0.06zm0.65 -0.23l0 0.15c-0.07,-0.02 -0.19,0 -0.19,0.09l0 0.46 -0.19 0 0 -0.46c0,-0.21 0.2,-0.28 0.38,-0.24zm0.44 0l0 0.15c-0.07,-0.02 -0.19,0 -0.19,0.09l0 0.46 -0.19 0 0 -0.46c0,-0.21 0.2,-0.28 0.38,-0.24zm0.03 0.49c0,-0.21 0.21,-0.26 0.38,-0.2l0 -0.05c0,-0.15 -0.19,-0.11 -0.26,-0.04l-0.09 -0.1c0.17,-0.19 0.53,-0.14 0.53,0.14l0 0.42c-0.18,0.07 -0.56,0.12 -0.56,-0.17zm0.21 -0.06c-0.04,0.03 -0.04,0.09 0,0.12 0.03,0.03 0.12,0.02 0.16,0.01l0 -0.14c-0.04,-0.02 -0.13,-0.03 -0.16,0.01zm-3.63 -0.48c-0.08,-0.12 -0.17,-0.22 -0.28,-0.28 0.04,-0.1 0.13,-0.17 0.31,-0.17 0.38,0 0.36,0.29 0.27,0.56 -0.07,-0.07 -0.17,-0.11 -0.27,-0.11 -0.01,0 -0.02,0 -0.03,0zm0.34 0.16c0.07,-0.12 0.1,-0.26 0.1,-0.38 0.11,-0.02 0.21,0.03 0.3,0.19 0.19,0.32 -0.06,0.46 -0.34,0.51 0.01,-0.03 0.01,-0.07 0.01,-0.1 0,-0.08 -0.03,-0.16 -0.07,-0.22zm0.03 0.38c0.14,-0.01 0.28,-0.04 0.38,-0.1 0.07,0.08 0.09,0.19 -0.01,0.35 -0.19,0.33 -0.43,0.17 -0.61,-0.04 0.11,-0.03 0.2,-0.11 0.24,-0.21zm-0.31 0.22c0.08,0.12 0.17,0.21 0.28,0.28l0 0c-0.04,0.1 -0.13,0.16 -0.31,0.16 -0.38,0 -0.36,-0.28 -0.27,-0.55 0.07,0.07 0.16,0.11 0.27,0.11 0.01,0 0.02,0 0.03,0zm-0.34 -0.16l0 0c-0.07,0.12 -0.1,0.25 -0.11,0.37 -0.1,0.02 -0.2,-0.02 -0.3,-0.18 -0.18,-0.33 0.07,-0.46 0.35,-0.51 -0.01,0.03 -0.01,0.06 -0.01,0.1 0,0.08 0.03,0.16 0.07,0.22zm0.35 0.05c0,0 -0.01,-0.04 0.09,-0.09 0.09,-0.04 0.1,-0.06 0.13,-0.14 0.03,-0.07 0.04,-0.09 0.04,-0.09 0,0 -0.11,-0.03 -0.19,0 -0.07,0.04 -0.09,0.1 -0.09,0.14 -0.01,0.03 -0.01,0.1 -0.01,0.1 0,0 0.04,-0.11 0.08,-0.14 0.05,-0.04 0.11,-0.05 0.11,-0.05 0,0 -0.19,0.14 -0.16,0.27zm-0.06 -0.28c0,0 -0.08,-0.04 -0.07,-0.16 0.02,-0.11 0.09,-0.15 0.09,-0.15 0,0 0.08,0.06 0.08,0.16 0.01,0.1 -0.06,0.16 -0.06,0.16l-0.02 -0.23c0,0 -0.02,0.1 -0.02,0.22zm-0.03 0.28c0,0 0.02,-0.04 -0.08,-0.09 -0.09,-0.04 -0.11,-0.06 -0.14,-0.14 -0.02,-0.07 -0.03,-0.09 -0.03,-0.09 0,0 0.11,-0.03 0.18,0 0.08,0.04 0.09,0.1 0.1,0.14 0.01,0.03 0.01,0.1 0.01,0.1 0,0 -0.04,-0.11 -0.08,-0.14 -0.05,-0.04 -0.11,-0.05 -0.11,-0.05 0,0 0.19,0.14 0.15,0.27zm-0.36 0.43c0.02,0.12 0.09,0.22 0.2,0.28 0.04,-0.07 0.12,-0.12 0.21,-0.12 0.09,0 0.17,0.05 0.21,0.12 0.11,-0.06 0.18,-0.16 0.2,-0.28 0.11,0.05 0.23,0.04 0.33,-0.02 -0.04,-0.08 -0.04,-0.17 0.01,-0.25 0.04,-0.08 0.12,-0.12 0.21,-0.13 0,-0.12 -0.05,-0.22 -0.15,-0.3 0.1,-0.08 0.15,-0.18 0.15,-0.31 -0.09,0 -0.17,-0.04 -0.21,-0.12 -0.05,-0.08 -0.05,-0.17 -0.01,-0.25 -0.1,-0.07 -0.22,-0.07 -0.33,-0.03 -0.02,-0.12 -0.09,-0.22 -0.2,-0.27 -0.04,0.07 -0.12,0.12 -0.21,0.12 -0.09,0 -0.17,-0.05 -0.21,-0.12 -0.11,0.05 -0.18,0.15 -0.2,0.27 -0.11,-0.04 -0.23,-0.04 -0.33,0.03 0.04,0.08 0.04,0.17 -0.01,0.25 -0.04,0.08 -0.12,0.12 -0.21,0.12 0,0.13 0.05,0.23 0.15,0.31 -0.1,0.08 -0.15,0.18 -0.15,0.3 0.09,0.01 0.17,0.05 0.21,0.13 0.05,0.08 0.05,0.17 0.01,0.25 0.1,0.06 0.22,0.07 0.33,0.02zm-0.73 -0.04c-0.06,-0.1 -0.03,-0.23 0.07,-0.28 0.1,-0.06 0.23,-0.03 0.28,0.07 0.06,0.1 0.03,0.23 -0.07,0.28 -0.1,0.06 -0.23,0.03 -0.28,-0.07zm1.14 0.66c-0.11,0 -0.21,-0.1 -0.21,-0.21 0,-0.11 0.1,-0.2 0.21,-0.2 0.11,0 0.21,0.09 0.21,0.2 0,0.11 -0.1,0.21 -0.21,0.21zm1.14 -0.66c-0.06,0.1 -0.18,0.13 -0.28,0.07 -0.1,-0.05 -0.13,-0.18 -0.08,-0.28 0.06,-0.1 0.19,-0.13 0.29,-0.07 0.09,0.05 0.13,0.18 0.07,0.28zm0 -1.32c0.06,0.1 0.02,0.22 -0.07,0.28 -0.1,0.06 -0.23,0.02 -0.29,-0.07 -0.05,-0.1 -0.02,-0.23 0.08,-0.29 0.1,-0.05 0.22,-0.02 0.28,0.08zm-1.14 -0.66c0.11,0 0.21,0.09 0.21,0.21 0,0.11 -0.1,0.2 -0.21,0.2 -0.11,0 -0.21,-0.09 -0.21,-0.2 0,-0.12 0.1,-0.21 0.21,-0.21zm-1.14 0.66c0.05,-0.1 0.18,-0.13 0.28,-0.08 0.1,0.06 0.13,0.19 0.07,0.29 -0.05,0.09 -0.18,0.13 -0.28,0.07 -0.1,-0.06 -0.13,-0.18 -0.07,-0.28z"/>
 </g>
</svg>
