<?xml version="1.0" encoding="UTF-8"?>
<!DOCTYPE svg PUBLIC "-//W3C//DTD SVG 1.1//EN" "http://www.w3.org/Graphics/SVG/1.1/DTD/svg11.dtd">
<!-- Creator: CorelDRAW 2018 (64-Bit) -->
<svg xmlns="http://www.w3.org/2000/svg" xml:space="preserve" width="133px" height="71px" version="1.1" style="shape-rendering:geometricPrecision; text-rendering:geometricPrecision; image-rendering:optimizeQuality; fill-rule:evenodd; clip-rule:evenodd"
viewBox="0 0 16 8.55"
 xmlns:xlink="http://www.w3.org/1999/xlink">
 <defs>
  <style type="text/css">
   <![CDATA[
    .fil0 {fill:#FEFEFE}
   ]]>
  </style>
 </defs>
 <g id="Layer_x0020_1">
  <metadata id="CorelCorpID_0Corel-Layer"/>
  <path class="fil0" d="M0.44 4.76l0 -0.57 0 0 0 -3.1c0,-0.41 -0.06,-0.91 -0.44,-0.95l0 -0.14c1.04,0 1.63,0.22 1.63,1.24l0 0.63 0.79 0 0 1.09 -0.79 0 0 1.23 0 0.56c0,0.62 0.44,0.62 0.92,0.53l0 0.98c-1.29,0.43 -2.11,-0.22 -2.11,-1.5zm2.52 0.06l0 -1.46c0,-2.04 3.53,-2.16 3.53,-0.05l0 1.3 -2.32 0 0 0.2c0,0.63 1.06,0.68 1.36,0.19l0.78 0.56c-0.74,1.39 -3.35,1.01 -3.35,-0.74zm2.41 -1.5c0,-0.63 -1.2,-0.61 -1.2,0.01l0 0.4 1.2 0 0 -0.41zm4.1 -1.45l0 0.96c-0.42,-0.11 -1.17,0 -1.17,0.55l0 2.94 -1.2 0 0 -2.95c0,-1.3 1.27,-1.75 2.37,-1.5zm2.79 0l0 0.96c-0.43,-0.11 -1.18,0 -1.18,0.55l0 2.94 -1.19 0 0 -2.95c0,-1.3 1.26,-1.75 2.37,-1.5zm0.22 3.13c0,-1.32 1.3,-1.69 2.37,-1.32l0 -0.31c0,-0.9 -1.17,-0.68 -1.62,-0.21l-0.58 -0.63c1.06,-1.22 3.35,-0.92 3.35,0.84l0 2.71c-1.14,0.42 -3.52,0.71 -3.52,-1.08zm1.3 -0.43c-0.22,0.2 -0.22,0.58 0,0.77 0.24,0.2 0.76,0.16 1.04,0.08l0 -0.9c-0.28,-0.11 -0.81,-0.17 -1.04,0.05zm1.86 3.64c-0.04,0 -0.09,0 -0.13,-0.02 -0.05,-0.01 -0.09,-0.03 -0.12,-0.06 -0.03,-0.02 -0.06,-0.06 -0.08,-0.1 -0.02,-0.04 -0.03,-0.08 -0.03,-0.14l0 -0.32c0,-0.05 0.01,-0.1 0.03,-0.14 0.02,-0.04 0.05,-0.07 0.08,-0.1 0.03,-0.03 0.07,-0.05 0.12,-0.06 0.04,-0.01 0.09,-0.02 0.13,-0.02 0.05,0 0.09,0.01 0.13,0.02 0.05,0.01 0.09,0.03 0.12,0.06 0.03,0.03 0.06,0.06 0.08,0.1 0.02,0.04 0.03,0.09 0.03,0.14l0 0.25 -0.53 0 0 0.07c0,0.02 0.01,0.04 0.02,0.05 0.01,0.02 0.02,0.03 0.04,0.04 0.01,0.02 0.03,0.03 0.05,0.03 0.02,0.01 0.04,0.01 0.06,0.01 0.03,0 0.07,-0.01 0.1,-0.02 0.03,-0.01 0.05,-0.04 0.07,-0.07l0.16 0.09c-0.01,0.03 -0.04,0.06 -0.06,0.09 -0.03,0.02 -0.05,0.04 -0.08,0.05 -0.03,0.02 -0.06,0.03 -0.09,0.04 -0.04,0.01 -0.07,0.01 -0.1,0.01zm0.17 -0.64c0,-0.02 0,-0.04 -0.01,-0.05 -0.01,-0.02 -0.02,-0.03 -0.04,-0.05 -0.01,-0.01 -0.03,-0.01 -0.05,-0.02 -0.02,-0.01 -0.04,-0.01 -0.07,-0.01 -0.02,0 -0.04,0 -0.06,0.01 -0.02,0.01 -0.04,0.01 -0.05,0.02 -0.02,0.02 -0.03,0.03 -0.04,0.05 -0.01,0.01 -0.02,0.03 -0.02,0.06l0 0.08 0.34 0 0 -0.09zm-0.85 -0.32c0.01,0 0.03,0 0.04,0 0.02,0 0.04,0.01 0.06,0.01l0 0.17c-0.02,0 -0.04,0 -0.07,0 0,0 -0.01,0 -0.01,0 -0.03,0 -0.06,0 -0.09,0.01 -0.03,0.02 -0.05,0.03 -0.07,0.05 -0.01,0.03 -0.02,0.05 -0.02,0.08l0 0.62 -0.2 0 0 -0.62c0,-0.07 0.02,-0.12 0.05,-0.17 0.03,-0.05 0.07,-0.08 0.12,-0.11 0.02,-0.01 0.03,-0.01 0.05,-0.02 0.02,0 0.04,-0.01 0.06,-0.01 0.01,0 0.03,-0.01 0.04,-0.01 0.02,0 0.03,0 0.04,0zm-1.04 0.96c-0.05,0 -0.1,0 -0.14,-0.02 -0.05,-0.01 -0.09,-0.03 -0.12,-0.05 -0.03,-0.03 -0.06,-0.06 -0.08,-0.1 -0.02,-0.04 -0.03,-0.09 -0.03,-0.15l0 -0.62 0.2 0 0 0.62c0,0.03 0.01,0.05 0.02,0.07 0.01,0.02 0.02,0.03 0.04,0.05 0.02,0.01 0.04,0.02 0.07,0.02 0.02,0.01 0.04,0.01 0.07,0.01 0.02,0 0.04,0 0.07,-0.01 0.02,0 0.04,-0.01 0.06,-0.02l0 -0.74 0.2 0 0 0.86c-0.06,0.03 -0.12,0.05 -0.18,0.06 -0.06,0.01 -0.12,0.02 -0.18,0.02zm-0.7 0c-0.05,0 -0.09,0 -0.13,-0.02 -0.04,-0.01 -0.07,-0.03 -0.1,-0.06 -0.03,-0.02 -0.06,-0.06 -0.07,-0.1 -0.02,-0.04 -0.03,-0.09 -0.03,-0.15l0 -0.83 0.18 0 0.02 0.22 0.17 0 0 0.18 -0.17 0 0 0.43c0,0.04 0,0.07 0.01,0.09 0.02,0.02 0.03,0.03 0.05,0.04 0.02,0.01 0.04,0.02 0.07,0.02 0.02,0 0.05,0 0.07,0l0 0.18c-0.02,0 -0.05,0 -0.07,0zm-1.01 0c-0.05,0 -0.09,0 -0.14,-0.02 -0.04,-0.01 -0.08,-0.03 -0.12,-0.05 -0.03,-0.03 -0.06,-0.06 -0.08,-0.1 -0.02,-0.04 -0.03,-0.09 -0.03,-0.15l0 -0.62 0.2 0 0 0.62c0,0.03 0.01,0.05 0.02,0.07 0.01,0.02 0.03,0.03 0.05,0.05 0.01,0.01 0.03,0.02 0.06,0.02 0.02,0.01 0.04,0.01 0.07,0.01 0.02,0 0.05,0 0.07,-0.01 0.02,0 0.04,-0.01 0.06,-0.02l0 -0.74 0.2 0 0 0.86c-0.06,0.03 -0.12,0.05 -0.18,0.06 -0.06,0.01 -0.12,0.02 -0.18,0.02zm-1.24 -0.72l0.55 0 0 0.21 -0.55 0 0 0.49 -0.21 0 0 -1.26 0.83 0 0 0.21 -0.62 0 0 0.35zm-1.24 0.72c-0.04,0 -0.09,0 -0.13,-0.02 -0.04,-0.01 -0.08,-0.03 -0.12,-0.06 -0.03,-0.02 -0.06,-0.06 -0.08,-0.1 -0.02,-0.04 -0.03,-0.08 -0.03,-0.14l0 -0.32c0,-0.05 0.01,-0.1 0.03,-0.14 0.02,-0.04 0.05,-0.07 0.08,-0.1 0.04,-0.03 0.08,-0.05 0.12,-0.06 0.04,-0.01 0.09,-0.02 0.13,-0.02 0.05,0 0.09,0.01 0.14,0.02 0.04,0.01 0.08,0.03 0.11,0.06 0.04,0.03 0.06,0.06 0.08,0.1 0.02,0.04 0.04,0.09 0.04,0.14l0 0.25 -0.53 0 0 0.07c0,0.02 0,0.04 0.01,0.05 0.01,0.02 0.02,0.03 0.04,0.04 0.01,0.02 0.03,0.03 0.05,0.03 0.02,0.01 0.04,0.01 0.06,0.01 0.04,0 0.07,-0.01 0.1,-0.02 0.03,-0.01 0.06,-0.04 0.07,-0.07l0.17 0.09c-0.02,0.03 -0.04,0.06 -0.07,0.09 -0.02,0.02 -0.05,0.04 -0.08,0.05 -0.03,0.02 -0.06,0.03 -0.09,0.04 -0.04,0.01 -0.07,0.01 -0.1,0.01zm0.18 -0.64c0,-0.02 -0.01,-0.04 -0.02,-0.05 -0.01,-0.02 -0.02,-0.03 -0.04,-0.05 -0.01,-0.01 -0.03,-0.01 -0.05,-0.02 -0.02,-0.01 -0.04,-0.01 -0.06,-0.01 -0.03,0 -0.05,0 -0.07,0.01 -0.02,0.01 -0.04,0.01 -0.05,0.02 -0.02,0.02 -0.03,0.03 -0.04,0.05 -0.01,0.01 -0.01,0.03 -0.01,0.06l0 0.08 0.34 0 0 -0.09zm-1.2 -0.32c0,0 0.01,0 0.01,0 0.05,0 0.09,0.01 0.13,0.02 0.04,0.01 0.08,0.03 0.11,0.06 0.03,0.03 0.06,0.06 0.08,0.1 0.02,0.04 0.03,0.09 0.03,0.14l0 0.62 -0.2 0 0 -0.62c0,-0.04 -0.01,-0.07 -0.03,-0.09 -0.03,-0.02 -0.06,-0.04 -0.09,-0.04 -0.02,-0.01 -0.04,-0.01 -0.06,-0.01 -0.02,0 -0.04,0 -0.06,0.01 -0.03,0 -0.07,0.01 -0.09,0.03l0 0.72 -0.2 0 0 -1.26 0.2 0 0 0.36c0.05,-0.03 0.11,-0.04 0.17,-0.04zm-0.71 0.96c-0.04,0 -0.08,0 -0.12,-0.02 -0.04,-0.01 -0.08,-0.03 -0.11,-0.06 -0.03,-0.02 -0.05,-0.06 -0.07,-0.1 -0.01,-0.04 -0.02,-0.09 -0.02,-0.15l0 -0.83 0.17 0 0.02 0.22 0.18 0 0 0.18 -0.18 0 0 0.43c0,0.04 0.01,0.07 0.02,0.09 0.01,0.02 0.02,0.03 0.04,0.04 0.02,0.01 0.04,0.02 0.07,0.02 0.02,0 0.05,0 0.08,0l0 0.18c-0.03,0 -0.05,0 -0.08,0zm-1.37 0.17c0.03,0 0.05,0 0.07,-0.01 0.02,0 0.04,-0.02 0.06,-0.03 0.01,-0.02 0.02,-0.04 0.03,-0.07 0.01,-0.02 0.02,-0.05 0.02,-0.09 -0.03,0.01 -0.06,0.02 -0.09,0.02 -0.02,0.01 -0.05,0.01 -0.08,0.01 -0.05,0 -0.09,-0.01 -0.14,-0.02 -0.04,-0.01 -0.08,-0.03 -0.11,-0.06 -0.04,-0.03 -0.07,-0.06 -0.09,-0.1 -0.02,-0.04 -0.03,-0.09 -0.03,-0.14l0 -0.31c0,-0.06 0.01,-0.11 0.04,-0.15 0.02,-0.04 0.05,-0.07 0.08,-0.1 0.04,-0.03 0.08,-0.05 0.13,-0.06 0.04,-0.01 0.09,-0.02 0.14,-0.02 0.06,0 0.12,0.01 0.18,0.03 0.06,0.02 0.11,0.04 0.16,0.07l0 0.86c0,0.06 -0.01,0.11 -0.03,0.15 -0.03,0.05 -0.05,0.08 -0.09,0.11 -0.03,0.03 -0.07,0.05 -0.11,0.06 -0.04,0.01 -0.09,0.02 -0.14,0.02 -0.03,0 -0.06,0 -0.1,-0.01 -0.03,-0.01 -0.06,-0.02 -0.1,-0.03 -0.03,-0.01 -0.05,-0.03 -0.08,-0.05 -0.03,-0.02 -0.05,-0.05 -0.07,-0.07l0.12 -0.12c0.03,0.04 0.06,0.07 0.1,0.08 0.05,0.02 0.09,0.03 0.13,0.03zm0.02 -0.95c-0.02,0 -0.04,0 -0.06,0.01 -0.03,0.01 -0.05,0.01 -0.06,0.03 -0.02,0.01 -0.03,0.02 -0.04,0.04 -0.01,0.02 -0.02,0.04 -0.02,0.07l0 0.31c0,0.03 0.01,0.05 0.02,0.06 0.01,0.02 0.02,0.04 0.04,0.05 0.02,0.01 0.04,0.02 0.06,0.03 0.02,0 0.04,0.01 0.06,0.01 0.03,0 0.06,-0.01 0.08,-0.01 0.03,-0.01 0.05,-0.02 0.07,-0.03l0 -0.53c-0.02,-0.01 -0.04,-0.02 -0.07,-0.03 -0.02,-0.01 -0.05,-0.01 -0.08,-0.01zm-0.68 0.15l0 0.61 -0.19 0 0 -0.61c0,-0.03 -0.01,-0.05 -0.02,-0.07 -0.01,-0.01 -0.03,-0.03 -0.05,-0.04 -0.02,-0.01 -0.04,-0.02 -0.06,-0.03 -0.02,0 -0.05,-0.01 -0.07,-0.01 -0.03,0 -0.05,0.01 -0.07,0.01 -0.03,0.01 -0.05,0.02 -0.06,0.03l0 0.72 -0.2 0 0 -0.86c0.04,-0.03 0.09,-0.05 0.15,-0.06 0.05,-0.01 0.11,-0.02 0.17,-0.02 0.05,0 0.1,0.01 0.15,0.02 0.05,0.01 0.09,0.03 0.13,0.06 0.04,0.02 0.07,0.06 0.09,0.1 0.02,0.04 0.03,0.09 0.03,0.15zm-1.28 -0.54c0,-0.04 0.02,-0.07 0.04,-0.1 0.02,-0.02 0.05,-0.03 0.09,-0.03 0.04,0 0.07,0.01 0.09,0.03 0.03,0.03 0.04,0.06 0.04,0.1 0,0.03 -0.01,0.06 -0.04,0.09 -0.02,0.02 -0.05,0.04 -0.09,0.04 -0.04,0 -0.07,-0.02 -0.09,-0.04 -0.02,-0.03 -0.04,-0.06 -0.04,-0.09zm0.23 1.15l-0.2 0 0 -0.92 0.2 0 0 0.92zm-0.53 -0.63l0 0.63 -0.19 0 0 -0.63c0,-0.04 -0.02,-0.07 -0.05,-0.09 -0.03,-0.02 -0.06,-0.03 -0.1,-0.03 -0.02,0 -0.04,0 -0.06,0.01 -0.01,0.01 -0.03,0.01 -0.05,0.02 -0.01,0.01 -0.02,0.02 -0.03,0.04 -0.01,0.01 -0.01,0.03 -0.01,0.05l0 0.63 -0.2 0 0 -0.63c0,-0.02 0,-0.04 -0.01,-0.05 -0.01,-0.02 -0.02,-0.03 -0.04,-0.04 -0.01,-0.01 -0.03,-0.02 -0.05,-0.02 -0.02,-0.01 -0.04,-0.01 -0.06,-0.01 -0.02,0 -0.05,0 -0.07,0.01 -0.02,0.01 -0.04,0.02 -0.06,0.03l0 0.71 -0.2 0 0 -0.84c0.04,-0.03 0.09,-0.05 0.15,-0.07 0.05,-0.02 0.11,-0.03 0.17,-0.03 0.05,0 0.11,0.01 0.15,0.03 0.05,0.02 0.09,0.05 0.12,0.09 0.02,-0.04 0.06,-0.07 0.11,-0.09 0.04,-0.02 0.09,-0.03 0.14,-0.03 0.04,0 0.08,0.01 0.13,0.02 0.04,0.01 0.07,0.03 0.11,0.06 0.03,0.02 0.05,0.05 0.07,0.09 0.02,0.04 0.03,0.08 0.03,0.14zm-1.53 -0.31c0.01,0 0.03,0 0.05,0 0.01,0 0.03,0.01 0.05,0.01l0 0.17c-0.02,0 -0.04,0 -0.07,0 0,0 -0.01,0 -0.01,0 -0.03,0 -0.06,0 -0.09,0.01 -0.02,0.02 -0.05,0.03 -0.06,0.05 -0.02,0.03 -0.03,0.05 -0.03,0.08l0 0.62 -0.2 0 0 -0.62c0,-0.07 0.02,-0.12 0.05,-0.17 0.03,-0.05 0.07,-0.08 0.12,-0.11 0.02,-0.01 0.03,-0.01 0.05,-0.02 0.02,0 0.04,-0.01 0.06,-0.01 0.01,0 0.03,-0.01 0.05,-0.01 0.01,0 0.02,0 0.03,0zm-0.87 0.31c0,-0.02 -0.01,-0.04 -0.02,-0.06 -0.01,-0.02 -0.02,-0.03 -0.04,-0.04 -0.02,-0.01 -0.04,-0.02 -0.06,-0.03 -0.02,0 -0.05,0 -0.07,0 -0.04,0 -0.08,0 -0.11,0.01 -0.03,0.02 -0.06,0.04 -0.09,0.06l-0.11 -0.11c0.05,-0.06 0.1,-0.09 0.16,-0.11 0.06,-0.02 0.11,-0.03 0.17,-0.03 0.05,0 0.09,0.01 0.14,0.02 0.04,0.01 0.08,0.03 0.11,0.06 0.04,0.02 0.06,0.05 0.09,0.09 0.02,0.04 0.03,0.08 0.03,0.14l0 0.59c-0.05,0.02 -0.1,0.03 -0.16,0.04 -0.06,0.02 -0.13,0.02 -0.19,0.02 -0.05,0 -0.1,0 -0.14,-0.01 -0.05,-0.01 -0.09,-0.03 -0.12,-0.05 -0.04,-0.02 -0.07,-0.05 -0.09,-0.08 -0.02,-0.04 -0.03,-0.09 -0.03,-0.14 0,-0.05 0.01,-0.1 0.03,-0.13 0.02,-0.04 0.04,-0.07 0.08,-0.09 0.03,-0.03 0.07,-0.05 0.11,-0.06 0.04,-0.01 0.08,-0.02 0.12,-0.02 0.04,0 0.07,0.01 0.1,0.01 0.03,0.01 0.06,0.02 0.09,0.03l0 -0.11zm-0.16 0.23c-0.06,0 -0.1,0.01 -0.13,0.04 -0.03,0.02 -0.05,0.06 -0.05,0.1 0,0.02 0.01,0.04 0.02,0.05 0.01,0.02 0.02,0.03 0.04,0.04 0.01,0.01 0.03,0.02 0.05,0.02 0.02,0.01 0.04,0.01 0.06,0.01 0.04,0 0.07,0 0.1,-0.01 0.02,0 0.05,-0.01 0.07,-0.01l0 -0.21c-0.02,-0.01 -0.04,-0.01 -0.07,-0.02 -0.03,-0.01 -0.06,-0.01 -0.09,-0.01zm-1.18 -0.3l0.55 0 0 0.21 -0.55 0 0 0.49 -0.21 0 0 -1.26 0.84 0 0 0.21 -0.63 0 0 0.35z"/>
 </g>
</svg>
