<?xml version="1.0" encoding="UTF-8"?>
<!DOCTYPE svg PUBLIC "-//W3C//DTD SVG 1.1//EN" "http://www.w3.org/Graphics/SVG/1.1/DTD/svg11.dtd">
<!-- Creator: CorelDRAW 2018 (64-Bit) -->
<svg xmlns="http://www.w3.org/2000/svg" xml:space="preserve" width="35px" height="35px" version="1.1" style="shape-rendering:geometricPrecision; text-rendering:geometricPrecision; image-rendering:optimizeQuality; fill-rule:evenodd; clip-rule:evenodd"
viewBox="0 0 1.77 1.77"
 xmlns:xlink="http://www.w3.org/1999/xlink">
 <defs>
  <style type="text/css">
   <![CDATA[
    .fil0 {fill:#E62129}
   ]]>
  </style>
 </defs>
 <g id="Layer_x0020_1">
  <metadata id="CorelCorpID_0Corel-Layer"/>
  <path class="fil0" d="M0.89 0c0.48,0 0.88,0.4 0.88,0.89 0,0.48 -0.4,0.88 -0.88,0.88 -0.49,0 -0.89,-0.4 -0.89,-0.88 0,-0.49 0.4,-0.89 0.89,-0.89zm0 0.78l-0.32 -0.32c-0.01,-0.01 -0.02,-0.01 -0.03,-0.02 -0.01,0 -0.03,0 -0.04,0 -0.01,0.01 -0.02,0.01 -0.03,0.02l-0.01 0.01c-0.01,0.01 -0.01,0.02 -0.02,0.03 0,0.01 0,0.03 0,0.04 0.01,0.01 0.01,0.02 0.02,0.03l0.32 0.32 -0.32 0.31c-0.01,0.01 -0.01,0.02 -0.02,0.03 0,0.01 0,0.03 0,0.04 0.01,0.01 0.01,0.02 0.02,0.03l0.01 0.01c0.01,0.01 0.02,0.01 0.03,0.02 0.01,0 0.03,0 0.04,0 0.01,-0.01 0.02,-0.01 0.03,-0.02l0.32 -0.32 0.31 0.32c0.01,0.01 0.02,0.01 0.03,0.02 0.01,0 0.03,0 0.04,0 0.01,-0.01 0.02,-0.01 0.03,-0.02l0.01 -0.01c0.01,-0.01 0.01,-0.02 0.02,-0.03 0,-0.01 0,-0.03 0,-0.04 -0.01,-0.01 -0.01,-0.02 -0.02,-0.03l-0.32 -0.31 0.32 -0.32c0.01,-0.01 0.01,-0.02 0.02,-0.03 0,-0.01 0,-0.03 0,-0.04 -0.01,-0.01 -0.01,-0.02 -0.02,-0.03l-0.01 -0.01c-0.01,-0.01 -0.02,-0.01 -0.03,-0.02 -0.01,0 -0.03,0 -0.04,0 -0.01,0.01 -0.02,0.01 -0.03,0.02l-0.31 0.32z"/>
 </g>
</svg>
