<?xml version="1.0" encoding="UTF-8"?>
<!DOCTYPE svg PUBLIC "-//W3C//DTD SVG 1.1//EN" "http://www.w3.org/Graphics/SVG/1.1/DTD/svg11.dtd">
<!-- Creator: CorelDRAW 2018 (64-Bit) -->
<svg xmlns="http://www.w3.org/2000/svg" xml:space="preserve" width="35px" height="35px" version="1.1" style="shape-rendering:geometricPrecision; text-rendering:geometricPrecision; image-rendering:optimizeQuality; fill-rule:evenodd; clip-rule:evenodd"
viewBox="0 0 1.54 1.54"
 xmlns:xlink="http://www.w3.org/1999/xlink">
 <defs>
  <style type="text/css">
   <![CDATA[
    .fil0 {fill:#088378}
   ]]>
  </style>
 </defs>
 <g id="Layer_x0020_1">
  <metadata id="CorelCorpID_0Corel-Layer"/>
  <path class="fil0" d="M0.43 0.25c0.07,0 0.13,0.06 0.13,0.14 0,0.07 -0.06,0.13 -0.13,0.13 -0.07,0 -0.13,-0.06 -0.13,-0.13 0,-0.08 0.06,-0.14 0.13,-0.14zm0.85 1.11l0.15 0 0 0.05 -0.15 0 0 0.08 0.16 0 0 0.05 -0.21 0 0 -0.32 0.21 0 0 0.05 -0.16 0 0 0.09zm-0.47 -0.14l0.06 0 0.09 0.21 0.09 -0.21 0.06 0 0 0.32 -0.05 0 0 -0.14 0.01 -0.09 -0.01 0 -0.02 0.07 -0.06 0.12 -0.04 0 -0.05 -0.12 -0.03 -0.07 0 0 0 0.09 0 0.14 -0.05 0 0 -0.32zm-0.08 0.32l-0.06 0 -0.03 -0.08 -0.12 0 -0.03 0.08 -0.05 0 0.11 -0.32 0.06 0 0.12 0.32zm-0.15 -0.27l-0.01 0.06 -0.03 0.08 0.08 0 -0.03 -0.09 -0.01 -0.05 0 0zm-0.48 0.27l0 -0.32 0.05 0 0.12 0.19 0.03 0.07 0 0 0 -0.07 0 -0.19 0.05 0 0 0.32 -0.06 0 -0.11 -0.18 -0.03 -0.07 -0.01 0 0.01 0.07 0 0.18 -0.05 0zm0.06 -1.54l1.22 0c0.05,0 0.09,0.02 0.12,0.05l0 0c0.03,0.03 0.04,0.07 0.04,0.11l0 0.69c0,0.04 -0.01,0.08 -0.04,0.11l0 0c-0.03,0.03 -0.07,0.05 -0.12,0.05l-1.22 0c-0.04,0 -0.08,-0.02 -0.11,-0.05l0 0c-0.03,-0.03 -0.05,-0.07 -0.05,-0.11l0 -0.69c0,-0.04 0.02,-0.08 0.05,-0.11l0 0c0.03,-0.03 0.07,-0.05 0.11,-0.05zm1.22 0.08l-1.22 0c-0.02,0 -0.04,0.01 -0.05,0.03l0 0c-0.02,0.01 -0.03,0.03 -0.03,0.05l0 0.69c0,0.02 0.01,0.04 0.03,0.05l0 0c0.01,0.02 0.03,0.03 0.05,0.03l1.22 0c0.02,0 0.04,-0.01 0.06,-0.03l0 0c0.01,-0.01 0.02,-0.03 0.02,-0.05l0 -0.69c0,-0.02 -0.01,-0.04 -0.02,-0.05l0 0c-0.02,-0.02 -0.04,-0.03 -0.06,-0.03zm-0.59 0.22l0.52 0c0.02,0 0.04,0.02 0.04,0.04l0 0c0,0.02 -0.02,0.04 -0.04,0.04l-0.52 0c-0.02,0 -0.04,-0.02 -0.04,-0.04l0 0c0,-0.02 0.02,-0.04 0.04,-0.04zm0 0.35l0.28 0c0.02,0 0.04,0.01 0.04,0.04l0 0c0,0.02 -0.02,0.04 -0.04,0.04l-0.28 0c-0.02,0 -0.04,-0.02 -0.04,-0.04l0 0c0,-0.03 0.02,-0.04 0.04,-0.04zm0 -0.18l0.52 0c0.02,0 0.04,0.02 0.04,0.04l0 0c0,0.03 -0.02,0.04 -0.04,0.04l-0.52 0c-0.02,0 -0.04,-0.01 -0.04,-0.04l0 0c0,-0.02 0.02,-0.04 0.04,-0.04zm-0.27 0.06c0.13,0.03 0.15,0.12 0.15,0.16 0,0.05 -0.11,0.1 -0.24,0.1 -0.14,0 -0.24,-0.05 -0.24,-0.1 0,-0.04 0.02,-0.13 0.15,-0.16 0.02,0.02 0.06,0.03 0.09,0.03 0.03,0 0.07,-0.01 0.09,-0.03z"/>
 </g>
</svg>
