<?xml version="1.0" encoding="UTF-8"?>
<!DOCTYPE svg PUBLIC "-//W3C//DTD SVG 1.1//EN" "http://www.w3.org/Graphics/SVG/1.1/DTD/svg11.dtd">
<!-- Creator: CorelDRAW 2018 (64-Bit) -->
<svg xmlns="http://www.w3.org/2000/svg" xml:space="preserve" width="35px" height="40px" version="1.1" style="shape-rendering:geometricPrecision; text-rendering:geometricPrecision; image-rendering:optimizeQuality; fill-rule:evenodd; clip-rule:evenodd"
viewBox="0 0 1.54 1.77"
 xmlns:xlink="http://www.w3.org/1999/xlink">
 <defs>
  <style type="text/css">
   <![CDATA[
    .fil0 {fill:#088378;fill-rule:nonzero}
   ]]>
  </style>
 </defs>
 <g id="Layer_x0020_1">
  <metadata id="CorelCorpID_0Corel-Layer"/>
  <path class="fil0" d="M0.79 0.2c0.02,0 0.03,0 0.04,0l0 0c0.01,0 0.02,0 0.02,0l0 0c0.01,0 0.01,0 0.01,0l0 0c0.01,0 0.01,0 0.01,0l0 0c0.02,0.01 0.05,0.01 0.07,0.02l0 0c0,0 0.01,0 0.01,0l0 0 0 0.01 0 0c0.01,0 0.02,0 0.03,0.01l0 0c0,0 0.02,0.01 0.02,0.01 0.01,0 0.01,0 0.01,0 0.01,0 0.01,0.01 0.01,0.01 0.01,0 0.02,0.01 0.03,0.02 0,0 0.01,0 0.01,0 0,0 0.01,0.01 0.01,0.01l0 0c0,0 0.01,0 0.01,0.01 0,0 0,0 0,0l0.12 -0.1 -0.06 0.01 -0.02 -0.15 0.42 -0.06 -0.12 0.42 -0.14 -0.04 0.02 -0.07 -0.12 0.1 0 0.01 0 0c0.01,0.01 0.03,0.04 0.03,0.04l0 0.01 0 0c0,0.01 0,0.01 0.01,0.02l0 0 0 0 0 0 0 0 0 0.01 0 0 0 0 0 0 0 0c0,0 0,0 0,0.01l0 0 0.01 0 0 0 0 0 0 0 0 0.01c0,0 0,0 0,0 0,0 0,0.02 0,0.02l0 0c0.01,0.01 0.01,0.02 0.01,0.02 0,0.01 0,0.03 0,0.03l0 0c0,0.01 0,0.01 0,0.02l0 0c0.01,0.01 0.01,0.03 0.01,0.04l0 0c0,0.06 -0.02,0.12 -0.04,0.17 -0.02,0.06 -0.05,0.11 -0.1,0.15 -0.04,0.04 -0.09,0.07 -0.14,0.1 -0.06,0.02 -0.11,0.03 -0.18,0.03 -0.04,0 -0.08,-0.01 -0.13,-0.02 -0.04,-0.01 -0.08,-0.03 -0.12,-0.05l-0.01 -0.01 0.01 -0.01c0,-0.02 0,-0.03 0,-0.04 0,-0.02 0.01,-0.03 0.01,-0.04 0.01,-0.01 0.01,-0.02 0.01,-0.02 0.01,-0.01 0.01,-0.01 0.01,-0.02l0.02 -0.02 0.01 0.02c0.03,0.02 0.06,0.03 0.09,0.04 0.04,0.02 0.07,0.02 0.1,0.02 0.05,0 0.08,-0.01 0.12,-0.02 0.04,-0.02 0.07,-0.04 0.1,-0.07 0.03,-0.02 0.05,-0.06 0.06,-0.09 0.02,-0.04 0.03,-0.08 0.03,-0.12 0,-0.04 -0.01,-0.08 -0.03,-0.12 -0.01,-0.03 -0.03,-0.07 -0.06,-0.09 -0.03,-0.03 -0.06,-0.06 -0.1,-0.07 -0.04,-0.02 -0.07,-0.02 -0.12,-0.02 -0.04,0 -0.08,0 -0.11,0.02 -0.04,0.01 -0.07,0.04 -0.1,0.07 -0.02,0.02 -0.05,0.05 -0.06,0.08 -0.02,0.03 -0.02,0.07 -0.03,0.11l0 0.01 -0.01 0c0,0.01 -0.01,0.01 -0.02,0.02 0,0 -0.01,0.01 -0.02,0.02 -0.01,0.01 -0.02,0.02 -0.02,0.03 -0.01,0.01 -0.02,0.02 -0.03,0.03l-0.03 0.04 -0.01 -0.04c0,-0.02 0,-0.03 -0.01,-0.05 0,-0.01 0,-0.03 0,-0.04 0,-0.06 0.01,-0.12 0.04,-0.17 0.02,-0.06 0.05,-0.11 0.09,-0.15 0.05,-0.04 0.1,-0.08 0.15,-0.1 0.06,-0.02 0.11,-0.03 0.17,-0.03l0 0zm0 1.28c-0.05,0 -0.11,-0.01 -0.16,-0.03 -0.04,-0.02 -0.09,-0.04 -0.12,-0.07l-0.15 0.12 0.15 0.17 -0.12 0.1 -0.15 -0.17 -0.11 0.1 -0.09 -0.11 0.11 -0.1 -0.15 -0.17 0.11 -0.1 0.15 0.17 0.15 -0.13c-0.02,-0.03 -0.04,-0.06 -0.05,-0.1 -0.01,-0.04 -0.02,-0.09 -0.02,-0.13 0,-0.06 0.01,-0.12 0.04,-0.18 0.02,-0.05 0.05,-0.1 0.09,-0.14 0.05,-0.04 0.1,-0.08 0.15,-0.1 0.06,-0.02 0.11,-0.04 0.17,-0.04 0.05,0 0.09,0.01 0.13,0.02 0.05,0.02 0.09,0.04 0.12,0.06l0.01 0.01 0 0.01c0,0.01 0,0.03 0,0.04 -0.01,0.01 -0.01,0.03 -0.02,0.04 0,0.01 0,0.01 0,0.02 -0.01,0 -0.01,0.01 -0.01,0.02l-0.02 0.02 -0.02 -0.02c-0.02,-0.02 -0.05,-0.04 -0.08,-0.05 -0.04,-0.01 -0.07,-0.02 -0.11,-0.02 -0.04,0 -0.08,0.01 -0.11,0.03 -0.04,0.01 -0.07,0.03 -0.1,0.06 -0.03,0.03 -0.05,0.06 -0.07,0.1 -0.01,0.04 -0.02,0.08 -0.02,0.12 0,0.04 0.01,0.08 0.02,0.11 0.02,0.04 0.04,0.07 0.07,0.1 0.03,0.03 0.06,0.05 0.1,0.07 0.03,0.01 0.07,0.02 0.11,0.02 0.05,0 0.08,-0.01 0.12,-0.02 0.04,-0.02 0.07,-0.04 0.1,-0.07 0.02,-0.02 0.04,-0.05 0.06,-0.09 0.01,-0.03 0.02,-0.06 0.03,-0.1l0 -0.01 0 0c0.01,-0.01 0.02,-0.02 0.02,-0.02 0.01,-0.01 0.02,-0.01 0.02,-0.02 0.01,-0.01 0.02,-0.02 0.03,-0.03 0.01,-0.01 0.02,-0.03 0.03,-0.04l0.03 -0.04 0.01 0.05c0,0.01 0,0.03 0,0.04 0.01,0.02 0.01,0.03 0.01,0.05 0,0.06 -0.02,0.12 -0.04,0.17 -0.02,0.06 -0.05,0.1 -0.1,0.15 -0.04,0.04 -0.09,0.07 -0.14,0.09 -0.06,0.03 -0.11,0.04 -0.18,0.04z"/>
 </g>
</svg>
