<?xml version="1.0" encoding="UTF-8"?>
<!DOCTYPE svg PUBLIC "-//W3C//DTD SVG 1.1//EN" "http://www.w3.org/Graphics/SVG/1.1/DTD/svg11.dtd">
<!-- Creator: CorelDRAW 2018 (64-Bit) -->
<svg xmlns="http://www.w3.org/2000/svg" xml:space="preserve" width="35px" height="35px" version="1.1" style="shape-rendering:geometricPrecision; text-rendering:geometricPrecision; image-rendering:optimizeQuality; fill-rule:evenodd; clip-rule:evenodd"
viewBox="0 0 0.64 0.64"
 xmlns:xlink="http://www.w3.org/1999/xlink">
 <defs>
  <style type="text/css">
   <![CDATA[
    .fil0 {fill:#EEEEEF}
   ]]>
  </style>
 </defs>
 <g id="Layer_x0020_1">
  <metadata id="CorelCorpID_0Corel-Layer"/>
  <path class="fil0" d="M0.46 0.06l-0.1 0.1 -0.2 0c-0.04,0 -0.05,0 -0.06,0.01 -0.02,0.01 -0.02,0.02 -0.03,0.03 -0.01,0.01 -0.01,0.02 -0.01,0.06l0 0.23c0,0.03 0,0.04 0.01,0.05 0.01,0.02 0.01,0.03 0.03,0.03 0.01,0.01 0.02,0.01 0.06,0.01l0.27 0c0.03,0 0.04,0 0.06,-0.01 0.01,0 0.02,-0.01 0.03,-0.03 0,-0.01 0.01,-0.02 0.01,-0.05l0 -0.25 0.05 -0.06 0 0.29c0,0.06 0,0.08 -0.01,0.1 -0.02,0.03 -0.03,0.04 -0.05,0.05 -0.02,0.02 -0.05,0.02 -0.1,0.02l-0.25 0c-0.06,0 -0.08,0 -0.1,-0.02 -0.02,-0.01 -0.04,-0.02 -0.05,-0.05 -0.01,-0.02 -0.02,-0.04 -0.02,-0.1l0 -0.24c0,-0.06 0.01,-0.08 0.02,-0.1 0.01,-0.03 0.03,-0.04 0.05,-0.05 0.02,-0.02 0.04,-0.02 0.1,-0.02l0.29 0zm0.16 -0.05l0.01 0.01c0.02,0.01 0.02,0.04 0,0.05l-0.35 0.36 -0.09 0.02 0.02 -0.08 0.36 -0.36c0.01,-0.01 0.04,-0.01 0.05,0l0 0 0 0z"/>
 </g>
</svg>
